<?xml version="1.0" encoding="UTF-8"?>
<!-- Generator: Adobe Illustrator 25.2.1, SVG Export Plug-In . SVG Version: 6.00 Build 0)  -->
<svg xmlns="http://www.w3.org/2000/svg" xmlns:xlink="http://www.w3.org/1999/xlink" version="1.1" id="Lager_1" x="0px" y="0px" width="284px" height="226.8px" viewBox="0 0 284 226.8" style="enable-background:new 0 0 284 226.8;" xml:space="preserve"><rect fill="#FFFFFF" x="0px" y="0px" width="284px" height="226.8px" />
<style type="text/css">
	.st0{fill:#FFFFFF;}
	.st1{fill:url(#SVGID_1_);}
	.st2{fill:none;stroke:#000000;stroke-width:2;stroke-linecap:round;}
	.st3{fill:none;stroke:#000000;stroke-linecap:round;}
	.st4{fill:url(#SVGID_2_);}
	.st5{fill:none;}
	.st6{fill:none;stroke:#000000;}
	.st7{fill:none;stroke:#000000;stroke-width:0.5;stroke-linecap:round;}
</style>
<rect y="1.4" class="st0" width="284" height="225.4" />
<g>
	
		<linearGradient id="SVGID_1_" gradientUnits="userSpaceOnUse" x1="31.1139" y1="833.744" x2="40.7752" y2="810.4239" gradientTransform="matrix(1 0 0 1 0 -616)">
		<stop offset="0" style="stop-color:#FFFFFF" />
		<stop offset="1" style="stop-color:#EDEDED" />
	</linearGradient>
	<polygon class="st1" points="59.5,222.7 67.7,187.1 49.2,182.2 26.7,171.8 28.5,169.7 19.2,187.5 3.8,210.2  " />
	<path class="st2" d="M7.8,203.7c0,0,23.4-35.6,24.6-42.7s3.7-59.2,4.8-67.2s0.2-17.4,2.9-24.8s4.4-16.8,4.4-16.8" />
	<path class="st2" d="M45.2,54.7l0.1-14.4c0,0,16.9-1.7,10.5,21.3c0,0,3.3,9.2-1,19.1c0,0,4,5.3,0.4,14.1" />
	<line class="st2" x1="51" y1="38.6" x2="52" y2="28.9" />
	<path class="st2" d="M52.4,29.6l0.7-14.5c0,0,11.2-1.6,12.2,7.9s-1.5,15.2-1.5,15.2s5.2,8.4,0.8,19.5c0,0,4.3,17.2,1.2,25.1" />
	<path class="st2" d="M63.2,14.1l0.5-10.2c0,0,12.9-1.2,13.4,11.3s-2,14.8-3.4,16.3" />
	<path class="st2" d="M73.4,29.3c0,0,4.3,16.6-0.7,25c0,0,5.9,14.1,1.4,24.8" />
	<path class="st2" d="M75.9,58.4l2.9-2.6c1.2-1,3.4-1.7,4.9-1.4l21.1,3.7c1.5,0.3,3.3,1.7,4,3.1l3.8,8.5" />
	<path class="st2" d="M111.3,69.4l6.2,10.2c0,0-6.2,7-16.3,0.8" />
	<polyline class="st2" points="100.4,80.2 98.2,74.2 87.9,72.7 81.8,80.5  " />
	<line class="st3" x1="74.5" y1="78.8" x2="80" y2="80.6" />
	<path class="st2" d="M83.1,78.8c0,0-1.8,8-3.5,17.6s-1.7,9.6-1.7,9.6" />
	<path class="st3" d="M72.8,134.8c0,0,0-22.2,4.9-30.4" />
	<path class="st2" d="M100.9,81.6c0,0-6.7,13.5-5.3,18.1c1.4,4.6,2.9,22.6,0.7,31.3s-9.2,26-15.1,32.6s-10,8-10,8L61,216.4" />
	<path class="st3" d="M30.9,171.6c0,0,11.7,13.9,34.7,13.9" />
	<g>
		<path d="M108.9,70.8c0,0-0.1,0.2-0.2,0.6c-0.2,0.4-0.3,1-0.4,1.7c-0.1,0.4-0.1,0.7-0.1,1.2c0,0.4,0,0.8,0,1.3    c0,0.4,0.1,0.9,0.1,1.4c0.1,0.4,0.2,1,0.3,1.3l0.2,0.7c0.1,0.2,0.2,0.3,0.3,0.5c0.3,0.3,0.5,0.6,0.9,0.7s0.8,0.2,1.1,0.1    c0.4,0,0.8-0.1,1.1-0.2c0.7-0.2,1.3-0.4,1.7-0.6c0.4-0.2,0.6-0.3,0.6-0.3s-0.2,0.2-0.5,0.5c-0.4,0.3-0.9,0.6-1.6,1    c-0.4,0.2-0.8,0.3-1.2,0.4c-0.2,0.1-0.5,0.1-0.7,0.1c-0.3,0-0.5,0-0.8-0.1c-0.5-0.1-1-0.5-1.4-0.9c-0.2-0.2-0.3-0.5-0.5-0.8    l-0.2-0.7c-0.1-0.6-0.2-1-0.3-1.6c-0.1-0.5-0.1-1,0-1.5c0-0.5,0.1-0.9,0.2-1.4c0.1-0.4,0.2-0.8,0.3-1.2c0.2-0.7,0.6-1.3,0.8-1.6    C108.7,71,108.9,70.8,108.9,70.8z" />
	</g>
	<path class="st3" d="M73.7,80.5c0,0-2.7,2.5-7.3,2" />
	<g>
		<path d="M64.4,86.2c0,0,0.2,0.8,0,1.9c-0.1,0.3-0.1,0.6-0.3,0.9c-0.1,0.3-0.3,0.7-0.5,1s-0.4,0.6-0.7,0.9s-0.6,0.6-0.9,0.8    c-0.3,0.2-0.7,0.5-1,0.6c-0.3,0.2-0.7,0.4-1,0.5c-0.7,0.3-1.4,0.4-1.9,0.5c-0.6,0.1-1.1,0.1-1.4,0.1c-0.3,0-0.5,0-0.5,0    s0.2-0.1,0.5-0.2s0.8-0.2,1.3-0.4c0.3-0.1,0.5-0.2,0.8-0.3c0.3-0.1,0.6-0.3,0.9-0.4c0.3-0.1,0.6-0.3,0.9-0.5    c0.3-0.2,0.6-0.4,0.9-0.6c0.3-0.2,0.5-0.5,0.8-0.7c0.2-0.3,0.5-0.5,0.7-0.8s0.4-0.5,0.5-0.8s0.3-0.5,0.4-0.8    C64.3,87,64.4,86.2,64.4,86.2z" />
	</g>
	<g>
		<path d="M78.9,105.8c0,0,0.5,0.4,1,1c0.6,0.6,1.3,1.6,1.9,2.5c0.6,1,1.2,2,1.6,2.7c0.4,0.8,0.6,1.4,0.6,1.4s-0.5-0.4-1-1    c-0.6-0.6-1.3-1.6-1.9-2.5c-0.6-1-1.2-2-1.6-2.7C79.1,106.4,78.9,105.8,78.9,105.8z" />
	</g>
	<g>
		<path d="M61.4,108.4c0,0,0.3,1,0.7,2.7s1.1,4.2,1.7,7.2c0.3,1.5,0.7,3.1,1,4.8c0.3,1.7,0.7,3.5,1,5.4c0.3,1.9,0.6,3.8,0.9,5.8    s0.5,4,0.7,6.1c0.1,1,0.1,2,0.2,3.1c0.1,1,0.1,2,0.1,3.1c0,1,0,2-0.1,3s-0.1,2-0.3,2.9c-0.1,0.5-0.2,1-0.3,1.4    c-0.1,0.5-0.3,0.9-0.4,1.4c-0.3,0.9-0.6,1.7-0.9,2.6c-0.7,1.6-1.4,3.2-2.2,4.5s-1.7,2.5-2.5,3.4c-0.8,1-1.6,1.7-2.3,2.3    c-1.4,1.1-2.3,1.6-2.3,1.6s0.9-0.5,2.2-1.7c0.6-0.6,1.4-1.4,2.1-2.4c0.8-1,1.5-2.1,2.3-3.4c0.8-1.3,1.4-2.8,2-4.4    c0.3-0.8,0.6-1.6,0.8-2.5c0.1-0.4,0.3-0.9,0.4-1.3c0.1-0.5,0.2-0.9,0.2-1.4c0.2-0.9,0.2-1.9,0.3-2.8c0.1-1,0.1-2,0.1-2.9    c0-1,0-2-0.1-3c0-1-0.1-2-0.2-3c-0.1-2-0.4-4-0.6-6c-0.3-2-0.5-3.9-0.8-5.8c-0.6-3.8-1.2-7.3-1.7-10.3c-0.6-3-1-5.5-1.4-7.3    C61.6,109.4,61.4,108.4,61.4,108.4z" />
	</g>
	<g>
		<path d="M52.3,168.2c0,0,0.3-0.1,0.7-0.3c0.2-0.1,0.5-0.2,0.8-0.4s0.6-0.4,1-0.6c0.4-0.2,0.7-0.5,1.1-0.8c0.4-0.3,0.8-0.6,1.2-0.9    c0.4-0.3,0.8-0.7,1.2-1c0.4-0.4,0.8-0.7,1.2-1.2c0.4-0.4,0.8-0.8,1.1-1.2s0.7-0.8,1-1.2s0.6-0.8,0.9-1.2c0.3-0.4,0.6-0.8,0.8-1.1    c0.5-0.7,0.9-1.3,1.2-1.7S65,156,65,156s-0.1,0.3-0.3,0.7c-0.2,0.4-0.4,1.1-0.9,1.9c-0.2,0.4-0.4,0.8-0.7,1.2s-0.6,0.9-0.9,1.3    c-0.3,0.5-0.7,0.9-1,1.3c-0.3,0.5-0.8,0.9-1.2,1.3c-0.4,0.4-0.8,0.8-1.3,1.2c-0.4,0.4-0.9,0.7-1.3,1c-0.9,0.6-1.8,1.1-2.6,1.5    c-0.8,0.3-1.5,0.5-2,0.6C52.6,168.2,52.3,168.2,52.3,168.2z" />
	</g>
</g>
<g id="Färg_1_">
	
		<linearGradient id="SVGID_2_" gradientUnits="userSpaceOnUse" x1="320.5497" y1="-459.5235" x2="331.683" y2="-442.9925" gradientTransform="matrix(0.9757 0.2192 0.2192 -0.9757 -60.9424 -321.4984)">
		<stop offset="0" style="stop-color:#FFFFFF" />
		<stop offset="1" style="stop-color:#EDEDED" />
	</linearGradient>
	<polygon class="st4" points="168.2,224.6 187.8,185.2 190,180.2 178.7,171.5 172.4,161.4 166.5,153.3 168,137.5 131.9,173.2  " />
</g>
<g>
	<path d="M267.5,199c0,0-0.2-0.3-0.6-0.9c-0.4-0.6-1-1.4-1.7-2.4c-0.4-0.5-0.8-1-1.2-1.5c-0.2-0.3-0.5-0.5-0.7-0.8   c-0.2-0.2-0.5-0.5-0.7-0.5s-0.5,0-0.9,0.1s-0.7,0.2-1.1,0.4c-0.7,0.3-1.4,0.7-2.1,1.1c-0.7,0.4-1.4,0.8-2,1.3   c-0.3,0.2-0.6,0.5-0.8,0.7c-0.2,0.3-0.3,0.5-0.3,0.9c-0.1,0.7,0,1.4,0.1,2.1c0.1,0.7,0.4,1.3,0.6,1.8s0.5,1.1,0.7,1.5   s0.5,0.8,0.7,1.1c0.4,0.6,0.6,0.9,0.6,0.9s-0.1-0.1-0.2-0.2c-0.1-0.1-0.3-0.3-0.6-0.6c-0.5-0.6-1.1-1.4-1.7-2.5   c-0.3-0.6-0.6-1.2-0.8-1.9s-0.4-1.5-0.3-2.3c0-0.4,0.2-0.9,0.5-1.3c0.3-0.4,0.6-0.6,1-0.9c0.7-0.5,1.4-0.9,2.1-1.4s1.5-0.8,2.2-1.1   c0.4-0.2,0.8-0.3,1.2-0.4c0.2-0.1,0.4-0.1,0.6-0.1c0.1,0,0.2,0,0.4,0c0.1,0,0.1,0,0.2,0h0.1h0.1c0.5,0.2,0.8,0.5,1.1,0.8   c0.3,0.3,0.5,0.6,0.7,0.9c0.4,0.6,0.8,1.2,1.1,1.7c0.7,1.1,1.1,2,1.4,2.6C267.3,198.7,267.5,199,267.5,199z" />
</g>
<g>
	<path d="M277.8,186.2c0,0-0.2-0.4-0.6-1s-0.9-1.5-1.5-2.5c-0.3-0.5-0.7-1.1-1.1-1.6c-0.2-0.3-0.4-0.5-0.7-0.8   c-0.1-0.1-0.2-0.2-0.3-0.3c-0.1,0-0.1-0.1-0.1-0.1h-0.1h-0.1c-0.6-0.1-1.4,0.1-2.1,0.3s-1.4,0.6-2.1,1s-1.3,0.9-1.9,1.4   c-0.3,0.3-0.5,0.5-0.8,0.8c-0.1,0.1-0.2,0.3-0.3,0.4L266,184c0,0.1-0.1,0.2-0.1,0.2c-0.1,0.4,0.1,1.2,0.3,1.8   c0.3,0.6,0.5,1.2,0.8,1.8c0.5,1.1,0.9,2,1.2,2.7c0.3,0.7,0.4,1,0.4,1s-0.2-0.3-0.6-0.9c-0.4-0.6-0.9-1.5-1.6-2.5   c-0.3-0.5-0.7-1.1-1-1.7c-0.2-0.3-0.3-0.7-0.4-1.1c-0.1-0.4-0.2-0.8-0.1-1.4c0-0.1,0.1-0.2,0.1-0.3c0.1-0.2,0.1-0.2,0.2-0.3   c0.1-0.2,0.2-0.3,0.4-0.5c0.2-0.3,0.5-0.7,0.8-1c0.6-0.6,1.3-1.1,2-1.5s1.5-0.8,2.3-1s1.6-0.5,2.6-0.3l0.2,0.1l0.2,0.1   c0.1,0.1,0.2,0.1,0.3,0.2c0.2,0.2,0.3,0.3,0.4,0.5c0.3,0.3,0.5,0.6,0.6,0.9c0.4,0.6,0.7,1.2,1,1.8c0.6,1.1,0.9,2.1,1.2,2.7   C277.7,185.8,277.8,186.2,277.8,186.2z" />
</g>
<path class="st2" d="M134.4,169.2c2.6-2.9,41.6-43.8,57.4-45.7c12-1.5,51.4,13.7,51.4,13.7s8.8-0.8,13.5,10.2l12.3,14.7l10.7,25.8  c0,0-0.6,7-9.9,7.3" />
<path class="st5" d="M138.5,161.5" />
<path class="st2" d="M169.5,152.8c0,0,2.4,16.7,19.8,25.2" />
<path class="st6" d="M167.4,142.2c0,0-4.8,10.4,5,19.2" />
<path class="st2" d="M186.9,173.6l14.3,24.9c0,0,3.3,3.8,9.1,1.8c4.3-1.5,4.8-3.4,4.8-3.4" />
<path class="st2" d="M205.9,168.5l10.5,26.1c0,0,2.7,4.2,8,1.8s5-4.7,4.8-6.8s-6.6-28.7-6.6-28.7l0.4-3.9" />
<line class="st2" x1="188.9" y1="183.2" x2="172.4" y2="214.4" />
<path class="st2" d="M221.1,199.2c0,0-2.7,8.9,6.1,11.6" />
<line class="st2" x1="236.5" y1="200.1" x2="228.3" y2="210.7" />
<path class="st2" d="M242.5,196.2" />
<path class="st2" d="M244.1,194.6c0,0-3.4,6.9-10.2,7.4" />
<path class="st7" d="M240.3,176.5c0,0,3.8-7.4,11.2-7.1" />
<path class="st7" d="M242.7,175.9c0,0,7.9-5,8.1-4.8" />
<path class="st7" d="M254.5,165.9c0,0,4.3-4.9,10.3-5.9" />
<g>
	<path d="M258.6,204.2c0,0,0.3-0.7,0.9-1.5c0.3-0.4,0.7-0.9,1.2-1.3c0.5-0.4,1.1-0.8,1.7-1.2c0.3-0.2,0.6-0.3,0.9-0.5   s0.6-0.2,0.9-0.4c0.3-0.1,0.6-0.2,0.9-0.3s0.6-0.1,0.8-0.1c0.5-0.1,0.9-0.1,1.2-0.1c0.3,0,0.5,0,0.5,0s-0.2,0.1-0.4,0.2   c-0.3,0.1-0.7,0.2-1.1,0.4c-0.2,0.1-0.5,0.2-0.7,0.3c-0.3,0.1-0.5,0.2-0.8,0.4c-0.5,0.3-1.1,0.6-1.7,0.9c-0.6,0.3-1.1,0.7-1.6,1   c-0.5,0.4-1,0.7-1.4,1C259.1,203.7,258.6,204.2,258.6,204.2z" />
</g>
<g>
	<path d="M269.2,191c0,0,0.3-0.7,0.9-1.5c0.3-0.4,0.7-0.9,1.2-1.3c0.5-0.4,1.1-0.8,1.7-1.2c0.3-0.2,0.6-0.3,0.9-0.5s0.6-0.2,0.9-0.4   c0.3-0.1,0.6-0.2,0.9-0.3s0.6-0.1,0.8-0.1c0.5-0.1,0.9-0.1,1.2-0.1c0.3,0,0.5,0,0.5,0s-0.2,0.1-0.4,0.2c-0.3,0.1-0.7,0.2-1.1,0.4   c-0.2,0.1-0.5,0.2-0.7,0.3c-0.3,0.1-0.5,0.2-0.8,0.4c-0.5,0.3-1.1,0.6-1.7,0.9c-0.6,0.3-1.1,0.7-1.6,1c-0.5,0.4-1,0.7-1.4,1   C269.7,190.6,269.2,191,269.2,191z" />
</g>
<line class="st2" x1="238.7" y1="147.1" x2="242.1" y2="155.9" />
<path class="st2" d="M227.4,169.2l14.3,17.3c0,0,9.7,17.7,15,22c5.3,4.3,16.6-2.7,12.6-8.7l-4.5-6.8l-9.6-20.3L239.8,153" />
<path class="st7" d="M256.8,166.8c0,0,5.5-0.9,9.1-4.8" />
</svg>
