<?xml version="1.0" encoding="UTF-8"?>
<!-- Generator: Adobe Illustrator 18.1.1, SVG Export Plug-In . SVG Version: 6.00 Build 0)  -->
<svg xmlns="http://www.w3.org/2000/svg" xmlns:xlink="http://www.w3.org/1999/xlink" version="1.1" id="Lager_1" x="0px" y="0px" width="226.77px" height="226.77px" viewBox="0 0 226.77 226.77" enable-background="new 0 0 226.77 226.77" xml:space="preserve"><rect fill="#FFFFFF" x="0px" y="0px" width="226.77px" height="226.77px" />
<g>
	<linearGradient id="SVGID_1_" gradientUnits="userSpaceOnUse" x1="61.1395" y1="182.5465" x2="70.8064" y2="159.2127">
		<stop offset="0" style="stop-color:#FFFFFF" />
		<stop offset="1" style="stop-color:#EDEDED" />
	</linearGradient>
	<polygon fill="url(#SVGID_1_)" points="86.046,188.703 99.38,151.37 78.431,148.709 55.904,138.311 56.38,140.036 48.38,154.036    36.38,176.036  " />
	<line fill="none" stroke="#000000" stroke-width="2" stroke-linecap="round" x1="85.213" y1="190.703" x2="104.221" y2="137.273" />
	<path fill="none" stroke="#000000" stroke-width="2" stroke-linecap="round" d="M98.806,141.316c0,0,22.994-5.611,44.772-33.86" />
	<path fill="none" stroke="#000000" stroke-width="2" d="M142.33,109.047c0,0,10.382-16.344,28.473-22.466   c9.242-3.128,6.208-8.121,6.208-8.121" />
	<path fill="none" stroke="#000000" stroke-width="2" stroke-linecap="round" d="M39.213,170.203c0,0,21.282-41.159,25.523-47.992   c4.242-6.833,12.732-40.325,14.991-47.413c2.259-7.088,2.78-7.499,7.633-10.047" />
	<path fill="none" stroke="#000000" stroke-width="2" d="M123.205,81.24c0,0-2.026,7.09,1.571,8.917s5.884,1.653,11.266-2.739   c5.381-4.392,7.964-6.538,7.964-6.538" />
	<g>
		<path d="M103.23,77.73c0.876,0.373,1.792,0.624,2.702,0.863c0.915,0.224,1.837,0.409,2.766,0.533    c0.462,0.074,0.925,0.135,1.392,0.169c0.465,0.043,0.928,0.094,1.396,0.099c0.467,0.008,0.93,0.049,1.395,0.043l1.394-0.017    c0.464-0.016,0.927-0.064,1.389-0.094c0.463-0.024,0.923-0.076,1.381-0.148l1.375-0.179l1.362-0.264    c0.912-0.145,1.795-0.443,2.69-0.66c0.447-0.111,0.879-0.285,1.321-0.417l1.316-0.427l0.299-0.097l0.323,0.079    c0.769,0.188,1.602,0.356,2.413,0.501c0.817,0.145,1.638,0.271,2.461,0.376c1.643,0.234,3.294,0.382,4.942,0.44    c3.282,0.079,6.603-0.113,9.607-1.157l0.366-0.127l0.371,0.113c1.15,0.351,2.359,0.7,3.554,1.001    c1.2,0.305,2.409,0.57,3.622,0.796c2.421,0.444,4.881,0.781,7.28,0.64c1.188-0.073,2.382-0.259,3.391-0.757    c0.476-0.251,1.1-0.61,1.559-0.93c0.498-0.321,0.988-0.704,1.441-1.105c0.462-0.398,0.893-0.834,1.289-1.3    c0.41-0.457,0.767-0.958,1.104-1.476c0.641-1.051,1.182-2.195,1.442-3.434c-0.181,2.533-1.406,4.984-3.192,6.871    c-0.446,0.479-0.912,0.924-1.435,1.34c-0.537,0.451-0.984,0.762-1.593,1.148c-1.206,0.725-2.542,1.036-3.846,1.234    c-1.312,0.175-2.622,0.198-3.917,0.151c-1.295-0.056-2.583-0.161-3.856-0.351c-1.272-0.187-2.535-0.415-3.789-0.683    c-1.259-0.271-2.489-0.557-3.749-0.94l0.736-0.014c-1.705,0.613-3.462,0.978-5.218,1.184c-1.757,0.209-3.516,0.23-5.259,0.154    c-1.743-0.083-3.473-0.26-5.186-0.526c-0.855-0.142-1.706-0.305-2.554-0.489c-0.853-0.187-1.678-0.383-2.548-0.631l0.622-0.018    l-1.408,0.4c-0.471,0.126-0.932,0.285-1.414,0.371c-0.962,0.174-1.904,0.425-2.878,0.52l-1.449,0.188l-1.458,0.095    c-0.485,0.034-0.971,0.047-1.459,0.03c-0.487-0.01-0.972-0.003-1.457-0.027l-1.452-0.108c-0.483-0.032-0.963-0.121-1.442-0.186    c-0.48-0.059-0.954-0.164-1.427-0.26c-0.475-0.088-0.944-0.203-1.41-0.33c-0.936-0.232-1.846-0.56-2.74-0.905    C104.906,78.651,104.039,78.233,103.23,77.73z" />
	</g>
	<g>
		<path d="M109.228,78.247c0,0,0.107,0.515-0.027,1.272c-0.06,0.378-0.178,0.813-0.364,1.255c-0.172,0.45-0.439,0.891-0.724,1.316    c-0.305,0.413-0.644,0.799-1.003,1.117c-0.363,0.312-0.721,0.579-1.06,0.757c-0.322,0.2-0.626,0.308-0.834,0.385    c-0.209,0.075-0.332,0.108-0.332,0.108s0.078-0.105,0.22-0.273c0.142-0.168,0.352-0.389,0.584-0.667    c0.242-0.267,0.502-0.59,0.787-0.921c0.269-0.347,0.564-0.702,0.823-1.085c0.273-0.372,0.526-0.76,0.754-1.132    c0.23-0.371,0.433-0.73,0.607-1.044C109.003,78.707,109.228,78.247,109.228,78.247z" />
	</g>
	<g>
		<path d="M105.572,86.023c-0.053,3.55-0.123,7.099-0.25,10.645c-0.128,3.546-0.215,7.094-0.395,10.637l-0.482,10.633l-0.603,10.627    l-0.002,0.031l-0.003,0.016c-0.092,0.473-0.221,0.873-0.373,1.29c-0.15,0.411-0.328,0.81-0.522,1.199    c-0.392,0.777-0.868,1.507-1.406,2.185c-1.072,1.36-2.391,2.504-3.842,3.411c-1.445,0.922-3.034,1.583-4.66,2.06    c-0.812,0.244-1.639,0.428-2.467,0.591c-0.831,0.152-1.669,0.25-2.507,0.333c0.83-0.144,1.651-0.322,2.467-0.517    c0.812-0.211,1.618-0.44,2.403-0.727c1.569-0.571,3.077-1.299,4.446-2.227c1.369-0.926,2.588-2.065,3.554-3.386    c0.487-0.657,0.901-1.364,1.252-2.096c0.176-0.366,0.338-0.739,0.471-1.119c0.133-0.374,0.253-0.781,0.318-1.135l-0.005,0.047    l0.481-10.633l0.602-10.627c0.182-3.543,0.456-7.082,0.689-10.622C104.973,93.098,105.264,89.56,105.572,86.023z" />
	</g>
	<path fill="none" stroke="#000000" d="M60.52,140.347c0,0,10.831,9.884,35.041,10.706" />
	<path fill="none" stroke="#000000" stroke-width="2" stroke-linecap="round" d="M98.109,61.401c0,0,24.703-2.056,29.331-2.429   s7.018,0.841,11.249,1.651s20.485,4.794,20.485,4.794" />
	<line fill="none" stroke="#000000" stroke-width="2" stroke-linecap="round" x1="159.486" y1="66.465" x2="170.313" y2="70.905" />
	<path fill="none" stroke="#000000" stroke-width="2" stroke-linecap="round" d="M81.458,65.405c0,0,1.413-9.057,7.459-9.38" />
	<path fill="none" stroke="#000000" stroke-width="1.5" stroke-linecap="round" stroke-linejoin="bevel" d="M86.684,54.081   c0,0,2.478-5.624,7.263-4.954s40.909,2.791,40.909,2.791l38.495,12.211" />
	<path fill="none" stroke="#000000" stroke-width="2" stroke-linecap="round" d="M174.363,65.141l9.893,3.193   c0,0,0.181,12.101-14.817,8.87" />
	<path fill="none" stroke="#000000" stroke-width="2" stroke-linecap="round" d="M139.713,49.703   c3.205-0.719,42.25,14.036,42.25,14.036" />
	<path fill="none" stroke="#000000" stroke-width="1.5" stroke-linecap="round" d="M181.673,63.89l11.462,3.353   c0,0-0.694,11.293-11.953,11.051" />
	<g>
		<path d="M129.109,95.985c0,0,0.192,0.095,0.496,0.315c0.301,0.22,0.721,0.557,1.166,1.015c0.453,0.452,0.946,1.013,1.423,1.648    c0.491,0.628,0.95,1.341,1.395,2.059c0.426,0.73,0.841,1.467,1.174,2.185c0.351,0.709,0.629,1.393,0.858,1.984    c0.451,1.183,0.653,2.011,0.653,2.011s-0.508-0.687-1.167-1.755c-0.342-0.528-0.712-1.156-1.119-1.821    c-0.401-0.666-0.828-1.377-1.255-2.088c-0.418-0.714-0.852-1.418-1.261-2.075c-0.407-0.659-0.801-1.265-1.142-1.785    C129.645,96.642,129.109,95.985,129.109,95.985z" />
	</g>
	<g>
		<path d="M146.634,83.211c0,0,0.455,0.425,1.024,1.131c0.576,0.702,1.271,1.681,1.897,2.701c0.621,1.024,1.173,2.089,1.531,2.921    c0.365,0.828,0.533,1.426,0.533,1.426s-0.456-0.425-1.025-1.13c-0.576-0.701-1.27-1.681-1.896-2.702    c-0.62-1.024-1.171-2.09-1.53-2.922C146.802,83.808,146.634,83.211,146.634,83.211z" />
	</g>
	<g>
		<path d="M129.718,58.914c0,0,0.152,0.535,0.298,1.32c0.155,0.786,0.313,1.823,0.466,2.852c0.155,1.03,0.311,2.06,0.428,2.832    c0.069,0.393,0.127,0.72,0.168,0.949c0.041,0.234,0.057,0.375,0.057,0.375s-0.091-0.102-0.239-0.294    c-0.155-0.189-0.337-0.481-0.53-0.848c-0.186-0.368-0.372-0.815-0.52-1.306c-0.156-0.49-0.26-1.026-0.352-1.563    c-0.153-1.078-0.146-2.167-0.048-2.977C129.535,59.444,129.718,58.914,129.718,58.914z" />
	</g>
	<path fill="none" stroke="#000000" stroke-linecap="round" d="M132.848,60.39c0,0-0.385,5.063-0.635,8.063" />
	<g>
		<path d="M159.3,67.842c0,0,0.331,0.84,0.935,2.006c0.608,1.155,1.528,2.656,2.807,3.711c0.322,0.257,0.659,0.491,1.01,0.683    c0.36,0.201,0.708,0.325,0.98,0.34c0.604,0.042,1.239-0.429,1.752-0.812c0.52-0.396,0.964-0.75,1.291-0.97    c0.324-0.226,0.522-0.338,0.522-0.338s-0.134,0.181-0.368,0.498c-0.237,0.314-0.566,0.759-1.019,1.272    c-0.227,0.259-0.492,0.525-0.834,0.78c-0.335,0.254-0.798,0.478-1.335,0.498c-0.57,0.028-1.038-0.197-1.448-0.399    c-0.425-0.211-0.824-0.484-1.182-0.797c-1.471-1.241-2.273-2.976-2.675-4.261C159.327,68.752,159.3,67.842,159.3,67.842z" />
	</g>
	<g>
		<path d="M171.637,66.542c0,0,0.658,0.609,1.645,1.522c0.494,0.447,1.069,0.964,1.702,1.48c0.639,0.502,1.328,1.039,2.068,1.386    c0.363,0.181,0.738,0.315,1.088,0.349c0.357,0.022,0.64-0.024,0.95-0.209c0.729-0.416,1.421-0.787,2.024-1.089    c1.201-0.613,2.05-0.947,2.05-0.947s-0.666,0.616-1.737,1.429c-0.533,0.411-1.166,0.871-1.858,1.346    c-0.386,0.283-0.977,0.485-1.501,0.432c-0.53-0.038-1.012-0.206-1.453-0.413c-0.872-0.439-1.593-1.031-2.214-1.628    c-0.619-0.599-1.133-1.208-1.542-1.753C172.036,67.363,171.637,66.542,171.637,66.542z" />
	</g>
	<path fill="none" stroke="#000000" stroke-linecap="round" d="M186.59,69.907c1.649,0.159,2.983-2.436,4.303-3.32" />
	<g>
		<path d="M98.809,81.419c0,0,0.529,0.171,1.274,0.449c0.735,0.277,1.716,0.646,2.696,1.015c0.978,0.376,1.956,0.752,2.689,1.034    c0.373,0.154,0.683,0.283,0.901,0.373c0.218,0.098,0.343,0.163,0.343,0.163s-0.553,0.091-1.371,0.024    c-0.819-0.051-1.898-0.271-2.918-0.661c-1.019-0.392-1.974-0.94-2.619-1.45C99.15,81.868,98.809,81.419,98.809,81.419z" />
	</g>
	<path fill="none" stroke="#000000" stroke-width="1.4" stroke-linecap="round" d="M110.213,48.453   c13.221-0.484,33.277,1.741,33.277,1.741" />
</g>
</svg>
