<?xml version="1.0" encoding="UTF-8"?>
<!-- Generator: Adobe Illustrator 18.1.1, SVG Export Plug-In . SVG Version: 6.00 Build 0)  -->
<svg xmlns="http://www.w3.org/2000/svg" xmlns:xlink="http://www.w3.org/1999/xlink" version="1.1" id="Lager_1" x="0px" y="0px" width="226.77px" height="226.77px" viewBox="0 0 226.77 226.77" enable-background="new 0 0 226.77 226.77" xml:space="preserve"><rect fill="#FFFFFF" x="0px" y="0px" width="226.77px" height="226.77px" />
<g>
	<g id="Färg_4_">
		
			<linearGradient id="SVGID_1_" gradientUnits="userSpaceOnUse" x1="51.0584" y1="52.0603" x2="75.9821" y2="68.8457" gradientTransform="matrix(1 0 0 -1 0 226.11)">
			<stop offset="0" style="stop-color:#FFFFFF" />
			<stop offset="1" style="stop-color:#EDEDED" />
		</linearGradient>
		<path fill="url(#SVGID_1_)" d="M100.355,173.037c0,0-1.675-2.47-1.719-2.52c-0.988-1.113-11.919-14.907-14.95-21.766    c-3.166-7.166-1.989-9.434-2.656-11.268s-1.652-9.631-4.177-8.898c-0.358,0.104-19.5,11.166-19.5,11.166l-10.667,6l-8.333,4.667    l22.167,43l0.333,0.833L100.355,173.037z" />
	</g>
	<g>
		<path d="M129.538,64.723c0,0,0.531,0.045,1.262,0.283c0.735,0.227,1.666,0.636,2.547,1.131c0.877,0.501,1.703,1.087,2.282,1.587    c0.584,0.493,0.922,0.9,0.922,0.9s-0.516-0.121-1.219-0.409c-0.708-0.281-1.609-0.719-2.478-1.209    c-0.866-0.495-1.7-1.043-2.311-1.49C129.931,65.072,129.538,64.723,129.538,64.723z" />
	</g>
	<g>
		<path d="M130.122,62.079c0,0-0.002-0.036,0.018-0.107c0.024-0.062,0.066-0.183,0.196-0.256c0.248-0.171,0.691-0.178,1.132-0.048    c0.457,0.113,0.931,0.352,1.422,0.631c0.482,0.288,0.965,0.637,1.43,1.003c0.919,0.747,1.748,1.585,2.321,2.257    c0.565,0.681,0.904,1.168,0.904,1.168s-0.503-0.322-1.2-0.854c-0.7-0.529-1.599-1.263-2.494-1.985    c-0.443-0.368-0.899-0.712-1.324-1.038c-0.433-0.305-0.839-0.596-1.208-0.779c-0.364-0.19-0.7-0.303-0.917-0.224    C130.18,61.912,130.117,62.086,130.122,62.079z" />
	</g>
	<line fill="none" stroke="#000000" stroke-width="2" stroke-linecap="round" x1="54.833" y1="140.667" x2="99.281" y2="117.462" />
	<path fill="none" stroke="#000000" stroke-width="2" stroke-linecap="round" d="M95.467,120.962c0,0,17.399-24.079,20.549-38.187   c0,0,16.808-18.082,18.596-30.735" />
	<g>
		<path d="M141.219,85.792c0,0,0.817,0.2,1.883,0.711c1.083,0.488,2.409,1.295,3.641,2.225c1.229,0.934,2.364,1.992,3.125,2.905    c0.779,0.889,1.19,1.624,1.19,1.624s-0.818-0.199-1.884-0.709c-1.084-0.487-2.409-1.295-3.639-2.227    c-1.228-0.936-2.361-1.996-3.123-2.907C141.632,86.525,141.219,85.792,141.219,85.792z" />
	</g>
	<path fill="none" stroke="#000000" stroke-width="2" stroke-linecap="round" d="M145.994,91.635c0,0,19.601-7.265,25.449-2.218   c5.849,5.047,6.944,6.918,6.126,12.328c-0.818,5.41,5.776,9.273,3.047,17.471c-2.526,7.588,0.522,9.95-0.501,14.83   c-1.023,4.88-2.045,6.631-3.8,9.797c-1.756,3.166,1.674,7.292-1.731,12.252c-3.406,4.96-8.973,9.743-22.028,10.614   s-34.399,2.005-39.881,1.451c-5.482-0.554-35.714,18.506-35.714,18.506" />
	<path fill="none" stroke="#000000" d="M79.833,132.333c0,0,4.486,24.533,18,38" />
	<g>
		<path d="M133.99,57.091c0.075-2.593,0.177-5.184,0.289-7.774l0.392-7.766l0.017-0.327l0.308-0.173    c1.176-0.658,2.374-1.115,3.685-1.397c1.3-0.26,2.709-0.299,4.081,0.096c0.682,0.196,1.345,0.501,1.945,0.904    c0.595,0.41,1.106,0.919,1.556,1.464c0.867,1.114,1.439,2.376,1.83,3.645c0.202,0.661,0.34,1.212,0.512,1.824l0.417,1.883    c0.224,1.26,0.432,2.533,0.495,3.829c0.088,1.292,0.071,2.599-0.068,3.88c-0.117,1.287-0.341,2.543-0.581,3.781    c-0.486,2.474-1.114,4.864-1.664,7.268c-0.525,2.392-1.098,4.841-1.718,7.246c-0.623,2.408-1.305,4.793-1.938,7.176    c-0.313,1.192-0.59,2.388-0.795,3.596c-0.189,1.207-0.298,2.437-0.139,3.674c-0.355-1.194-0.455-2.47-0.411-3.726    c0.033-1.259,0.195-2.507,0.377-3.742c0.181-1.236,0.405-2.461,0.631-3.68l0.679-3.653l1.324-7.309l1.457-7.27    c0.216-1.196,0.413-2.386,0.505-3.57c0.101-1.184,0.144-2.363,0.076-3.544c-0.041-1.181-0.22-2.363-0.414-3.544l-0.364-1.751    c-0.143-0.586-0.284-1.243-0.428-1.772c-0.295-1.107-0.737-2.151-1.362-3.021c-0.642-0.85-1.461-1.52-2.465-1.866    c-0.996-0.359-2.138-0.419-3.274-0.262c-1.13,0.14-2.31,0.481-3.34,0.948l0.325-0.499l-0.917,7.721    C134.686,51.951,134.352,54.522,133.99,57.091z" />
	</g>
	<g>
		<path d="M136.219,52.8c0,0,0.243,0.054,0.667,0.148c0.419,0.098,1.034,0.203,1.741,0.25c0.348,0.014,0.739,0.002,1.042-0.106    c0.154-0.038,0.259-0.167,0.292-0.206c0.119-0.21,0.179-0.386,0.236-0.555c0.247-0.825,0.426-1.785,0.528-2.734    c0.064-0.475,0.099-0.955,0.121-1.426c0.015-0.472,0.031-0.935,0.016-1.383c-0.032-0.444-0.034-0.882-0.1-1.285    c-0.042-0.41-0.128-0.784-0.198-1.138c-0.096-0.342-0.184-0.662-0.283-0.938c-0.121-0.264-0.207-0.514-0.316-0.695    c-0.223-0.36-0.347-0.585-0.347-0.585s0.186,0.16,0.506,0.473c0.286,0.334,0.682,0.85,0.985,1.564    c0.138,0.358,0.297,0.75,0.387,1.181c0.122,0.427,0.186,0.886,0.245,1.362c0.043,0.477,0.086,0.971,0.071,1.472    c-0.012,0.501-0.035,1.01-0.094,1.515c-0.133,1.011-0.328,2.005-0.7,2.929c-0.114,0.262-0.23,0.507-0.357,0.671    c-0.246,0.306-0.518,0.434-0.781,0.492c-0.519,0.117-0.949,0.035-1.332-0.041c-0.762-0.17-1.328-0.453-1.726-0.633    C136.429,52.938,136.219,52.8,136.219,52.8z" />
	</g>
</g>
</svg>
