<?xml version="1.0" encoding="UTF-8"?>
<!DOCTYPE svg PUBLIC "-//W3C//DTD SVG 1.1//EN" "http://www.w3.org/Graphics/SVG/1.1/DTD/svg11.dtd">
<!-- Generator: Adobe Illustrator 14.0.0, SVG Export Plug-In . SVG Version: 6.00 Build 43363)  -->
<svg xmlns="http://www.w3.org/2000/svg" xmlns:xlink="http://www.w3.org/1999/xlink" version="1.1" x="0px" y="0px" width="150.236px" height="226.771px" viewBox="0 0 150.236 226.771" enable-background="new 0 0 150.236 226.771" xml:space="preserve"><rect fill="#FFFFFF" x="0px" y="0px" width="150.236px" height="226.771px" />
<g id="Färg">
	<linearGradient id="SVGID_1_" gradientUnits="userSpaceOnUse" x1="56.9463" y1="200.4141" x2="60.9463" y2="186.414">
		<stop offset="0" style="stop-color:#FFFFFF" />
		<stop offset="1" style="stop-color:#EDEDED" />
	</linearGradient>
	<path fill="url(#SVGID_1_)" d="M88,210l2.667-27.666L93,171c0,0-16.667,1.001-19-0.666S58.667,164.666,55,161   s-10.667-12.666-11.667-12.666s-3,4.666-3,4.666L35,171.667c0,0-7.333,16.667-8.667,17.667S73,206,88,210z" />
</g>
<g id="Lager_1">
	<g>
		<path d="M138.021,29.921c0.111,0.671,1.118,0.783,1.678,1.007c2.237,1.9,3.579,4.809,3.131,7.716    c0.448,0.336-0.224,0.896-0.335,1.343c0,1.453-0.783,2.572-1.008,4.026c-0.446,0.223-0.223,0.783-0.559,1.006l0.225,0.225    c-0.783,1.117-0.896,2.013-1.565,3.242c-2.685,6.71-6.04,12.861-8.947,19.46c-0.336,0.225-0.56,0.671-0.447,1.119h-0.225    c-1.677,2.907-2.796,5.814-4.473,8.611c0.223,0.782-0.447,0.559-0.561,1.118c-2.907,4.696-4.808,9.841-5.256,15.545l0.113,0.224    c-0.561,0.559-0.561,1.677-0.672,2.572c-1.119,4.809-1.901,10.625-3.355,15.769v0.112c-2.572,7.94-6.374,15.545-10.736,22.59    c0,0.336-0.447,0.67-0.67,1.008c-3.468,6.037-6.71,12.523-10.179,18.453c0.113,0.895-0.782,1.453-0.446,2.57    c-0.447,0.672-0.672,1.678-0.783,2.461c-0.112,1.455-0.672,2.35-0.783,3.803c-0.67,1.342-1.006,2.908-1.118,4.361    c-0.224,0.447-1.342,0.561-2.012,0.225c-0.336-2.35,0.894-4.475,1.229-6.822c0.447-2.461,1.007-4.139,1.565-6.598    c0.224-1.008-0.112-2.686,1.343-2.91l0.559-0.334c4.92-11.295,12.637-21.359,17.335-32.879l1.565-3.915    c-0.447-0.336,0.335-0.447,0.335-0.896c0-0.893,0.896-2.124,0.896-3.129c2.124-7.494,3.131-15.769,4.92-23.821    c0.895-2.013,1.118-4.585,2.908-6.039c1.006-2.46,2.349-4.81,3.578-7.27c1.678-3.691,3.692-7.494,5.369-11.408h0.111    c0.895-1.9,2.125-3.802,2.685-5.927c2.124-3.914,3.69-8.388,5.368-12.413c0.559-0.673-0.225-1.566,0.67-2.014    c0.225-0.559,0.225-1.23,0.336-1.79c-1.678,1.566-3.69,4.25-6.374,3.355c-1.343-0.335-2.461-1.343-3.803-1.454    c-1.119-1.118-0.559-2.571-0.559-3.913c-1.23-0.225-1.902,1.453-2.349,2.46c-1.678,1.678-2.685,4.249-4.138,6.038    c-4.81,7.941-8.053,16.664-12.415,24.828c-0.895,0.559-0.56,1.118-1.454,1.678c-0.111,0-0.224-0.111-0.335-0.224    c0-0.224,0.335-0.336,0.111-0.56c-1.229,0.896-0.895,2.685-1.789,3.914c0,0.896-0.67,1.455-0.783,2.35    c-1.229,1.453-0.335,4.362-2.683,4.585c-1.008-1.006-0.225-2.46,0-3.467c1.565-4.25,3.019-8.501,3.913-12.974    c-0.783-2.572-3.243-4.585-5.704-5.032c-1.117-0.895-3.801,0.223-3.354-2.237c-1.118,1.343-1.006,3.803-2.237,5.033    c-1.9,3.914-3.242,8.275-6.598,11.296c-0.223-0.112-0.559,0.111-0.783-0.112c1.23-2.46,2.349-5.704,3.802-8.275    c0.56-1.453,1.679-2.908,1.679-4.474c0.783-1.79,1.789-3.468,1.117-5.48c-1.453-2.348-3.466-4.697-6.598-5.032    c-2.46,1.007-5.814,1.118-7.045,3.802c-2.014,2.573-5.48,2.013-7.382,4.361c-1.006-0.559-2.684,1.455-2.907-0.446    c0.335-0.559-0.224-1.119,0.224-1.566c1.006,0.225,2.236,0.225,3.243,0c2.571-2.461,5.592-4.249,7.045-7.492    c1.791-2.685-0.336-5.48-2.013-7.717c-1.119-1.118-2.461-2.685-4.026-2.796c-0.671-1.118-1.9-0.672-3.019-0.56    c-1.008,0.446-2.013,0.783-2.907,1.565c-3.915,1.566-7.047,5.256-9.619,8.388c-0.224,1.342-1.901,1.678-2.572,2.908    c-5.368,6.598-9.617,13.756-13.085,21.36c-0.559,0.559-0.895,1.118-1.788,1.007c-0.225-0.224-0.672-0.224-0.56-0.56    c0.894-0.672-0.56-1.006-0.336-1.677c-2.014-2.237-2.349-5.257-3.467-7.828c0.335-1.008-0.671-2.237,0.112-3.021    c-3.02-7.828-8.389-15.993-16.664-19.236c-2.126-1.117-4.809-0.111-6.821,0.783c-0.896,1.343-2.796,2.572-1.791,4.362    c2.126,4.025,6.151,6.71,9.171,10.176v0.783c-1.788,1.007-2.348-1.565-3.69-1.789c0-0.895-1.23-0.336-1.007-1.229    c-2.683-2.686-6.151-5.145-7.045-8.836c0.111-2.349,2.125-4.696,4.25-5.703c4.361-2.572,9.953-0.56,13.644,2.125    c2.908,2.46,6.039,5.367,8.052,8.835c0.447,1.23,1.007,2.46,1.565,3.579c2.126,4.025,1.791,8.835,4.362,12.861    c0,0.782,0.336,1.677,1.008,2.46c2.795-6.264,6.933-12.19,10.624-18.117c4.584-4.81,9.058-11.296,15.433-14.092    c1.79-1.677,3.915-1.566,6.375-1.342c3.243,1.118,5.145,3.69,7.492,6.039c0.113,1.006,1.118,1.117,1.007,2.236    c1.007,1.565,0.783,3.914,0.111,5.704c1.008-0.56,2.796-0.224,3.133-1.678c1.005-0.112,2.124,0.446,3.242-0.112    c0.336,0.224,1.007-0.224,1.007,0.337c0.112,0.446-0.112,0.559,0.224,0.782c0.223-0.112,0.336,0,0.56,0.111    c2.125,1.902,4.474,4.249,5.368,7.157c-0.113,0.448-0.225,0.783,0.111,1.118c0.672-0.895,1.566-0.781,2.685-0.781    c1.229,0.559,2.461,0.334,3.579,1.229c2.012,1.007,4.025,3.02,4.92,5.368c0.895,1.565-0.112,3.467-0.446,5.145h0.334    c0.672-1.901,1.565-4.026,2.573-5.928l-0.111-0.336c1.006-1.788,2.236-4.138,2.683-6.262c0.895-1.454,1.791-3.132,2.237-4.697    c2.125-4.362,4.921-8.5,7.157-12.638c0.446-0.335,0.671-1.118,1.119-1.566c0.446-0.671,1.006-1.564,1.229-2.348    c0.113,0,0.224-0.225,0.335-0.336c-0.222-0.447,0.783-0.783,1.231-1.006c0.782-1.454,1.677-2.796,2.236-4.14    c1.565-0.11,2.684-2.124,4.36-1.453C135.45,29.81,136.679,29.81,138.021,29.921z" />
		<polygon fill="#FFFFFF" points="138.916,33.5 137.014,32.606 137.91,32.829   " />
		<path fill="#FFFFFF" d="M139.475,35.737c-1.789-1.006-3.802-1.453-5.815-2.236c1.008-0.672,2.35,0,3.354,0.111    C138.021,34.284,138.916,34.843,139.475,35.737z" />
		<path fill="#FFFFFF" d="M139.923,36.967c0.224-0.111,0.111-0.336,0.224-0.56l-0.447-0.335c1.007,0.111,0.671,1.342,0.559,2.125    c-1.118,2.013-3.02,3.914-5.257,4.585c-1.564-0.895-3.354,0-4.249-1.789c-1.229-0.783-0.447-2.684-0.335-3.803l1.006-3.021    C134.331,34.843,137.351,35.514,139.923,36.967z" />
		<path d="M90.043,199.019c1.007-9.061,2.014-18.117,3.915-26.953c1.006-0.447,0.336-1.455,0.896-2.125    c0.335-0.447,0.222-1.23,0.894-1.678c0.111-0.672,0.447-1.117,0-1.789c-0.223-0.225-0.783-0.783-1.342-0.672    c-2.237,0.783-1.454,3.691-3.131,4.809c-4.81,0.449-9.172,0-13.868-0.67c-11.631-2.461-22.255-8.053-29.973-17.783    c1.229-1.342,1.789-3.131,2.013-4.695c0.56-0.336-0.111-0.895,0.449-1.119c0.334-2.797,1.342-5.814,0.446-8.834l-0.56-0.672    c-1.341-3.691-3.243-7.047-4.81-10.512c-0.446-1.119-1.229-1.789-1.342-3.131h-0.222c-0.783-1.566-1.679-3.021-2.574-4.475    c-0.446-1.454-1.565-2.571-2.013-4.026c-2.571-4.697-5.703-9.506-7.381-14.762c-0.672-5.704-2.349-10.96-3.243-16.44    c-1.79-7.157-3.354-14.426-6.486-21.248c-0.56-0.896-0.895-2.125-2.126-2.125c-0.559,0.224-0.781,0.782-0.781,1.342    c3.354,5.815,4.92,12.638,6.71,19.123c0.223,0.448,0,1.231,0.335,1.344c1.006,4.36,2.013,9.059,3.021,13.42    c-0.448,1.453-0.225,2.908,0.111,4.249c4.584,12.639,13.195,23.599,18.229,36.123c2.013,3.914,0.672,8.611-0.335,12.303    c-0.448,0.783-0.111,1.9-1.007,2.459c-1.006-1.004-1.565-2.682-3.131-2.906c-0.225,0.225-0.561,0.336-0.447,0.783    c7.045,11.52,19.683,20.018,32.544,23.037c2.126,0.336,4.473,1.008,6.599,0.783c2.684,0.783,5.479,0.336,8.499,0.336    c0.448-0.111,1.007-0.447,1.453-0.225c-0.335,1.68-0.67,3.58-1.005,5.146c-1.163,9.545-2.39,19.051-3.304,28.559    c0.837-0.611,1.669-1.221,2.488-1.838C89.731,202.44,89.895,200.728,90.043,199.019z" />
		<path fill="#FFFFFF" d="M108.944,71.078L108.72,71.3l0.113-0.447C109.056,70.742,108.944,70.965,108.944,71.078z" />
		<rect x="108.496" y="71.972" fill="#FFFFFF" width="0.112" height="0.223" />
		<path d="M42.066,150.146c-0.224-0.336-0.448-1.008-1.007-1.008c-1.007,0.561-1.007,1.791-1.007,2.686    c0.112,0.783-1.23,0.67-0.447,1.23c-0.224,0.67,0,2.014-0.895,1.9c0.671,0.336,0.111,1.23,0.111,1.902    c-3.057,9.826-6.838,19.172-11.087,28.301c0.276,1.045,0.552,2.086,0.828,3.123c0.476-1.006,0.955-2.01,1.424-3.018    c0.782-1.232,0.782-2.35,1.79-3.355c0-0.895,0.783-1.678,0.783-2.572c2.571-5.033,4.584-10.512,6.709-15.658h0.112    c-0.446-0.781,0.559-0.895,0.224-1.564c0.783-1.453,1.008-3.355,1.566-4.809c0-0.672,0.223-1.455,0.335-2.014l0.336-0.336    C41.618,153.501,42.513,151.712,42.066,150.146z" />
	</g>
	<g>
		<line fill="none" stroke="#000000" stroke-width="3.3" x1="52.569" y1="22.014" x2="115.513" y2="22.014" />
		<polygon points="109.024,30.568 112.658,22.014 109.024,13.458 129.302,22.014   " />
		<polygon points="59.057,13.459 55.424,22.014 59.057,30.571 38.78,22.014   " />
	</g>
</g>
</svg>
