<?xml version="1.0" encoding="UTF-8"?>
<!-- Generator: Adobe Illustrator 25.2.1, SVG Export Plug-In . SVG Version: 6.00 Build 0)  -->
<svg xmlns="http://www.w3.org/2000/svg" xmlns:xlink="http://www.w3.org/1999/xlink" version="1.1" id="Lager_1" x="0px" y="0px" width="268.066px" height="226.77px" viewBox="0 0 268.066 226.77" style="enable-background:new 0 0 268.066 226.77;" xml:space="preserve"><rect fill="#FFFFFF" x="0px" y="0px" width="268.066px" height="226.77px" />
<style type="text/css">
	.st0{fill:#FFFFFF;}
	.st1{fill:url(#SVGID_1_);}
	.st2{fill:none;stroke:#000000;stroke-width:2;stroke-linecap:round;}
	.st3{fill:none;stroke:#000000;stroke-linecap:round;}
	.st4{fill:url(#SVGID_2_);}
	.st5{fill:none;stroke:#000000;}
	.st6{fill:none;stroke:#000000;stroke-width:1.6;stroke-linecap:round;}
	.st7{fill:none;stroke:#000000;stroke-width:0.75;stroke-linecap:round;}
</style>
<rect x="0.85" y="1.263" class="st0" width="265.618" height="223.937" />
<g>
	<g id="Färg_1_">
		
			<linearGradient id="SVGID_1_" gradientUnits="userSpaceOnUse" x1="174.043" y1="577.2359" x2="181.5367" y2="566.1088" gradientTransform="matrix(1 0 0 1 0 -369.166)">
			<stop offset="0" style="stop-color:#FFFFFF" />
			<stop offset="1" style="stop-color:#EDEDED" />
		</linearGradient>
		<polygon class="st1" points="197.503,221.706 208.963,202 214.849,192.356 206.089,190.705 189.755,184.689 180.501,177.206     175.656,170.559 149.171,196.529   " />
	</g>
	<path class="st2" d="M200.244,216.434c0.839-1.319,28.407-47.131,28.407-47.131c-6.015,8.466,18.676-8.844,18.818-43.319" />
	<path class="st3" d="M177.637,172.537c0,0,9.512,16.607,33.842,18.958" />
	<path class="st2" d="M149.993,194.126c0,0,31.013-29.375,31.876-31.483c0.864-2.108,6.985-61.941,7.437-65.107" />
	<line class="st2" x1="196.807" y1="52.043" x2="194.651" y2="63.494" />
	<polyline class="st2" points="194.212,61.393 190.049,77.586 189.428,102.614  " />
	<g>
		<path d="M194.515,51.262c1.259,0.015,2.524,0.159,3.769,0.429c1.246,0.267,2.477,0.656,3.65,1.221    c1.173,0.555,2.296,1.292,3.243,2.256c0.459,0.492,0.906,1.013,1.254,1.606c0.368,0.58,0.649,1.214,0.879,1.865    c0.429,1.315,0.542,2.707,0.455,4.053c-0.045,0.691-0.132,1.326-0.206,1.938c-0.07,0.62-0.186,1.273-0.294,1.904    c-0.232,1.264-0.512,2.527-0.895,3.79c-0.191,0.632-0.411,1.266-0.702,1.895c-0.144,0.316-0.302,0.631-0.495,0.952    c-0.091,0.159-0.204,0.324-0.319,0.487l-0.206,0.258c-0.099,0.104-0.116,0.149-0.357,0.345l0.415-1.412    c0.16,0.434,0.279,0.801,0.397,1.197c0.121,0.39,0.222,0.779,0.327,1.17c0.195,0.782,0.384,1.564,0.509,2.356    c0.267,1.581,0.456,3.171,0.537,4.767c0.045,0.797,0.054,1.597,0.037,2.394c-0.015,0.798-0.041,1.594-0.108,2.389    c-0.039,0.796-0.143,1.586-0.247,2.375c-0.106,0.788-0.267,1.569-0.398,2.35l-0.023-0.389c0.181,0.758,0.318,1.472,0.439,2.21    c0.114,0.734,0.208,1.47,0.284,2.208c0.148,1.474,0.232,2.957,0.187,4.439c-0.045,1.481-0.173,2.962-0.477,4.411    c-0.295,1.449-0.764,2.863-1.438,4.159c0.462-1.386,0.698-2.817,0.817-4.247c0.098-1.434,0.095-2.868-0.02-4.295    c-0.124-1.426-0.295-2.847-0.564-4.252c-0.132-0.702-0.281-1.401-0.449-2.094c-0.164-0.688-0.34-1.396-0.539-2.042l-0.043-0.139    l0.019-0.25c0.059-0.759,0.147-1.513,0.182-2.272c0.022-0.759,0.088-1.513,0.085-2.271c0.024-0.757,0.008-1.513-0.017-2.268    c-0.003-0.378-0.034-0.755-0.058-1.131c-0.032-0.376-0.032-0.754-0.071-1.129c-0.103-1.505-0.309-3.001-0.584-4.478    c-0.141-0.738-0.288-1.473-0.46-2.2c-0.09-0.361-0.178-0.725-0.281-1.079c-0.096-0.35-0.213-0.723-0.316-1.02l0.415-1.412    c-0.12,0.097-0.032,0.025-0.026,0.012l0.089-0.108c0.065-0.093,0.133-0.184,0.2-0.298c0.134-0.214,0.263-0.458,0.382-0.711    c0.237-0.508,0.465-1.049,0.661-1.61c0.398-1.121,0.719-2.298,0.995-3.491l0.388-1.797c0.126-0.627,0.257-1.228,0.321-1.788    c0.148-1.149,0.109-2.303-0.16-3.402c-0.144-0.545-0.327-1.085-0.592-1.589c-0.244-0.516-0.585-0.983-0.942-1.44    c-0.75-0.886-1.671-1.666-2.705-2.297c-1.034-0.632-2.16-1.142-3.326-1.564C196.961,51.821,195.756,51.468,194.515,51.262z" />
	</g>
	<path class="st2" d="M227.694,85.522c0,0,5.393,10.861,3.291,20.131l3.389,9.976" />
	<line class="st2" x1="199.837" y1="49.078" x2="204.549" y2="32.205" />
	<path class="st2" d="M224.443,28.439c0,0,7.662,7.026,3.606,20.72c0,0,3.716,8.746-0.745,18.985c0,0,2.203,10.477,0.39,17.378" />
	<g>
		<path d="M209.083,14.251c1.312,0.022,2.634,0.23,3.91,0.614c0.639,0.19,1.269,0.419,1.882,0.696    c0.615,0.272,1.208,0.601,1.777,0.971c0.573,0.365,1.112,0.787,1.627,1.24c0.509,0.46,0.981,0.964,1.411,1.507    c0.419,0.549,0.805,1.126,1.137,1.734c0.324,0.61,0.629,1.238,0.854,1.892c0.26,0.645,0.422,1.318,0.586,1.988    c0.128,0.676,0.259,1.355,0.31,2.039c0.093,0.684,0.088,1.365,0.115,2.05c0.003,0.682-0.033,1.362-0.064,2.042    c-0.071,0.673-0.119,1.353-0.229,2.02c-0.12,0.663-0.206,1.337-0.355,1.993c-0.152,0.654-0.282,1.317-0.453,1.966l-0.535,1.94    l-0.03-0.792c0.204,0.516,0.355,0.957,0.5,1.433c0.146,0.47,0.259,0.941,0.381,1.413c0.22,0.946,0.415,1.895,0.553,2.852    c0.068,0.478,0.147,0.956,0.188,1.437c0.043,0.481,0.114,0.96,0.133,1.443l0.081,1.446l-0.002,1.448    c0.01,0.483-0.038,0.964-0.057,1.446c-0.028,0.482-0.042,0.964-0.104,1.443c-0.093,0.96-0.203,1.918-0.378,2.866    c-0.131,0.956-0.372,1.89-0.594,2.827c-0.099,0.471-0.261,0.926-0.394,1.388l-0.419,1.379l0.006-0.658    c0.309,1.15,0.556,2.256,0.791,3.389c0.227,1.129,0.413,2.264,0.581,3.401c0.337,2.274,0.565,4.565,0.637,6.864    c0.084,2.298,0.01,4.603-0.262,6.885c-0.136,1.141-0.343,2.272-0.593,3.389c-0.26,1.116-0.608,2.209-1.006,3.273    c0.486-2.225,0.686-4.476,0.725-6.722c0.03-2.247-0.113-4.489-0.353-6.717c-0.266-2.226-0.609-4.442-1.059-6.637    c-0.223-1.098-0.479-2.188-0.743-3.274c-0.262-1.08-0.55-2.18-0.866-3.212l-0.09-0.293l0.096-0.365l0.344-1.316    c0.109-0.44,0.247-0.872,0.321-1.32c0.165-0.891,0.383-1.769,0.495-2.667c0.154-0.891,0.245-1.79,0.321-2.691    c0.053-0.449,0.06-0.901,0.08-1.352c0.012-0.451,0.053-0.902,0.036-1.353c0-0.903-0.018-1.804-0.071-2.705    c-0.012-0.451-0.074-0.898-0.108-1.348c-0.032-0.45-0.101-0.895-0.159-1.342c-0.117-0.893-0.287-1.777-0.479-2.653    c-0.107-0.433-0.205-0.872-0.332-1.296c-0.109-0.423-0.249-0.869-0.373-1.228l-0.146-0.421l0.116-0.371l0.57-1.829    c0.183-0.611,0.325-1.231,0.49-1.846c0.162-0.616,0.261-1.241,0.395-1.862c0.121-0.622,0.186-1.248,0.293-1.872    c0.062-0.625,0.13-1.252,0.162-1.878c0.008-0.624,0.049-1.254-0.003-1.874c-0.011-0.626-0.098-1.239-0.178-1.856    c-0.121-0.604-0.209-1.223-0.4-1.809c-0.155-0.6-0.385-1.173-0.63-1.738c-0.254-0.563-0.558-1.101-0.895-1.621    c-0.351-0.51-0.728-1.004-1.149-1.466c-0.427-0.455-0.882-0.891-1.38-1.279c-0.492-0.396-1.022-0.749-1.571-1.074    c-0.547-0.329-1.122-0.618-1.715-0.872C211.628,14.86,210.381,14.45,209.083,14.251z" />
	</g>
	<line class="st2" x1="209.456" y1="21.872" x2="211.238" y2="14.869" />
	<g>
		<path d="M199.502,22.728c1.6-0.247,3.241-0.278,4.873-0.112c1.633,0.157,3.26,0.544,4.811,1.19    c1.555,0.635,2.998,1.614,4.192,2.858c1.201,1.242,2.101,2.776,2.669,4.4c1.156,3.27,1.14,6.755,0.678,10.038    c-0.233,1.65-0.562,3.279-0.998,4.872c-0.434,1.594-0.941,3.16-1.496,4.705l-0.06-0.984c0.218,0.447,0.36,0.801,0.507,1.198    c0.148,0.388,0.27,0.776,0.391,1.166c0.229,0.781,0.431,1.569,0.558,2.367c0.148,0.795,0.243,1.596,0.306,2.398    c0.074,0.802,0.083,1.605,0.091,2.408c-0.003,0.401-0.03,0.801-0.044,1.202c-0.009,0.401-0.04,0.8-0.088,1.198l-0.13,1.193    l-0.21,1.18c-0.118,0.791-0.352,1.555-0.528,2.33c-0.088,0.388-0.229,0.761-0.341,1.142l-0.357,1.136l0.019-0.614    c0.232,0.985,0.418,1.932,0.575,2.903c0.163,0.965,0.305,1.933,0.43,2.902c0.258,1.938,0.403,3.889,0.476,5.841l0.029,1.465    c0.02,0.487-0.016,0.978-0.022,1.466c-0.009,0.976-0.099,1.952-0.162,2.924c-0.118,0.971-0.217,1.94-0.409,2.897    c-0.146,0.962-0.432,1.899-0.665,2.835l0.138-1.444c0.06-0.477,0.054-0.962,0.082-1.441c0.068-0.957,0.029-1.92,0.032-2.876    c-0.043-0.958-0.058-1.913-0.153-2.866c-0.07-0.953-0.175-1.904-0.275-2.853c-0.126-0.948-0.243-1.894-0.407-2.836    c-0.15-0.942-0.31-1.883-0.49-2.82c-0.18-0.937-0.375-1.87-0.591-2.797c-0.215-0.923-0.445-1.862-0.683-2.749l-0.074-0.275    l0.093-0.339l0.293-1.072c0.091-0.359,0.212-0.71,0.278-1.074c0.135-0.726,0.33-1.442,0.408-2.175l0.154-1.093l0.097-1.097    c0.04-0.365,0.064-0.731,0.067-1.098c0.008-0.366,0.029-0.733,0.027-1.098c-0.017-0.732-0.033-1.463-0.11-2.189    c-0.066-0.726-0.16-1.451-0.303-2.162c-0.128-0.715-0.303-1.419-0.493-2.112c-0.102-0.343-0.205-0.689-0.327-1.02    c-0.112-0.325-0.26-0.683-0.373-0.927l-0.236-0.51l0.176-0.474c0.551-1.485,1.055-2.985,1.485-4.499    c0.427-1.515,0.815-3.037,1.076-4.575c0.263-1.536,0.426-3.085,0.407-4.618c0.003-1.532-0.163-3.06-0.593-4.502    c-0.429-1.439-1.107-2.797-2.059-3.962c-0.951-1.167-2.176-2.116-3.54-2.851c-1.365-0.74-2.876-1.234-4.426-1.584    C202.721,22.911,201.118,22.713,199.502,22.728z" />
	</g>
	<line class="st2" x1="203.443" y1="33.519" x2="204.49" y2="22.957" />
	<polyline class="st0" points="203.031,27.862 203.96,18.861 195.888,17.849  " />
	<polyline class="st0" points="195.567,54.497 196.496,45.496 188.424,44.484  " />
	<polyline class="st0" points="208.5,20.342 211.213,11.709 203.507,9.101  " />
	<path class="st0" d="M215.552,16.849" />
	<path class="st2" d="M234.453,108.87c0,0,6.602-7.405,7.723-15.102s6.736-16.288,11.272-18.689c4.535-2.401,9.56,2.185,9.846,3.691   c0.286,1.505-3.201,9.793-3.201,9.793" />
	<path class="st2" d="M247.653,125.66c0.058-2.562,8.757-13.701,12.863-36.842" />
	<g>
		<path d="M213.66,103.209c0,0-0.234,1.105-0.52,3.057c-0.3,1.949-0.603,4.752-0.731,8.121c-0.081,1.684-0.051,3.509,0.025,5.434    c0.134,1.921,0.299,3.946,0.67,6.007c0.14,1.039,0.423,2.066,0.644,3.119c0.156,0.514,0.313,1.031,0.471,1.551    c0.148,0.535,0.334,1.048,0.545,1.545c0.75,2.029,1.797,4.042,2.791,6.058c1.009,2.016,1.964,4.085,2.795,6.171    c0.339,1.074,0.788,2.101,1.017,3.188c0.135,0.536,0.27,1.069,0.403,1.598c0.097,0.537,0.167,1.076,0.25,1.607    c0.204,1.059,0.217,2.119,0.248,3.153c0.085,1.035-0.095,2.04-0.146,3.019c-0.033,0.985-0.279,1.913-0.436,2.82    c-0.087,0.452-0.172,0.897-0.255,1.333c-0.11,0.43-0.247,0.844-0.365,1.253c-0.245,0.816-0.48,1.598-0.703,2.341    c-0.294,0.717-0.572,1.398-0.834,2.037c-0.263,0.638-0.509,1.234-0.737,1.786c-0.269,0.533-0.515,1.022-0.738,1.464    c-0.909,1.755-1.428,2.757-1.428,2.757s0.455-1.032,1.251-2.839c0.2-0.45,0.421-0.948,0.661-1.491    c0.199-0.559,0.413-1.164,0.643-1.81c0.227-0.645,0.469-1.332,0.724-2.056c0.196-0.741,0.401-1.52,0.616-2.333    c0.104-0.407,0.226-0.818,0.322-1.243c0.069-0.431,0.139-0.869,0.21-1.315c0.127-0.893,0.342-1.807,0.343-2.768    c0.019-0.956,0.168-1.936,0.052-2.936c-0.071-0.999-0.07-2.025-0.286-3.047c-0.086-0.513-0.158-1.032-0.256-1.55    c-0.135-0.511-0.27-1.026-0.407-1.544c-0.229-1.047-0.68-2.048-1.019-3.088c-0.833-2.033-1.793-4.053-2.82-6.065    c-0.978-2.04-2.005-4.048-2.776-6.197c-0.215-0.529-0.4-1.058-0.54-1.587c-0.156-0.535-0.312-1.067-0.466-1.596    c-0.216-1.079-0.494-2.134-0.626-3.195c-0.376-2.106-0.463-4.173-0.541-6.121c-0.018-1.952,0.008-3.795,0.141-5.49    c0.22-3.394,0.721-6.185,1.1-8.124C213.341,104.293,213.66,103.209,213.66,103.209z" />
	</g>
	<g>
		<path d="M204.646,175.078c0,0,0.291-0.01,0.792-0.059c0.501-0.034,1.211-0.14,2.047-0.298c0.419-0.074,0.866-0.178,1.336-0.298    c0.475-0.096,0.95-0.291,1.457-0.423c0.487-0.196,1.005-0.357,1.498-0.597c0.501-0.222,1.006-0.456,1.475-0.754    c0.498-0.25,0.947-0.576,1.392-0.893c0.463-0.295,0.844-0.679,1.25-1.007c0.415-0.321,0.722-0.73,1.072-1.063    c0.352-0.334,0.614-0.709,0.88-1.039c0.247-0.343,0.536-0.622,0.71-0.922c0.189-0.293,0.354-0.548,0.49-0.759    c0.276-0.421,0.449-0.66,0.449-0.66s-0.091,0.273-0.275,0.747c-0.095,0.237-0.209,0.526-0.341,0.856    c-0.116,0.342-0.345,0.674-0.558,1.06c-0.223,0.38-0.444,0.811-0.781,1.193c-0.328,0.385-0.611,0.857-1.035,1.22    c-0.413,0.37-0.786,0.825-1.281,1.145c-0.471,0.35-0.947,0.71-1.475,0.989c-0.511,0.309-1.056,0.549-1.595,0.775    c-0.53,0.251-1.098,0.37-1.622,0.55c-0.542,0.118-1.059,0.259-1.564,0.311c-0.5,0.082-0.976,0.122-1.416,0.136    c-0.879,0.049-1.61-0.024-2.115-0.076C204.928,175.156,204.646,175.078,204.646,175.078z" />
	</g>
	<g>
		<path d="M226.334,86.248c-0.34,0.237-0.701,0.476-1.106,0.619c-0.397,0.158-0.815,0.273-1.242,0.335    c-0.427,0.068-0.863,0.093-1.297,0.066c-0.439-0.027-0.857-0.081-1.31-0.202l0.434-0.203c-0.135,0.374-0.293,0.688-0.47,1.015    c-0.182,0.317-0.376,0.63-0.602,0.919c-0.448,0.578-0.946,1.129-1.533,1.576c-0.289,0.227-0.591,0.441-0.905,0.632    c-0.316,0.19-0.633,0.377-0.974,0.518c-0.33,0.165-0.682,0.27-1.026,0.397c-0.347,0.116-0.705,0.192-1.058,0.288l0.369-0.408    c-0.042,0.24-0.097,0.375-0.157,0.551c-0.062,0.164-0.13,0.322-0.204,0.475c-0.148,0.307-0.315,0.597-0.495,0.877    c-0.369,0.553-0.787,1.06-1.24,1.527c-0.452,0.468-0.937,0.896-1.445,1.29c-0.514,0.388-1.034,0.761-1.584,1.087    c0.445-0.461,0.898-0.902,1.323-1.37c0.411-0.48,0.834-0.94,1.202-1.442c0.382-0.489,0.731-0.999,1.019-1.532    c0.149-0.263,0.283-0.532,0.396-0.804c0.056-0.136,0.106-0.273,0.149-0.409c0.037-0.125,0.081-0.293,0.087-0.367l0.025-0.304    l0.345-0.105c0.319-0.097,0.646-0.17,0.958-0.282c0.309-0.122,0.627-0.221,0.92-0.376c0.302-0.135,0.595-0.288,0.88-0.456    c0.285-0.166,0.559-0.353,0.822-0.551c0.529-0.395,1.019-0.848,1.45-1.354c0.215-0.253,0.419-0.516,0.611-0.788    c0.183-0.272,0.364-0.57,0.493-0.844l0.148-0.313l0.287,0.109c0.344,0.131,0.75,0.232,1.141,0.295    c0.397,0.06,0.8,0.093,1.205,0.09C224.767,86.804,225.567,86.6,226.334,86.248z" />
	</g>
</g>
<g>
	
		<linearGradient id="SVGID_2_" gradientUnits="userSpaceOnUse" x1="33.4926" y1="31.5389" x2="44.4206" y2="57.9169" gradientTransform="matrix(1 0 0 -1 0 227.276)">
		<stop offset="0" style="stop-color:#FFFFFF" />
		<stop offset="1" style="stop-color:#EDEDED" />
	</linearGradient>
	<polygon class="st4" points="65.237,200.439 76.069,160.223 53.494,158.288 28.741,149.274 29.217,150.999 20.481,163.833    3.237,187.439  " />
	<path class="st5" d="M34.077,150.655c0,0,14.939,10.114,39.145,9.163" />
	<path class="st2" d="M6.903,184.439c0-1,25.462-37.012,26.333-41.917c0.872-4.905,13.835-70.131,13.835-70.131" />
	<path class="st2" d="M45.636,72.323c0,0-2.174-9.604,4.972-12.347" />
	<g>
		<path class="st2" d="M55.197,69.729l25.788-12.968c1.393-0.7,3.732-0.84,5.198-0.309l17.545,6.347    c1.466,0.53,3.229,2.109,3.918,3.507l2.435,4.942" />
	</g>
	<path class="st2" d="M55.632,57.905l31.839-15.568c1.401-0.685,3.606-0.534,4.9,0.334l20.999,14.088   c1.295,0.869,2.958,2.703,3.697,4.075l2.253,4.187" />
	<path class="st6" d="M99.446,34.335l4.714-0.352c1.555-0.116,3.706,0.713,4.781,1.842l10.795,11.343   c1.075,1.129,2.433,3.236,3.018,4.681l1.557,3.846" />
	<path class="st2" d="M51.562,59.353l37.107-26.506c1.277-0.894,3.345-0.863,4.595,0.068l23.113,17.223   c1.25,0.932,2.87,2.821,3.6,4.198l3.221,6.078" />
	<path class="st2" d="M72.335,81.769c0,0,5.121-0.918,8.678-6.291" />
	<path class="st2" d="M79.495,74.61c0,0,7.835,3.112,16.833,1.663" />
	<path class="st2" d="M93.25,74.814c0,0,11.896,15.439,22.091,4.013l-5.366-6.929" />
	<path class="st2" d="M116.157,80.468c0,0,5.51,1.321,8.657-5.776l-5.619-7.674" />
	<path class="st2" d="M123.481,61.486l4.32,7.974c0,0-1.589,3.089-2.902,3.322" />
	<path class="st2" d="M94.403,79.939l4,9.667c0,0,3,2.167,7.5,2.167" />
	<line class="st2" x1="103.07" y1="93.772" x2="113.57" y2="85.772" />
	<path class="st2" d="M113.365,82.208c0,0,0.916,4.239,1.299,5.868" />
	<g>
		<path d="M76.992,81.369c0,0,0.224,0.149,0.417,0.565c0.098,0.206,0.18,0.467,0.263,0.775c0.06,0.307,0.135,0.661,0.143,1.046    c0.041,0.389,0.011,0.802,0,1.245c-0.05,0.433-0.07,0.903-0.165,1.369c-0.093,0.466-0.155,0.96-0.296,1.438    c-0.13,0.481-0.244,0.977-0.404,1.455c-0.306,0.963-0.662,1.905-1.033,2.773c-0.172,0.439-0.385,0.843-0.568,1.234    c-0.184,0.39-0.367,0.755-0.541,1.089c-0.358,0.663-0.696,1.196-0.913,1.577c-0.227,0.377-0.369,0.585-0.369,0.585    s0.062-0.246,0.191-0.666c0.139-0.416,0.31-1.02,0.563-1.723c0.221-0.715,0.512-1.534,0.814-2.412    c0.285-0.883,0.622-1.812,0.901-2.755c0.168-0.464,0.288-0.939,0.425-1.403c0.141-0.463,0.252-0.921,0.368-1.366    c0.115-0.445,0.191-0.877,0.288-1.287c0.05-0.411,0.146-0.802,0.166-1.162c0.079-0.722,0.083-1.336-0.018-1.75    C77.145,81.578,76.992,81.369,76.992,81.369z" />
	</g>
	<g>
		<path d="M73.746,92.723c0,0,0.065,0.889,0.178,2.444c0.09,1.556,0.255,3.778,0.369,6.447c0.113,2.669,0.272,5.783,0.346,9.123    c0.076,3.339,0.13,6.903,0.13,10.47c-0.02,1.784-0.062,3.568-0.14,5.327c-0.044,0.88-0.078,1.752-0.167,2.62    c-0.073,0.856-0.161,1.747-0.427,2.596c-0.525,1.654-1.502,3.067-2.433,4.28c-0.955,1.222-1.935,2.306-2.89,3.252    c-1.897,1.906-3.671,3.279-4.927,4.207c-0.635,0.457-1.159,0.78-1.517,0.995c-0.367,0.2-0.563,0.306-0.563,0.306    s0.186-0.122,0.534-0.352c0.34-0.242,0.823-0.616,1.427-1.104c1.2-0.986,2.831-2.5,4.64-4.442    c0.907-0.969,1.829-2.073,2.711-3.297c0.874-1.242,1.704-2.568,2.191-4.105c0.222-0.745,0.297-1.562,0.358-2.413    c0.076-0.842,0.099-1.709,0.131-2.58c0.056-1.743,0.072-3.52,0.074-5.297c0.044-3.554,0.036-7.113,0.003-10.449    c-0.015-3.337-0.029-6.452-0.041-9.122c-0.001-2.671-0.002-4.897-0.003-6.455C73.74,93.614,73.746,92.723,73.746,92.723z" />
	</g>
	<g>
		<path d="M57.474,142.078c0,0,0.205-0.133,0.568-0.348c0.364-0.212,0.884-0.514,1.508-0.877c0.627-0.354,1.36-0.759,2.151-1.178    c0.788-0.421,1.628-0.871,2.469-1.321c0.844-0.438,1.681-0.891,2.461-1.317c0.782-0.425,1.505-0.832,2.114-1.199    c0.612-0.363,1.121-0.676,1.453-0.928c0.333-0.25,0.539-0.388,0.539-0.388s-0.138,0.196-0.406,0.531    c-0.13,0.173-0.314,0.353-0.521,0.566c-0.204,0.218-0.443,0.457-0.728,0.684c-0.55,0.483-1.235,0.994-1.997,1.488    c-0.754,0.51-1.599,0.982-2.447,1.445c-1.708,0.905-3.486,1.656-4.851,2.136c-0.68,0.248-1.265,0.407-1.668,0.534    C57.712,142.026,57.474,142.078,57.474,142.078z" />
	</g>
	<g>
		<path d="M96.228,84.349c0,0,0.141,0.346,0.365,0.959c0.214,0.615,0.547,1.487,0.895,2.547c0.711,2.116,1.572,4.961,2.347,7.831    c0.768,2.871,1.449,5.766,1.874,7.96c0.22,1.095,0.352,2.02,0.456,2.664c0.093,0.647,0.118,1.02,0.118,1.02    s-0.452-1.417-1.131-3.543c-0.67-2.126-1.509-4.975-2.282-7.842c-0.767-2.869-1.467-5.757-1.933-7.939    c-0.24-1.089-0.399-2.008-0.53-2.646C96.285,84.718,96.228,84.349,96.228,84.349z" />
	</g>
	<path class="st2" d="M123.664,54.1l4.726,8.88c0,0-0.987,1.436-2.154,1.436" />
	<path class="st2" d="M129.108,64.596c0,0,4.191,0.719,0.826,12.649" />
	<g>
		<path d="M130.476,77.756c0,0,0.252,0.459,0.613,1.303c0.18,0.422,0.385,0.94,0.595,1.545c0.203,0.606,0.429,1.295,0.616,2.063    c0.192,0.767,0.387,1.607,0.503,2.515c0.129,0.904,0.242,1.873,0.218,2.888c0.016,0.506-0.02,1.025-0.07,1.552    c-0.021,0.527-0.123,1.06-0.242,1.595c-0.218,1.072-0.627,2.144-1.186,3.156c-0.286,0.5-0.689,0.939-1.033,1.402    c-0.363,0.377-0.724,0.753-1.082,1.126c-0.743,0.752-1.518,1.418-2.266,2.058c-1.507,1.271-3.001,2.34-4.323,3.184    c-2.637,1.706-4.583,2.505-4.583,2.505s1.555-1.368,3.888-3.419c1.145-1.034,2.469-2.243,3.836-3.575    c0.693-0.659,1.358-1.385,2.046-2.081c0.339-0.369,0.68-0.74,1.023-1.113c0.25-0.376,0.556-0.707,0.775-1.107    c0.454-0.79,0.82-1.655,1.026-2.575c0.104-0.459,0.225-0.911,0.277-1.381c0.076-0.463,0.142-0.925,0.158-1.39    c0.038-0.461,0.057-0.917,0.059-1.369c0.011-0.45,0.023-0.893-0.003-1.325c-0.026-0.864-0.083-1.688-0.148-2.449    c-0.141-1.523-0.324-2.8-0.465-3.695C130.571,78.272,130.476,77.756,130.476,77.756z" />
	</g>
	<g>
		<path d="M119.112,101.397c0,0-0.25,0.953-0.851,2.575c-0.328,0.796-0.686,1.789-1.21,2.872c-0.484,1.105-1.101,2.315-1.8,3.626    c-0.715,1.299-1.506,2.704-2.431,4.132c-0.93,1.425-1.899,2.941-3.042,4.407c-1.084,1.511-2.306,2.994-3.572,4.48    c-1.246,1.504-2.664,2.894-4.001,4.359c-1.42,1.383-2.885,2.72-4.307,4.054c-1.489,1.26-2.993,2.454-4.426,3.632    c-1.492,1.104-2.966,2.127-4.353,3.108c-1.374,0.999-2.797,1.761-4.051,2.546c-1.269,0.762-2.413,1.489-3.505,2.003    c-1.074,0.539-2.01,1.009-2.781,1.396c-1.549,0.75-2.434,1.178-2.434,1.178s0.814-0.554,2.238-1.524    c0.716-0.473,1.585-1.047,2.581-1.705c1.017-0.622,2.075-1.463,3.271-2.309c0.593-0.429,1.211-0.876,1.851-1.339    c0.641-0.459,1.315-0.917,1.958-1.458c1.311-1.04,2.695-2.137,4.125-3.272c1.377-1.198,2.777-2.46,4.238-3.695    c1.38-1.325,2.798-2.655,4.176-4.023c1.324-1.419,2.733-2.764,3.969-4.223c1.245-1.45,2.528-2.831,3.632-4.282    c1.159-1.408,2.207-2.822,3.201-4.169c0.516-0.661,0.942-1.353,1.398-1.996c0.441-0.652,0.903-1.262,1.282-1.885    c0.78-1.235,1.516-2.36,2.107-3.393c0.62-1.018,1.102-1.937,1.526-2.685c0.385-0.764,0.718-1.354,0.909-1.772    C119.007,101.619,119.112,101.397,119.112,101.397z" />
	</g>
	<line class="st2" x1="81.122" y1="139.583" x2="67" y2="197.264" />
	<g>
		<path d="M108.442,73.182c0,0-0.378,0.483-0.755,1.22c-0.18,0.37-0.345,0.811-0.374,1.26c-0.025,0.224,0.008,0.448,0.064,0.665    c0.05,0.219,0.147,0.434,0.286,0.634c0.086,0.178,0.318,0.469,0.465,0.666c0.167,0.216,0.332,0.429,0.491,0.635    c0.33,0.409,0.653,0.783,0.938,1.103c0.574,0.632,1.008,1.049,1.008,1.049s-0.605-0.122-1.374-0.606    c-0.386-0.235-0.81-0.556-1.219-0.947c-0.2-0.199-0.414-0.399-0.604-0.637c-0.202-0.255-0.354-0.407-0.554-0.735    c-0.179-0.284-0.315-0.616-0.379-0.955c-0.079-0.337-0.056-0.69,0.01-1.001c0.054-0.318,0.187-0.595,0.32-0.838    c0.134-0.244,0.296-0.446,0.453-0.619C107.857,73.387,108.442,73.182,108.442,73.182z" />
	</g>
	<g>
		<path d="M117.459,67.993c0,0-0.219,0.073-0.544,0.276c-0.315,0.202-0.754,0.559-0.923,1.116c-0.091,0.273-0.112,0.587-0.067,0.923    c0.029,0.334,0.155,0.688,0.292,1.048c0.136,0.373,0.333,0.774,0.478,1.196c0.153,0.408,0.309,0.822,0.465,1.236    c0.303,0.805,0.671,1.559,1.217,1.942c0.272,0.193,0.595,0.301,0.931,0.347c0.335,0.037,0.678,0.047,0.996,0.004    c0.637-0.061,1.186-0.186,1.564-0.279c0.386-0.087,0.606-0.136,0.606-0.136s-0.195,0.116-0.535,0.32    c-0.172,0.101-0.382,0.223-0.641,0.327c-0.254,0.117-0.544,0.247-0.888,0.331c-0.333,0.11-0.725,0.176-1.152,0.177    c-0.425-0.001-0.918-0.08-1.351-0.347c-0.424-0.259-0.809-0.631-1.049-1.051c-0.267-0.413-0.452-0.846-0.63-1.274    c-0.316-0.877-0.581-1.676-0.841-2.505c-0.135-0.429-0.221-0.869-0.206-1.304c-0.008-0.429,0.1-0.852,0.288-1.187    c0.372-0.697,0.992-0.952,1.365-1.064C117.23,67.981,117.459,67.993,117.459,67.993z" />
	</g>
	<path class="st7" d="M122.23,62.352c0,0-1.033,0.85-1.843,2.169" />
	<g>
		<path d="M123.641,70.922c0,0,0.15-0.209,0.386-0.471c0.239-0.258,0.57-0.561,0.899-0.845c0.335-0.279,0.664-0.544,0.907-0.763    c0.112-0.113,0.24-0.204,0.294-0.288c0.067-0.079,0.118-0.128,0.118-0.128s0.071,0.258-0.044,0.64    c-0.113,0.376-0.419,0.796-0.79,1.11c-0.374,0.314-0.808,0.533-1.158,0.637C123.9,70.917,123.641,70.922,123.641,70.922z" />
	</g>
	<g>
		<path d="M80.146,80.575c0,0,0.057,0.035,0.133,0.138c0.074,0.101,0.181,0.265,0.241,0.496c0.076,0.228,0.123,0.515,0.152,0.845    c0.033,0.332,0.029,0.705-0.006,1.11c-0.077,0.805-0.252,1.736-0.55,2.69c-0.275,0.964-0.665,1.955-1.089,2.926    c-0.848,1.945-1.921,3.769-2.779,5.097c-0.437,0.66-0.839,1.187-1.102,1.566c-0.272,0.374-0.439,0.58-0.439,0.58    s0.091-0.251,0.27-0.676c0.188-0.421,0.431-1.035,0.767-1.745c0.314-0.722,0.695-1.554,1.115-2.437    c0.389-0.897,0.856-1.828,1.254-2.786c0.224-0.469,0.426-0.946,0.614-1.418c0.198-0.47,0.394-0.93,0.557-1.385    c0.356-0.901,0.621-1.758,0.818-2.501c0.082-0.373,0.163-0.716,0.2-1.025c0.039-0.307,0.053-0.581,0.028-0.8    c-0.016-0.222-0.054-0.395-0.098-0.508C80.191,80.628,80.146,80.575,80.146,80.575z" />
	</g>
</g>
</svg>
