<?xml version="1.0" encoding="UTF-8"?>
<!-- Generator: Adobe Illustrator 18.1.1, SVG Export Plug-In . SVG Version: 6.00 Build 0)  -->
<svg xmlns="http://www.w3.org/2000/svg" xmlns:xlink="http://www.w3.org/1999/xlink" version="1.1" id="Lager_1" x="0px" y="0px" width="226.77px" height="226.77px" viewBox="0 0 226.77 226.77" enable-background="new 0 0 226.77 226.77" xml:space="preserve"><rect fill="#FFFFFF" x="0px" y="0px" width="226.77px" height="226.77px" />
<g id="Färg_1_">
	
		<linearGradient id="SVGID_1_" gradientUnits="userSpaceOnUse" x1="110.4029" y1="21.6208" x2="119.0441" y2="34.4517" gradientTransform="matrix(0.9084 -0.4181 -0.4181 -0.9084 19.0482 276.2125)">
		<stop offset="0" style="stop-color:#FFFFFF" />
		<stop offset="1" style="stop-color:#EDEDED" />
	</linearGradient>
	<polygon fill="url(#SVGID_1_)" points="136.811,211.312 135.088,188.781 135.908,172.719 132.081,174.611 117.553,176.027    105.382,174.667 93.314,171.401 83.522,211.101  " />
</g>
<g>
	<path d="M91.551,18.519c1.223-0.634,2.564-1.067,3.958-1.271c1.393-0.212,2.859-0.147,4.268,0.273   c1.411,0.415,2.711,1.263,3.724,2.351c1.025,1.084,1.776,2.384,2.312,3.731c1.093,2.702,1.485,5.561,1.608,8.368   c0.144,2.816-0.042,5.612-0.338,8.379l-0.167-0.773c0.282,0.485,0.487,0.896,0.703,1.347c0.209,0.443,0.404,0.889,0.589,1.338   c0.368,0.899,0.689,1.813,0.957,2.743c0.542,1.857,0.918,3.759,1.118,5.682c0.204,1.921,0.232,3.864,0.06,5.788   c-0.179,1.924-0.528,3.828-1.043,5.683l-0.006-0.576c0.559,2.113,0.952,4.211,1.329,6.332c0.181,1.059,0.359,2.119,0.489,3.187   c0.142,1.065,0.249,2.136,0.355,3.205c0.081,1.073,0.186,2.141,0.203,3.218c0.012,0.538,0.049,1.073,0.04,1.612l-0.005,1.612   c-0.009,0.537-0.054,1.075-0.079,1.61c-0.02,0.536-0.074,1.071-0.136,1.604c-0.064,0.533-0.1,1.067-0.211,1.593l-0.288,1.577   l0.06-1.598c0.037-0.529-0.014-1.064-0.008-1.593c0.011-1.059-0.098-2.118-0.16-3.171l-0.151-1.579   c-0.043-0.526-0.131-1.049-0.195-1.573c-0.13-1.047-0.306-2.091-0.467-3.133c-0.355-2.082-0.797-4.148-1.259-6.207   c-0.235-1.028-0.488-2.053-0.759-3.072c-0.271-1.015-0.551-2.043-0.841-3.028l-0.08-0.273l0.074-0.303   c0.427-1.743,0.695-3.519,0.807-5.303c0.087-1.784,0.066-3.575-0.145-5.35c-0.202-1.774-0.568-3.531-1.086-5.238   c-0.262-0.852-0.55-1.697-0.876-2.523c-0.165-0.412-0.338-0.82-0.522-1.22c-0.179-0.39-0.39-0.812-0.572-1.132l-0.214-0.377   l0.047-0.396c0.16-1.34,0.291-2.681,0.377-4.022c0.084-1.341,0.15-2.679,0.138-4.013c-0.034-2.659-0.269-5.329-1.067-7.789   c-0.409-1.222-0.967-2.383-1.739-3.375c-0.767-0.999-1.789-1.771-2.958-2.286c-1.176-0.511-2.5-0.706-3.836-0.702   C94.222,17.903,92.86,18.101,91.551,18.519z" />
</g>
<path fill="none" stroke="#000000" d="M96.49,172.035c0,0,10.962,7.482,36.282,2.441" />
<g>
	<path d="M93.866,19.164c0,0,0.253,0.001,0.686,0.081c0.429,0.087,1.057,0.205,1.762,0.538c0.356,0.161,0.725,0.383,1.084,0.692   c0.36,0.303,0.69,0.744,0.854,1.297c0.085,0.269,0.1,0.588,0.08,0.851c-0.015,0.235-0.044,0.503-0.073,0.745   c-0.063,0.497-0.147,0.998-0.267,1.49c-0.442,1.967-1.301,3.894-2.438,4.996c-0.557,0.556-1.18,0.838-1.615,0.932   c-0.219,0.051-0.396,0.055-0.513,0.051c-0.117-0.003-0.179-0.005-0.179-0.005s0.254-0.04,0.634-0.219   c0.385-0.168,0.854-0.546,1.264-1.118c0.844-1.133,1.468-2.98,1.884-4.852c0.095-0.471,0.189-0.942,0.26-1.407   c0.034-0.239,0.063-0.45,0.083-0.69c0.014-0.211,0.023-0.369-0.015-0.548c-0.142-0.701-0.784-1.275-1.352-1.673   c-0.584-0.399-1.128-0.694-1.518-0.875C94.092,19.267,93.866,19.164,93.866,19.164z" />
</g>
<path fill="none" stroke="#000000" stroke-width="2" stroke-linecap="round" d="M92.723,80.047  c0.209-1.734,1.243-29.274,1.243-29.274l-1.534-20.038" />
<path fill="none" stroke="#000000" stroke-width="2" stroke-linecap="round" d="M101.313,94.33c0,0,20.165-10.187,25.426-12.759  C132,79,141.692,89.42,145.633,93.665c3.941,4.245,4.75,9.09,3.609,11.662" />
<path fill="none" stroke="#000000" stroke-width="2" stroke-linecap="round" d="M105,103.667c0,0,26.869-6.687,30.342-6.534  c3.473,0.153,14.6,10.516,17.045,14.359c2.446,3.842-1.816,10.345-1.816,10.345" />
<line fill="none" stroke="#000000" stroke-width="2" stroke-linecap="round" x1="150.765" y1="121.284" x2="147.385" y2="130.915" />
<path fill="none" stroke="#000000" stroke-width="2" stroke-linecap="round" d="M146.231,77.143c0,0,3.707-9.256,14.774-5.33" />
<line fill="none" stroke="#000000" stroke-width="2" stroke-linecap="round" x1="161.342" y1="72.207" x2="158.5" y2="83.833" />
<path fill="none" stroke="#000000" stroke-width="2" stroke-linecap="round" d="M158.344,79.936c0,0,2.807,10.342,1.468,13.735  c-1.339,3.394-6.116,14.505-6.116,14.505" />
<path fill="none" stroke="#000000" stroke-width="2" stroke-linecap="round" d="M146.568,133.476c0,0-1.652,13.132-11.144,25.187  l1.679,48.768" />
<line fill="none" stroke="#000000" stroke-width="2" stroke-linecap="round" x1="93.454" y1="30.011" x2="92.297" y2="19.14" />
<g>
	<path d="M126.25,115.75c0.523,0.186,1.063,0.294,1.592,0.406c0.537,0.086,1.068,0.167,1.603,0.202   c0.268,0.013,0.531,0.041,0.799,0.032c0.266-0.005,0.529,0.021,0.793-0.001c0.528-0.014,1.051-0.071,1.568-0.146   c0.26-0.02,0.515-0.09,0.771-0.132c0.256-0.046,0.511-0.093,0.76-0.172l0.75-0.207l0.734-0.258   c0.496-0.146,0.958-0.396,1.433-0.595c0.239-0.097,0.458-0.244,0.688-0.363l0.687-0.364l1.447-0.766l-0.014,1.648   c-0.001,0.112,0.003,0.284,0.012,0.431l0.04,0.459c0.035,0.305,0.085,0.608,0.153,0.901c0.145,0.581,0.317,1.145,0.595,1.599   c0.274,0.459,0.624,0.799,1.054,1.01c0.421,0.231,0.963,0.308,1.539,0.29l2.197-0.07l-1.489,1.523   c-0.15,0.153-0.342,0.396-0.498,0.611c-0.165,0.222-0.319,0.455-0.454,0.696c-0.278,0.48-0.488,0.992-0.616,1.516   c-0.257,1.048-0.162,2.16,0.348,3.166c0.503,1.002,1.313,1.908,2.255,2.661c0.471,0.38,0.965,0.742,1.483,1.073   c0.516,0.336,1.049,0.651,1.592,0.957c-0.589-0.198-1.184-0.393-1.759-0.643c-0.575-0.25-1.142-0.529-1.691-0.852   c-1.08-0.658-2.129-1.489-2.855-2.644c-0.364-0.571-0.643-1.22-0.787-1.908c-0.15-0.688-0.141-1.407-0.03-2.095   c0.113-0.69,0.331-1.353,0.627-1.97c0.145-0.311,0.311-0.61,0.493-0.9c0.192-0.296,0.371-0.551,0.638-0.856l0.708,1.453   c-0.78,0.093-1.653,0.069-2.48-0.282c-0.833-0.335-1.502-1.001-1.945-1.702c-0.45-0.709-0.717-1.465-0.865-2.217   c-0.076-0.376-0.128-0.752-0.16-1.128c-0.017-0.188-0.027-0.376-0.033-0.565c-0.006-0.195-0.008-0.366,0.001-0.596l1.433,0.882   l-0.783,0.38c-0.266,0.116-0.518,0.258-0.796,0.351c-0.551,0.19-1.081,0.425-1.651,0.555c-0.281,0.074-0.56,0.156-0.843,0.218   l-0.862,0.136c-0.285,0.053-0.575,0.075-0.864,0.093c-0.29,0.015-0.576,0.056-0.866,0.047c-0.579,0-1.154-0.035-1.724-0.109   c-0.569-0.071-1.132-0.182-1.679-0.341C128.206,116.864,127.152,116.405,126.25,115.75z" />
</g>
<g>
	<path d="M130.765,115.695c0,0,0.188,0.034,0.49,0.165c0.301,0.129,0.719,0.352,1.145,0.724c0.219,0.181,0.444,0.396,0.651,0.654   c0.217,0.249,0.402,0.553,0.585,0.872c0.156,0.334,0.332,0.68,0.415,1.069c0.125,0.378,0.156,0.782,0.185,1.186   c0.026,0.403-0.044,0.804-0.088,1.195c-0.093,0.379-0.209,0.747-0.337,1.089c-0.163,0.326-0.334,0.631-0.5,0.912   c-0.183,0.269-0.4,0.492-0.584,0.701c-0.349,0.434-0.776,0.668-1.032,0.856c-0.272,0.176-0.438,0.258-0.438,0.258   s0.038-0.193,0.121-0.499c0.071-0.312,0.249-0.704,0.358-1.195c0.065-0.233,0.135-0.486,0.209-0.753   c0.048-0.267,0.104-0.54,0.175-0.811c0.033-0.279,0.06-0.56,0.11-0.838c-0.018-0.282,0.042-0.563,0.009-0.843   c-0.01-0.561-0.112-1.116-0.24-1.656c-0.084-0.262-0.144-0.534-0.241-0.781c-0.088-0.252-0.172-0.499-0.269-0.724   c-0.189-0.45-0.368-0.846-0.504-1.125C130.854,115.864,130.765,115.695,130.765,115.695z" />
</g>
<g>
	<path d="M132.242,122.421c0,0,0.126,0.061,0.304,0.274c0.176,0.202,0.423,0.509,0.698,0.926c0.546,0.834,1.294,2.055,2.015,3.611   c0.72,1.554,1.457,3.426,2.014,5.505c0.57,2.075,0.978,4.35,1.121,6.653c0.067,1.151,0.069,2.307,0.006,3.441   c-0.046,1.136-0.212,2.246-0.389,3.312c-0.098,0.532-0.216,1.051-0.331,1.558c-0.142,0.5-0.281,0.99-0.417,1.466   c-0.305,0.942-0.631,1.819-0.996,2.6c-0.323,0.798-0.741,1.474-1.065,2.088c-0.373,0.59-0.68,1.112-0.962,1.522   c-0.585,0.809-0.932,1.255-0.932,1.255s0.252-0.513,0.713-1.384c0.225-0.439,0.46-0.992,0.747-1.61   c0.236-0.644,0.554-1.345,0.804-2.145c0.279-0.789,0.514-1.664,0.756-2.586c0.219-0.93,0.4-1.918,0.553-2.946   c0.138-1.03,0.222-2.1,0.265-3.189c0.046-1.089,0.027-2.198-0.049-3.304c-0.246-4.436-1.397-8.791-2.525-11.955   c-0.572-1.58-1.101-2.888-1.545-3.768c-0.223-0.438-0.395-0.787-0.536-1.01C132.362,122.512,132.242,122.421,132.242,122.421z" />
</g>
<polyline fill="#FFFFFF" points="106.913,73.759 113.468,69.632 115.046,84.804 111.89,86.868 105.821,87.232 " />
<path fill="none" stroke="#000000" stroke-width="2" stroke-linecap="round" d="M84.77,206.099c0,0,9.289-36.771,9.23-43.099  s-11.205-62.227-10.603-67.114C84,91,101.329,79.809,107.583,75.761c6.254-4.048,16.12-9.854,20.13-7.524  c4.01,2.33,18.674,11.436,19.952,15.247c1.278,3.811,1.488,12.002,1.488,12.002" />
</svg>
