<?xml version="1.0" encoding="UTF-8"?>
<!-- Generator: Adobe Illustrator 25.2.1, SVG Export Plug-In . SVG Version: 6.00 Build 0)  -->
<svg xmlns="http://www.w3.org/2000/svg" xmlns:xlink="http://www.w3.org/1999/xlink" version="1.1" id="Lager_1" x="0px" y="0px" width="340.2px" height="226.8px" viewBox="0 0 340.2 226.8" style="enable-background:new 0 0 340.2 226.8;" xml:space="preserve"><rect fill="#FFFFFF" x="0px" y="0px" width="340.2px" height="226.8px" />
<style type="text/css">
	.st0{fill:url(#SVGID_1_);}
	.st1{fill:none;stroke:#000000;stroke-width:2;stroke-linecap:round;}
	.st2{fill:none;stroke:#000000;stroke-linecap:round;}
	.st3{fill:#FFFFFF;}
	.st4{fill:url(#SVGID_2_);}
	.st5{fill:none;stroke:#000000;}
	.st6{fill:url(#SVGID_3_);}
	.st7{fill:none;stroke:#000000;stroke-width:1.5;stroke-linecap:round;}
	.st8{fill:none;}
	.st9{fill:none;stroke:#000000;stroke-width:3;stroke-miterlimit:10;}
</style>
<g id="Färg_1_">

		<linearGradient id="SVGID_1_" gradientUnits="userSpaceOnUse" x1="25.4624" y1="812.3098" x2="30.8274" y2="804.3436" gradientTransform="matrix(1 0 0 1 0 -615.7797)">
		<stop offset="0" style="stop-color:#FFFFFF" />
		<stop offset="1" style="stop-color:#EDEDED" />
	</linearGradient>
	<polygon class="st0" points="42.6,211.8 51.3,195.2 56.3,186.3 48.9,184.8 35.3,179.3 27.5,172.4 23.5,166.3 5.2,185.9  " />
</g>
<path class="st1" d="M44,208.5c0.7-1.2,23.8-43.4,23.8-43.4c-5,7.8,15.6-8.1,15.8-39.9" />
<path class="st2" d="M25.1,168.1c0,0,8,15.3,28.3,17.5" />
<path class="st1" d="M7.8,181.9c0,0,20.2-21,20.9-22.9s5.8-57.1,6.2-60" />
<line class="st1" x1="41.2" y1="57.8" x2="39.4" y2="67.6" />
<polyline class="st1" points="39,65.7 35.5,80.6 35,103.7 " />
<path class="st1" d="M67,87.9c0,0,4.5,10,2.8,18.5l2.8,9.2" />
<line class="st1" x1="43.7" y1="54.4" x2="47.6" y2="38.8" />
<path class="st1" d="M64.3,35.3c0,0,6.4,6.5,3,19.1c0,0,3.1,8.1-0.6,17.5c0,0,1.8,9.7,0.3,16" />
<g>
	<path d="M61.3,65.3l0.1-0.3c0-0.1,0-0.2-0.1-0.3V65.3z" />
	<path d="M63,77.3c-0.1-2.1-0.3-4.2-0.5-6.3c-0.1-1-0.3-2.1-0.5-3.1c-0.2-0.9-0.4-1.9-0.6-2.8l-0.1,0.3v-0.6c0,0.1,0,0.2,0.1,0.3   l0.3-1c0.1-0.4,0.2-0.8,0.3-1.3c0.2-0.9,0.4-1.7,0.5-2.6c0.1-0.9,0.2-1.8,0.3-2.6c0.1-0.4,0.1-0.9,0.1-1.3c0-0.4,0.1-0.9,0-1.3   v-1.3l-0.1-1.3c0-0.4-0.1-0.9-0.1-1.3c0-0.4-0.1-0.9-0.2-1.3c-0.1-0.9-0.3-1.8-0.5-2.6c-0.1-0.4-0.2-0.9-0.3-1.3   c-0.1-0.3-0.2-0.6-0.3-1l0.1,0.1v-0.7c0,0.1,0.1,0.2,0.1,0.4l0.4-1.4c0.1-0.6,0.3-1.2,0.4-1.8c0.1-0.6,0.2-1.2,0.3-1.8   s0.1-1.2,0.2-1.9c0-0.6,0.1-1.3,0.1-1.9c0-0.6,0-1.3-0.1-1.9c0-0.6-0.2-1.3-0.3-1.9c-0.1-0.6-0.3-1.2-0.5-1.8   c-0.2-0.6-0.4-1.2-0.7-1.7c-0.3-0.6-0.6-1.1-1-1.6s-0.8-1-1.2-1.4s-0.7-1-1.2-1.3s-0.7-0.6-1.7-0.9c-0.4-0.1-1.3-0.6-2.4-0.3   c-1,0.3-0.3,0.7-0.4,0.9c0.4,0.2,2.1,0.3,2.5,0.5c0.5,0.3,0.9,0.4,1.3,0.7c0.4,0.4,0.8,0.8,1.2,1.2c0.4,0.4,0.7,0.9,1,1.4   s0.5,1,0.7,1.5s0.4,1,0.5,1.6c0.2,0.5,0.2,1.1,0.3,1.7s0.1,1.1,0.1,1.7c0,0.6,0,1.2,0,1.7c0,0.6-0.1,1.2-0.1,1.7   c-0.1,0.6-0.1,1.2-0.2,1.7c-0.1,0.6-0.2,1.1-0.3,1.7c-0.1,0.6-0.3,1.1-0.4,1.7l-0.5,1.7l-0.1,0.3l0.1,0.4c0.1,0.3,0.2,0.7,0.3,1.1   c0.1,0.4,0.2,0.8,0.3,1.2c0.2,0.8,0.3,1.6,0.4,2.4c0,0.4,0.1,0.8,0.1,1.2s0.1,0.8,0.1,1.2c0,0.8,0.1,1.7,0.1,2.5c0,0.4,0,0.8,0,1.2   s0,0.8-0.1,1.2c-0.1,0.8-0.1,1.7-0.3,2.5c-0.1,0.8-0.3,1.6-0.4,2.5c-0.1,0.4-0.2,0.8-0.3,1.2l-0.3,1.2l0,0.4l0.1,0.3   c0.3,1,0.5,2,0.7,3s0.4,2,0.6,3c0.4,2,0.7,4.1,0.9,6.1c0.2,2.1,0.3,4.1,0.3,6.2s-0.2,4.1-0.6,6.2c0.3-1,0.6-2,0.8-3   s0.4-2.1,0.5-3.1C63,81.5,63.1,79.4,63,77.3z" />
	<path d="M61.5,45l0.1-0.4c0-0.1-0.1-0.2-0.1-0.4V45z" />
</g>
<line class="st1" x1="51.7" y1="29.3" x2="53.2" y2="24.5" />
<line class="st1" x1="46.7" y1="40" x2="47.3" y2="32" />
<path d="M57.8,47c0.4-3,0.4-6.2-0.6-9.2c-0.5-1.5-1.2-2.9-2.2-4.1c-1-1.1-2.2-2-3.5-2.6s-2.7-1-4-1.1c-0.2,0-0.7,0.2-0.7-0.1  c0,0-0.1,0.6-0.1,0.9s0.6,0.2,0.9,0.3c1.3,0.3,2.3,0.2,3.5,0.9c1.1,0.7,2.2,1.6,3,2.6c0.8,1.1,1.4,2.3,1.7,3.6  c0.4,1.3,0.5,2.7,0.5,4.1c0,1.4-0.1,2.8-0.3,4.3c-0.2,1.4-0.5,2.8-0.9,4.2s-0.8,2.8-1.2,4.1l-0.1,0.4l0.2,0.5  c0.1,0.2,0.2,0.6,0.3,0.9c0.1,0.3,0.2,0.6,0.3,0.9c0.2,0.6,0.3,1.3,0.4,1.9c0.1,0.7,0.2,1.3,0.3,2s0.1,1.3,0.1,2c0,0.3,0,0.7,0,1  s0,0.7-0.1,1l-0.1,1l-0.1,1c-0.1,0.7-0.2,1.3-0.3,2c-0.1,0.3-0.2,0.7-0.2,1l-0.2,1L54,72l0.1,0.3c0.2,0.8,0.4,1.7,0.6,2.5  c0.2,0.9,0.3,1.7,0.5,2.6c0.1,0.9,0.3,1.7,0.4,2.6c0.1,0.9,0.2,1.7,0.3,2.6s0.2,1.8,0.2,2.6c0.1,0.9,0.1,1.8,0.1,2.6  c0,0.9,0,1.8,0,2.6c0,0.4,0,0.9-0.1,1.3L56,93.2c0.2-0.9,0.4-1.7,0.6-2.6c0.2-0.9,0.2-1.8,0.3-2.7C57,87,57,86.1,57,85.2  c0-0.4,0-0.9,0-1.4v-1.3c-0.1-1.8-0.2-3.6-0.4-5.4c-0.1-0.9-0.2-1.8-0.4-2.7c-0.1-0.8-0.3-1.6-0.4-2.4l0.2-0.8  c0.1-0.4,0.2-0.7,0.3-1.1c0.1-0.7,0.3-1.4,0.4-2.1l0.3-1l0.1-1.1c0-0.4,0.1-0.7,0.1-1.1s0-0.7,0-1.1c0-0.7,0-1.5-0.1-2.2  S57,60,56.8,59.3c-0.1-0.7-0.3-1.5-0.5-2.2c-0.1-0.4-0.2-0.7-0.3-1.1c-0.1-0.2-0.2-0.4-0.2-0.6c0.4-1.3,0.8-2.6,1.1-3.9  C57.4,50,57.6,48.5,57.8,47z" />
<path d="M50,63.2c-0.2-0.6-0.4-1.2-0.7-1.7s-0.7-1-1-1.5c-0.8-0.9-1.7-1.6-2.7-2.1s-2-0.9-3.1-1.1c-0.7-0.2-1.8-0.4-1.9-0.2  c-0.1,0.2-0.2,0.5-0.2,0.5c0.6,0.2,1.4,0.2,2,0.4c1,0.4,1.9,0.7,2.8,1.3c0.9,0.6,1.6,1.3,2.3,2.1c0.3,0.4,0.6,0.9,0.8,1.3  c0.2,0.5,0.4,1,0.5,1.5c0.2,1,0.3,2.1,0.1,3.1c-0.1,0.5-0.2,1.1-0.3,1.6L48.1,70c-0.2,1.1-0.5,2.2-0.8,3.2c-0.2,0.5-0.4,1-0.6,1.5  c-0.1,0.2-0.2,0.5-0.3,0.7c-0.1,0.1-0.1,0.2-0.2,0.3l-0.1,0.1c0,0-0.1,0.1,0,0l-0.3,1.3c0.1,0.3,0.2,0.6,0.3,0.9s0.2,0.7,0.2,1  c0.1,0.7,0.3,1.3,0.4,2c0.2,1.4,0.4,2.7,0.5,4.1c0,0.3,0,0.7,0.1,1c0,0.3,0,0.7,0,1c0,0.7,0,1.4,0,2.1s-0.1,1.4-0.1,2.1  s-0.1,1.4-0.2,2.1v0.2v0.1c0.2,0.6,0.3,1.2,0.5,1.9c0.1,0.6,0.3,1.3,0.4,1.9c0.2,1.3,0.4,2.6,0.5,3.9s0.1,2.6,0,4  c-0.1,1.3-0.3,2.6-0.7,3.9c0.6-1.2,1-2.5,1.2-3.8c0.3-1.3,0.4-2.7,0.4-4.1s0-2.7-0.2-4.1c-0.1-0.7-0.1-1.4-0.2-2  c-0.1-0.6-0.2-1.2-0.3-1.8c0.1-0.7,0.2-1.3,0.3-2s0.2-1.5,0.2-2.2c0.1-0.7,0.1-1.5,0.1-2.2s0-1.5,0-2.2c-0.1-1.5-0.2-2.9-0.5-4.4  c-0.1-0.7-0.3-1.5-0.4-2.2c-0.1-0.4-0.2-0.7-0.3-1.1c0-0.2-0.1-0.3-0.1-0.5c0.1-0.1,0.1-0.2,0.2-0.3c0.2-0.3,0.3-0.6,0.4-0.9  c0.2-0.6,0.4-1.2,0.6-1.7c0.3-1.2,0.6-2.3,0.7-3.5c0.1-0.6,0.2-1.2,0.2-1.8c0.1-0.6,0.1-1.1,0.2-1.8C50.4,65.7,50.3,64.4,50,63.2z" />
<polyline class="st3" points="50.9,27.9 53.2,19.9 46.8,17.5 " />
<path class="st3" d="M56.8,24.7" />
<path class="st1" d="M72.7,109.4c0,0,5.5-6.8,6.5-13.9c0.9-7.1,5.6-15,9.4-17.2s8,2,8.2,3.4s-2.7,9-2.7,9" />
<path class="st1" d="M83.7,124.9c0-2.4,7.3-12.6,10.8-33.9" />
<g>
	<path d="M55.3,104.2c0,0-0.2,1-0.4,2.8c-0.3,1.8-0.5,4.4-0.6,7.5c-0.1,1.6,0,3.2,0,5c0.1,1.8,0.2,3.6,0.6,5.5   c0.1,1,0.4,1.9,0.5,2.9c0.1,0.5,0.3,1,0.4,1.4c0.1,0.5,0.3,1,0.5,1.4c0.6,1.9,1.5,3.7,2.3,5.6c0.8,1.9,1.6,3.8,2.3,5.7   c0.3,1,0.7,1.9,0.9,2.9c0.1,0.5,0.2,1,0.3,1.5s0.1,1,0.2,1.5c0.2,1,0.2,2,0.2,2.9c0.1,1-0.1,1.9-0.1,2.8c0,0.9-0.2,1.8-0.4,2.6   c-0.1,0.4-0.1,0.8-0.2,1.2c-0.1,0.4-0.2,0.8-0.3,1.2c-0.2,0.8-0.4,1.5-0.6,2.2c-0.2,0.7-0.5,1.3-0.7,1.9c-0.2,0.6-0.4,1.1-0.6,1.6   c-0.2,0.5-0.4,0.9-0.6,1.3c-0.8,1.6-1.2,2.5-1.2,2.5s0.4-1,1-2.6c0.2-0.4,0.4-0.9,0.6-1.4c0.2-0.5,0.3-1.1,0.5-1.7   c0.2-0.6,0.4-1.2,0.6-1.9c0.2-0.7,0.3-1.4,0.5-2.1c0.1-0.4,0.2-0.8,0.3-1.1c0.1-0.4,0.1-0.8,0.2-1.2c0.1-0.8,0.3-1.7,0.3-2.6   c0-0.9,0.1-1.8,0-2.7s-0.1-1.9-0.2-2.8c-0.1-0.5-0.1-1-0.2-1.4c-0.1-0.5-0.2-0.9-0.3-1.4c-0.2-1-0.6-1.9-0.9-2.8   c-0.7-1.9-1.5-3.7-2.4-5.6c-0.8-1.9-1.7-3.7-2.3-5.7c-0.2-0.5-0.3-1-0.5-1.5c-0.1-0.5-0.3-1-0.4-1.5c-0.2-1-0.4-2-0.5-2.9   c-0.3-1.9-0.4-3.8-0.5-5.6c0-1.8,0-3.5,0.1-5.1c0.2-3.1,0.6-5.7,0.9-7.5C55,105.2,55.3,104.2,55.3,104.2z" />
</g>
<g>
	<path d="M47.7,170.4c0,0,0.2,0,0.7-0.1c0.4,0,1-0.1,1.7-0.3c0.4-0.1,0.7-0.2,1.1-0.3c0.4-0.1,0.8-0.3,1.2-0.4   c0.4-0.2,0.8-0.3,1.3-0.6c0.4-0.2,0.8-0.4,1.2-0.7c0.4-0.2,0.8-0.5,1.2-0.8s0.7-0.6,1-0.9c0.3-0.3,0.6-0.7,0.9-1   c0.3-0.3,0.5-0.7,0.7-1s0.4-0.6,0.6-0.8c0.2-0.3,0.3-0.5,0.4-0.7c0.2-0.4,0.4-0.6,0.4-0.6s-0.1,0.3-0.2,0.7   c-0.1,0.2-0.2,0.5-0.3,0.8s-0.3,0.6-0.5,1s-0.4,0.7-0.7,1.1c-0.3,0.4-0.5,0.8-0.9,1.1c-0.3,0.3-0.7,0.8-1.1,1.1   c-0.4,0.3-0.8,0.7-1.2,0.9c-0.4,0.3-0.9,0.5-1.3,0.7c-0.4,0.2-0.9,0.3-1.4,0.5c-0.5,0.1-0.9,0.2-1.3,0.3c-0.4,0.1-0.8,0.1-1.2,0.1   c-0.7,0-1.3,0-1.8-0.1C48,170.5,47.7,170.4,47.7,170.4z" />
</g>
<g>
	<path d="M65.9,88.6c-0.3,0.2-0.6,0.4-0.9,0.6c-0.3,0.1-0.7,0.3-1,0.3c-0.4,0.1-0.7,0.1-1.1,0.1c-0.4,0-0.7-0.1-1.1-0.2l0.4-0.2   c-0.1,0.3-0.2,0.6-0.4,0.9s-0.3,0.6-0.5,0.8c-0.4,0.5-0.8,1-1.3,1.5c-0.2,0.2-0.5,0.4-0.8,0.6s-0.5,0.3-0.8,0.5s-0.6,0.2-0.9,0.4   c-0.3,0.1-0.6,0.2-0.9,0.3l0.3-0.4c0,0.2-0.1,0.3-0.1,0.5c-0.1,0.2-0.1,0.3-0.2,0.4c-0.1,0.3-0.3,0.6-0.4,0.8c-0.3,0.5-0.7,1-1,1.4   c-0.4,0.4-0.8,0.8-1.2,1.2c-0.4,0.4-0.9,0.7-1.3,1c0.4-0.4,0.8-0.8,1.1-1.3c0.3-0.4,0.7-0.9,1-1.3s0.6-0.9,0.9-1.4   c0.1-0.2,0.2-0.5,0.3-0.7c0-0.1,0.1-0.3,0.1-0.4s0.1-0.3,0.1-0.3v-0.3l0.3-0.1c0.3-0.1,0.5-0.2,0.8-0.3c0.3-0.1,0.5-0.2,0.8-0.3   c0.3-0.1,0.5-0.3,0.7-0.4c0.2-0.2,0.5-0.3,0.7-0.5c0.4-0.4,0.9-0.8,1.2-1.2c0.2-0.2,0.4-0.5,0.5-0.7c0.2-0.3,0.3-0.5,0.4-0.8   l0.1-0.3l0.2,0.1c0.3,0.1,0.6,0.2,1,0.3c0.3,0.1,0.7,0.1,1,0.1C64.6,89.1,65.2,88.9,65.9,88.6z" />
</g>
<g>
	<g>
		<path d="M335.9,137.6c0,0-0.7-1.3-1.7-3.1c-0.3-0.5-0.5-1-0.9-1.5c-0.3-0.5-0.7-1.1-1-1.4c-0.3-0.2-1-0.1-1.5,0    c-0.6,0.2-1.2,0.5-1.7,0.8c-0.5,0.4-1,0.8-1.4,1.3c-0.2,0.3-0.4,0.5-0.5,0.8l-0.1,0.2c0,0-0.1,0.1-0.1,0.2c0,0.1,0,0.1,0,0.1    c0,0.1,0,0.1,0,0.2c0,0.6,0.3,1.2,0.5,1.7c0.2,0.6,0.5,1.1,0.7,1.6c0.4,1,0.7,1.8,1,2.4c0.2,0.6,0.3,0.9,0.3,0.9s-0.2-0.3-0.5-0.9    c-0.3-0.5-0.7-1.3-1.3-2.3c-0.2-0.5-0.5-1-0.8-1.6s-0.6-1.2-0.7-2c0-0.1,0-0.2,0-0.3s0-0.3,0.1-0.4c0-0.1,0-0.1,0.1-0.3l0.1-0.3    c0.2-0.3,0.4-0.7,0.6-1c0.4-0.6,1-1.1,1.6-1.5s1.2-0.7,1.9-0.9c0.3-0.1,0.7-0.2,1.1-0.2c0.2,0,0.4,0,0.6,0.1s0.4,0.1,0.6,0.3    c0.6,0.6,0.8,1.2,1.1,1.7c0.3,0.6,0.5,1.1,0.7,1.6C335.5,136.2,335.9,137.6,335.9,137.6z" />
	</g>

		<linearGradient id="SVGID_2_" gradientUnits="userSpaceOnUse" x1="234.9409" y1="138.877" x2="253.2537" y2="135.4571" gradientTransform="matrix(1 0 0 -1 0 225.8898)">
		<stop offset="0" style="stop-color:#FFFFFF" />
		<stop offset="1" style="stop-color:#EDEDED" />
	</linearGradient>
	<polygon class="st4" points="229.9,107 251,112.3 254.6,97.1 258.8,87.2 266.9,77.2 261.1,74.6 251.3,70.3 240.7,65.8  " />
	<g>
		<path d="M320.8,207.3c0,0,0.1-0.2,0.3-0.5c0.2-0.3,0.4-0.8,0.7-1.4c0.2-0.6,0.4-1.3,0.3-2c-0.1-0.4-0.2-0.6-0.4-1    c-0.2-0.4-0.5-0.7-0.7-1.1c-0.9-1.4-2-2.7-3.1-3.1c-0.5-0.2-1-0.2-1.4-0.2c-0.3,0.1-0.5,0.1-0.5,0.1s0,0,0.1-0.1s0.2-0.1,0.4-0.2    c0.3-0.1,0.9-0.3,1.5-0.2c0.7,0.1,1.4,0.5,2,1.1s1.2,1.3,1.7,2c0.3,0.4,0.5,0.7,0.7,1.1c0.1,0.2,0.2,0.4,0.3,0.6    c0.1,0.2,0.1,0.5,0.2,0.7c0.1,1-0.3,1.8-0.7,2.4c-0.3,0.6-0.7,1-1,1.3C321,207.2,320.8,207.3,320.8,207.3z" />
	</g>
	<g>
		<path d="M315.1,205c0,0-0.4-0.5-1-1.2c-0.3-0.4-0.6-0.8-1-1.3s-0.7-1-1.1-1.4c-0.2-0.2-0.4-0.5-0.6-0.7s-0.4-0.4-0.6-0.6    c-0.2-0.2-0.4-0.4-0.6-0.5s-0.4-0.2-0.6-0.4c-0.2,0-0.4-0.2-0.5-0.2c-0.2,0-0.3-0.1-0.4,0c-0.3,0-0.4,0.1-0.4,0.1s0.1-0.1,0.4-0.2    c0.1-0.1,0.3-0.1,0.5-0.2c0.2-0.1,0.4,0,0.7,0c0.2,0.1,0.5,0.1,0.8,0.3c0.3,0.1,0.5,0.3,0.8,0.5c0.5,0.4,1,0.9,1.4,1.4    C314.3,202.4,315.1,205,315.1,205z" />
	</g>
	<path class="st1" d="M230.3,106.5c0,0,28.7,7.3,30.7,10.2s28.9,64.5,28.9,64.5l8.1,14" />
	<polyline class="st1" points="285.9,161.6 295.1,182.9 306.4,199.6  " />
	<path class="st1" d="M307.2,199.2l4.2,8.7c0,0,2.1,0.6,4.6-1.6" />
	<path class="st1" d="M297.3,192.8l4.3,8.5c0,0,1.4,0.7,3.5-0.7" />
	<path class="st1" d="M244.8,68.5l31.1,13.8c0,0,6.3,0.1,12.8,0.9c6.4,0.7,22.1,8.5,23.9,12.4c2.9,6.5,7.1,12.7,13.9,22.7   c0,0,4.4,8.7,6.1,11.6" />
	<line class="st1" x1="332.4" y1="131.1" x2="337.7" y2="140" />
	<g>
		<path d="M303.9,113.7c0,0,1.3,1.8,3.1,4.4c0.9,1.3,2,2.9,3.1,4.6s2.3,3.5,3.6,5.2c0.6,0.9,1.2,1.8,1.8,2.6    c0.6,0.9,1.2,1.7,1.8,2.5c0.6,0.8,1.2,1.6,1.7,2.3s1.1,1.4,1.6,2s1,1.1,1.4,1.6c0.2,0.2,0.4,0.5,0.6,0.7s0.4,0.4,0.5,0.5    c0.7,0.6,1,1,1,1s-0.5-0.2-1.2-0.7c-0.2-0.1-0.4-0.3-0.7-0.4c-0.2-0.2-0.5-0.4-0.7-0.5c-0.5-0.4-1.1-0.8-1.7-1.4    c-0.6-0.6-1.3-1.1-1.9-1.8s-1.3-1.4-2-2.2c-0.6-0.8-1.3-1.6-2-2.4c-0.6-0.8-1.3-1.7-1.9-2.6s-1.2-1.8-1.8-2.7    c-0.6-0.9-1.1-1.8-1.6-2.7c-1-1.8-1.9-3.5-2.7-4.9C304.7,115.8,303.9,113.7,303.9,113.7z" />
	</g>
	<g>
		<path d="M325.5,141.9c0,0,0.8,0.1,2.1,0.3c0.3,0,0.6,0.1,1,0.1c0.3,0,0.7,0,1.1,0.1c0.4,0,0.7,0,1.1,0s0.8,0,1.1-0.1    c0.4,0,0.8-0.1,1.1-0.2c0.2,0,0.4-0.1,0.5-0.1c0.2-0.1,0.4-0.1,0.5-0.1c0.4-0.1,0.7-0.2,1-0.3s0.6-0.2,0.9-0.4    c0.3-0.1,0.5-0.2,0.8-0.4c0.2-0.1,0.4-0.2,0.6-0.3c0.3-0.2,0.5-0.3,0.5-0.3s-0.1,0.2-0.3,0.6c-0.1,0.2-0.2,0.4-0.4,0.6    c-0.2,0.2-0.4,0.5-0.6,0.7c-0.1,0.1-0.3,0.3-0.4,0.4c-0.1,0.1-0.3,0.2-0.5,0.3c-0.3,0.2-0.7,0.5-1.1,0.6c-0.4,0.2-0.8,0.4-1.2,0.5    c-0.4,0.1-0.9,0.2-1.3,0.2c-0.4,0.1-0.9,0-1.3,0s-0.9-0.1-1.3-0.2c-0.8-0.2-1.5-0.5-2.1-0.8C326.1,142.6,325.5,141.9,325.5,141.9z    " />
	</g>
	<g>
		<path d="M306.1,119c0,0,0.2,0.3,0.3,0.7c0,0.2,0.1,0.5,0,0.8c0,0.3-0.2,0.6-0.3,0.9c-0.2,0.3-0.3,0.5-0.6,0.7    c-0.2,0.2-0.4,0.4-0.6,0.4c-0.4,0.2-0.7,0.2-0.7,0.2s0.1-0.3,0.4-0.6c0.1-0.2,0.2-0.4,0.4-0.6c0.1-0.2,0.3-0.4,0.4-0.7    c0.2-0.4,0.4-0.9,0.6-1.3C306,119.3,306.1,119,306.1,119z" />
	</g>
	<g>
		<path d="M303.7,120.9c0.7,1,1.3,2,1.8,3.2c0.5,1.1,0.9,2.3,1.2,3.6c0.3,1.2,0.4,2.6,0.4,3.9c0,0.7-0.1,1.3-0.2,2s-0.3,1.3-0.6,1.9    l-0.1-0.8c0.2,0.3,0.3,0.5,0.4,0.8s0.2,0.5,0.3,0.8c0.2,0.5,0.4,1.1,0.6,1.6c0.2,0.6,0.3,1.1,0.4,1.7c0.1,0.6,0.2,1.2,0.2,1.7    c0,0.3,0,0.6,0,0.9c0,0.3,0,0.6,0,0.9L308,144c0,0.3-0.1,0.6-0.1,0.9c-0.1,0.6-0.2,1.1-0.4,1.7c-0.1,0.3-0.2,0.6-0.2,0.8l-0.3,0.8    l-1.4-1c0.2-0.2,0.3-0.3,0.5-0.5c0.1-0.1,0.3-0.3,0.5-0.4c0.3-0.3,0.6-0.5,1-0.7c0.7-0.4,1.4-0.8,2.1-1c0.8-0.2,1.5-0.4,2.3-0.3    c0.8,0,1.6,0.2,2.3,0.5l-0.8,0.5c0.1-0.3,0.2-0.5,0.3-0.7c0.1-0.2,0.2-0.4,0.3-0.7c0.3-0.4,0.5-0.8,0.8-1.2    c0.6-0.7,1.3-1.3,2.1-1.8c1.6-0.9,3.4-1.2,5.1-1.1c-1.7,0.2-3.3,0.8-4.7,1.8c-0.7,0.5-1.3,1.1-1.7,1.8c-0.2,0.3-0.5,0.7-0.6,1.1    c-0.1,0.2-0.2,0.4-0.3,0.6c-0.1,0.2-0.1,0.4-0.2,0.6c-0.1,0.4-0.4,0.6-0.7,0.5l0,0l0,0c-1.3-0.4-2.6-0.3-3.8,0.1    c-0.6,0.2-1.2,0.5-1.7,0.9c-0.3,0.2-0.5,0.4-0.8,0.6c-0.1,0.1-0.3,0.2-0.4,0.3s-0.2,0.3-0.3,0.3c-0.3,0.4-0.8,0.4-1.2,0.1    c-0.3-0.3-0.3-0.6-0.2-1l0,0l0.2-0.7c0.1-0.2,0.2-0.5,0.2-0.7c0.1-0.5,0.2-1,0.3-1.5c0.1-0.5,0.1-1,0.2-1.5c0-0.3,0-0.5,0-0.8    s0-0.5,0-0.8c0-0.5-0.1-1-0.1-1.5c-0.1-0.5-0.2-1-0.3-1.5s-0.3-1-0.4-1.5c-0.1-0.2-0.2-0.5-0.3-0.7c-0.1-0.2-0.2-0.5-0.3-0.7v-0.1    c-0.1-0.2-0.1-0.5,0-0.7c0.4-1,0.8-2.1,0.9-3.3s0.1-2.4-0.1-3.5c-0.2-1.2-0.4-2.4-0.8-3.5C304.7,123.1,304.2,122,303.7,120.9z" />
	</g>
	<path class="st1" d="M287.7,141.7c0,0,7.6,22.8,10,23.3s15.8-6,24.7-11.7" />
	<line class="st1" x1="321.7" y1="152.3" x2="330.1" y2="148.6" />
	<g>
		<path d="M326.3,142.2c0,0,0.6-0.2,1.4,0.1c0.4,0.1,0.9,0.3,1.3,0.6c0.5,0.3,0.9,0.7,1.3,1.3c0.2,0.3,0.3,0.5,0.5,0.8    c0.1,0.3,0.2,0.6,0.3,0.9c0.1,0.3,0.1,0.6,0.1,0.9c0,0.3,0,0.5-0.1,0.8c0,0.2-0.1,0.4-0.1,0.6c-0.1,0.2-0.1,0.3-0.2,0.5    s-0.2,0.4-0.2,0.4s-0.1-0.2-0.1-0.4c0-0.1-0.1-0.3-0.1-0.4c0-0.2-0.1-0.3-0.2-0.5s-0.1-0.4-0.2-0.6c-0.1-0.2-0.1-0.4-0.3-0.6    c-0.1-0.2-0.2-0.4-0.3-0.6c-0.1-0.2-0.2-0.4-0.4-0.6c-0.1-0.2-0.3-0.4-0.4-0.6c-0.1-0.2-0.3-0.4-0.4-0.5c-0.3-0.3-0.6-0.7-0.9-1    C326.7,142.7,326.3,142.2,326.3,142.2z" />
	</g>
	<polyline class="st1" points="286.1,152.9 300,181 313.3,198.6  " />
	<line class="st1" x1="314.7" y1="198.9" x2="319.5" y2="207.6" />
	<path class="st1" d="M311.9,161.7c0,0,1.8,3.7,1.8,9.4c0,0,6.6,5.7,6,15.1c0,0,12.3,13.3,0.6,22.3" />
	<path class="st5" d="M264.7,80.1c0,0-10.3,8.7-12.7,30.6" />
	<line class="st1" x1="285.6" y1="140.8" x2="289" y2="145.3" />
</g>
<g>
	<g id="Färg_8_">

			<linearGradient id="SVGID_3_" gradientUnits="userSpaceOnUse" x1="129.0588" y1="818.491" x2="139.0566" y2="796.5595" gradientTransform="matrix(1 0 0 1 0 -615.7797)">
			<stop offset="0" style="stop-color:#FFFFFF" />
			<stop offset="1" style="stop-color:#EDEDED" />
		</linearGradient>
		<path class="st6" d="M155.4,218.7l4.3-34.3l5.4-17.6c0,0-8.1-1.1-9.8-0.5s-14.6-4-14.6-4l-9.7-5.8l-5-5.6l-12.5,22.8L99.4,194    C99.5,194.2,154.8,218.7,155.4,218.7z" />
	</g>
	<g>
		<path d="M109,181.9l4.3-7.8l4.3-7.8l4.4-7.8l4.4-7.8l0,0l0.1-0.1c1-1.3,1.8-3,2.2-4.7c0.2-0.8,0.3-1.7,0.2-2.6    c0-0.4-0.1-0.8-0.2-1.3l-0.3-1.4c-0.6-3.7-1.2-7.5-1.8-11.2c-1.1-7.5-2.1-15-3.2-22.4c-1-7.5-2-15-2.8-22.5    c-0.1-0.9-0.2-1.9-0.3-2.9v-0.8c0-0.1,0-0.3,0-0.5c0,0,0-0.2,0-0.3v-0.2c0,0.1,0,0,0,0c0-0.1,0-0.1,0-0.1c0,0.1,0-0.2,0-0.4    l-0.1-0.7c-0.2-1-0.2-2.2,0-3.3c0.3-1.1,0.8-2.1,1.5-2.9s1.4-1.5,2.2-2c0.4-0.3,0.7-0.5,1.2-0.8l0.6-0.3l0.7-0.3    c1.8-0.7,3.5-0.9,4.9-1.6c0.7-0.3,1.3-0.7,1.9-1.3c0.3-0.3,0.6-0.6,0.8-0.9l0.4-0.5c0.1-0.2,0.3-0.3,0.5-0.6    c0.8-0.8,1.6-1.3,2.4-1.7c0.8-0.5,1.6-0.8,2.5-1.2c3.3-1.3,6.7-2.1,10.1-2.9c3.4-0.7,6.8-1.3,10.2-1.9l1.3-0.2h0.2h0.2    c0.1,0,0.4,0,0.5,0c0.3,0.1,0.6,0.2,0.8,0.3c0.9,0.6,1.5,1.3,2.1,2.1c1.1,1.5,2.2,3,3,4.8c1.7,3.3,3.2,6.7,4.8,10.1    c0.7,1.7,1.5,3.4,2.2,5.2l1,2.6c0.3,0.9,0.7,1.8,0.8,2.8s-0.2,2.1-0.7,2.9s-1.1,1.6-1.6,2.3c-1.1,1.4-2.3,2.8-3.5,4.2l-7.1,8.2    l6.9-8.5c1.1-1.4,2.3-2.8,3.4-4.3c0.6-0.7,1.1-1.5,1.5-2.3s0.6-1.6,0.5-2.5s-0.5-1.7-0.8-2.6l-1.1-2.5l-2.4-5    c-1.6-3.3-3.2-6.7-4.9-9.9c-0.8-1.6-1.9-3.1-3-4.4c-0.5-0.7-1.2-1.3-1.7-1.7c-0.1-0.1-0.3-0.1-0.4-0.1c-0.1,0,0,0-0.1,0h-0.2    c0,0,0.1,0,0,0l0,0h-0.1l-1.3,0.2c-3.4,0.6-6.8,1.3-10.1,2.1s-6.7,1.6-9.8,2.9c-0.8,0.3-1.5,0.7-2.3,1.1c-0.7,0.4-1.4,0.9-1.9,1.4    c-0.1,0.1-0.2,0.3-0.4,0.5l-0.4,0.5c-0.3,0.4-0.7,0.8-1,1.1c-0.7,0.7-1.6,1.3-2.4,1.7c-1.8,0.8-3.5,1-5,1.6l-0.5,0.2l-0.6,0.3    c-0.3,0.2-0.7,0.4-1,0.7c-0.7,0.5-1.3,1-1.8,1.6s-0.8,1.3-1,2s-0.1,1.5,0,2.3l0.1,0.7c0,0.3,0.1,0.5,0,1c0,0.2,0,0.2,0,0.3v0.1    c0,0,0,0,0-0.1V80v0.2v0.7c0.1,0.9,0.2,1.9,0.3,2.8c0.8,7.5,1.8,15,2.7,22.5l2.9,22.5c0.5,3.7,1,7.5,1.5,11.2l0.2,1.4    c0.1,0.5,0.2,1,0.2,1.5c0.1,1-0.1,2.1-0.3,3.1c-0.5,2-1.4,3.7-2.6,5.3l0.1-0.1l-4.6,7.6l-4.6,7.6l-4.6,7.6L109,181.9z" />
	</g>
	<g>
		<path d="M182.2,95.1c0,0,0,0,0-0.1c0,0,0-0.1,0-0.2c0,0,0,0,0-0.1c0.1,0,0.1,0,0.1,0l0,0v0.1c0.1,0.4,0.2,0.9,0.4,1.6    c0.3,1.4,0.6,3.4,0.7,5.8c0.1,2.4,0.1,5.3-0.2,8.3c-0.2,1.5-0.3,3.1-0.6,4.6c-0.3,1.6-0.6,3.1-1,4.7s-0.9,3.1-1.4,4.6    s-1.1,2.9-1.7,4.3c-1.2,2.7-2.6,5.1-3.8,7.1c-1.3,2-2.5,3.5-3.3,4.6c-0.9,1-1.4,1.6-1.4,1.6s0.4-0.7,1.1-1.8    c0.7-1.2,1.7-2.9,2.7-4.9c1.1-2.1,2.2-4.5,3.3-7.2c0.5-1.3,1-2.8,1.5-4.2c0.5-1.5,0.9-2.9,1.3-4.5c0.4-1.5,0.8-3,1.1-4.5    s0.6-3,0.8-4.5c0.4-2.9,0.6-5.7,0.7-8c0.1-2.4,0.1-4.4,0-5.7c0-0.7-0.1-1.2-0.1-1.6V95l0,0c0,0-0.1,0,0.1,0v0.1c0,0.1,0,0.1,0,0.2    C182.2,95,182.2,95.1,182.2,95.1z" />
	</g>
	<line class="st1" x1="172.4" y1="136.3" x2="157.9" y2="197.1" />
	<path class="st2" d="M128.9,154.2c0,0,13,13.7,33.1,12.2" />
	<path class="st1" d="M132.6,71.4c0,0,19.3-4,22.7-4.5c3.5-0.4,6.5,5.7,7.9,8.7s6.8,13.1,3.7,16.8c-3.1,3.6-8.5,7.1-8.5,7.1" />
	<g>
		<path d="M140.6,86.4c0,0,0.2,0.1,0.5,0.2s0.8,0.3,1.4,0.4c1.1,0.3,2.6,0.7,4,0.7c0.4,0,0.7,0,1.1,0c0.4,0,0.7-0.1,1.1-0.1    c0.3,0,0.7-0.1,1-0.2c0.3,0,0.6-0.1,0.9-0.2c0.3-0.1,0.6-0.1,0.8-0.2s0.4-0.1,0.6-0.2c0.4-0.1,0.6-0.1,0.6-0.1s-0.1,0.2-0.4,0.5    c-0.1,0.1-0.3,0.3-0.5,0.5s-0.4,0.4-0.7,0.6s-0.5,0.4-0.9,0.6c-0.3,0.2-0.7,0.4-1.1,0.5c-0.4,0.1-0.8,0.3-1.2,0.3    c-0.4,0.1-0.9,0.1-1.3,0.1h-0.7l-0.6-0.1c-0.4-0.1-0.8-0.2-1.2-0.4c-0.4-0.2-0.7-0.3-1.1-0.5c-0.3-0.2-0.6-0.4-0.9-0.6    c-0.5-0.4-0.9-0.8-1.1-1.1C140.7,86.6,140.6,86.4,140.6,86.4z" />
	</g>
	<g>
		<path d="M150.8,83.4c0,0,0.3,0.5,0.7,1.1s0.9,1.4,1.4,2.2c0.2,0.4,0.5,0.8,0.7,1.2c0.2,0.4,0.4,0.8,0.6,1.1    c0.2,0.3,0.3,0.6,0.4,0.9c0.1,0.2,0.2,0.4,0.2,0.4s-0.1,0-0.4-0.1c-0.2-0.1-0.6-0.1-0.9-0.3c-0.4-0.2-0.7-0.4-1.1-0.8    c-0.4-0.3-0.7-0.8-1-1.2c-0.3-0.5-0.5-1-0.7-1.5s-0.2-1-0.2-1.5C150.6,84,150.8,83.4,150.8,83.4z" />
	</g>
	<g>
		<path d="M153,87c0,0-0.8,1.1-1.8,2.8c-0.2,0.4-0.5,0.9-0.8,1.4s-0.5,1-0.7,1.6s-0.4,1.2-0.6,1.8c-0.1,0.6-0.3,1.2-0.3,1.8    c-0.1,0.6-0.1,1.2,0,1.9c0,0.6,0.1,1.2,0.3,1.8c0.1,0.6,0.3,1.1,0.5,1.6c0.1,0.3,0.2,0.5,0.3,0.7s0.2,0.5,0.3,0.7    c0.2,0.4,0.4,0.9,0.6,1.2c0.2,0.3,0.4,0.7,0.5,0.9c0.3,0.5,0.5,0.8,0.5,0.8s-0.3-0.2-0.7-0.5c-0.5-0.4-1.1-0.9-1.8-1.7    c-0.3-0.4-0.7-0.9-1-1.4s-0.6-1.1-0.8-1.8c-0.1-0.3-0.2-0.7-0.3-1c-0.1-0.4-0.2-0.7-0.2-1.1c-0.1-0.7-0.1-1.5,0-2.3    c0.2-1.5,0.7-3,1.3-4.2s1.4-2.2,2.1-2.9C151.8,87.6,153,87,153,87z" />
	</g>
	<line class="st7" x1="158.4" y1="98.9" x2="151.1" y2="104.9" />
	<g>
		<path d="M155.8,104.1c0,0,0.6,2.7,1.5,6.9c0.5,2,1,4.4,1.6,7c0.3,1.3,0.7,2.6,1,3.9c0.3,1.4,0.5,2.8,0.5,4.2    c0.1,2.9-0.5,5.7-1.4,8.2s-2.1,4.6-3.3,6.3s-2.4,2.9-3.2,3.8c-0.8,0.8-1.3,1.3-1.3,1.3s0.5-0.5,1.3-1.3c0.8-0.9,1.9-2.2,3-3.9    s2.3-3.8,3.1-6.3c0.8-2.4,1.4-5.2,1.3-8c0-1.4-0.2-2.7-0.5-4.1c-0.3-1.3-0.6-2.7-0.9-3.9c-0.6-2.6-1.1-5-1.4-7.1    C156.1,106.9,155.8,104.1,155.8,104.1z" />
	</g>
	<g>
		<path d="M157.6,103.7c0,0,0.5,1.4,1.1,3.7c0.3,1.1,0.6,2.4,1,3.8c0.3,1.4,0.7,2.9,1,4.4s0.6,3,0.7,4.5c0.2,1.4,0.3,2.8,0.4,3.9    c0,0.6,0.1,1.1,0,1.6c0,0.5,0,0.9,0,1.2c-0.1,0.7-0.1,1.1-0.1,1.1s0-0.4,0-1.1c0-0.3-0.1-0.7-0.1-1.2s-0.1-1-0.2-1.6    c-0.1-0.6-0.2-1.2-0.3-1.8c-0.1-0.6-0.2-1.3-0.3-2c-0.2-1.4-0.5-2.9-0.8-4.4c-0.6-3-1.2-6-1.6-8.2    C157.9,105.2,157.6,103.7,157.6,103.7z" />
	</g>
	<path class="st1" d="M170.2,95" />
	<path class="st7" d="M168.9,95.6l-4.7,6.3c0,0-1.9,0.6-3.5-1.8" />
	<path class="st7" d="M182.2,89.1l-3.9,8.1c0,0-1.2,1.1-2.8-1.3" />
	<path class="st7" d="M175.2,93.3l-3.9,6c0,0-1.9,0.6-3.5-1.8" />
	<g>
		<path d="M150.7,57.8c0,0,0-0.1,0.1-0.3s0.3-0.4,0.5-0.6c0.5-0.5,1.2-1.1,2.2-1.6c0.9-0.6,2.1-1.2,3.4-1.7c0.6-0.3,1.3-0.5,2-0.8    c0.7-0.2,1.4-0.5,2.1-0.7c0.7-0.2,1.4-0.4,2.1-0.5c0.7-0.2,1.4-0.3,2.1-0.4c1.3-0.2,2.6-0.3,3.7-0.3c0.5,0,1,0.1,1.5,0.1    c0.4,0.1,0.8,0.1,1.1,0.2c0.3,0.1,0.6,0.2,0.7,0.2c0.2,0.1,0.2,0.1,0.2,0.1s-0.4,0-1,0.1s-1.5,0.2-2.5,0.4s-2.2,0.5-3.5,0.8    c-0.6,0.2-1.3,0.4-2,0.5c-0.7,0.2-1.3,0.4-2,0.6c-0.7,0.2-1.4,0.4-2,0.6c-0.7,0.2-1.3,0.4-2,0.6c-1.3,0.4-2.4,0.8-3.5,1.1    c-1,0.3-1.8,0.6-2.4,0.9c-0.3,0.1-0.5,0.3-0.6,0.4C150.7,57.7,150.7,57.8,150.7,57.8z" />
	</g>
	<g>
		<path d="M168.3,51.1c0,0,0.2-0.1,0.6-0.2c0.4-0.1,1-0.2,1.7-0.1c0.7,0.1,1.7,0.3,2.6,0.9c0.9,0.6,1.8,1.6,2.6,2.8    c0.7,1.2,1.3,2.5,1.9,3.9c0.6,1.4,1.2,2.9,1.8,4.5c0.5,1.6,1.1,3.2,1.6,4.9c0.5,1.7,1,3.4,1.5,5.2c0.2,0.9,0.4,1.8,0.6,2.6    l0.1,0.7l0.1,0.3v0.2v0.1V77l0,0c0,0.1,0,0.2,0,0.4c0,0.2,0,0.3,0,0.5c0,0.3-0.1,0.5-0.1,0.8c-0.4,1.9-1.1,3.5-1.9,5    c-0.7,1.5-1.5,2.9-2.3,4.2c-0.8,1.3-1.6,2.5-2.3,3.6c-1.5,2.2-2.9,3.8-3.9,5c-1,1.1-1.6,1.7-1.6,1.7s0.6-0.7,1.4-1.9    c0.9-1.2,2.1-3.1,3.4-5.3c1.3-2.3,2.7-5,4-8c0.6-1.5,1.2-3.1,1.5-4.6c0-0.2,0-0.4,0.1-0.5c0-0.1,0-0.1,0-0.2c0,0,0-0.2,0-0.3    l-0.1-0.5l-0.2-0.6c-0.2-0.8-0.5-1.7-0.8-2.5c-0.5-1.7-1-3.4-1.6-5c-0.5-1.7-1-3.3-1.5-4.9s-1-3.1-1.5-4.5s-1-2.7-1.5-3.9    c-0.5-1.1-1.1-2-1.9-2.7c-0.7-0.7-1.5-1-2.1-1.3c-0.7-0.2-1.2-0.3-1.6-0.3C168.5,51.1,168.3,51.1,168.3,51.1z" />
	</g>
	<g>
		<path d="M157.9,53.6c0,0,0-0.1,0.1-0.2c0.1-0.2,0.2-0.4,0.5-0.6c0.4-0.5,1.1-1,2-1.6s2-1.1,3.1-1.6c1.2-0.5,2.5-1,3.8-1.3    c1.3-0.4,2.6-0.6,3.9-0.8c1.3-0.2,2.4-0.2,3.5-0.1c1,0,1.9,0.2,2.4,0.4c0.3,0.1,0.5,0.2,0.7,0.2c0.1,0.1,0.2,0.1,0.2,0.1    s-0.3,0-0.9,0.1c-0.6,0.1-1.4,0.2-2.4,0.4c-0.5,0.1-1,0.2-1.5,0.3s-1.1,0.3-1.7,0.4c-1.2,0.3-2.5,0.6-3.7,1    c-1.3,0.4-2.5,0.7-3.7,1.1c-1.2,0.4-2.3,0.7-3.2,1s-1.7,0.6-2.2,0.9c-0.3,0.1-0.5,0.2-0.6,0.3C157.9,53.5,157.9,53.6,157.9,53.6z" />
	</g>
	<g>
		<path d="M174.1,47.5c0,0,0.2-0.1,0.6-0.2s0.9-0.2,1.7-0.1c0.7,0.1,1.6,0.3,2.5,0.9c0.9,0.6,1.8,1.5,2.6,2.6c0.4,0.6,0.7,1.1,1,1.8    s0.6,1.3,0.9,2c0.6,1.4,1.2,2.9,1.7,4.4s1.1,3.1,1.6,4.8c0.5,1.6,1,3.3,1.5,5c0.2,0.8,0.4,1.7,0.6,2.6l0.3,1.3l0.1,0.7v0.1v0.1    l0,0v0.2c0,0.1,0,0.3,0,0.4c0,1.1-0.2,2-0.5,2.9c-0.3,0.8-0.5,1.7-0.9,2.4c-0.6,1.5-1.3,3-2,4.3s-1.4,2.6-2,3.7    c-1.3,2.2-2.5,4-3.3,5.3c-0.8,1.2-1.3,1.9-1.3,1.9s0.4-0.8,1.1-2.1c0.7-1.3,1.6-3.3,2.7-5.6c1.1-2.3,2.3-5.1,3.4-8.1    c0.3-0.7,0.5-1.5,0.7-2.3s0.3-1.6,0.3-2.2c0-0.1,0-0.1,0-0.2v-0.2l0,0l0,0c0,0.1,0,0,0,0v-0.1l-0.2-0.6l-0.3-1.2    c-0.2-0.8-0.5-1.6-0.7-2.5c-0.5-1.7-1-3.3-1.5-4.9s-1-3.2-1.5-4.8c-0.5-1.5-1-3-1.5-4.4c-0.2-0.7-0.5-1.4-0.7-2s-0.5-1.3-0.8-1.8    c-0.5-1.1-1.2-1.9-1.8-2.6c-0.7-0.6-1.4-1-2.1-1.2c-0.6-0.2-1.2-0.3-1.6-0.3C174.3,47.5,174.1,47.5,174.1,47.5z" />
	</g>
	<g>
		<path d="M157.8,98.3c0,0-0.6,0.2-1.5,0.3c-0.4,0.1-0.9,0.2-1.4,0.3c-0.3,0-0.5,0.2-0.8,0.2c-0.3,0.1-0.5,0.2-0.8,0.3    c-0.3,0.1-0.5,0.2-0.7,0.3c-0.1,0.1-0.2,0.1-0.4,0.2c-0.1,0.1-0.2,0.1-0.3,0.2c-0.2,0.1-0.4,0.3-0.5,0.5s-0.3,0.4-0.4,0.5    c-0.1,0.2-0.2,0.4-0.2,0.6c-0.1,0.2-0.1,0.3-0.1,0.5c-0.1,0.3-0.1,0.4-0.1,0.4s0-0.2-0.1-0.4c0-0.1-0.1-0.3-0.1-0.5s0-0.5,0.1-0.7    s0.2-0.6,0.3-0.8c0.2-0.2,0.3-0.6,0.6-0.8c0.2-0.2,0.5-0.4,0.8-0.6s0.6-0.3,0.9-0.4c0.6-0.2,1.2-0.3,1.8-0.4c0.6,0,1.1,0,1.6,0    C157.3,98,157.8,98.3,157.8,98.3z" />
	</g>
	<g>
		<path d="M168.8,95c0,0-0.5,0.3-1.3,0.6c-0.4,0.2-0.8,0.4-1.3,0.6c-0.4,0.2-0.9,0.5-1.4,0.8c-0.2,0.2-0.4,0.3-0.6,0.5    c-0.1,0.1-0.2,0.2-0.3,0.2l-0.2,0.3c-0.2,0.2-0.3,0.4-0.4,0.6c-0.1,0.2-0.2,0.4-0.2,0.6s-0.1,0.4-0.1,0.6s0,0.3,0,0.5    c0,0.3,0,0.4,0,0.4s-0.1-0.1-0.2-0.4c0-0.1-0.2-0.3-0.2-0.5s-0.1-0.4-0.1-0.7c0-0.2,0-0.5,0.2-0.8c0.1-0.3,0.2-0.6,0.4-0.8    c0.2-0.3,0.4-0.5,0.6-0.7c0.2-0.2,0.5-0.4,0.7-0.6c0.5-0.3,1-0.6,1.5-0.8c0.5-0.2,1-0.3,1.4-0.4C168.2,95,168.8,95,168.8,95z" />
	</g>
	<line class="st1" x1="129.4" y1="146.1" x2="109.5" y2="181.1" />
	<g>
		<path d="M168,96.9c0,0,0.4-0.8,1.1-1.8c0.7-1,1.7-2.3,2.7-3.5c1.1-1.2,2.2-2.3,3-3.2c0.4-0.4,0.8-0.8,1-1c0.2-0.3,0.4-0.4,0.4-0.4    s-0.1,0.2-0.2,0.6c-0.1,0.3-0.4,0.8-0.7,1.4c-0.6,1.1-1.6,2.4-2.6,3.6c-1.1,1.2-2.2,2.3-3.2,3.1C168.7,96.5,168,96.9,168,96.9z" />
	</g>
</g>
<g>
	<line class="st8" x1="153.1" y1="35.3" x2="231" y2="35.3" />
	<g>
		<line class="st9" x1="153.1" y1="35.3" x2="216.2" y2="35.3" />
		<g>
			<polygon points="231,35.3 210.1,43.9 215.1,35.3 210.1,26.8    " />
		</g>
	</g>
</g>
</svg>
