<?xml version="1.0" encoding="UTF-8"?>
<!-- Generator: Adobe Illustrator 25.2.1, SVG Export Plug-In . SVG Version: 6.00 Build 0)  -->
<svg xmlns="http://www.w3.org/2000/svg" xmlns:xlink="http://www.w3.org/1999/xlink" version="1.1" id="Lager_1" x="0px" y="0px" width="353.805px" height="226.772px" viewBox="0 0 353.805 226.772" style="enable-background:new 0 0 353.805 226.772;" xml:space="preserve"><rect fill="#FFFFFF" x="0px" y="0px" width="353.805px" height="226.772px" />
<style type="text/css">
	.st0{fill:url(#SVGID_1_);}
	.st1{fill:none;stroke:#000000;}
	.st2{fill:none;stroke:#000000;stroke-width:2;stroke-linecap:round;}
	.st3{fill:none;stroke:#000000;stroke-width:1.6;stroke-linecap:round;}
	.st4{fill:none;stroke:#000000;stroke-width:0.75;stroke-linecap:round;}
	.st5{fill:#FFFFFF;}
	.st6{fill:none;stroke:#000000;stroke-width:3;}
	.st7{fill:url(#SVGID_2_);}
	.st8{fill:none;stroke:#000000;stroke-linecap:round;}
</style>
<g>
	<linearGradient id="SVGID_1_" gradientUnits="userSpaceOnUse" x1="250.9691" y1="214.1484" x2="261.8971" y2="187.7704">
		<stop offset="0" style="stop-color:#FFFFFF" />
		<stop offset="1" style="stop-color:#EDEDED" />
	</linearGradient>
	<polygon class="st0" points="282.714,218.85 293.546,178.635 270.971,176.7 246.219,167.685 246.695,169.411 237.958,182.245   220.714,205.85  " />
	<path class="st1" d="M251.554,169.067c0,0,14.939,10.114,39.145,9.163" />
	<path class="st2" d="M224.381,202.85c0-1,25.462-37.012,26.333-41.917c0.872-4.905,13.835-70.131,13.835-70.131" />
	<path class="st2" d="M263.114,90.735c0,0-2.174-9.604,4.972-12.347" />
	<g>
		<path class="st2" d="M272.675,88.14l25.788-12.968c1.393-0.7,3.732-0.84,5.198-0.309l17.545,6.347    c1.466,0.53,3.229,2.109,3.918,3.507l2.435,4.942" />
	</g>
	<path class="st2" d="M273.109,76.317l31.839-15.568c1.401-0.685,3.606-0.534,4.901,0.334l20.999,14.088   c1.295,0.869,2.958,2.703,3.697,4.075l2.253,4.187" />
	<path class="st3" d="M316.923,52.747l4.714-0.352c1.555-0.116,3.706,0.713,4.781,1.842l10.795,11.343   c1.075,1.129,2.433,3.236,3.018,4.681l1.557,3.846" />
	<path class="st2" d="M269.04,77.764l37.107-26.506c1.277-0.894,3.345-0.863,4.595,0.068l23.113,17.223   c1.25,0.932,2.87,2.821,3.6,4.198l3.221,6.078" />
	<path class="st2" d="M289.813,100.18c0,0,5.121-0.918,8.678-6.291" />
	<path class="st2" d="M296.973,93.021c0,0,7.835,3.112,16.833,1.663" />
	<path class="st2" d="M310.727,93.225c0,0,11.896,15.439,22.091,4.013l-5.366-6.929" />
	<path class="st2" d="M333.634,98.879c0,0,5.51,1.321,8.657-5.776l-5.619-7.674" />
	<path class="st2" d="M340.959,79.897l4.32,7.974c0,0-1.589,3.089-2.902,3.322" />
	<path class="st2" d="M311.881,98.35l4,9.667c0,0,3,2.167,7.5,2.167" />
	<line class="st2" x1="320.547" y1="112.183" x2="331.047" y2="104.183" />
	<path class="st2" d="M330.842,100.619c0,0,0.916,4.239,1.299,5.868" />
	<g>
		<path d="M294.47,99.781c0.521,0.464,0.668,1.21,0.78,1.873c0.077,0.683,0.083,1.375,0.015,2.052    c-0.109,1.364-0.445,2.681-0.835,3.969c-0.412,1.282-0.894,2.537-1.475,3.745c-0.552,1.221-1.23,2.381-1.948,3.513    c0.366-1.296,0.801-2.551,1.225-3.805c0.217-0.626,0.432-1.248,0.633-1.876c0.225-0.62,0.417-1.248,0.611-1.875    c0.4-1.248,0.763-2.507,1.02-3.779c0.13-0.637,0.227-1.276,0.268-1.922C294.809,101.033,294.794,100.366,294.47,99.781z" />
	</g>
	<g>
		<path d="M291.223,111.135c0.369,4.738,0.597,9.483,0.776,14.23c0.177,4.747,0.238,9.498,0.249,14.254    c-0.023,2.378-0.093,4.757-0.238,7.143c-0.113,1.181-0.144,2.419-0.568,3.618c-0.416,1.178-1.027,2.247-1.737,3.223    c-1.401,1.97-3.063,3.703-4.805,5.333c-1.789,1.57-3.614,3.138-5.717,4.266c1.976-1.317,3.715-2.943,5.377-4.619    c1.654-1.681,3.232-3.456,4.508-5.411c0.645-0.971,1.184-2.006,1.554-3.064c0.364-1.053,0.384-2.229,0.48-3.402    c0.113-2.354,0.15-4.723,0.147-7.093c0.073-4.739-0.003-9.485-0.016-14.231l-0.034-7.121L291.223,111.135z" />
	</g>
	<g>
		<path d="M274.952,160.489c2.197-1.362,4.458-2.523,6.695-3.724c1.128-0.582,2.235-1.195,3.343-1.804    c1.098-0.629,2.207-1.233,3.224-2.028c-0.741,1.071-1.755,1.935-2.803,2.685c-1.049,0.761-2.16,1.425-3.296,2.03    C279.832,158.837,277.46,159.85,274.952,160.489z" />
	</g>
	<g>
		<path d="M313.706,102.76c1.432,3.714,2.563,7.513,3.606,11.336c0.506,1.916,0.995,3.836,1.417,5.775    c0.428,1.935,0.82,3.888,1.03,5.87c-0.59-1.898-1.231-3.772-1.786-5.673c-0.575-1.895-1.105-3.802-1.627-5.712    C315.335,110.527,314.379,106.683,313.706,102.76z" />
	</g>
	<path class="st2" d="M341.142,72.511l4.726,8.88c0,0-0.987,1.436-2.154,1.436" />
	<path class="st2" d="M346.586,83.007c0,0,4.191,0.719,0.826,12.649" />
	<g>
		<path d="M347.954,96.167c1.271,2.489,2.056,5.215,2.415,8.035c0.169,1.416,0.175,2.86,0.02,4.319    c-0.224,1.449-0.602,2.921-1.388,4.263c-0.17,0.344-0.452,0.63-0.676,0.945c-0.237,0.32-0.479,0.61-0.725,0.846    c-0.486,0.513-0.981,1.013-1.497,1.492c-1.047,0.939-2.098,1.867-3.228,2.694c-2.238,1.673-4.608,3.168-7.162,4.298    c2.1-1.829,4.159-3.639,6.158-5.494c0.982-0.947,1.975-1.87,2.907-2.852c0.466-0.49,0.943-0.966,1.39-1.469l0.336-0.371    l0.265-0.366c0.165-0.252,0.383-0.462,0.512-0.742c1.25-2.11,1.536-4.804,1.536-7.46    C348.762,101.626,348.436,98.906,347.954,96.167z" />
	</g>
	<g>
		<path d="M336.589,119.808c-1.507,5.044-4.036,9.75-6.92,14.162c-2.903,4.417-6.288,8.51-9.986,12.289    c-0.936,0.933-1.922,1.815-2.88,2.724l-1.45,1.35l-1.525,1.266l-3.075,2.496c-1.066,0.778-2.142,1.543-3.221,2.3l-1.615,1.139    c-0.55,0.363-1.116,0.702-1.679,1.044l-3.38,2.041c-2.293,1.288-4.672,2.425-7.03,3.559c2.147-1.525,4.378-2.881,6.507-4.39    l3.166-2.293l1.583-1.139l1.524-1.218c1.013-0.814,2.03-1.621,3.056-2.414l2.931-2.56l1.472-1.269l1.406-1.342    c0.93-0.902,1.883-1.78,2.793-2.701c3.651-3.676,7.023-7.619,10.13-11.771C331.468,128.906,334.315,124.535,336.589,119.808z" />
	</g>
	<line class="st2" x1="298.599" y1="157.995" x2="284.477" y2="215.676" />
	<g>
		<path d="M325.919,91.593c-0.46,0.647-0.861,1.301-1.041,1.963c-0.18,0.662-0.1,1.279,0.262,1.816    c0.368,0.585,0.867,1.192,1.336,1.763c0.489,0.572,0.995,1.134,1.567,1.69c-0.784-0.197-1.487-0.629-2.111-1.13    c-0.633-0.516-1.166-1.081-1.641-1.795c-0.249-0.374-0.389-0.845-0.427-1.308c-0.019-0.471,0.093-0.928,0.29-1.318    C324.544,92.488,325.193,91.928,325.919,91.593z" />
	</g>
	<g>
		<path d="M334.937,86.405c-0.559,0.22-1.046,0.581-1.31,1.038c-0.265,0.456-0.302,0.98-0.194,1.501    c0.121,0.525,0.334,1.013,0.577,1.593l0.627,1.661c0.408,1.077,0.913,2.051,1.926,2.25c1.025,0.212,2.226-0.1,3.387-0.373    c-1.009,0.641-2.136,1.232-3.508,1.144c-0.686-0.043-1.374-0.445-1.806-0.972c-0.437-0.53-0.695-1.12-0.931-1.688    c-0.211-0.577-0.398-1.141-0.583-1.701c-0.167-0.535-0.417-1.157-0.461-1.817c-0.066-0.654,0.12-1.391,0.576-1.894    C333.702,86.657,334.331,86.413,334.937,86.405z" />
	</g>
	<path class="st4" d="M339.708,80.764c0,0-1.033,0.85-1.843,2.169" />
	<g>
		<path d="M341.118,89.333c0.396-0.552,0.848-0.931,1.286-1.316l0.661-0.551c0.21-0.192,0.442-0.363,0.657-0.628    c0.071,0.339-0.031,0.702-0.199,0.991c-0.161,0.302-0.391,0.545-0.635,0.759C342.386,88.998,341.802,89.297,341.118,89.333z" />
	</g>
	<g>
		<path d="M297.623,98.987c0.278,0.236,0.386,0.616,0.457,0.965c0.072,0.358,0.087,0.721,0.094,1.084    c-0.026,0.72-0.118,1.441-0.291,2.131c-0.314,1.396-0.811,2.732-1.378,4.025c-0.573,1.292-1.218,2.547-1.947,3.751    c-0.7,1.22-1.52,2.369-2.373,3.491c0.516-1.317,1.104-2.585,1.682-3.853c0.291-0.633,0.594-1.258,0.869-1.896    c0.3-0.626,0.586-1.257,0.854-1.895c0.574-1.259,1.093-2.537,1.544-3.831c0.231-0.648,0.416-1.304,0.555-1.971    C297.808,100.33,297.943,99.614,297.623,98.987z" />
	</g>
</g>
<g>
	<line class="st5" x1="251.554" y1="115.832" x2="165.353" y2="115.832" />
	<g>
		<line class="st6" x1="251.554" y1="115.832" x2="180.18" y2="115.832" />
		<g>
			<polygon points="165.353,115.832 186.246,107.295 181.288,115.832 186.246,124.368    " />
		</g>
	</g>
</g>
<g>
	<g id="Färg_2_">

			<linearGradient id="SVGID_2_" gradientUnits="userSpaceOnUse" x1="28.6358" y1="549.7552" x2="36.4672" y2="538.127" gradientTransform="matrix(1 0 0 1 0 -369.1656)">
			<stop offset="0" style="stop-color:#FFFFFF" />
			<stop offset="1" style="stop-color:#F0F0F1" />
		</linearGradient>
		<polygon class="st7" points="52.711,202.247 65.741,178.231 73.132,165.413 60.725,163.559 44.386,155.412 34.341,146.474    26.95,137.352 1.774,163.07   " />
	</g>
	<path class="st2" d="M12.13,152.929c0,0,19.451-19.466,22.118-24.799s3.453-16.227,4.453-20.227s10.258-28.952,14.591-31.619   s7.334-3.595,11.303-10.033c3.756-6.092,8.011-6.004,13.682-5.765c7.043,0.297,10.015,4.131,12.015,5.131" />
	<g>
		<path d="M99.533,68.947l-14.241-2.329l14.426,0.338c0.553,0.013,0.992,0.472,0.979,1.026c-0.013,0.553-0.472,0.992-1.026,0.979    C99.626,68.959,99.576,68.953,99.533,68.947z" />
	</g>
	<g>
		<path d="M67.959,78.284c0,0,0.352,0.148,0.967,0.406c0.608,0.262,1.487,0.605,2.519,1.024c0.529,0.184,1.083,0.418,1.682,0.625    c0.596,0.218,1.228,0.427,1.88,0.638c0.645,0.237,1.336,0.387,2.02,0.594c0.687,0.196,1.397,0.328,2.098,0.504    c0.709,0.104,1.416,0.267,2.116,0.339c0.7,0.037,1.392,0.205,2.061,0.171c0.668-0.01,1.327,0.07,1.938-0.012    c0.31-0.022,0.611-0.043,0.902-0.063c0.298,0.001,0.577-0.038,0.842-0.096c0.533-0.102,1.035-0.175,1.486-0.24    c0.437-0.118,0.818-0.222,1.131-0.307c0.639-0.166,1.024-0.25,1.024-0.25s-0.299,0.229-0.857,0.611    c-0.282,0.184-0.619,0.432-1.034,0.664c-0.428,0.195-0.918,0.416-1.466,0.634c-0.538,0.265-1.17,0.357-1.828,0.526    c-0.659,0.19-1.371,0.233-2.111,0.293c-0.741,0.091-1.501,0.024-2.279-0.001c-0.777-0.034-1.545-0.204-2.324-0.31    c-0.756-0.199-1.527-0.353-2.25-0.607c-0.727-0.244-1.434-0.506-2.094-0.809c-0.674-0.27-1.291-0.608-1.872-0.926    c-0.592-0.297-1.107-0.662-1.595-0.965C68.991,79.446,67.959,78.284,67.959,78.284z" />
	</g>
	<path class="st2" d="M100.292,69.618c0,0,0.667,3.667-1.333,5.333" />
	<path class="st2" d="M57.959,109.284c2.667,2,5.667,5.333,8,5.333c2.333,0,7.333-2.667,10-1c0,0,10.167-3.517,13.834-0.517   c0,0,16.894-3.898,15.493,10.168" />
	<path class="st2" d="M70.959,129.951c0,0,15.363,5.032,28.015-5.317" />
	<path class="st2" d="M79.874,83.228c0,0-3.248,18.056,1.752,26.39" />
	<g>
		<path d="M72.959,90.618c0,0-0.187,1.565-0.828,3.806c-0.317,1.121-0.733,2.415-1.263,3.77c-0.515,1.361-1.142,2.783-1.838,4.174    c-0.697,1.39-1.486,2.738-2.284,3.964c-0.806,1.223-1.644,2.312-2.414,3.199c-0.391,0.441-0.773,0.825-1.107,1.164    c-0.32,0.351-0.66,0.608-0.917,0.833c-0.527,0.441-0.837,0.675-0.837,0.675s0.188-0.351,0.534-0.932    c0.366-0.565,0.808-1.426,1.389-2.402c0.265-0.509,0.553-1.056,0.878-1.618c0.303-0.578,0.606-1.197,0.956-1.812    c0.644-1.268,1.33-2.62,2.017-3.972c0.687-1.357,1.374-2.715,2.018-3.987c0.65-1.274,1.255-2.468,1.807-3.482    C72.141,91.959,72.959,90.618,72.959,90.618z" />
	</g>
	<g>
		<path d="M86.959,109.618c0.496-2.472,1.226-4.877,1.971-7.268l1.192-3.56l1.28-3.528l0.092,0.887l-0.742-1.182    c-0.238-0.402-0.442-0.831-0.664-1.247c-0.111-0.208-0.189-0.439-0.284-0.658c-0.089-0.223-0.187-0.442-0.267-0.67    c-0.133-0.473-0.296-0.929-0.357-1.432c-0.032-0.249-0.095-0.488-0.099-0.746l-0.028-0.765l0.065-0.777    c0.047-0.259,0.104-0.518,0.162-0.775c0.161-0.508,0.355-1.014,0.668-1.46c0.142-0.23,0.319-0.439,0.502-0.643    c0.2-0.21,0.362-0.373,0.674-0.592l-0.308,1.149c-0.249-0.552-0.477-1.114-0.677-1.69c-0.189-0.582-0.339-1.179-0.439-1.79    c-0.207-1.216-0.211-2.502,0.136-3.714c0.332-1.214,1.01-2.307,1.884-3.141c0.871-0.837,1.924-1.446,3.036-1.777    c-0.996,0.588-1.849,1.366-2.505,2.247c-0.655,0.884-1.076,1.894-1.236,2.93c-0.142,1.043-0.057,2.103,0.217,3.135    c0.127,0.517,0.324,1.02,0.512,1.524c0.206,0.501,0.438,0.992,0.689,1.478l0.296,0.572l-0.603,0.576    c-0.046,0.044-0.203,0.191-0.296,0.314c-0.103,0.133-0.209,0.269-0.288,0.423c-0.18,0.295-0.292,0.63-0.399,0.965l-0.099,0.528    L91.01,89.48l0.034,0.563c0.002,0.187,0.063,0.38,0.089,0.569c0.042,0.382,0.209,0.759,0.295,1.143    c0.063,0.19,0.145,0.379,0.216,0.569c0.078,0.188,0.135,0.382,0.23,0.567l0.277,0.557c0.097,0.184,0.172,0.376,0.287,0.554    l0.651,1.083l0.276,0.459l-0.184,0.428l-1.476,3.438l-1.525,3.421C89.14,105.105,88.07,107.361,86.959,109.618z" />
	</g>
	<path class="st2" d="M101.441,77.118c0,0,7.397,3.414,8.852,9.166c1.19,4.705,2,28-0.333,33.667" />
	<g>
		<path d="M98.292,127.951c0,0-0.967,0.738-2.496,1.625c-0.76,0.454-1.661,0.945-2.636,1.443c-0.974,0.501-2.022,1.009-3.078,1.493    c-2.113,0.966-4.266,1.821-5.87,2.48c-0.408,0.161-0.755,0.329-1.089,0.46c-0.33,0.137-0.582,0.284-0.821,0.392    c-0.243,0.105-0.368,0.235-0.496,0.31c-0.118,0.084-0.181,0.129-0.181,0.129s0.032-0.067,0.092-0.192    c0.071-0.111,0.138-0.36,0.322-0.546c0.173-0.196,0.373-0.483,0.65-0.724c0.271-0.245,0.574-0.556,0.937-0.818    c0.357-0.273,0.743-0.589,1.176-0.857c0.428-0.281,0.876-0.593,1.365-0.856c0.485-0.271,0.976-0.576,1.5-0.829    c0.516-0.27,1.05-0.523,1.586-0.77c1.072-0.493,2.171-0.922,3.214-1.288c1.041-0.371,2.031-0.669,2.894-0.886    C97.079,128.067,98.292,127.951,98.292,127.951z" />
	</g>
	<path class="st2" d="M113.626,86.951c0,0,5.667-1,7,9.667c1.333,10.667,1,15.333,1,22s-0.667,6.667-1.333,8.667   c-0.666,2-24.667,15-24.667,15" />
	<path class="st2" d="M123.292,99.618c0,0,4.333-2,6,5c1.667,7,3.333,13,2.667,18.333c-0.667,5.333,0,7-10.333,17   s-10.925,12.765-23.258,14.765" />
	<path class="st2" d="M97.326,155.284l-20.367,5c-5,5-14.333,24.667-19.667,32.667" />
	<path class="st2" d="M95.003,74.943c0.247,0.123,4.88,2.476,4.88,2.476" />
	<g>
		<path d="M72.95,144.451c0,0,0.97,0.629,2.476,1.345c0.751,0.362,1.642,0.735,2.611,1.073c0.484,0.172,0.99,0.324,1.508,0.462    c0.511,0.166,1.047,0.262,1.58,0.371c0.527,0.138,1.073,0.175,1.601,0.268c0.535,0.05,1.062,0.1,1.571,0.147    c0.512,0.027,1.01,0.02,1.485,0.042c0.476,0.03,0.922-0.03,1.342-0.031c0.416-0.028,0.809-0.003,1.146-0.053    c0.343-0.03,0.643-0.057,0.889-0.079c0.498-0.036,0.791-0.044,0.791-0.044s-0.258,0.122-0.724,0.315    c-0.236,0.092-0.522,0.205-0.85,0.333c-0.328,0.141-0.716,0.218-1.139,0.324c-0.424,0.091-0.881,0.245-1.381,0.278    c-0.497,0.051-1.024,0.142-1.573,0.149c-0.547-0.014-1.12,0.028-1.695-0.035c-0.572-0.082-1.164-0.106-1.738-0.24    c-0.574-0.133-1.149-0.256-1.696-0.45c-0.558-0.156-1.077-0.396-1.58-0.616c-0.508-0.209-0.962-0.494-1.4-0.735    c-0.425-0.269-0.826-0.52-1.167-0.795C73.602,145.432,72.95,144.451,72.95,144.451z" />
	</g>
	<g>
		<path d="M52.45,129.951c0,0,0.152,0.251,0.438,0.67c0.283,0.421,0.715,1,1.269,1.658c0.548,0.662,1.223,1.399,1.999,2.128    c0.382,0.371,0.797,0.73,1.23,1.083c0.414,0.374,0.885,0.692,1.34,1.027c0.447,0.348,0.944,0.624,1.406,0.935    c0.486,0.275,0.964,0.546,1.427,0.808c0.474,0.243,0.947,0.449,1.387,0.668c0.437,0.228,0.884,0.361,1.279,0.534    c0.403,0.149,0.761,0.333,1.099,0.43c0.335,0.111,0.627,0.208,0.868,0.288c0.482,0.164,0.758,0.271,0.758,0.271    s-0.29-0.02-0.799-0.081c-0.255-0.033-0.565-0.072-0.92-0.117c-0.361-0.029-0.749-0.141-1.179-0.243    c-0.425-0.116-0.907-0.191-1.377-0.386c-0.475-0.178-0.991-0.339-1.497-0.57c-0.495-0.251-1.031-0.472-1.535-0.769    c-0.492-0.316-1.021-0.596-1.497-0.954c-0.473-0.362-0.959-0.707-1.387-1.108c-0.452-0.374-0.849-0.793-1.229-1.2    c-0.396-0.391-0.708-0.836-1.033-1.225c-0.295-0.416-0.583-0.8-0.804-1.186c-0.479-0.746-0.764-1.434-0.975-1.899    C52.522,130.237,52.45,129.951,52.45,129.951z" />
	</g>
	<g>
		<path d="M65.357,142.121c0,0,0.886,0.155,2.215,0.388c1.324,0.24,3.1,0.656,4.783,1.41c0.831,0.392,1.652,0.832,2.337,1.376    c0.358,0.249,0.665,0.542,0.947,0.827c0.302,0.262,0.515,0.586,0.735,0.854c0.229,0.261,0.357,0.567,0.504,0.803    c0.152,0.235,0.231,0.471,0.301,0.659c0.131,0.375,0.206,0.59,0.206,0.59s-0.138-0.179-0.38-0.493    c-0.115-0.157-0.25-0.348-0.442-0.539c-0.194-0.188-0.365-0.433-0.621-0.641c-0.253-0.209-0.49-0.464-0.799-0.675    c-0.293-0.227-0.61-0.452-0.956-0.663c-0.328-0.234-0.715-0.407-1.078-0.626c-0.379-0.196-0.767-0.39-1.167-0.562    c-0.788-0.372-1.615-0.671-2.386-0.974c-0.783-0.291-1.515-0.563-2.142-0.796c-0.629-0.237-1.153-0.466-1.512-0.639    C65.552,142.239,65.357,142.121,65.357,142.121z" />
	</g>
	<path class="st8" d="M28.975,140.276c0,0,18.069,24.405,40.128,24.874" />
	<g>
		<path d="M89.49,66.713c0,0-0.416,0.03-1.144,0.083c-0.726,0.051-1.766,0.132-2.994,0.31c-0.614,0.078-1.278,0.178-1.954,0.342    c-0.336,0.083-0.678,0.183-0.991,0.321c-0.306,0.121-0.61,0.362-0.596,0.471c-0.035,0.074,0.158,0.365,0.44,0.582    c0.239,0.198,0.647,0.457,0.963,0.657c0.649,0.397,1.386,0.733,2.127,0.936c0.748,0.204,1.52,0.237,2.28,0.168    c0.764-0.076,1.503-0.3,2.277-0.499c0.718-0.181,1.403-0.46,2.091-0.69c0.683-0.227,1.339-0.434,1.956-0.591    c0.618-0.151,1.188-0.287,1.708-0.325c0.516-0.055,0.97-0.054,1.339-0.044c0.371,0.026,0.658,0.06,0.851,0.108    c0.192,0.039,0.295,0.059,0.295,0.059s-0.423-0.015-1.139,0.054c-0.358,0.048-0.789,0.115-1.271,0.246    c-0.482,0.13-1.022,0.286-1.599,0.496c-1.173,0.406-2.412,1.086-3.987,1.597c-0.729,0.216-1.543,0.465-2.412,0.569    c-0.869,0.105-1.789,0.039-2.647-0.208c-0.864-0.248-1.652-0.628-2.377-1.126c-0.364-0.256-0.641-0.441-1.016-0.762    c-0.167-0.15-0.332-0.312-0.47-0.533c-0.131-0.212-0.267-0.528-0.177-0.874c0.089-0.338,0.321-0.538,0.512-0.667    c0.199-0.132,0.396-0.217,0.59-0.288c0.387-0.139,0.761-0.219,1.124-0.284c0.727-0.125,1.41-0.18,2.039-0.217    C87.828,66.527,89.49,66.713,89.49,66.713z" />
	</g>
	<g>
		<path d="M104.538,122.437c0,0-0.115,0.015-0.324,0.065c-0.209,0.045-0.518,0.126-0.917,0.193c-0.795,0.143-1.96,0.285-3.371,0.185    c-1.406-0.09-3.058-0.451-4.684-1.209c-0.388-0.194-0.783-0.39-1.182-0.59c-0.346-0.155-0.739-0.288-1.12-0.39    c-0.766-0.198-1.574-0.193-2.245,0.093c-0.67,0.235-1.249,0.864-1.28,1.367c-0.013,0.233,0.034,0.335,0.225,0.451    c0.432,0.206,0.716,0.295,1.139,0.423c1.589,0.476,3.166,0.776,4.501,1.035c1.341,0.252,2.468,0.431,3.26,0.523    c0.396,0.044,0.708,0.072,0.923,0.08c0.215-0.005,0.329-0.008,0.329-0.008s-0.446,0.144-1.258,0.191    c-0.809,0.057-1.966,0.065-3.349-0.024c-1.386-0.09-2.988-0.247-4.721-0.638c-0.404-0.092-0.958-0.259-1.33-0.42    c-0.311-0.133-0.603-0.35-0.804-0.67c-0.199-0.316-0.277-0.689-0.257-1.021c0.131-1.335,1.1-2.157,2.094-2.584    c1.032-0.417,2.154-0.367,3.117-0.099c0.488,0.135,0.929,0.334,1.376,0.565c0.38,0.216,0.754,0.43,1.123,0.64    c0.725,0.382,1.447,0.727,2.169,0.96c0.716,0.248,1.415,0.434,2.072,0.56c1.315,0.256,2.452,0.309,3.249,0.316    c0.401,0,0.717,0,0.932-0.001C104.424,122.427,104.538,122.437,104.538,122.437z" />
	</g>
	<path class="st4" d="M104.433,123.767c0,0-4.911,0.927-10.914,0.198" />
</g>
</svg>
