<?xml version="1.0" encoding="UTF-8"?>
<!DOCTYPE svg PUBLIC "-//W3C//DTD SVG 1.1//EN" "http://www.w3.org/Graphics/SVG/1.1/DTD/svg11.dtd">
<!-- Generator: Adobe Illustrator 14.0.0, SVG Export Plug-In . SVG Version: 6.00 Build 43363)  -->
<svg xmlns="http://www.w3.org/2000/svg" xmlns:xlink="http://www.w3.org/1999/xlink" version="1.1" x="0px" y="0px" width="255.118px" height="226.771px" viewBox="0 0 255.118 226.771" enable-background="new 0 0 255.118 226.771" xml:space="preserve"><rect fill="#FFFFFF" x="0px" y="0px" width="255.118px" height="226.771px" />
<g id="Lager_2">
	<linearGradient id="SVGID_1_" gradientUnits="userSpaceOnUse" x1="32.5645" y1="179.79" x2="64.5646" y2="157.5399">
		<stop offset="0" style="stop-color:#FFFFFF" />
		<stop offset="1" style="stop-color:#EDEDED" />
	</linearGradient>
	<path fill="url(#SVGID_1_)" d="M47.5,213.166l64.5-57.25c0,0-16-23.75-19.5-38.25s-1.5-9.75-1.5-9.75l-76.25,40.5   C14.75,148.416,17.75,202.166,47.5,213.166z" />
</g>
<g id="Lager_1">
	<g>
		<path d="M148.989,2.593c3,3.4,5.2,6.8,6.9,10.7c1.1,1.6,1.399,3.6,2.3,5.3c0.5,3.1,1.6,6.3,0.5,9.3c-1.1,6.101-2.2,12-2.6,18.4    c-0.601,0.399-1.5,0.5-1.7-0.4c-0.3-2.399,0.2-4.899,0.5-7.3c0.6-4.2,1.3-8.5,2.399-12.5c-0.8-8.3-4.399-15.5-9.899-21.7    c-2.101-1.8-5.4-2.7-8-1.3c-2.4,1.7-1.101,5-1.101,7.4l0.101,2.5c0.399-0.2,1-0.301,1.5,0c0.2,2.199-0.4,4.399-0.3,6.399    c-0.301,0.601,0.199,1.2-0.301,1.7c0.301,0.4,0,0.7,0,1.2h-0.1c-0.3,1-0.3,2-0.6,3c0.399,0.2,0.199,0.7,0.199,1.1    c-0.399,0.4-0.399,0.8-0.5,1.3l0.2,0.101c0.2,0.5-0.7,0.899-0.1,1.3c0.1,0.3-0.601,0.3-0.101,0.6c-0.1,0.301-0.6,0-0.199,0.4    c-0.2,0.6-0.7,0.7-0.301,1.3l-0.199,0.4l0.199,0.1c-0.1,0-0.199,0.101-0.199,0.2c0.1,0,0.1,0.1,0.199,0.1l-0.6,1l0.3,0.101    c-0.399,0.6-0.3,1.3-0.7,2l0.101,0.2l-0.2,0.199c0.6,0.5-0.4,1-0.1,1.601c0,0,0.1-0.3,0-0.5c-0.601,0.899-0.601,2-0.801,3.1    c0.4,0.101,0.301-0.6,0.4-0.8c0.2,0.3-0.2,0.8,0.2,0.7c-0.3,0.5,0.1,1.6-0.601,1.7l-0.199,0.5c0.1,0.199-0.2-0.7-0.4,0    c-0.1,0.1,0.2,0.3,0.3,0.3h0.2c0.2,0-0.1-0.101-0.1,0c0.1,0.2,0.3,0.3,0.1,0.6l-0.2-0.1c-0.2,0.1,0,0.399-0.2,0.5    c0.101-0.101-0.1-0.2-0.1-0.3c-0.1,0.5-0.8,1.199-0.2,1.699c-0.1,1.2-0.3,2.101-0.7,3.2c-0.6,2.2-0.699,4.9-2.6,6.5    c-0.2,0-0.7,0-0.7-0.399c2.4-7.7,4-15.9,5.3-23.601c1-4.1,1.301-8.3,1.7-12.5c-1.2-3.6-1.399-7.6-1.7-11.6    c0.601-2,1.601-4.101,3.601-5.101C142.989,0.193,146.489,0.593,148.989,2.593z" />
		<rect x="138.489" y="27.193" width="0.101" height="0.101" />
		<rect x="138.189" y="28.793" fill="#FFFFFF" width="0.1" height="0.1" />
		<path d="M252.789,36.593c2.2,3.9,1.601,9.4-1.199,12.8c-0.5,0.8-1.5,1.2-2,1.601c-1.101-0.101-2.101,0.8-3.2,0.3    c-0.9,0.899-2.101,0-3.101,0.6c-12.399,0.9-26,2.601-38.199,5.8l-3.601,0.7c0.2,0.7-0.5,1-1,1.101c-8.5,1.1-16.1,4.899-24.3,7    c-1.3,0.699-2.8,0.899-4.2,1.5c-3,0.699-5.6,2.199-8.7,2.8c-0.399,0-0.699-0.4-0.8-0.7c0.601-0.8,1.8-1.1,2.601-1.5    c6.6-2.5,13.5-4.4,20.199-6.8c-0.5-0.2-0.899,0.1-1.3,0.1l9.3-2.899c0.5-1,2-0.5,2.601-1.301c0-4.6-1-8.399-2.101-12.899    c-0.5-0.5-0.3-1.4-0.899-1.9c0-0.2,0-0.5-0.3-0.5c-1.101,1.7-0.7,4-0.301,5.9c0.2,1.3,0.2,2.899,0.9,4    c-0.2,0.899,0.4,1.399,0.6,2.2c0.4,0.8,0.7,1.699,1.601,2.199v0.301c-0.601,0-0.9-0.7-1.2-1c0.3-0.5-0.4-0.2-0.4-0.601    c-1.399-3.3-2.199-6.7-2.399-10.5v-1.7c-0.101,0.301-0.2,1-0.5,1c-0.101-1,0.399-1.5,0.5-2.5c0.399-0.1,0.2,0.4,0.3,0.5    c0.4-0.3,0.8-0.5,1.3-0.6c1.101,2.2,1.601,4.7,2.101,7.2c0.699,2.899,0.699,6,1.3,9.1c14.1-3.5,28.7-6.399,43.399-7.8    c0.101-0.2,0-0.5,0.101-0.7c-0.4-0.399-1.3-0.5-1.2-1.3c0.2-0.4,0.5-0.4,0.8-0.6c-0.5-3.101-1.2-6-2.2-8.9    c0.4-1.1,1.5-1.6,2.5-2.1l-0.8,0.399c2.7-0.6,5.2-2.2,8.101-1.7v0.2c-3.301,0.101-6,1-8.801,2.7c0.301,2.1,1.101,4.3,1.301,6.4    c0.1,1.199,0.6,2.399,0.6,3.699c1.7,1.4,4.1,0.9,6.1,1c0.301,0,0.801-0.3,1.101,0c0.899-0.3,2-0.899,2.6-1.699    c0.4-3.9-0.899-7.9-2.7-11.2c0.101-0.3,0.2-0.5,0.4-0.601c1.3,0.801,0.5,2.4,1.6,3.4c0.601,2.3,1.101,4.9,1.2,7.4    c1.3-1.301,1.3-3.4,1.5-5.301c-0.3-2.1-0.899-4.3-2.899-5.6c-0.601-0.5-1.5-0.8-2.2-0.6c-1.5-1.2-3.3-0.601-5-1.2    c-0.5,0.6-1-0.4-1.4,0c-1.8,0-3.5,0.3-5,0.7l-0.2-0.101c-16.399,1.8-34.1,3.3-50.199,7.2c-0.5,0.6-1.2,0-1.7,0.3    c-2.4,0.601-4.9,1.101-7.4,1.601c-0.3,0.699-0.8,0.1-1.3,0.5c-10.1,2.6-20.4,5.199-30.6,7.899c-1.601,0-3.4,1-5,0.101    c0.199-0.7,1.3-0.7,1.899-1c25-6.601,49.7-13.7,76.101-16.5c7.399-1.101,14.6-1.5,22-2.601c1.8,0.8,3.399-0.8,5.3,0.2    C247.689,32.393,250.989,33.393,252.789,36.593z" />
		<rect x="137.289" y="34.293" width="0.101" height="0.1" />
		<rect x="137.289" y="34.593" width="0.101" height="0.2" />
		<path d="M225.39,42.093c0.5,2.2,0.6,4.5,1.5,6.7c0,0,0,0.2-0.101,0.2c-0.3-0.4-0.399-1-0.699-1.5c-0.101-1.4-0.301-2.9-0.7-4.2    c0.2-1.8-0.9-3.5-0.2-5.3C224.89,39.293,225.39,40.593,225.39,42.093z" />
		<path fill="#FFFFFF" d="M135.989,40.793c-0.1-0.3,0-0.7,0.2-1C136.189,39.994,136.289,40.593,135.989,40.793z" />
		<path fill="#FFFFFF" d="M135.789,40.693c-0.3,0.301,0,0.601-0.3,0.9C135.189,41.293,135.59,40.893,135.789,40.693z" />
		<path d="M129.989,55.693c-1,1-1.7,2-2.5,3.101c-6.5,9.8-11.399,20.6-18.5,30.1c-4.6,5.9-9.5,12.2-15.7,16.5    c-0.399-0.2-0.6,0.2-0.899,0.4l0.2-0.3l-0.101-0.101c0.7-0.8,1.8-1.5,2.4-2.399c0.399,0.1,0.6-0.801,1-0.9l0.399-0.4l-0.399,0.101    c0.2-0.7,0.899-0.101,1.2-0.9c0-0.1-0.2,0-0.301-0.1c1.101-1.5,2.801-2.9,4-4.101c0,0.101-0.1,0.2-0.1,0.2    c0,0.101,0.2,0.101,0.2,0.101c0.5-0.301-0.3-0.5,0.2-0.7l0.1,0.2c0.1-0.101,0.5-0.2,0.3-0.4h-0.3l2.3-2.6l0.2,0.3    c0.1-0.101,0.1-0.2,0.2-0.3c-0.5-0.301,0.2-1,0.5-1.4c0.399,0.2,0.399-0.2,0.5-0.4l0.7-0.899l-0.5,1.2c0.6,0,0.399-0.801,0.8-1    c-0.4-0.9,0.899-1.5,1.2-2.301c0.1,0.101,0.3,0.2,0.3,0.101v-0.2c0.2,0,0.2,0.1,0.3,0.2c0.1-0.2,0.1-0.4,0.1-0.5h-0.199    c0-0.3,0.1-0.4,0.199-0.601h0.301l-0.301,0.301l0.2,0.199l0.4-0.5c-0.7-0.699,0.7-1.199,0.899-2c0.2-0.1,0.301-0.5,0.5-0.6v0.4    c0.2-0.101,0.2-0.301,0.4-0.301c-0.4-0.399,0-0.8,0.2-1.199c0.1-0.101,0.3-0.101,0.399-0.2l-0.199,0.399l0.6-0.5    c-0.6,0,0-0.8,0.1-1.1l0.2-0.3c0.101,0.1,0.2,0.3,0.3,0.3c0.101-0.8,0.4-1.8,1.301-2.3c-0.301-0.3,0.1-0.5,0.199-0.7    c0.801,0.4,0.7-0.7,1.101-1l-0.101-0.2c-0.1,0.2-0.3,0.601-0.6,0.601c0.1-0.5,0.4-0.801,0.7-1.2l0.5-0.2c-0.4-0.5,0.3-1,0.5-1.5    h0.2c0.1,0.3-0.301,0.5-0.4,0.8l0.1,0.101c0.4-0.101,0.4-0.601,0.601-0.9l-0.3-0.2l0.3-0.1c-0.3-0.5,0.3-0.7,0.3-1    c1.3-2.101,2.3-4.3,3.6-6.4l0.2,0.2c2.3-4.7,4.7-9.7,8.9-13.6c0.399-0.101,0.7-0.4,1.1-0.2V55.693z" />
		<path d="M205.09,65.494c1.199,4.1,1.3,8.3,0.1,12.5c-0.6,1.1-1.3,3.1-2.9,2.899c-1.899,1-3.8,1.9-5.699,3    c-1.7,0.3-2.801,1.4-4.601,1.9c-2.2,1.2-4.8,2-6.8,3.7v0.199c-1.1,1.101-2,2.601-3.3,3.601c-0.5,0.1-0.8-0.4-0.9-0.8    c0.2-1.801,1.9-2.801,2.601-4.5c6-3.9,12.699-6,19-9.2c1.8-1.601,1-4.4,1.3-6.5c-0.101-2.601-0.3-5-1.3-7.2    c-1.301-2-3.801-2.3-5.5-3.6c-0.2-0.601,0.1-0.7,0.399-1.101C200.489,61.093,203.789,62.393,205.09,65.494z" />
		<rect x="119.09" y="70.093" fill="#FFFFFF" width="0.1" height="0.1" />
		<rect x="111.59" y="82.593" fill="#FFFFFF" width="0.1" height="0.2" />
		<path d="M207.59,87.994c0,4.199,1.1,9.199-1.101,13c0.2,0.5-0.399,0.899-0.8,1.199c-0.5,0-0.7,0.601-1.3,0.5    c-0.2-0.199,0-0.5-0.2-0.6c-1.4,1.3-3.3,2.2-5,3.4c2.9,1.1,2.7,4.699,3.4,7.399c0.3,5.3-2.601,9.4-5.9,13.201v0.299    c-1.4,0.4-2.1,1.9-3.5,2.201c-0.5,0.5-1.6,0.699-2.1,1.6l-0.7,0.1c-1.8,1.301-3.8,2.5-5.5,3.9c-1.5,0.6-2.9,1.801-4.3,2.601    c-3,2.299-6.301,2.1-8.801,5.1c-5.199,3.1-10.8,5.9-16.5,7.5c-0.399,0.799-0.8-0.201-1.199,0.5c-3.2,0.799-6.4,1.5-9.7,2.199    c-6.7,1.4-13.601,2.5-20.4,1.801c-0.8-0.6-1.899,0.199-2.5-0.701c-1.5-0.699-2.8,0.5-4,0.801c-1.399,0.801-3.1,1.301-4.1,2.6    c0.5,0.1,0.399,0.5,0.399,0.801c-0.8,0.4-1.899-0.5-2.6,0.4c-0.7,0-1.4,0.199-1.8-0.4c0.2-0.5,0.7-0.9,1.1-1.4v-0.4    c-3.7-4.6-6.2-9.9-9-14.799c-4.1-8.401-8.2-16.901-10.3-26.101c-0.7-2.1-1.3-4.5-1.1-6.8c0.5-0.2,0.399-0.8,0.899-0.899    c1.3,1.199,0.5,3.3,1.3,5c3.2,14.5,10.101,27.5,17.5,40.099c0.801,0.801,1.2,2.301,2.2,2.5c2.3-2.199,5-2.799,7.8-3.9    c1.5,0,3.7-0.299,4.4,1.4c5.8,0.5,11.7-0.6,17.4-1.6c0.199-0.6,0.699,0.1,1.1-0.199c7.4-1.301,14.3-3.602,20.9-6.602    c2.1-1.299,4.399-1.898,6.399-3.5c-0.2-0.699,1.101-0.699,1.5-1.199c0.9-0.1,1.5-1.199,2.3-1.6l4.101-1.899    c0,0.1,0,0.199-0.101,0.299l0.101,0.1c3.8-2.1,7.6-4.898,10.899-7c2.601-1.898,6.101-3.5,7.9-6.299c2.3-3.5,4.9-7.4,3.3-12    c0.601-2.1-2.3-3-1.2-4.9c-5.899,2.101-11.199,7-15.8,10.801c-0.8,0-1.2,0.898-2,0.6c-0.1-1.6,1.5-2.301,2.5-3.5l5.2-4.1v0.1    c4.5-3.6,10.1-5.6,15.1-8.3c0.2,0,0.5-0.101,0.601,0.2c1-1.9,1.3-4.301,1.3-6.9l-0.3-6.5c-0.8-1.7-2.7-3.2-4.4-3.9    c0.3-0.5-0.399-1.3,0.4-1.6C203.989,82.994,206.39,85.693,207.59,87.994z" />
		<rect x="110.39" y="84.593" fill="#FFFFFF" width="0.1" height="0.1" />
		<rect x="106.789" y="89.393" fill="#FFFFFF" width="0.101" height="0.101" />
		<path fill="#FFFFFF" d="M106.689,89.793c0,0.1-0.1,0.1-0.2,0.2v-0.2H106.689z" />
		<rect x="103.39" y="93.793" fill="#FFFFFF" width="0.1" height="0.1" />
		<polygon fill="#FFFFFF" points="101.789,95.893 101.989,95.494 101.89,95.793   " />
		<path fill="#FFFFFF" d="M100.59,97.093c0,0.1,0,0.1,0,0.2l-0.101-0.2H100.59z" />
		<path fill="#FFFFFF" d="M99.59,98.293l-0.801,0.8L99.59,98.293z" />
		<rect x="98.09" y="99.593" fill="#FFFFFF" width="0.1" height="0.1" />
		<polygon points="114.689,150.294 114.789,150.093 114.989,150.093   " />
	</g>
	<line fill="none" stroke="#000000" x1="90.09" y1="107.893" x2="40.868" y2="135.062" />
	<line fill="none" stroke="#000000" stroke-width="1.5" x1="111.189" y1="157.794" x2="70.341" y2="194.01" />
	<g>
		<path fill="none" stroke="#000000" stroke-width="3.5" d="M233.626,59.682c2.827,7.362,4.563,15.255,5.013,23.51    c2.348,43.135-31.307,80.248-75.789,84.459" />
		<polygon points="168.845,157.969 165.863,167.365 170.555,176.037 148.289,169.027   " />
	</g>
</g>
</svg>
