<?xml version="1.0" encoding="UTF-8"?>
<!-- Generator: Adobe Illustrator 18.1.1, SVG Export Plug-In . SVG Version: 6.00 Build 0)  -->
<svg xmlns="http://www.w3.org/2000/svg" xmlns:xlink="http://www.w3.org/1999/xlink" version="1.1" id="Lager_1" x="0px" y="0px" width="226.77px" height="226.77px" viewBox="0 0 226.77 226.77" enable-background="new 0 0 226.77 226.77" xml:space="preserve"><rect fill="#FFFFFF" x="0px" y="0px" width="226.77px" height="226.77px" />
<path fill="#FFFFFF" d="M122.422,214.283" />
<linearGradient id="SVGID_1_" gradientUnits="userSpaceOnUse" x1="95.5829" y1="212.1992" x2="105.2802" y2="188.7921">
	<stop offset="0" style="stop-color:#FFFFFF" />
	<stop offset="1" style="stop-color:#EDEDED" />
</linearGradient>
<polygon fill="url(#SVGID_1_)" points="119.951,212.174 128.343,178.605 111.029,178.279 99.605,175.648 88.772,169.846   90.418,171.577 82.418,185.577 77.153,208.323 " />
<path fill="none" stroke="#000000" d="M91.743,171.19c0,0,8.892,8.868,31.515,7.258" />
<path fill="none" stroke="#000000" stroke-width="1.6" stroke-linecap="round" d="M94.041,102.577  c-0.826-2.62-0.799-6.786,0.839-10.47" />
<path fill="none" stroke="#000000" stroke-width="2" stroke-linecap="round" d="M80.004,197.514c0,0,7.115-19.305,12.058-40.534  c4.942-21.229,2.494-52.772,1.979-54.402" />
<polyline fill="none" stroke="#000000" stroke-width="2" stroke-linecap="round" points="96.624,98.632 98.795,67.284   102.092,40.076 " />
<path fill="none" stroke="#000000" stroke-width="2" stroke-linecap="round" d="M99.795,101.079c0,0,4.397-26.061,5.303-39.32" />
<line fill="none" stroke="#000000" stroke-width="2" stroke-linecap="round" x1="102.806" y1="40.871" x2="103.542" y2="30.025" />
<line fill="none" stroke="#000000" stroke-width="2" stroke-linecap="round" x1="107.087" y1="27.823" x2="107.337" y2="21.259" />
<line fill="none" stroke="#000000" stroke-width="2" stroke-linecap="round" x1="105.309" y1="61.436" x2="104.769" y2="51.865" />
<g>
	<path d="M104.022,51.593c1.996-0.767,4.3-1.014,6.49-0.308c0.537,0.192,1.078,0.413,1.566,0.733   c0.499,0.301,0.952,0.682,1.362,1.098c0.412,0.415,0.779,0.878,1.09,1.369c0.32,0.486,0.594,1.004,0.806,1.536   c0.233,0.53,0.397,1.075,0.559,1.622c0.14,0.548,0.271,1.102,0.361,1.657c0.184,1.109,0.283,2.228,0.279,3.334   c0.014,0.556,0.01,1.109-0.022,1.658c-0.019,0.552-0.041,1.103-0.099,1.648c-0.056,0.545-0.075,1.099-0.167,1.636l-0.234,1.623   l-0.321-1.016c0.365,0.391,0.505,0.642,0.721,0.968c0.182,0.31,0.352,0.624,0.493,0.942c0.296,0.635,0.511,1.287,0.686,1.942   c0.175,0.656,0.266,1.32,0.353,1.981c0.049,0.66,0.11,1.322,0.094,1.976c0.018,0.658-0.041,1.305-0.081,1.954   c-0.046,0.648-0.165,1.282-0.252,1.921c-0.133,0.628-0.256,1.258-0.397,1.881l-0.496,1.845l-0.82,3.05l-1.103-2.927l-0.057-0.151   l-0.03-0.089l-0.015-0.052c0.783,0.25-1.765-0.217,1.762-0.904c0.096,0.125,0.043,0.059,0.071,0.098   c0.035,0.052,0.076,0.138,0.07,0.127l0.041,0.097l0.101,0.273l0.176,0.518l0.316,1.029c0.198,0.687,0.375,1.377,0.533,2.071   c0.324,1.386,0.523,2.799,0.657,4.214c0.134,1.415,0.128,2.843,0.021,4.255c-0.128,1.411-0.398,2.81-0.863,4.13   c0.344-2.778,0.096-5.529-0.445-8.201c-0.261-1.339-0.636-2.653-1.03-3.954c-0.202-0.649-0.421-1.293-0.658-1.927l-0.37-0.941   l-0.196-0.457l-0.097-0.21c-0.006-0.013-0.015-0.029-0.012-0.022c-0.011-0.022,0.025,0.055,0.055,0.098l0.067,0.092   c3.525-0.685,0.978-1.15,1.762-0.897l-0.01-0.037c-0.022-0.068-0.004-0.015-0.008-0.028l0.04,0.091l-1.923,0.123l0.374-1.762   l0.276-1.768l0.081-0.884c0.019-0.295,0.076-0.588,0.078-0.881c0.025-0.586,0.07-1.173,0.041-1.752   c0.006-0.584-0.061-1.155-0.111-1.727c-0.079-0.566-0.186-1.122-0.313-1.667c-0.135-0.541-0.299-1.071-0.519-1.561   c-0.105-0.249-0.227-0.481-0.352-0.708c-0.116-0.194-0.305-0.471-0.363-0.534l-0.411-0.445l0.091-0.571   c0.164-1.031,0.337-2.063,0.461-3.094c0.078-0.516,0.121-1.032,0.162-1.547c0.053-0.517,0.08-1.032,0.089-1.546   c0.045-1.031,0-2.051-0.079-3.063c-0.044-0.505-0.125-1.002-0.212-1.496c-0.107-0.488-0.214-0.977-0.38-1.441   c-0.066-0.241-0.164-0.465-0.258-0.691c-0.09-0.229-0.18-0.458-0.302-0.668c-0.217-0.437-0.48-0.847-0.783-1.224   c-0.303-0.377-0.642-0.73-1.032-1.022c-0.375-0.314-0.803-0.562-1.247-0.79c-0.901-0.431-1.913-0.668-2.95-0.772   C106.148,51.371,105.076,51.395,104.022,51.593z" />
</g>
<path fill="none" stroke="#000000" stroke-width="2" stroke-linecap="round" d="M105.005,29.599c0,0,12.499,2.651,7.249,20.776" />
<path fill="none" stroke="#000000" stroke-width="2" stroke-linecap="round" d="M107.318,21.425c0,0,13.186-1.425,10.311,17.95  c0,0,3.625,11.458,0.625,22.792c0,0,4.833,7.5,1.167,18.833c0,0,4.249,7.625,2.82,16.894" />
<path fill="none" stroke="#000000" stroke-width="2" stroke-linecap="round" d="M122.24,97.894c0,0,9.481,1.755,13.33,7.014" />
<g>
	<path d="M131.648,101.713c-0.118-1.055-0.079-2.135,0.08-3.198c0.148-1.068,0.436-2.121,0.825-3.148   c0.41-1.017,0.933-2.006,1.599-2.909c0.669-0.9,1.474-1.711,2.374-2.403l-0.349,1.086c-0.152-0.468-0.245-0.853-0.339-1.278   c-0.089-0.415-0.161-0.831-0.224-1.248c-0.126-0.833-0.179-1.673-0.179-2.512c-0.002-0.838,0.038-1.676,0.133-2.506   c0.106-0.83,0.259-1.652,0.459-2.46c0.188-0.811,0.461-1.601,0.759-2.373c0.287-0.777,0.653-1.522,1.042-2.246   c0.386-0.727,0.836-1.416,1.309-2.081c0.477-0.663,1.007-1.284,1.563-1.874c-0.344,0.737-0.687,1.46-0.991,2.197   c-0.322,0.727-0.586,1.474-0.851,2.212c-0.252,0.743-0.471,1.493-0.666,2.245c-0.203,0.75-0.332,1.515-0.469,2.272   c-0.132,0.759-0.218,1.524-0.26,2.29c-0.057,0.764-0.084,1.53-0.061,2.294c0.024,0.764,0.087,1.524,0.17,2.28   c0.048,0.377,0.103,0.752,0.174,1.122c0.068,0.36,0.16,0.756,0.248,1.052l0.209,0.701l-0.557,0.385   c-0.788,0.545-1.532,1.172-2.164,1.916c-0.65,0.727-1.225,1.538-1.708,2.415c-0.509,0.866-0.905,1.804-1.27,2.766   C132.164,99.678,131.855,100.675,131.648,101.713z" />
</g>
<g>
	<path d="M143.054,70.764c0,0,0.622-0.567,1.724-1.052c1.09-0.507,2.667-0.94,4.345-0.856c0.832,0.035,1.689,0.211,2.446,0.552   c0.383,0.135,0.72,0.415,1.034,0.613c0.301,0.243,0.537,0.541,0.753,0.782c0.187,0.278,0.311,0.564,0.421,0.797   c0.13,0.223,0.117,0.48,0.159,0.653c0.05,0.366,0.052,0.562,0.052,0.562s-0.165-0.148-0.408-0.384   c-0.132-0.11-0.233-0.276-0.43-0.393c-0.191-0.122-0.382-0.261-0.584-0.402c-0.246-0.097-0.475-0.221-0.732-0.321   c-0.287-0.062-0.531-0.194-0.848-0.233c-0.306-0.056-0.607-0.128-0.946-0.15c-0.325-0.047-0.668-0.069-1.015-0.08   c-0.341-0.044-0.702-0.008-1.048-0.035c-0.355,0-0.705,0-1.043,0c-0.684,0.013-1.338,0.015-1.912,0.01   C143.883,70.836,143.054,70.764,143.054,70.764z" />
</g>
<path fill="none" stroke="#000000" stroke-width="2" stroke-linecap="round" d="M150.708,82.826c0,0-5.454,5.507-3.621,33.007  c0,0-2.086,27.383-14.46,39.608" />
<line fill="none" stroke="#000000" stroke-width="2" stroke-linecap="round" x1="154.026" y1="72.431" x2="149.758" y2="81.783" />
<path fill="none" stroke="#000000" stroke-width="2" stroke-linecap="round" d="M133.624,152.749c0,0-10.291,38.847-10.71,47.496" />
<polyline fill="none" stroke="#000000" stroke-width="2" stroke-linecap="round" points="121.15,62.249 129.805,62.117   135.772,64.937 " />
<line fill="none" stroke="#000000" stroke-width="2" stroke-linecap="round" x1="136.362" y1="65.658" x2="143.574" y2="68.084" />
<g>
	<path d="M121.865,75.989c1.121-0.428,2.257-0.76,3.395-1.076c1.138-0.317,2.285-0.581,3.431-0.846l0.207-0.048l0.33,0.141   c0.199,0.086,0.48,0.19,0.731,0.268c0.259,0.083,0.523,0.155,0.789,0.216c0.529,0.131,1.064,0.227,1.598,0.293   c1.071,0.125,2.138,0.092,3.184-0.098c1.044-0.202,2.062-0.588,3.038-1.137c0.49-0.273,0.964-0.591,1.438-0.933   c0.47-0.346,0.932-0.721,1.409-1.109c-0.235,0.562-0.515,1.117-0.872,1.624c-0.347,0.516-0.759,0.993-1.221,1.43   c-0.459,0.441-0.984,0.82-1.544,1.149c-0.274,0.178-0.576,0.304-0.874,0.438c-0.302,0.126-0.61,0.24-0.925,0.334   c-0.628,0.197-1.282,0.301-1.935,0.349c-0.655,0.039-1.311,0.017-1.953-0.077c-0.644-0.086-1.273-0.244-1.882-0.45   c-0.304-0.107-0.602-0.226-0.897-0.359c-0.302-0.137-0.568-0.265-0.895-0.455l0.536,0.094c-1.173,0.097-2.345,0.195-3.526,0.24   C124.246,76.025,123.063,76.055,121.865,75.989z" />
</g>
<g>
	<path d="M119.421,103.122c0.475,2.014,0.886,4.04,1.331,6.06l1.225,6.078l-0.104-0.202c0.558,0.588,1.012,1.192,1.447,1.835   c0.42,0.644,0.838,1.292,1.188,1.974c0.38,0.668,0.703,1.363,1.019,2.062c0.344,0.687,0.573,1.42,0.864,2.128   c0.283,0.712,0.474,1.455,0.715,2.181c0.254,0.724,0.366,1.485,0.552,2.226c0.189,0.742,0.298,1.498,0.414,2.253   c0.113,0.755,0.258,1.506,0.302,2.268l0.199,2.278c0.031,0.761,0.038,1.523,0.05,2.284c0.01,0.761,0.012,1.522-0.055,2.28   l-0.143,2.275c-0.027,0.759-0.175,1.508-0.256,2.261l-0.315,2.251c-0.301,1.486-0.61,2.968-0.944,4.44l0.572-4.491l0.163-2.253   c0.047-0.75,0.16-1.496,0.152-2.248l0.039-2.252c0.033-0.75-0.004-1.499-0.048-2.247l-0.089-2.244l-0.229-2.232   c-0.054-0.747-0.208-1.479-0.329-2.216c-0.124-0.736-0.241-1.474-0.437-2.194c-0.189-0.721-0.324-1.457-0.551-2.166   c-0.225-0.709-0.399-1.437-0.664-2.132c-0.273-0.691-0.485-1.41-0.809-2.079c-0.296-0.682-0.6-1.361-0.957-2.012   c-0.33-0.666-0.724-1.296-1.118-1.921c-0.408-0.609-0.832-1.239-1.292-1.768l-0.088-0.101l-0.016-0.101l-0.949-6.128   C119.984,107.22,119.67,105.177,119.421,103.122z" />
</g>
<g>
	<path d="M135.37,66.994c0,0-0.009,0.531,0.194,1.173c0.065,0.156,0.119,0.324,0.215,0.48c0.074,0.167,0.212,0.305,0.313,0.465   c0.275,0.275,0.573,0.561,0.969,0.754c0.171,0.129,0.391,0.199,0.587,0.296c0.195,0.099,0.411,0.165,0.613,0.242   c0.202,0.077,0.4,0.155,0.598,0.206c0.196,0.055,0.38,0.121,0.552,0.183c0.698,0.189,1.182,0.391,1.182,0.391   s-0.494,0.136-1.258,0.178c-0.38-0.015-0.833,0.013-1.308-0.109c-0.236-0.061-0.492-0.077-0.733-0.193   c-0.242-0.104-0.498-0.175-0.732-0.329c-0.236-0.14-0.464-0.293-0.664-0.49c-0.221-0.166-0.363-0.419-0.524-0.625   c-0.127-0.238-0.242-0.469-0.291-0.709c-0.077-0.229-0.077-0.462-0.085-0.664c0.003-0.411,0.112-0.731,0.198-0.94   C135.289,67.096,135.37,66.994,135.37,66.994z" />
</g>
<g>
	<path d="M106.211,52.729c0,0,0.173-0.039,0.484-0.037c0.309,0.005,0.764,0.043,1.285,0.278c0.254,0.127,0.536,0.293,0.764,0.566   c0.236,0.259,0.425,0.611,0.497,0.99c0.101,0.377,0.065,0.788,0.047,1.097c-0.024,0.337-0.04,0.686-0.087,1.028   c-0.081,0.689-0.204,1.379-0.391,2.015c-0.187,0.635-0.434,1.22-0.736,1.675c-0.295,0.459-0.649,0.776-0.933,0.919   c-0.129,0.089-0.259,0.11-0.334,0.139c-0.077,0.025-0.118,0.038-0.118,0.038s0.148-0.104,0.333-0.326   c0.1-0.103,0.188-0.256,0.292-0.419c0.092-0.176,0.181-0.376,0.265-0.603c0.331-0.91,0.493-2.22,0.637-3.546   c0.034-0.333,0.068-0.666,0.101-0.994c0.026-0.355,0.065-0.613,0.033-0.862c-0.017-0.255-0.11-0.474-0.223-0.679   c-0.112-0.209-0.295-0.366-0.46-0.523c-0.362-0.285-0.742-0.468-1.013-0.586C106.38,52.782,106.211,52.729,106.211,52.729z" />
</g>
<g>
	<path d="M104.587,31.583c0,0,0.217,0.015,0.589,0.096c0.37,0.084,0.901,0.225,1.497,0.53c0.583,0.301,1.304,0.76,1.727,1.632   c0.105,0.215,0.172,0.457,0.211,0.706c0.045,0.252,0.014,0.518,0.006,0.708c-0.03,0.426-0.06,0.857-0.119,1.29   c-0.125,0.863-0.311,1.732-0.638,2.511c-0.318,0.777-0.779,1.469-1.327,1.903c-0.542,0.447-1.122,0.598-1.502,0.632   c-0.388,0.029-0.6-0.011-0.6-0.011s0.216-0.044,0.554-0.179c0.337-0.137,0.78-0.398,1.155-0.848   c0.771-0.897,1.166-2.507,1.371-4.139c0.054-0.409,0.104-0.824,0.14-1.232c0.044-0.429,0.044-0.67-0.07-0.995   c-0.224-0.606-0.745-1.108-1.219-1.483c-0.484-0.374-0.937-0.649-1.258-0.835C104.78,31.682,104.587,31.583,104.587,31.583z" />
</g>
<g>
	<path d="M108.77,23.088c0,0,0.667,0.034,1.604,0.406c0.463,0.193,1.006,0.456,1.502,0.912c0.499,0.431,0.944,1.158,0.94,1.972   c-0.009,0.373-0.032,0.667-0.057,1.002c-0.04,0.323-0.086,0.641-0.138,0.948c-0.124,0.613-0.294,1.178-0.497,1.642   c-0.401,0.942-0.929,1.401-0.929,1.401s0.163-0.654,0.29-1.586c0.066-0.468,0.131-1.012,0.188-1.598   c0.036-0.293,0.066-0.596,0.091-0.907c0.034-0.298,0.077-0.649,0.092-0.921c0.048-0.501-0.196-0.992-0.538-1.415   c-0.351-0.416-0.783-0.759-1.171-1.025C109.363,23.387,108.77,23.088,108.77,23.088z" />
</g>
<g>
	<path d="M144.384,67.287c0,0,0.129,0.298,0.139,0.739c0.018,0.44-0.075,1.023-0.321,1.555c-0.246,0.531-0.642,0.996-1.017,1.249   c-0.183,0.131-0.357,0.211-0.487,0.254c-0.127,0.045-0.203,0.061-0.203,0.061s0.021-0.08,0.064-0.203   c0.048-0.119,0.105-0.289,0.182-0.476c0.147-0.379,0.344-0.841,0.554-1.304c0.22-0.458,0.453-0.923,0.674-1.276   C144.182,67.532,144.384,67.287,144.384,67.287z" />
</g>
</svg>
