<?xml version="1.0" encoding="UTF-8"?>
<!-- Generator: Adobe Illustrator 18.1.1, SVG Export Plug-In . SVG Version: 6.00 Build 0)  -->
<svg xmlns="http://www.w3.org/2000/svg" xmlns:xlink="http://www.w3.org/1999/xlink" version="1.1" id="Lager_1" x="0px" y="0px" width="383.7px" height="226.8px" viewBox="0 0 383.7 226.8" enable-background="new 0 0 383.7 226.8" xml:space="preserve"><rect fill="#FFFFFF" x="0px" y="0px" width="383.7px" height="226.8px" />
<g>
	<path stroke="#000000" stroke-width="0.2984" stroke-linecap="square" stroke-miterlimit="2" d="M45.3,86.4c1.1,2.1,1.9,4,2.3,6.2   c0.4,0.9,0.3,2,0.6,2.9c-0.1,1.6,0.1,3.4-0.8,4.7c-1.2,2.9-2.5,5.8-3.4,9c-0.3,0.1-0.8,0.1-0.8-0.4c0.1-1.2,0.7-2.4,1.1-3.6   c0.8-2,1.6-4.1,2.6-6c0.5-4.3-0.5-8.3-2.5-12.1c-0.9-1.1-2.4-2-3.9-1.6c-1.4,0.6-1.1,2.4-1.2,3.5l0.2,0.9c0,0-0.1,0.4,0.1,0.6   c-0.1,1.1-0.7,2.2-0.9,3.2c-0.2,0.3,0,0.6-0.3,0.8c0.1,0.2-0.1,0.4-0.1,0.6l-0.1,0c-0.3,0.5-0.4,1-0.6,1.4c0.2,0.1,0,0.4,0,0.6   c-0.2,0.2-0.3,0.4-0.4,0.6l0.1,0.1c0,0.3-0.5,0.4-0.2,0.6c0,0.2-0.3,0.1-0.1,0.3c-0.1,0.1-0.3-0.1-0.1,0.2   c-0.2,0.3-0.4,0.3-0.3,0.6l-0.1,0.2l0.1,0.1c-0.1,0-0.1,0-0.1,0.1c0.1,0,0,0.1,0.1,0.1l-0.4,0.4l0.1,0.1c-0.3,0.3-0.3,0.6-0.6,0.9   l0,0.1l-0.1,0.1c0.2,0.3-0.3,0.5-0.2,0.8c0,0,0.1-0.1,0.1-0.3c-0.4,0.4-0.5,0.9-0.8,1.5c0.2,0.1,0.2-0.3,0.3-0.4   c0.1,0.2-0.2,0.4,0,0.4c-0.2,0.2-0.1,0.8-0.5,0.8l-0.2,0.2c0,0.1,0-0.4-0.2,0c-0.1,0,0.1,0.2,0.1,0.2l0.1,0c0.1,0,0-0.1-0.1,0   c0,0.1,0.1,0.2,0,0.3l-0.1-0.1c-0.1,0,0,0.2-0.2,0.2c0.1,0,0-0.1,0-0.2c-0.1,0.2-0.5,0.5-0.3,0.8c-0.2,0.6-0.4,1-0.7,1.5   c-0.6,1-1.8,4.2-2.9,4.8c-0.1,0-0.4-0.1-0.3-0.3c2.1-3.6,4.7-9.4,6.2-13.1c1-2,2.1-5.1,2.8-7.1c-0.2-2.3-0.3-3.3,0-5   c0.1-1.5,1.3-1.9,2.4-2.2C42.5,84.5,44.2,85.1,45.3,86.4z" />
	<path stroke="#000000" stroke-width="0.2984" stroke-linecap="square" stroke-miterlimit="2" d="M93.2,103c1.1,2,0.8,4.9-0.6,6.6   c-0.3,0.4-0.8,0.6-1,0.8c-0.6-0.1-1.1,0.4-1.7,0.2c-0.5,0.5-1.1,0-1.6,0.3c-6.4,0.5-13.4,1.3-19.7,3l-1.9,0.4   c0.1,0.4-0.3,0.5-0.5,0.6c-4.4,0.6-8.3,2.5-12.5,3.6c-0.7,0.4-1.4,0.5-2.2,0.8c-1.5,0.4-2.9,1.1-4.5,1.4c-0.2,0-0.4-0.2-0.4-0.4   c0.3-0.4,0.9-0.6,1.3-0.8c3.4-1.3,7-2.3,10.4-3.5c-0.3-0.1-0.5,0.1-0.7,0.1l4.8-1.5c0.3-0.5,1-0.3,1.3-0.7c0-2.4-0.5-4.3-1.1-6.7   c-0.3-0.3-0.2-0.7-0.5-1c0-0.1,0-0.3-0.2-0.3c-0.6,0.9-0.4,2.1-0.2,3c0.1,0.7,0.1,1.5,0.5,2.1c-0.1,0.5,0.2,0.7,0.3,1.1   c0.2,0.4,0.4,0.9,0.8,1.1v0.2c-0.3,0-0.5-0.4-0.6-0.5c0.2-0.3-0.2-0.1-0.2-0.3c-0.7-1.7-1.1-3.5-1.2-5.4v-0.9   c-0.1,0.2-0.1,0.5-0.3,0.5c-0.1-0.5,0.2-0.8,0.3-1.3c0.2-0.1,0.1,0.2,0.2,0.3c0.2-0.2,0.4-0.3,0.7-0.3c0.6,1.1,0.8,2.4,1.1,3.7   c0.4,1.5,0.4,3.1,0.7,4.7c7.3-1.8,14.8-3.3,22.4-4c0.1-0.1,0-0.3,0.1-0.4c-0.2-0.2-0.7-0.3-0.6-0.7c0.1-0.2,0.3-0.2,0.4-0.3   c-0.3-1.6-0.6-3.1-1.1-4.6c0.2-0.6,0.8-0.8,1.3-1.1l-0.4,0.2c1.4-0.3,2.7-1.1,4.2-0.9v0.1c-1.7,0.1-3.1,0.5-4.5,1.4   c0.2,1.1,0.6,2.2,0.7,3.3c0.1,0.6,0.3,1.2,0.3,1.9c0.9,0.7,2.1,0.5,3.1,0.5c0.2,0,0.4-0.2,0.6,0c0.5-0.2,1-0.5,1.3-0.9   c0.2-2-0.5-4.1-1.4-5.8c0.1-0.2,0.1-0.3,0.2-0.3c0.7,0.4,0.3,1.2,0.8,1.8c0.3,1.2,0.6,2.5,0.6,3.8c0.7-0.7,0.7-1.8,0.8-2.7   c-0.2-1.1-0.5-2.2-1.5-2.9c-0.3-0.3-0.8-0.4-1.1-0.3c-0.8-0.6-1.7-0.3-2.6-0.6c-0.3,0.3-0.5-0.2-0.7,0c-0.9,0-1.8,0.2-2.6,0.4   l-0.1-0.1c-8.5,0.9-17.6,1.7-25.9,3.7c-0.3,0.3-0.6,0-0.9,0.2c-1.2,0.3-2.5,0.6-3.8,0.8c-0.2,0.4-0.4,0.1-0.7,0.3   c-5.2,1.3-10.5,2.7-15.8,4.1c-0.8,0-1.8,0.5-2.6,0.1c0.1-0.4,0.7-0.4,1-0.5c12.9-3.4,25.7-7.1,39.3-8.5c3.8-0.6,7.5-0.8,11.4-1.3   c0.9,0.4,1.8-0.4,2.7,0.1C90.6,100.8,92.3,101.3,93.2,103z" />
	<path stroke="#000000" stroke-width="0.4475" stroke-linecap="square" stroke-miterlimit="2" d="M79.1,105.8   c0.3,1.1,0.3,2.3,0.8,3.5c0,0,0,0.1-0.1,0.1c-0.2-0.2-0.2-0.5-0.4-0.8c-0.1-0.7-0.2-1.5-0.4-2.2c0.1-0.9-0.5-1.8-0.1-2.7   C78.8,104.4,79.1,105.1,79.1,105.8z" />
	<path fill="#FFFFFF" stroke="#000000" stroke-width="0.4475" stroke-linecap="square" stroke-miterlimit="2" d="M32.9,105.2   c-0.1-0.2,0-0.4,0.1-0.5C33,104.8,33.1,105.1,32.9,105.2z" />
	<path fill="#FFFFFF" stroke="#000000" stroke-width="0.4475" stroke-linecap="square" stroke-miterlimit="2" d="M32.8,105.1   c-0.2,0.2,0,0.3-0.2,0.5C32.5,105.4,32.7,105.2,32.8,105.1z" />
	<path stroke="#000000" stroke-width="0.4475" stroke-linecap="square" stroke-miterlimit="2" d="M29.8,112.9   c-0.5,0.5-0.9,1-1.3,1.6c-3.4,5.1-5.9,10.6-9.6,15.5c-2.4,3-14.3,11.5-17.5,13.7c-0.2-0.1-0.3,0.1-0.5,0.2l0.1-0.2l-0.1-0.1   c0.4-0.4,0.9-0.8,1.2-1.2c0.2,0.1,0.3-0.4,0.5-0.5l-0.4,0.4l0.5-0.6c0.1-0.4,0.2,0,0.4-0.4c0-0.1,0.9-0.4,0.9-0.5   c0.6-0.8,9.8-6.3,10.5-6.9c0,0.1-0.1,0.1-0.1,0.1c0,0.1,0.1,0.1,0.1,0.1c0.3-0.2-0.2-0.3,0.1-0.4l0.1,0.1c0.1-0.1,0.3-0.1,0.2-0.2   l-4.2,2.8l5.4-4.6l-0.1,0.6c0.1-0.1,0.1-0.1,0.1-0.2c-0.3-0.2,0.1-0.5,0.3-0.7c0.2,0.1,0.2-0.1,0.3-0.2l0.4-0.5l-0.3,0.6   c0.3,0,0.2-0.4,0.4-0.5c-0.2-0.5,0.5-0.8,0.6-1.2c0.1,0.1,0.2,0.1,0.2,0.1v-0.1c0.1,0,0.1,0.1,0.2,0.1c0.1-0.1,0.1-0.2,0.1-0.3   h-0.1c0-0.2,0.1-0.2,0.1-0.3h0.2l-0.2,0.2l0.1,0.1l0.2-0.3c-0.4-0.4,0.4-0.6,0.5-1c0.1-0.1,0.2-0.3,0.3-0.3v0.2   c0.1-0.1,0.1-0.2,0.2-0.2c-0.2-0.2,0-0.4,0.1-0.6c0.1-0.1,0.2-0.1,0.2-0.1l-0.1,0.2l0.3-0.3c-0.3,0,0-0.4,0.1-0.6l0.1-0.2   c0.1,0.1,0.1,0.2,0.2,0.2c0.1-0.4,0.2-0.9,0.7-1.2c-0.2-0.2,0.1-0.3,0.1-0.4c0.4,0.2,0.4-0.4,0.6-0.5l-0.1-0.1   c-0.1,0.1-0.2,0.3-0.3,0.3c0.1-0.3,0.2-0.4,0.4-0.6l0.3-0.1c-0.2-0.3,0.2-0.5,0.3-0.8h0.1c0.1,0.2-0.2,0.3-0.2,0.4l0.1,0.1   c0.2-0.1,0.2-0.3,0.3-0.5l-0.2-0.1l0.2-0.1c-0.2-0.3,0.2-0.4,0.2-0.5c0.7-1.1,1.2-2.2,1.9-3.3l0.1,0.1c1.2-2.4,2.4-5,4.6-7   c0.2-0.1,0.4-0.2,0.6-0.1V112.9z" />
	<path stroke="#000000" stroke-width="0.4475" stroke-linecap="square" stroke-miterlimit="2" d="M68.6,117.9   c0.6,2.1,0.7,4.3,0.1,6.5c-0.3,0.6-0.7,1.6-1.5,1.5c-1,0.5-2,1-2.9,1.5c-0.9,0.2-1.4,0.7-2.4,1c-1.1,0.6-2.5,1-3.5,1.9v0.1   c-0.6,0.6-1,1.3-1.7,1.9c-0.3,0.1-0.4-0.2-0.5-0.4c0.1-0.9,1-1.4,1.3-2.3c3.1-2,6.6-3.1,9.8-4.8c0.9-0.8,0.5-2.3,0.7-3.4   c-0.1-1.3-0.2-2.6-0.7-3.7c-0.7-1-2-1.2-2.8-1.9c-0.1-0.3,0.1-0.4,0.2-0.6C66.2,115.7,67.9,116.3,68.6,117.9z" />
	
		<rect x="24.2" y="120.3" fill="#FFFFFF" stroke="#000000" stroke-width="0.4475" stroke-linecap="square" stroke-miterlimit="2" width="0.1" height="0.1" />
	
		<rect x="20.3" y="126.8" fill="#FFFFFF" stroke="#000000" stroke-width="0.4475" stroke-linecap="square" stroke-miterlimit="2" width="0.1" height="0.1" />
	<path stroke="#000000" stroke-width="0.2984" stroke-linecap="square" stroke-miterlimit="2" d="M69.9,129.5   c-0.6-1.2-1.9-2.6-3.2-2.8c-0.4,0.2-0.1,0.6-0.2,0.8c0.9,0.4,1.9,1.1,2.3,2l0.2,3.4c0,1.3-0.2,2.6-0.7,3.6   c-0.1-0.2-0.2-0.1-0.3-0.1c-2.6,1.4-5.5,2.4-7.8,4.3v-0.1l-2.7,2.1c-0.5,0.6-1.3,1-1.3,1.8c0.4,0.2,0.6-0.3,1-0.3   c2.4-2,5.1-4.5,8.2-5.6c-0.6,1,0.9,1.4,0.6,2.5c0.8,2.4-0.5,4.4-1.7,6.2c-0.9,1.4-2.7,2.3-4.1,3.3c-1.7,1.1-3.7,2.5-5.6,3.6   l-0.1-0.1c0.1-0.1,0.1-0.1,0.1-0.2l-2.1,1c-0.4,0.2-0.7,0.8-1.2,0.8c-0.2,0.3-0.9,0.3-0.8,0.6c-1,0.8-2.2,1.1-3.3,1.8   c-3.4,1.5-7,2.7-10.8,3.4c-0.2,0.2-0.5-0.2-0.6,0.1c-2.9,0.5-6,1.1-9,0.8c-0.4-0.9-1.5-0.7-2.3-0.7c-1,0.4-11.6,6.7-12.5,7.2   c-1.9,1.6-1.3,1.7,0.7,1c0.3-0.1,10.2-6.3,10.5-6.5c0.6-0.2,1.3-0.8,2.1-0.4c0.3,0.5,0.9,0.1,1.3,0.4c3.5,0.4,7.1-0.2,10.5-0.9   c1.7-0.4,3.4-0.7,5-1.1c0.2-0.4,0.4,0.2,0.6-0.3c2.9-0.8,5.8-2.3,8.5-3.9c1.3-1.6,3-1.4,4.5-2.6c0.7-0.4,1.4-1,2.2-1.3   c0.9-0.7,1.9-1.3,2.8-2l0.4-0.1c0.3-0.5,0.8-0.6,1.1-0.8c0.7-0.2,1.1-0.9,1.8-1.1v-0.2c1.7-2,3.2-4.1,3-6.8   c-0.4-1.4-0.3-3.3-1.8-3.8c0.9-0.6,1.9-1.1,2.6-1.8c0.1,0.1,0,0.2,0.1,0.3c0.3,0.1,0.4-0.3,0.7-0.3c0.2-0.2,0.5-0.4,0.4-0.6   C70.5,134.3,69.9,131.7,69.9,129.5z" />
	
		<rect x="19.7" y="127.8" fill="#FFFFFF" stroke="#000000" stroke-width="0.4475" stroke-linecap="square" stroke-miterlimit="2" width="0.1" height="0.1" />
	
		<rect x="17.8" y="130.3" fill="#FFFFFF" stroke="#000000" stroke-width="0.4475" stroke-linecap="square" stroke-miterlimit="2" width="0.1" height="0.1" />
	<path fill="#FFFFFF" stroke="#000000" stroke-width="0.4475" stroke-linecap="square" stroke-miterlimit="2" d="M17.8,130.5   c0,0.1-0.1,0.1-0.1,0.1v-0.1H17.8z" />
	
		<rect x="16.1" y="132.5" fill="#FFFFFF" stroke="#000000" stroke-width="0.4475" stroke-linecap="square" stroke-miterlimit="2" width="0.1" height="0.1" />
	<polygon fill="#FFFFFF" stroke="#000000" stroke-width="0.4475" stroke-linecap="square" stroke-miterlimit="2" points="   15.3,133.6 15.4,133.4 15.3,133.6  " />
	<path fill="#FFFFFF" stroke="#000000" stroke-width="0.4475" stroke-linecap="square" stroke-miterlimit="2" d="M14.6,134.2   c0,0.1,0,0.1,0,0.1V134.2L14.6,134.2z" />
</g>
<g>
	<g>
		<g>
			<path stroke="#1D1719" stroke-width="0.65" d="M146.7,74.9C146.7,74.9,146.7,74.9,146.7,74.9C146.7,74.9,146.7,74.9,146.7,74.9z" />
			<path stroke="#1D1719" stroke-width="0.65" d="M153.3,59.3c0-0.5-0.5-1-0.2-1.6c-1.3-1.5-2.7-3-4.9-3.7c-1.5-0.2-3.3-0.3-4.5,0.9     c-0.6,1-1.2,2-1.8,2.9c0.1,0.4-0.2,0.5-0.4,0.8c-0.7,1.4-1.2,3.2-2.1,4.4l0,0.3c-1.8,3.6-3.1,7.7-4.6,11.6     c-1.1,2.2-1.6,4.8-2.7,7.1c-0.6,2.2-1.5,4.1-2.2,6.4c-0.3,0.9-0.9,2.5-1.1,3.4c-0.3,0.6-0.6,1.3-0.8,2c-0.4,2.5-1.3,4.5-1.8,6.9     c-1.3,1.7-1.3,3.6-2.4,5.3c0.2,0.8-1.5,1.7-0.3,2.3c1.2-0.9,1.4-2.6,2.1-3.9c0.4-1.2,1-2.4,1.1-3.5c3.8-11.5,7.9-23.9,12.4-34.9     c1.6-3.1,2.8-6.7,5-9.5c0.2,0.9,0,2-0.3,3c-0.1,0.8-0.3,1.6,0,2.4l-0.2,0.3c0.3,0.2,0.8,0.1,0.9,0.4c0.9-0.4,2.1,0.3,3,0.6     c0.6,0.4,1.6,0.6,2.1,1.1l-0.3,0.4c0.2,0.3,0.3-0.2,0.6-0.1c0.1,0.1,0,0.3,0.2,0.1l0.1-0.1c-0.2-0.1-0.2-0.3-0.1-0.4     c0.1-0.4,0.6-0.8,0.9-1c0.6-1,1.1-1.9,1.4-3c0.1-0.2,0.3-0.4,0.3-0.6c-0.1,0.2,0.1,0.4,0.2,0.5c-1,1.1-1.3,2.9-2.3,4     c-0.9,2.8-2.1,5.2-2.9,8.3c-0.2-0.1-0.2,0.3-0.3,0.4l-0.1,0.2l0-0.1c0,0.3,0,0.5-0.2,0.6c0.2,0.1-0.1,0.4-0.1,0.5     c-0.2,0.2,0,0.6-0.3,0.8c0,0,0.1,0,0.1,0.1c-0.9,2.7-1.4,5.7-1.8,8.5l-0.3,0.2l0.1,0c0,0.7-0.3,1.4-0.6,2.1     c-1.2-0.2-2.5-0.7-3.6-0.9l0,0.1c1,0.4,2.3,0.9,3.5,1.3c0,0.1-0.1,0.2-0.1,0.2l-0.2-0.1l0.1,0.4c-1.3,2.7-2,5.6-2.8,8.5     c-0.4,0.2-0.2,0.6-0.3,0.9c-1.1,4.9-2.9,9.3-3.9,14.4l0.1,0c0-0.1,0.1,0,0.2-0.1c0.1,0.3,0,0.7,0.2,0.9c0.1-0.4,0.4-0.8,0.6-1.1     c0.3,0.7,1,1.2,1.4,1.9c1.9,2.6,3,5.4,4.6,8c0.3,0,0.1-0.4,0.2-0.5c1.4,0.7,2.8,1.8,3.4,3.3c-2.9,10.6-7.7,21-13.5,30.3     c0.4,0,0.8-0.1,1.2-0.1c5.3-8.9,10.1-18.7,12.8-28.8c0.2,0.1,0.6-0.1,0.7-0.4c0.3-1.7-1.3-2.6-2.2-3.8c-0.8-0.6-1.6-1.1-2.6-1.5     c-1.4-3.3-3.2-6.8-5.9-9.1c0.1-0.3,0.2-0.5,0.2-0.7c0.6-2.2,1.6-4.8,2-6.9c0.1-0.4,0.2-0.9,0.3-1.3c0.8-2.9,1.5-6.2,2.5-9.4     c1.7-3.4,2.9-7,3.1-10.8l-0.2-0.3L153.3,59.3z" />
			<path stroke="#1D1719" stroke-width="0.65" d="M150.3,64.6L150.3,64.6c-0.1,0.1-0.1,0.1,0,0.1C150.2,64.7,150.3,64.7,150.3,64.6z     " />
			<path fill="#FFFFFF" stroke="#1D1719" stroke-width="0.65" stroke-linecap="square" stroke-miterlimit="2" d="M146.4,55.1     c1.3,0.2,2.3,0.6,3.5,1.3c-0.6-0.9-1.8-1.4-3-1.4L146.4,55.1z" />
			<path fill="#FFFFFF" stroke="#1D1719" stroke-width="0.65" stroke-linecap="square" stroke-miterlimit="2" d="M150.3,56.4     c-0.2,0.1,0.1,0.2,0.2,0.3l0.2,0.1C150.5,56.6,150.4,56.5,150.3,56.4z" />
			<path fill="#FFFFFF" stroke="#1D1719" stroke-width="0.65" stroke-linecap="square" stroke-miterlimit="2" d="M145.3,55.9     l-0.5,0.4c-0.1-0.2-0.1-0.4,0-0.5l0.2-0.1l0,0c-0.5,0.3-0.5,0.8-0.6,1.4c0.4,0.6-0.1,1.3,0,1.9c-0.1,1.1-0.4,2.2,0.4,3.1     c1.7,0.4,3.4,0.9,5,1.7c1.4-1,1.8-2.9,2.5-4.4c-0.1-1-0.8-1.5-1.5-1.9C149,56.4,147.2,55.4,145.3,55.9z" />
			<path stroke="#1D1719" stroke-width="0.65" d="M120.8,60.7l-0.1,0.2C120.7,60.8,120.7,60.7,120.8,60.7z" />
			<path stroke="#1D1719" stroke-width="0.65" d="M122.5,52.5c-0.4-0.3-1-0.5-1.2-0.9c-0.2,0.2-0.3-0.1-0.5-0.2     c-1.1-0.2-2.2-0.8-3.3-0.6c-0.1-0.4-0.3,0-0.5-0.2c-0.2,0.3-0.5,0.1-0.9,0.2c-2.1,0.4-3.1,2.2-4,3.9c-1.1,2.3-1.2,4.6-1.5,6.9     c-0.4,0.3,0.1,0.4,0,0.7c-0.2,1.5-0.3,3-0.4,4.6c-0.4,4-0.8,7.9-1.3,11.8c0.2,0.5,0.1,1.3-0.1,1.9c0.2,0.8-0.2,1.6-0.1,2.4     C108,89.6,108,96.4,106,103c-0.4,1.4-0.6,2.7-1.1,4.1c-0.6-0.3-1.2,0-1.8,0.2c-0.6,0.7-1.3,1.3-1.4,2.3c-1.2,3.2-2.3,7-3,10.4     c-0.7,1.6-0.8,3.4-1.2,5c-0.6,2.4-0.8,4.9-1.3,7.3l-0.1,0c0.2,0.1,0.2,0.3,0.1,0.4c0,0.2-0.2,0.3-0.3,0.3c-0.1,1.1,0,2.2-0.1,3.2     c0.3,0.6,0.1,1.4,0.2,2.1c0.2,4.1,0.6,8.4,0.3,12.6c0,1.6,0,3.2-0.1,4.7c0.3-0.2,0.6-0.4,0.9-0.6c0.1-1.3,0.1-2.7,0.2-4     c0-2.7,0-5.2-0.1-7.9c0-2.8-0.3-5.6-0.4-8.4c0.2-0.1,0-0.5,0-0.6c1.1-8,3-16.3,6-24.2c0.4-0.9,0.7-2.1,2-2.2     c-0.2,1.5-0.9,3.4-1.3,5.2c-0.3,0.9-0.5,1.7-0.7,2.6c-0.7,2.1-0.6,4.8-1.4,6.8l-0.1,0.9c0.3-0.2,0.1-0.9,0.4-1.4     c0.1-0.6,0.4-1.4,0.4-1.9c0.8-0.9,0.9-2.4,1.2-3.5c1.2-4,2.2-8.1,3.2-12l0.1,0c0.6-2.4,1.3-4.9,1.6-7.3l0.3-0.2     c-0.4-0.3,0-0.8,0-1.2c0.1-1.2,0.6-2.6,0.5-3.8c-0.2-0.1-0.4,0-0.3-0.3c0.6-4.9,0.8-10,1.4-14.9c0.3-0.1,0-0.3,0.1-0.4     c0.8-6.5,1.3-13.1,2.5-19.5c0.3-0.6,0.4-1.4,0.9-1.9c-0.1-0.3,0.3-0.4,0.3-0.7c0.4,1.5-0.2,3.1,0.1,4.7c0.4,0.3,0.7,0.7,1.2,0.6     c1.3-0.2,2.6-0.3,3.9,0.2c0.4,0.5,1.8,0.1,1.6,0.9l0.1-0.3c0.2,0.9-0.3,2,0.1,3c-0.2,4.8,0.4,9.6,0.5,14.5     c-0.2,0.3-0.5-0.3-0.7,0.2c-1-0.4-2.4-0.6-3.5-0.7c-0.1,0.2-0.3,0-0.5,0c0,0.1-0.1,0-0.1,0.1c0.8,0,1.8,0.4,2.6,0.3l2.1,0.7     c0,0.5,0.2,0.9,0.1,1.3c-1.5-0.5-3.4-1.2-5-1.3c-0.5-0.2-1-0.4-1.4-0.5l0,0.1c2.2,0.7,4.7,1.3,6.6,2.5c-0.2,0.8,0.6,2.3-1,2.2     c-2,0.2-4.2-0.8-6-1.2c0.2,0.1,0.6,0.4,0.9,0.4c1.9,0.7,4,1.7,6,1.1c0,1.1-0.1,2.4-0.3,3.4l0.1,0.4c-0.4,6-0.5,12-0.6,17.9     c0.3,0.9-0.1,1.8,0.5,2.6c0.1,0.2,0,0.5,0.3,0.5l0.1,0c0.3-1.1-0.2-2.2-0.1-3.3c0.3-0.2,0.4,0.3,0.7,0.3c0.5,0.3,1,0.1,1.5,0.2     c0.2-0.1,0.4-0.5,0.3-0.7c-0.5-0.6-1.4-0.1-1.9-0.7c-0.2-0.1-0.5,0-0.7,0.1c0.2-5.8,0.3-11.7,0.8-17.6l0.4,0.3     c0.2-0.5,0.1-0.9,0.2-1.4c-0.1-2-0.6-4.1-0.2-6.1l0.2-0.1c-0.5-0.6,0.2-1.6-0.4-2.1c-0.6,0.1-0.1-0.5-0.3-0.7     c-0.2-5.3-0.8-10.7-0.3-16.1C122.7,57.4,123.5,54.9,122.5,52.5z" />
			<path fill="#FFFFFF" stroke="#1D1719" stroke-width="0.65" stroke-linecap="square" stroke-miterlimit="2" d="M116.4,52.1     c-0.8,0.3-1.5,0.8-1.8,1.4c0.5-0.6,1.7-1,2.6-0.9c0.2,0.3,0.5,0,0.7,0c1,0,1.8,0.3,2.7,0.7c0.4,0.3,0.7,0.6,1.3,0.7     c0.2-0.9-0.9-1-1.4-1.5C119.1,52.2,117.7,51.6,116.4,52.1z" />
			<path fill="#FFFFFF" stroke="#1D1719" stroke-width="0.65" stroke-linecap="square" stroke-miterlimit="2" d="M118.2,53.1     c-1.2-0.3-2.6,0-3.7,0.8l0.1,4.2c0.4,1.1,1.5,0.6,2.4,0.7c0.7,0,1.4,0,2,0.1c0.3-0.2,0.7-0.1,1,0l0.1-0.2     c0.1-0.1,0.2,0.1,0.2,0.3c0.3-0.2,0-0.6,0.4-0.5c0.3-1.3,0.7-2.6,0.9-4c-0.6-0.7-1.7-0.9-2.4-1.4C118.9,53.4,118.6,53,118.2,53.1     z" />
			<path fill="#FFFFFF" stroke="#1D1719" stroke-width="0.65" stroke-linecap="square" stroke-miterlimit="2" d="M121.5,57.9     L121.5,57.9c0.3-0.4,0.2-1.1,0.4-1.6C121.5,56.8,121.7,57.4,121.5,57.9z" />
			<path stroke="#1D1719" stroke-width="0.65" stroke-linecap="square" stroke-miterlimit="2" d="M140.8,81.9l2,0.7     C142.1,82.2,141.6,82.1,140.8,81.9z" />
			<polygon stroke="#1D1719" stroke-width="0.65" stroke-linecap="square" stroke-miterlimit="2" points="143.9,83.1 143.1,82.6      143,82.6    " />
			
				<rect x="140.6" y="81.8" transform="matrix(0.9508 0.3099 -0.3099 0.9508 32.2665 -39.5497)" stroke="#1D1719" stroke-width="0.65" stroke-linecap="square" stroke-miterlimit="2" width="0.1" height="0.1" />
			
				<rect x="140.4" y="81.7" transform="matrix(0.9443 0.3291 -0.3291 0.9443 34.7261 -41.6715)" stroke="#1D1719" stroke-width="0.65" stroke-linecap="square" stroke-miterlimit="2" width="0.1" height="0.1" />
			
				<rect x="139.9" y="81.6" transform="matrix(0.9444 0.3288 -0.3288 0.9444 34.625 -41.4783)" stroke="#1D1719" stroke-width="0.65" stroke-linecap="square" stroke-miterlimit="2" width="0.1" height="0.1" />
			<path stroke="#1D1719" stroke-width="0.65" stroke-linecap="square" stroke-miterlimit="2" d="M135.4,82.4     c0.4,0.2,0.5-0.3,0.8-0.4c0.5-0.5,1.2-0.1,1.8-0.5l1.8,0.1C138.3,81.3,136.5,81.3,135.4,82.4z" />
			<polygon stroke="#1D1719" stroke-width="0.65" stroke-linecap="square" stroke-miterlimit="2" points="144.3,83.4 144.3,83.2      144.1,83.2    " />
			<polygon stroke="#1D1719" stroke-width="0.65" stroke-linecap="square" stroke-miterlimit="2" points="136.9,83.4 136.8,83.4      136.6,83.3    " />
			<path stroke="#1D1719" stroke-width="0.65" stroke-linecap="square" stroke-miterlimit="2" d="M137.8,83.7l-0.2-0.1L137.8,83.7z" />
			<path stroke="#1D1719" stroke-width="0.65" stroke-linecap="square" stroke-miterlimit="2" d="M139.3,84.5l0.9,0.3     c-0.1-0.4-0.7-0.1-0.9-0.5L139.3,84.5z" />
			<polygon stroke="#1D1719" stroke-width="0.65" stroke-linecap="square" stroke-miterlimit="2" points="139.2,84.4 138.7,84.1      138.1,83.9    " />
			<path stroke="#1D1719" stroke-width="0.65" stroke-linecap="square" stroke-miterlimit="2" d="M112.6,77.5c0.4,0.2,0.7,0,1.2,0.1     c-0.1,0-0.1,0-0.1-0.1c0.8-0.3,1.8-0.1,2.6-0.3c0.1,0,0.2,0.3,0.3,0.2c0.1-0.2-0.5-0.4-0.7-0.2c-1.1,0.2-2.1,0.1-3.2,0.3     L112.6,77.5z" />
			<polygon stroke="#1D1719" stroke-width="0.65" stroke-linecap="square" stroke-miterlimit="2" points="114.5,77.8 115,77.9      115,77.8 114.6,77.8    " />
			<path stroke="#1D1719" stroke-width="0.65" stroke-linecap="square" stroke-miterlimit="2" d="M113.9,77.6c0,0.1,0.1,0.1,0.2,0.1     l0-0.1C114,77.7,114.1,77.5,113.9,77.6z" />
			
				<rect x="141.2" y="92.6" transform="matrix(0.9507 0.3102 -0.3102 0.9507 35.739 -39.2405)" stroke="#1D1719" stroke-width="0.65" stroke-linecap="square" stroke-miterlimit="2" width="0.1" height="0.4" />
			<path stroke="#1D1719" stroke-width="0.65" stroke-linecap="square" stroke-miterlimit="2" d="M100.9,124.3     c-0.1,0.7-0.5,1.4-0.6,2.1l-0.1,0.1c0.3,0.1-0.1,0.3-0.1,0.4c-0.3,1-0.3,2-0.8,3c0.1,0.2,0.2,0.1,0.4,0.1c0-0.7,0.5-1.2,0.3-2     c0.8-1.1,0.9-2.9,1.2-4.4L100.9,124.3L100.9,124.3z" />
			
				<rect x="136.3" y="148.5" transform="matrix(0.9585 0.285 -0.285 0.9585 48.0164 -32.7054)" stroke="#1D1719" stroke-width="0.65" stroke-linecap="square" stroke-miterlimit="2" width="0.1" height="0.2" />
			
				<rect x="134.7" y="151.7" transform="matrix(0.9527 0.3041 -0.3041 0.9527 52.5288 -33.7853)" stroke="#1D1719" stroke-width="0.65" stroke-linecap="square" stroke-miterlimit="2" width="0.1" height="0.2" />
		</g>
		<path fill="none" stroke="#1D1719" stroke-width="1.625" d="M135.3,152.3c0,0-5.1,9.1-6.7,13" />
	</g>
	<line fill="none" stroke="#1D1719" stroke-width="1.625" x1="97.2" y1="152.5" x2="91.1" y2="169.2" />
	<line fill="none" stroke="#1D1719" stroke-width="1.625" x1="130.2" y1="159.4" x2="123.9" y2="177.8" />
</g>
<g>
	<g>
		<path d="M224.1,107.5c-3.1-1.8-5.9-4.1-8.8-6c-2.5-5.1-6.2-9.6-9.6-14.4c-1.6-0.4-2.7-3.3-4.9-1.9c-5.5-0.3-9.9,3.6-14.3,6.6    l-0.7-0.9c0.2-4.7,0.1-14.6-2.1-18.5c0.3-4.3,0-10.4-3-13.7c-2-2.1-4.7-1.3-7.1-0.8c-0.7,0.8-0.2,2.4,0,2.7h-0.1    c0.5,2.2,0.4,6.7,0.1,9.2l0.3,0.5c-1,4-0.9,12-1.5,16.1c0,1,0.3,2.1-0.2,3c1.3,1.4,0.8,4.4,1.4,5.4c2.2,3.2-2.9,4.7-3.2,7.6    c-3.5,3-1.4,7.9-1.3,11.7c1.6,11.5,5.2,23.5,2.4,35.2c-0.2,0.2-0.3,0.5-0.5,0.7c2.4,1.9,5,3.7,7.5,5.4c8.2,0.2,16,2.6,23.6,5.6    c0.4-0.7,0.7-1.3,1-2c2.7-2.5,5.3-4.8,6.9-8.1c1.1-2.1,3-4,3.8-5.9c4.4-7.6,8-16.1,8.4-25C223.1,116,225.6,111.8,224.1,107.5z" />
		<path fill="#FFFFFF" stroke="#FFFFFF" stroke-width="0.6896" d="M204.8,153.8l0.2,0.1c3.3-3,5.1-7.4,7.6-11    c4.1-7.9,7.5-15.1,7.1-24.4c2.1-2.6,2.5-6.4,2.6-9.8c-0.7-0.8-1.8-1.2-2.6-1.8c0,1.9,0.2,4.3-0.7,6c-0.7,0.3-0.2-0.4-0.6-0.7    c-2-1.6-3.8-4-4-6.6c-0.4-0.8,1.3-2.3-0.2-2.3l-0.3,0.7c-1.1-0.3-1.5,1.8-2.9,1.4c-1.3-3.1-2.9-5.9-5.3-8.6    c-1.1-2.4-3-4.5-5.3-6.6c-4.6,1.3-9.6,2.9-13.2,5.9c0.4,2.3,0.9,3.8,0.7,6.2c-0.3,0.1-0.7,0.4-1.2,0.3c-1.1-2.2-1-5.5-1.5-7.9    c-0.3-1.3-0.3-2.9-1.4-3.7c0.1-4.1-0.2-8-1.2-12.2c-0.2-0.9-1.8-5.8-0.6-6.5c-0.5-4.4,0-12.2-5.2-13.8C176,69,172,86.5,176.4,96.8    c0,4.4,0.9,10-0.2,14.2c-0.8,0.7-0.8-0.3-1.3-0.8c-0.5-3.1,0.2-6.7-0.7-9.8c-1.4,1.8-2.2,4-3.5,5.6c0.5,9.7,3,20,4.1,29.4    c-0.1,5.5,0,11.8-1.8,16.8c-0.1,0-0.1,0-0.2,0.1c8.1,4.5,16.7,8,25.5,10.8C200.3,159.9,201.7,156,204.8,153.8z" />
		<path fill="#FFFFFF" d="M175.6,58.9c0.5,0.8-0.3,5.5-0.5,6.3C175.4,64.3,173.3,58.7,175.6,58.9z" />
		<path stroke="#FFFFFF" stroke-width="0.6896" d="M187.8,153.9c3.4,0.2,6.8-1,9.9-2.4c0.5,0.2,0,0.7,0,1c-2.4,2.3-5.5,2.5-8.8,3    C188.5,155,187.4,154.9,187.8,153.9z" />
		<path fill="#FFFFFF" d="M193.4,89.7v-0.2c0.7,0.2,1.9-1.5,3.1-1.5c2.1-0.9,4.2-1.5,6.2-0.4c4.2,4.2,7.7,9.3,10.3,14.1    c0,0.4-0.4,0.8-0.8,0.9c-3.2-4.6-5.6-9.7-10.4-13.3c-5.1-0.7-9.6,1.4-13.6,4C189.9,91.7,191.9,90.6,193.4,89.7z" />
		<path d="M190.1,100.5c1.9,0.4,2.9,4.6,5.2,1.9c1.4-0.4,3.2-2.7,4.4-1.4c-2.3,2.5-1.6,6-0.7,8.8c0.7,1,1.4,2.6,2.6,2.6v-0.2l2,0.4    c-1.5,2.6-0.8,6.5,0.9,9c0.7,1,1.5,1.2,2.4,1.5c0.2-3.1-0.3-6.7,2.6-8.8l1.5-0.2c0-2.4-1-4.5,0.1-6.7c2.3-0.3,1.1,2.4,2.1,3.4    c0.8,1.8,2.2,4.6,4.4,4.6c0.6,1-0.2,1.5-1.1,1.9c-1-0.2-1.8-0.3-2.7,0.2c0-0.1,0.1-0.3-0.1-0.3l-0.2,0.1c-0.8,2.4,1.2,5.7-1.9,6.5    c-1.1,1.5-3.1,1.3-4.7,1.3c-2.2-0.3-4-2.1-5.1-4c-1.8-2.4,0.5-6.9-3.1-8.1c-2.1-2.1-2.1-4.8-2.6-7.9l-3.5-0.2    c0.8,2.3,0.7,5.5,1.5,7.8l-0.9,1.4c2.5,5.4,5.7,10.4,7.4,16.1l-0.9-0.9c-1.9-4.9-5.1-9.6-7-14.4l-1.2-0.8l0.3-0.2    c0.1-3.1-0.6-6.4-1.4-9.2h0.3C191.2,103.4,188.8,101.9,190.1,100.5z" />
		<path fill="#FFFFFF" d="M196.2,104.1c0.1,0.7-0.7,1.2-1.3,0.8L196.2,104.1z" />
		<path stroke="#FFFFFF" stroke-width="0.6896" d="M201.7,130.8c1.6-0.3,2.2,1.5,2.6,2.5c1.1,3,3.1,6.9,0.3,9.7    c0.3,0.8,0.2,1.7-0.3,2.2c-0.9,0.2-0.9-0.8-0.9-1.2c0-0.9,0.8-1.1,0.9-2c0.2-3.7-0.7-7.7-2.9-10.3L201.7,130.8z" />
		<path fill="#FFFFFF" d="M210,115l1.1,0.3c0.4,2.4,0.4,4.9,0,7.4l-3.1,0.6C207.7,120.7,207.7,116.7,210,115z" />
		<path fill="#FFFFFF" d="M215.8,104.3c1.3,0.4,1.8,1.8,2.9,2.1c0.7,1.4,0.1,3.1,0,4.5c-2-0.7-2.7-2.7-3.3-4.6    C215.5,105.6,215.1,104.6,215.8,104.3z" />
		<path fill="none" stroke="#000000" stroke-width="1.0998" d="M211.8,108.7c-0.8-2.4,0.3-4.3,1.1-5.2" />
	</g>
	<line fill="none" stroke="#1D1719" stroke-width="1.724" x1="174.2" y1="147" x2="164.9" y2="163.6" />
	<line fill="none" stroke="#1D1719" stroke-width="1.724" x1="202.3" y1="156.3" x2="196.3" y2="173.4" />
</g>
<g>
	<path d="M301.5,131.3c0,0,0.1,0,0.1-0.1C301.6,131.2,301.6,131.2,301.5,131.3z" />
	<path d="M301.4,131.2c-0.4,0,0,0.2-0.1,0.4l-0.2-0.2c-0.1,0.1-0.4,0.3-0.7,0.3c-0.2-0.1-0.2,0.4-0.5,0.2c-0.6,0.8-1.5,0.6-2.2,1.2   l0.1,0.1l-0.2,0.3c0.4,0,0.6-0.4,1-0.5c0.8-0.6,2-0.6,3-1.2c0.2,0.2,0.5-0.2,0.7-0.2c-0.2-0.2-0.5,0.2-0.6,0c0-0.1,0-0.1,0.1-0.2   c0,0,0,0-0.1,0L301.4,131.2z" />
	<path d="M244.8,117.8C244.8,117.8,244.9,117.8,244.8,117.8L244.8,117.8L244.8,117.8z" />
	<path d="M321.9,139.8c0.3-1.3-0.5-2-0.9-3c-0.3-0.9-0.6-2-1.1-2.8c-0.9-2.5-2.4-4.8-3.7-7.2c-0.5-0.9-1-1.9-1.5-2.8   c-2.7-3.2-5.4-6.9-8.6-9.9c-0.9-3-2.9-6.1-6-7.6c-1.1-0.1-2.2-0.6-3.4-0.7c-3.8-1.4-7.9-2.7-11.9-3.8c-2.5-1-5.1-1.7-7.6-2.6   c-1.8-0.5-3.6-1.3-5.5-1.6c-1.2-1-2.7-1.1-4.1-1.3c-1.8-0.2-3.5-0.4-5.2-0.4c-3.2,0.3-6.1,1.4-9,2.7c-0.1,0.6-0.3,1.2-0.4,1.8   c3.5-1.7,7.1-3.1,11-2.9c0.1-0.1,0.3-0.1,0.4,0.1c0.4-0.4,0.8,0.2,1.2,0c0.9,0.3,1.7,0.1,2.6,0.4c3.1,0.8,6.2,1.8,9.3,2.8   c0.2,0.1,0.3,0.4,0.5,0.1c1.1,0.4,2.1,0.7,3.3,1.1c0.5,0.4,1.2,0.3,1.6,0.7c0.8,0.2,1.5,0.4,2.1,0.8c0.7,0.1,1.5,0.4,2.2,0.6   c1.5,0.7,3.1,0.9,4.5,1.7c0.9-0.3,0.7,0.8,1.3,1c1.2,0,2.5,0,3.4,0.6c0.5-0.2,1.2-0.2,1.7,0c1.5,0.2,2.8,1,3.8,2.2   c0.5,0.7,1.1,1.4,1.4,2.2c-0.4,0.2-0.9,0.3-0.7,0.9c0.2,0.4,0.4,0.6,0.7,0.8c2.8,3,5.6,5.5,7.9,8.7l-0.7,0.2   c-0.4-0.1-0.8,0-1.2-0.2l0.1-0.2l-0.5,0.1l0.4,0.1c-0.2,0.3-0.6,0.3-0.9,0.4l0.1,0.1c0.7-0.2,1.9-0.2,2.6,0.1   c-0.9,0.1-1.5,0.7-2.4,0.8c-0.1,0.1-0.1,0.4-0.3,0.2c-0.7,0.2-1.3,0.7-1.8,1.1c1.2-0.5,2.5-1.1,3.8-1.3c1.1-0.4,0.4,0.8,0.9,0.9   c0.5-0.2,0.6-0.8,0.7-1.2c0.4,0.3,0.8,0.6,0.8,1.1c1.6,2.4,2.9,4.7,4.1,7.2c0.7,1,1.2,1.9,1.7,3l-0.3,0.2c-0.8,0-1.8,0.6-2.7,0.5   c-0.5,0.3-1.1,0.3-1.5,0.6l0.1,0.1c0.7-0.2,1.5-0.7,2.2-0.5c0.2-0.2,0.8-0.2,1.2-0.3c0.2,0.1,0.3,0.5,0.5,0.2   c0.4,0.6,0.9,1.1,1.2,1.8c0.5,0.4,0.8,1.2,1.1,1.9c-1.2,0.3-2.2,0.2-3.4,0.5c-0.9,0.4-2,0.6-2.9,1.1c-0.5,0.2-0.9,0.5-1.5,0.6   c-0.9-0.4-0.8-1.5-0.9-2.2c0.1-0.4,0.4-0.8,0.3-1.2l-0.2,0.1c0.2,0.3-0.2,0.9-0.1,1.3c-0.1,0.6-0.1,1.2,0,1.7   c0.4,0.5,0.5,1.3,1.4,1.2c2.1-1.6,4.7-2.3,7.4-2.5c0.6,0.2,0.2,1.1,0.3,1.6c-0.7,2.1-2.4,4.2-4.5,4.8c-0.4,0.2-0.9-0.1-1.2,0.2   c0.2,0.7,0.7,0.4,1.2,0.6c2.2,0.1,4-1.8,5-3.5C321.8,142,322.9,140.9,321.9,139.8z" />
	<path d="M257.3,132.8c0.4,0.2,0.7,0.4,1.1,0.6c0.1,0.4,0.2,0.6,0.2,0.9c1.7,4.7,4,8.9,7.4,12.9c0.4,0.5,0.5,1.2,1.1,1.7   c3.2,2.1,7.3,1,10.3-0.6l3.4-0.1c0.6-0.4,1.5-0.5,2.1-0.8c1.2-0.8,2.7-1.5,3.7-2.7c0.3-1.1,0.2-2.4-0.3-3.5   c-0.7-2.6-1.2-5.4-1.8-7.9c3.7,2.7,7,6.4,10.2,9.9c-0.2,0.7,0.1,1.3-0.1,1.9c0.2,0.9,0.1,1.9-0.1,2.8c-0.5,1.8-2.6,2.2-4.1,2.8   l-0.2-0.3c-0.3-0.2-0.6-0.2-0.9,0.1c-1.1,1.9-2.4,3.9-3.6,5.9v0.5c-1.3,0.2-2.8,0.2-3.8-0.8c-0.9-1.3-0.7-3.4-0.4-4.7   c-0.2-0.7,0.5-0.9,0.2-1.7c-0.2-0.4,0.2-1.5-0.7-1.4c-0.8,0.8-0.7,2.1-0.9,3.2l-0.1,0.1c-0.2,1.6-0.1,3.1,0.5,4.7l-0.1,0.1   c0.5,0.3,0.8,1,1.3,1.2c1.4,0.6,3.3,0.7,4.6-0.3c1.7-2.1,2.8-5.3,5.6-5.9c0.8-0.5,2-0.7,2.8-1.5c1.4-1.3,1.2-3.4,1.1-5.2l0.1-0.1   l2.6,2.7c0.8,0.9,1.5,1.9,2.4,2.5c0.6,0.7,1.4,1.2,1.7,2.1c1.1,1.7,2.5,3,4.2,3.8c1.4,0.6,3.1,0.2,4.6,0c1.1-0.4,2.4-1.1,3.1-2.3   c0.1,0.1,0.4-0.1,0.3-0.3c1.2-1.2,1.2-3.1,0.8-4.7c-1.8-2.2-2.8-4.8-4.7-6.9c-2.5-3.5-4-7.6-6.6-11.1c-0.1-0.2,0.4-0.1,0.2-0.3   h-0.2c-0.9-0.5-1.5-1.9-2.6-2.1c-2.4-2.8-5-5.7-7.2-8.6c-0.2-0.5-1.1-1.1-0.8-1.7c-0.1-1.4-0.5-2.7-0.7-4.1   c-1.4,0.1-0.4,1.6-0.6,2.4c-0.3-0.2-0.3-0.5-0.5-0.8c-0.3,0-0.5,0.1-0.8,0.3c-0.1,0.4,0,0.7,0.1,1.1c1.1,2.4,2.7,4.4,4.4,6.5   c2,2.5,4.4,4.7,6.5,7.4c-0.3,0-0.6,0.2-0.8,0.4c0.2-0.1,0.5,0.2,0.6-0.2c0.6-0.2,1.1,0.7,1.5,1.1c2.5,3.8,4.3,8.1,7,11.6   c-0.9,0.2-2,0.2-2.9,0.7c-0.3,0.1-0.4,0.5-0.7,0.5c-0.3,0.2-0.5,0.5-0.4,0.8c1-0.8,2.2-1.4,3.7-1.3c0.6-0.1,0.7,0.8,1.1,1   c1.1,1.9,3.4,3.3,2.5,5.8c-0.6,2-2.7,3.5-4.7,3.7c-0.9,0.1-1.8,0.1-2.5-0.3c-2.2-0.5-3-2.9-4.5-4.3l-0.2-0.4   c-2.4-3.1-5.3-6.1-8-9.2l-0.1-0.3c-2.7-2.7-5.6-5.9-8.6-7.9c-0.4-0.1-0.7-0.1-0.9,0.3c-0.7-3.1-1.5-6.2-1.8-9.5   c-0.5-0.7,0.6-1.9-0.7-1.8c-0.4,0.1-0.5,0.5-0.5,0.8c0.1,4.8,1.4,9.3,2.4,13.8c0.2,2.7,2.2,5.1,1.4,7.9c-2.2,1.9-5,3.5-7.9,2.8   c-2-6.1-4.4-12.1-7.2-17.9c-0.4-0.4-0.4-1.5-1.2-1.1c-0.2,0.3,0.1,0.5,0,0.8c2.7,5.8,5,11.8,7.3,17.7l-0.1,0.1   c0.2,0.4,0,0.8-0.2,1.2c-2.3,1.2-5,1.7-7.5,0.8c-0.4-0.2-1.1-0.5-0.9-1.1c-1-1.8-2.7-3.3-3.7-5.1c-1.7-3-3.4-5.9-4.2-9.2   c-0.6-0.5-0.4-2-1.4-2c-0.2,0.2-0.6,0.4-0.6,0.7c-0.1,0-0.1-0.1-0.2-0.1C257.5,132,257.4,132.4,257.3,132.8z" />
	<path d="M310.2,121.9C310.2,122,310.1,122,310.2,121.9L310,122v-0.1C310,121.9,310.1,121.9,310.2,121.9z" />
	<path d="M307.8,122.4L307.8,122.4L307.8,122.4z" />
	<rect x="308.3" y="122.5" width="0.1" height="0.1" />
	<path d="M307.3,122.6c0.1,0.2-0.2,0.1-0.3,0.3v-0.1C307.3,122.9,307.1,122.5,307.3,122.6z" />
	<path d="M308.2,122.6c-0.1,0.1-0.2,0.1-0.2,0.1C307.9,122.6,308.1,122.6,308.2,122.6z" />
	<path d="M307.7,122.8l-0.4,0.1c-0.1,0.2,0.1-0.2,0.2-0.1C307.6,122.8,307.7,122.8,307.7,122.8z" />
	<rect x="306.3" y="122.9" width="0.1" height="0.1" />
	<path d="M306.9,123.1c0.1,0.1-0.1,0.2-0.2,0.2C306.7,123.2,306.9,123.2,306.9,123.1z" />
	<path d="M305.8,123.3L305.8,123.3L305.8,123.3z" />
	<path d="M306.5,123.3c-0.2,0.2-0.4,0.2-0.7,0.3C306,123.4,306.3,123.4,306.5,123.3z" />
	<path d="M305.6,123.6c0.2,0.5-0.6,0.2-0.6,0.7c-0.5,0.2-1,0.7-1.3,1.2c-0.1,0.1-0.2,0-0.2-0.1c0.2-0.2,0.2-0.6,0.6-0.8   c0.2,0.1,0.2-0.3,0.4-0.4l0.4-0.2c0,0.1,0.1,0.1,0.1,0.1c0.2-0.1-0.1-0.4,0.2-0.4h0.2l-0.1,0.1c0.1,0.1,0.1,0.1,0.2,0.1   C305.6,123.8,305.6,123.7,305.6,123.6z" />
	<path d="M306.4,124.8c-0.1,0.5-0.5,0.4-0.8,0.6c-0.2,0.4-1.1,0.8-0.5,1.2v0.2c-0.2,0.1-0.4-0.1-0.5-0.3c0.1-0.7,0.7-0.7,1-1.3   C305.9,125.2,306.3,125.1,306.4,124.8z" />
	<rect x="296" y="130.3" width="0.1" height="0.1" />
	<path d="M296.2,130.5c0,0.1,0,0.1-0.1,0.1L296.2,130.5L296.2,130.5z" />
	<path d="M295.7,130.7c-0.1,0-0.5,0.1-0.4,0.2l-0.1-0.1l0.3-0.3L295.7,130.7z" />
	<path d="M295.1,130.9l-0.3,0.2L295.1,130.9z" />
	<polygon points="294.6,131.3 294.6,131.2 294.7,131.2  " />
	<rect x="294.4" y="131.5" width="0.1" height="0.1" />
	<rect x="294.3" y="131.6" width="0.1" height="0.1" />
	<rect x="293.8" y="131.9" width="0.1" height="0.1" />
	<path d="M293.6,132.2l-0.2,0.2L293.6,132.2z" />
	<path d="M293.1,132.6l-0.2,0.1l0.1-0.1C292.9,132.6,293,132.5,293.1,132.6z" />
	<rect x="297.7" y="132.5" width="0.1" height="0.1" />
	<rect x="297.1" y="132.8" width="0.1" height="0.1" />
	<path d="M296.9,133.1h0.1H296.9z" />
	<path d="M295.6,133.9c0.1-0.2,0.2,0.1,0.3,0.1l0.1,0.1c-0.5,0.2-1-0.2-1.5-0.3l-0.5-0.2l0.2-0.2   C294.6,133.5,295.1,133.6,295.6,133.9z" />
	<path d="M297.3,133.4c0.1,0.1,0,0.2-0.1,0.2c-0.1-0.1-0.2,0.1-0.2-0.1C297,133.5,297.2,133.3,297.3,133.4z" />
	<path d="M297,133.7c-0.4,0.4-0.9,0.8-1.6,1.1v-0.1C295.9,134.4,296.4,133.8,297,133.7z" />
	<rect x="292.1" y="133.8" width="0.1" height="0.1" />
	<path d="M318.6,134.4v0.1c-0.2,0.2-0.5-0.2-0.7-0.1C318.1,134.1,318.4,134.5,318.6,134.4z" />
	<rect x="315.8" y="134.8" width="0.1" height="0.1" />
	<rect x="295" y="134.9" width="0.1" height="0.1" />
	<path d="M314.6,135.3c-0.1,0.1-0.1,0.1-0.2,0.1C314.5,135.4,314.5,135.3,314.6,135.3z" />
	<rect x="315.8" y="135.6" width="0.1" height="0.1" />
	<path d="M313.3,136.2c-0.1-0.1,0-0.3,0.1-0.4C313.6,135.9,313.3,136,313.3,136.2z" />
	<polygon points="314.7,135.9 314.8,135.9 315,135.9  " />
	<path d="M313.1,136.1c0.1,0.2-0.3,0.4,0.1,0.5c-0.3,0.5-1.2,0.5-1.2,1.2c-0.5-0.1,0-0.5,0-0.8C312.2,136.6,312.7,136.4,313.1,136.1   z" />
	<path d="M313.4,136.5c-0.1,0.1-0.1,0.1-0.1,0.2C313.2,136.5,313.3,136.5,313.4,136.5z" />
	<path d="M255.7,144.9c0.4-0.6,0.6-1.5,1.1-2.1c-0.1-0.1-0.4-0.2-0.7-0.1c1.3,0.1,1.4-1.8,2.2-2.5c0.2-0.4,0.4-0.7,0.9-0.8   c0.5,0.1-0.2,0.6,0.3,0.8c-2.5,5.3-5.4,10.6-8.2,15.8c-0.1,0.5-0.7,0.8-0.7,1.4c-0.2,0.2-0.4,0.5-0.4,0.9c-1.1,1.6,0.5-0.8-0.7,0.8   c0.1,0.3-0.3,0.2-0.4,0.5c0,0.5-1-0.3-1.1,0.1L255.7,144.9z" />
	<path d="M305.3,146.1c-0.4,0.7-0.2,1.7-0.3,2.4c0.1,0.6,0.2,1.2,0.6,1.6c0.5,0,0.7,0.8,1.2,0.7c0.7-0.4,1.2-0.8,1.9-0.9   c0.2-0.3,0.6-0.2,0.9-0.4c1.1-0.6,2.1-0.8,3.3-1.1c0.1,0.1,0.2,0.2,0.2,0.4c-0.7,0.2-1.4,0.3-2,0.5c-0.8,0.3-1.5,0.8-2.2,1.2   l0.1,0.2c-0.4-0.3-0.8,0.5-1.3,0.7c-0.4,0.2-0.8,0.5-1.2,0.2c-0.3-0.1-0.5-0.4-0.8-0.5c0-0.4-0.7-0.5-0.4-0.9   c-0.8-1.2-1-3.3-0.2-4.5C305.3,145.8,305.3,145.9,305.3,146.1z" />
	<path d="M304.5,147.1v0.2V147.1z" />
	<rect x="294.8" y="150.6" width="0.1" height="0.1" />
	<path fill="none" stroke="#1D1719" stroke-width="1.339" d="M253.9,99.3c-7.7,4.9-9.8,9.3-15.5,16c-1.6,1.9-1.3,1.6-4.2,4.9" />
	<path fill="none" stroke="#1D1719" stroke-width="1.339" stroke-linecap="round" d="M247,114.2c0,0-4,10.6,11.6,20.2" />
	<path fill="none" stroke="#1D1719" stroke-width="0.3347" stroke-linecap="round" d="M312.7,136.7c0,0,2.4-2.3,6-1.6" />
</g>
<g>
	<g>
		<path d="M383.4,98.6c-0.4-1.5-0.5-2.5-1-4.1c-0.9-1.3-1.6-2.3-3.2-2.7c-0.9-0.4-0.9,0.4-1.7,0.1c-0.1-0.2-0.8-0.7-0.7-0.9    c-1,0.1,0.9-0.7-0.3-0.2c0-0.9-0.9-0.2-1.3-0.8c0.1-1.5-1.4-0.9-2.2-1.4c-0.2-0.8-0.7-1.4-0.8-2.1c-0.3-0.6-0.6-1.2-0.9-1.8    c-0.2-1-1.1-2.5-2.5-2.7c-0.1-0.5-0.8,0.1-0.7-0.5c-2.6-0.6-5.4,0.7-7.8,1.4c-3.3,0.9-6.2,2.7-9.3,3.7c-0.9,0.9-2.3,0.9-3.1,1.7    l-0.2-0.1c-1.7,1-3.4,1.7-5,2.7c-3.2,0.8-7.2,0.7-9.9,2.8c-0.3,1.6-1.3,3.4-1.2,5.1c-1.3,1.7-2.3,3.3-3,5.1c0.2,0.2-0.1,1-0.1,1.2    c-0.2,0.4,0.1,0.9,0.1,1.4c-0.2,0.7,1,1.7-0.1,2.1c-0.3,1.3-1.4,1.9-1.7,3.2c-0.3,1.7-0.6,3.7,0.1,5.2c0.1,1.4,0.9,2.3,1.2,3.5    c0.2,0.5,0.6,1.3,0.8,1.8c-0.1,0.5,0.2,1.2,0.5,1.5c0.1,1.2,0.2,2.1,0.9,3.1c0,0.5-0.2,1.1,0.3,1.4c0.8,3.3,2.2,6.7,3.1,9.9    c0.3,1.1,0.8,2,0.9,3c0.2,0.4,0.7,1.2,0.8,1.8c0,0.4,0,0.8,0,1.2c3.5,1.2,6.7,2.7,9.9,4.6c5.7,0.9,11.2,1,16.1,0    c1.5-0.2,2.1,2,3.5,1.1c0.1-1.3,1.2-5.4,1.5-6.7c0.2-1.5,1.3-2.9,2.3-4c0.4-0.7,1-1,1.4-1.7c0.4-0.9,0.9-1.9,1.8-2.4    c0,0-0.1-0.2-0.2-0.1l1.1-2c1.9-1.7,2.1-4.9,4-6.7c0.4-1.2,1.2-2.6,1.6-4.1c-0.1-0.8,0.9-1.2,0.3-2c-0.3-0.7,0.1-1.4-0.1-2    c0.1-1,0-2,0.4-3c-0.3-1.5,0.3-3.2,0.7-4.8c0.1-0.3-0.2-0.8,0.2-1c0-0.2-0.1-0.4,0-0.6c0.8-0.6,0.4-2.2,1.7-2.4    c1.4-2,1.3-3.8,1.8-6C383.1,99.8,383,98.9,383.4,98.6z" />
		<path d="M335.1,146.5c3.3,1,6.7,1.8,10,2.3c-3.1-1.8-6.4-3.4-9.9-4.6C335.2,145,335.2,145.7,335.1,146.5z" />
		<path fill="#FFFFFF" d="M369.2,84.7l-0.3,0.1C369,84.8,369.1,84.8,369.2,84.7z" />
		<path fill="#FFFFFF" d="M336.6,146.9c0.1,0,0.2,0.1,0.3,0.1c0-0.1-0.1-0.3-0.2-0.4C336.7,146.7,336.7,146.8,336.6,146.9z" />
		<path fill="#FFFFFF" d="M337.4,144c-0.5,0.8-0.4,2.1-0.5,3c0,0.1-0.7,1.1-0.7,1.1c2.4,0.6,6.5,0.3,8.9,0.7    c-2.4-1.4-4.8-2.6-7.3-3.6C337.8,145.3,337.4,143.9,337.4,144z" />
		<path fill="#FFFFFF" d="M380.9,97.8c0.4-0.6-0.5-0.8,0-1.2c-0.3-0.8-0.3-1.6-1-2.2c-0.7,0.3-0.4-0.8-1.1-0.5    c-0.8-0.1-1.6-1.8-1.7-1c-0.2,1.5-0.3,2.3-0.4,3.5c0.1,0.6,0.3,1.7,0.2,3c-0.9,0.8-1.8-0.4-2.6-0.5c0.2-0.4-0.9-1.6,0.4-1.5    c0-2-0.4-4-0.9-5.9c-0.4-1.1-1.1-0.9-2-0.9c-0.8,1-2.1,1.9-1.7,3.2c-1.2,1.9,0,4.3,0.2,6.5c0,1,0.9,1.5,0.9,2.1    c-0.3,2,2.1,0.3,2,2c-0.3,0-0.4,0.3-0.5,0.6c0.3,1.4-1.1,2.3-1.3,3.7c-0.1,0.5-0.8,0.5-0.6,1.1c-0.8,0.3-0.3,1.5-1.1,1.5    c-0.1,0.8-0.8,1.1-1.3,1.5c-0.5,0-1.3-0.3-1-0.9c0.8-1.1,1.5-2.6,2.2-3.6c0.8-0.8,0.4-2.2,1.4-3c-0.3-0.9-0.6-1.9-1.5-2.1    c0.2-0.3,0-0.8-0.2-1.2c-0.5-0.1,0.1-0.5-0.5-0.7c0.1-0.7-0.4-1.4-0.6-1.8c0-1-0.4-2-0.3-3c-0.1-0.6,0.3-1.3-0.4-1.9    c-0.1-1.4-1.3-2.9-1.8-4c-1.4,0-2.3-0.2-3.7-0.2c-1.2,0.1-2.2,0-3.3-0.2c-0.8,0.5-2-0.1-2.4,0.6c-0.7-0.4-1.7-0.1-2.3,0.1    c-1.4,0.1-2.9,0.3-3.9,0.7c-1.6,0.4-3,1.5-4.4,1c-0.4-0.4-0.4-0.8-0.1-1.2c0.8-0.8,1.7-0.8,2.7-1.2c0.7,0.2,1.7-0.2,2.2-0.6    c1,0.1,1.6-0.7,2.6-0.4c2.7-0.5,5.4-0.9,8.1-0.3c1.3-0.4,2.4,0.3,3.7,0c0.1-0.5,0.3-1,1-1.1c1.8,0.7,1.7,2.9,2.9,3.9l0.6-0.9    c0.1-1.2,2.7-0.4,1.8-2.1c-0.5-0.5-0.6-1.7-1.1-2c0.3-0.4-0.5-0.6-0.2-1.2c-0.4-0.2-0.4-1-1.1-0.9l0.1,0c-0.5,0.1-0.2-1.1-0.9-0.8    c-1.1-2.5-3.8-0.4-5.7-0.1c-0.2,0.1-0.3,0.3-0.6,0.1c-4.8,1.6-9.4,3.5-13.9,5.7l-0.1,0.2l-0.3,0c-1.7,0.7-3.6,1.6-4.9,2.7    c-1.2,0.4-2,1.6-3.4,1.3c-0.6-0.3,0.1-0.7-0.1-1c-1.1,0.5-2.4,0.3-3.6,0.9c-1.1,0.6-1.3,1.8-1.9,2.8c0,0.6-0.3,1.4-0.4,2    c0.5,0.8-0.5,1.2-0.7,1.8c-1.3,1.1-1.7,2.5-2.3,3.9c-0.3,1-0.2,1.7,0,2.7c0,0.3,0.3,0.3,0.5,0.2c0.4,0.5,0.8,0.8,0.4,1.4    c-1.6,1.3-2.6,3.4-2.7,5.6c1-0.1,0.8,1.3,1.4,1.6c-0.6,0-0.1,0.9-0.2,1.1c0.9,1.3,0.3,3.1,0.9,4.1c0.5,1.3,0.6,2.5,1,3.9    c0.6,2.4,1.4,4.6,2,7c0.5,0.9,0.3,1.7,0.8,2.5c0.5,2.5,1.7,5,2.3,7.6c0.7,0.3,0.2,1.2,0.7,1.5c0,0.5,0.4,1,0.6,1.4    c2.5,1,5,2.2,7.3,3.6c5.7,0.9,11.2,1,16.1,0c0.8-0.1,1.6-0.3,2.3-0.6c0.3-1.5,0.5-3,0.8-4.4l-0.3,0.1c-0.5,0-0.8-0.3-1.1-0.7    c0-1,1.1-1.1,1.6-1.8c0.5-1.2,1.9-1.8,2.5-3c0.4-0.5,1-0.9,1-1.5c1.4-1.2,2.4-3.4,3.6-5.1c0.1-0.8,0.8-1.3,1.3-1.9    c0.2-0.4-0.1-0.9,0.5-1c0.7-0.8,0.9-2.1,1.6-2.7c0-0.9,0.6-1.6,1-2.4c-0.1-1.5,1.2-3,0.9-4.5c-0.2-0.6,0.2-1.7-0.2-2.4    c0.3-0.7,0.1-1.6,0.1-2.4c0.3-1.3,0.2-2.8,0.6-4.2c-0.5-1,0.7-1.4,0.4-2.5c0.7-0.9,1-1.8,1.7-2.6c1.5-0.1,1-1.6,1.4-2.5    C380.7,100.8,381.8,99.6,380.9,97.8z" />
		<path d="M346.4,95c0.9,0.1,1.9-0.5,2.9-0.4c1-0.5,2.4-0.3,3.5-0.5c0.7-0.3,1.6-0.3,2.4-0.6c0.4,0.4,0.9-0.2,1.3,0    c1.1,0.2,2.2-0.5,3.2,0.1c1.3,0.2,2.6-0.7,3.3,1c1.1,0.6,0.3,1.6,1.4,2.3c-0.3,0.7,0.8,0.8,0.4,1.4c0.6,0.6,0.3,0.8,0.5,1.5    c0.4,0.5,0.4,1.6,0.7,2.3c-0.5,0.4,0.2,0.5,0.4,0.7c-0.5,0.7,0.5,1.6,0.2,2.4c-0.1,1.1,0.5,2.4,0.6,3.6l0.1,0.1    c-0.3,0.2,0.2,0.7,0.1,1.1c0.2-0.1,0.3,0.1,0.4,0.2c-0.7,0.4-0.2,1.6-1.2,1.3c-0.7,0.2-0.5-0.5-1-0.8c0.3-0.7-0.6-1.6-0.2-2.4    c-0.2-0.9-0.4-1.6-0.5-2.5l-0.2-0.1c0.7-0.8-0.6-1.2-0.2-1.9c0.2-0.6-0.4-0.9-0.5-1.3c-0.1-0.4-0.1-1-0.2-1.5    c-0.5-1.7-1.2-3.5-2.2-5.3c-0.1-0.2,0-0.7-0.3-0.9c-1.6,0.5-3.5,0-5.2,0.3c-3.7,0.4-7.8,1.3-11.5,2c-0.4,0.3-1.3,0.4-1.8,0.6    c-0.7,0.3-1.4,0.1-2.1,0.1c-0.4-0.5-0.3-0.8,0-1.2C342.6,95.5,344.6,95.4,346.4,95z" />
		<path d="M346,100.4l0.4,0.2c2.7-0.5,5.1-1,7.8-1.1c0.5-0.7,1.2,0,2-0.2c0.8,0.4,1.3,1.3,1.9,1.7c0.2,0.3,0.2,0.7,0.6,1l0.5,0.1    c-0.1,1.2,0.7,1.4,1.1,2.5c0.5,0.5,0.8,1.3,1.2,2.1c0.7,0.4,0.9,1.1,1.1,1.9c0.7,0.3,0.6,1.2,1.3,1.5c-0.2,0.4,0.3,0.6,0.4,1.1    c0.6,0.2,1.2-0.5,1.6,0.2c0.2,0.7-1,1.7,0.2,2.1l0.2,1c-0.3,0.2-0.9,0.4-1.3,0.2c-0.3-0.2-0.7-0.7-1-0.3c-1,0.7-1.2,2.8-2.7,2.3    c-3,1.2-5.8,2.3-8.3,4.2c-0.3,0-0.8,0.1-0.8-0.4c-0.3-1,1.1-1.3,1.6-2c2.6-1.3,5.1-2.2,8-3.4c0.1-0.1-0.1-0.3-0.1-0.3    c0.9-0.3,1.2-1.3,1.7-2c0-0.2-0.3-0.5-0.5-0.6l-0.2,0.1c0.2-0.7-0.6-1.2-0.9-1.7c-0.4-1.2-1.3-1.7-1.8-2.8c0-0.4-0.6-0.4-0.5-0.8    c-0.5-0.2-0.3-1-0.8-1.3c-0.6-0.7-0.7-1.4-1.4-2c-0.3-0.7-0.6-1.4-1.2-1.9c-0.2-0.3-0.2-0.9-0.7-1.2c-0.8-0.1-0.8,0.5-1.5,0.1    c-4.1,0.5-8.6,1.4-12.8,1.8c-0.3-0.1-0.6-0.2-0.6-0.5l0.3-0.4C342.6,101.1,344.5,101.2,346,100.4z" />
		<path fill="#FFFFFF" d="M376.1,94.3c-0.1,1.4,0.4,2.8,0.2,3.9l-0.2,0.5c-0.2-0.1-0.3-0.5-0.8-0.4c0.3-1.7-0.3-5-0.5-6.6    C375.2,92.2,376.7,92.3,376.1,94.3z" />
		<path d="M346.1,113c1.5-0.4,2.4-1,3.7-1.4c0.1-0.5,0.4-1.3,1.1-1.2c0.9,0,0.2,0.8,0.5,1.3l1,0.1c-0.1,0.1,0,0.2,0.1,0.3    c0.4,0.3,1.4,0.3,2.1,0.5l0.2,0.8c-0.6,0.7-1.7,0-2.3,0.7c0.2-0.1,0.4,0.2,0.4,0.4c-0.4,0.4-0.9,0.8-1.4,0.6    c-0.2-0.1-0.8-0.8-1-0.3c-0.3,1.2-1.6,2.2-0.4,3.4c1.7,3.7,4,6.9,5.8,10.5c0,0.3-0.4,0.4-0.5,0.3l-1.2-2.4    c-0.1-0.8-1.1-1.4-1.4-2.3c-1.1-1.7-2-3.7-3.4-5.2c-0.5,0.3-1.3,0.5-1.6-0.2c-0.2-0.8,0.2-1.6,0-2.4c-0.6,0-1.1,0.6-1.6,0.8    c-1.2,0.4-2.5,1.2-3.7,1.3c1.6-1,3.5-1.2,4.9-2.6c0.3-0.6-0.8-0.4-0.4-1.1c0.5-0.2,1,0.1,1.4,0.3c0.3-0.7,0.7-1.5,1.3-2.2    c-1.1-0.5-2,0.8-3.1,0.9c-1.3,0.5-3.1,0.4-4.2-0.7c-0.2-0.2,0.2-0.3,0.2-0.6C343.9,112.4,345,113.3,346.1,113z" />
		<path d="M357.2,131.5c-0.9,0-0.4-1.3-1.2-1.6c0-0.3-0.4-0.4-0.1-0.7C356.7,129.7,357,130.6,357.2,131.5z" />
		<path d="M357.5,131.9c0.2,0.8,1.3,1.6,1.3,2.6c-0.3,0.1-0.5-0.1-0.6-0.4c-0.4-0.8-0.3-1.5-0.9-2.1L357.5,131.9z" />
		<polygon points="360.4,133 360.3,132.8 360.5,132.7   " />
		<path d="M359.5,133.2c0.4,1.2-0.5,2.2-0.3,3.1c-0.7-0.2,0-1-0.3-1.5C359.5,134.5,358.6,133.5,359.5,133.2z" />
		<path d="M360.5,134.6l-0.1,0.2c0-0.5,0.1-1,0.1-1.6C360.8,133.5,360.8,134.2,360.5,134.6z" />
		<path d="M360.5,135.3c0.2,0.1-0.1,0.3,0,0.4l-0.2-0.4C360.5,135.3,360.5,135.3,360.5,135.3z" />
		<path d="M358.8,137c0.1-0.1,0.1-0.2,0.2-0.3C358.9,136.8,358.8,136.9,358.8,137z" />
		<path d="M360.7,135.9c-0.6,1.2-0.1,2.8-0.3,4.3c-0.4,1.1-0.1,2.4-0.5,3.4c-0.1,0.5,0.5,1.1-0.2,1.3c0.1,0.9-0.7,1.3-1,2.1    c-0.4,0.2-1,1-1.6,0.4c0.5-1.3,0.9-2.6,1.1-4c-0.5-0.8,0.6-1.5,0.1-2.1l0.6-3.7c0.1-0.3-0.3-0.5-0.3-0.8c-0.2,0.5-0.3,1-0.3,1.5    c-0.7,1.8-0.3,3.4-1.1,5.3c0.2,1.2-0.7,2.3-1.3,3.5c-0.4,0.9-1.4,1-1.6,1.9l0.7-0.2c1-0.9,2.6,0,3.8-1.1    C361.8,144.3,360.6,139.9,360.7,135.9z" />
		<path fill="none" stroke="#000000" stroke-width="0.5938" d="M349,117.5c-0.1,1,0.6,2.2,1.5,2.7c1.3,0.7,1.7-0.3,2.9-0.6" />
		<path fill="#FFFFFF" d="M342.3,149.5c0.6,0.1,7.6,3.2,10.3,4.3c-2.5-1.8-5-3.5-7.5-5C343.8,149,341.9,149.4,342.3,149.5z" />
		<path fill="#FFFFFF" d="M359.9,148.5l-13.7,0.1c0,0-0.5,0.1-1.1,0.2c2.6,1.5,5.1,3.2,7.5,5c0.5,0.2,0.8,0.3,0.9,0.3    c0.7,0.1,7.1,1,7.1,1l1.5-0.7l1.5-6.9l0.4-1.9L359.9,148.5z" />
	</g>
	<line fill="#FFFFFF" stroke="#000000" stroke-width="1.3" x1="336.5" y1="144.7" x2="332.9" y2="160.9" />
	<line fill="#FFFFFF" stroke="#000000" stroke-width="1.3" x1="364.5" y1="141.4" x2="362.8" y2="166" />
</g>
</svg>
