<?xml version="1.0" encoding="UTF-8"?>
<!DOCTYPE svg PUBLIC "-//W3C//DTD SVG 1.1//EN" "http://www.w3.org/Graphics/SVG/1.1/DTD/svg11.dtd">
<!-- Generator: Adobe Illustrator 14.0.0, SVG Export Plug-In . SVG Version: 6.00 Build 43363)  -->
<svg xmlns="http://www.w3.org/2000/svg" xmlns:xlink="http://www.w3.org/1999/xlink" version="1.1" x="0px" y="0px" width="141.732px" height="226.771px" viewBox="0 0 141.732 226.771" enable-background="new 0 0 141.732 226.771" xml:space="preserve"><rect fill="#FFFFFF" x="0px" y="0px" width="141.732px" height="226.771px" />
<g id="Färg">
	<linearGradient id="SVGID_1_" gradientUnits="userSpaceOnUse" x1="43.5981" y1="218.1982" x2="57.598" y2="186.1986">
		<stop offset="0" style="stop-color:#FFFFFF" />
		<stop offset="1" style="stop-color:#EDEDED" />
	</linearGradient>
	<path fill="url(#SVGID_1_)" d="M78,220l3.5-30.5c0,0-23-1.5-27-5s-17.924-13.072-18.212-16.286S25.5,187,25.5,187s-9.5,13.5-10,15   S35.5,226,78,220z" />
</g>
<g id="Lager_1">
	<g>
		<path d="M82.588,4.039c1.23,0.224,2.125,1.006,2.908,1.677c1.789,1.677,2.348,4.25,2.236,6.486l0.336,0.224    c-0.225,1.342-0.449,2.684-0.113,3.915c-0.67,1.118-0.336,2.908-0.67,4.026c0.447,0.559-0.336,0.671-0.336,1.23    c-0.224,1.901-0.224,3.803-0.559,5.704c0,1.23-0.448,2.572-0.335,4.25c-0.448,1.454-0.113,3.467-0.672,5.032    c0.335,0.224,0,0.224,0,0.56c-0.56,6.151-0.895,12.973-0.783,19.012c0,1.23,0.112,2.796,0,4.137    c0.448,2.013-0.224,4.026,0.224,6.151c0.335,3.131,0,5.591,0.672,8.835c4.137-1.007,8.388-1.231,12.414-1.79    c1.677,0.223,3.578-0.224,5.48,0.112c1.453,0.67,2.795,1.678,4.137,2.572c-0.336,0.447,0.223,0.895,0.559,0.895    c0.336,0.671,0.447,1.566,1.23,1.79c0.783,2.237,1.678,4.026,1.678,6.598c-0.224,0.671-0.895,1.23-0.783,1.901    c2.796,0.895,4.809,3.579,6.486,5.928c1.119,1.79,0.895,4.697-0.334,6.599c1.229,0.335,1.788,0.223,2.795,0.67    c2.684,1.79,5.703,4.026,6.04,7.158c0.111,1.454,0.222,2.908-0.337,4.25c0.224,0.225-0.223,0.672-0.335,1.006    c0.224,1.79-1.454,2.573-1.565,4.139c-0.672,2.014-1.901,3.803-2.35,6.039c-2.012,1.678-0.783,4.586-2.123,6.375    c-0.56,0.895-1.455,1.789-1.678,2.796c-0.783,0.224-1.23,1.007-1.23,1.565c-1.455,1.23-1.007,4.026-1.455,5.815    c-0.559,1.678-1.229,3.243-2.012,4.81l0.11,0.447c-0.782,0-0.559,0.895-1.005,1.23c0.111,0.447-0.672,1.006-0.559,1.564    c-2.686,5.258-5.93,9.619-9.619,14.315l0.223,0.224c-1.006,0.447-1.788,1.566-2.236,2.572c-0.67-0.111-0.335,0.783-0.894,0.895    c-1.679,1.342-2.796,3.02-4.139,4.586h-0.336c-2.46,2.684-4.585,5.928-7.493,7.492l-0.782-0.335    c-0.111,0.335-0.671,0.671-0.225,1.118c-1.229,1.006-0.67,2.461-1.341,3.691c-0.223,0.447-0.559,1.117-0.447,1.565    c-0.336,0.335-0.111,1.118-0.559,1.565c0.559,0.56,0.223,1.789,1.229,2.014l0.225,0.335c-0.783,0-0.783,1.007-1.119,1.454    c-0.223,1.678-0.67,3.131-0.895,4.809c-0.783,2.236-0.67,4.586-1.229,6.934c0.56,0.672-0.448,1.566-0.112,2.35    c-0.111,2.348-0.895,3.914-0.671,6.039h0.111c-0.67,0,0.112,0.895-0.446,1.23c0.111,0.67-0.113,1.564-0.113,2.236    c-0.11,0.67-0.11,1.789-0.894,2.124c-0.895,0.672-0.783-0.671-1.229-0.895c0.559-1.454,0-3.466,0.446-5.032    c0.224-5.48,0.783-10.4,1.901-15.77c-0.111-1.229,1.007-2.572,0.111-3.689l0.112-0.447c-3.915-0.113-7.382,0.783-11.183,0.223    c-10.4-0.895-19.907-5.928-27.4-14.091l-5.033-6.151c0-0.336-0.112-0.559-0.335-0.895c-0.559,0.895-1.007,2.236-1.231,3.02    c0,0.224,0,0.671-0.335,0.671c-0.335,1.118-1.23,2.013-1.343,3.02c-1.789,3.132-3.466,6.599-5.368,9.618    c-0.448,1.342-1.342,2.236-1.901,3.579c-1.789,2.571-2.907,6.038-5.927,7.828c-1.007,0.112-0.224-0.896-0.335-1.343    c0.895-0.895,0.895-2.348,1.902-3.242l-0.113-0.672h0.335c4.362-7.604,8.835-15.098,12.08-23.262    c0.335-0.447,0.67-1.342,1.341-1.006c0.336-0.783,0.896-0.336,1.455-0.447c0,0.223,0.446,0.223,0.446,0.559    c1.678-2.684,2.349-5.479,3.355-8.611c4.809-15.881,6.375-31.202,7.828-47.307c-0.334-0.447,0.113-1.119,0-1.566    c0.449-4.361,0.113-9.058,1.566-13.308c1.119-1.007,2.237-2.46,3.691-3.355c1.23-1.342,3.355-1.565,3.355-3.802    c2.46-8.611,4.473-17.334,5.48-26.169c-0.112-0.336,0.112-1.119,0.112-1.566c0.111-2.236,0.111-4.361,0.334-6.374    c-0.559-0.783,0.113-1.678,0-2.572l-0.334-1.566c0.448,0.224,0.67-0.671,1.23-1.006c0.112-3.467,0.783-7.158,1.342-10.513    l-0.111-0.112l0.447-0.559c0.559-3.915,2.125-7.829,1.902-11.743l0.223-0.224c0.225-2.013,0.335-4.026,0.895-5.703    c-0.111-1.119,0.672-2.349,0.335-3.579c0.56-0.671,0.447-1.79,0.783-2.572c-0.447-0.224,0.335-0.448,0.224-0.896    c1.342-3.019,0.894-7.045,4.026-9.282c1.566,0.224,2.461-1.342,3.914-0.671C79.567,3.367,81.246,3.144,82.588,4.039z" />
		<path fill="#FFFFFF" d="M82.588,6.387c-0.447,0.224-1.006-0.224-1.565-0.447l-4.026,0.111c-0.111-0.111,0-0.111,0.111-0.111    c-0.111-0.224-0.335-0.112-0.447-0.112c0.561-0.559,1.119,0.112,1.678-0.335C80.016,5.38,81.246,5.716,82.588,6.387z" />
		<path fill="#FFFFFF" d="M84.154,7.953c0.446,0.559,1.005,1.342,0.446,2.125c-1.341,1.454-2.349,3.467-3.915,4.92    c-0.895-0.783-2.236-0.335-3.242-1.119c-1.119-0.447-2.684,0-3.02-1.565c-0.225-1.678-0.225-3.243,0.336-4.809    C77.668,6.275,81.469,6.163,84.154,7.953z" />
		<path fill="#FFFFFF" d="M73.306,10.301c-0.336,1.565,0.11,3.355,1.454,4.361l6.039,1.79c1.006-0.336,1.564-1.342,2.125-2.237    l2.014-3.467c0.894,4.361-0.225,8.387-0.337,12.749c-0.111,0.671-0.335,1.454-0.224,2.125c0,1.006-0.223,2.125-0.559,3.131    c0.223,3.69-0.559,7.493-0.559,11.296c-0.561,0.223,0.223,0.447,0,0.783c-0.896,4.809-0.561,9.729-0.896,14.203    c0.449,1.901,0.225,3.69,0.336,5.704c-0.447,1.229,0.336,2.236-0.111,3.354c0,3.803,0.783,7.94,0.447,11.966    c-0.447,0.224-0.783,0.336-1.23,0.783c0,0.559,0.783,0.782,1.008,1.006c2.125-0.447,4.361-0.783,6.598-1.23    c0.559,0.447,1.119-0.223,1.789-0.335c0.783-0.112,1.678,0,2.348-0.112l0.112,0.224c1.79-1.007,5.258-0.671,7.493-0.56l0.56,0.335    l0.224-0.335c0.111,0.671,0.672-0.335,1.006,0.224c0.449,0.671,0.896,1.006,1.679,1.006c0,0.559,1.229,0.448,1.007,1.455    c1.9,1.454,2.348,3.914,2.906,5.815c-1.118,1.901-3.803,2.236-5.479,3.244c-1.229,1.006-3.019,0.895-3.915,2.237    c1.231,0.782,2.797,0.447,4.252,0.224c1.677-0.671,3.13-0.895,4.808-1.566c0.783,1.566,2.684,1.454,3.579,2.908    c1.9,1.342,2.348,3.579,3.02,5.256c-1.565,3.355-3.132,7.046-5.48,9.954c0.111,0.335,0.336,0.56,0.561,0.783    c2.236,0,3.13-2.46,4.473-3.802c0.336-0.895,1.006-1.79,1.565-2.46c0.448,2.013,3.467,1.789,4.25,3.579    c1.454,0.224,1.118,1.565,2.124,2.236c1.454,4.027-1.564,7.494-2.348,11.072c-0.672,1.902-1.566,3.579-2.35,5.369    c-0.445-0.225-0.559,0.111-1.006,0.223c-0.895,0.672,0.225,1.454,0,2.236c-0.447,1.344-1.23,2.573-1.566,3.803    c-1.9,2.236-3.131,5.145-2.906,8.388c-0.783,2.685-2.014,5.146-3.469,7.718c0.337,0.559-0.67,0.559-0.334,1.229    c-0.336,0.224-0.336,1.007-1.007,0.896c0.111,0.223,0.224,0.781-0.337,0.781c-0.222,2.014-1.563,3.133-2.459,4.697    c-3.02,4.81-6.598,9.172-10.513,13.422c-2.685,2.57-5.257,5.367-7.604,8.163c0-0.56-0.672-1.007-1.118-1.229h-1.231    c0.225,0.559-0.445,0.67-0.67,1.118c-0.559,2.013-1.119,3.802-1.566,5.815c-0.671,0.782-0.559,2.125-1.006,3.131    c-0.225,0.671-0.225,1.566-0.672,2.237c0.336,0.224,0.112,1.229,0.112,1.677c-16.44,2.125-31.762-5.48-41.044-18.452    c-1.454-1.678,1.119-3.243,1.566-4.922c1.006-3.242,2.236-6.485,3.131-9.617c1.006-4.138,2.013-8.611,3.02-12.973    c0.111-0.336,0-1.007,0.335-1.343c0.446-2.46,0.56-5.256,1.343-7.604c-0.448-0.112-0.113-0.671-0.113-1.007    c0.113,0,0.335-0.335,0.113-0.559l0.559-0.224l-0.448-0.335c0.336-3.133,0.895-6.6,0.895-9.619c0.56-0.224,0.113-0.67,0.113-1.117    c0.334-2.573,0.781-5.705,1.005-8.389c0-1.9,0.335-3.802,0.448-5.704c0.783,0.112-0.112-0.559,0-0.895    c0.224-2.685,0.783-5.48,1.229-8.164c0.783-0.783,1.677-1.79,2.796-2.46c-0.671,0.894,0,2.348-1.229,2.796l1.119,1.229    c0.67-0.111,1.229-0.559,1.677-1.118c0.447-1.789,1.229-3.803,1.789-5.592l0.335-0.223c-0.222-0.559,0.113-1.342,0.336-1.901    c1.006-4.137,2.237-8.052,3.243-12.19c-0.111-1.006,0.559-2.013,0.335-2.908c0.112-0.671,0.783-1.342,0.448-2.013    c0.783-0.671,0.111-1.79,0.559-2.46c0.335-1.901,0.56-4.25,0.783-6.486c0.112-1.454,0.447-2.684,0.447-4.138l0.224-0.224    c-0.224-0.895-0.111-2.236,0.224-3.243c-0.224-0.783-0.335-1.678,0-2.46l0.111,0.112c0.336-0.224-0.223-0.448,0-0.783    c0.336-1.006-0.111-2.125,0.559-2.908c-0.223-2.236,0.56-4.585,0.783-6.933c0.335-1.23,0.113-2.237,0.783-3.467    c-0.223-0.224-0.111-0.224-0.111-0.56c0.111-0.224,0.559,0,0.559-0.336c0.223-2.237,0.671-4.473,1.229-6.598l-0.334-0.671    c0.782-6.263,1.564-12.302,3.02-18.564C72.522,11.867,72.635,10.749,73.306,10.301z" />
		<path d="M75.207,40.833c-1.791-0.224-3.803,0.224-5.369,0.895c1.565-1.007,3.467-1.789,5.369-1.118V40.833z" />
		<path d="M76.324,40.944c-0.334,0.225-0.559-0.224-0.781-0.335C75.877,40.497,75.99,40.833,76.324,40.944z" />
		<path d="M80.016,43.069l-0.111,0.224c-2.35,0.335-4.474,0.223-6.71-0.224c-1.007,0.56-2.126-0.223-2.908-0.559    C73.416,43.069,76.885,43.293,80.016,43.069z" />
	</g>
</g>
</svg>
