<?xml version="1.0" encoding="UTF-8"?>
<!-- Generator: Adobe Illustrator 25.2.1, SVG Export Plug-In . SVG Version: 6.00 Build 0)  -->
<svg xmlns="http://www.w3.org/2000/svg" xmlns:xlink="http://www.w3.org/1999/xlink" version="1.1" id="Lager_1" x="0px" y="0px" width="226.8px" height="226.8px" viewBox="0 0 226.8 226.8" style="enable-background:new 0 0 226.8 226.8;" xml:space="preserve"><rect fill="#FFFFFF" x="0px" y="0px" width="226.8px" height="226.8px" />
<style type="text/css">
	.st0{fill:#FFFFFF;}
	.st1{fill:url(#SVGID_1_);}
	.st2{fill:none;stroke:#000000;stroke-width:2;stroke-linecap:round;}
	.st3{fill:none;stroke:#000000;stroke-linecap:round;}
	.st4{fill:none;stroke:#000000;stroke-width:1.5;stroke-linecap:round;}
	.st5{fill:url(#SVGID_2_);}
	.st6{fill:none;stroke:#000000;stroke-width:0.5;stroke-linecap:round;}
</style>
<rect x="0.1" class="st0" width="226.7" height="226.7" />
<g>
	<g id="Färg_8_">
		
			<linearGradient id="SVGID_1_" gradientUnits="userSpaceOnUse" x1="32.5251" y1="-593.7833" x2="43.1686" y2="-570.4354" gradientTransform="matrix(1 0 0 -1 0 -387.89)">
			<stop offset="0" style="stop-color:#FFFFFF" />
			<stop offset="1" style="stop-color:#EDEDED" />
		</linearGradient>
		<path class="st1" d="M62.3,221.2l4.7-34.6l6.1-17.8c0,0-9-1.1-10.9-0.5S46,164.2,46,164.2l-10.7-5.9l-5.6-5.6l-13.9,23.1    L0.1,196.4C0.1,196.4,61.7,221.2,62.3,221.2z" />
	</g>
	<g>
		<path d="M10.7,184l4.8-7.9l4.8-7.9l4.8-7.9l4.9-7.9l0,0l0.1-0.1c1.1-1.3,2-3,2.4-4.7c0.2-0.9,0.3-1.7,0.2-2.6    c0-0.4-0.1-0.8-0.2-1.3l-0.3-1.4c-0.7-3.8-1.3-7.6-2-11.3c-1.2-7.6-2.4-15.1-3.5-22.7s-2.2-15.2-3.1-22.8c-0.1-1-0.2-1.9-0.3-2.9    l-0.1-0.8c0-0.1,0-0.3,0-0.5c0,0,0-0.2,0-0.3v-0.2c0,0.1,0,0,0,0c0-0.1,0-0.1,0-0.1c0,0.1,0-0.2,0-0.4l-0.1-0.7    c-0.2-1-0.2-2.2,0.1-3.3c0.3-1.1,0.9-2.2,1.6-3s1.6-1.5,2.4-2c0.4-0.3,0.8-0.5,1.4-0.8l0.6-0.3l0.8-0.3c2-0.7,3.9-0.9,5.5-1.6    c0.8-0.3,1.5-0.8,2.1-1.3c0.3-0.3,0.6-0.6,0.9-0.9l0.5-0.5c0.2-0.2,0.3-0.3,0.6-0.6c0.9-0.8,1.7-1.3,2.7-1.8    c0.9-0.5,1.8-0.8,2.8-1.2c3.7-1.3,7.5-2.2,11.3-2.9s7.6-1.3,11.4-1.9l1.4-0.2h0.2h0.2c0.1,0,0.4,0,0.6,0c0.4,0.1,0.6,0.2,0.9,0.3    c1,0.6,1.7,1.4,2.4,2.1c1.3,1.5,2.4,3.1,3.4,4.8c1.9,3.4,3.6,6.8,5.3,10.2c0.8,1.7,1.6,3.5,2.4,5.2l1.2,2.6    c0.4,0.9,0.8,1.8,0.9,2.8c0.1,1.1-0.2,2.1-0.8,2.9c-0.5,0.8-1.2,1.6-1.8,2.3c-1.3,1.4-2.6,2.8-3.9,4.2l-7.9,8.3l7.7-8.6    c1.3-1.4,2.5-2.9,3.8-4.3c0.6-0.7,1.2-1.5,1.7-2.3s0.7-1.7,0.6-2.5c-0.1-0.9-0.5-1.7-0.9-2.6l-1.3-2.6L81,75.1    c-1.8-3.4-3.5-6.8-5.5-10c-0.9-1.6-2.1-3.1-3.3-4.5c-0.6-0.7-1.3-1.3-1.9-1.7c-0.2-0.1-0.3-0.1-0.4-0.1s0,0-0.1,0h-0.2    c0,0,0.1,0,0,0l0,0h-0.1L68,59c-3.8,0.6-7.5,1.3-11.2,2.1s-7.4,1.7-10.9,3c-0.9,0.3-1.7,0.7-2.5,1.1s-1.6,0.9-2.1,1.4    c-0.1,0.1-0.3,0.3-0.4,0.5l-0.5,0.5c-0.3,0.4-0.7,0.8-1.1,1.1c-0.8,0.7-1.7,1.3-2.7,1.7c-2,0.8-3.9,1-5.5,1.7l-0.6,0.2l-0.6,0.3    c-0.3,0.2-0.8,0.4-1.1,0.7c-0.7,0.5-1.4,1-2,1.6c-0.5,0.6-0.9,1.3-1.1,2s-0.2,1.5,0,2.4l0.1,0.7c0,0.3,0.1,0.5,0,1.1    c0,0.2,0,0.2,0,0.3v0.1c0,0,0,0,0-0.1v-0.1v0.3v0.7c0.1,0.9,0.2,1.9,0.3,2.8c0.9,7.6,2,15.2,3,22.7l3.2,22.7    c0.5,3.8,1.1,7.6,1.7,11.3l0.2,1.4c0.1,0.5,0.2,1,0.2,1.5c0.1,1.1-0.1,2.1-0.3,3.1c-0.6,2-1.5,3.8-2.9,5.3l0.1-0.1l-5.1,7.7    l-5.2,7.7l-5.2,7.7L10.7,184z" />
	</g>
	<g>
		<path d="M92.2,96.2C92.2,96.2,92.2,96.2,92.2,96.2c0-0.1,0-0.2-0.1-0.3c0,0,0,0,0-0.1c0.1,0,0.1,0,0.1,0l0,0v0.1    c0.1,0.4,0.3,0.9,0.4,1.6c0.3,1.4,0.6,3.4,0.7,5.9c0.1,2.4,0.1,5.3-0.2,8.4c-0.2,1.5-0.4,3.1-0.7,4.7c-0.3,1.6-0.7,3.2-1.1,4.8    c-0.5,1.6-1,3.1-1.6,4.6s-1.2,3-1.9,4.3c-1.4,2.8-2.9,5.2-4.3,7.2s-2.7,3.5-3.7,4.6s-1.5,1.6-1.5,1.6s0.4-0.7,1.2-1.9    c0.8-1.2,1.8-2.9,3-5s2.5-4.6,3.6-7.3c0.6-1.4,1.1-2.8,1.7-4.3c0.5-1.5,1-3,1.5-4.5s0.8-3.1,1.2-4.6c0.3-1.5,0.6-3,0.8-4.5    c0.5-3,0.7-5.7,0.8-8.1c0.1-2.4,0.1-4.4,0-5.8c0-0.7-0.1-1.3-0.1-1.6v-0.1l0,0c0,0-0.1,0,0.1,0V96C92.1,96.1,92.1,96.1,92.2,96.2    C92.2,96.1,92.2,96.2,92.2,96.2z" />
	</g>
	<line class="st2" x1="81.3" y1="137.8" x2="66.1" y2="195.5" />
	<path class="st3" d="M32.8,156c0,0,14.5,13.8,36.8,12.3" />
	<path class="st2" d="M37,72.2c0,0,21.4-4.1,25.3-4.5c3.8-0.4,7.3,5.8,8.8,8.8s7.6,13.3,4.1,16.9s-9.4,7.1-9.4,7.1" />
	<g>
		<path d="M45.8,87.4c0,0,0.2,0.1,0.6,0.2c0.4,0.1,0.9,0.3,1.5,0.4c1.3,0.3,2.9,0.7,4.5,0.7c0.4,0,0.8,0,1.2,0s0.8-0.1,1.2-0.1    s0.7-0.1,1.1-0.2c0.4,0,0.7-0.1,1-0.2s0.6-0.1,0.9-0.2c0.3-0.1,0.5-0.1,0.7-0.2c0.4-0.1,0.6-0.1,0.6-0.1s-0.1,0.2-0.4,0.5    c-0.1,0.1-0.3,0.3-0.5,0.5s-0.5,0.4-0.8,0.6s-0.6,0.4-1,0.6s-0.8,0.4-1.2,0.5s-0.9,0.3-1.4,0.3c-0.5,0.1-1,0.1-1.4,0.1h-0.7    L51,90.5c-0.5-0.1-0.9-0.2-1.3-0.4c-0.4-0.2-0.8-0.3-1.2-0.5s-0.7-0.4-1-0.6c-0.6-0.4-1-0.8-1.3-1.1    C45.9,87.6,45.8,87.4,45.8,87.4z" />
	</g>
	<g>
		<path d="M57.3,84.4c0,0,0.4,0.5,0.8,1.1c0.5,0.6,1,1.4,1.5,2.2c0.3,0.4,0.5,0.8,0.8,1.2c0.3,0.4,0.5,0.8,0.7,1.1    c0.2,0.3,0.4,0.6,0.5,0.9c0.1,0.2,0.2,0.4,0.2,0.4s-0.2,0-0.4-0.1c-0.3-0.1-0.6-0.1-1-0.3c-0.4-0.2-0.8-0.4-1.3-0.8    c-0.4-0.4-0.8-0.8-1.1-1.3s-0.6-1-0.7-1.5c-0.2-0.5-0.2-1-0.2-1.5C57,84.9,57.3,84.4,57.3,84.4z" />
	</g>
	<g>
		<path d="M59.7,88c0,0-0.9,1.1-2.1,2.8c-0.3,0.4-0.6,0.9-0.9,1.4c-0.3,0.5-0.5,1.1-0.8,1.6c-0.3,0.6-0.5,1.2-0.7,1.8    c-0.2,0.6-0.3,1.2-0.4,1.9c-0.1,0.6-0.1,1.3,0,1.9s0.1,1.2,0.3,1.8c0.2,0.6,0.3,1.1,0.6,1.7c0.1,0.3,0.2,0.5,0.4,0.8    c0.1,0.2,0.2,0.5,0.4,0.7c0.3,0.4,0.5,0.9,0.7,1.2c0.2,0.4,0.4,0.7,0.6,0.9c0.4,0.5,0.5,0.8,0.5,0.8s-0.3-0.2-0.8-0.5    c-0.5-0.4-1.2-0.9-2-1.7c-0.4-0.4-0.8-0.9-1.1-1.4c-0.4-0.5-0.7-1.1-0.9-1.8c-0.1-0.3-0.3-0.7-0.3-1c-0.1-0.4-0.2-0.7-0.2-1.1    c-0.1-0.8-0.1-1.5,0-2.3c0.2-1.5,0.7-3,1.5-4.2c0.7-1.2,1.6-2.2,2.3-3C58.3,88.6,59.7,88,59.7,88z" />
	</g>
	<line class="st4" x1="65.7" y1="100" x2="57.6" y2="106.1" />
	<g>
		<path d="M62.8,105.2c0,0,0.7,2.8,1.7,6.9c0.5,2.1,1.2,4.5,1.8,7.1c0.4,1.3,0.7,2.6,1.1,4s0.6,2.8,0.6,4.3c0.1,2.9-0.6,5.8-1.6,8.3    s-2.4,4.7-3.7,6.4s-2.6,3-3.5,3.8s-1.5,1.3-1.5,1.3s0.5-0.5,1.4-1.4s2.1-2.2,3.3-3.9s2.5-3.9,3.4-6.4s1.5-5.3,1.4-8.1    c0-1.4-0.3-2.8-0.6-4.1c-0.4-1.4-0.7-2.7-1-4c-0.7-2.6-1.2-5-1.6-7.2C63.1,108.1,62.8,105.2,62.8,105.2z" />
	</g>
	<g>
		<path d="M64.8,104.9c0,0,0.5,1.5,1.2,3.7c0.3,1.1,0.7,2.4,1.1,3.8s0.7,2.9,1.1,4.4c0.3,1.5,0.6,3.1,0.8,4.5c0.2,1.4,0.4,2.8,0.4,4    c0,0.6,0.1,1.1,0,1.6c0,0.5,0,0.9,0,1.2c-0.1,0.7-0.1,1.1-0.1,1.1s0-0.4,0-1.1c0-0.3-0.1-0.7-0.1-1.2s-0.1-1-0.2-1.6    s-0.2-1.2-0.3-1.9c-0.1-0.7-0.3-1.3-0.4-2.1c-0.3-1.4-0.6-2.9-0.9-4.5c-0.7-3-1.3-6.1-1.8-8.3C65.1,106.4,64.8,104.9,64.8,104.9z" />
	</g>
	<path class="st2" d="M78.8,96.1" />
	<path class="st4" d="M77.4,96.6l-5.2,6.4c0,0-2.1,0.6-3.9-1.8" />
	<path class="st4" d="M92.2,90.1l-4.3,8.2c0,0-1.4,1.1-3.1-1.3" />
	<path class="st4" d="M84.3,94.4l-4.3,6.1c0,0-2.1,0.6-3.9-1.8" />
	<g>
		<path d="M57.1,58.4c0,0,0-0.1,0.1-0.3s0.3-0.4,0.6-0.6c0.5-0.5,1.4-1.1,2.4-1.7c1.1-0.6,2.3-1.2,3.7-1.7c0.7-0.3,1.4-0.6,2.2-0.8    s1.5-0.5,2.3-0.7s1.6-0.4,2.3-0.5c0.8-0.2,1.5-0.3,2.3-0.4c1.5-0.2,2.9-0.3,4.1-0.3c0.6,0,1.2,0.1,1.7,0.1    c0.5,0.1,0.9,0.1,1.3,0.2c0.3,0.1,0.6,0.2,0.8,0.2c0.2,0.1,0.3,0.1,0.3,0.1s-0.4,0-1.1,0.1s-1.7,0.2-2.8,0.4    c-1.1,0.2-2.5,0.5-3.9,0.8c-0.7,0.2-1.4,0.4-2.2,0.5c-0.7,0.2-1.5,0.4-2.2,0.6c-0.8,0.2-1.5,0.4-2.2,0.6c-0.7,0.2-1.5,0.4-2.2,0.6    c-1.4,0.4-2.7,0.8-3.8,1.1c-1.1,0.4-2.1,0.7-2.7,0.9c-0.3,0.1-0.6,0.3-0.7,0.4C57.2,58.3,57.1,58.4,57.1,58.4z" />
	</g>
	<g>
		<path d="M76.7,51.7c0,0,0.2-0.1,0.6-0.2c0.4-0.1,1.1-0.2,1.9-0.1c0.8,0.1,1.8,0.3,2.9,0.9c1,0.6,2,1.6,2.9,2.8    c0.8,1.2,1.5,2.6,2.2,4s1.3,3,2,4.6c0.6,1.6,1.2,3.3,1.8,5c0.6,1.7,1.1,3.5,1.6,5.2c0.2,0.9,0.5,1.8,0.7,2.7l0.2,0.7l0.1,0.3v0.2    v0.1V78l0,0c0,0.1,0,0.2,0,0.4c0,0.2,0,0.3,0,0.5c0,0.3-0.1,0.5-0.1,0.8c-0.5,2-1.3,3.6-2.1,5.1c-0.8,1.5-1.7,2.9-2.6,4.3    c-0.9,1.3-1.7,2.5-2.6,3.6c-1.7,2.2-3.2,3.9-4.3,5c-1.1,1.1-1.8,1.7-1.8,1.7s0.6-0.7,1.6-1.9c1-1.3,2.3-3.1,3.7-5.4    c1.4-2.3,3.1-5,4.5-8.1c0.7-1.5,1.4-3.1,1.6-4.7c0-0.2,0-0.4,0.1-0.5c0-0.1,0-0.1,0-0.2c0,0,0-0.2,0-0.3l-0.2-0.5l-0.2-0.6    c-0.3-0.8-0.5-1.7-0.8-2.6c-0.6-1.7-1.1-3.4-1.7-5.1s-1.1-3.3-1.7-4.9s-1.1-3.1-1.7-4.6s-1.1-2.8-1.7-4c-0.5-1.1-1.3-2-2.1-2.7    c-0.8-0.7-1.6-1-2.4-1.3c-0.7-0.2-1.4-0.3-1.8-0.3C76.9,51.6,76.7,51.7,76.7,51.7z" />
	</g>
	<g>
		<path d="M65.1,54.2c0,0,0-0.1,0.1-0.3s0.3-0.4,0.5-0.6c0.5-0.5,1.3-1,2.3-1.6s2.2-1.1,3.5-1.6s2.7-1,4.2-1.4s2.9-0.6,4.3-0.8    s2.7-0.2,3.9-0.1c1.1,0,2.1,0.2,2.7,0.4c0.3,0.1,0.6,0.2,0.7,0.2c0.2,0.1,0.3,0.1,0.3,0.1s-0.4,0-1,0.1S85.1,48.8,84,49    c-0.5,0.1-1.1,0.2-1.7,0.3s-1.2,0.3-1.9,0.4c-1.3,0.3-2.7,0.6-4.1,1s-2.8,0.7-4.1,1.1c-1.3,0.4-2.5,0.7-3.6,1    c-1,0.3-1.9,0.6-2.5,0.9c-0.3,0.1-0.5,0.2-0.6,0.3C65.2,54.1,65.1,54.2,65.1,54.2z" />
	</g>
	<g>
		<path d="M83.1,48.1c0,0,0.2-0.1,0.6-0.2c0.4-0.1,1-0.2,1.9-0.1c0.8,0.1,1.8,0.3,2.8,0.9c1,0.6,2,1.5,2.8,2.7    c0.4,0.6,0.7,1.2,1.1,1.8c0.4,0.7,0.7,1.3,1,2c0.6,1.4,1.3,2.9,1.9,4.4c0.6,1.6,1.2,3.2,1.8,4.8c0.6,1.7,1.1,3.4,1.6,5.1    c0.2,0.9,0.5,1.7,0.7,2.6l0.3,1.3l0.1,0.7v0.1v0.1l0,0v0.2c0,0.1,0,0.3,0,0.4c0,1.2-0.3,2-0.5,2.9c-0.3,0.9-0.6,1.7-0.9,2.5    c-0.7,1.6-1.5,3-2.2,4.3c-0.8,1.3-1.5,2.6-2.2,3.7c-1.4,2.3-2.7,4.1-3.7,5.3c-0.9,1.2-1.5,1.9-1.5,1.9s0.4-0.8,1.2-2.1    c0.8-1.4,1.8-3.3,3-5.7c1.2-2.4,2.6-5.1,3.7-8.2c0.3-0.8,0.5-1.5,0.7-2.3s0.3-1.6,0.3-2.2c0-0.1,0-0.1,0-0.2v-0.2l0,0l0,0    c0,0.1,0,0,0,0v-0.1l0.1-0.5l-0.4-1.2c-0.3-0.8-0.6-1.7-0.8-2.5c-0.5-1.7-1.1-3.3-1.7-5c-0.5-1.6-1.1-3.3-1.7-4.8    c-0.5-1.6-1.1-3.1-1.6-4.5c-0.3-0.7-0.5-1.4-0.8-2c-0.2-0.6-0.6-1.3-0.8-1.8c-0.5-1.1-1.3-2-2.1-2.6c-0.8-0.6-1.6-1-2.3-1.2    c-0.7-0.2-1.3-0.3-1.7-0.3C83.3,48,83.1,48.1,83.1,48.1z" />
	</g>
	<g>
		<path d="M65.1,99.4c0,0-0.7,0.2-1.6,0.3c-0.5,0.1-1,0.2-1.6,0.3c-0.3,0.1-0.6,0.2-0.9,0.2c-0.3,0.1-0.6,0.2-0.9,0.3    c-0.3,0.1-0.6,0.2-0.8,0.3c-0.1,0.1-0.3,0.1-0.4,0.2c-0.1,0.1-0.2,0.1-0.3,0.2c-0.2,0.1-0.4,0.3-0.6,0.5c-0.2,0.2-0.3,0.4-0.4,0.5    c-0.1,0.2-0.2,0.4-0.3,0.6s-0.1,0.3-0.1,0.5c-0.1,0.3-0.1,0.4-0.1,0.4s-0.1-0.2-0.1-0.5c0-0.1-0.1-0.3-0.1-0.5s0-0.5,0.1-0.7    c0.1-0.3,0.2-0.6,0.4-0.8c0.2-0.2,0.4-0.6,0.7-0.8c0.3-0.2,0.5-0.5,0.9-0.6c0.3-0.2,0.6-0.3,1-0.4c0.7-0.2,1.3-0.3,2-0.4    c0.6,0,1.2,0,1.7,0C64.4,99.1,65.1,99.4,65.1,99.4z" />
	</g>
	<g>
		<path d="M77.2,96.1c0,0-0.6,0.3-1.4,0.6c-0.4,0.2-0.9,0.4-1.4,0.6s-1,0.5-1.5,0.8c-0.2,0.2-0.5,0.3-0.7,0.5    c-0.1,0.1-0.2,0.2-0.3,0.2l-0.3,0.3c-0.2,0.2-0.3,0.4-0.5,0.6c-0.1,0.2-0.2,0.4-0.3,0.6c0,0.2-0.1,0.4-0.1,0.6s0,0.3,0,0.5    c0,0.3,0,0.4,0,0.4s-0.1-0.1-0.2-0.4c0-0.1-0.2-0.3-0.2-0.5s-0.1-0.4-0.1-0.7c0-0.2,0.1-0.5,0.2-0.8s0.2-0.6,0.4-0.8    c0.2-0.3,0.4-0.5,0.7-0.7c0.2-0.2,0.5-0.4,0.8-0.6c0.6-0.3,1.1-0.6,1.7-0.8c0.6-0.2,1.1-0.3,1.6-0.4    C76.6,96.1,77.2,96.1,77.2,96.1z" />
	</g>
	<line class="st2" x1="33.4" y1="147.8" x2="11.2" y2="183.2" />
	<g>
		<path d="M76.3,98c0,0,0.4-0.8,1.2-1.8c0.8-1,1.9-2.3,3.1-3.5s2.4-2.4,3.4-3.2c0.5-0.4,0.9-0.8,1.2-1c0.3-0.3,0.4-0.4,0.4-0.4    s-0.1,0.2-0.2,0.6C85.2,89,85,89.5,84.6,90c-0.7,1.1-1.8,2.5-2.9,3.7c-1.2,1.2-2.5,2.3-3.5,3.1C77.1,97.6,76.3,98,76.3,98z" />
	</g>
</g>
<g id="Färg_1_">
	
		<linearGradient id="SVGID_2_" gradientUnits="userSpaceOnUse" x1="29.6336" y1="-658.5009" x2="37.206" y2="-647.257" gradientTransform="matrix(0.9829 -0.1842 -0.1842 -0.9829 0.8816 -444.1153)">
		<stop offset="0" style="stop-color:#FFFFFF" />
		<stop offset="1" style="stop-color:#EDEDED" />
	</linearGradient>
	<polygon class="st5" points="178.2,214 184.2,186 184.7,178.2 174.2,177.2 159.2,171.4 148.5,162.5 144.1,155.1 121.1,189  " />
</g>
<path class="st2" d="M128.1,180.4c0,0,18.3-28.6,20.5-32.9s9.2-58.2,9.2-58.2c0.6-6.5,4.2-15.1,5.2-17.9s6.8-22.7,6.8-22.7  l10.5-26.4" />
<path class="st2" d="M180.3,23.6c1.8-5.8,3.5-11.8,9.4-10.7c4.3,0.8,4.8,3.4,4.8,3.4" />
<path class="st2" d="M178.4,79.5c0,0,5.3-26.6,7.1-31.2c1.8-4.7,8.2-25,8.2-25" />
<path class="st2" d="M194.2,25.1c0,0,0-11.5,3.9-11.9s14-1,9.8,18s-5.2,18.8-9.7,48.7" />
<path class="st2" d="M196.7,85.5c0,0,9.3-11.4,12.6-11.4s8.3,3.7,7.5,7.7s-9.7,18.4-9.7,18.4" />
<path class="st2" d="M217.1,86.1c0.5-0.2,5.8,3.6,6.3,9.2c0.5,5.7-4.6,17.2-7.5,21.1" />
<path class="st2" d="M216.7,111.6c0,0-2.2,4.3-2.8,10.3c-1.1,12.1-13.6,42-26.4,48.9c0,0-6.7,29.6-7.8,36.6" />
<path class="st3" d="M145.8,157.6c0,0,10.9,20.6,37,20.3" />
<g>
	<path d="M196.6,17.4c0,0,0,0.4,0,1s0,1.5,0,2.6c0,0.5,0,1.1,0.1,1.7c0,0.3,0.1,0.6,0.1,0.9c0.1,0.3,0.1,0.6,0.3,0.7   c0.1,0.1,0.5,0.3,0.7,0.4c0.3,0.1,0.6,0.2,0.9,0.3c0.7,0.2,1.3,0.4,2,0.5s1.4,0.3,2.1,0.3c0.3,0,0.7,0,0.9,0c0.1,0,0.2,0,0.2-0.1   l0.1-0.1c0.1-0.1,0.2-0.2,0.3-0.3c0.4-0.4,0.8-0.9,1.1-1.4s0.5-1.1,0.7-1.6c0.3-1,0.5-1.9,0.6-2.5s0.1-1,0.1-1s0,0.1,0,0.3   c0,0.2,0,0.4,0,0.7c0,0.6-0.1,1.5-0.3,2.6c-0.1,0.5-0.3,1.1-0.5,1.7c-0.3,0.6-0.6,1.2-1.1,1.8c-0.1,0.1-0.3,0.3-0.5,0.4   c-0.1,0.1-0.2,0.1-0.3,0.2l-0.2,0.1c-0.5,0.1-0.8,0.1-1.2,0.1c-0.7,0-1.5-0.2-2.2-0.3c-0.7-0.1-1.4-0.3-2.1-0.5   c-0.3-0.1-0.7-0.2-1-0.4c-0.3-0.2-0.6-0.3-1-0.6c-0.4-0.4-0.4-0.8-0.5-1.1c0-0.3-0.1-0.7-0.1-1c0-0.6,0-1.2,0.1-1.8   C196.3,18.8,196.6,17.4,196.6,17.4z" />
</g>
<g>
	<path d="M183.3,16.5c0,0,0,0.3-0.1,0.9s-0.1,1.5-0.2,2.5c0,0.5-0.1,1.1-0.1,1.6c0,0.6,0,1.2,0.1,1.7c0,0.2,0.8,0.5,1.3,0.7   c0.6,0.2,1.3,0.3,1.9,0.4c0.7,0.1,1.3,0.2,2,0.3c0.3,0,0.6,0,0.9,0c0.1,0,0.3,0,0.4,0c0.2,0,0.3-0.1,0.4-0.1c0.5-0.2,0.9-0.6,1.3-1   c0.3-0.4,0.6-0.9,0.8-1.3c0.4-0.9,0.6-1.7,0.7-2.3c0.1-0.6,0.2-0.9,0.2-0.9s0,0.1,0,0.2c0,0.2,0,0.4,0,0.7c0,0.6,0,1.5-0.4,2.5   c-0.2,0.5-0.4,1.1-0.7,1.6s-0.8,1-1.5,1.4c-0.2,0.1-0.4,0.2-0.5,0.2c-0.2,0.1-0.4,0.1-0.6,0.1c-0.4,0-0.7,0-1.1,0   c-0.7,0-1.4-0.1-2.1-0.2c-0.7-0.1-1.4-0.3-2-0.5c-0.3-0.1-0.7-0.2-1-0.4c-0.3-0.2-0.8-0.4-0.9-0.9c-0.2-0.8-0.1-1.4,0-2   s0.2-1.2,0.3-1.7C182.8,17.7,183.3,16.5,183.3,16.5z" />
</g>
<path class="st6" d="M187.4,48.8c0,0,6.6-0.8,10.8,2.8" />
<path class="st6" d="M187,51.4c0,0,4.7,2.1,11,1.9" />
<path class="st6" d="M172.2,46.9c0,0,6.6-0.8,10.8,2.8" />
<path class="st6" d="M171.8,49.5c0,0,4.7,2.1,11,1.9" />
<line class="st2" x1="175.3" y1="79.9" x2="179.5" y2="74.1" />
<line class="st2" x1="208" y1="98.5" x2="207.8" y2="101.4" />
<g>
	<path d="M183.9,15c0,0,0.1,0,0.4,0c0.2,0,0.6-0.1,1-0.2c0.8-0.2,2-0.4,3.1-0.3c0.6,0.1,1.2,0.1,1.7,0.3c0.5,0.1,1,0.3,1.4,0.5   s0.7,0.4,0.9,0.6c0.2,0.1,0.3,0.2,0.3,0.2s-0.1,0-0.4-0.1c-0.2-0.1-0.6-0.2-1-0.3s-0.9-0.2-1.4-0.3c-0.2-0.1-0.5-0.1-0.8-0.1   s-0.5-0.1-0.8-0.1c-1.1-0.1-2.2,0-3-0.1c-0.4,0-0.8,0-1-0.1C184,15.1,183.9,15,183.9,15z" />
</g>
<g>
	<path d="M197.2,15.5c0,0,0.1,0,0.4,0c0.2,0,0.6-0.1,1-0.2c0.8-0.2,2-0.4,3.1-0.3c0.6,0.1,1.2,0.1,1.7,0.3c0.5,0.1,1,0.3,1.4,0.5   s0.7,0.4,0.9,0.6c0.2,0.1,0.3,0.2,0.3,0.2s-0.1,0-0.4-0.1c-0.2-0.1-0.6-0.2-1-0.3c-0.4-0.1-0.9-0.2-1.4-0.3   c-0.2-0.1-0.5-0.1-0.8-0.1s-0.5-0.1-0.8-0.1c-1.1-0.1-2.2,0-3-0.1c-0.4,0-0.8,0-1-0.1C197.4,15.6,197.2,15.5,197.2,15.5z" />
</g>
</svg>
