<?xml version="1.0" encoding="UTF-8"?>
<!DOCTYPE svg PUBLIC "-//W3C//DTD SVG 1.1//EN" "http://www.w3.org/Graphics/SVG/1.1/DTD/svg11.dtd">
<!-- Generator: Adobe Illustrator 14.0.0, SVG Export Plug-In . SVG Version: 6.00 Build 43363)  -->
<svg xmlns="http://www.w3.org/2000/svg" xmlns:xlink="http://www.w3.org/1999/xlink" version="1.1" x="0px" y="0px" width="184.252px" height="226.771px" viewBox="0 0 184.252 226.771" enable-background="new 0 0 184.252 226.771" xml:space="preserve"><rect fill="#FFFFFF" x="0px" y="0px" width="184.252px" height="226.771px" />
<g id="Färg">
	<linearGradient id="SVGID_1_" gradientUnits="userSpaceOnUse" x1="53.6836" y1="217.7969" x2="61.0165" y2="196.4641">
		<stop offset="0" style="stop-color:#FFFFFF" />
		<stop offset="1" style="stop-color:#EDEDED" />
	</linearGradient>
	<path fill="url(#SVGID_1_)" d="M87.667,218.333l5.333-24l3-14c0,0-7.667,5.666-19.667,5s-14-3.666-20-6.666S42,165.334,41,164.667   S39,172,39,172s-11.667,29.333-14.667,32S56.666,225.333,87.667,218.333z" />
</g>
<g id="Lager_1">
	<g>
		<path d="M121.322,5.89c0.112,0.56,0.225,1.119,0.56,1.566c-0.335,1.454,1.119,2.908,0,4.25c0,1.79-0.224,3.131-0.894,4.809    c-1.119,3.243-1.679,7.046-2.909,10.177c-0.782,3.579-2.683,7.045-3.354,10.625c-1.454,3.579-2.46,7.046-3.019,10.625    c-0.672,0.559-0.56,1.23-0.783,2.013c-1.678,7.828-4.362,15.545-6.152,23.262c0.225,0.223,0.561,0.447,0.783,0.223    c6.711-12.749,10.96-26.617,16.888-39.366c0.111-0.895,0.447-0.895,0.783-1.677c0.446-1.006,0.782-2.125,1.118-3.132    c1.342-1.566,1.789-3.69,3.132-5.368l-0.112-0.335c0.896-0.336,1.342-1.79,2.459-1.902c2.461-1.23,5.257-1.342,7.941-0.112    l0.783-0.335c-0.112,0.783,0.895,1.342,1.565,1.678c0,0.671,0.447,1.565,0.783,2.237c-0.111,1.454,0.224,2.908,0.224,4.138    c-0.112,0.895-0.782,1.79-0.672,2.684c-0.671,0.895-0.446,1.901-0.894,2.685c-1.565,5.144-3.579,10.4-4.586,15.657    c-0.335,0.559-0.559,1.342-0.783,2.013l0.336,0.447c-1.23,0.448-0.111,1.902-1.119,2.461c-0.223,1.79-1.453,3.131-1.342,4.92    c-1.565,3.132-2.348,6.599-3.801,9.73c-0.896,2.237-1.791,4.026-2.686,6.375c-0.671,1.007-1.118,2.237-1.229,3.355    c-1.566,1.678-1.901,4.026-3.243,6.04c-0.225,0.783-1.23,1.006-0.447,1.901c-0.783,1.23-0.672,2.908-0.447,4.25    c-0.336,0.559,0.111,1.229,0.559,1.677c3.804-2.349,7.94-4.921,11.854-7.27c0-0.559,1.008-0.336,1.344-0.895    c1.677-1.678,4.473-2.46,6.15-4.026c4.362-3.131,8.5-6.039,12.302-9.059l0.448-0.112c3.354-3.467,6.71-6.71,11.407-7.157    c0.895,0.447,2.124,0.894,3.354,0.783c2.014,1.565,5.703,2.907,4.585,6.598c0.112,1.79-1.229,3.02-1.565,4.585    c-0.671,1.343-2.237,2.46-2.237,4.026h-0.559c-8.499,7.605-17.111,14.763-25.386,22.144v0.224    c-0.783-0.335-0.783,0.783-1.343,1.006c-2.236,2.236-4.361,4.25-6.486,6.599c-0.783,0.335-1.678,1.454-2.461,1.901    c-0.671,0.447-1.23,1.006-1.9,1.565c-2.462,6.821-5.703,13.757-9.171,20.354c-3.69,5.814-8.276,11.631-12.078,17.11l0.11,0.112    c-3.689,4.697-6.821,10.289-10.176,14.873c0.447,0.783-0.336,1.119-0.671,1.79c-0.783,1.565-1.007,3.355-1.79,4.81    c-0.671,2.236-1.565,4.697-1.901,6.822c-0.447,1.006-1.453,0.447-2.124,0.336c0.111-0.672-1.454-0.896-0.336-1.455    c-0.336-0.67,0.56-0.559,0.56-1.229c0.447-2.014,1.23-3.691,1.9-5.592c0.224-0.671,0.672-1.677,0.783-2.349    c1.118-1.79,0.894-4.026,2.685-5.48c0.67-0.111,1.005-0.67,1.118-1.23c4.809-7.716,10.177-15.434,15.769-22.703    c-0.112-0.559,0.671-0.67,0.783-1.117c4.249-5.703,7.27-11.967,10.065-18.453c1.788-3.467,2.684-7.381,4.474-10.961    c0.334-0.334,0.894-0.782,1.342-0.334c0.111,0.334,0,0.895,0.446,1.006c1.902-1.901,3.579-3.803,5.704-5.815    c-0.223-0.448,0.336-0.335,0.56-0.671c8.499-8.499,18.677-16.552,27.624-25.163c0.335-0.223,0.894-0.671,1.005-1.229l-0.111-0.112    c-1.453,0.335-2.571,1.677-4.361,1.23c-2.014-0.895-3.243-3.02-3.579-5.033c0.112-2.237,0.336-4.585,2.461-5.592v-0.111    c-1.789,0.335-3.131,1.9-4.585,2.908c-0.56,0.782-2.014,1.229-1.79,2.572c-0.446,1.007-1.9,0.447-2.237,1.678    c-0.335,0.112-0.67,0.447-1.005,0.335c-5.369,3.914-10.514,7.717-15.993,11.072c-5.257,2.907-10.401,6.374-15.321,9.506    c-0.56-1.007-2.126-0.783-2.014-2.013c-1.118-0.56-0.447-1.901-1.23-2.46c0.447-2.014,0-3.914,1.454-5.592h0.337    c0.78-3.132,2.683-5.815,3.577-8.835c1.231-1.789,1.79-4.137,2.796-6.039c0.448-1.565,1.343-3.131,1.79-4.585    c1.006-2.349,1.678-4.809,2.349-7.381c-3.132-3.131-7.494-5.368-12.078-4.362l-0.112,0.224c1.9,1.342,4.361,2.46,6.599,3.467V58.9    c-2.349-0.67-4.361-1.901-6.711-2.684L117.073,57c-0.56-0.112-0.224-1.006-0.895-1.119c-0.336,0.335-1.007,0.671-0.56,1.119    h-0.336c-2.013,4.249-3.243,8.947-6.151,12.749l0.113,0.224c-1.454,0.783-1.678,2.907-2.909,4.25l0.225,0.224    c-1.118,1.006-1.007,3.579-3.243,3.355c-0.896-0.56-2.014-1.007-2.126-2.125c0.225-1.119,2.014-0.895,1.566-2.349    c0.336-0.671,0.56-1.454,0.447-2.013c1.007-2.796,1.678-5.927,2.461-8.834c0.895-2.572,1.118-4.585,1.901-7.27    c0-0.783,0.56-1.79,0.111-2.572c0.895-1.119,0.671-2.572,1.007-3.914c-2.908-1.342-5.928-2.349-8.724-4.138    c1.565,0.783,3.803,1.565,5.592,2.572c1.119-0.112,2.237,0.559,3.356,0.447c0.222-0.224,0.335-0.895-0.113-1.23    c-2.796-2.349-6.486-2.796-9.952-3.355h-2.126v-0.224c3.579,0.447,7.381,0.112,10.514,2.013c0.895-0.336,1.341,0.56,2.124,0.783    c0.559-2.125,1.9-3.914,2.013-6.039c1.118-3.69,2.125-7.157,3.579-10.736c0.671-2.684,1.79-5.815,2.349-8.723    c1.342-3.243,2.237-6.711,2.237-10.625l-0.225-0.336c-1.789,1.902-2.125,4.139-3.354,6.263l0.224,0.783    c-2.573-0.336-5.592-0.783-8.276-1.566c-0.67-0.559-0.67-1.454-1.229-2.125c-1.342,0.559-0.783,1.901-1.566,2.796    c-0.336,1.23-0.783,2.348-1.453,3.355c0.335,0.671-0.783,1.23-0.336,1.79c-1.343,1.565-1.343,3.355-2.014,5.145    c-1.006,1.677-1.454,3.69-2.237,5.48c-1.229,3.914-3.018,7.716-4.137,11.52l0.111,0.335c-0.559,0.335-0.67,1.342-0.783,1.901    c-2.907,8.611-5.256,17.111-7.939,25.723l-0.335,0.224l-4.251-1.566c0.113-1.23,0.56-3.02,0.896-4.138    c-1.231-7.045,0.111-14.539-0.112-21.472c-3.243-1.343-7.156-1.454-10.624-1.901c-0.336,0.335,0.223,1.006-0.225,1.23    c-0.335-1.007-1.229-1.566-2.124-1.79c0.446,0,1.006,0.336,1.565,0.111c0.672-2.46,3.243-2.572,5.256-3.02    c0.895-0.111,1.342,0.671,2.237,0.112c1.453,0.224,2.684,0.447,4.138,1.007c0.56-3.131,0.224-6.486,0.56-9.618    c-0.448-1.118,0.335-1.789,0-3.02c-0.336-1.342,0-2.684-0.224-4.361c1.789-1.119,0.783-3.915,1.566-5.592    c0.111-1.119,0.446-2.46,0.446-3.691l-0.335-0.111c-0.783,0.671-1.007,2.46-2.573,2.125c-2.571,0.111-4.921-0.896-7.492-1.119    c-0.336-1.342-0.336-2.908-0.447-4.361c-2.46,6.374-3.243,12.973-4.473,19.906l0.222,0.224c-0.559,1.229-0.335,2.796-0.559,4.025    c-0.671,2.461,0.112,4.585-0.671,7.046l0.56,0.447c-0.225,0-0.335-0.224-0.448,0c-0.67,7.717-1.564,16.104-2.46,23.71    c0.224,0.67-0.335,1.342-0.335,2.125c-0.336,1.565,0.112,3.691-0.782,4.921c0.446,0.671-0.672,1.118-0.337,1.901    c-0.671,0.67-0.335,1.677-1.229,2.348c0.224,0.335-0.225,0.783-0.56,1.007c-0.783,0.335-1.118,1.342-1.566,2.125    c-0.895,1.79-2.124,4.026-3.131,6.039c-1.677,3.691-3.242,7.941-6.486,10.736c-0.335,0.335-0.782,0.224-1.343,0.224    c0-0.335-0.67-0.895-0.111-1.23c0-0.224,0.447-0.671,0.783-0.895c1.006-2.013,2.685-4.026,3.243-6.263    c0.335-0.447,0.783-0.894,0.783-1.565c0,0-0.111,0-0.225,0c0.783,0.112,0.56-1.007,1.008-1.23    c0.335-1.119,1.118-2.013,1.453-3.131c1.901-3.131,3.355-6.375,5.144-9.73c2.015-3.578,1.344-8.499,2.237-12.19    c0.337-4.026,1.007-7.269,1.231-11.295c-0.336-0.223-0.112-0.447,0.11-0.67c0.225-2.461,0.225-5.033,0.56-7.27    c-0.224-0.336-0.56-0.448-0.782-0.448c1.23,0.225,0.782-1.565,1.006-2.236c0-3.578,0.895-6.821,0.895-10.624    c0.672-2.125,0.895-5.145,1.454-7.381c0.783-3.69,1.566-6.487,2.35-9.954l0.223-0.112c0.782-2.125,1.454-4.361,2.46-6.375    c1.23-0.895,2.796-0.447,4.026-1.23c1.454-0.112,2.907-0.112,4.361,0.111c0.448,0.447,1.119,0.672,1.791,0.672    c0.111,0.671,0.894,1.006,1.342,1.454c0.782,1.342,1.118,2.907,1.341,4.361h0.225c-0.447,0.448-0.112,0.896-0.112,1.455    c0.671,0.895-0.335,1.901,0.112,2.908c-0.447,0.783,0.111,1.454-0.447,2.125c-0.336,3.131-0.896,6.151-1.678,9.395    c0,2.125,0.335,4.026,0,6.151c0.335,0.783-0.224,1.901,0.111,2.684c-0.56,1.677-0.111,3.691-0.447,5.256    c0.112,1.006-0.335,1.901,0,2.908c-0.335,0.223-0.335,1.006-0.224,1.566c-0.111,0.783-0.111,2.013,0,2.796    c-0.447,0.447-0.111,1.006-0.223,1.565c-0.113,0.895-0.113,2.013,0,3.02c-0.561,4.809-0.449,9.282-0.225,14.091    c0.447,0.895,0.336,1.789,0.447,2.685c1.341-2.349,1.678-5.256,2.349-7.717c1.007-2.46,1.678-5.144,2.125-7.717    c0.895-0.783,0.671-2.236,1.229-3.354c-0.223-0.56,0.671-1.119,0.671-1.79c4.027-12.75,8.836-25.387,13.757-37.465h-0.225    c1.119-1.006,1.119-2.572,1.902-3.803l-0.224-0.335c0.559-0.336,1.118-0.783,1.118-1.565c1.006-0.783,2.125-0.896,3.02-1.902    c0.67-0.224,1.341-0.224,1.9-0.559C115.843,1.64,119.422,2.759,121.322,5.89z" />
		<path fill="#FFFFFF" d="M116.29,4.883c0.671,0,1.23,0.448,1.789,0.783c0.447,0.112,0.56,0.447,0.783,0.895V7.12    c-1.901-1.789-4.36-1.789-6.71-2.125l-0.896,0.112c0-0.336,0.336-0.672,0.671-0.783c0.56,0.335,1.119-0.112,1.455-0.335    C114.277,4.1,115.507,4.325,116.29,4.883z" />
		<path fill="#FFFFFF" d="M83.97,6.114c-2.014-0.224-4.474-0.783-6.486-0.335c-0.336,0.447-0.895,0.224-1.454,0.111    c0.895-0.335,1.566-0.111,2.46-0.782C80.168,4.996,82.404,4.548,83.97,6.114z" />
		<path fill="#FFFFFF" d="M117.743,7.232c0.896,0.671,0.336,1.565,0.113,2.349l-2.796,5.703c-2.125-0.447-4.362-1.006-6.375-1.789    c-1.566-2.237-0.112-4.473,0.111-6.822c1.901-1.901,5.146-0.783,7.382-0.112L117.743,7.232z" />
		<path fill="#FFFFFF" d="M84.864,9.133c-0.336,1.678-1.342,3.132-2.236,4.474c-2.573,0.447-4.81-0.671-7.269-1.006    c-0.225-1.901-0.337-4.25,0.111-6.151c2.013-0.224,3.579-0.224,5.703,0C82.628,6.785,84.753,7.344,84.864,9.133z" />
		<path fill="#FFFFFF" d="M133.4,23.225c1.566-0.447,3.132,0.336,4.474,1.119c0.113,0.447,0.225,0.783,0.225,1.23    c-1.902-1.006-4.25-1.342-6.263-1.901c0.223-0.335,1.006-0.335,1.564-0.56V23.225z" />
		<path fill="#FFFFFF" d="M138.322,27.139c0.67,1.006-0.782,1.565-0.335,2.572c-0.672,1.342-1.119,3.019-2.796,3.355    c-1.902,0-4.251,0.111-5.257-1.901c-0.224-1.901-0.335-3.69,0-5.48c0.224-1.79,2.124-1.23,3.354-0.895    C134.967,25.35,136.868,25.797,138.322,27.139z" />
		<path fill="#FFFFFF" d="M130.718,33.849c2.013,0.447,4.36,1.006,6.262-0.112c-1.229,4.25-2.685,8.724-3.802,13.085    c-0.896,4.026-2.349,7.94-3.356,11.854c-1.341-1.006-2.907-2.796-4.808-3.243c-2.461-1.007-5.479-2.461-8.275-1.007    c0-1.006,0.559-2.013,1.118-2.908c0.446-1.789,1.229-3.243,1.789-5.032c0.335-0.783,1.229-1.454,1.007-2.461    c2.236-5.256,4.585-10.624,7.27-15.769l0.336-0.671C128.258,29.823,128.145,32.619,130.718,33.849z" />
		<path fill="#FFFFFF" d="M82.739,40.447l-0.111,1.902c-3.578-0.335-7.269-0.335-10.736-1.119c1.453-3.02,4.809-2.348,7.717-2.236    C80.727,39.329,81.846,39.665,82.739,40.447z" />
		<path d="M97.726,43.355l0.447,0.224L97.726,43.355z" />
		<path d="M98.62,44.026h0.225H98.62z" />
		<rect x="99.403" y="44.25" width="0.111" height="0.112" />
		<polygon points="124.901,59.348 124.454,59.124 124.789,59.236   " />
		<path d="M125.908,59.684c-0.224,0.224-0.56-0.112-0.671-0.224C125.349,59.684,125.797,59.348,125.908,59.684z" />
		<path d="M23.914,59.907c0,0.559,0.671,0.447,1.006,0.559c2.236-0.112,4.027,1.454,6.04,1.901c0.111,0.896,1.342,0.559,1.9,1.119    c3.02,1.79,5.48,4.473,8.052,6.822c3.468,4.698,5.48,10.96,8.053,15.993c0.783,1.566,1.342,3.355,2.685,4.473    c0.111,0.559-0.56,0.783-0.672,1.118c-1.006,0.336-1.565-0.894-2.236-1.565c-1.342-2.796-2.572-5.704-3.691-8.276    c-1.005-0.112,0-0.783-0.559-1.23c-1.789-3.244-2.907-7.045-5.815-9.506c-3.131-2.572-6.374-5.591-9.729-6.822    c-0.783-0.223-1.232-0.895-2.126-0.783l-0.111-0.224c-3.244-0.671-6.599-2.013-9.729-0.56c-1.791,1.007-2.572,2.796-3.579,4.361    c-0.111,0.56,0.11,1.007,0.447,1.342c0.56-0.112,0.335,0.56,0.56,0.895c1.453,1.231,3.019,0.448,4.585,1.231    c2.348,1.342,4.473,2.348,6.71,3.802c0.111-0.559,0.67-1.118,1.342-1.118c0.224,0.336,1.119,0.224,1.006,0.895    c0.337,1.901,0.225,4.026,1.118,5.48c-0.446,0.335,0.225,0.671,0.112,1.118c3.356,18.006,6.822,36.124,12.749,53.793    c0.896,0.782,0.783,2.013,1.455,2.795c-0.336,0.896,0.223,1.679,0.447,2.461c0.112,2.014,0.334,4.025,0.894,5.928h0.224    c-0.111,3.243,1.231,6.486,1.119,9.842c0.112,1.678,0,3.578,0.335,5.367c-0.335,0.561-0.782,1.119-1.005,1.678    c-1.008,0-1.791-0.559-1.902-1.565c1.229-1.118,0-2.572,0.336-3.802c-0.112-2.797-0.336-5.816-1.119-8.611    c-0.671-5.369-1.564-10.849-3.467-15.881c-4.138-14.092-7.828-27.624-10.399-42.163c-1.008-4.361-1.791-8.835-2.685-13.308    c-3.132-1.79-5.815-4.138-9.507-4.809c-0.783-0.671-1.678-0.447-2.572-0.895c-0.894-0.783-2.236-1.566-2.685-2.685h-0.223    c0.559-1.454-0.561-3.354,1.23-4.25c1.118-0.895,0.67-3.243,2.571-3.02c1.008-0.671,2.126-1.342,3.355-1.454l0.335-0.336    c1.454,0.112,3.243-0.447,4.587,0.112L23.914,59.907z" />
		<rect x="164.044" y="67.177" fill="#FFFFFF" width="0.111" height="0.111" />
		<path fill="#FFFFFF" d="M168.518,69.301c1.229,0.223,0.896,1.678,1.565,2.349l-0.111,0.223c-1.678-1.565-3.021-3.467-5.145-4.361    C165.946,68.071,167.959,67.959,168.518,69.301z" />
		<path fill="#FFFFFF" d="M169.188,73.663c-0.225,3.131-3.579,3.131-5.816,4.139c-1.788-0.448-2.795-2.461-3.241-4.026l0.446-3.132    c1.118-0.67,1.678-2.46,3.132-2.684C166.281,68.518,168.518,71.202,169.188,73.663z" />
		<path d="M151.743,89.991l0.11,1.118c-0.559-0.559-0.782-1.342-0.894-2.125c-1.23-2.125-3.132-4.697-5.592-5.928    c-0.225-0.223,0-0.559,0.223-0.559C148.834,83.728,150.512,87.083,151.743,89.991z" />
		<rect x="118.415" y="96.03" width="0.111" height="0.224" />
		<path d="M42.367,163.132c8.835,14.763,25.386,23.373,42.608,20.242c3.244-0.559,6.486-1.565,9.618-2.461    c0.56-0.782,0.783-2.571,2.349-2.571c1.119,1.118-0.111,2.349,0.225,3.467c-0.448,1.118-1.007,2.46-1.343,3.579    c0.112,1.006-0.671,1.564-0.447,2.572c-0.56,1.565-1.006,3.355-1.23,4.92c-1.565,4.586-2.571,9.618-3.579,14.203    c0.225,0.336,0,0.447-0.223,0.671c-0.112,1.565-0.783,2.796-1.007,4.362c-0.336,0.111-0.672,0.336-1.118,0.111l-0.56-0.671    c0.782-1.007,0.336-2.796,0.672-4.026c1.006-6.934,3.578-13.309,4.809-20.13c0.447-1.565,0.783-3.579,1.453-5.257    c-12.748,6.375-30.308,3.914-41.267-4.585c-4.474-3.132-7.718-7.382-10.96-11.407c-0.447,2.46-1.455,4.475-2.35,6.71    c0,0.782,0,1.565-0.783,2.125c-0.446,1.23-0.782,2.572-1.341,3.69c-1.677,4.25-3.021,8.164-5.033,12.19    c-0.447,1.79-1.342,3.354-2.236,4.921c-0.224,2.348-2.014,4.138-3.243,5.927c-0.56-0.111-1.566,0.225-1.901-0.559    c-0.111-0.671,0.111-1.454,0.894-1.454c2.574-4.809,4.811-10.289,6.823-15.434c0.446-1.006,1.118-2.236,1.229-3.243l1.119-2.46    c-0.56-0.447,0.447-0.447,0.335-1.007c2.236-4.585,3.02-9.841,5.032-14.315C41.359,163.243,41.92,162.907,42.367,163.132z" />
	</g>
</g>
</svg>
