<?xml version="1.0" encoding="UTF-8"?>
<!DOCTYPE svg PUBLIC "-//W3C//DTD SVG 1.1//EN" "http://www.w3.org/Graphics/SVG/1.1/DTD/svg11.dtd">
<!-- Generator: Adobe Illustrator 14.0.0, SVG Export Plug-In . SVG Version: 6.00 Build 43363)  -->
<svg xmlns="http://www.w3.org/2000/svg" xmlns:xlink="http://www.w3.org/1999/xlink" version="1.1" x="0px" y="0px" width="187.087px" height="226.771px" viewBox="0 0 187.087 226.771" enable-background="new 0 0 187.087 226.771" xml:space="preserve"><rect fill="#FFFFFF" x="0px" y="0px" width="187.087px" height="226.771px" />
<g id="Färg">
	<linearGradient id="SVGID_1_" gradientUnits="userSpaceOnUse" x1="41.1885" y1="215.5957" x2="47.9385" y2="192.3457">
		<stop offset="0" style="stop-color:#FFFFFF" />
		<stop offset="1" style="stop-color:#EDEDED" />
	</linearGradient>
	<path fill="url(#SVGID_1_)" d="M74.667,220.334l1.667-22l1.333-13c0,0-13-1.334-15.333-2.667S46,174.668,42,168.334   S34.333,155,34.333,155s-5.334,7.333-5.667,9s-3.333,7.666-6.667,14s-6,12.333-7,14s-4.333,8.667-4.333,8.667   S32.666,222.668,74.667,220.334z" />
</g>
<g id="Lager_1">
	<g>
		<path d="M142.029,65.106c0.062,0.169,0.136,0.331,0.17,0.516C142.169,65.427,142.107,65.259,142.029,65.106z" />
		<path d="M175.078,43.591c0.447-0.672-0.111-1.119-0.111-1.566c-1.565-2.685-4.361-6.263-8.164-6.15    c-0.671-0.112-1.008,0.893-1.678,0.334v0.225c-0.895,0.334-1.9,1.008-2.908,1.454c-0.447,0.224-0.67,0-0.895,0.446    c-4.137,1.566-8.61,4.361-12.525,7.047c-0.783,0.335-1.677,1.007-2.46,1.117c-3.021,2.572-6.823,4.699-10.178,6.936    c-0.782,0.559-1.9,1.342-2.796,1.677c-7.381,5.368-14.426,10.177-21.473,16.104c-0.671,1.006-1.117-0.447-1.789,0.672    c-1.118,0.446-2.461,0.783-3.69,1.117c-1.343-1.9-0.56-4.921-0.448-7.045c-0.446-0.672,0.672-1.342,0.225-1.902    c1.007-1.006,0.334-2.349,0.895-3.578c0.672,0,0.223-0.895,0.336-1.118c0.447-2.013,1.565-4.362,2.124-6.375    c0.335-0.671,0.224-1.679,0.896-2.237c0-1.006,0.559-2.236,0.782-3.242c0.56-0.896,0.448-2.35,1.007-3.133    c0.671-2.683-0.112-5.592,1.789-8.051c0.559-2.46,1.453-4.474,2.236-6.934c0.113-0.448,0.672-1.119,0.447-1.23    c0.561-0.672,0.225-1.343,0.561-2.014c0-0.559,0.783-1.006,0.559-1.565c0.447-0.447,0.336-1.23,0.447-1.79    c0.224-0.56,1.342-0.895,0.672-1.566c0.224-0.894,0.559-2.125,0.67-3.243c-0.111-2.013,1.23-4.25,0.112-6.151    c0-1.79-1.454-2.908-2.349-4.25h-0.336c-0.783-0.559-1.901-1.007-2.684-0.895c-2.237-0.783-5.592-1.118-7.605,0.112    c-0.446,1.118-1.453,2.237-2.124,3.131c-4.586,6.822-7.046,15.545-11.072,23.039c-1.901,4.921-4.362,9.842-6.598,14.874    c-1.342,4.474-3.802,8.946-5.592,13.086c-0.895,1.118-1.006,2.683-2.013,3.354l0.111,0.111c-1.118,1.902-2.012,4.138-3.354,5.703    c-0.447,0.895-0.895,2.014-1.678,2.574c-2.46,4.473-5.704,8.274-8.387,12.189c-1.006-1.119-0.895-2.573-1.566-3.803    c-0.335-0.559,0-1.118-0.335-1.566l-0.224-0.111c-1.342-5.146-2.908-9.619-3.579-14.762l0.448-0.561    c-0.783-1.23-0.896-2.012-1.119-3.578c-0.224-0.559-1.007,0.224-0.783-0.67c-0.447-0.113-0.335-0.783-0.783-0.896    c-1.229-2.572-3.466-4.695-5.144-6.822c-1.901-1.117-3.691-2.796-5.704-3.803c-3.579-2.236-7.829-2.795-11.855-2.236    c-0.671,0.672-1.454,0.113-2.013,0.896c-1.23-0.113-2.573,1.229-3.132,2.459c-0.112,0.225,0,0.895-0.559,0.783    c0,0.895,0.112,1.9-0.223,2.684c0.111,0.447,1.006,0.783,0.447,1.23l0.56,0.113c2.684,3.131,6.263,6.485,9.17,8.945    c0,0.336,0.336,0.672,0,0.895c0.448,3.691,0.671,7.605,1.119,11.743c-0.112,0.112-0.112,0.224-0.224,0.224    c0.447,0.783,0.335,1.453,0.335,2.46c0.112,0.896,0.336,1.678,0.112,2.573c0.335,3.803,0.783,6.933,0.671,10.512    c1.007,14.428,0.56,26.729-1.23,40.597c-0.447,3.354-0.895,6.487-1.454,10.065c-1.007,1.006-1.007,2.684-1.677,3.913    c-0.896,2.574-1.007,5.816-2.908,7.941c-0.224-0.335-0.671-0.447-1.006-0.223c-0.56,1.006,0.559,1.9,0.447,2.907    c6.599,15.88,22.927,28.406,40.261,28.741c1.007,1.119,1.79-0.559,2.796,0l-0.224,0.336c-1.006,3.467-0.671,7.941-1.454,11.407    c0,0.783-0.111,1.566-0.111,2.237c-0.426,5.042-0.886,10.01-1.359,14.919c0.804-0.366,1.603-0.737,2.397-1.111    c0.377-3.674,0.69-7.367,1.087-11.236c0.447-4.474,0.671-8.61,1.565-12.861c0.336-1.229,0-3.019,0.56-4.249    c-0.447-1.565-1.901-0.112-2.796-0.783c-0.111-1.565,0.224-3.132,0.336-4.809c1.006-1.007-0.224-2.796,1.006-3.69    c-0.224-0.336,0-0.447,0.224-0.671c-0.336-0.783,0.447-1.566,0.67-2.35c1.007,0,1.79-1.118,2.685-0.67l0.223-0.56    c3.355-1.901,6.151-3.69,9.507-5.815c1.678-1.007,3.355-2.349,4.92-3.579c1.23-0.335,2.126-1.678,3.468-2.124    c1.118-1.007,2.572-2.014,3.801-3.132c1.566-1.119,3.021-2.797,4.81-4.026c2.014-2.796,4.921-5.256,7.046-8.163    c0.671-1.344,2.125-2.126,3.355-2.796c1.006-0.783,2.572-2.014,2.348-3.469c1.455-1.453,2.908-3.018,3.803-4.809    c1.789-1.788,3.02-3.802,5.145-4.92c0.336-1.007,1.454-1.566,2.237-2.35c1.453-2.348,3.354-4.809,4.025-7.604    c0.56-2.461-0.56-4.921-1.679-7.045c-0.781-0.783-1.34-2.35-2.906-2.014c-0.895,1.566,0.225,3.02,1.229,4.25    c0.112,0.671,1.23,1.343,0.448,2.125c0.335,1.566-0.111,2.908-0.671,4.362c-0.224,0.223-0.337,0.334-0.224,0.67    c-1.118,1.565-2.236,3.132-3.58,4.473c-0.111,0.113-0.223,0.672-0.67,0.672c-1.455,1.343-2.908,3.132-4.361,4.361    c-0.672,1.231-1.789,2.461-2.686,3.579c-0.223,0.895-0.781,1.79-1.229,2.685c-0.559,0.111-1.007,0.335-0.894,1.006    c-0.56,0.783-1.455,1.79-2.35,2.014c-0.782,1.23-2.572,1.119-3.243,2.572c-0.447,0.894-1.342,1.789-1.79,2.684    c-3.801,4.138-7.045,8.388-11.63,11.52c-0.448,0.112-1.007,0.224-1.007,0.782c-3.242,2.46-6.935,4.697-10.401,7.27    c-2.908,1.901-6.039,4.138-9.059,5.48l-0.111-0.336c-0.224-0.559-0.895-0.783-1.566-0.783c-1.118,0.783-1.23,2.125-1.79,3.244    c-0.335,0.335-0.783,0-1.006,0.56c-0.56,0.67,0.447,0.559,0.671,0.895c-0.559,3.242-1.342,6.934-1.342,10.399    c-4.25-0.447-8.164-1.117-12.078-2.684c-2.013-0.336-3.579-1.678-5.48-2.237c-9.059-4.695-17.446-13.756-21.361-23.148    c0.224-0.225,0.335-0.448,0.559-0.225c1.454-0.335,1.566-2.013,1.901-3.244c0.112-0.782,0.895-1.117,0.671-2.124    c0.224-0.336,0.783-1.006,0.448-1.455c0.559-1.899,1.677-3.801,1.789-5.813c0.112-0.224,0.448-0.56,0.112-0.783    c0.447-1.342,0.224-3.244,1.006-4.697c0.224-2.908,0.895-5.816,1.119-8.612c-0.224-1.005,0.559-2.013,0.336-2.907    c0.111-1.23,0.559-2.013,0.335-3.354c0.112-3.021,0.895-6.264,0.671-9.171c0-1.007-0.112-2.237,0.335-3.132    c-0.56-3.02,0-5.926-0.224-8.723l-0.112-0.112l0.335-0.335l-0.224-0.336c0-2.795-0.112-5.705-0.447-8.387    c0.447-0.672-0.336-1.231,0.111-1.791c-0.335-3.131-0.223-6.15-0.782-8.947c0.447-0.67-0.448-1.453,0.111-2.012    c-0.671-1.789-0.447-4.026-0.559-6.039c-0.448-0.783,0-1.9-0.448-2.908c0.112-0.225,0.56-0.559,0-0.783    c-0.111-0.447,0-1.006,0.224-1.341c-0.447-1.118-0.224-2.015-0.56-3.132c1.006-3.02-2.46-4.81-4.026-6.822    c-0.559-1.007-1.9-1.23-2.348-2.461c-0.895-0.335-1.678-1.342-2.013-2.236c-0.56-0.335-1.343-0.783-1.566-1.453    c-0.224-1.119,0.559-2.461,1.566-3.467c0.447-0.113,1.118-0.56,1.677-0.113c0.112-0.783,1.119-0.335,1.566-0.783    c4.361,0,8.723,1.79,12.189,4.586c3.355,2.237,6.151,5.816,8.612,9.059c0.895,4.139,1.454,7.828,2.572,11.967    c0.783,2.685,1.79,5.48,2.237,8.164c0.895,1.342,1.23,3.244,2.236,4.697l-0.782,1.566c-0.336,0.559-0.895,1.229-0.895,1.789    c-0.112,0.111-0.223,0.336-0.559,0.223c-0.112,0.336,0.111,0.561,0.336,1.007c0.447-0.446,1.454,0.224,1.118-0.671    c0.112-0.336,0.559-0.895,0.782-0.67v-0.225c0.56-0.225,0.671-0.895,1.118-1.453c0.448-0.672,1.343-0.224,1.566-1.118l-0.56-0.337    c2.237-4.025,5.48-7.27,7.605-10.959c2.46-3.132,4.474-6.936,6.822-10.4c5.815-10.736,9.729-22.703,15.322-33.663    c-0.112-0.448,1.006-0.448,0.334-1.007c2.126-5.033,4.475-9.953,6.936-14.874c0.111-0.559,0.447-1.342,1.006-1.342l0.447,1.789    c0.447,2.685,3.467,2.46,5.369,3.243c3.689,1.231,4.695-3.019,6.374-4.808c-0.112,2.46-0.224,4.697-1.23,7.045    c-0.448,0.559,0.112,1.454-0.56,1.789c-0.559,3.131-1.788,5.928-2.795,8.835c-0.225,2.348-1.343,4.026-1.902,6.375    c-1.229,11.07-8.163,20.914-7.27,32.656c-0.11,0.559,0.672,1.119,0,1.565l0.225,0.112c-1.008,0.67-0.783,1.788-0.56,2.684    c1.678,0.111,3.466-0.336,5.145-1.006c7.269-3.691,12.974-9.06,19.907-13.869c0.895,0.225,0.783-1.117,1.566-0.782    c1.677-1.565,3.578-2.907,5.59-3.915c0.896,0,0.561,0.783,0.561,1.23c0.895,1.79,2.46,3.243,3.689,4.92h0.337    c0.29,1.357,1.669,1.625,2.179,2.617c-0.351-0.969-1.099-1.742-1.957-2.504c-1.005-1.901-3.018-3.355-3.465-5.48    c1.006,0.783,2.013,1.678,3.02,2.461c-0.783-1.453-2.236-2.461-3.691-3.355c-0.111,0-0.447,0.224-0.672,0    c6.04-4.139,12.303-8.053,18.342-11.855c3.243-1.564,6.486-3.466,9.73-4.809c0.895-0.447,2.014-1.342,2.796-0.67    c-1.901,0.67-3.804,1.789-5.368,3.466c-1.007,1.118-2.237,2.237-2.349,3.69l0.448-0.445l0.67,0.559    c0.559,2.123,2.461,3.578,4.25,4.696c2.684-0.224,4.92-1.454,7.381-2.349c0.336,0.112,0.112,0.672,0.447,0.559    c0.559-0.223,0.113-1.006,0.783-1.118l0.224,0.112c-1.118,2.35-3.132,3.467-5.146,5.256l-0.111-0.111    c-0.111,0.335-0.335,0.447-0.67,0.67c-0.896,0.783-2.35,1.79-3.244,2.461c-1.006,0.447-1.9,1.566-3.02,2.014    c-1.118,0.672-2.124,1.901-3.355,2.795c-0.895,0-1.23,0.896-1.9,1.119c-1.566,1.119-2.908,2.572-4.697,3.691l-0.783-0.225    c-2.125,1.454-3.803,3.803-6.263,5.145c-2.46,2.572-5.703,3.354-8.276,5.704c-0.223-0.112-0.447-0.448-0.559-0.56    c-0.56,0.672-1.566,1.342-2.013,2.014c-2.237,2.124-4.138,3.579-6.487,5.479c-0.446,0.896-1.342,1.344-2.013,2.126    c-0.446,0.895-1.677,0.448-1.79,1.453c-0.111,0.225-0.111-0.11-0.223,0c-1.23,1.566-3.244,3.021-4.586,4.362    c-0.67-0.112,0,0.783-0.783,0.561c-0.223,0.894-0.894,0.894-0.782,1.9c0.448,0.446,1.343,0.446,1.789,0.335    c2.35-1.677,4.474-3.243,7.158-4.249c0.448,0.447,1.229,0.447,1.453,1.117c1.118,0.672,2.237,1.566,3.021,2.573    c0.336,1.005,1.566,1.563,1.006,2.571h0.224c0.896,0.895-0.335,2.125,0.783,2.686l0.224,2.795    c-0.335,1.789,0.111,4.361-1.342,5.928c-1.566,0.445-2.572,1.677-4.25,1.9c-1.118,1.006-2.908,1.566-4.139,2.46    c-1.006,0.337-2.013,1.118-3.131,1.118c-0.335,0.337-1.007,0.896-0.67,1.343c-0.561,0.672,0.781,0.559,0.781,1.23    c1.007-0.672,2.125-0.783,2.908-1.79c2.014-0.894,3.355-2.012,5.368-2.684c1.007-0.895,2.573-1.342,3.467-2.35    c1.454,0.561,1.677-0.894,2.573-1.564c2.012-3.803,1.006-7.94,0.223-12.08c-0.336-0.559-1.006-1.117-0.782-1.788    c-0.224-0.11-0.447,0-0.337-0.335c-1.677-1.566-2.795-3.58-5.032-4.362c-1.229,0.224-0.895-1.118-1.899-1.229    c2.906-2.908,6.821-5.705,9.729-8.723c1.23-0.447,2.236-1.23,3.354-1.455c0.448-0.895,1.677-1.006,2.237-1.565    c2.014-1.118,3.914-2.908,5.928-4.026c0.67-0.895,1.678-1.565,2.459-2.349c1.679-1.677,4.251-3.02,6.152-4.585    c2.795-1.678,5.703-4.026,8.5-5.703c4.025-4.139,11.07-5.816,11.967-12.526L175.078,43.591z" />
		<path fill="#FFFFFF" d="M114.352,9.033c0.782,0,0.895,0.895,1.678,0.783c0.783,0.894,1.342,2.237,1.006,3.578    c-1.006,1.566-2.461,3.244-3.69,4.698c-1.79,1.341-3.803-0.448-5.704-0.783c-2.124-1.566-1.341-4.697-0.67-6.822    c0.67-1.229,2.013-1.342,3.243-1.119c0.895-0.223,1.677,0.225,2.349,0.56c0.111,0,0.111-0.111,0.111-0.224    c-1.006-0.895-2.684-1.118-3.803-0.895c0.895-0.56,2.684-0.895,3.803-0.112C113.01,9.48,113.791,8.697,114.352,9.033z" />
		<path d="M116.588,12.947c-1.006-1.342-2.125-2.46-3.802-3.02c0.224-0.224,0.894,0,1.229,0.224    C115.134,10.598,116.365,11.829,116.588,12.947z" />
		<path d="M100.596,36.88c-1.678,0.111-3.58-1.455-4.586,0.336c0,0.895,1.119,0.671,1.566,1.23c2.684,0.783,5.369,1.9,7.717,2.795    c0,0.448-0.56-0.224-1.008-0.111c-2.684-1.23-5.927-1.677-8.609-3.02c-0.337-0.224-0.561-0.67-0.225-0.895    c0.111,0,0.225,0.225,0.447,0.111c-0.111-0.67,0.783-1.119,1.342-1.343C98.358,36.321,99.59,35.984,100.596,36.88z" />
		<path d="M101.379,37.104l-0.561-0.224l0.112-0.223C101.268,36.88,101.379,36.657,101.379,37.104z" />
		<path d="M103.28,37.55v0.225c-0.112-0.225-0.335-0.225-0.56-0.225C102.945,37.44,103.168,37.327,103.28,37.55z" />
		<path d="M104.957,38.11h-0.447C104.733,37.887,104.845,37.999,104.957,38.11z" />
		<rect x="105.517" y="38.333" width="0.111" height="0.225" />
		<path fill="#FFFFFF" d="M170.047,42.808c0.559,1.453,1.229,3.131,1.229,4.809c-0.783,0.783-2.126,0.447-3.021,1.23    c-1.564,0.223-3.242,1.006-4.809,0.446c-1.566-1.342-2.572-3.019-3.579-4.696c1.231-2.349,3.915-3.69,6.264-4.809    c0.446-0.111,0.782,0.111,1.229,0.447c0.225-0.336,0.336-0.782,0.111-1.119l-0.335-0.223    C168.48,39.899,169.15,41.465,170.047,42.808z" />
		<path fill="#FFFFFF" d="M172.843,45.491c0.11,0.447,0.335,1.23,0,1.677c-0.225,0.337-0.448,0.337-0.783,0.225    c-0.672-3.021-1.118-5.703-2.796-8.163C171.053,40.571,173.178,42.808,172.843,45.491z" />
		<polygon points="108.088,39.899 107.529,39.453 107.865,39.677   " />
		<path d="M108.424,40.347l0.113,0.448L108.424,40.347z" />
		<rect x="108.983" y="40.683" width="0.112" height="0.224" />
		<polygon points="105.963,41.689 105.963,41.576 106.3,41.689   " />
		<path d="M135.041,60.926c0.783,2.683,3.243,5.255,5.031,7.716c-1.005-0.895-2.012-1.902-2.57-3.02    c-1.006-0.223-0.225-1.23-1.343-1.342c-0.896-1.901-2.013-3.691-1.342-5.704C135.152,59.136,134.594,60.143,135.041,60.926z" />
		<path d="M140.745,60.926c-0.336,0-0.673-0.672-0.783-1.007L140.745,60.926z" />
		<polygon points="134.48,61.484 134.369,60.926 134.48,61.261   " />
		<polygon points="141.416,62.155 140.969,61.372 141.416,62.044   " />
		<path d="M143.429,66.964c-0.671-0.335-0.224-1.453-0.671-2.125C143.316,65.399,143.205,66.294,143.429,66.964z" />
		<rect x="133.587" y="66.964" width="0.112" height="0.224" />
		<path d="M33.046,156.769c-0.224-1.007-1.901-1.454-2.349-0.336c-0.67,1.901-1.566,3.243-2.013,5.146    c-0.671,0.782-0.671,1.899-1.343,2.796c-0.223,1.341-0.894,2.459-1.229,3.69c-2.349,4.92-4.474,9.729-7.27,14.314    c-1.721,3.586-3.445,7.032-5.402,10.4c0.212,1.152,0.424,2.306,0.651,3.45c0.817-1.304,1.599-2.605,2.291-3.896    c0.56-1.342,1.342-2.461,2.125-3.803c0.112-0.896,0.895-1.566,1.118-2.349c0.56-0.56,0.56-1.566,1.23-2.014    c1.23-2.684,2.349-5.256,3.915-7.829c0.671-1.678,1.565-3.019,2.125-4.695c0.112-0.561,1.006-0.561,0.671-1.119    c0.783-1.455,1.454-3.243,2.013-4.585c0.112-0.336,0.112-0.896,0.671-0.783l-0.112-0.671c0.671-1.008,0.671-2.461,1.677-3.467    C32.04,159.676,32.935,158.222,33.046,156.769z" />
	</g>
</g>
</svg>
