<?xml version="1.0" encoding="UTF-8"?>
<!-- Generator: Adobe Illustrator 18.1.1, SVG Export Plug-In . SVG Version: 6.00 Build 0)  -->
<svg xmlns="http://www.w3.org/2000/svg" xmlns:xlink="http://www.w3.org/1999/xlink" version="1.1" id="Lager_1" x="0px" y="0px" width="344px" height="226.8px" viewBox="0 0 344 226.8" enable-background="new 0 0 344 226.8" xml:space="preserve"><rect fill="#FFFFFF" x="0px" y="0px" width="344px" height="226.8px" />
<g>
	<path fill="#FFFFFF" d="M92.6,91.7c-0.5-2-3-3.4-5.1-3.6c-1.2-0.1-4,0-6.2,0.2c-1.5,0.2-2.8,0.5-2.8,0.5l-6.4,0.5   c0,0-2.3-0.1-4.5,0.2c-2.2,0.3-4.4,0.9-4.4,0.9s-5.8,0.9-11.5,1.9c-5.3,1-10.3,2.1-10.3,2.1l-5.9,0.7l2.3-9.2c0,0,1.6-5,0.7-9.2   c-0.9-3.9-4.2-7.1-4.2-7.1s-1.8-1-3.5-0.5S29,71,29,71l1.4,4.6c0,0.9-2.1,5.5-2.1,5.5s-0.7,0.8-1.2,1.8c-0.5,1.1-0.7,2.4-0.7,2.4   s-0.5,0.7-1.1,1.8c-1.1,2.1-2.7,5.3-2.7,5.3s-2.1,1.9-3,4.4c-1,2.5-0.8,5.5-0.8,5.5l-2.7,9.6c0,0-1.5,4.1-3.7,7.5   c-2.8,4.2-9.4,11.3-9.6,11.4c0.7,2.2,3.2,9.5,7.2,14.8c4.9,6.4,13.1,9.4,13.1,9.4l1.2-1c2.6-2.2,5.2-4.1,5.2-4.1s1.5-1.4,3.1-2.3   c1.4-0.8,2.8-1.1,2.8-1.1s8.9-2.5,14.1-5.1c8.3-4.1,14.2-9.3,14.2-9.3s3.7-1.2,6.1-2.6c2.3-1.4,3.8-3.3,3.8-3.3s1.3-1.1,1.4-2.4   c0.2-1.7-1.2-3.8-1.2-3.8s3.4-2.2,4.2-5.8c0.8-3.6-2.8-4.8-2.8-4.8l0,0c0,0-0.1,0-0.1,0l0,0l0.1,0c2.2-0.7,3-4.2,2.4-6.8   c-0.5-2.2-2.6-3.9-4.3-3.6l-0.5,0.2l0,0c0.2-0.1,0.3-0.1,0.5-0.2l0-0.1l5.8-0.5l6.3-1c0,0,2.8-0.3,4.3-0.8S93.2,93.9,92.6,91.7z" />
	<g>
		<g>
			<path fill-rule="evenodd" clip-rule="evenodd" fill="#FFFFFF" d="M90.1,89.2c0,0-2.2,0.1-2.5,0.3C87.2,89.7,86,90,86.1,92     c0.1,2,1.1,2.6,1.9,2.6c0.7,0,3.2-0.5,3.2-0.5s1-1,0.7-2.8C91.5,89.7,90.1,89.2,90.1,89.2z" />
			<g>
				<path d="M90.1,88.9c-1.4,0.1-3.1,0-3.9,1.3c-0.9,1.5-0.4,4.6,1.7,4.7c0.9,0.1,2.2-0.2,3.1-0.4c0.5-0.1,0.7-0.4,0.9-0.9      C92.7,92,92,89.6,90.1,88.9c-0.3-0.1-0.4,0.5-0.1,0.6c1.8,0.6,1.8,2.9,1.1,4.3c-0.1,0.3-0.1,0.1-0.1,0.1      c-0.2,0.1-0.5,0.1-0.8,0.1c-0.7,0.1-1.4,0.3-2.1,0.3c-2,0.1-2.4-3.4-1-4.4c0.8-0.5,2-0.4,2.9-0.5C90.5,89.5,90.5,88.9,90.1,88.9      z" />
			</g>
		</g>
		<g>
			<path d="M67.4,97.7c-0.7-1.5-1.7-3.5-1.2-5.2c0-0.1,0.1-0.5,0.3-0.6c0.4-0.1,0.4,0.6,0.4,0.8c0.2,0.8,0.3,1.6,0.5,2.3     c0.2,0.8,0.4,1.5,0.6,2.3c0.1,0.4,0.7,0.3,0.5-0.1c-0.5-1.4-0.8-3.1-1.1-4.6c-0.1-0.6-0.6-2.1-1.4-1.3c-0.8,0.8-0.5,2.5-0.2,3.5     c0.3,1,0.7,2,1.1,3C67,98.2,67.6,98.2,67.4,97.7L67.4,97.7z" />
		</g>
		<g>
			<path d="M28.2,95.1c0.5,0.1,0.9,0.2,1.3,0.3c0.3,0.1,0.7,0.2,1,0.2c0.2,0,0.4,0.1,0.5,0.2c0.1,0,0.4,0.2,0.2,0.1     c0.1,0.1,0.5,0.4,0.7,0.2c0.1-0.2-0.2-0.5-0.4-0.6c-1.1-0.7-2.6-0.9-3.9-1.1C27,94.2,27.8,95.1,28.2,95.1L28.2,95.1z" />
		</g>
		<path fill-rule="evenodd" clip-rule="evenodd" fill="none" stroke="#000000" stroke-miterlimit="10" d="M27.2,97.4    c0,0,3.4-1.3,6.9-2.1c3.5-0.9,7.1-1.3,7.1-1.3s5.1-1.1,10.3-2.1C57.2,90.9,63,90,63,90s2.2-0.6,4.4-0.9c2.2-0.3,4.5-0.2,4.5-0.2    l6.4-0.5c0,0,1.2-0.3,2.8-0.5c2.2-0.2,5-0.3,6.2-0.2c2.1,0.2,4.6,1.6,5.1,3.6" />
		<g>
			<path d="M92,91.1c0.3,6.5-13.4,6.1-18,6.7c-5.4,0.7-13.8,5-18.9,2.8c-0.7-0.3-0.5,0.8,0,1c5.8,2.6,15-2.3,21.2-2.9     c5.1-0.5,17-0.1,16.7-7.3C92.9,90.9,92,90.4,92,91.1L92,91.1z" />
		</g>
		<g>
			<path d="M63.4,115.1c1.7-1.8,2.1-2,4.4-3c2.5-1,5.7-1.5,7.9-2.9c4.2-2.6,2.9-12.9-3-11.2c-0.6,0.2-1,1.6-0.3,1.4     c1.9-0.6,3.5,0.8,4.1,2.5c1,2.4,0.2,5.2-2.1,6.6c-1.6,1-4,1.4-5.8,2.1c-2.8,1.1-4,1.6-5.9,3.7C62.3,114.9,62.7,115.9,63.4,115.1     L63.4,115.1z" />
		</g>
		<g>
			<path d="M63,125.6c0.3-0.5,0.5-0.9,0.8-1.4c0.2-0.3,1.1-1.6,0.4-1c0.8-0.5,2.3-0.7,3.2-1c2.1-0.7,4.6-1.1,6.5-2.1     c4-2.2,7.2-9.8,1.4-11.8c-0.6-0.2-1.3,1.1-0.6,1.4c4.3,1.5,2.2,7-0.7,9c-1.1,0.8-2.8,1.1-4.2,1.5c-1.6,0.5-4.2,0.8-5.6,1.8     c-1,0.7-1.5,2.2-2,3.2C61.8,125.9,62.6,126.5,63,125.6L63,125.6z" />
		</g>
		<g>
			<path d="M73.5,120.1c3.2,7-6.5,9-10.4,11.3c-5.1,3-9.4,7-14.9,9.5c-4.3,1.9-8.8,3-13.2,4.6c-4.1,1.5-7.6,4.8-10.9,7.5     c-0.5,0.4-0.5,1.7,0.3,1.1c4.2-3.5,8-6.5,13.2-8.1c7.6-2.3,14.6-5.4,21.1-9.9c1.7-1.2,3.3-2.9,5.1-3.8c2.9-1.6,5.9-2.2,8.4-4.4     c2.9-2.6,4.1-5,2.4-8.8C74.2,118.5,73.3,119.6,73.5,120.1L73.5,120.1z" />
		</g>
		<g>
			<path d="M29.4,71c0.3-4.1,4-1.2,5-0.6c2.5,1.4,3.6,6.9,3.6,8.9c0,2.1-0.5,4.1-1,6.1c-0.7,3-1.5,6-2.2,8.9c-0.1,0.5,0.8,1.7,1,1     c1.4-5.7,4.3-12.9,2.9-18.9c-0.6-2.6-2.4-6.3-4.8-7.7c-1.8-1.1-5.4-1-5.6,1.7C28.3,70.9,29.3,71.9,29.4,71L29.4,71z" />
		</g>
		<path fill-rule="evenodd" clip-rule="evenodd" fill="none" stroke="#000000" stroke-miterlimit="10" d="M30.2,75.3    c0,0.9-2.1,5.5-2.1,5.5s-0.7,0.8-1.2,1.8c-0.5,1.1-0.7,2.4-0.7,2.4s-0.5,0.7-1.1,1.8c-1.1,2.1-2.7,5.3-2.7,5.3s-2.1,1.9-3,4.4    c-1,2.5-0.8,5.5-0.8,5.5l-2.7,9.6c0,0-1.5,4.1-3.7,7.5c-2.8,4.3-9.6,11.4-9.6,11.4" />
		<g>
			<path fill-rule="evenodd" clip-rule="evenodd" fill="#FFFFFF" d="M28.8,70.5c0.5,0.2,2.5,1.4,2.5,1.4s0.5,2.1,0.3,3     c-0.2,0.8-1.1,2.6-1.6,0.8C29.5,74,28.1,70.9,28.8,70.5z" />
			<g>
				<path d="M28.7,71c0.9,0.4,1.7,0.9,2.5,1.4c-0.1-0.1-0.2-0.2-0.2-0.4c0.1,0.5,0.2,1.1,0.3,1.6c0.1,0.5-0.2,3-1,1.8      c-0.4-0.6-0.5-1.6-0.8-2.2c-0.1-0.3-0.9-2-0.6-2.3c0.3-0.3,0-1.3-0.4-0.9c-0.9,0.9,0.2,3.1,0.5,4c0.3,0.8,1,4.2,2.3,2.3      c0.9-1.3,0.7-3,0.3-4.5c-0.1-0.4-0.3-0.5-0.7-0.8c-0.7-0.4-1.4-0.8-2.1-1.2C28.4,69.8,28.3,70.8,28.7,71z" />
			</g>
		</g>
	</g>
</g>
<g>
	<g>
		<path fill-rule="evenodd" clip-rule="evenodd" fill="#FFFFFF" d="M219,97c0,0-0.4,1.4-0.3,2.9c0.1,1.7,0.5,3.7,0.5,3.7l-1.9,0.9    c0,0-2.4,0.3-2.5-2.5c-0.1-2.8,1.6-3.2,1.6-3.2L219,97z" />
		<g>
			<path fill="#1D1D1B" d="M218.7,97.1c-0.6,2.2-0.3,4.5,0.2,6.7c0.1-0.2,0.3-0.5,0.4-0.7c-0.6,0.3-1.3,0.8-2,0.9     c-1.4,0.2-2.2-1.2-2.2-2.4c-0.1-1.3,0.5-2.1,1.5-2.8c0.8-0.5,1.6-1.1,2.4-1.6c0.2-0.1,0.5-0.9,0.1-0.7c-1.8,1.2-4,2-4.4,4.5     c-0.2,1.5,0.1,3.4,1.8,3.8c1,0.2,1.8-0.5,2.7-0.9c0.2-0.1,0.4-0.5,0.4-0.7c-0.5-2.1-0.8-4.3-0.2-6.4     C219.4,96.3,218.8,96.8,218.7,97.1z" />
		</g>
	</g>
	<path fill-rule="evenodd" clip-rule="evenodd" fill="none" stroke="#1D1D1B" stroke-miterlimit="10" d="M219.1,97.2   c0,0,1.2-1.4,3.2-0.4c2.1,1,2.1,4.5,1.6,6.4c-0.2,0.8-1.1,3.1-3,5c-2.5,2.5-6.1,4.6-6.8,4.9c-1.2,0.5-3.2,1.9-3.2,1.9   s-0.6,0.4-0.7,1" />
	<g>
		<path fill="#1D1D1B" d="M204.8,102.8c-0.1,1.5,0.4,3.1,1.2,4.5c0.1,0.2,0.5,0.2,0.4-0.1c-0.7-1.3-1.3-2.8-1.1-4.3    C205.2,102.7,204.8,102.5,204.8,102.8L204.8,102.8z" />
	</g>
	<path fill-rule="evenodd" clip-rule="evenodd" fill="none" stroke="#1D1D1B" stroke-miterlimit="10" d="M219.1,97.1   c0,0-4.6,1.6-6.4,1.7c-0.9,0.1-3.4,0.3-5,1c-1.5,0.7-2.1,1.8-2.1,1.8l-4.3,2.9c0,0-2.7,1.3-3.9,4.2c-1.3,3.1-1,7.6-1,7.6v5.1" />
	<g>
		<path fill="#1D1D1B" d="M207.3,117.3c4.7,2.9,9.7,5.4,14.8,7.7c1,0.5,0.1-0.8-0.4-1c-4.9-2.3-9.8-4.6-14.4-7.5    C206.3,115.8,206.6,116.9,207.3,117.3L207.3,117.3z" />
	</g>
	<g>
		<path fill="#1D1D1B" d="M216.7,112.7c2.1,2.3,3.6,5.3,4.3,8.3c0.2,1,1,0.3,0.9-0.4c-0.8-3.4-2.4-6.6-4.7-9.2    C216.6,110.9,216.3,112.3,216.7,112.7L216.7,112.7z" />
	</g>
	<g>
		<path fill="#1D1D1B" d="M219.9,120.3c3.8,1.8,7.7,3.3,11.8,4.1c0.5,0.1,1.7-0.4,0.8-0.6c-4-0.8-7.9-2.3-11.5-4    C220.6,119.7,219.2,120,219.9,120.3L219.9,120.3z" />
	</g>
	<g>
		<path fill="#1D1D1B" d="M222.2,126.4c1.7-2.9,8.2-2.4,10.9-1.4c0.4,0.1,0.8-0.7,0.4-0.9c-3.1-1.2-9.9-1.4-11.8,1.9    C221.3,126.6,221.8,127,222.2,126.4L222.2,126.4z" />
	</g>
	<g>
		<path fill="#1D1D1B" d="M232.9,125c3.6-1.5,7.5-1.5,11.3-0.6c0.4,0.1,0.8-0.8,0.4-0.9c-3.9-0.9-7.9-0.9-11.7,0.7    C232.6,124.3,232.4,125.3,232.9,125L232.9,125z" />
	</g>
	<g>
		<path fill="#1D1D1B" d="M244.5,124.6c1.9-2.5,4.6-5.8,8.1-5.8c0.5,0,0.5-1.2,0-1.2c-3.6-0.1-6.5,3.4-8.4,5.9    C243.8,123.9,244.2,125.1,244.5,124.6L244.5,124.6z" />
	</g>
	<g>
		<path fill="#1D1D1B" d="M256.5,104.7c-3.1,1.7-4.3,5-3.9,8.3c0.1,0.6,1.3,0.5,1.2,0c-0.4-3,0.4-6,3.1-7.5    C257.5,105.2,257,104.4,256.5,104.7L256.5,104.7z" />
	</g>
	<g>
		<path fill="#1D1D1B" d="M255.8,109.7c-0.2-2.8,3.4-8.4,6.3-5.3c0.4,0.4,1-0.3,0.6-0.7c-3.6-3.7-8,2.6-7.8,6.1    C255,110.3,255.9,110.2,255.8,109.7L255.8,109.7z" />
	</g>
	<g>
		<path fill="#1D1D1B" d="M232.4,150.6c2.5,0.4,4.7,0.3,6.8-1.2c1.2-0.8,1.7-1.1,3-1.7c1.2-0.6,2.3-1.4,3.2-2.4    c0.5-0.5-0.3-0.9-0.7-0.5c-1.5,1.5-3.2,1.9-4.9,3c-1.4,0.9-2.4,2-4.1,2.2c-1,0.1-2.1,0-3.1-0.2    C232.1,149.7,231.7,150.5,232.4,150.6L232.4,150.6z" />
	</g>
	<g>
		<path fill="#1D1D1B" d="M186.5,127.3c2-1.7,4.2-3.3,6.2-5.1c1.7-1.6,3.1-3.8,4.1-5.8c0.2-0.3-1-0.5-1.2-0.1    c-1.1,2.2-2.5,4.4-4.4,6.1c-1.9,1.6-3.9,3.1-5.8,4.7C185.1,127.3,186.2,127.5,186.5,127.3L186.5,127.3z" />
	</g>
	<path fill="none" stroke="#000000" stroke-miterlimit="10" d="M200.9,150.2c0,0,9.2-3.9,15.7-3.5c5.3,0.3,10.8,3.3,10.8,3.3   s2.2,1,3.9,0.3c1.7-0.6,3.7-1.6,4.1-1.8c0.4-0.2,3.6-1.7,6.5-2.9c1.9-0.8,3-0.9,4-1.4c1-0.5,9.6-4.3,9.6-4.3s2.3-1.2,3.9-2.7   c1.2-1.1,1.8-2.7,1.8-2.7l5.3-11.4c0,0,0.6-1.4,0.6-2.9c0-1.6-0.6-3.3-0.6-3.3l-2-8.7l-0.6-2.9c0.3,0-1.3-1-2.9-0.8   c-1.6,0.2-2.8,2.1-2.8,2.1" />
	<path fill-rule="evenodd" clip-rule="evenodd" fill="none" stroke="#1D1D1B" stroke-miterlimit="10" d="M252,118.2   c0,0,0.6-3.4,1.6-5.4c1.4-2.9,3.8-4.8,3.8-4.8s1.5-1.1,3.3-1c1.8,0,2.4,1.8,2.4,1.8" />
	<g>
		<path fill="#1D1D1B" d="M229.4,142c5.6-2.6,11.4-3.2,17.2-5c3.4-1,5.7-3.4,8.1-5.8c2.2-2.3,4.9-4.4,6.4-7.2    c1.8-3.5,1.6-6.3,1.5-10.1c0-0.6-1-0.6-1,0.1c0.2,3.9,0.3,7.1-1.9,10.5c-1.6,2.5-4.2,4.5-6.2,6.6c-2.5,2.7-5.2,4.6-8.9,5.3    c-5.3,1.1-10.5,2.4-15.4,4.7C228.6,141.3,228.9,142.2,229.4,142L229.4,142z" />
	</g>
	<g>
		<path fill-rule="evenodd" clip-rule="evenodd" fill="#FFFFFF" d="M261.1,109c0,0-0.4,3.8-0.2,4.8c0.2,1,0.9,1,1.5,0.1    s1.1-4.5,1.1-4.5S262.9,107.8,261.1,109z" />
		<g>
			<path fill="#1D1D1B" d="M260.9,108.9c-0.2,1.4-0.3,2.9-0.3,4.3c0,0.5,0.1,1.3,0.8,1.5c0.7,0.2,1.2-0.6,1.4-1.1     c0.3-0.8,0.5-1.7,0.7-2.5c0.1-0.5,0.4-1.3,0.3-1.7c-0.2-1.4-1.9-1.1-2.8-0.6c-0.3,0.2,0,0.6,0.3,0.4c0.7-0.4,1.4-0.6,2,0.1     c0.1,0.1,0.1,0.2,0.1,0.1c0,0.1,0,0.2-0.1,0.3c-0.2,1.1-0.4,2.2-0.8,3.3c-0.1,0.2-0.1,0.6-0.3,0.7c-0.1,0.1-1,0-1.1-0.1     c0-0.1,0-0.2,0-0.3c-0.1-0.5,0-1.1,0-1.7c0-0.9,0.1-1.8,0.2-2.6C261.4,108.7,260.9,108.6,260.9,108.9z" />
		</g>
	</g>
	<g>
		<path fill-rule="evenodd" clip-rule="evenodd" fill="#FFFFFF" d="M261.1,109c0,0-0.4,3.8-0.2,4.8c0.2,1,0.9,1,1.5,0.1    s1.1-4.5,1.1-4.5S262.9,107.8,261.1,109z" />
		<g>
			<path fill="#1D1D1B" d="M261,109c-0.2,1.4-0.4,3-0.3,4.4c0.1,1.6,1.4,1.4,1.9,0.2c0.4-0.8,0.5-1.8,0.7-2.7     c0.1-0.4,0.3-1.1,0.3-1.5c-0.2-1.3-1.9-0.9-2.6-0.5c-0.2,0.1,0,0.3,0.1,0.2c0.6-0.4,1.7-0.6,2.1,0.2c0.1,0.2,0.1,0.3,0,0.6     c-0.2,1.2-0.4,2.4-0.9,3.6c0,0.1-0.1,0.2-0.1,0.3c-0.2,0.4-0.3,0.5-0.8,0.4c-0.5-0.2-0.5-0.4-0.5-0.9c0-0.6,0-1.1,0-1.7     c0.1-0.9,0.1-1.7,0.2-2.6C261.3,108.8,261,108.8,261,109z" />
		</g>
	</g>
</g>
<g>
	<g>
		<g>
			<g>
				<path fill="#1D1D1B" d="M139.9,102c0.7,7.4-2.3,16-7.4,21.3c-0.3,0.3-0.6,1.6,0.1,0.9c5.6-5.8,8.9-15.1,8.2-23.2      C140.8,100.5,139.9,101.6,139.9,102L139.9,102z" />
			</g>
			<g>
				<path d="M136.6,119c0.1,3.9-1.9,7.9-3.9,11c-0.4,0.7,0.5,0.2,0.8-0.1c2.2-3.3,4.2-7.5,4.1-11.6C137.5,118,136.6,118.6,136.6,119      L136.6,119z" />
			</g>
			<g>
				<path fill="#1D1D1B" d="M145.6,95.1c-1.1,2.6-3.1,4.8-6.1,5.2c-0.8,0.1,0.1,1,0.6,0.9c3.2-0.4,5.5-2.8,6.7-5.6      C147.1,95,145.9,94.5,145.6,95.1L145.6,95.1z" />
			</g>
			<g>
				<path fill="#1D1D1B" d="M145.6,95.4c3.6,0.8,7.3,0.4,10.6-1.2c0.6-0.3-0.4-1.1-0.9-0.9c-3,1.5-6.4,1.9-9.7,1.1      C144.7,94.3,144.9,95.3,145.6,95.4L145.6,95.4z" />
			</g>
			<g>
				<path fill="#1D1D1B" d="M156,93.9c3.1,0.2,6,0,8.9-1.4c0.6-0.3-0.4-1.1-0.9-0.9c-2.7,1.3-5.4,1.4-8.3,1.2      C154.8,92.9,155.4,93.9,156,93.9L156,93.9z" />
			</g>
			<g>
				<path fill="#1D1D1B" d="M164.1,92.3c3.6,1.2,7,1.2,10.5-0.1c2.3-0.9,6.1-4.8,3.4-7.2c-0.5-0.4-1.6-0.1-0.9,0.5      c2.3,2.1-2,5.4-3.7,6c-3.1,1-5.9,1.1-9,0.1C163.7,91.2,163.3,92,164.1,92.3L164.1,92.3z" />
			</g>
			<path fill-rule="evenodd" clip-rule="evenodd" fill="none" stroke="#1D1D1B" stroke-miterlimit="10" d="M127.5,85.3     c0,0,2.2-1.9,3.5-2s3.5,0.3,4.4,0.5c0.9,0.1,3.8,0.2,5.4,0.2s7.2-0.4,7.2-0.4s1.5-0.5,3.3-0.6c2.6-0.1,5.9,0.4,5.9,0.4     s3-0.2,5.3-0.2c2.7,0,4.8,0.2,4.8,0.2l2.7,0.4" />
			<g>
				<path fill-rule="evenodd" clip-rule="evenodd" fill="#FFFFFF" d="M176.8,85.8l-6.5-1.1c0,0-2.4-1.4,0-1.3      c2.4,0.1,6.6,0.2,7.2,0.7S176.8,85.8,176.8,85.8z" />
				<g>
					<path fill="#1D1D1B" d="M176.8,85.5c-1-0.2-2-0.3-3-0.5c-1.1-0.2-2.5-0.2-3.5-0.6c0.2,0.1-0.1-0.1-0.2-0.2       c-0.5-0.4-0.4-0.5,0.3-0.6c1-0.1,2.1,0.1,3.1,0.1c0.9,0.1,1.9,0.1,2.8,0.2c0.7,0.1,1.1,0.2,0.7,1c-0.1,0.2-0.4,0.4-0.6,0.6       c-0.3,0.3,0.4,0.5,0.6,0.3c0.4-0.4,1.2-1.1,0.9-1.7c-0.3-0.6-1.6-0.6-2.1-0.7c-1.6-0.2-3.2-0.2-4.8-0.3c-0.4,0-1.9-0.3-2.1,0.4       c-0.2,1.1,1.8,1.4,2.4,1.5c1.8,0.3,3.6,0.6,5.4,0.9C177.2,86.1,177.2,85.6,176.8,85.5z" />
				</g>
			</g>
			<path fill-rule="evenodd" clip-rule="evenodd" fill="none" stroke="#1D1D1B" stroke-miterlimit="10" d="M121.2,84.8     c0,0,1.2-4.4,2.8-5.1c1.5-0.7,2.4-0.9,6.6-0.2c4.2,0.7,7.7,0.8,9.9,0.9c2.2,0.1,8.1,0,8.1,0s1.8-0.5,3.9-0.4     c2.1,0.1,4.5,0.6,4.5,0.6l6.4,0.4c0,0,1.9-0.3,3.7,0c3.5,0.4,9.3,1.1,9.3,1.1l3.8,0.4" />
			<g>
				<path fill="#1D1D1B" d="M182.2,81.8c-6.9-0.7-13.3-3.7-20.1-4.2c-5.6-0.4-11.2-1-16.8-0.9c-3.4,0.1-7,0.5-10.4,0.3      c-2.9-0.1-5.8-0.9-8.8-1.1c-4.7-0.2-6.4,2.1-7.6,6.3c-1.9,6.7-4.1,13.2-6.6,19.6c-2.2,5.6-4.9,11.1-7.1,16.7      c-2.4,6.1-4.3,11-8.1,16.3c-0.3,0.4,0.4,1.4,0.7,0.9c5.8-8.1,9-17.7,12.8-26.9c2.4-5.8,4.7-11.8,6.7-17.8      c1.1-3.5,1.8-11.8,5.7-13.4c3.4-1.5,8.7,0.4,12.2,0.6c3,0.2,6-0.1,9-0.2c5.9-0.2,11.6,0.4,17.5,0.7c7.3,0.5,14,3.5,21.3,4.3      C183.1,83,182.7,81.8,182.2,81.8L182.2,81.8z" />
			</g>
			<g>
				<path fill="#1D1D1B" d="M184.7,87.5c0.9-1.3,1.2-2.8,0.4-4.2c-0.2-0.4-0.5-0.9-0.9-1.1c-0.5-0.2-1.1-0.2-1.6-0.2      c-0.5-0.1-0.9,0.7-0.3,0.8c0.4,0.1,0.8,0.1,1.2,0.2c0.1,0,0.5,0.2,0.3,0c-0.3-0.2,0.2,0.4,0.2,0.4c0.8,1.2,0.7,2.6-0.1,3.8      C183.5,87.7,184.5,87.9,184.7,87.5L184.7,87.5z" />
			</g>
			<g>
				<path fill-rule="evenodd" clip-rule="evenodd" fill="#FFFFFF" d="M180,82.4c1.6,0.1,4.6,0.3,4.6,0.3l-0.8,1.3c0,0-3-0.3-4.1-0.5      C178.6,83.2,178.6,82.3,180,82.4z" />
				<g>
					<path fill="#1D1D1B" d="M180,82.7c1.5,0.1,3.1,0.2,4.6,0.3c-0.1-0.1-0.2-0.2-0.3-0.3c-0.3,0.4-0.5,0.9-0.8,1.3       c0.1,0,0.2-0.1,0.4-0.1c-0.6-0.1-1.2-0.1-1.8-0.2c-0.5-0.1-0.9-0.1-1.4-0.2c-0.2,0-0.5-0.1-0.7-0.1c-0.1,0-0.2,0-0.2-0.1       C179.2,83.1,179.3,82.9,180,82.7c0.4,0,0.5-0.5,0-0.5c-0.5,0-1.3,0-1.5,0.5c-0.2,0.6,0.7,0.9,1.1,1c1.3,0.4,2.8,0.4,4.1,0.5       c0.1,0,0.3,0,0.4-0.1c0.3-0.4,0.5-0.9,0.8-1.3c0.1-0.2-0.2-0.3-0.3-0.3c-1.5-0.1-3.1-0.2-4.6-0.3       C179.6,82.1,179.6,82.6,180,82.7z" />
				</g>
			</g>
			<g>
				<path fill="#1D1D1B" d="M177,91.5c4.3-0.2,11.2-3.3,8.3-8.6c-0.3-0.5-1.5-0.5-1.1,0.2c2.5,4.5-4,7.2-7.5,7.4      C175.8,90.6,176.4,91.6,177,91.5L177,91.5z" />
			</g>
			
				<line fill-rule="evenodd" clip-rule="evenodd" fill="none" stroke="#1D1D1B" stroke-miterlimit="10" x1="178.9" y1="82.2" x2="178.5" y2="82.8" />
		</g>
	</g>
	<g>
		<g>
			<path d="M143.1,100c2,2.6,4.5,1.6,6.5-0.1c2.3-1.9,4.6-3.7,6.9-5.6c0.7-0.5-0.3-1.1-0.9-0.7c-1.5,1.2-2.9,2.3-4.4,3.5     c-1.8,1.5-4.8,5.1-7,2.2C143.8,98.9,142.7,99.5,143.1,100L143.1,100z" />
		</g>
		<g>
			<path d="M176.1,90.8c2.5,4.7-3.5,6.7-6.7,8.5c-3.3,1.9-6.5,3.2-9.2,5.9c-3.6,3.6-6.7,7.5-9.9,11.4c-2.3,2.8-4.6,5.9-7.5,8.1     c-3.7,2.9-8.3,4.1-11.9,7.2c-5.2,4.5-8.2,10.4-11.7,16.3c-0.2,0.4,0.9,0.6,1.1,0.2c3.9-6.5,7.4-13.5,14-17.7     c3.8-2.4,7.2-2.9,11.6-7.2c2.6-2.5,4.8-5.5,7.1-8.3c3.4-4.2,6.9-9.4,11.6-12.1c3.8-2.3,8.2-3.9,11.7-6.6c2.1-1.7,2.5-3.3,1.2-5.7     C177.3,90.3,175.8,90.4,176.1,90.8L176.1,90.8z" />
		</g>
		<g>
			<path d="M157.7,93.4c1.1,2.4,2.3,4.5,3.9,6.7c0.1,0.2,1,0.6,0.7,0.2c-1.5-2.1-2.7-4.2-3.8-6.5C158.4,93.5,157.5,93,157.7,93.4     L157.7,93.4z" />
		</g>
		<g>
			<path d="M147,102.5c1.5,1.4,2.7,2.9,3.5,4.8c0.6,1.6,1.2,3.2,1.7,4.8c0.2,0.5,0.3-0.2,0.2-0.4c-0.6-1.8-1.2-3.6-1.9-5.3     c-0.7-1.8-2-3.2-3.4-4.5C146.9,101.6,146.8,102.3,147,102.5L147,102.5z" />
		</g>
	</g>
</g>
<g>
	<g>
		<path fill="#1D1D1B" d="M328.2,88.1c-0.9,1.8-1.6,4.3-0.8,6.3c1.3,3.3,5.3,4.6,8.5,5.3c0.3,0.1,1-0.2,0.5-0.3    c-6-1.3-10.3-4.9-7.3-11.1C329.2,88,328.3,87.9,328.2,88.1L328.2,88.1z" />
	</g>
	<path fill-rule="evenodd" clip-rule="evenodd" fill="none" stroke="#1D1D1B" stroke-miterlimit="10" d="M327.1,93.7   c0,0-2.6,3-2.9,6.3c-0.8,0.2-2.5,0.2-2.5,0.2" />
	<g>
		<path fill="#1D1D1B" d="M314.8,93.4c4.7,3.8,8.6,9.2,11.6,14.4c0.2,0.3,1.3,0.2,1.2-0.1c-3-5.3-6.9-10.7-11.7-14.6    C315.6,92.9,314.4,93.1,314.8,93.4L314.8,93.4z" />
	</g>
	<g>
		<path fill="#1D1D1B" d="M323.9,100.4c0,0.2,0.1,0.5,0.2,0.7c0.4,0.9,1.1,1.6,1.8,2.3c0.2,0.2,0.5,0.5,0.7,0.4c0.2,0,0.2-0.3,0-0.4    c-0.6-0.6-1.2-1.2-1.6-2c-0.1-0.2-0.2-0.3-0.1-0.4C325,100.7,324,100.1,323.9,100.4L323.9,100.4z" />
	</g>
	<g>
		<path fill="#1D1D1B" d="M308.6,102.9c2.7,2.5,3,6.5,3.8,9.9c0.5,2.3,1.4,4.4,2,6.7c1,3.9,1.7,8.9,0.6,12.8    c-1.2,4.2-5.4,6.7-9.5,7.7c-0.5,0.1-0.1,0.6,0.3,0.5c8.8-2.1,11.1-8.8,10.1-17.1c-0.5-3.9-2.1-7.3-2.9-11.1    c-0.7-3.4-1.1-7.2-3.8-9.7C308.9,102.2,308.2,102.6,308.6,102.9L308.6,102.9z" />
	</g>
	<path fill-rule="evenodd" clip-rule="evenodd" fill="none" stroke="#000000" stroke-miterlimit="10" d="M302.7,153.6   c2.8-5.3,6.2-9.4,6.2-9.4l9.9-12.6c0,0,1.9-1.9,3.5-3.8c1.1-1.4,1.9-3,1.9-3s1.1-3.2,2.3-5.6c0.9-1.8,1.8-3.1,1.8-3.1l2.3-3.4   c0,0,4.5-6.4,7.1-10.1c1.1-1.6,1.7-2.6,1.7-2.6s1.6-1.7,1.8-3.1c0.2-1.3-0.6-2.5-0.6-2.5s-1.1-2-1.2-2.8c-0.1-0.8,0.4-2.4,0.6-3.5   c0.3-1.1,1.8-2.1,1.2-4.3c-0.6-2.2-3.1-2.9-3.1-2.9" />
	<path fill-rule="evenodd" clip-rule="evenodd" fill="none" stroke="#1D1D1B" stroke-miterlimit="10" d="M315.7,84.1   c0,0,2.2,0.8,4.2,0.9c1.6,0,3-0.8,3-0.8" />
	<g>
		<path fill="#1D1D1B" d="M309.3,93c2.8-1.5,7.9-4.8,7-8.5c-0.1-0.4-1.1-0.4-1,0.1c0.8,3.4-4.2,6.5-6.7,7.9    C308.1,92.8,308.9,93.2,309.3,93L309.3,93z" />
	</g>
	<g>
		<path fill="#1D1D1B" d="M328.1,87c1.2,2.3,3.8,3.5,6.3,3.6c2.1,0,5.2-0.8,5.6-3.3c0.1-0.6-0.8-0.8-0.9-0.2c-0.4,2.4-4,2.8-5.8,2.4    c-1.7-0.3-3.5-1.4-4.3-3C328.6,85.8,327.8,86.4,328.1,87L328.1,87z" />
	</g>
	<g>
		<path fill="#1D1D1B" d="M294.2,93.7c0.8-2.1,2.4-3.7,4.5-4.4c0.5-0.2,0.1-0.7-0.3-0.5c-2.4,0.8-4.1,2.5-5,4.9    C293.3,94.1,294.1,94.1,294.2,93.7L294.2,93.7z" />
	</g>
	<path fill-rule="evenodd" clip-rule="evenodd" fill="none" stroke="#1D1D1B" stroke-miterlimit="10" d="M300.1,88l8.1-9.5   c0,0,1.1-1.5,2.4-2.3c0.9-0.6,2.2-0.4,2.4-0.5c0.3-0.1,2.5-0.5,4.8-0.6c2.5-0.1,5,0.1,5,0.1s1.4,0,2.7,0.4c1,0.3,1.8,1,1.8,1   l5.9,3.8l2.5,1.7" />
	<g>
		<path fill="#1D1D1B" d="M309.2,102.7c2.7-2.4,3.9-6.2,3.6-9.7c-0.1-0.6-1-0.6-1,0.1c0.3,3.3-0.8,6.7-3.3,8.9    C308,102.4,308.7,103.1,309.2,102.7L309.2,102.7z" />
	</g>
	<g>
		<path fill="#1D1D1B" d="M313,96.1c3-2.8,4.6-6.4,4.7-10.5c0-0.9-0.9-0.9-0.9,0c-0.1,3.6-1.8,6.7-4.3,9.2    C312.1,95.2,312.4,96.6,313,96.1L313,96.1z" />
	</g>
	
		<path fill-rule="evenodd" clip-rule="evenodd" fill="none" stroke="#1D1D1B" stroke-width="0.95" stroke-linecap="round" stroke-miterlimit="10" d="   M336.2,82.1c0,0-0.6,2.5-2.3,3.5c-1.9,1.1-5,0.9-5,0.9s-1.9-0.2-3.5-1c-1.4-0.7-2.5-1.8-2.5-1.8" />
	<path fill-rule="evenodd" clip-rule="evenodd" fill="#FFFFFF" stroke="#1D1D1B" stroke-width="0.4" stroke-miterlimit="10" d="   M338.4,87.1c0,0-1.5-1.5-1.9-1.9c-0.4-0.5-0.7-2,0.1-1.4c0.8,0.6,3.1,3.1,3.1,3.1L338.4,87.1z" />
	<path fill-rule="evenodd" clip-rule="evenodd" fill="none" stroke="#1D1D1B" stroke-miterlimit="10" d="M280.8,141   c2.5-4.2,4.4-8,4.4-8s2.5-6.2,4.1-16.8c1.6-10,2.3-24.2,2.3-24.2s-0.2-3.6,1-5.9c1.2-2.3,3.8-3.4,3.8-3.4s2.2-1.7,4.5-4   c3.3-3.2,7-7.4,7-7.4s1.5-1.8,3.2-2.4c2-0.6,4.3,0,4.3,0l7.6,2.2c0,0,2.4,0.8,4.4,1.9c1.9,1.1,3.5,2.6,3.5,2.6L333,79" />
	<path fill-rule="evenodd" clip-rule="evenodd" fill="none" stroke="#1D1D1B" stroke-miterlimit="10" d="M337.9,82.4   c0,0-1-4.8-1.5-6.5c-0.5-1.7-0.5-1.6-1.4-2.8c-1.1-1.4-2.6-2.5-2.6-2.5l-4.1-1.6c0,0-0.8-0.4-1.5-0.6c-1.1-0.4-2.3-0.6-2.3-0.6   l-5.4-1.5c0,0-1.6-0.9-3-0.8c-1,0.1-2.1,1.1-2.1,1.1l-2.3,2.2" />
	<path fill-rule="evenodd" clip-rule="evenodd" fill="#FFFFFF" stroke="#1D1D1B" stroke-width="0.5" stroke-miterlimit="10" d="   M337.9,82.4l1.7,4l-1.3-3c0,0-2-2.2-1.1,1" />
</g>
</svg>
