<?xml version="1.0" encoding="UTF-8"?>
<!DOCTYPE svg PUBLIC "-//W3C//DTD SVG 1.1//EN" "http://www.w3.org/Graphics/SVG/1.1/DTD/svg11.dtd">
<!-- Generator: Adobe Illustrator 14.0.0, SVG Export Plug-In . SVG Version: 6.00 Build 43363)  -->
<svg xmlns="http://www.w3.org/2000/svg" xmlns:xlink="http://www.w3.org/1999/xlink" version="1.1" x="0px" y="0px" width="150.236px" height="226.771px" viewBox="0 0 150.236 226.771" enable-background="new 0 0 150.236 226.771" xml:space="preserve"><rect fill="#FFFFFF" x="0px" y="0px" width="150.236px" height="226.771px" />
<g id="Färg">
	<linearGradient id="SVGID_1_" gradientUnits="userSpaceOnUse" x1="40.938" y1="220.7227" x2="44.938" y2="201.0556">
		<stop offset="0" style="stop-color:#FFFFFF" />
		<stop offset="1" style="stop-color:#EDEDED" />
	</linearGradient>
	<path fill="url(#SVGID_1_)" d="M75,224l2-20.333L79.333,181l-17.492,5.568c0,0-14.174-0.234-20.841-4.901s-9.667-8.667-12.333-11   s-4.667-6-4.667-6l-4.333,12.667l-7.333,21L9,207C9,207,34,226.666,75,224z" />
</g>
<g id="Lager_1">
	<g>
		<path d="M140.238,59.075c-1.007-0.111-0.896-1.23-1.23-1.79c-0.783-0.783-1.565-2.236-2.684-2.349    c-0.447-0.895-1.23-0.335-2.014-0.67c-0.447-0.561-0.336,0-1.006,0c-1.454-0.111-2.685,1.229-3.914,1.901    c-1.342-0.225-1.566,1.453-2.572,1.677c-0.672,1.343-2.237,2.349-3.132,3.467c-0.671,0.335-1.007,1.118-1.678,1.23    c-0.224,0.782-1.007,1.118-1.342,1.679c-1.007,0.78-2.014,2.459-3.579,3.018c-0.335,1.455-1.678,1.455-2.349,2.796    c-0.223,0.112-0.56,0-0.446,0.337l-3.021,2.907c-0.671,0.447-1.118,1.678-2.125,2.125c-0.56,1.118-1.789,2.459-2.684,3.02v0.111    c-2.796,2.797-4.474,5.593-7.158,8.724c-0.447,0.67-1.006,1.118-1.678,1.23c-0.67-2.46,1.119-4.361,1.23-6.599    c0-0.335,0.561-0.224,0.112-0.559c1.23-3.579,2.572-7.494,3.803-10.96c0.782-1.678,2.237-3.133,2.46-5.033    c1.342-2.572,2.235-5.479,3.132-8.275v-0.895c2.46-4.362,3.466-9.171,5.145-13.758c1.007-3.242,1.453-6.373,2.795-9.616    c0.225-1.008,0.112-2.126,0.671-2.907c0.112-0.449,0.447-0.896,0.112-1.343c0-0.895-0.112-2.35-0.559-3.355    c-0.112-1.23-1.454-1.454-1.342-2.572c-1.119-0.447-2.014-1.342-3.244-1.678c-0.782-0.223-1.565,0.112-2.013-0.783    c-0.225,1.343-1.454-0.223-2.013,0.447c-2.126-0.335-3.804,1.118-5.257,2.573h0.335c-0.895,1.678-2.46,3.466-3.243,5.145    c-5.145,10.735-9.17,22.143-14.091,33.326c-1.229,2.237-1.901,4.81-3.467,6.823c-0.448-0.448,0.335-1.007-0.111-1.454    c0.67-4.474,1.229-8.947,1.565-13.31c0-1.006,0.895-0.223,1.342-0.223c0.559-0.783-1.119-0.56-1.008-1.23l1.344-12.75    c1.453-2.684,2.012-5.815,2.684-8.723c0.446-1.901,0.225-3.914,1.118-5.48c0.446-4.138,1.565-8.274,1.901-12.302    c-0.111-1.678,0.671-3.579,0-5.033c-0.447-0.559-0.672-1.229-0.782-1.788l-0.56-0.336c-0.56-0.895-1.453-1.677-2.35-2.46    c-0.335-0.336-0.895,0-1.006-0.56c-1.566-0.335-3.355-0.895-5.032-0.335c-1.79-0.448-2.685,1.564-4.139,2.013    c0.112,0.447-0.335,0.783-0.56,1.006c0.225,1.342-2.012,1.455-1.229,2.572c-0.56,1.342-1.231,2.796-1.678,4.25l-0.337,0.111    l0.112,0.225c-0.671,2.571-1.678,5.367-2.461,8.163c-0.67,1.566-0.67,3.803-1.677,5.257l0.224,0.225    c-2.125,8.611-2.908,16.886-4.697,25.387c0.111,0.446-0.783,0.224-0.225,0.67c-1.229,6.04-2.348,11.856-4.024,17.782h-0.112v0.671    c-0.223-0.111-0.336,0-0.336-0.111l-0.224,0.111c-0.335,0.112-1.118,0.224-1.565,0c0.111-0.783-0.111-1.564,0.111-2.348    l-0.223-0.225c0.223-5.144,0.111-9.953,0.223-14.873l-0.111-0.225c0.336-0.783-0.225-1.678,0.111-2.349    c-0.111-1.006-0.559-2.797,0.447-3.132l-0.559-0.447c0.111-2.125-0.225-3.913-0.447-6.039c-0.225-2.348,0.223-4.921,0.672-7.27    c-0.225-1.342,0.111-2.684,0.447-4.024c-0.225-1.902,0.559-3.356,0.559-5.146c0.111-0.671-0.225-2.013,0.447-2.461    c-0.224-1.454,0.225-3.242,0.225-4.809c-0.113-0.446,0.781-0.225,0.223-0.56c0-0.446-0.223-1.118,0.112-1.453    c-0.112-1.008-0.224-2.237-0.448-3.132c0.113-0.224,0.113-0.447-0.111-0.559c-0.112-0.672-0.672-0.783-0.559-1.454    c-1.119-1.566-3.021-3.02-4.922-3.132c-0.559-0.336-1.564-0.223-2.461-0.111c-1.9,0.224-3.69,1.118-5.144,2.236    c-0.896,1.007-2.349,2.572-1.565,4.025c-1.678,8.501-2.685,16.44-3.803,25.387c-0.224,1.791-0.335,3.804-0.783,5.481    c0.111,2.013-0.334,4.138-0.67,6.15c0.559,0.336-0.112,0.447-0.225,0.783l0.336,0.335c-0.224,2.236-0.783,4.585-0.559,6.822    c-0.113,0-0.113,0.224-0.336,0.224c-0.447,4.809-0.447,9.395-0.672,13.979c-0.223,5.146-0.223,10.178-0.559,15.881v3.69    c-0.672,0.895-2.014,1.565-2.684,2.685v0.446c-1.79,2.908-1.231,6.486-1.453,9.842c0.559,3.914,0.67,8.165,0.67,11.743    c-0.895,13.532-2.797,27.399-7.045,40.149c0.11,0.447-0.895,0.447-0.336,1.007c-0.447,1.118-0.783,2.46-1.342,3.354    c-0.113-0.111-0.336-0.111-0.336-0.224c-0.56-0.335-1.23-0.224-1.678,0.224c-0.447,2.014-1.119,3.802-1.342,5.703    c-0.225,0.225-0.337,0.336-0.56,0.336c0,0.336,0.335,0.672,0.223,1.007c-1.899,4.585-2.683,9.059-4.585,13.644    c-2.066,5.513-4.102,10.937-6.217,16.332c0.339,0.815,0.66,1.643,0.959,2.481c1.377-3.251,2.721-6.503,3.805-9.754    c0.782-0.671,0.224-1.79,1.118-2.461c0.782-1.565,1.007-3.579,1.901-5.033c-0.225-0.559,1.008-0.446,0.336-0.894    c0.672-1.119,0.895-2.014,1.23-3.132c0.782-1.453,1.006-3.803,2.124-5.368c-0.112-0.672,0.448-1.454,0.335-2.014    c0.783-1.9,1.007-3.802,1.79-5.479c6.151,12.973,20.466,20.914,34.558,20.131c0.672,0.111,1.566-0.559,2.236-0.224    c3.914-0.671,7.717-1.679,11.184-3.467c0-0.896,1.008-0.559,1.566-0.896c0.111,0.559,0.67,1.118,1.229,1.118    c1.118-0.447,0.782-1.789,1.342-2.572c-0.111-0.111-0.224-0.111-0.224-0.335c0.224-0.448,0.559-1.007,0.112-1.453    c0.224-0.672,0.446-1.678,0.335-2.461c0.672-1.566,0.56-3.021,1.23-4.585c0.111-1.901,1.566-3.244,2.685-4.811h0.224    c0.671-1.453,1.789-2.796,2.796-4.137h0.224v-0.224c0.111-0.448,0.447-0.672,0.67-0.782c1.79-2.797,3.691-5.816,5.257-8.5    c0.224-0.56,1.007-1.118,1.119-1.343c1.341-2.908,2.907-5.815,4.25-8.5c1.005-1.565,1.342-3.354,2.348-4.695    c0.56-1.566,1.007-3.355,1.79-4.922c0-0.448,0.782-0.335,0.335-0.895c0.895-2.35,1.789-4.809,2.461-7.27    c0-0.447,0.782-0.895,0.446-1.23c1.008-3.354,1.791-7.492,2.461-11.184c3.132-4.81,5.703-9.282,9.282-13.979    c0.672-0.783,1.118-1.901,2.013-2.35c0.112-1.229,1.342-2.236,1.901-3.467c2.014-1.453,2.908-3.689,4.922-5.032    c0-0.111,0.11-0.335-0.112-0.559c0.336-0.225,0.783-1.231,1.23-0.783c-0.447-0.224,0.224-0.56,0.111-0.895    c1.901-1.901,3.131-4.922,5.256-6.71c2.349-3.579,5.481-7.158,7.494-11.184c0.334-0.448,0.67-0.783,0.67-1.343    c0.672-0.782,1.008-1.789,1.118-2.572c0.56-1.117,0.448-2.684,0.672-3.913C140.238,60.081,139.456,59.41,140.238,59.075z" />
		<path fill="#FFFFFF" d="M86.444,6.177c0.672-0.336,0.56,0.67,1.119,0.895l0.112,0.335c-2.126-0.895-4.139-2.013-6.71-1.789    c-0.225,0.112-0.225,0.335-0.225,0.671c2.572,0.112,5.033,0.895,6.935,2.685c-0.224,2.348-1.007,4.585-2.014,6.598    c0.335,0.447,0.559-0.336,0.896-0.336c1.006-1.342,1.229-2.907,1.788-4.361c0,1.23-0.224,3.02-0.335,4.25    c-0.224,1.789-0.335,3.467-0.895,5.032c0.111,1.902-0.672,3.803-0.672,5.592c-0.224,0.111-0.447,0.225-0.559,0.336    c0.559,0.336,0.335,1.008,0,1.342c0,2.125-0.672,4.361-1.006,6.375c-0.447,0.336-0.783,0.56-0.783,1.119l0.111,0.222    c-0.336,2.126-0.783,4.474-1.006,6.6c-0.56,3.579-0.672,6.71-1.342,10.178c-2.014-0.448-3.469,0-5.368-0.448    c-2.573,0.336-5.033-0.559-7.27-1.565c0.335-1.006,1.677-1.006,2.683-1.342c2.797-0.672,6.711-0.782,8.612,1.453    c0.224,0.447-0.335,1.119,0.448,1.119c0.559-0.336,0.559-0.895,0.335-1.453c-1.901-2.797-6.04-2.126-9.282-1.901    c-1.343,0.894-4.362,0-3.803,2.571c1.565,1.343,3.803,1.343,5.816,1.566l7.715,0.671c-0.781,8.835-2.236,17.223-2.459,26.505    l0.782,0.335c0.337-1.342,0.112-3.243,1.565-3.913c0.225-0.671,1.007-1.566,0.56-2.013c0.782-1.232,1.229-2.686,2.237-3.691    c0.111-1.118,0.781-2.125,1.229-3.02c0.448-0.672,0.559-1.901,1.342-1.901c-0.111-1.23,0.56-2.461,1.342-3.244    c-0.224-0.559,0.335-1.118,0.56-1.677c1.118-2.685,2.348-5.48,3.578-8.052l-0.223-0.112c0.894-1.454,1.118-3.243,2.236-4.586    c0.56-1.789,1.118-3.354,2.013-4.921c0.224-0.894,0.448-2.125,1.231-2.907c0.111-1.565,1.341-3.019,1.678-4.362    c1.341-2.796,2.571-6.262,4.695-8.835c0.225-0.895,1.008-1.565,1.566-2.349c-0.559,1.343-1.453,2.796-1.901,4.25    c-0.56,1.454-0.111,3.132,0.335,4.586c0.56,0.335,1.23,0.782,1.791,1.229c1.788,0.448,4.696,1.901,6.038-0.224    c0.559-0.783,1.007-1.564,1.678-2.348c-1.901,6.934-3.578,13.866-5.703,20.801c-0.783,0-1.119,0.56-1.566,1.007    c0.336,1.789-0.895,3.69-1.341,5.257c-0.449,0.783,0,1.901-0.783,2.46c-2.237-3.802-6.935-5.032-11.073-4.362    c-0.11,0.336-0.446,0.112-0.671,0.225l-0.223-0.112c-0.448,0.224-0.225,0.671,0,0.896c0.335,0.559,0.783,0.111,1.229,0.335    c3.579,1.343,6.822,3.132,10.065,5.032c-0.895,1.678-1.007,4.026-2.572,5.145c-0.447,0.783-0.56,1.678-1.23,2.236    c-0.334,1.231-0.559,3.021-1.453,3.915c0.223,1.007-0.336,2.349-0.895,3.354c0.336,0.672-0.561,1.231-0.224,2.013    c-0.672,2.126-1.455,4.474-2.014,6.711c-0.223,1.342-1.341,2.46-0.447,3.803c1.678,0.224,0.559,2.125,2.124,2.572    c0.896,0.783,1.343-0.783,2.237-0.225c1.119-0.335,0.896-1.564,1.901-2.236c-0.335-0.111-0.224-0.671-0.111-0.895    c3.355-3.802,6.263-8.164,10.176-11.967c3.021,2.35,6.375,4.138,9.396,6.599c0.224,1.008,1.118,2.237,0.224,3.243    c-3.244,5.033-6.71,9.729-10.065,14.651c-1.342,1.9-2.684,4.025-3.803,6.037c-0.783,0.337-1.118-1.341-1.788-0.559    c-0.783,0-0.337,0.672-0.672,1.119c0,1.342-0.671,2.685-1.007,4.026c0.224,1.229-0.336,2.571-0.447,3.915    c-0.336,0.67-0.111,1.563-0.559,2.124c-0.448,2.014-1.008,4.473-1.566,6.375c-0.111,0.111-0.336,0.223-0.336,0.447    c0.112,0.67-0.559,1.342-0.559,2.124c-1.343,3.803-2.572,7.941-4.474,11.407c-1.454,4.362-4.025,8.276-6.151,12.525    c-0.56-0.11-0.224,0.672-0.56,0.783c-2.906,5.033-6.375,9.507-9.506,14.203c-0.447-0.335-1.117,0.448-1.564-0.223    c-0.448,0.783-0.56,1.788-1.118,2.348c0.335,0.112,0.11,0.56,0.11,0.783c-0.223,0.111-0.223,0.67-0.223,1.118    c-0.783,1.229-1.565,2.126-2.461,3.131c-0.447,0.672,0.113,1.231,0.336,1.791c0.336-0.225,0.782-0.225,1.006,0    c-0.111,0.67,0,1.341-0.446,1.899c0.335,0.337-0.224,0.337-0.112,0.56c0.224,1.118,0,2.015-0.111,3.02    c-1.119,0.225-1.453,1.566-2.686,1.23c-10.176,4.697-22.254,4.251-31.648-1.677c-4.922-3.133-9.955-7.27-12.414-12.861    c-1.117-0.559-1.23-2.684-2.684-2.125c0-0.448,0-0.895,0.447-1.229c0.67,0.11,1.006-0.896,1.342-1.455    c1.007-1.342,1.117-3.132,1.9-4.696c5.368-12.525,6.375-26.841,7.718-41.38l-0.112-17.67c0.447-0.671,0.783-1.23,1.566-1.678    c-0.449,1.23,0.67,2.124,0.67,3.243c1.343-0.336,1.008-2.013,1.678-2.907c-0.223-2.236-0.111-4.138,0-6.151    c-0.111-4.697,0.447-8.835,0.447-12.973c0-1.565,0.225-3.578,0.111-5.256c-0.223-1.901,0.56-3.914,0.113-5.48    c0.335-0.56-0.225-1.566,0.224-2.236c0.781-5.369,0.335-10.961,1.453-16.217c-0.782-0.783,0.895-1.007,0-1.79    c-0.112-1.118,0.335-2.349,0.446-3.578c0.113,0,0.113-0.112,0.225-0.112l-0.225-0.224l1.231-9.952h0.112    c-0.225-1.791,0.783-3.244,0.67-5.146c0.895-4.361,0.895-8.276,2.014-12.189v-0.783c0.56,0.783,0.895,1.9,1.901,2.236    c1.901,0.671,4.361,0.224,6.263,0c0.224,0.447-0.448,1.229,0.448,1.343c0.78-0.225,0.446-1.454,0.894-2.013l1.006-2.237    c0.336,3.802-0.336,7.828-0.781,11.631c-0.338,4.026-0.113,8.5-1.118,12.189c0.11,1.902,0.67,4.139,0.222,6.151    c-3.578-0.559-7.27-0.224-10.4,0.783c-0.447,0.223-0.895,0.671-0.895,1.229c-0.559,0.225-1.678-0.783-1.788,0.336    c0.67,0.559,1.565,0.559,2.235,0.782h10.848c0.225,0.783,0.225,1.791,0,2.461c0.225,0.671,0.225,1.343,0.113,2.013    c0,1.119,0.224,2.572-0.113,3.804c0.337,5.032,0.113,9.506,0.113,14.426c-0.335,0.112-0.448,0.447-0.56,0.896    c1.005,1.23,0.446,2.796,1.229,4.026c2.461,1.006,0.895-3.132,2.908-2.013c-0.336,0.559,0.561,0.446,0.561,1.005    c0,0.672,0,1.23-0.225,1.678c0.111,0.336,0.671,0.112,1.006,0.112c2.014-5.704,3.355-11.967,4.697-17.67    c0-0.336,0.113-1.007,0.447-1.23c-0.223-0.671,0-1.565,0.225-2.349c0.895-3.02,0.671-5.815,1.9-8.835    c-0.446-0.783,0.559-1.229,0.224-1.902c0.56-3.579,1.343-7.38,2.013-11.07c0.447-1.566,0.447-3.468,1.008-5.033    c0.111-0.447,0.223-1.342,0.559-1.789c1.008-4.698,2.685-9.842,4.473-14.539c0,1.566,1.902,3.02,3.355,3.803    c1.789,0.56,3.914,0.671,5.704,0.224c-1.342-1.23-4.026-0.224-5.479-1.566c-1.342-0.894-2.686-2.013-2.237-4.025    c-0.335-0.336-0.56-0.783-0.224-1.118l0.67-0.783c-0.111-0.448,0.449-1.23,0.561-1.79c0.447-1.006,1.565,0.337,1.565-0.671    L80.07,5.729c0.671-0.783,1.79-0.561,2.796-0.896C84.097,4.834,85.438,5.169,86.444,6.177z" />
		<path fill="#FFFFFF" d="M55.354,9.531c-1.678,0.336-3.691,0.225-5.48,0.783C51.552,9.196,53.453,9.308,55.354,9.531z" />
		<path fill="#FFFFFF" d="M56.808,11.655c0.448,1.791-0.446,3.579-1.005,5.146c-2.685-0.335-5.929,1.342-7.27-1.789    c-0.337-1.119-0.224-2.125-0.224-3.132C50.657,10.537,54.571,9.643,56.808,11.655z" />
		<path fill="#FFFFFF" d="M114.293,26.866c-0.225,2.46-2.013,4.361-3.691,6.375c-1.454,0.895-2.796-0.447-4.138-0.56    c-0.895-0.448-1.453-1.23-1.678-2.125c-0.225-2.685,0.783-4.921,2.013-6.935c1.453-1.342,3.579,0.112,5.145,0.448    C112.95,24.741,114.18,25.412,114.293,26.866z" />
		<path fill="#FFFFFF" d="M56.138,45.655c-0.113,0.559,0.335,1.342-0.225,1.677c-3.689-0.335-6.375-0.112-10.289-0.447    c-0.111-0.782,1.119-0.782,1.566-1.229C49.874,44.872,53.453,44.647,56.138,45.655z" />
		<path fill="#FFFFFF" d="M135.094,57.062c1.23,1.006,2.349,2.235,2.349,3.914c-0.56-0.225-1.23-1.118-1.901-1.566    c-0.783-0.782-1.007-1.9-2.125-2.348C133.975,55.943,134.311,57.621,135.094,57.062z" />
		<path fill="#FFFFFF" d="M104.003,61.646c-0.335,0.225-0.224,0.896-0.671,0.56c-3.131-1.678-5.927-3.802-9.17-5.033    c1.117-0.11,2.236-0.559,3.354-0.11C100.201,57.285,102.996,59.075,104.003,61.646z" />
		<path fill="#FFFFFF" d="M131.627,57.845c-0.112,0.111-0.335,0.111-0.448,0.224C131.067,57.845,131.403,57.845,131.627,57.845z" />
		<path fill="#FFFFFF" d="M136.212,61.983c-0.225,3.018-3.914,3.801-6.375,4.696c-1.006-0.446-1.788-1.342-2.46-2.125    c0.782-0.671,0.672-2.013,1.454-2.796c1.006-1.453,2.124-2.684,3.69-3.578C134.199,58.964,134.758,60.864,136.212,61.983z" />
		<rect x="130.396" y="58.404" fill="#FFFFFF" width="0.113" height="0.224" />
		<path fill="#FFFFFF" d="M127.266,65.674c0.894,1.118,2.013,1.789,3.467,1.901c1.677-1.455,4.137-1.455,5.927-3.021    c-1.677,4.361-4.921,7.94-7.269,11.743c-1.678,2.013-3.132,4.809-5.033,6.821c-1.231-0.67-1.231,1.008-2.125,1.454    c-0.447-0.782-1.678-0.56-1.565-1.789c-1.454-2.796-4.25-4.697-7.27-4.922l-1.454-1.564c2.014-2.461,5.369-5.145,7.382-7.382    l0.559-0.336l-0.112-0.11c2.461-2.014,4.362-4.81,6.711-6.486c0.447-1.231,1.566-1.902,2.796-2.461    C128.049,61.088,126.482,63.438,127.266,65.674z" />
		<rect x="82.084" y="68.58" fill="#FFFFFF" width="0.111" height="0.225" />
		<path fill="#FFFFFF" d="M119.66,82.336c-1.565-0.895-3.467-1.788-4.809-3.354C116.753,79.317,118.653,80.548,119.66,82.336z" />
		<path fill="#FFFFFF" d="M121.785,85.469c-0.224-0.224-0.559-0.672-0.447-1.007C121.449,84.797,122.345,85.132,121.785,85.469z" />
		<path fill="#FFFFFF" d="M97.628,88.936h-0.335V88.6C97.517,88.711,97.517,88.711,97.628,88.936z" />
		<path d="M79.958,180.306c0.56,2.124-0.223,4.137-0.559,6.263c0.225,0.335,0.225,0.783,0.225,1.229    c-0.449,0.448-0.225,0.896-0.449,1.454c-0.223,0.895,0.113,1.565-0.223,2.46c-0.225,3.243-0.672,6.6-0.783,9.729    c-0.224,3.244-0.447,5.705-0.783,8.836c0.111,0.335,0,1.118,0,1.566c-0.559,2.348-0.672,4.473-1.789,6.486    c-0.223,0-0.56-0.336-0.56-0.56c0-1.454,0.224-2.908,0.112-4.362c0.111-1.677,0.56-3.466,0.225-4.92    c0.67-3.803,0.894-7.493,0.894-11.521c0.446-3.242,0.335-5.703,0.783-9.17c-0.224-1.118,0.446-2.237,0.335-3.467v-1.007    c0-0.447,0.447-1.006,0.447-1.564C77.61,180.641,78.841,179.634,79.958,180.306z" />
	</g>
</g>
</svg>
