<?xml version="1.0" encoding="UTF-8"?>
<!-- Generator: Adobe Illustrator 18.1.1, SVG Export Plug-In . SVG Version: 6.00 Build 0)  -->
<svg xmlns="http://www.w3.org/2000/svg" xmlns:xlink="http://www.w3.org/1999/xlink" version="1.1" id="Lager_1" x="0px" y="0px" width="226.77px" height="226.77px" viewBox="0 0 226.77 226.77" enable-background="new 0 0 226.77 226.77" xml:space="preserve"><rect fill="#FFFFFF" x="0px" y="0px" width="226.77px" height="226.77px" />
<g id="Färg_1_">
	
		<linearGradient id="SVGID_1_" gradientUnits="userSpaceOnUse" x1="94.4694" y1="98.9147" x2="105.6027" y2="115.4458" gradientTransform="matrix(0.9757 0.2192 0.2192 -0.9757 -52.4855 218.2172)">
		<stop offset="0" style="stop-color:#FFFFFF" />
		<stop offset="1" style="stop-color:#EDEDED" />
	</linearGradient>
	<polygon fill="url(#SVGID_1_)" points="78.478,169.869 98.119,130.497 100.256,125.499 88.96,116.848 82.665,106.748    76.748,98.632 78.285,82.816 42.146,118.5  " />
</g>
<g>
	<path d="M177.744,144.339c0,0-0.236-0.337-0.65-0.926c-0.399-0.597-1.019-1.418-1.727-2.414c-0.362-0.492-0.761-1.021-1.21-1.545   c-0.224-0.261-0.461-0.524-0.712-0.765c-0.232-0.234-0.543-0.494-0.723-0.543c-0.196-0.049-0.531,0.028-0.89,0.135   c-0.35,0.108-0.712,0.243-1.07,0.397c-0.72,0.305-1.431,0.685-2.136,1.071c-0.702,0.39-1.391,0.813-2.02,1.268   c-0.311,0.221-0.626,0.466-0.833,0.697c-0.205,0.257-0.274,0.504-0.339,0.853c-0.106,0.672-0.041,1.393,0.105,2.052   c0.146,0.663,0.365,1.277,0.591,1.835c0.249,0.548,0.472,1.06,0.713,1.493c0.234,0.437,0.461,0.806,0.655,1.107   c0.386,0.603,0.62,0.943,0.62,0.943s-0.071-0.075-0.203-0.215c-0.127-0.145-0.339-0.338-0.564-0.62   c-0.464-0.553-1.109-1.372-1.705-2.481c-0.28-0.563-0.561-1.188-0.773-1.891c-0.206-0.702-0.365-1.48-0.283-2.339   c0.043-0.407,0.193-0.939,0.487-1.306c0.307-0.372,0.627-0.627,0.959-0.891c0.669-0.507,1.377-0.95,2.102-1.369   c0.725-0.419,1.479-0.782,2.248-1.103c0.387-0.156,0.776-0.306,1.188-0.412c0.206-0.054,0.418-0.098,0.642-0.127   c0.119-0.01,0.219-0.024,0.376-0.017c0.081,0.001,0.136,0.008,0.178,0.015l0.106,0.017l0.112,0.035   c0.546,0.222,0.781,0.531,1.066,0.814c0.259,0.295,0.482,0.593,0.693,0.887c0.42,0.587,0.776,1.158,1.099,1.687   c0.652,1.055,1.09,1.992,1.42,2.632C177.586,143.958,177.744,144.339,177.744,144.339z" />
</g>
<g>
	<path d="M188.081,131.523c0,0-0.212-0.35-0.583-0.962c-0.373-0.606-0.906-1.473-1.545-2.512c-0.324-0.513-0.684-1.064-1.093-1.612   c-0.203-0.274-0.427-0.543-0.651-0.796c-0.113-0.128-0.233-0.239-0.348-0.331c-0.057-0.043-0.11-0.074-0.148-0.092   c0.025,0.009-0.07-0.024-0.1-0.034l-0.078-0.014c-0.572-0.081-1.361,0.1-2.068,0.329c-0.724,0.24-1.433,0.581-2.105,0.975   c-0.674,0.391-1.304,0.857-1.853,1.382c-0.274,0.263-0.532,0.536-0.761,0.825c-0.116,0.143-0.225,0.291-0.326,0.441l-0.124,0.19   c-0.032,0.077-0.107,0.195-0.104,0.236c-0.133,0.431,0.09,1.212,0.337,1.813c0.252,0.632,0.539,1.228,0.803,1.777   c0.54,1.095,0.944,2.039,1.238,2.69c0.285,0.657,0.431,1.04,0.431,1.04s-0.219-0.345-0.603-0.949   c-0.366-0.613-0.941-1.457-1.562-2.514c-0.312-0.529-0.651-1.102-0.974-1.747c-0.162-0.322-0.314-0.668-0.437-1.053   c-0.118-0.394-0.205-0.81-0.055-1.373c0.037-0.148,0.076-0.192,0.115-0.294c0.082-0.17,0.114-0.199,0.175-0.306   c0.108-0.176,0.225-0.349,0.35-0.516c0.246-0.337,0.522-0.658,0.826-0.951c0.603-0.593,1.287-1.111,2.017-1.547   c0.731-0.436,1.51-0.784,2.311-1.042c0.814-0.24,1.61-0.458,2.559-0.293l0.2,0.055l0.166,0.068   c0.132,0.067,0.234,0.142,0.324,0.217c0.172,0.15,0.316,0.303,0.44,0.456c0.256,0.304,0.452,0.621,0.643,0.925   c0.375,0.613,0.688,1.204,0.968,1.754c0.571,1.093,0.937,2.053,1.216,2.711C187.953,131.133,188.081,131.523,188.081,131.523z" />
</g>
<path fill="none" stroke="#000000" stroke-width="2" stroke-linecap="round" d="M44.667,114.5  c2.576-2.857,41.639-43.796,57.384-45.747C114.024,67.27,153.5,82.5,153.5,82.5s8.75-0.75,13.5,10.25l12.298,14.651L190,133.167  c0,0-0.597,6.951-9.852,7.263" />
<path fill="none" d="M48.795,113.915" />
<path fill="none" stroke="#000000" stroke-width="2" stroke-linecap="round" d="M79.754,98.145c0,0,2.386,16.7,19.81,25.24" />
<path fill="none" stroke="#000000" d="M77.667,87.5c0,0-4.837,10.355,4.998,19.248" />
<path fill="none" stroke="#000000" stroke-width="2" stroke-linecap="round" d="M97.214,118.907l14.327,24.933  c0,0,3.286,3.835,9.111,1.822c4.313-1.491,4.766-3.361,4.766-3.361" />
<path fill="none" stroke="#000000" stroke-width="2" stroke-linecap="round" d="M116.202,113.764l10.492,26.086  c0,0,2.676,4.189,7.972,1.818s4.992-4.708,4.821-6.797c-0.171-2.089-6.56-28.692-6.56-28.692l0.395-3.873" />
<line fill="none" stroke="#000000" stroke-width="2" stroke-linecap="round" x1="99.17" y1="128.512" x2="82.682" y2="159.657" />
<path fill="none" stroke="#000000" stroke-width="2" stroke-linecap="round" d="M131.352,144.46c0,0-2.682,8.95,6.108,11.62" />
<line fill="none" stroke="#000000" stroke-width="2" stroke-linecap="round" x1="146.759" y1="145.378" x2="138.616" y2="155.972" />
<path fill="none" stroke="#000000" stroke-width="2" stroke-linecap="round" d="M152.75,141.5" />
<path fill="none" stroke="#000000" stroke-width="2" stroke-linecap="round" d="M154.415,139.879c0,0-3.365,6.884-10.183,7.442" />
<path fill="none" stroke="#000000" stroke-width="0.5" stroke-linecap="round" d="M150.604,121.85c0,0,3.832-7.432,11.239-7.141" />
<path fill="none" stroke="#000000" stroke-width="0.5" stroke-linecap="round" d="M153,121.25c0,0,7.905-5.03,8.101-4.802" />
<path fill="none" stroke="#000000" stroke-width="0.5" stroke-linecap="round" d="M164.754,111.184c0,0,4.268-4.89,10.329-5.894" />
<g>
	<path d="M168.909,149.464c0,0,0.253-0.656,0.904-1.467c0.316-0.412,0.734-0.853,1.222-1.284c0.49-0.428,1.054-0.84,1.656-1.19   c0.298-0.181,0.617-0.322,0.924-0.474c0.301-0.164,0.634-0.247,0.935-0.369c0.3-0.126,0.617-0.176,0.903-0.255   c0.286-0.083,0.567-0.117,0.825-0.149c0.511-0.085,0.946-0.079,1.248-0.072c0.301,0.006,0.472,0.02,0.472,0.02   s-0.16,0.064-0.44,0.176c-0.28,0.103-0.676,0.238-1.136,0.431c-0.231,0.091-0.482,0.184-0.738,0.303   c-0.256,0.122-0.534,0.221-0.806,0.362c-0.549,0.269-1.133,0.551-1.687,0.89c-0.572,0.308-1.106,0.68-1.617,1.017   c-0.502,0.351-0.967,0.69-1.36,0.996C169.431,149.011,168.909,149.464,168.909,149.464z" />
</g>
<g>
	<path d="M179.467,136.313c0,0,0.253-0.656,0.904-1.467c0.316-0.412,0.734-0.853,1.222-1.284c0.49-0.428,1.054-0.84,1.656-1.19   c0.298-0.181,0.617-0.322,0.924-0.474c0.301-0.164,0.634-0.247,0.935-0.369c0.3-0.126,0.617-0.176,0.903-0.255   c0.286-0.083,0.567-0.117,0.825-0.149c0.511-0.085,0.946-0.079,1.248-0.072c0.301,0.006,0.472,0.02,0.472,0.02   s-0.16,0.064-0.44,0.176c-0.28,0.103-0.676,0.238-1.136,0.431c-0.231,0.091-0.482,0.184-0.738,0.303   c-0.256,0.122-0.534,0.221-0.806,0.362c-0.549,0.269-1.133,0.551-1.687,0.89c-0.572,0.308-1.106,0.68-1.617,1.017   c-0.502,0.351-0.967,0.69-1.36,0.996C179.989,135.86,179.467,136.313,179.467,136.313z" />
</g>
<line fill="none" stroke="#000000" stroke-width="2" stroke-linecap="round" x1="148.969" y1="92.433" x2="152.438" y2="101.246" />
<path fill="none" stroke="#000000" stroke-width="2" stroke-linecap="round" d="M137.667,114.5L152,131.833c0,0,9.667,17.667,15,22  c5.333,4.333,16.621-2.663,12.626-8.653l-4.541-6.809l-9.584-20.26l-15.367-19.841" />
<path fill="none" stroke="#000000" stroke-width="0.5" stroke-linecap="round" d="M167.056,112.096c0,0,5.522-0.895,9.104-4.776" />
</svg>
