<?xml version="1.0" encoding="UTF-8"?>
<!-- Generator: Adobe Illustrator 18.1.1, SVG Export Plug-In . SVG Version: 6.00 Build 0)  -->
<svg xmlns="http://www.w3.org/2000/svg" xmlns:xlink="http://www.w3.org/1999/xlink" version="1.1" id="Lager_1" x="0px" y="0px" width="226.77px" height="226.77px" viewBox="0 0 226.77 226.77" enable-background="new 0 0 226.77 226.77" xml:space="preserve"><rect fill="#FFFFFF" x="0px" y="0px" width="226.77px" height="226.77px" />
<g>
	<linearGradient id="SVGID_1_" gradientUnits="userSpaceOnUse" x1="83.9313" y1="219.6057" x2="93.5926" y2="196.2856">
		<stop offset="0" style="stop-color:#FFFFFF" />
		<stop offset="1" style="stop-color:#EDEDED" />
	</linearGradient>
	<polygon fill="url(#SVGID_1_)" points="112.356,224.53 120.496,188.949 102.068,184.046 79.541,173.648 81.36,171.549    72.016,189.373 56.606,212.03  " />
	<path fill="none" stroke="#000000" stroke-width="2" stroke-linecap="round" d="M60.606,205.53c0,0,23.4-35.641,24.622-42.735   C86.45,155.7,88.896,103.618,90,95.64c1.104-7.978,0.232-17.444,2.926-24.752c2.694-7.308,4.437-16.768,4.437-16.768" />
	<path fill="none" stroke="#000000" stroke-width="2" stroke-linecap="round" d="M98.038,56.528l0.068-14.415   c0,0,16.9-1.676,10.514,21.297c0,0,3.276,9.19-0.962,19.092c0,0,4.004,5.323,0.351,14.084" />
	<line fill="none" stroke="#000000" stroke-width="2" stroke-linecap="round" x1="103.854" y1="40.442" x2="104.817" y2="30.729" />
	<path fill="none" stroke="#000000" stroke-width="2" stroke-linecap="round" d="M105.192,31.468l0.742-14.451   c0,0,11.205-1.614,12.172,7.93s-1.458,15.162-1.458,15.162s5.208,8.422,0.792,19.505c0,0,4.308,17.245,1.216,25.114" />
	<path fill="none" stroke="#000000" stroke-width="2" stroke-linecap="round" d="M115.994,15.973l0.497-10.208   c0,0,12.86-1.207,13.415,11.257s-2.026,14.794-3.444,16.251" />
	<path fill="none" stroke="#000000" stroke-width="2" stroke-linecap="round" d="M126.288,31.138c0,0,4.277,16.575-0.706,24.952   c0,0,5.884,14.135,1.371,24.829" />
	<path fill="none" stroke="#000000" stroke-width="2" stroke-linecap="round" d="M128.771,60.287l2.911-2.613   c1.16-1.041,3.366-1.675,4.902-1.407l21.062,3.666c1.536,0.267,3.314,1.65,3.951,3.073l3.812,8.512" />
	<path fill="none" stroke="#000000" stroke-width="2" stroke-linecap="round" d="M164.106,71.28l6.179,10.202   c0,0-6.179,6.965-16.321,0.762" />
	<polyline fill="none" stroke="#000000" stroke-width="2" stroke-linecap="round" points="153.272,82.113 151.036,76.033    140.745,74.614 134.624,82.42  " />
	<line fill="none" stroke="#000000" stroke-linecap="round" x1="127.322" y1="80.63" x2="132.822" y2="82.463" />
	<path fill="none" stroke="#000000" stroke-width="2" stroke-linecap="round" d="M135.985,80.685c0,0-1.82,8.045-3.546,17.595   s-1.725,9.55-1.725,9.55" />
	<path fill="none" stroke="#000000" stroke-linecap="round" d="M125.664,136.715c0,0,0.047-22.233,4.911-30.418" />
	<path fill="none" stroke="#000000" stroke-width="2" stroke-linecap="round" d="M153.772,83.513c0,0-6.703,13.457-5.333,18.1   c1.371,4.643,2.936,22.583,0.664,31.295s-9.24,25.97-15.129,32.622s-9.997,8.04-9.997,8.04l-10.122,44.71" />
	<path fill="none" stroke="#000000" stroke-linecap="round" d="M83.703,173.512c0,0,11.721,13.944,34.728,13.939" />
	<g>
		<path d="M161.724,72.659c0,0-0.105,0.229-0.246,0.635c-0.151,0.403-0.302,0.999-0.431,1.709c-0.063,0.356-0.112,0.743-0.143,1.152    c-0.035,0.408-0.039,0.841-0.025,1.284c0.005,0.444,0.063,0.901,0.124,1.362c0.054,0.445,0.175,0.963,0.271,1.345l0.23,0.704    c0.107,0.164,0.184,0.341,0.293,0.502c0.26,0.29,0.518,0.588,0.893,0.685c0.352,0.135,0.751,0.166,1.139,0.141    c0.387-0.034,0.765-0.099,1.109-0.195c0.689-0.191,1.269-0.409,1.66-0.591c0.395-0.182,0.621-0.286,0.621-0.286    s-0.173,0.183-0.521,0.453c-0.353,0.258-0.859,0.647-1.565,0.964c-0.35,0.165-0.753,0.308-1.207,0.395    c-0.225,0.05-0.472,0.054-0.72,0.077c-0.254-0.032-0.521-0.014-0.782-0.119c-0.545-0.118-1.031-0.504-1.397-0.942    c-0.172-0.234-0.307-0.504-0.452-0.763l-0.246-0.699c-0.141-0.577-0.226-1.029-0.284-1.551c-0.062-0.504-0.067-1.007-0.045-1.489    c0.011-0.483,0.08-0.948,0.167-1.38c0.078-0.434,0.198-0.835,0.327-1.196c0.249-0.725,0.578-1.276,0.81-1.649    C161.546,72.839,161.724,72.659,161.724,72.659z" />
	</g>
	<path fill="none" stroke="#000000" stroke-linecap="round" d="M126.56,82.388c0,0-2.726,2.532-7.34,1.962" />
	<g>
		<path d="M117.237,88.099c0,0,0.235,0.766,0.004,1.942c-0.053,0.292-0.141,0.606-0.264,0.926c-0.129,0.319-0.269,0.658-0.482,0.972    c-0.182,0.334-0.443,0.628-0.694,0.938c-0.287,0.271-0.568,0.569-0.891,0.806c-0.336,0.218-0.652,0.475-1.011,0.633    c-0.349,0.175-0.692,0.357-1.047,0.459c-0.694,0.259-1.366,0.386-1.943,0.459c-0.571,0.101-1.062,0.056-1.396,0.068    c-0.336-0.004-0.527-0.016-0.527-0.016s0.181-0.066,0.498-0.18c0.312-0.122,0.773-0.221,1.292-0.43    c0.26-0.102,0.541-0.209,0.839-0.31c0.294-0.113,0.584-0.276,0.898-0.403c0.322-0.116,0.6-0.333,0.914-0.489    c0.321-0.15,0.585-0.39,0.878-0.587c0.292-0.199,0.538-0.451,0.799-0.677c0.216-0.267,0.488-0.485,0.664-0.765    c0.205-0.26,0.377-0.529,0.535-0.793c0.145-0.268,0.285-0.527,0.391-0.778C117.125,88.872,117.237,88.099,117.237,88.099z" />
	</g>
	<g>
		<path d="M131.785,107.705c0,0,0.46,0.383,1.041,1.032c0.587,0.644,1.3,1.551,1.946,2.503c0.64,0.955,1.215,1.955,1.592,2.741    c0.384,0.782,0.566,1.353,0.566,1.353s-0.461-0.383-1.042-1.032c-0.588-0.644-1.299-1.552-1.944-2.504    c-0.64-0.956-1.214-1.956-1.591-2.742C131.968,108.275,131.785,107.705,131.785,107.705z" />
	</g>
	<g>
		<path d="M114.272,110.28c0,0,0.29,0.978,0.741,2.705c0.437,1.73,1.095,4.196,1.745,7.186c0.34,1.492,0.669,3.117,1.031,4.834    c0.334,1.722,0.714,3.534,1.009,5.426c0.332,1.886,0.605,3.847,0.896,5.837c0.251,1.997,0.511,4.026,0.676,6.068    c0.101,1.018,0.144,2.043,0.183,3.064c0.05,1.02,0.094,2.036,0.064,3.05c-0.018,1.012,0.014,2.015-0.1,3.009    c-0.093,0.993-0.116,1.976-0.347,2.934c-0.092,0.48-0.184,0.955-0.275,1.426c-0.109,0.489-0.263,0.905-0.397,1.352    c-0.252,0.879-0.593,1.735-0.91,2.566c-0.667,1.644-1.4,3.151-2.212,4.467c-0.777,1.336-1.652,2.458-2.47,3.404    c-0.813,0.954-1.629,1.685-2.307,2.269c-1.386,1.146-2.328,1.57-2.328,1.57s0.899-0.503,2.2-1.716    c0.639-0.614,1.401-1.379,2.149-2.361c0.75-0.976,1.544-2.121,2.27-3.449c0.751-1.313,1.421-2.819,2.015-4.44    c0.279-0.816,0.58-1.642,0.806-2.542c0.112-0.438,0.268-0.903,0.359-1.329c0.081-0.452,0.163-0.907,0.246-1.367    c0.211-0.909,0.223-1.877,0.303-2.842c0.101-0.964,0.058-1.955,0.065-2.949c0.019-0.994-0.036-1.997-0.097-3.005    c-0.049-1.008-0.105-2.019-0.212-3.029c-0.141-2.024-0.377-4.042-0.604-6.029c-0.268-1.983-0.517-3.937-0.827-5.819    c-0.582-3.769-1.164-7.285-1.735-10.286c-0.56-3.003-1.027-5.508-1.385-7.255C114.473,111.28,114.272,110.28,114.272,110.28z" />
	</g>
	<g>
		<path d="M105.106,170.113c0,0,0.272-0.096,0.725-0.297c0.226-0.103,0.498-0.228,0.799-0.394c0.306-0.154,0.632-0.368,0.996-0.574    c0.353-0.23,0.738-0.467,1.126-0.75c0.4-0.264,0.785-0.594,1.202-0.906c0.408-0.325,0.805-0.692,1.219-1.049    c0.39-0.386,0.817-0.744,1.188-1.162c0.38-0.408,0.79-0.788,1.133-1.22c0.343-0.43,0.74-0.805,1.046-1.233    c0.328-0.413,0.644-0.811,0.945-1.189c0.277-0.396,0.55-0.764,0.805-1.104c0.521-0.673,0.898-1.275,1.19-1.68    c0.287-0.409,0.465-0.638,0.465-0.638s-0.098,0.269-0.294,0.731c-0.218,0.449-0.439,1.145-0.873,1.89    c-0.204,0.38-0.427,0.792-0.675,1.221c-0.265,0.418-0.552,0.856-0.86,1.302c-0.295,0.455-0.659,0.884-1.014,1.329    c-0.347,0.453-0.763,0.86-1.152,1.291c-0.394,0.426-0.849,0.794-1.264,1.187c-0.437,0.37-0.888,0.71-1.331,1.028    c-0.896,0.624-1.793,1.116-2.593,1.461c-0.803,0.343-1.506,0.533-1.997,0.644C105.394,170.104,105.106,170.113,105.106,170.113z" />
	</g>
</g>
</svg>
