<?xml version="1.0" encoding="UTF-8"?>
<!-- Generator: Adobe Illustrator 22.1.0, SVG Export Plug-In . SVG Version: 6.00 Build 0)  -->
<svg xmlns="http://www.w3.org/2000/svg" xmlns:xlink="http://www.w3.org/1999/xlink" version="1.1" id="Lager_1" x="0px" y="0px" width="226.77px" height="226.77px" viewBox="0 0 226.77 226.77" style="enable-background:new 0 0 226.77 226.77;" xml:space="preserve"><rect fill="#FFFFFF" x="0px" y="0px" width="226.77px" height="226.77px" />
<style type="text/css">
	.st0{fill:url(#SVGID_1_);}
	.st1{fill:none;stroke:#000000;stroke-width:0.5;stroke-linecap:round;}
	.st2{fill:none;stroke:#000000;stroke-width:2;stroke-linecap:round;}
	.st3{fill:none;stroke:#000000;stroke-linecap:round;}
	.st4{fill:none;stroke:#000000;stroke-width:3;}
</style>
<g id="Färg_4_">
	
		<linearGradient id="SVGID_1_" gradientUnits="userSpaceOnUse" x1="32.5214" y1="42.9034" x2="45.3092" y2="61.8912" gradientTransform="matrix(0.8802 0.4745 0.4745 -0.8802 -20.9835 195.5313)">
		<stop offset="0" style="stop-color:#FFFFFF" />
		<stop offset="1" style="stop-color:#EDEDED" />
	</linearGradient>
	<polygon class="st0" points="36.018,204.314 69.544,181.283 94.333,168 78.863,162.988 67,150.333 61.536,138.032 63.667,123    10.715,146.951  " />
</g>
<path class="st1" d="M117.215,69.691c0,0-5.565-4.898-4.377-10.504" />
<path class="st1" d="M119.403,67.941c0,0-5.565-4.898-4.377-10.504" />
<path class="st1" d="M126.173,84.318c0,0-6.066-5.339-4.771-11.449" />
<path class="st1" d="M130.345,107.111c0,0-5.565-4.898-4.377-10.504" />
<path class="st1" d="M129.032,108.862c0,0-5.565-4.898-4.377-10.504" />
<path class="st1" d="M137.474,125.499c0,0-6.754-3.057-7.256-8.766" />
<path class="st1" d="M123.342,85.447c0,0-5.565-4.898-4.377-10.504" />
<g>
	<path d="M143.626,40.333c-0.918,0.652-1.851,1.272-2.746,1.942c-0.911,0.641-1.812,1.307-2.622,2.036   c-0.382,0.359-0.815,0.77-0.974,1.114c-0.098,0.212,0.062,0.833,0.232,1.3c0.351,1.008,0.866,1.993,1.393,2.953   c0.531,0.952,1.128,1.912,1.793,2.701c0.544,0.707,1.718,0.684,2.749,0.551c2.126-0.371,4.13-1.462,5.967-2.735   c-1.605,1.562-3.543,2.887-5.827,3.446c-0.573,0.126-1.166,0.213-1.787,0.167c-0.309-0.023-0.627-0.087-0.943-0.217   c-0.323-0.128-0.626-0.367-0.826-0.585c-0.832-0.882-1.407-1.854-1.991-2.84c-0.563-0.995-1.06-2.022-1.438-3.135   c-0.091-0.281-0.167-0.57-0.219-0.881c-0.036-0.305-0.108-0.664,0.086-1.092c0.365-0.656,0.821-0.981,1.277-1.352   C139.595,42.329,141.574,41.265,143.626,40.333z" />
</g>
<g>
	<path d="M158.619,71.178c-0.908,0.666-1.832,1.298-2.718,1.982c-0.902,0.654-1.793,1.333-2.592,2.073   c-0.376,0.365-0.804,0.782-0.958,1.128c-0.095,0.214,0.074,0.832,0.251,1.296c0.365,1.003,0.894,1.98,1.436,2.932   c0.545,0.945,1.155,1.895,1.832,2.675c0.554,0.699,1.728,0.659,2.757,0.511c2.12-0.402,4.109-1.521,5.927-2.821   c-1.583,1.585-3.501,2.938-5.776,3.53c-0.571,0.135-1.162,0.23-1.784,0.193c-0.309-0.018-0.628-0.078-0.946-0.203   c-0.324-0.124-0.632-0.358-0.834-0.573c-0.845-0.87-1.434-1.833-2.032-2.811c-0.577-0.987-1.089-2.006-1.483-3.114   c-0.095-0.28-0.175-0.568-0.232-0.878c-0.04-0.304-0.117-0.663,0.071-1.093c0.356-0.661,0.807-0.993,1.257-1.371   C154.617,73.232,156.58,72.14,158.619,71.178z" />
</g>
<g>
	<path d="M156.207,97.213c-0.9,0.664-1.815,1.294-2.694,1.974c-0.895,0.651-1.779,1.324-2.576,2.058   c-0.379,0.363-0.8,0.767-0.981,1.123c-0.127,0.197,0.039,0.801,0.204,1.265c0.352,0.996,0.874,1.968,1.407,2.915   c0.538,0.937,1.142,1.886,1.815,2.649c0.551,0.664,1.731,0.611,2.747,0.446c2.102-0.422,4.069-1.542,5.877-2.828   c-1.574,1.571-3.468,2.922-5.718,3.533c-0.564,0.142-1.148,0.245-1.765,0.223c-0.308-0.02-0.623-0.054-0.942-0.179   c-0.322-0.104-0.646-0.339-0.849-0.553c-0.851-0.863-1.431-1.821-2.023-2.794c-0.571-0.982-1.075-1.997-1.457-3.103   c-0.092-0.28-0.167-0.569-0.217-0.882c-0.041-0.292-0.089-0.706,0.126-1.092c0.369-0.618,0.811-0.956,1.262-1.324   C152.237,99.258,154.184,98.17,156.207,97.213z" />
</g>
<g>
	<path d="M157.528,51.812c-1.028,0.739-2.072,1.445-3.083,2.197c-1.026,0.725-2.04,1.471-2.985,2.274   c-0.459,0.407-0.941,0.812-1.291,1.251c-0.086,0.108-0.156,0.216-0.204,0.31c-0.027,0.074-0.052,0.147-0.049,0.273   c-0.005,0.235,0.05,0.523,0.117,0.804c0.292,1.143,0.845,2.275,1.407,3.366c0.578,1.068,1.236,2.196,2.008,2.99   c0.313,0.317,0.895,0.398,1.472,0.395c0.583-0.001,1.186-0.099,1.777-0.245c2.374-0.625,4.585-1.902,6.646-3.347   c-1.838,1.727-3.97,3.223-6.451,4.031c-0.621,0.196-1.264,0.348-1.943,0.394c-0.656,0.026-1.445-0.001-2.095-0.548   c-1.038-0.973-1.642-2.078-2.286-3.203c-0.613-1.135-1.143-2.306-1.471-3.612c-0.076-0.331-0.134-0.672-0.114-1.068   c0.004-0.19,0.058-0.429,0.164-0.64c0.102-0.184,0.214-0.335,0.33-0.469c0.465-0.527,0.966-0.925,1.486-1.309   C153.046,54.158,155.245,52.911,157.528,51.812z" />
</g>
<path class="st2" d="M106.055,49.996c2.334-4.085,6.909-7.367,8.972-7.367c4.085,0,5.836,4.377,4.96,8.462" />
<path class="st2" d="M104.815,49.048c0,0-8.753,2.918-9.92,7.878c-1.167,4.96-3.793,18.382-3.793,18.382" />
<path class="st2" d="M89.35,77.642c-5.836,4.085-5.289,4.182-8.498,16.436s-2.589,22.37-15.427,27.622l-41.201,19.119" />
<path class="st2" d="M93.144,74.724c2.042-1.751,16.048-15.172,17.798-17.215s21.883-13.422,25.968-16.048  c4.085-2.626,9.92-6.711,13.422-0.875s0.292,11.379,0.292,11.379" />
<path class="st2" d="M103.939,87.562c0,0,15.464-16.923,16.631-17.798c1.167-0.875,31.293-18.455,33.627-19.33  c2.334-0.875,8.396-3.739,11.964,2.991c3.375,6.367,0.217,10.504-3.284,12.838" />
<path class="st2" d="M111.963,108.862c1.751-2.188,10.723-12.692,13.13-14.881c2.407-2.188,29.53-22.09,31.512-24.072  c3.064-3.064,6.784-2.607,10.285,2.188c4.62,6.328-6.127,16.449-10.066,19.731s-5.777,4.623-5.777,4.623" />
<path class="st2" d="M119.403,127.025c2.626-3.064,7.659-10.285,8.753-12.036c1.094-1.751,18.163-12.911,19.476-14.005  c1.313-1.094,6.565-5.033,8.097-5.471c1.532-0.438,5.69,0,8.097,5.252s-1.313,8.316-7.44,13.786  c-6.127,5.471-10.285,8.753-10.285,8.753" />
<path class="st2" d="M148.289,120.679c0,0-8.753,13.13-10.942,17.288c-2.188,4.158-5.471,23.196-37.42,24.509" />
<line class="st2" x1="102.991" y1="161.601" x2="44.109" y2="199.989" />
<path class="st3" d="M107.743,91.982c0,0-6.784,0.875-9.41,11.16" />
<path class="st3" d="M62.771,127.13c0,0-7.915,20.486,21.418,37.714" />
<g>
	<g>
		<path class="st4" d="M191.088,169.095c-8.956,12.326-23.108,20.282-39.034,20.282c-16.924,0-31.846-8.985-40.657-22.652" />
		<g>
			<polygon points="198,155.974 180.436,170.149 190.306,169.929 195.387,178.392    " />
		</g>
	</g>
</g>
</svg>
