<?xml version="1.0" encoding="UTF-8"?>
<!-- Generator: Adobe Illustrator 18.1.1, SVG Export Plug-In . SVG Version: 6.00 Build 0)  -->
<svg xmlns="http://www.w3.org/2000/svg" xmlns:xlink="http://www.w3.org/1999/xlink" version="1.1" id="Lager_1" x="0px" y="0px" width="226.77px" height="226.77px" viewBox="0 0 226.77 226.77" enable-background="new 0 0 226.77 226.77" xml:space="preserve"><rect fill="#FFFFFF" x="0px" y="0px" width="226.77px" height="226.77px" />
<g>
	<linearGradient id="SVGID_1_" gradientUnits="userSpaceOnUse" x1="78.5527" y1="194.2449" x2="89.4807" y2="167.8669">
		<stop offset="0" style="stop-color:#FFFFFF" />
		<stop offset="1" style="stop-color:#EDEDED" />
	</linearGradient>
	<polygon fill="url(#SVGID_1_)" points="110.298,198.947 121.13,158.731 98.555,156.796 73.802,147.782 74.278,149.507    65.542,162.341 48.298,185.947  " />
	<path fill="none" stroke="#000000" d="M79.138,149.163c0,0,14.939,10.114,39.145,9.163" />
	<path fill="none" stroke="#000000" stroke-width="2" stroke-linecap="round" d="M51.964,182.947c0-1,25.462-37.012,26.333-41.917   c0.872-4.905,13.835-70.131,13.835-70.131" />
	<path fill="none" stroke="#000000" stroke-width="2" stroke-linecap="round" d="M90.697,70.831c0,0-2.174-9.604,4.972-12.347" />
	<g>
		<path fill="none" stroke="#000000" stroke-width="2" stroke-linecap="round" d="M100.258,68.237l25.788-12.968    c1.393-0.7,3.732-0.84,5.198-0.309l17.545,6.347c1.466,0.53,3.229,2.109,3.918,3.507l2.435,4.942" />
	</g>
	<path fill="none" stroke="#000000" stroke-width="2" stroke-linecap="round" d="M100.693,56.413l31.839-15.568   c1.401-0.685,3.606-0.534,4.9,0.334l20.999,14.088c1.295,0.869,2.958,2.703,3.697,4.075l2.253,4.187" />
	<path fill="none" stroke="#000000" stroke-width="1.6" stroke-linecap="round" d="M144.507,32.843l4.714-0.352   c1.555-0.116,3.706,0.713,4.781,1.842l10.795,11.343c1.075,1.129,2.433,3.236,3.018,4.681l1.557,3.846" />
	<path fill="none" stroke="#000000" stroke-width="2" stroke-linecap="round" d="M96.623,57.861l37.107-26.506   c1.277-0.894,3.345-0.863,4.595,0.068l23.113,17.223c1.25,0.932,2.87,2.821,3.6,4.198l3.221,6.078" />
	<path fill="none" stroke="#000000" stroke-width="2" stroke-linecap="round" d="M117.396,80.277c0,0,5.121-0.918,8.678-6.291" />
	<path fill="none" stroke="#000000" stroke-width="2" stroke-linecap="round" d="M124.556,73.118c0,0,7.835,3.112,16.833,1.663" />
	<path fill="none" stroke="#000000" stroke-width="2" stroke-linecap="round" d="M138.311,73.322c0,0,11.896,15.439,22.091,4.013   l-5.366-6.929" />
	<path fill="none" stroke="#000000" stroke-width="2" stroke-linecap="round" d="M161.218,78.976c0,0,5.51,1.321,8.657-5.776   l-5.619-7.674" />
	<path fill="none" stroke="#000000" stroke-width="2" stroke-linecap="round" d="M168.542,59.994l4.32,7.974   c0,0-1.589,3.089-2.902,3.322" />
	<path fill="none" stroke="#000000" stroke-width="2" stroke-linecap="round" d="M139.464,78.447l4,9.667c0,0,3,2.167,7.5,2.167" />
	<line fill="none" stroke="#000000" stroke-width="2" stroke-linecap="round" x1="148.131" y1="92.28" x2="158.631" y2="84.28" />
	<path fill="none" stroke="#000000" stroke-width="2" stroke-linecap="round" d="M158.426,80.716c0,0,0.916,4.239,1.299,5.868" />
	<g>
		<path d="M122.053,79.877c0,0,0.224,0.149,0.417,0.565c0.098,0.206,0.18,0.467,0.263,0.775c0.06,0.307,0.135,0.661,0.143,1.046    c0.041,0.389,0.011,0.802,0,1.245c-0.05,0.433-0.07,0.903-0.165,1.369c-0.093,0.466-0.155,0.96-0.296,1.438    c-0.13,0.481-0.244,0.977-0.404,1.455c-0.306,0.963-0.662,1.905-1.033,2.773c-0.172,0.439-0.385,0.843-0.568,1.234    c-0.184,0.39-0.367,0.755-0.541,1.089c-0.358,0.663-0.696,1.196-0.913,1.577c-0.227,0.377-0.369,0.585-0.369,0.585    s0.062-0.246,0.191-0.666c0.139-0.416,0.31-1.02,0.563-1.723c0.221-0.715,0.512-1.534,0.814-2.412    c0.285-0.883,0.622-1.812,0.901-2.755c0.168-0.464,0.288-0.939,0.425-1.403c0.141-0.463,0.252-0.921,0.368-1.366    c0.115-0.445,0.191-0.877,0.288-1.287c0.05-0.411,0.146-0.802,0.166-1.162c0.079-0.722,0.083-1.336-0.018-1.75    C122.206,80.086,122.053,79.877,122.053,79.877z" />
	</g>
	<g>
		<path d="M118.807,91.231c0,0,0.065,0.889,0.178,2.444c0.09,1.556,0.255,3.778,0.369,6.447c0.113,2.669,0.272,5.783,0.346,9.123    c0.076,3.339,0.13,6.903,0.13,10.47c-0.02,1.784-0.062,3.568-0.14,5.327c-0.044,0.88-0.078,1.752-0.167,2.62    c-0.073,0.856-0.161,1.747-0.427,2.596c-0.525,1.654-1.502,3.067-2.433,4.28c-0.955,1.222-1.935,2.306-2.89,3.252    c-1.897,1.906-3.671,3.279-4.927,4.207c-0.635,0.457-1.159,0.78-1.517,0.995c-0.367,0.2-0.563,0.306-0.563,0.306    s0.186-0.122,0.534-0.352c0.34-0.242,0.823-0.616,1.427-1.104c1.2-0.986,2.831-2.5,4.64-4.442    c0.907-0.969,1.829-2.073,2.711-3.297c0.874-1.242,1.704-2.568,2.191-4.105c0.222-0.745,0.297-1.562,0.358-2.413    c0.076-0.842,0.099-1.709,0.131-2.58c0.056-1.743,0.072-3.52,0.074-5.297c0.044-3.554,0.036-7.113,0.003-10.449    c-0.015-3.337-0.029-6.452-0.041-9.122c-0.001-2.671-0.002-4.897-0.003-6.455C118.801,92.122,118.807,91.231,118.807,91.231z" />
	</g>
	<g>
		<path d="M102.535,140.586c0,0,0.205-0.133,0.568-0.348c0.364-0.212,0.884-0.514,1.508-0.877c0.627-0.354,1.36-0.759,2.151-1.178    c0.788-0.421,1.628-0.871,2.469-1.321c0.844-0.438,1.681-0.891,2.461-1.317c0.782-0.425,1.505-0.832,2.114-1.199    c0.612-0.363,1.121-0.676,1.453-0.928c0.333-0.25,0.539-0.388,0.539-0.388s-0.138,0.196-0.406,0.531    c-0.13,0.173-0.314,0.353-0.521,0.566c-0.204,0.218-0.443,0.457-0.728,0.684c-0.55,0.483-1.235,0.994-1.997,1.488    c-0.754,0.51-1.599,0.982-2.447,1.445c-1.708,0.905-3.486,1.656-4.851,2.136c-0.68,0.248-1.265,0.407-1.668,0.534    C102.773,140.534,102.535,140.586,102.535,140.586z" />
	</g>
	<g>
		<path d="M141.289,82.857c0,0,0.141,0.346,0.365,0.959c0.214,0.615,0.547,1.487,0.895,2.547c0.711,2.116,1.572,4.961,2.347,7.831    c0.768,2.871,1.449,5.766,1.874,7.96c0.22,1.095,0.352,2.02,0.456,2.664c0.093,0.647,0.118,1.02,0.118,1.02    s-0.452-1.417-1.131-3.543c-0.67-2.126-1.509-4.975-2.282-7.842c-0.767-2.869-1.467-5.757-1.933-7.939    c-0.24-1.089-0.399-2.008-0.53-2.646C141.346,83.226,141.289,82.857,141.289,82.857z" />
	</g>
	<path fill="none" stroke="#000000" stroke-width="2" stroke-linecap="round" d="M168.725,52.608l4.726,8.88   c0,0-0.987,1.436-2.154,1.436" />
	<path fill="none" stroke="#000000" stroke-width="2" stroke-linecap="round" d="M174.169,63.104c0,0,4.191,0.719,0.826,12.649" />
	<g>
		<path d="M175.537,76.264c0,0,0.252,0.459,0.613,1.303c0.18,0.422,0.385,0.94,0.595,1.545c0.203,0.606,0.429,1.295,0.616,2.063    c0.192,0.767,0.387,1.607,0.503,2.515c0.129,0.904,0.242,1.873,0.218,2.888c0.016,0.506-0.02,1.025-0.07,1.552    c-0.021,0.527-0.123,1.06-0.242,1.595c-0.218,1.072-0.627,2.144-1.186,3.156c-0.286,0.5-0.689,0.939-1.033,1.402    c-0.363,0.377-0.724,0.753-1.082,1.126c-0.743,0.752-1.518,1.418-2.266,2.058c-1.507,1.271-3.001,2.34-4.323,3.184    c-2.637,1.706-4.583,2.505-4.583,2.505s1.555-1.368,3.888-3.419c1.145-1.034,2.469-2.243,3.836-3.575    c0.693-0.659,1.358-1.385,2.046-2.081c0.339-0.369,0.68-0.74,1.023-1.113c0.25-0.376,0.556-0.707,0.775-1.107    c0.454-0.79,0.82-1.655,1.026-2.575c0.104-0.459,0.225-0.911,0.277-1.381c0.076-0.463,0.142-0.925,0.158-1.39    c0.038-0.461,0.057-0.917,0.059-1.369c0.011-0.45,0.023-0.893-0.003-1.325c-0.026-0.864-0.083-1.688-0.148-2.449    c-0.141-1.523-0.324-2.8-0.465-3.695C175.632,76.78,175.537,76.264,175.537,76.264z" />
	</g>
	<g>
		<path d="M164.173,99.905c0,0-0.25,0.953-0.851,2.575c-0.328,0.796-0.686,1.789-1.21,2.872c-0.484,1.105-1.101,2.315-1.8,3.626    c-0.715,1.299-1.506,2.704-2.431,4.132c-0.93,1.425-1.899,2.941-3.042,4.407c-1.084,1.511-2.306,2.994-3.572,4.48    c-1.246,1.504-2.664,2.894-4.001,4.359c-1.42,1.383-2.885,2.72-4.307,4.054c-1.489,1.26-2.993,2.454-4.426,3.632    c-1.492,1.104-2.966,2.127-4.353,3.108c-1.374,0.999-2.797,1.761-4.051,2.546c-1.269,0.762-2.413,1.489-3.505,2.003    c-1.074,0.539-2.01,1.009-2.781,1.396c-1.549,0.75-2.434,1.178-2.434,1.178s0.814-0.554,2.238-1.524    c0.716-0.473,1.585-1.047,2.581-1.705c1.017-0.622,2.075-1.463,3.271-2.309c0.593-0.429,1.211-0.876,1.851-1.339    c0.641-0.459,1.315-0.917,1.958-1.458c1.311-1.04,2.695-2.137,4.125-3.272c1.377-1.198,2.777-2.46,4.238-3.695    c1.38-1.325,2.798-2.655,4.176-4.023c1.324-1.419,2.733-2.764,3.969-4.223c1.245-1.45,2.528-2.831,3.632-4.282    c1.159-1.408,2.207-2.822,3.201-4.169c0.516-0.661,0.942-1.353,1.398-1.996c0.441-0.652,0.903-1.262,1.282-1.885    c0.78-1.235,1.516-2.36,2.107-3.393c0.62-1.018,1.102-1.937,1.526-2.685c0.385-0.764,0.718-1.354,0.909-1.772    C164.068,100.127,164.173,99.905,164.173,99.905z" />
	</g>
	
		<line fill="none" stroke="#000000" stroke-width="2" stroke-linecap="round" x1="126.183" y1="138.091" x2="112.061" y2="195.772" />
	<g>
		<path d="M153.503,71.69c0,0-0.378,0.483-0.755,1.22c-0.18,0.37-0.345,0.811-0.374,1.26c-0.025,0.224,0.008,0.448,0.064,0.665    c0.05,0.219,0.147,0.434,0.286,0.634c0.086,0.178,0.318,0.469,0.465,0.666c0.167,0.216,0.332,0.429,0.491,0.635    c0.33,0.409,0.653,0.783,0.938,1.103c0.574,0.632,1.008,1.049,1.008,1.049s-0.605-0.122-1.374-0.606    c-0.386-0.235-0.81-0.556-1.219-0.947c-0.2-0.199-0.414-0.399-0.604-0.637c-0.202-0.255-0.354-0.407-0.554-0.735    c-0.179-0.284-0.315-0.616-0.379-0.955c-0.079-0.337-0.056-0.69,0.01-1.001c0.054-0.318,0.187-0.595,0.32-0.838    c0.134-0.244,0.296-0.446,0.453-0.619C152.918,71.895,153.503,71.69,153.503,71.69z" />
	</g>
	<g>
		<path d="M162.52,66.501c0,0-0.219,0.073-0.544,0.276c-0.315,0.202-0.754,0.559-0.923,1.116c-0.091,0.273-0.112,0.587-0.067,0.923    c0.029,0.334,0.155,0.688,0.292,1.048c0.136,0.373,0.333,0.774,0.478,1.196c0.153,0.408,0.309,0.822,0.465,1.236    c0.303,0.805,0.671,1.559,1.217,1.942c0.272,0.193,0.595,0.301,0.931,0.347c0.335,0.037,0.678,0.047,0.996,0.004    c0.637-0.061,1.186-0.186,1.564-0.279c0.386-0.087,0.606-0.136,0.606-0.136S167.34,74.29,167,74.494    c-0.172,0.101-0.382,0.223-0.641,0.327c-0.254,0.117-0.544,0.247-0.888,0.331c-0.333,0.11-0.725,0.176-1.152,0.177    c-0.425-0.001-0.918-0.08-1.351-0.347c-0.424-0.259-0.809-0.631-1.049-1.051c-0.267-0.413-0.452-0.846-0.63-1.274    c-0.316-0.877-0.581-1.676-0.841-2.505c-0.135-0.429-0.221-0.869-0.206-1.304c-0.008-0.429,0.1-0.852,0.288-1.187    c0.372-0.697,0.992-0.952,1.365-1.064C162.291,66.489,162.52,66.501,162.52,66.501z" />
	</g>
	<path fill="none" stroke="#000000" stroke-width="0.75" stroke-linecap="round" d="M167.291,60.86c0,0-1.033,0.85-1.843,2.169" />
	<g>
		<path d="M168.702,69.43c0,0,0.15-0.209,0.386-0.471c0.239-0.258,0.57-0.561,0.899-0.845c0.335-0.279,0.664-0.544,0.907-0.763    c0.112-0.113,0.24-0.204,0.294-0.288c0.067-0.079,0.118-0.128,0.118-0.128s0.071,0.258-0.044,0.64    c-0.113,0.376-0.419,0.796-0.79,1.11c-0.374,0.314-0.808,0.533-1.158,0.637C168.961,69.425,168.702,69.43,168.702,69.43z" />
	</g>
	<g>
		<path d="M125.207,79.083c0,0,0.057,0.035,0.133,0.138c0.074,0.101,0.181,0.265,0.241,0.496c0.076,0.228,0.123,0.515,0.152,0.845    c0.033,0.332,0.029,0.705-0.006,1.11c-0.077,0.805-0.252,1.736-0.55,2.69c-0.275,0.964-0.665,1.955-1.089,2.926    c-0.848,1.945-1.921,3.769-2.779,5.097c-0.437,0.66-0.839,1.187-1.102,1.566c-0.272,0.374-0.439,0.58-0.439,0.58    s0.091-0.251,0.27-0.676c0.188-0.421,0.431-1.035,0.767-1.745c0.314-0.722,0.695-1.554,1.115-2.437    c0.389-0.897,0.856-1.828,1.254-2.786c0.224-0.469,0.426-0.946,0.614-1.418c0.198-0.47,0.394-0.93,0.557-1.385    c0.356-0.901,0.621-1.758,0.818-2.501c0.082-0.373,0.163-0.716,0.2-1.025c0.039-0.307,0.053-0.581,0.028-0.8    c-0.016-0.222-0.054-0.395-0.098-0.508C125.252,79.136,125.207,79.083,125.207,79.083z" />
	</g>
</g>
</svg>
