<?xml version="1.0" encoding="UTF-8"?>
<!-- Generator: Adobe Illustrator 18.1.1, SVG Export Plug-In . SVG Version: 6.00 Build 0)  -->
<svg xmlns="http://www.w3.org/2000/svg" xmlns:xlink="http://www.w3.org/1999/xlink" version="1.1" id="Lager_1" x="0px" y="0px" width="226.77px" height="226.77px" viewBox="0 0 226.77 226.77" enable-background="new 0 0 226.77 226.77" xml:space="preserve"><rect fill="#FFFFFF" x="0px" y="0px" width="226.77px" height="226.77px" />
<g>
	<g id="Färg_6_">
		
			<linearGradient id="SVGID_1_" gradientUnits="userSpaceOnUse" x1="41.9293" y1="98.2665" x2="58.9293" y2="105.2665" gradientTransform="matrix(1 0 0 -1 0 226.11)">
			<stop offset="0" style="stop-color:#FFFFFF" />
			<stop offset="1" style="stop-color:#EDEDED" />
		</linearGradient>
		<polyline fill="url(#SVGID_1_)" points="79.712,129.065 72.462,111.315 68.462,97.815 42.962,105.315 28.712,109.315     44.962,150.565 79.462,129.065   " />
	</g>
	<g id="Färg_5_" opacity="0.22">
		
			<linearGradient id="SVGID_2_" gradientUnits="userSpaceOnUse" x1="41.9293" y1="98.8921" x2="58.9293" y2="105.8921" gradientTransform="matrix(1 0 0 -1 0 226.11)">
			<stop offset="0" style="stop-color:#FFFFFF" />
			<stop offset="1" style="stop-color:#EDEDED" />
		</linearGradient>
		<polyline fill="url(#SVGID_2_)" points="79.712,128.44 72.462,110.69 68.462,97.19 42.962,104.69 28.712,108.69 44.962,149.94     79.913,131.306   " />
	</g>
	<path fill="none" stroke="#000000" stroke-width="2" stroke-linecap="round" d="M42.226,105.62c0,0,35.925-13.271,46.407-17.545" />
	<path fill="none" stroke="#000000" stroke-width="2" stroke-linecap="round" d="M58.113,141.744c0,0,26.303-13.884,41.162-17.422" />
	<path fill="none" stroke="#000000" stroke-width="2" stroke-linecap="round" d="M84.415,92.166c0,0,8.201-15.55,29.143-13.775" />
	<path fill="none" stroke="#000000" stroke-width="2" stroke-linecap="round" d="M110.333,79.667c0,0,10.828-5.185,17.305-6.004   c6.477-0.819,13.296,1.734,18.362,3.504s9.144,0.993,8.635,5.528c-0.509,4.536-3.335,12.124-12.135,10.847s-11.874,0.2-11.874,0.2" />
	<path fill="none" stroke="#000000" stroke-width="2" stroke-linecap="round" d="M92.762,115.886c0,0,20.693,13.929,30.466,24.855" />
	<path fill="none" stroke="#000000" stroke-width="2" stroke-linecap="round" d="M134.667,93.667   c-2.321,0.12-10.119,5.775-10.119,5.775" />
	<path fill="none" stroke="#000000" stroke-width="2" stroke-linecap="round" d="M135.99,94.098c0,0-4.615,7.194-3.804,15.714" />
	<path fill="none" stroke="#000000" stroke-width="2" stroke-linecap="round" d="M135.141,101.976c0,0,5.659,2.233,7.592,6.295" />
	<path fill="none" stroke="#000000" stroke-width="2" stroke-linecap="round" d="M141,107.333c0,0,14.25,5.083,19.125,20.708" />
	<path fill="none" stroke="#000000" d="M69.696,99.209c0,0,4.651,18.391,9.736,28.052" />
	<path fill="none" stroke="#000000" stroke-width="2" stroke-linecap="round" d="M158.969,127.461c0,0,7.143,4.317,7.893,9.567" />
	<g>
		<path d="M152.316,130.415c0,0,0.271-0.095,0.778-0.106c0.501-0.009,1.251,0.077,2.071,0.455c0.204,0.094,0.406,0.21,0.625,0.325    c0.202,0.133,0.407,0.281,0.613,0.439c0.399,0.329,0.799,0.709,1.141,1.157c0.338,0.449,0.662,0.928,0.924,1.449    c0.13,0.26,0.242,0.527,0.355,0.797l0.084,0.203l0.047,0.123l0.033,0.096l0.131,0.384c0.165,0.491,0.329,1.101,0.435,1.648    c0.12,0.553,0.165,1.114,0.203,1.654c0.062,1.085-0.067,2.116-0.311,2.948c-0.228,0.839-0.572,1.47-0.811,1.891    c-0.247,0.419-0.384,0.663-0.384,0.663s-0.026-0.286,0.002-0.774c0.025-0.487,0.073-1.16,0.055-1.933    c-0.026-0.777-0.117-1.654-0.3-2.585c-0.085-0.467-0.222-0.94-0.345-1.425c-0.142-0.489-0.255-0.928-0.444-1.46l-0.123-0.387    l-0.031-0.097l-0.008-0.024c0.013,0.039,0,0.001,0,0.001l-0.017-0.043l-0.068-0.173c-0.095-0.227-0.164-0.467-0.261-0.689    c-0.105-0.217-0.199-0.437-0.29-0.658c-0.11-0.208-0.219-0.413-0.326-0.614c-0.241-0.384-0.472-0.757-0.732-1.087    c-0.269-0.316-0.535-0.614-0.811-0.864c-0.557-0.491-1.116-0.831-1.539-1.033C152.591,130.491,152.316,130.415,152.316,130.415z" />
	</g>
	<g>
		<path d="M157.429,142.5c0,0,0.022-0.054,0.063-0.154c0.05-0.088,0.133-0.265,0.256-0.426c0.233-0.352,0.62-0.809,1.158-1.289    c0.538-0.475,1.231-0.97,2.058-1.359c0.409-0.201,0.858-0.362,1.317-0.51c0.47-0.116,0.945-0.257,1.44-0.297l0.738-0.072    c0.247-0.005,0.494,0.011,0.737,0.018c0.489-0.007,0.962,0.097,1.415,0.188c0.457,0.068,0.871,0.253,1.264,0.395    c0.398,0.132,0.739,0.337,1.048,0.528c0.309,0.188,0.596,0.345,0.815,0.543c0.226,0.186,0.409,0.365,0.56,0.508    c0.299,0.29,0.452,0.468,0.452,0.468s-0.245-0.036-0.643-0.119c-0.198-0.044-0.437-0.091-0.697-0.165    c-0.26-0.074-0.578-0.087-0.893-0.16c-0.32-0.061-0.661-0.127-1.028-0.147c-0.364-0.029-0.732-0.107-1.124-0.094    c-0.388-0.009-0.782-0.041-1.185-0.005l-0.605,0.021l-0.607,0.077c-0.409,0.017-0.805,0.137-1.208,0.189    c-0.393,0.097-0.789,0.177-1.167,0.286c-0.761,0.205-1.465,0.463-2.089,0.68c-0.606,0.245-1.139,0.447-1.501,0.616    c-0.183,0.081-0.327,0.145-0.425,0.188C157.482,142.469,157.429,142.5,157.429,142.5z" />
	</g>
	<g>
		<path d="M192.915,134.976c0,0-0.352-0.338-0.996-0.866c-0.308-0.271-0.72-0.56-1.177-0.889c-0.472-0.311-1.018-0.627-1.632-0.905    c-0.615-0.275-1.305-0.495-2.044-0.634c-0.364-0.091-0.759-0.09-1.146-0.144c-0.399,0.02-0.796-0.026-1.209,0.016    c-0.411,0.034-0.827,0.055-1.248,0.149l-0.633,0.115l-0.636,0.167c-0.429,0.089-0.853,0.236-1.278,0.381    c-0.429,0.128-0.847,0.311-1.267,0.487c-0.421,0.168-0.841,0.35-1.253,0.55l-0.621,0.288c-0.146,0.059-0.397,0.21-0.59,0.31    c-0.854,0.452-1.576,0.881-2.282,1.334c-0.699,0.484-1.353,0.977-1.943,1.484c-0.57,0.524-1.092,1.044-1.522,1.57    c-0.218,0.262-0.419,0.52-0.585,0.782c-0.19,0.25-0.338,0.505-0.48,0.747c-0.277,0.486-0.482,0.935-0.629,1.317    c-0.288,0.767-0.348,1.254-0.348,1.254s-0.121-0.477-0.052-1.343c0.039-0.43,0.12-0.956,0.305-1.536    c0.174-0.583,0.433-1.231,0.815-1.881c0.359-0.667,0.846-1.328,1.414-1.981c0.282-0.328,0.604-0.631,0.918-0.961    c0.332-0.308,0.695-0.59,1.054-0.894c0.752-0.576,1.58-1.156,2.384-1.585c0.221-0.122,0.368-0.225,0.651-0.363l0.66-0.326    c0.439-0.221,0.882-0.443,1.354-0.609c0.464-0.181,0.924-0.368,1.409-0.503c0.477-0.149,0.951-0.299,1.445-0.392    c0.483-0.123,0.975-0.19,1.469-0.231c0.486-0.07,0.98-0.064,1.461-0.067c0.481-0.016,0.959,0.071,1.419,0.118    c0.456,0.113,0.909,0.174,1.327,0.329c0.852,0.253,1.595,0.657,2.227,1.074c0.639,0.413,1.143,0.889,1.567,1.316    c0.413,0.439,0.738,0.846,0.983,1.2c0.262,0.339,0.409,0.635,0.53,0.826C192.853,134.872,192.915,134.976,192.915,134.976z" />
	</g>
	<path fill="none" stroke="#000000" stroke-width="2" stroke-linecap="round" d="M186.625,142.542" />
	
		<line fill="none" stroke="#000000" stroke-width="2" stroke-linecap="round" x1="186.125" y1="141.524" x2="191.793" y2="135.311" />
	<path fill="none" stroke="#000000" stroke-width="2" stroke-linecap="round" d="M187.29,140.247l-2.915,7.545   c0,0-0.624,2.371-4,4.625c-3.376,2.254-16.5,5.375-18.5,5.375s-5.949,1.859-8.535-0.518c-2.11-1.939-19.26-16.24-19.26-16.24" />
	<g>
		<path d="M184.924,128.955c0,0,0.344-0.642,1.13-1.295c0.387-0.333,0.876-0.677,1.448-0.958c0.567-0.291,1.219-0.516,1.893-0.666    c0.344-0.049,0.68-0.131,1.027-0.134c0.344-0.017,0.68-0.031,1.011,0.014c0.328,0.033,0.642,0.07,0.936,0.16    c0.293,0.083,0.565,0.153,0.805,0.279c0.487,0.205,0.849,0.454,1.079,0.667c0.234,0.2,0.35,0.328,0.35,0.328    s-0.185,0.026-0.479,0.048c-0.146,0.009-0.32,0.021-0.51,0.024c-0.197,0.026-0.414,0.055-0.639,0.064    c-0.224,0.004-0.473,0.07-0.723,0.091c-0.249,0.016-0.513,0.075-0.781,0.112c-0.267,0.026-0.543,0.101-0.822,0.14    c-0.279,0.04-0.563,0.117-0.847,0.165c-1.138,0.228-2.299,0.525-3.242,0.691C185.634,128.877,184.924,128.955,184.924,128.955z" />
	</g>
	<line fill="none" stroke="#000000" stroke-width="2" stroke-linecap="round" x1="194.5" y1="128.292" x2="193.436" y2="136.753" />
	<path fill="none" stroke="#000000" stroke-width="2" stroke-linecap="round" d="M193.875,137.292l-2.5,15c0,0-0.5,2-3,3.625   S170.5,166.542,168.5,167.292s-5.75,2.001-7.125,0.375C160,166.042,129.5,144.542,129.5,144.542s-6.161,0.613-9.581-6.693" />
	<g>
		<path d="M194.885,131.364c0.693-0.01,1.376,0.124,2.051,0.36c0.661,0.253,1.352,0.618,1.844,1.371l0.132,0.202l-0.116,0.368    c-0.405,1.281-0.94,2.503-1.57,3.68c-0.312,0.59-0.671,1.159-1.048,1.719c-0.386,0.557-0.801,1.1-1.302,1.603    c0.054-0.708,0.195-1.377,0.364-2.033c0.178-0.652,0.375-1.295,0.618-1.917c0.481-1.246,1.057-2.449,1.763-3.592l0.015,0.569    c-0.162-0.421-0.591-0.875-1.09-1.251C196.049,132.048,195.477,131.715,194.885,131.364z" />
	</g>
	<g>
		<path d="M124.186,135.246c0,0,0.131,0.174,0.36,0.456c0.226,0.284,0.545,0.676,0.924,1.123c0.379,0.448,0.836,0.936,1.318,1.439    c0.503,0.484,1.019,1.001,1.602,1.437c0.266,0.25,0.584,0.429,0.865,0.653c0.286,0.218,0.602,0.38,0.886,0.582    c0.289,0.194,0.598,0.332,0.876,0.505c0.276,0.181,0.565,0.295,0.823,0.436c0.265,0.119,0.499,0.284,0.725,0.369    c0.224,0.092,0.419,0.194,0.583,0.273c0.327,0.165,0.519,0.279,0.519,0.279s-0.205,0.054-0.574,0.115    c-0.184,0.027-0.411,0.065-0.672,0.084c-0.264,0.04-0.553,0.01-0.875-0.01c-0.32-0.028-0.681-0.026-1.038-0.129    c-0.358-0.094-0.754-0.165-1.132-0.323c-0.373-0.166-0.784-0.304-1.149-0.537c-0.369-0.226-0.754-0.448-1.087-0.738    c-0.345-0.276-0.672-0.571-0.954-0.9c-0.306-0.306-0.541-0.664-0.779-0.994c-0.44-0.689-0.769-1.375-0.942-2.001    c-0.2-0.612-0.265-1.151-0.287-1.526C124.155,135.462,124.186,135.246,124.186,135.246z" />
	</g>
	<g>
		<path d="M151.601,80.099c0,0-0.338-0.004-0.928-0.011c-0.588-0.019-1.432-0.015-2.434-0.015c-0.501,0.003-1.043,0.016-1.608,0.041    c-0.552,0.035-1.181,0.087-1.655,0.246c-0.288,0.019-0.508,0.721-0.672,1.297c-0.167,0.608-0.287,1.254-0.38,1.903    c-0.1,0.648-0.175,1.303-0.21,1.943c-0.015,0.636-0.083,1.283,0.116,1.728c0.17,0.386,0.62,0.769,1.089,0.988    c0.478,0.229,0.983,0.385,1.46,0.494c0.958,0.205,1.797,0.301,2.382,0.336c0.589,0.042,0.925,0.066,0.925,0.066    s-0.332,0.063-0.922,0.129c-0.589,0.05-1.441,0.14-2.477,0.036c-0.517-0.053-1.084-0.15-1.668-0.378    c-0.574-0.234-1.216-0.574-1.603-1.338c-0.32-0.722-0.272-1.432-0.265-2.104c0.026-0.683,0.091-1.366,0.186-2.048    c0.11-0.68,0.247-1.356,0.441-2.021c0.094-0.334,0.219-0.664,0.377-0.993c0.106-0.188,0.236-0.407,0.336-0.499    c0.137-0.182,0.429-0.323,0.591-0.366c0.736-0.208,1.344-0.165,1.942-0.162c0.59,0.018,1.141,0.073,1.647,0.132    C150.291,79.756,151.601,80.099,151.601,80.099z" />
	</g>
	<g>
		<path d="M188.486,133.171c0,0-0.303,0.554-0.758,1.385c-0.218,0.412-0.473,0.886-0.72,1.4c-0.244,0.514-0.499,1.06-0.687,1.623    c-0.218,0.554-0.347,1.125-0.451,1.663c-0.013,0.269-0.08,0.534-0.079,0.784c0.014,0.247-0.015,0.493,0.008,0.714    c0.035,0.218,0.056,0.425,0.076,0.613c0.03,0.184,0.087,0.336,0.116,0.471c0.064,0.274,0.101,0.431,0.101,0.431    s-0.105-0.117-0.28-0.344c-0.081-0.116-0.207-0.249-0.297-0.427c-0.086-0.18-0.183-0.388-0.278-0.623    c-0.091-0.235-0.132-0.505-0.192-0.791c-0.054-0.286-0.046-0.592-0.053-0.911c0.024-0.312,0.051-0.64,0.116-0.963    c0.09-0.314,0.149-0.648,0.271-0.954c0.232-0.621,0.526-1.21,0.863-1.718c0.329-0.514,0.689-0.953,1.022-1.304    C187.928,133.513,188.486,133.171,188.486,133.171z" />
	</g>
	<g>
		<path d="M139.781,117.656c0,0,0.748-0.186,1.878,0.019c0.556,0.109,1.212,0.281,1.853,0.601c0.657,0.293,1.293,0.727,1.889,1.202    c0.276,0.262,0.574,0.504,0.823,0.782c0.251,0.276,0.498,0.55,0.708,0.835c0.427,0.566,0.77,1.128,1.01,1.637    c0.276,0.487,0.401,0.947,0.519,1.249c0.106,0.308,0.157,0.487,0.157,0.487s-0.121-0.142-0.331-0.392    c-0.214-0.245-0.462-0.626-0.826-1.032c-0.176-0.206-0.363-0.431-0.552-0.672c-0.211-0.224-0.434-0.458-0.649-0.71    c-0.215-0.253-0.487-0.465-0.719-0.722c-0.238-0.251-0.521-0.46-0.779-0.696c-0.265-0.226-0.545-0.435-0.82-0.641    c-0.293-0.176-0.552-0.403-0.843-0.553c-0.281-0.169-0.555-0.329-0.826-0.463c-0.268-0.141-0.532-0.252-0.775-0.365    C140.516,117.811,139.781,117.656,139.781,117.656z" />
	</g>
</g>
</svg>
