<?xml version="1.0" encoding="UTF-8"?>
<!-- Generator: Adobe Illustrator 18.1.1, SVG Export Plug-In . SVG Version: 6.00 Build 0)  -->
<svg xmlns="http://www.w3.org/2000/svg" xmlns:xlink="http://www.w3.org/1999/xlink" version="1.1" id="Lager_1" x="0px" y="0px" width="226.77px" height="226.77px" viewBox="0 0 226.77 226.77" enable-background="new 0 0 226.77 226.77" xml:space="preserve"><rect fill="#FFFFFF" x="0px" y="0px" width="226.77px" height="226.77px" />
<g>
	<path d="M171.645,122.187c0,0-0.791-1.316-1.978-3.291c-0.302-0.487-0.629-1.014-0.986-1.556c-0.356-0.518-0.771-1.141-1.199-1.503   c-0.298-0.234-1.103-0.143-1.74,0.037c-0.673,0.189-1.334,0.503-1.942,0.885c-0.611,0.381-1.165,0.85-1.616,1.385   c-0.226,0.267-0.435,0.544-0.607,0.84l-0.124,0.223c-0.008-0.017-0.059,0.143-0.086,0.206c-0.026,0.08-0.01,0.102-0.028,0.155   c-0.006,0.056,0,0.135-0.003,0.202c0.048,0.59,0.3,1.248,0.552,1.837c0.268,0.598,0.521,1.163,0.755,1.685   c0.482,1.046,0.857,1.935,1.124,2.553c0.258,0.623,0.394,0.984,0.394,0.984s-0.204-0.327-0.56-0.899   c-0.35-0.575-0.849-1.396-1.448-2.381c-0.289-0.5-0.616-1.034-0.92-1.633c-0.295-0.603-0.645-1.232-0.756-2.079   c-0.004-0.113-0.015-0.215-0.008-0.339c0.015-0.125,0.035-0.288,0.065-0.382c0.041-0.107,0.03-0.129,0.115-0.306l0.133-0.268   c0.186-0.353,0.409-0.693,0.664-1.008c0.513-0.629,1.138-1.171,1.822-1.613c0.687-0.44,1.439-0.769,2.223-0.981   c0.393-0.102,0.798-0.176,1.22-0.18c0.212-0.001,0.429,0.015,0.654,0.064c0.243,0.054,0.484,0.153,0.677,0.321   c0.645,0.606,0.937,1.213,1.287,1.801c0.331,0.584,0.609,1.148,0.855,1.674C171.156,120.723,171.645,122.187,171.645,122.187z" />
</g>
<linearGradient id="SVGID_1_" gradientUnits="userSpaceOnUse" x1="44.7527" y1="66.6256" x2="72.4193" y2="71.7923">
	<stop offset="0" style="stop-color:#FFFFFF" />
	<stop offset="1" style="stop-color:#EDEDED" />
</linearGradient>
<polygon fill="url(#SVGID_1_)" points="38.84,87.419 73.326,95.649 77.525,79.601 82.34,69.167 91.822,58.718 85.047,55.987   73.707,51.416 51.333,44.167 " />
<g>
	<path d="M154.205,195.579c0,0,0.13-0.199,0.356-0.546c0.227-0.342,0.509-0.861,0.788-1.482c0.265-0.619,0.511-1.39,0.404-2.117   c-0.062-0.383-0.199-0.636-0.473-1.027c-0.256-0.377-0.527-0.754-0.801-1.123c-1.081-1.477-2.349-2.83-3.598-3.274   c-0.613-0.229-1.191-0.25-1.589-0.183c-0.4,0.062-0.631,0.137-0.631,0.137s0.05-0.032,0.145-0.092   c0.094-0.062,0.237-0.148,0.435-0.23c0.389-0.154,1.027-0.327,1.787-0.179c0.758,0.132,1.569,0.555,2.29,1.137   c0.731,0.579,1.377,1.32,1.961,2.089c0.29,0.388,0.552,0.788,0.81,1.184c0.112,0.181,0.282,0.417,0.373,0.681   c0.095,0.257,0.16,0.523,0.175,0.784c0.062,1.056-0.379,1.886-0.775,2.494c-0.403,0.621-0.851,1.036-1.148,1.329   C154.406,195.446,154.205,195.579,154.205,195.579z" />
</g>
<g>
	<path d="M147.553,193.134c0,0-0.516-0.498-1.184-1.305c-0.339-0.399-0.721-0.869-1.128-1.368c-0.414-0.493-0.835-1.03-1.293-1.525   c-0.216-0.26-0.452-0.496-0.677-0.736c-0.245-0.212-0.452-0.469-0.697-0.65c-0.232-0.206-0.465-0.377-0.695-0.533   c-0.229-0.155-0.462-0.261-0.678-0.369c-0.223-0.049-0.433-0.177-0.628-0.168c-0.192-0.005-0.379-0.068-0.519-0.025   c-0.304,0.036-0.478,0.057-0.478,0.057s0.142-0.093,0.429-0.25c0.139-0.098,0.336-0.111,0.563-0.165   c0.232-0.074,0.487-0.014,0.78-0.004c0.274,0.057,0.589,0.125,0.879,0.264c0.295,0.133,0.604,0.284,0.879,0.492   c0.584,0.382,1.103,0.895,1.588,1.423C146.616,190.437,147.553,193.134,147.553,193.134z" />
</g>
<path fill="none" stroke="#000000" stroke-width="2" stroke-linecap="round" d="M39.667,88.5c0,0,42.876,8.597,45.199,11.713  s33.49,67.83,33.49,67.83l9.411,14.776" />
<polyline fill="none" stroke="#000000" stroke-width="2" stroke-linecap="round" points="113.765,147.438 124.411,169.923   137.529,187.404 " />
<path fill="none" stroke="#000000" stroke-width="2" stroke-linecap="round" d="M138.38,187.04l4.892,9.115  c0,0,2.396,0.672,5.311-1.731" />
<path fill="none" stroke="#000000" stroke-width="2" stroke-linecap="round" d="M126.962,180.238l4.98,8.969  c0,0,1.579,0.748,4.008-0.71" />
<path fill="none" stroke="#000000" stroke-width="2" stroke-linecap="round" d="M62.561,48.006L102.234,64  c0,0,7.348,0.156,14.807,0.912c7.459,0.755,25.606,8.978,27.626,13.088c3.368,6.856,8.272,13.317,16.079,23.899  c0,0,5.076,9.102,7.023,12.247" />
<line fill="none" stroke="#000000" stroke-width="2" stroke-linecap="round" x1="167.623" y1="115.394" x2="173.783" y2="124.728" />
<g>
	<path d="M134.625,97.038c0,0,1.473,1.855,3.57,4.677c1.047,1.408,2.269,3.051,3.579,4.811c1.322,1.745,2.685,3.639,4.124,5.468   c0.692,0.937,1.403,1.857,2.122,2.747c0.708,0.9,1.406,1.781,2.1,2.62c0.68,0.853,1.378,1.633,2.019,2.4   c0.636,0.774,1.301,1.433,1.876,2.091c0.575,0.662,1.164,1.191,1.659,1.703c0.251,0.253,0.486,0.489,0.703,0.708   c0.232,0.201,0.444,0.386,0.637,0.553c0.772,0.671,1.213,1.078,1.213,1.078s-0.525-0.259-1.444-0.753   c-0.229-0.126-0.483-0.266-0.759-0.418c-0.258-0.178-0.537-0.37-0.835-0.575c-0.589-0.42-1.294-0.861-1.957-1.455   c-0.675-0.579-1.458-1.168-2.17-1.897c-0.728-0.713-1.537-1.437-2.267-2.274c-0.747-0.823-1.553-1.648-2.274-2.563   c-0.75-0.893-1.495-1.813-2.213-2.753c-0.719-0.94-1.402-1.903-2.078-2.85c-0.692-0.935-1.283-1.916-1.903-2.833   c-1.198-1.86-2.25-3.637-3.096-5.192C135.522,99.235,134.625,97.038,134.625,97.038z" />
</g>
<g>
	<path d="M159.638,126.731c0,0,0.962,0.122,2.406,0.305c0.349,0.033,0.726,0.069,1.126,0.108c0.394,0.046,0.812,0.045,1.235,0.082   c0.424,0.04,0.862-0.002,1.301,0.024c0.436-0.041,0.885-0.004,1.32-0.071c0.439-0.039,0.878-0.073,1.299-0.162   c0.211-0.041,0.425-0.068,0.636-0.099c0.205-0.053,0.408-0.105,0.607-0.156c0.406-0.091,0.788-0.213,1.151-0.344   c0.371-0.116,0.72-0.24,1.029-0.392c0.309-0.15,0.626-0.25,0.883-0.379c0.247-0.143,0.48-0.255,0.671-0.352   c0.386-0.19,0.627-0.292,0.627-0.292s-0.118,0.218-0.36,0.587c-0.123,0.183-0.272,0.411-0.463,0.657   c-0.193,0.244-0.45,0.479-0.732,0.742c-0.143,0.132-0.292,0.269-0.446,0.411c-0.174,0.114-0.355,0.232-0.54,0.354   c-0.372,0.248-0.773,0.509-1.236,0.671c-0.449,0.199-0.921,0.394-1.428,0.492c-0.497,0.151-1.017,0.2-1.536,0.256   c-0.519,0.063-1.038,0.02-1.546,0.015c-0.504-0.052-1-0.116-1.467-0.218c-0.939-0.191-1.775-0.505-2.454-0.834   C160.351,127.481,159.638,126.731,159.638,126.731z" />
</g>
<g>
	<path d="M137.097,102.663c0,0,0.25,0.267,0.34,0.783c0.046,0.253,0.061,0.565-0.004,0.884c-0.047,0.326-0.188,0.65-0.349,0.956   c-0.187,0.292-0.399,0.564-0.641,0.77c-0.238,0.21-0.486,0.369-0.716,0.471c-0.451,0.217-0.801,0.241-0.801,0.241   s0.171-0.311,0.434-0.682c0.132-0.188,0.277-0.399,0.428-0.618c0.143-0.225,0.301-0.448,0.433-0.686   c0.278-0.462,0.495-0.954,0.645-1.37C137.012,103,137.097,102.663,137.097,102.663z" />
</g>
<g>
	<path d="M134.387,104.61c0.834,1.019,1.536,2.15,2.138,3.336c0.591,1.191,1.089,2.445,1.411,3.761   c0.327,1.312,0.508,2.686,0.433,4.075c-0.024,0.694-0.129,1.388-0.273,2.075c-0.141,0.69-0.383,1.356-0.653,2.01l-0.06-0.839   c0.196,0.308,0.34,0.562,0.484,0.845c0.148,0.276,0.272,0.558,0.402,0.839c0.243,0.567,0.461,1.145,0.64,1.735   c0.187,0.588,0.31,1.193,0.428,1.798c0.097,0.609,0.18,1.221,0.212,1.839c0.032,0.308,0.029,0.617,0.029,0.926   c-0.007,0.309,0.017,0.619-0.017,0.927l-0.071,0.925c-0.022,0.309-0.097,0.61-0.143,0.915c-0.085,0.614-0.265,1.205-0.419,1.801   c-0.068,0.302-0.19,0.585-0.289,0.875l-0.312,0.867l-1.618-1.011c0.195-0.206,0.345-0.342,0.522-0.5   c0.171-0.151,0.345-0.295,0.524-0.433c0.355-0.279,0.732-0.526,1.119-0.755c0.777-0.455,1.61-0.824,2.487-1.07   c0.876-0.244,1.794-0.374,2.708-0.33c0.913,0.037,1.81,0.227,2.654,0.524l-0.917,0.487c0.109-0.313,0.215-0.532,0.34-0.78   c0.123-0.24,0.258-0.47,0.403-0.693c0.293-0.443,0.62-0.86,0.978-1.244c0.717-0.768,1.553-1.416,2.471-1.891   c1.834-0.967,3.898-1.278,5.863-1.159c-1.955,0.258-3.856,0.843-5.408,1.916c-0.768,0.541-1.458,1.175-2.016,1.907   c-0.279,0.365-0.526,0.752-0.738,1.153c-0.103,0.202-0.203,0.404-0.291,0.609c-0.085,0.196-0.171,0.431-0.212,0.588   c-0.099,0.377-0.485,0.601-0.861,0.502l-0.006-0.001l-0.05-0.014c-1.468-0.408-2.994-0.352-4.406,0.115   c-0.706,0.233-1.384,0.569-2.016,0.979c-0.317,0.204-0.618,0.432-0.913,0.665c-0.147,0.117-0.29,0.239-0.427,0.364   c-0.131,0.119-0.283,0.266-0.37,0.362c-0.361,0.395-0.974,0.424-1.369,0.063c-0.294-0.268-0.385-0.675-0.265-1.028l0.016-0.045   l0.266-0.778c0.084-0.26,0.192-0.514,0.246-0.782c0.127-0.531,0.282-1.056,0.346-1.597c0.101-0.536,0.147-1.077,0.194-1.619   c0.037-0.27,0.016-0.543,0.027-0.815c0.005-0.272,0.013-0.544-0.013-0.816c-0.019-0.545-0.085-1.085-0.162-1.625   c-0.092-0.538-0.208-1.07-0.344-1.599c-0.136-0.529-0.306-1.048-0.497-1.559c-0.104-0.251-0.202-0.506-0.318-0.748   c-0.107-0.241-0.243-0.497-0.349-0.685l-0.033-0.058c-0.139-0.248-0.139-0.541-0.028-0.781c0.513-1.086,0.884-2.253,1.023-3.477   c0.143-1.221,0.111-2.48-0.064-3.733c-0.189-1.25-0.486-2.504-0.909-3.724C135.499,106.979,135.002,105.771,134.387,104.61z" />
</g>
<path fill="none" stroke="#000000" stroke-width="2" stroke-linecap="round" d="M115.878,126.559c0,0,8.762,23.991,11.574,24.461  c2.812,0.47,18.283-6.35,28.54-12.352" />
<line fill="none" stroke="#000000" stroke-width="2" stroke-linecap="round" x1="155.25" y1="137.667" x2="164.888" y2="133.739" />
<g>
	<path d="M160.572,127.099c0,0,0.675-0.169,1.63,0.061c0.479,0.104,1.023,0.307,1.557,0.636c0.53,0.33,1.058,0.779,1.464,1.341   c0.208,0.277,0.392,0.572,0.524,0.892c0.164,0.301,0.239,0.636,0.318,0.949c0.095,0.31,0.084,0.629,0.102,0.918   c0.025,0.29-0.032,0.564-0.079,0.81c-0.047,0.245-0.079,0.467-0.168,0.654c-0.071,0.188-0.155,0.347-0.218,0.475   c-0.134,0.256-0.228,0.39-0.228,0.39s-0.073-0.161-0.169-0.423c-0.045-0.13-0.105-0.286-0.15-0.458   c-0.041-0.173-0.152-0.358-0.212-0.556c-0.076-0.197-0.145-0.407-0.255-0.61c-0.105-0.204-0.168-0.427-0.302-0.628   c-0.118-0.206-0.214-0.422-0.357-0.621c-0.123-0.207-0.255-0.412-0.413-0.604c-0.125-0.212-0.313-0.384-0.456-0.588   c-0.17-0.189-0.337-0.376-0.498-0.556c-0.337-0.362-0.684-0.698-0.989-1.01C161.05,127.577,160.572,127.099,160.572,127.099z" />
</g>
<polyline fill="none" stroke="#000000" stroke-width="2" stroke-linecap="round" points="114,138.333 130.039,167.844   145.5,186.417 " />
<line fill="none" stroke="#000000" stroke-width="2" stroke-linecap="round" x1="147.065" y1="186.656" x2="152.691" y2="195.847" />
<path fill="none" stroke="#000000" stroke-width="2" stroke-linecap="round" d="M143.829,147.527c0,0,2.035,3.845,2.035,9.845  c0,0,7.583,5.958,6.933,15.925c0,0,14.264,14.015,0.701,23.491" />
<path fill="none" stroke="#000000" d="M89.259,61.759c0,0-11.905,9.183-14.754,32.149" />
<line fill="none" stroke="#000000" stroke-width="2" stroke-linecap="round" x1="113.435" y1="125.586" x2="117.303" y2="130.345" />
</svg>
