<?xml version="1.0" encoding="UTF-8"?>
<!-- Generator: Adobe Illustrator 18.1.1, SVG Export Plug-In . SVG Version: 6.00 Build 0)  -->
<svg xmlns="http://www.w3.org/2000/svg" xmlns:xlink="http://www.w3.org/1999/xlink" version="1.1" id="Lager_1" x="0px" y="0px" width="226.77px" height="226.77px" viewBox="0 0 226.77 226.77" enable-background="new 0 0 226.77 226.77" xml:space="preserve"><rect fill="#FFFFFF" x="0px" y="0px" width="226.77px" height="226.77px" />
<linearGradient id="SVGID_1_" gradientUnits="userSpaceOnUse" x1="54.3795" y1="217.5491" x2="81.1493" y2="222.5483" gradientTransform="matrix(0.2093 -0.9779 0.9779 0.2093 -162.5895 197.7102)">
	<stop offset="0" style="stop-color:#FFFFFF" />
	<stop offset="1" style="stop-color:#EDEDED" />
</linearGradient>
<polygon fill="url(#SVGID_1_)" points="86.668,199.026 103.069,165.291 82.635,158.798 72.295,151.641 63.65,143.963   59.561,150.016 52.718,160.148 34.207,180.754 " />
<path fill="none" stroke="#000000" d="M68.764,147.748c0,0,8.366,12.493,31.089,16.873" />
<path fill="none" stroke="#000000" stroke-width="2" stroke-linecap="round" d="M117.231,64.926  c11.561-1.578,29.759-3.239,32.661-3.239c6.4,0,17.467,17.6,17.867,22.4c0.4,4.8-5.2,10.533-5.2,10.533" />
<path fill="none" stroke="#000000" stroke-width="2" stroke-linecap="round" d="M40.917,173.637c0,0,29.133-36.4,29.667-38  c0.533-1.6,23.667-62.291,23.667-62.291c0.871-2.428,13.182-6.313,19.828-7.968" />
<path fill="none" stroke="#000000" stroke-width="2" stroke-linecap="round" d="M116.545,66.402c0,0,24.014-0.314,28.014-0.314  s5.6,3.2,8,6.4c2.4,3.2,11.2,18.4,8,24.4c-3.2,6-6.024,7.731-7.461,9.179" />
<path fill="none" stroke="#000000" stroke-width="2" stroke-linecap="round" d="M104.959,71.287c0,0,26.8,0.8,30.8,1.2  c4,0.4,3.562-1.128,8.8,9.467c6.024,12.183,4.634,18.747,1.034,25.547" />
<path fill="none" stroke="#000000" stroke-width="2" stroke-linecap="round" d="M102.959,79.687c0,0,21.8-0.097,24.8,0.8  c3.832,1.146,12.56,15.362,12.96,18.562c0.4,3.2-0.497,6.87-1.297,8.87" />
<line fill="none" stroke="#000000" stroke-width="2" stroke-linecap="round" x1="138.333" y1="106.811" x2="136.464" y2="117.445" />
<path fill="none" stroke="#000000" stroke-width="2" stroke-linecap="round" d="M106.389,158.492c0,0,21.37-6.005,40.17-28.805  c11.764-14.267,26-16,39.2-14.4c-3.817-0.529,1.115,0.556,7.184,0.332c4.813-0.178,7.616-2.732,5.216-8.732  c-2.4-6-14-11.2-22.4-11.2c-8.4,0-16.296,3.058-16.296,3.058" />
<g>
	<path d="M136.514,107.607c0,0-0.581,0.575-1.352,1.441c-0.76,0.868-1.728,2.058-2.224,3.371c-0.076,0.16-0.118,0.327-0.164,0.493   c-0.057,0.163-0.101,0.328-0.121,0.495c-0.08,0.346-0.092,0.635-0.059,0.801c0.06,0.407,0.569,0.844,1.015,1.196   c0.453,0.358,0.858,0.672,1.117,0.919c0.265,0.241,0.4,0.4,0.4,0.4s-0.199-0.046-0.548-0.126c-0.345-0.086-0.824-0.208-1.404-0.427   c-0.294-0.106-0.602-0.254-0.938-0.476c-0.331-0.214-0.685-0.576-0.877-1.078c-0.209-0.543-0.145-1.039-0.075-1.45   c0.058-0.436,0.195-0.865,0.365-1.267c0.163-0.409,0.383-0.784,0.616-1.136c0.243-0.346,0.504-0.662,0.767-0.954   c0.55-0.564,1.121-1.009,1.641-1.337C135.71,107.806,136.514,107.607,136.514,107.607z" />
</g>
<g>
	<path d="M143.871,106.206c0,0-0.573,0.589-1.335,1.462c-0.752,0.875-1.703,2.07-2.195,3.369c-0.075,0.159-0.117,0.324-0.162,0.488   c-0.056,0.162-0.101,0.324-0.12,0.489c-0.079,0.343-0.093,0.626-0.06,0.776c0.033,0.194,0.155,0.392,0.341,0.604   c0.18,0.213,0.428,0.389,0.642,0.581c0.449,0.363,0.851,0.684,1.107,0.937c0.262,0.246,0.395,0.409,0.395,0.409   s-0.201-0.042-0.553-0.116c-0.348-0.08-0.83-0.196-1.414-0.41c-0.297-0.104-0.607-0.25-0.948-0.472   c-0.333-0.216-0.709-0.574-0.899-1.093c-0.209-0.558-0.148-1.06-0.076-1.474c0.058-0.44,0.197-0.872,0.368-1.277   c0.164-0.412,0.388-0.788,0.621-1.143c0.24-0.351,0.505-0.667,0.775-0.955c0.557-0.563,1.132-1.007,1.657-1.331   C143.059,106.391,143.871,106.206,143.871,106.206z" />
</g>
<g>
	<path d="M151.81,106.061c0,0-0.748,0.36-1.771,0.989c-1.014,0.63-2.319,1.563-3.173,2.796c-0.193,0.318-0.391,0.63-0.526,0.968   l-0.057,0.123c0.01-0.048-0.02,0.069-0.028,0.096l-0.04,0.143c0.002,0.025,0.005,0.043,0.003,0.064   c-0.016,0.077,0.008,0.221,0.048,0.337c0.091,0.251,0.315,0.506,0.536,0.744c0.228,0.237,0.47,0.453,0.692,0.664   c0.45,0.412,0.819,0.785,1.049,1.068c0.235,0.279,0.345,0.456,0.345,0.456s-0.698-0.43-1.758-1.041   c-0.267-0.154-0.55-0.341-0.847-0.566c-0.295-0.226-0.614-0.5-0.843-0.948c-0.104-0.234-0.195-0.473-0.178-0.789l0.019-0.23   l0.035-0.144c0.02-0.069,0.006-0.051,0.053-0.191l0.064-0.151c0.157-0.411,0.368-0.803,0.619-1.167   c0.262-0.355,0.546-0.686,0.853-0.983c0.318-0.283,0.642-0.544,0.973-0.767c0.329-0.225,0.666-0.411,0.989-0.573   c0.318-0.172,0.64-0.289,0.93-0.404C150.973,106.112,151.81,106.061,151.81,106.061z" />
</g>
<line fill="none" stroke="#000000" stroke-width="2" stroke-linecap="round" x1="106.389" y1="158.492" x2="90.959" y2="190.087" />
<path fill="none" stroke="#000000" stroke-width="1.5" stroke-linecap="round" d="M145.436,106.246l-1.677,9.841  c0,0-2.88,0.7-5.214-0.267" />
<path fill="none" stroke="#000000" stroke-width="1.7" stroke-linecap="round" d="M154.864,104.274l-5.59,10.371  c0,0-2.847-0.022-3.834-0.979" />
<g>
	<path d="M109.626,97.421c0.866,0.565,1.844,0.901,2.811,1.034c0.97,0.146,1.938,0.03,2.836-0.251   c0.904-0.276,1.729-0.765,2.494-1.331c0.769-0.564,1.463-1.246,2.102-1.981l1.942-2.234l-0.316,3.098   c-0.017,0.169-0.043,0.441-0.047,0.669c-0.006,0.239-0.002,0.479,0.017,0.718c0.034,0.478,0.115,0.949,0.246,1.397   c0.268,0.895,0.704,1.706,1.32,2.369c0.616,0.663,1.406,1.179,2.295,1.546c0.438,0.194,0.905,0.35,1.379,0.489   c0.48,0.129,0.973,0.231,1.473,0.315l1.328,0.224l-0.433,1.255c-0.109,0.315-0.223,0.715-0.313,1.084   c-0.092,0.378-0.171,0.76-0.246,1.142c-0.149,0.765-0.247,1.539-0.275,2.308c-0.032,0.77,0.023,1.532,0.134,2.275   c0.118,0.742,0.331,1.461,0.657,2.122c0.164,0.329,0.347,0.652,0.566,0.949c0.204,0.31,0.459,0.584,0.722,0.852   c0.268,0.266,0.564,0.504,0.88,0.725c0.323,0.206,0.644,0.434,1.001,0.601c0.349,0.185,0.714,0.346,1.094,0.478   c0.371,0.157,0.767,0.251,1.156,0.379c0.393,0.113,0.798,0.181,1.201,0.286l1.231,0.215l-1.257,0.083   c-0.42-0.004-0.844-0.005-1.269-0.035c-0.421-0.052-0.854-0.059-1.273-0.165c-0.426-0.074-0.846-0.181-1.263-0.32   c-0.42-0.124-0.83-0.302-1.23-0.499c-0.398-0.207-0.783-0.442-1.146-0.718c-0.358-0.278-0.714-0.577-1.017-0.924   c-0.324-0.33-0.59-0.714-0.833-1.106c-0.486-0.788-0.83-1.653-1.057-2.535c-0.234-0.882-0.318-1.785-0.34-2.675   c-0.018-0.892,0.044-1.776,0.163-2.649c0.053-0.438,0.148-0.869,0.24-1.3c0.1-0.438,0.203-0.841,0.356-1.314l0.895,1.479   c-0.577-0.085-1.154-0.193-1.73-0.336c-0.574-0.158-1.15-0.328-1.709-0.579c-1.115-0.487-2.185-1.198-3.037-2.153   c-0.863-0.945-1.447-2.135-1.713-3.351c-0.139-0.608-0.208-1.223-0.215-1.834c-0.006-0.306,0.006-0.611,0.032-0.916   c0.029-0.316,0.058-0.587,0.144-0.954l1.626,0.863c-0.787,0.745-1.641,1.438-2.592,2.003c-0.473,0.286-0.977,0.526-1.497,0.725   c-0.523,0.192-1.058,0.358-1.612,0.444C113.331,99.774,111.009,98.981,109.626,97.421z" />
</g>
<g>
	<path d="M113.093,96.887c1.166,1.523,2.05,3.359,2.168,5.412c0.044,1.02-0.159,2.103-0.69,3.038   c-0.509,0.948-1.301,1.714-2.166,2.294l0.333-0.714c0.315,1.889,0.58,3.757,0.762,5.648c0.185,1.887,0.358,3.777,0.43,5.673   c0.184,3.791,0.147,7.599-0.165,11.397c-0.339,3.793-0.952,7.59-2.134,11.244c-0.61,1.817-1.338,3.608-2.324,5.259   c-0.965,1.655-2.186,3.184-3.68,4.348c1.27-1.405,2.21-3.03,2.968-4.716c0.743-1.696,1.315-3.46,1.737-5.263   c0.871-3.598,1.296-7.302,1.52-11.014c0.124-1.856,0.183-3.72,0.194-5.584c0.017-1.865,0.015-3.732-0.048-5.599   c-0.07-1.867-0.125-3.736-0.247-5.603c-0.128-1.862-0.24-3.742-0.435-5.585l-0.051-0.487l0.384-0.228   c0.747-0.443,1.439-0.978,1.912-1.685c0.494-0.694,0.742-1.547,0.828-2.437c0.069-0.896-0.058-1.824-0.284-2.736   C113.862,98.644,113.536,97.741,113.093,96.887z" />
</g>
<path fill="none" stroke="#000000" stroke-width="2" stroke-linecap="round" d="M112.277,65.551c0,0,4.46-1.284,7.963-1.019" />
</svg>
