<?xml version="1.0" encoding="UTF-8"?>
<!DOCTYPE svg PUBLIC "-//W3C//DTD SVG 1.1//EN" "http://www.w3.org/Graphics/SVG/1.1/DTD/svg11.dtd">
<!-- Generator: Adobe Illustrator 14.0.0, SVG Export Plug-In . SVG Version: 6.00 Build 43363)  -->
<svg xmlns="http://www.w3.org/2000/svg" xmlns:xlink="http://www.w3.org/1999/xlink" version="1.1" x="0px" y="0px" width="213.732px" height="226.771px" viewBox="0 0 213.732 226.771" enable-background="new 0 0 213.732 226.771" xml:space="preserve"><rect fill="#FFFFFF" x="0px" y="0px" width="213.732px" height="226.771px" />
<g id="Lager_2">
	<path fill="#EDEDED" d="M174,114.333l3.833,16.167L183,151.333l0.167,3l-1.334,1.334l0.167,7.5l8.333,3l7.5,0.333   c0,0,6.333-14.333,6.5-18.833S206,119,206,119l-2.667-20.667c0,0-3.166-10.833-7.333-15.833s-11.834-11-11.834-11L177.5,66   l-9.334-5.833l-5.666-2.5c0,0-8,1.167-9.5,1.333s-8-0.667-8-0.667s-8,2.666-8.5,2.833s-12,0.167-12,0.167l-15,2l-8.667,1.167   c0,0-3.334,3.833-6.167,6S79,81.333,78.5,81.833s-11.333,15.333-11.833,15.5S61,109.667,61,109.667L57.833,126.5l0.5,16.834   l3.833,15.834l3.5,10l12.167-3.667l3.333-31.167L82,130.001l9-3l9.667,1l14.167-2l3.333-1.167l3.167,1.5l5.667-1.166   c0,0,10.666,0.499,13.333,0.166s20-4.666,23-5.166S174,114.333,174,114.333z" />
	<linearGradient id="SVGID_1_" gradientUnits="userSpaceOnUse" x1="23" y1="83.1665" x2="8.5" y2="83.1665">
		<stop offset="0" style="stop-color:#EDEDED" />
		<stop offset="1" style="stop-color:#FFFFFF" />
	</linearGradient>
	<path fill="url(#SVGID_1_)" d="M8.333,57c0,0,11.833-10,12.833-10s2,1.333,2,1.333S23,52.5,27.5,61.833s7.667,12.5,7.667,12.5   l6,6.833l-3.5,4L20.5,101.833l-12.833,17.5v-61.5L8.333,57z" />
</g>
<g id="Lager_1">
	<path d="M65.108,65.039c4.856,1.54,9.948,1.54,15.04,1.658c1.062,0,2.59-0.467,3.539,0.229c8.086-0.401,26.114-1.646,37.586-5.115   c0,0,13.567,1.586,23.612-2.643c0,0,13.391,0.353,17.091-1.057c0,0,11.103,0.706,15.684-1.058c0,0,6.9,0.999,12.313-2.413   c2.023-1.413,3.562-2.927,5.167-4.64c1.539-1.776,0.948-4.263,0.948-6.513c0.354-0.475,0.946-0.829,0.828-1.303   c-0.237-0.591-0.592-0.829-1.066-0.829c-7.579,0.473-15.277,0.119-22.856-0.711l-0.354-0.236   c-7.697-0.119-14.686-1.184-22.856-1.303c-6.157-1.066-12.554-2.014-18.829-2.724c0-0.711,0.709-1.184,0.947-1.776   c0.828-2.487-1.302-4.027-2.724-5.33c-0.712-0.118-1.185-1.303-1.895-1.421c-0.475,0.355-0.475,0.83-0.594,1.185   c-2.723,2.487-6.039,3.198-9.593,3.908l-1.42-0.236c-1.065,0.828-2.725,0.71-4.027,0.947c-6.749,0-13.855-0.237-20.132-1.776   c-1.185-0.355-2.131,0.237-3.196-0.355c-0.83-0.237-1.895-0.119-2.607-0.355c-3.553-0.355-6.75-0.829-10.302-0.592   c-0.593-0.237-1.066-0.237-1.658,0c-0.475-0.83-1.066,0.592-1.658-0.237c-6.277-0.118-12.317-0.474-18.238,0.947   c-1.184,1.066-2.724,1.066-3.909,1.54c-10.066,2.96-18.592,8.29-27,13.974c-3.079-1.421-4.5,1.777-6.868,3.08   c0.117,0.592,0,1.184,0.592,1.421c1.776,0.71,2.842-1.658,4.026-2.369c0.593,0,1.185-0.71,1.539,0   c2.25,9.949,6.987,18.475,12.909,26.528c-0.118,1.54,1.421,2.25,2.487,3.314c0.592,1.186,2.961,1.777,1.895,3.672   c-8.29,5.448-15.632,12.672-21.79,20.606c-0.473,1.067-2.842,2.488-1.302,3.791c1.657,0.592,2.25-1.777,3.434-2.488   c2.724-4.619,6.75-8.409,10.421-12.078c3.671-3.553,8.408-5.922,11.369-10.067c0.948-1.183,0.237-2.96,0-4.026   c2.368-3.198,5.329-6.158,8.527-8.408c3.434-2.605,7.697-4.146,11.961-4.738C63.332,64.919,64.16,65.985,65.108,65.039z" />
	<path fill="#FFFFFF" d="M26.382,47.038c6.514-4.737,13.738-8.408,21.08-11.842c1.185-0.83,2.724-1.659,3.79-2.487   c0.593,0.473,1.303-0.83,2.013-0.238c12.909-2.25,28.304-1.066,41.094,1.066c0.119,0.711,0.946,0.829,1.54,0.948   c4.975,0.947,10.065,0.711,15.04,1.184c2.843-0.473,5.329,0.592,8.172,0.355c0.354-0.237,0.829-0.237,0.829-0.71l-0.356-0.71   c2.726-0.948,5.686-1.658,8.055-3.672c1.064-0.118,1.657,0.593,2.249,1.303c0.593,1.302-0.118,2.605-1.065,3.434   c-1.304,1.066-3.197,0.236-4.737,0.355h-0.236c0,0.948,1.302,0.948,2.013,1.302c0.947-0.118,1.657,0.237,2.25,0.592   c4.263,0.119,7.343,0.237,11.369,0.947l0.355-0.236c2.014,0.828,4.737,0.354,6.276,1.776c3.078,0.474,6.039,0.592,9.118,0.947   c6.159,0.119,12.673,0.948,18.711,1.184l0.356,0.237c6.512-0.119,13.381,1.302,20.014,0.829c1.065,2.605-0.712,4.855-2.488,6.513   c-2.841,3.316-7.697,4.145-11.604,4.737c2.012-1.184,3.789-3.671,3.67-6.395c-0.356-0.474-0.473-0.947-0.236-1.539   c0.591-0.474,1.539-1.066,0.71-2.014l-0.474-0.237c-6.277,1.421-12.791,0.948-19.186,1.421c-7.46-0.237-15.157-1.777-22.854-2.605   l-0.83,0.592c4.383,2.132,9.947,1.303,14.565,2.724c1.185,0.119,2.606,0,3.316,0.355c-12.315,2.132-22.618-2.487-34.106-3.316   c-0.355,0-1.302-0.119-1.539,0.474c0,2.606,2.842,0.711,4.146,1.54c6.631,1.184,13.145,2.724,19.776,3.197   c3.434-0.474,6.869,0.119,10.186-0.119c3.077-0.118,6.038-0.118,8.763-0.354c1.066,0.829,0.236,2.132,0,3.079   c-1.775,2.014-4.144,3.672-6.75,4.619c-3.671,0.119-7.461,1.185-11.369,1.658c0.236-0.592-0.593-0.946-0.947-1.302   c-6.396,1.776-13.265,4.026-20.251,3.908c0.237,0.118,0.355-0.118,0.475-0.356c-0.119-0.592-0.948-0.355-1.422-0.592   c-1.183,0.474-2.368-0.355-3.672,0c-12.315,2.605-25.342,4.382-38.488,5.092c-8.409,0.12-18,0.593-24.632-4.5   c-0.119,0.592-0.711,1.184-0.237,1.777c0.474,0.711,1.42,0.83,1.776,1.421c-1.421,0.474-3.079,0.83-4.618,0.711   c-6.869,2.725-12.317,8.17-16.816,13.62c-0.711,0.236-1.184-0.83-1.896-1.066l-1.303-0.947c-1.658-2.96-3.671-5.33-5.329-8.409   l-0.237-0.947c-1.065,0.12-1.065-2.014-2.131-2.841c0.119-1.185-0.947-1.777-1.065-3.08c-0.356,0.354-0.592-0.593-0.83-0.948   c-0.118-0.474,0-1.184-0.473-1.302c-0.593-1.422-1.066-3.198-1.304-4.856l-0.592,0.118c0.119-0.118-0.119-0.355,0-0.592   c0.237,0.119,0.355-0.119,0.355-0.474c-0.474-0.592-0.237-1.895-0.592-2.724C23.896,48.34,25.436,47.867,26.382,47.038z" />
	<path fill="#FFFFFF" d="M168.374,47.985l0.355-0.355c4.619-0.118,9.12-0.355,13.62-0.829c-0.237,1.421-0.119,3.316-1.185,4.264   c-4.617,3.79-10.185,4.856-16.224,4.974C167.428,54.262,169.322,51.301,168.374,47.985z" />
	<path d="M88.859,208.358c-1.774-4.676-3.995-9.388-3.612-14.772c0.098-0.433,0.401-0.536,0.198-0.969   c-0.1-0.647-0.704-1.188-1.308-0.863c-1.61,1.722-1.738,8.567-6.145,2.366c-1.611-1.824-2.921-3.869-4.029-5.917   c-0.906-1.614-2.113-3.335-1.912-5.381c-1.209-2.152-1.913-4.738-2.521-7.213c-0.131-0.385-0.153-0.807-0.166-1.229   c-1.018,0.11-2.038,0.241-3.054,0.383c0.54,2.636,1.114,5.259,1.409,7.846h-0.103l0.302,0.32   c2.229,8.807,4.572,17.612,8.876,25.474C80.827,208.342,84.847,208.332,88.859,208.358z" />
	<path d="M198.552,165.388c-0.502-0.109-1.308-0.649-1.713,0.108c-1.61,8.499-5.032,16.356-9.767,23.355   c-1.208,1.399-1.814,4.302-4.029,3.872c-0.908-0.214-2.017-0.536-2.317-1.51c-0.705-0.318-1.413,0-2.113,0.325   c0.198,2.154-0.104,4.305-0.607,6.352c-0.841,3.795-1.977,7.549-3.309,11.221c2.408-0.12,4.82-0.266,7.235-0.437   c0.761-1.049,1.526-2.101,2.32-3.142c2.014-3.98,4.128-7.751,5.135-12.163l0.202,0.216c-0.402-0.969,0.603-2.69-0.502-3.551   c1.409-2.906,3.324-6.028,4.831-8.721c0.305-0.32,0-0.971,0.507-1.076c1.509-3.982,2.92-7.965,4.029-12.052   C198.652,167.218,198.955,166.14,198.552,165.388z" />
	<path d="M139.799,147.229c-1.107,2.477-2.315,5.058-3.624,7.537c-0.404,0-0.302-0.54-0.404-0.756   c0.103-1.294,1.008-2.046,0.604-3.336c0.303-1.507,1.006-2.801,1.812-3.985C138.691,146.795,139.597,146.477,139.799,147.229z" />
	<path d="M96.55,139.176c-2.538,0.616-4.862,1.233-6.768,2.596c0,0.246-0.106,0.493,0.427,0.556   c1.372-0.371,2.535-1.298,4.122-1.545c0.103,0.434,1.163,0.369,1.797,0.434c7.723,0.245,14.807,1.357,21.891,2.593   c1.377,0.062,2.432-0.493,3.067-1.112c0.104-0.492,0.526-0.989,0.213-1.42c-6.876-1.606-14.278-3.027-21.997-3.091   C98.56,138.679,97.397,138.805,96.55,139.176z" />
	<path fill="#FFFFFF" d="M99.726,139.238c-1.485,0.554-3.069,0.862-4.551,1.359c7.614,0.247,15.338,1.109,22.949,2.099   c0.532-0.062,1.162-0.308,1.271-0.616c0.105-0.619-1.271-0.558-2.011-0.864c-2.962-0.68-5.499-1.486-8.779-1.793l-0.315-0.185   c-2.538-0.062-4.757-0.56-7.297-0.495C100.886,139.052,100.251,139.301,99.726,139.238z" />
	<path d="M93.699,154.012c0.119,0.235,0.026,0.713,0.469,0.697c0.551-0.146,1.185-0.994,1.837-1.377   c1.428-0.408,2.838-1.294,4.192-0.871c0.078,2.138,0.171,4.626,1.783,6.11c2.801,0.607,5.676,0.26,8.777,0.024   c1.954-1.263,0.743-3.945,1.56-5.876c0.197-0.721-1.498-1.369-0.059-1.538l4.126,0.316c1.197,2.331,1.193,5.181,2.713,7.143   c0.688,0.567,1.541-0.295,2.215-0.083c0.438-0.255,0.638-0.857,0.504-1.443c-0.567-0.335-1.241-0.546-1.798-0.528   c-0.596-1.044-0.977-2.339-1.679-3.262c0.185-0.956-0.738-1.873-0.439-2.835c0.449,0.102,0.911,0.562,1.338,0.068   c0.092-0.474-0.366-0.815-0.817-0.917c-7.57-0.428-16.837-1.624-23.343,2.657C94.426,152.679,94.003,153.287,93.699,154.012z" />
	<path fill="#FFFFFF" d="M106.376,151.282c-1.637,0.89-4.688-0.536-4.471,2.302c0.492,1.29-0.009,2.735,0.919,3.765   c2.346,0.387,4.36,0.671,6.671,0.107l0.526-0.732l0.018-5.461C108.811,151.07,107.485,151.237,106.376,151.282z" />
	<path d="M168.107,139.007c2.539,0.674,4.867,1.349,6.771,2.836c0,0.269,0.105,0.538-0.426,0.606   c-1.372-0.406-2.534-1.418-4.123-1.688c-0.104,0.475-1.161,0.404-1.795,0.475c-7.725,0.268-14.809,1.484-21.891,2.836   c-1.377,0.066-2.433-0.54-3.069-1.216c-0.104-0.538-0.528-1.08-0.212-1.557c6.874-1.754,14.277-3.308,22-3.374   C166.1,138.465,167.263,138.601,168.107,139.007z" />
	<path fill="#FFFFFF" d="M164.938,139.073c1.479,0.607,3.066,0.946,4.549,1.488c-7.616,0.268-15.336,1.214-22.949,2.294   c-0.528-0.068-1.164-0.34-1.271-0.678c-0.105-0.675,1.271-0.606,2.009-0.942c2.961-0.742,5.499-1.622,8.778-1.958l0.317-0.204   c2.538-0.066,4.757-0.608,7.296-0.54C163.773,138.869,164.408,139.143,164.938,139.073z" />
	<path d="M170.963,154.012c-0.121,0.235-0.029,0.713-0.474,0.697c-0.549-0.146-1.186-0.994-1.833-1.377   c-1.43-0.408-2.84-1.294-4.193-0.871c-0.076,2.138-0.175,4.626-1.786,6.11c-2.799,0.607-5.673,0.26-8.773,0.024   c-1.956-1.263-0.744-3.945-1.562-5.876c-0.192-0.721,1.498-1.369,0.059-1.538l-4.125,0.316c-1.193,2.331-1.191,5.181-2.71,7.143   c-0.69,0.567-1.546-0.295-2.218-0.083c-0.437-0.255-0.637-0.857-0.504-1.443c0.571-0.335,1.242-0.546,1.8-0.528   c0.595-1.044,0.974-2.339,1.677-3.262c-0.185-0.956,0.738-1.873,0.439-2.835c-0.449,0.102-0.911,0.562-1.336,0.068   c-0.091-0.474,0.363-0.815,0.812-0.917c7.57-0.428,16.839-1.624,23.346,2.657C170.233,152.679,170.656,153.287,170.963,154.012z" />
	<path fill="#FFFFFF" d="M158.285,151.282c1.634,0.89,4.688-0.536,4.471,2.302c-0.494,1.29,0.005,2.735-0.922,3.765   c-2.348,0.387-4.357,0.671-6.67,0.107l-0.525-0.732l-0.02-5.461C155.848,151.07,157.177,151.237,158.285,151.282z" />
	<polygon fill="#FFFFFF" points="80.41,152.362 80.312,152.146 80.41,152.256  " />
	<rect x="79.908" y="152.576" fill="#FFFFFF" width="0.099" height="0.216" />
	<path fill="#FFFFFF" d="M80.312,152.576c0,0.108,0,0.324-0.204,0.431l-0.101-0.431H80.312z" />
	<path d="M139.597,169.724c0.908,1.938,1.009,4.521,2.823,5.919c0,0.324,0,0.648-0.204,0.752c-0.502-0.323-0.603,0.54-1.108,0.217   c-3.221-4.415-3.422-10.116-4.833-15.498c-0.2-1.291-0.604-2.799,0-3.983c0.604,0.215,1.106-0.647,1.411,0.326   c-0.202,0.214-0.403,0.75-0.305,1.072c-0.2,1.294,0.506,2.799,0.806,3.875c-0.199,1.188,1.008,2.69,0.103,3.767   c0.2,0,0.705,0.109,0.806,0.538c-0.101,0.647-0.101,1.292,0,2.046L139.597,169.724z" />
	<rect x="138.289" y="166.388" width="0.099" height="0.107" />
	<path d="M130.232,168.649l0.2,0.747c-0.504,2.048-0.907,4.31-1.912,6.246c-0.404,0-0.906,0.538-1.312-0.105   c0.805-2.261,1.109-4.845,1.913-7.105C129.427,168.649,130.028,168.32,130.232,168.649z" />
	<path d="M146.648,177.797c-0.706,2.797-1.409,6.133-4.229,7.317c-0.706-0.536-0.606,0.647-1.312,0.647   c-1.409-1.076-2.921-0.647-4.732-0.968c-1.007,0.752-2.519,1.396-3.727,0.752c-0.503-1.292-1.409-0.107-2.216-0.752   c-0.907-0.434-1.912-0.972-2.519-1.938c0.908-0.86,1.915,0.756,2.921,0.858c2.115,0.754,3.628-0.643,5.34-1.288   c1.407-0.971,2.819-2.477,4.028-3.769v-0.218c1.31-0.427,0.302,1.186,0.904,1.51c-0.705,0.858-1.309,1.937-2.113,2.799   c0.301,0.323,0.904,0.536,1.408,0.432c0.807-0.754,2.319-1.616,2.922-3.126c0.303-0.967,1.511-1.614,1.008-2.797   C144.935,176.825,146.548,176.505,146.648,177.797z" />
	<path d="M119.153,179.407c-0.504,1.187,0.401,2.156,0.706,3.126c0.904,0.538,1.71,1.721,2.918,1.612   c1.411-1.074,2.216-4.306,4.331-2.908c1.008-0.214,1.813,0.326,2.417,0.758v0.32c-0.905,0.433-1.512-0.86-2.417-0.214   c-1.008,1.183-1.812,2.692-3.022,3.66c-0.805-0.758-1.409,0.86-2.314,0c-0.805-1.401-2.722,0.108-3.323-1.508   c-0.304-1.506-0.907-2.906-0.604-4.522C118.246,179.514,118.749,179.514,119.153,179.407z" />
	<linearGradient id="SVGID_2_" gradientUnits="userSpaceOnUse" x1="79.1187" y1="208" x2="79.1187" y2="201.833">
		<stop offset="0" style="stop-color:#FFFFFF" />
		<stop offset="1" style="stop-color:#F5F5F5" />
	</linearGradient>
	<path fill="url(#SVGID_2_)" d="M77.491,196.947c-0.201-0.438-1.006-0.328-1.006-0.987c-1.613-2.076-3.326-4.491-4.735-6.787   c0.804,3.395,2.113,6.573,3.223,9.854c1.329,3.371,2.714,6.622,4.469,9.671c2.352-0.022,4.7-0.029,7.046-0.022   c-1.163-3.03-2.17-6.118-3.09-9.119C81.083,199.997,79.304,198.809,77.491,196.947z" />
	<linearGradient id="SVGID_3_" gradientUnits="userSpaceOnUse" x1="181.9316" y1="208" x2="181.9316" y2="201.833">
		<stop offset="0" style="stop-color:#FFFFFF" />
		<stop offset="1" style="stop-color:#F5F5F5" />
	</linearGradient>
	<path fill="url(#SVGID_3_)" d="M186.871,193.804c-0.808,0.446-1.511,1.117-2.017,2.018l-2.217-0.445   c0-0.787-1.209-0.679-1.812-1.015c-0.892,5.226-2.225,10.387-3.834,15.308c0.732-0.043,1.467-0.1,2.2-0.147   c0.346-0.502,0.688-1.014,1.03-1.562C183.043,203.576,185.761,198.857,186.871,193.804z" />
	<path d="M130.433,197.508c-0.303,0.754,0.402,0.754,0.605,1.078c2.113,0.104,4.129,0,5.94-0.538   c0.102-0.54,0.402-0.862,0.707-1.185c4.734,0.216,8.257,3.66,12.187,5.705c0.904-0.213,2.216,0.107,2.921-0.969   c0.504,0,1.006,0.429,1.107,0.862c0.202,0.75-0.604,1.074-1.008,1.288c-0.805,0-1.207,0.648-1.613,1.294   c-2.112,0-3.825-1.403-5.941-1.722c-1.308-0.216-3.222-0.86-4.732-0.11c-1.714,0.324-3.225,0.65-4.936,0.971   c-2.819,0.325-6.042,0.968-8.461-0.542L127.108,203c-0.704-0.106-1.308,0.106-2.013,0.536c-3.223,0.862-6.446,2.584-10.071,1.937   c-0.708-1.398-2.723-0.752-3.828-1.832c-0.202-0.318-0.103-0.641-0.103-0.965c0.304,0.108,0.304-0.107,0.403-0.32   c0.505,0.106,1.008,0.645,1.41,0.967c1.915,0,3.929,0.646,5.541-0.754c3.121-3.015,6.949-4.199,10.775-5.815   C129.829,196.647,130.232,197.186,130.433,197.508z" />
	<path fill="#FFFFFF" d="M131.34,199.878c2.517,0.43,4.935-0.431,7.454-1.078c3.02,0.43,5.739,1.83,8.357,3.662   c-2.819-0.647-5.338-1.832-8.357-1.614c-0.607,0.103-0.607,0.967-1.008,1.396c-2.721,0.54-5.339,0.54-8.158,0.432   c-0.806-0.75-2.014,0.324-2.52-1.076c-2.215,0.215-4.331,0.862-6.244,2.041c-0.806,0.109-1.711,0.222-2.416,0.222   c2.82-2.156,6.142-4.415,9.769-5.276C129.224,199.014,130.028,200.201,131.34,199.878z" />
	<path d="M132.18,213.534c3.062,0.842,6.74-0.396,9.729-1.173c0.088-0.324,0.297-0.118,0.404-0.016   c0.127,0.641-0.654,1.212-1.237,1.777c-4.543,2.137-10.504,1.854-14.476-1.422l-0.152-1.177   C128.475,211.757,130.065,213.521,132.18,213.534z" />
	<path d="M68.494,177.32l0.408-0.307c0.103,0.102,0.208,0.511,0.31,0.307l0.203-0.511c-0.816-2.146-1.022-4.493-1.839-6.64   c-0.055-0.621-0.364-1.247-0.61-1.87c-0.686-0.043-1.373-0.084-2.062-0.123C65.88,171.316,66.99,174.403,68.494,177.32z" />
	<path d="M68.892,168.554c3.165-0.515,6.228-1.328,9.292-2.146c1.736,1.329,1.327-1.53,2.962-1.632   c0.306-1.328-1.125-0.513-1.635-0.821c-0.102-8.474,0.716-17.46,2.042-25.733c0.615-2.553,0.819-5.31,1.94-7.759   c2.655-0.514,5.312-1.227,7.866-2.046c8.885,1.125,17.562,0.511,25.733-2.451c0.613,0.717,1.635,0.717,2.553,0.922   c9.499,0.51,16.954-5.617,24.718-10.01h0.406c1.227-1.123,2.963-2.044,4.391-3.063c4.188-2.656,8.783-5.209,12.357-8.884   c-0.816-0.409-1.43,0.51-2.247,0.817c-7.353,5.206-15.217,10.211-22.978,14.604c-5.105,2.653-10.519,6.023-16.746,5.002   c0.815-0.715,2.041-1.224,3.163-1.53c7.864-3.674,15.625-8.884,22.266-13.99c1.224-1.433,3.982-2.554,4.083-4.699l-0.816-0.104   l-3.368,2.657c-2.25,1.735-4.7,3.573-6.946,5.21c-3.882,2.244-7.66,5.204-11.849,6.739c-1.323,1.226-3.061,1.532-4.491,2.451   c-0.613,0.102-0.818,0.307-1.329,0.612c-0.203,0-0.305,0-0.406-0.204c-1.636,1.428-4.189,1.428-6.126,2.449   c-0.514,0.206-0.92-0.101-1.331,0.308c-1.633,0.203-2.962,0.817-4.595,0.713c-0.409,0.409-0.919,0-1.226,0.311   c-2.655,0.509-4.491,0.509-7.15,0.509c-0.715,0.103-2.042,0.202-2.755-0.103c14.093-5.618,27.779-12.255,40.647-20.631   c0.101-0.51,0.51-0.917,0.918-1.222v-0.206c-0.612-0.204-1.431-0.102-2.043,0.511c-14.4,8.374-28.697,15.93-44.631,21.142   c-0.61-0.311-1.325-0.311-2.04-0.311c-0.82,0-0.92,0.717-0.92,1.33c-1.429,0.511-3.063,0.715-4.493,0.919l0.104-0.513   c-0.205-1.02-1.021,0.104-1.535-0.61c-0.203,0.509-0.509,0.919-0.717,1.43c-1.12,0.406-2.448,0.306-3.573,0.202   c-0.509,0.513-1.531,0.513-1.122,1.43c1.33,0.614,2.656,0.614,4.085,0.614c-2.352,8.68-2.963,17.87-3.674,26.86   c-0.102,0.715,0.202,1.43-0.309,2.041h0.102c0.207,0.1,0.105,0.308,0.105,0.408c0,1.529,0.102,2.857,0.102,4.393   c-2.76,1.02-5.721,1.428-8.48,2.143c-1.02-0.715-1.837,0.614-2.856,0c-0.818-0.204-0.818,0.614-1.227,1.021   c-1.431-3.268-2.144-6.842-2.962-10.312c-0.512-0.408,0.103-1.431-0.613-1.84c-0.204-1.939-0.814-3.982-1.02-5.925   c-0.612-0.51,0-1.428-0.511-1.939c-0.921-6.025-1.532-12.562-1.125-18.075c6.639-1.941,12.969-5.618,18.895-8.579   c0,0-0.101-0.101,0-0.101c0.101-0.309,0.203-0.105,0.305,0c0.513-0.713,1.737-0.204,1.941-1.226   c0.306,0.202,0.92-0.206,1.328-0.308c0.103-0.817,0.919-0.309,1.224-0.715c0.411-0.715,1.433-0.307,1.941-1.124   c1.43-0.51,3.063-1.123,4.185-2.144v0.104c0.41-0.204,0.92-0.309,0.82-0.817c-1.226,0.201-2.246,1.122-3.372,1.53   c-0.51,1.021-1.937,0.612-2.553,1.533c-2.143,0.918-4.39,1.734-6.432,3.061c0,0.717-0.614,0.308-1.021,0.514   c-5.616,2.553-11.133,5.821-17.363,7.046c0-5.516,0.614-11.643,2.247-16.953l-0.714-0.204c-0.511,0.102-1.33,0.409-1.533,1.124   c-1.429,5.207-1.94,10.518-2.042,15.932c-0.101,1.634-1.634,0.408-2.553,1.021c-0.102,1.836,1.735,0.814,2.553,1.227   c-0.206,8.17,1.226,16.439,2.656,24.102c0.511,1.02,0.612,2.241,0.817,3.368c1.244,3.841,2.244,7.806,3.453,11.694   c0.689,0.037,1.377,0.08,2.065,0.117c-0.196-0.5-0.355-0.999-0.31-1.496c0.511,0.61,1.531,0.307,2.245,0.61L68.892,168.554z" />
	<path d="M185.416,106.357c-0.614,1.125-0.818,2.556-2.043,3.371c-5.207,4.903-11.337,7.967-17.77,10.42   c0,0.713-0.613-0.105-0.815,0.303c-0.818,0.717-2.25,0.41-3.168,1.125h-0.103c-1.123,0.408-2.452,0.511-3.471,1.224   c-0.51-0.305-1.226,0-1.737,0.307c-3.268,0.512-6.537,1.636-9.804,2.044c-2.247,0.408-4.493,0.715-6.638,1.125l-0.103,0.305   c-1.635-0.615-2.962,0.511-4.595-0.103c-0.306,0-0.51-0.408-0.615-0.715c0.512-0.41-0.305-0.612-0.201-1.021   c0.409-0.511,0.816-0.719,1.531-0.409l0.102-0.204c0.204,0.305,0.717,0.103,0.919,0l0.308-0.408c-0.104,0.202,0,0.303,0.203,0.408   c1.735-0.206,3.884-0.307,5.411-0.919l0.205,0.204c8.479-1.43,15.728-3.167,23.592-6.026c1.021-0.919,2.758-0.817,3.881-1.938   c1.122-0.104,2.245-0.921,3.165-1.635c1.226,0,2.042-1.226,3.269-1.634c2.757-1.633,5.106-4.086,7.763-6.027   C184.905,106.257,185.313,106.05,185.416,106.357z" />
	<path d="M195.489,176.254c0.895-2.746,2.104-5.363,3.048-8.127c0.28-0.828,0.451-1.855,1.05-2.283l-0.085,0.515l4.13-11.07   c0.421-2.671,0.853-5.137,1.28-7.704l-0.104,0.002c1.118-9.439,2.155-18.259,2.349-27.871c0.189-3.58,0.034-8.277-0.696-11.83   c-0.425-0.499-0.939-0.581-1.446-0.463c-0.613,0.02-0.59,0.735-0.678,1.147c2.14,15.358-0.832,30.477-2.68,45.661   c-2.519,7.421-4.605,14.736-7.221,22.062C194.961,176.275,194.961,176.273,195.489,176.254z" />
	<path d="M182.454,154.752c0.102-0.204,0.204-0.204,0.407-0.204c0.205,0.614,0.819,1.43,1.431,1.842   c0.41-0.105,0.203-0.616,0.41-0.82c-0.207-3.572-1.941-6.636-2.656-10.107c-1.941-9.192-5.312-18.383-5.515-27.882   c-0.103-0.408-0.408-0.713-0.717-0.815c-0.61,0.305-1.328,0.305-1.837,0.919c0.614,3.981,1.023,7.455,1.735,11.231   c1.634,5.923,2.963,11.846,4.495,17.771c0.712,2.043,1.428,4.495,2.041,6.74c-0.406-0.305-0.815-0.103-1.329-0.204   c-0.407,0.102-0.918,0.306-0.918,0.816l0.306,5.006c0.411,3.879,0.309,7.965,1.224,11.539c0.312,0.715,0.718,1.736,1.739,1.428   c1.225-0.406,0.41-1.634,0.611-2.451l-0.409-1.836L182.454,154.752z" />
	<path d="M98.3,110.342c0,0.408-0.711,0.512-1.018,0.611c-2.044,1.228-3.984,2.452-6.229,3.167c-0.103,0.102,0,0.308-0.204,0.308   l-0.103-0.102c0.204-0.408,0.408-0.817,0.918-0.921c1.123,0.612,1.021-1.122,2.143-1.122c0.514,0.306,0.411-0.513,0.921-0.513   c1.43,0,2.249-1.222,3.471-1.633L98.3,110.342z" />
	<rect x="198.997" y="164.978" fill="#FFFFFF" width="0.104" height="0.104" />
	<path fill="none" stroke="#000000" stroke-width="1.0212" d="M180.796,162.153c4.227,3.405,10.732,3.566,15.733,4.555" />
	<path fill="none" stroke="#000000" stroke-width="2.184" stroke-linecap="round" d="M182.82,70.425   c16.201,8.697,19.073,21.36,22.943,38.207" />
	<path fill="none" stroke="#000000" stroke-width="2.184" stroke-linecap="round" d="M167.411,60.865   c4.777,1.913,9.069,4.356,12.828,7.17" />
	<path fill="none" stroke="#000000" stroke-width="2.184" stroke-linecap="round" d="M58.636,118.921   C61.754,96.772,77.321,78.73,98.609,67.74" />
	
		<line fill="none" stroke="#000000" stroke-width="2.184" stroke-linecap="round" x1="79.644" y1="156.588" x2="77.655" y2="170.113" />
	<polyline fill="none" stroke="#000000" stroke-width="3.5528" stroke-linecap="round" points="137.783,31.739 143.41,12.791    147.851,27.594 153.476,13.383 157.324,30.555  " />
</g>
</svg>
