<?xml version="1.0" encoding="UTF-8"?>
<!-- Generator: Adobe Illustrator 25.2.1, SVG Export Plug-In . SVG Version: 6.00 Build 0)  -->
<svg xmlns="http://www.w3.org/2000/svg" xmlns:xlink="http://www.w3.org/1999/xlink" version="1.1" id="Lager_1" x="0px" y="0px" width="426px" height="226.8px" viewBox="0 0 426 226.8" style="enable-background:new 0 0 426 226.8;" xml:space="preserve"><rect fill="#FFFFFF" x="0px" y="0px" width="426px" height="226.8px" />
<style type="text/css">
	.st0{fill:#FFFFFF;}
	.st1{fill:url(#SVGID_1_);}
	.st2{fill:none;stroke:#000000;stroke-width:2;stroke-linecap:round;}
	.st3{fill:none;stroke:#000000;stroke-width:2;}
	.st4{fill:none;stroke:#000000;}
	.st5{fill:none;stroke:#000000;stroke-width:1.5;stroke-linecap:round;stroke-linejoin:bevel;}
	.st6{fill:none;stroke:#000000;stroke-width:1.5;stroke-linecap:round;}
	.st7{fill:none;stroke:#000000;stroke-linecap:round;}
	.st8{fill:none;stroke:#000000;stroke-width:1.4;stroke-linecap:round;}
	.st9{fill:url(#SVGID_2_);}
	.st10{fill:url(#SVGID_3_);}
</style>
<rect class="st0" width="426" height="225.1" />
<g>
	
		<linearGradient id="SVGID_1_" gradientUnits="userSpaceOnUse" x1="155.92" y1="798.543" x2="165.5869" y2="775.2092" gradientTransform="matrix(1 0 0 1 0 -616)">
		<stop offset="0" style="stop-color:#FFFFFF" />
		<stop offset="1" style="stop-color:#EDEDED" />
	</linearGradient>
	<polygon class="st1" points="180.8,188.7 194.2,151.4 173.2,148.7 150.7,138.3 151.2,140 143.2,154 131.2,176  " />
	<line class="st2" x1="180" y1="190.7" x2="199" y2="137.3" />
	<path class="st2" d="M193.6,141.3c0,0,23-5.6,44.8-33.9" />
	<path class="st3" d="M237.1,109c0,0,10.4-16.3,28.5-22.5c9.2-3.1,6.2-8.1,6.2-8.1" />
	<path class="st2" d="M134,170.2c0,0,21.3-41.2,25.5-48s12.7-40.3,15-47.4s2.8-7.5,7.6-10" />
	<path class="st3" d="M218,81.2c0,0-2,7.1,1.6,8.9s5.9,1.7,11.3-2.7c5.4-4.4,8-6.5,8-6.5" />
	<g>
		<path d="M198,77.7c0.9,0.4,1.8,0.6,2.7,0.9c0.9,0.2,1.8,0.4,2.8,0.5c0.5,0.1,0.9,0.1,1.4,0.2c0.5,0,0.9,0.1,1.4,0.1s0.9,0,1.4,0    h1.4c0.5,0,0.9-0.1,1.4-0.1s0.9-0.1,1.4-0.1l1.4-0.2l1.4-0.3c0.9-0.1,1.8-0.4,2.7-0.7c0.4-0.1,0.9-0.3,1.3-0.4l1.3-0.4l0.3-0.1    l0.3,0.1c0.8,0.2,1.6,0.4,2.4,0.5c0.8,0.1,1.6,0.3,2.5,0.4c1.6,0.2,3.3,0.4,4.9,0.4c3.3,0.1,6.6-0.1,9.6-1.2l0.4-0.1l0.4,0.1    c1.1,0.4,2.4,0.7,3.6,1c1.2,0.3,2.4,0.6,3.6,0.8c2.4,0.4,4.9,0.8,7.3,0.6c1.2-0.1,2.4-0.3,3.4-0.8c0.5-0.3,1.1-0.6,1.6-0.9    s1-0.7,1.4-1.1c0.5-0.4,0.9-0.8,1.3-1.3s0.8-1,1.1-1.5c0.6-1.1,1.2-2.2,1.4-3.4c-0.2,2.5-1.4,5-3.2,6.9c-0.4,0.5-0.9,0.9-1.4,1.3    c-0.5,0.5-1,0.8-1.6,1.1c-1.2,0.7-2.5,1-3.8,1.2s-2.6,0.2-3.9,0.2c-1.3-0.1-2.6-0.2-3.9-0.4c-1.3-0.2-2.5-0.4-3.8-0.7    c-1.3-0.3-2.5-0.6-3.7-0.9h0.7c-1.7,0.6-3.5,1-5.2,1.2c-1.8,0.2-3.5,0.2-5.3,0.2c-1.7-0.1-3.5-0.3-5.2-0.5    c-0.9-0.1-1.7-0.3-2.6-0.5c-0.9-0.2-1.7-0.4-2.5-0.6h0.6l-1.4,0.4c-0.5,0.1-0.9,0.3-1.4,0.4c-1,0.2-1.9,0.4-2.9,0.5l-1.4,0.2    l-1.5,0.1c-0.5,0-1,0-1.5,0s-1,0-1.5,0l-1.5-0.1c-0.5,0-1-0.1-1.4-0.2c-0.5-0.1-1-0.2-1.4-0.3c-0.5-0.1-0.9-0.2-1.4-0.3    c-0.9-0.2-1.8-0.6-2.7-0.9C199.7,78.7,198.8,78.2,198,77.7z" />
	</g>
	<g>
		<path d="M204,78.2c0,0,0.1,0.5,0,1.3c-0.1,0.4-0.2,0.8-0.4,1.3c-0.2,0.4-0.4,0.9-0.7,1.3s-0.6,0.8-1,1.1c-0.4,0.3-0.7,0.6-1.1,0.8    c-0.3,0.2-0.6,0.3-0.8,0.4s-0.3,0.1-0.3,0.1s0.1-0.1,0.2-0.3s0.4-0.4,0.6-0.7c0.2-0.3,0.5-0.6,0.8-0.9s0.6-0.7,0.8-1.1    c0.3-0.4,0.5-0.8,0.8-1.1c0.2-0.4,0.4-0.7,0.6-1C203.8,78.7,204,78.2,204,78.2z" />
	</g>
	<g>
		<path d="M200.4,86c-0.1,3.6-0.1,7.1-0.2,10.6c-0.1,3.5-0.2,7.1-0.4,10.6l-0.5,10.6l-0.6,10.6l0,0l0,0c-0.1,0.5-0.2,0.9-0.4,1.3    c-0.1,0.4-0.3,0.8-0.5,1.2c-0.4,0.8-0.9,1.5-1.4,2.2c-1.1,1.4-2.4,2.5-3.8,3.4c-1.4,0.9-3,1.6-4.7,2.1c-0.8,0.2-1.6,0.4-2.5,0.6    c-0.8,0.2-1.7,0.2-2.5,0.3c0.8-0.1,1.7-0.3,2.5-0.5s1.6-0.4,2.4-0.7c1.6-0.6,3.1-1.3,4.4-2.2c1.4-0.9,2.6-2.1,3.6-3.4    c0.5-0.7,0.9-1.4,1.3-2.1c0.2-0.4,0.3-0.7,0.5-1.1c0.1-0.4,0.3-0.8,0.3-1.1l0,0l0.5-10.6l0.6-10.6c0.2-3.5,0.5-7.1,0.7-10.6    C199.8,93.1,200.1,89.6,200.4,86z" />
	</g>
	<path class="st4" d="M155.3,140.3c0,0,10.8,9.9,35,10.7" />
	<path class="st2" d="M192.9,61.4c0,0,24.7-2.1,29.3-2.4s7,0.8,11.2,1.7s20.5,4.8,20.5,4.8" />
	<line class="st2" x1="254.3" y1="66.5" x2="265.1" y2="70.9" />
	<path class="st2" d="M176.2,65.4c0,0,1.4-9.1,7.5-9.4" />
	<path class="st5" d="M181.5,54.1c0,0,2.5-5.6,7.3-5s40.9,2.8,40.9,2.8l38.5,12.2" />
	<path class="st2" d="M269.2,65.1l9.9,3.2c0,0,0.2,12.1-14.8,8.9" />
	<path class="st2" d="M234.5,49.7c3.2-0.7,42.2,14,42.2,14" />
	<path class="st6" d="M276.5,63.9l11.5,3.4c0,0-0.7,11.3-12,11.1" />
	<g>
		<path d="M223.9,96c0,0,0.2,0.1,0.5,0.3c0.3,0.2,0.7,0.6,1.2,1c0.5,0.5,0.9,1,1.4,1.6s0.9,1.3,1.4,2.1c0.4,0.7,0.8,1.5,1.2,2.2    s0.6,1.4,0.9,2c0.5,1.2,0.7,2,0.7,2s-0.5-0.7-1.2-1.8c-0.3-0.5-0.7-1.2-1.1-1.8c-0.4-0.7-0.8-1.4-1.3-2.1    c-0.4-0.7-0.9-1.4-1.3-2.1c-0.4-0.7-0.8-1.3-1.1-1.8C224.4,96.6,223.9,96,223.9,96z" />
	</g>
	<g>
		<path d="M241.4,83.2c0,0,0.5,0.4,1,1.1c0.6,0.7,1.3,1.7,1.9,2.7c0.6,1,1.2,2.1,1.5,2.9c0.4,0.8,0.5,1.4,0.5,1.4s-0.5-0.4-1-1.1    c-0.6-0.7-1.3-1.7-1.9-2.7c-0.6-1-1.2-2.1-1.5-2.9C241.6,83.8,241.4,83.2,241.4,83.2z" />
	</g>
	<g>
		<path d="M224.5,58.9c0,0,0.2,0.5,0.3,1.3c0.2,0.8,0.3,1.8,0.5,2.9c0.2,1,0.3,2.1,0.4,2.8c0.1,0.4,0.1,0.7,0.2,0.9    c0,0.2,0.1,0.4,0.1,0.4s-0.1-0.1-0.2-0.3c-0.2-0.2-0.3-0.5-0.5-0.8c-0.2-0.4-0.4-0.8-0.5-1.3c-0.2-0.5-0.3-1-0.4-1.6    c-0.2-1.1-0.1-2.2,0-3C224.3,59.4,224.5,58.9,224.5,58.9z" />
	</g>
	<path class="st7" d="M227.6,60.4c0,0-0.4,5.1-0.6,8.1" />
	<g>
		<path d="M254.1,67.8c0,0,0.3,0.8,0.9,2c0.6,1.2,1.5,2.7,2.8,3.7c0.3,0.3,0.7,0.5,1,0.7c0.4,0.2,0.7,0.3,1,0.3    c0.6,0,1.2-0.4,1.8-0.8c0.5-0.4,1-0.8,1.3-1s0.5-0.3,0.5-0.3s-0.1,0.2-0.4,0.5c-0.2,0.3-0.6,0.8-1,1.3c-0.2,0.3-0.5,0.5-0.8,0.8    s-0.8,0.5-1.3,0.5c-0.6,0-1-0.2-1.4-0.4c-0.4-0.2-0.8-0.5-1.2-0.8c-1.5-1.2-2.3-3-2.7-4.3C254.1,68.8,254.1,67.8,254.1,67.8z" />
	</g>
	<g>
		<path d="M266.4,66.5c0,0,0.7,0.6,1.6,1.5c0.5,0.4,1.1,1,1.7,1.5s1.3,1,2.1,1.4c0.4,0.2,0.7,0.3,1.1,0.3s0.6,0,1-0.2    c0.7-0.4,1.4-0.8,2-1.1c1.2-0.6,2.1-0.9,2.1-0.9s-0.7,0.6-1.7,1.4c-0.5,0.4-1.2,0.9-1.9,1.3c-0.4,0.3-1,0.5-1.5,0.4    c-0.5,0-1-0.2-1.5-0.4c-0.9-0.4-1.6-1-2.2-1.6s-1.1-1.2-1.5-1.8C266.8,67.4,266.4,66.5,266.4,66.5z" />
	</g>
	<path class="st7" d="M281.4,69.9c1.6,0.2,3-2.4,4.3-3.3" />
	<g>
		<path d="M193.6,81.4c0,0,0.5,0.2,1.3,0.4c0.7,0.3,1.7,0.6,2.7,1s2,0.8,2.7,1c0.4,0.2,0.7,0.3,0.9,0.4s0.3,0.2,0.3,0.2    s-0.6,0.1-1.4,0c-0.8-0.1-1.9-0.3-2.9-0.7c-1-0.4-2-0.9-2.6-1.4C193.9,81.9,193.6,81.4,193.6,81.4z" />
	</g>
	<path class="st8" d="M205,48.5c13.2-0.5,33.3,1.7,33.3,1.7" />
</g>
<linearGradient id="SVGID_2_" gradientUnits="userSpaceOnUse" x1="31.2721" y1="813.533" x2="41.0289" y2="789.982" gradientTransform="matrix(1 0 0 1 0 -616)">
	<stop offset="0" style="stop-color:#FFFFFF" />
	<stop offset="1" style="stop-color:#EDEDED" />
</linearGradient>
<polygon class="st9" points="58.9,202.8 69.5,167.1 51,162.2 28.5,151.8 30.3,149.7 19.4,166.6 4.5,190.2 " />
<path class="st7" d="M31.2,153c0,0,16.2,12.2,37.7,12.9" />
<path class="st2" d="M7.3,184.8c0,0,22.6-33.6,24.5-37.9s-8.5-47.6-9.4-52.4s2.3-6,3.6-8.8" />
<path class="st2" d="M26.1,85.7c0,0-2.7-10.3,6.2-14.8" />
<path class="st2" d="M32.3,72.1c0,0-1.3-10.8,8.7-12.6" />
<path class="st2" d="M43.7,59.2c0,0,34.1-11.6,40.7-12.7s9.8,4.3,12.7,10.7" />
<path class="st2" d="M47.4,62.4c0,0,14.2-5.5,27.1-5.3s12.7,1.1,14.1,6.5s0.9,4.7,0.9,4.7" />
<path class="st2" d="M42.4,68.9c0,0,12.9-4.6,25.8-4.4s12.7,1.1,14.1,6.5s3.6,18.7,3.6,18.7c0.1,0.8-1.3,4-4,5.1" />
<path class="st2" d="M41.5,77.2c0,0,19.2-1.9,24.7-1.8s6.9,3,10.6,9.5s4.1,13.6-0.2,15c-4.2,1.5-9.8,3.3-9.8,3.3" />
<path class="st2" d="M60.6,107.6c1.2-0.8,7.2-4.3,7.2-4.3" />
<path class="st2" d="M46.4,94.1c0,0,10.7,2.7,14.3-1.4" />
<path class="st2" d="M58.2,92.2c0,0,3.1,2.6,7.7,3.5" />
<path class="st2" d="M61.6,94.3c0,0-5,4.4-5.4,7.1c-0.4,3,1.3,5.4,2.9,6.5" />
<g>
	<path d="M54.3,99.9c0,0,0.4,0.8,1.1,2.2c0.7,1.4,1.7,3.4,2.8,5.8s2.5,5.2,3.8,8.3c1.4,3,2.9,6.3,4.3,9.5c0.7,1.6,1.5,3.2,2.2,4.8   c0.4,0.8,0.8,1.6,1.1,2.3c0.2,0.4,0.4,0.7,0.6,1.1c0.2,0.4,0.4,0.9,0.5,1.3c0.4,1.7,0.2,3.4,0,4.9c-0.3,1.5-0.7,2.9-1.2,4.2   c-1.1,2.5-2.5,4.3-3.6,5.4c-0.6,0.5-1.1,0.9-1.4,1.1c-0.4,0.2-0.5,0.3-0.5,0.3s0.2-0.1,0.5-0.4c0.3-0.3,0.8-0.7,1.3-1.2   c1.1-1.1,2.4-3,3.3-5.5c0.5-1.2,0.8-2.6,1-4.1s0.3-3.1-0.1-4.6c-0.1-0.4-0.2-0.7-0.4-1.1c-0.2-0.4-0.4-0.7-0.6-1.1   c-0.4-0.8-0.8-1.6-1.2-2.3c-0.8-1.6-1.5-3.2-2.3-4.8c-1.5-3.2-2.9-6.5-4.3-9.6c-1.4-3.1-2.5-5.9-3.6-8.4c-1-2.5-1.8-4.5-2.4-6   C54.6,100.7,54.3,99.9,54.3,99.9z" />
</g>
<path class="st7" d="M68.8,129.2c0,0,0.3,13.2-5.4,19" />
<path class="st7" d="M58.2,105.4" />
<line class="st2" x1="103.5" y1="65.7" x2="96.9" y2="59.7" />
<path class="st2" d="M97.4,60c0,0-9.5,0.1-7.6,13.2c1.7,11.4,5.5,10.9,5.5,10.9" />
<path class="st2" d="M93.9,81.8c0,0-0.6,5.9-6.3,12.8" />
<path class="st2" d="M104.1,64.8c0,0,5.3,4.1,6.9,5.6c1.2,1.2-0.2,11.5-2.1,14.7s-7.9,11.8-7.4,23.5S80.2,138.7,76.1,144l-15,53.9" />
<path class="st7" d="M98.9,61.6c0,0,1.2,5.4,0.4,10.3c-0.5,3.2,0.6,4.3,2.1,4.5s3-4.8,1.3-11.3" />
<g>
	<path d="M52.7,95.3c0,0,0.4,0.6,0.8,1.7c0.2,0.5,0.4,1.2,0.5,1.9c0.1,0.7,0.2,1.5,0.2,2.2c0,0.4,0,0.8-0.1,1.2   c0,0.2-0.1,0.4-0.1,0.6c-0.1,0.2-0.1,0.4-0.2,0.5c-0.1,0.4-0.4,0.7-0.5,0.9c-0.2,0.3-0.5,0.5-0.7,0.7c-0.3,0.2-0.5,0.3-0.7,0.4   s-0.4,0.1-0.6,0.1c-0.3,0-0.5,0.1-0.5,0.1s0.2-0.1,0.5-0.2c0.1-0.1,0.3-0.1,0.5-0.3c0.2-0.1,0.4-0.3,0.5-0.5s0.3-0.4,0.5-0.7   c0.1-0.3,0.3-0.5,0.3-0.8c0-0.2,0.1-0.3,0.1-0.5s0-0.3,0.1-0.5c0.1-0.3,0.1-0.7,0.1-1s0-0.7,0-1.1c0-0.3,0-0.7-0.1-1   c-0.1-0.7-0.1-1.3-0.2-1.9C52.8,96,52.7,95.3,52.7,95.3z" />
</g>
<g id="Färg_4_">
	
		<linearGradient id="SVGID_3_" gradientUnits="userSpaceOnUse" x1="289.8303" y1="-568.1995" x2="296.7102" y2="-557.984" gradientTransform="matrix(1 0 0 -1 0 -387.89)">
		<stop offset="0" style="stop-color:#FFFFFF" />
		<stop offset="1" style="stop-color:#EDEDED" />
	</linearGradient>
	<polygon class="st10" points="309.4,196.1 325.2,174.1 330.1,168.5 321.1,165.4 305.9,156.8 297.1,147.6 292.4,142.4 265.4,168.6     " />
</g>
<path class="st2" d="M274.2,162.9l32.8-36.8c0,0,21.3-37.4,25.8-43.5s21.6-29.5,23.1-30.7s26.4-0.6,28-0.6c1.5,0,12.2,6.1,13.7,6.1" />
<path class="st2" d="M338.6,82l17-12.2c1.2-0.8,3.3-1.5,4.7-1.5l15.8,0.2c1.4,0,3.5,0.7,4.7,1.6l2.5,1.8" />
<line class="st2" x1="382.6" y1="71.5" x2="392" y2="74.4" />
<g>
	<path d="M347.4,90c1.3-0.5,2.4-1.2,3.6-2c0.3-0.2,0.6-0.4,0.8-0.6s0.5-0.4,0.8-0.6c0.5-0.4,1-0.9,1.5-1.3c0.3-0.2,0.5-0.5,0.7-0.7   s0.5-0.5,0.7-0.7c0.5-0.5,0.9-1,1.3-1.5s0.8-1.1,1.2-1.6c0.2-0.3,0.4-0.6,0.5-0.8l0.5-0.8l0.5-0.7l0.8,0.4c0.2,0.1,0.5,0.2,0.7,0.3   c0.3,0.1,0.5,0.2,0.8,0.3c0.5,0.2,1.1,0.3,1.6,0.4c1.1,0.2,2.2,0.2,3.3,0c2.2-0.3,4.3-1.3,6.2-2.6l0.6-0.4l0.6,0.4   c0.3,0.2,0.7,0.5,1.1,0.7s0.8,0.4,1.2,0.6c0.8,0.4,1.7,0.7,2.5,1c0.9,0.3,1.7,0.5,2.6,0.6c0.4,0.1,0.9,0.1,1.3,0.1s0.9,0,1.3-0.1   s0.9-0.1,1.3-0.2s0.9-0.3,1.3-0.4c0.4-0.2,0.8-0.4,1.2-0.6c0.4-0.2,0.8-0.5,1.2-0.7c0.7-0.5,1.4-1.2,2.1-1.9   c0.3-0.3,0.6-0.7,0.9-1.1l0.9-1.1l-0.6,1.3c-0.2,0.4-0.5,0.8-0.8,1.2c-0.5,0.8-1.2,1.5-1.9,2.2c-0.4,0.3-0.7,0.7-1.1,0.9   c-0.4,0.3-0.8,0.5-1.3,0.8c-0.4,0.2-0.9,0.4-1.4,0.6s-1,0.3-1.5,0.4c-2,0.4-4.1,0.3-6-0.3c-1-0.3-1.9-0.6-2.8-1   c-0.5-0.2-0.9-0.4-1.3-0.7c-0.4-0.2-0.9-0.5-1.3-0.8h1.1c-1,0.8-2.1,1.4-3.3,1.9c-1.2,0.5-2.5,0.9-3.8,1c-1.3,0.2-2.6,0.1-3.9-0.1   c-0.6-0.1-1.3-0.3-1.9-0.5c-0.3-0.1-0.6-0.2-0.9-0.4c-0.3-0.1-0.6-0.3-0.9-0.5l1.2-0.3c-0.4,0.6-0.8,1.2-1.2,1.7   c-0.5,0.5-0.9,1.1-1.4,1.6s-1,1-1.5,1.5c-0.3,0.2-0.5,0.5-0.8,0.7s-0.5,0.5-0.8,0.7c-0.6,0.4-1.1,0.8-1.7,1.2   c-0.3,0.2-0.6,0.4-0.9,0.5c-0.3,0.2-0.6,0.3-0.9,0.5c-0.6,0.3-1.3,0.6-1.9,0.8C348.8,89.6,348.1,89.8,347.4,90z" />
</g>
<g>
	<path class="st2" d="M366.6,48.3l4.4-3.2c1.3-0.9,3.5-1.4,5.1-1.1l23.3,4.4c1.5,0.3,3.4,1.6,4.2,3l4.9,8.2" />
</g>
<line class="st2" x1="396.8" y1="58.4" x2="407.3" y2="61.9" />
<line class="st2" x1="406.9" y1="56.9" x2="416.7" y2="65" />
<g>
	<path d="M370.6,64.5c0.6,0.5,1.4,0.7,2.1,0.9c0.7,0.2,1.4,0.4,2.2,0.5c0.4,0.1,0.7,0.1,1.1,0.1s0.7,0.1,1.1,0.1s0.7,0,1.1,0h1.1   c0.4,0,0.7,0,1.1-0.1l1.1-0.1c0.7-0.1,1.5-0.1,2.2-0.2s1.5-0.2,2.2-0.3l2.2-0.4l0.3-0.1l0.3,0.2c0.4,0.2,0.8,0.4,1.2,0.5   c0.4,0.2,0.8,0.3,1.2,0.5c0.8,0.3,1.7,0.5,2.6,0.7s1.7,0.3,2.6,0.4s1.8,0.1,2.6,0c1.7-0.2,3.5-0.7,4.9-1.7c0.4-0.2,0.7-0.5,1.1-0.8   c0.3-0.3,0.7-0.6,1-0.9c0.3-0.3,0.6-0.7,0.9-1s0.6-0.7,0.8-1.1c-0.2,0.4-0.4,0.9-0.6,1.3c-0.2,0.4-0.5,0.8-0.7,1.2   c-0.3,0.4-0.6,0.8-0.9,1.1c-0.3,0.3-0.7,0.7-1,1c-0.4,0.3-0.8,0.6-1.2,0.9c-0.4,0.2-0.8,0.5-1.3,0.7c-0.4,0.2-0.9,0.4-1.4,0.5   s-1,0.3-1.4,0.3c-0.5,0.1-1,0.2-1.5,0.2s-1,0-1.5,0c-1,0-1.9-0.1-2.9-0.3c-1-0.2-1.9-0.4-2.8-0.7c-0.5-0.2-0.9-0.3-1.4-0.5   s-0.9-0.4-1.4-0.6l0.6,0.1l-2.3,0.3c-0.4,0.1-0.8,0.1-1.2,0.1l-1.2,0.1c-0.8,0.1-1.6,0.1-2.3,0.1c-0.8,0-1.6,0-2.4-0.1   s-1.6-0.1-2.3-0.3c-0.4-0.1-0.8-0.1-1.2-0.2c-0.4-0.1-0.8-0.2-1.1-0.3c-0.8-0.2-1.5-0.5-2.2-0.9C371.7,65.6,371.1,65.1,370.6,64.5z   " />
</g>
<g>
	<path d="M374.1,65.1c0,0,0,0.3-0.2,0.7c-0.2,0.4-0.5,0.9-1,1.2c-0.4,0.4-0.9,0.6-1.4,0.7c-0.4,0.1-0.7,0.1-0.7,0.1s0.2-0.3,0.4-0.6   c0.3-0.3,0.6-0.7,1-1s0.8-0.6,1.2-0.8C373.8,65.2,374.1,65.1,374.1,65.1z" />
</g>
<g>
	<path d="M402.6,68.8c0,0,1,0.1,2.5,0.1c0.4,0,0.7,0,1.2,0c0.4,0,0.8,0,1.3,0c0.4,0,0.9-0.1,1.3-0.1c0.4-0.1,0.9-0.1,1.3-0.2   s0.9-0.2,1.3-0.3c0.2-0.1,0.4-0.1,0.6-0.2s0.4-0.1,0.6-0.2c0.4-0.1,0.8-0.3,1.1-0.5c0.2-0.1,0.4-0.2,0.5-0.2   c0.2-0.1,0.3-0.2,0.5-0.3c0.3-0.2,0.6-0.3,0.9-0.5c0.2-0.2,0.5-0.3,0.6-0.4c0.4-0.2,0.6-0.4,0.6-0.4s-0.1,0.2-0.3,0.6   c-0.1,0.2-0.2,0.4-0.4,0.7c-0.2,0.3-0.4,0.5-0.7,0.8c-0.1,0.1-0.3,0.3-0.4,0.5c-0.2,0.1-0.3,0.3-0.5,0.4c-0.4,0.3-0.7,0.6-1.2,0.8   c-0.4,0.2-0.9,0.5-1.4,0.6c-0.5,0.2-1,0.3-1.5,0.4s-1.1,0.1-1.6,0.2c-0.5,0-1,0-1.5-0.1c-1-0.1-1.8-0.4-2.6-0.6   C403.4,69.5,402.6,68.8,402.6,68.8z" />
</g>
<g>
	<path d="M375.8,82.1c0,0,0.1,0.1,0.2,0.3c0.1,0.2,0.2,0.5,0.2,0.9s0,0.8-0.1,1.2c-0.1,0.4-0.3,0.9-0.5,1.3s-0.4,0.8-0.7,1.2   c-0.2,0.4-0.5,0.7-0.8,0.9c-0.5,0.5-0.9,0.8-0.9,0.8s0.1-0.5,0.4-1.1s0.7-1.4,1-2.2c0.2-0.4,0.4-0.8,0.5-1.2c0.2-0.4,0.3-0.7,0.4-1   C375.8,82.5,375.8,82.1,375.8,82.1z" />
</g>
<path class="st2" d="M373,83.5c0,0,3,26.2,3.6,31s7.6,7.6,9.4,7.9s9.9,0.4,9.9,0.4s20.1-12.6,26,0.5" />
<path class="st2" d="M310.9,194.2L338,158c0,0,26.1-2.7,36.6-10.4c12.8-9.3,12.8-6.6,22.6-7.1c4.7-0.2,10.9-0.1,14.9-5.9  s3.3-5.2,3.3-5.2" />
<line class="st2" x1="421.9" y1="123.3" x2="413.1" y2="130" />
<g>
	<path d="M359,85.9c0,0.9,0,1.9-0.2,2.8c-0.1,0.9-0.3,1.9-0.6,2.8c-0.1,0.5-0.3,0.9-0.4,1.4l-0.5,1.3l-0.6,1.3   c-0.2,0.4-0.5,0.8-0.7,1.3c-0.2,0.4-0.5,0.8-0.8,1.2c-0.3,0.4-0.5,0.8-0.8,1.2l-0.9,1.1c-0.3,0.4-0.7,0.7-1,1   c-0.4,0.3-0.7,0.7-1.1,1l-1.1,0.9c-0.4,0.3-0.8,0.6-1.2,0.8l-1.2,0.8l0.4-0.7c0,2.2-0.1,4.4-0.3,6.5c-0.2,2.2-0.4,4.3-0.7,6.5   c-0.1,1.1-0.3,2.2-0.5,3.2c-0.2,1.1-0.4,2.1-0.6,3.2c-0.4,2.1-1,4.3-1.6,6.3c-0.3,1-0.7,2.1-1,3.1c-0.4,1-0.8,2.1-1.2,3.1   c-0.4,1-0.9,2-1.4,3l-0.8,1.4l-0.9,1.4c-0.6,0.9-1.2,1.8-1.9,2.7c-0.3,0.4-0.7,0.8-1.1,1.2s-0.8,0.8-1.2,1.1   c-0.8,0.7-1.7,1.4-2.6,2c-0.5,0.3-0.9,0.5-1.4,0.8l-1.5,0.6l1.4-0.8c0.4-0.3,0.9-0.6,1.3-0.9c0.8-0.7,1.6-1.4,2.4-2.2   c0.4-0.4,0.7-0.8,1-1.2s0.7-0.8,0.9-1.3c0.6-0.9,1.2-1.8,1.7-2.7l0.7-1.4l0.7-1.4c0.4-1,0.9-1.9,1.2-2.9c0.7-2,1.4-4,1.9-6.1   c0.3-1,0.5-2.1,0.8-3.1c0.2-1,0.5-2.1,0.7-3.1c0.4-2.1,0.8-4.2,1.1-6.3c0.3-2.1,0.6-4.2,0.8-6.4c0.2-2.1,0.4-4.3,0.5-6.4v-0.5   l0.4-0.3l1.2-0.7c0.4-0.2,0.8-0.4,1.2-0.7l1.1-0.8c0.4-0.2,0.7-0.6,1-0.9s0.7-0.6,1-0.9l0.9-1c0.3-0.3,0.6-0.7,0.9-1.1   s0.6-0.7,0.8-1.1c0.2-0.4,0.5-0.8,0.7-1.2l0.7-1.2l0.6-1.2c0.2-0.4,0.4-0.9,0.5-1.3c0.3-0.9,0.6-1.8,0.8-2.7   C358.7,87.8,358.9,86.9,359,85.9z" />
</g>
<g>
	<path d="M396,122.1c0,0,0,0.7,0.1,1.6c0,0.5,0.1,1,0.2,1.6s0.2,1.2,0.3,1.8c0.1,0.3,0.1,0.6,0.2,0.9s0.2,0.6,0.3,0.9   c0.2,0.6,0.4,1.1,0.6,1.5c0.1,0.2,0.2,0.4,0.3,0.6c0.1,0.2,0.2,0.3,0.2,0.4c0.1,0.3,0.2,0.4,0.2,0.4s-0.1-0.1-0.4-0.3   c-0.2-0.2-0.5-0.5-0.9-0.9c-0.2-0.2-0.3-0.4-0.5-0.7c-0.2-0.2-0.3-0.5-0.5-0.8c-0.3-0.6-0.5-1.2-0.7-1.9c-0.1-0.7-0.2-1.3-0.2-2   c0-0.6,0-1.2,0.1-1.7C395.7,122.8,396,122.1,396,122.1z" />
</g>
<path class="st4" d="M294.3,143.5c0,0,5.6,12.2,31.6,24.3" />
<g>
	<path d="M389,77.1c0,0-0.5,0.1-1.3,0.1c-0.4,0-0.9-0.1-1.3-0.2c-0.5-0.1-1-0.3-1.5-0.6c-0.2-0.1-0.5-0.3-0.7-0.4   c-0.2-0.2-0.4-0.3-0.6-0.5c-0.3-0.4-0.6-0.8-0.7-1.2c-0.1-0.2-0.1-0.4-0.1-0.6s0-0.3,0-0.4c0-0.2,0.1-0.4,0.1-0.4s0,0.1,0.1,0.3   c0.1,0.2,0.2,0.5,0.4,0.8c0.2,0.3,0.5,0.6,0.8,0.8c0.2,0.1,0.4,0.3,0.5,0.4c0.2,0.1,0.4,0.2,0.6,0.4c0.4,0.2,0.9,0.4,1.3,0.6   s0.8,0.3,1.2,0.5C388.5,76.9,389,77.1,389,77.1z" />
</g>
<g>
	<path d="M396.1,59.3c0,0,0.1,0.2,0.2,0.5s0.3,0.7,0.7,1.1c0.3,0.4,0.8,0.8,1.3,1.3c0.5,0.4,1.1,0.8,1.8,1.2c0.3,0.2,0.6,0.4,1,0.5   c0.3,0.2,0.6,0.3,0.9,0.5c0.3,0.1,0.6,0.3,0.9,0.4c0.1,0,0.4,0,0.6-0.1c0.5-0.2,0.8-0.6,1.1-0.8c0.2-0.2,0.4-0.4,0.4-0.4   s-0.1,0.2-0.2,0.5c-0.2,0.3-0.4,0.7-0.9,1.1c-0.3,0.2-0.5,0.4-1.1,0.4c-0.4-0.1-0.7-0.2-1.1-0.3c-0.7-0.2-1.4-0.6-2.1-1   c-1.3-0.8-2.6-1.9-3.1-3c-0.2-0.3-0.2-0.5-0.3-0.8c-0.1-0.2-0.1-0.5-0.1-0.6C396.1,59.4,396.1,59.3,396.1,59.3z" />
</g>
<g>
	<path d="M410.9,67.6c0,0-0.4,0-0.9-0.2s-1.1-0.6-1.7-1.1c-0.5-0.5-0.9-1.1-1.1-1.6s-0.3-0.9-0.3-0.9s0.3,0.2,0.7,0.5   c0.4,0.3,0.9,0.8,1.4,1.2c0.5,0.5,0.9,0.9,1.3,1.3C410.7,67.4,410.9,67.6,410.9,67.6z" />
</g>
</svg>
