<?xml version="1.0" encoding="UTF-8"?>
<!-- Generator: Adobe Illustrator 18.1.1, SVG Export Plug-In . SVG Version: 6.00 Build 0)  -->
<svg xmlns="http://www.w3.org/2000/svg" xmlns:xlink="http://www.w3.org/1999/xlink" version="1.1" id="Lager_1" x="0px" y="0px" width="226.77px" height="226.77px" viewBox="0 0 226.77 226.77" enable-background="new 0 0 226.77 226.77" xml:space="preserve"><rect fill="#FFFFFF" x="0px" y="0px" width="226.77px" height="226.77px" />
<g>
	
		<linearGradient id="SVGID_1_" gradientUnits="userSpaceOnUse" x1="17.7864" y1="86.9081" x2="28.1031" y2="62.0058" gradientTransform="matrix(0.8262 0.5634 -0.5634 0.8262 76.7712 91.1246)">
		<stop offset="0" style="stop-color:#FFFFFF" />
		<stop offset="1" style="stop-color:#EDEDED" />
	</linearGradient>
	<polygon fill="url(#SVGID_1_)" points="55.102,198.947 88.102,161.613 77.239,146.925 66.109,124.364 65.53,126.057    51.032,133.117 27.768,150.28  " />
	<path fill="none" stroke="#000000" stroke-width="2" stroke-linecap="round" d="M37.268,142.28l37.791-24.555   c0,0,12.236-26.415,26.901-41.696c0,0,12.986-23.968,15.062-33.211" />
	<path fill="none" stroke="#000000" stroke-width="2" d="M115.571,46.416l0.712-12.919c0,0,4.991-3.336,9.446,2.457   s3.224,16.921,1.299,22.004c-1.925,5.084-5.808,11.902-5.311,15.666" />
	<path fill="none" stroke="#000000" stroke-width="2" stroke-linecap="round" d="M111.98,74.782c0,0,36.255-9.059,39.717-9.707   c3.462-0.648,34.837-5.397,38.727-4.963c3.89,0.435,9.04,0.335,8.845,7.667c-0.135,5.095-4.104,6.345-12.127,7.214   c-8.023,0.869-31.82,5.655-31.82,5.655" />
	<polyline fill="none" stroke="#000000" stroke-width="2" stroke-linecap="round" points="161.255,79.848 129.584,90.727    127.102,92.78  " />
	<path fill="none" stroke="#000000" stroke-width="2" stroke-linecap="round" d="M155.916,84.674c0,0,6.644,0.224,6.352,5.773   c-0.292,5.549-1.776,6.447-5.151,8.2c-3.375,1.753-17.349,9.467-17.349,9.467l-2.167,2.333" />
	<path fill="none" stroke="#000000" stroke-width="2" stroke-linecap="round" d="M157.97,100.815c0,0,5.442,0.657,5.088,6.968   c-0.354,6.311-3.615,7.908-8.793,10.823c-5.178,2.915-13.663,9.341-13.663,9.341" />
	<path fill="none" stroke="#000000" stroke-width="2" stroke-linecap="round" d="M157.642,120.363c0,0,4.317,3.948,1.984,7.948   c-2.333,4-19.506,14.713-19.506,14.713" />
	<path fill="none" stroke="#000000" stroke-width="2" stroke-linecap="round" d="M145.768,139.36c0,0-26.977,16.837-55.158,18.781" />
	<line fill="none" stroke="#000000" stroke-width="2" stroke-linecap="round" x1="95.296" y1="155.82" x2="60.268" y2="194.28" />
	<path fill="none" stroke="#000000" d="M69.062,125.143c0,0,1.557,17.279,18.257,35.083" />
	<g>
		<path d="M117.002,44.421c0,0,0.141-0.624,0.406-1.511c0.258-0.891,0.636-2.052,0.951-3.207c0.325-1.151,0.572-2.311,0.495-3.156    c-0.035-0.422-0.159-0.76-0.302-0.979c-0.136-0.224-0.257-0.338-0.257-0.338c-0.007,0.01,0.159,0.034,0.399,0.199    c0.243,0.157,0.548,0.497,0.718,0.984c0.368,0.978,0.249,2.336-0.09,3.556c-0.344,1.231-0.896,2.371-1.392,3.174    C117.44,43.95,117.002,44.421,117.002,44.421z" />
	</g>
	<g>
		<path d="M150.904,68.54c0,0-0.004,0.784,0.033,1.923c0.019,0.57,0.054,1.23,0.109,1.931c0.065,0.7,0.135,1.443,0.27,2.174    c0.063,0.366,0.112,0.735,0.207,1.087c0.084,0.355,0.148,0.71,0.257,1.041c0.092,0.336,0.18,0.662,0.294,0.961    c0.107,0.302,0.191,0.598,0.309,0.853c0.106,0.264,0.202,0.506,0.288,0.721c0.102,0.209,0.19,0.392,0.263,0.542    c0.139,0.312,0.219,0.491,0.219,0.491s-0.142-0.131-0.382-0.377c-0.251-0.239-0.575-0.61-0.896-1.109    c-0.181-0.239-0.331-0.522-0.486-0.826c-0.168-0.299-0.32-0.625-0.443-0.976c-0.29-0.689-0.471-1.466-0.615-2.244    c-0.122-0.783-0.181-1.572-0.162-2.311c0.016-0.738,0.089-1.422,0.199-2C150.571,69.26,150.904,68.54,150.904,68.54z" />
	</g>
	<path fill="none" stroke="#000000" stroke-width="0.75" stroke-linecap="round" d="M151.931,69.642c0,0,1.18,5.233,1.601,8.288" />
	<g>
		<path d="M194.66,62.76c-0.01,0.002,0.064-0.089,0.031-0.241c-0.046-0.156-0.316-0.181-0.611-0.166    c-0.613,0.034-1.478,0.278-2.487,0.615c-0.994,0.351-2.2,0.787-3.261,1.456c-0.267,0.174-0.456,0.345-0.527,0.546    c-0.099,0.221-0.127,0.521-0.125,0.832c0.008,0.631,0.156,1.319,0.325,2c0.175,0.699,0.35,1.397,0.523,2.085l0.112,0.537    c0.019,0.111,0.075,0.343,0.113,0.465c0.065,0.218,0.219,0.449,0.407,0.616c0.399,0.336,1,0.511,1.577,0.618    c0.584,0.1,1.157,0.154,1.689,0.198c2.154,0.126,3.591,0.21,3.591,0.21s-0.357,0.063-0.984,0.144    c-0.629,0.064-1.524,0.203-2.617,0.241c-0.547,0.026-1.143,0.027-1.786-0.031c-0.635-0.064-1.363-0.18-2.038-0.682    c-0.326-0.264-0.598-0.601-0.753-1.045c-0.071-0.206-0.095-0.316-0.146-0.548l-0.112-0.497c-0.163-0.672-0.377-1.361-0.542-2.075    c-0.163-0.716-0.319-1.447-0.319-2.236c0.005-0.392,0.057-0.811,0.255-1.221c0.21-0.448,0.594-0.715,0.895-0.891    c0.632-0.373,1.263-0.589,1.861-0.796c0.598-0.202,1.176-0.346,1.711-0.464c1.071-0.232,1.99-0.315,2.64-0.264    c0.309,0.026,0.627,0.123,0.658,0.344C194.742,62.698,194.649,62.756,194.66,62.76z" />
	</g>
	<g>
		<path d="M195.58,62.688c0,0,0.446,0.386,0.895,1.124c0.465,0.728,0.909,1.804,1.142,2.933c0.061,0.281,0.087,0.569,0.131,0.848    c0.045,0.28,0.036,0.561,0.055,0.829c0.018,0.268-0.009,0.531-0.018,0.776c-0.003,0.246-0.045,0.478-0.076,0.691    c-0.052,0.426-0.155,0.774-0.228,1.014c-0.074,0.241-0.125,0.375-0.125,0.375s-0.033-0.144-0.073-0.389    c-0.039-0.246-0.082-0.593-0.148-1.003c-0.117-0.821-0.274-1.889-0.498-2.943c-0.098-0.53-0.223-1.054-0.341-1.548    c-0.119-0.494-0.24-0.955-0.346-1.355C195.728,63.23,195.58,62.688,195.58,62.688z" />
	</g>
	<path fill="none" stroke="#000000" stroke-width="0.5" stroke-linecap="round" d="M176.918,65.641c0,0-0.087,2.765,0.882,6.994" />
	<path fill="none" stroke="#000000" stroke-width="0.75" stroke-linecap="round" d="M136.241,100.439c0,0-1.691,5.867-11.316,5.544" />
	<path fill="none" stroke="#000000" stroke-width="0.75" stroke-linecap="round" d="M142.066,118.927c0,0-0.58,6.178-9.321,6.761" />
</g>
</svg>
