<?xml version="1.0" encoding="UTF-8"?>
<!-- Generator: Adobe Illustrator 18.1.1, SVG Export Plug-In . SVG Version: 6.00 Build 0)  -->
<svg xmlns="http://www.w3.org/2000/svg" xmlns:xlink="http://www.w3.org/1999/xlink" version="1.1" id="Lager_1" x="0px" y="0px" width="226.77px" height="226.77px" viewBox="0 0 226.77 226.77" enable-background="new 0 0 226.77 226.77" xml:space="preserve"><rect fill="#FFFFFF" x="0px" y="0px" width="226.77px" height="226.77px" />
<g>
	<g id="Färg_7_">
		
			<linearGradient id="SVGID_1_" gradientUnits="userSpaceOnUse" x1="80.651" y1="21.2475" x2="88.6256" y2="33.0885" gradientTransform="matrix(1 0 0 -1 0 226.11)">
			<stop offset="0" style="stop-color:#FFFFFF" />
			<stop offset="1" style="stop-color:#EDEDED" />
		</linearGradient>
		<polygon fill="url(#SVGID_1_)" points="95.889,215.653 115.139,196.403 123.142,187.511 114.057,187.426 97.473,182.563     88.22,175.081 83.374,168.433 56.889,194.403   " />
	</g>
	<path fill="none" stroke="#000000" stroke-width="2" stroke-linecap="round" d="M65.181,186.633c0,0,25.296-24.838,26.16-26.946   s11.797-63.846,12.249-67.012" />
	<path fill="none" stroke="#000000" stroke-width="2" stroke-linecap="round" d="M107.871,204.419   c1.057-1.152,28.383-30.824,28.383-30.824s5.998-0.63,14.246-16.411s9.632-15.948,8.829-19.95   c-0.749-3.737-5.911-27.669-6.554-29.64c-0.643-1.971-1.874-3.646-4.731-3.629c-3.066,0.018-11.525,0.044-11.525,0.044" />
	<g>
		<path d="M128.669,98.249c0,0-0.213,0.513-0.513,1.427c-0.301,0.912-0.706,2.22-1.025,3.807c-0.309,1.582-0.572,3.452-0.418,5.396    c0.113,1.942,0.704,3.932,1.82,5.585c0.561,0.825,1.244,1.567,2.008,2.209c0.367,0.332,0.795,0.615,1.181,0.896    c0.441,0.292,0.878,0.581,1.307,0.865c0.827,0.544,1.663,1.036,2.464,1.496c0.799,0.46,1.577,0.853,2.303,1.201    c0.722,0.365,1.413,0.62,2.023,0.869c0.615,0.229,1.165,0.405,1.624,0.53c0.919,0.253,1.478,0.298,1.478,0.298    s-0.546,0.163-1.537,0.153c-0.991,0.012-2.409-0.173-4.041-0.65c-0.822-0.225-1.675-0.566-2.576-0.934    c-0.892-0.381-1.798-0.859-2.742-1.374c-0.459-0.253-0.891-0.54-1.346-0.817c-0.481-0.328-0.956-0.635-1.402-1.018    c-0.919-0.72-1.729-1.63-2.38-2.639c-0.65-1.008-1.162-2.114-1.449-3.252c-0.296-1.135-0.418-2.277-0.423-3.368    c0.025-2.189,0.516-4.144,1.079-5.735c0.569-1.594,1.227-2.832,1.721-3.671C128.33,98.689,128.669,98.249,128.669,98.249z" />
	</g>
	<line fill="none" stroke="#000000" stroke-width="2" stroke-linecap="round" x1="127.4" y1="101.535" x2="137.467" y2="104.905" />
	<path fill="none" stroke="#000000" stroke-width="2" stroke-linecap="round" d="M140.039,122.647c0,0-1.119,4.261,3.185,9.556" />
	<path fill="none" stroke="#000000" stroke-width="2" stroke-linecap="round" d="M131.473,127.597c0,0,3.099-3.185,7.576-3.056" />
	<g>
		<path d="M128.072,103.147c0,0,0.065,0.02,0.187,0.098c0.118,0.076,0.291,0.182,0.494,0.342c0.404,0.319,0.988,0.775,1.606,1.418    c0.62,0.638,1.301,1.445,1.82,2.495c0.121,0.268,0.236,0.548,0.317,0.854c0.081,0.256,0.151,0.562,0.235,0.771    c0.168,0.477,0.443,0.895,0.817,1.162c0.369,0.278,0.859,0.431,1.384,0.5c0.514,0.061,1.099,0.102,1.584,0.086    c0.307-0.011,0.439-0.043,0.647-0.115c0.192-0.064,0.34-0.173,0.455-0.314c0.226-0.286,0.308-0.713,0.303-1.115    c-0.02-0.813-0.221-1.529-0.376-2.007c-0.161-0.485-0.254-0.763-0.254-0.763s0.178,0.235,0.432,0.685    c0.127,0.225,0.272,0.505,0.415,0.841c0.15,0.333,0.284,0.732,0.355,1.198c0.066,0.457,0.08,1.037-0.265,1.589    c-0.323,0.566-1.079,0.836-1.64,0.877c-0.604,0.046-1.153,0.064-1.779-0.006c-0.607-0.069-1.281-0.238-1.856-0.654    c-0.571-0.429-0.936-1.045-1.135-1.651c-0.12-0.329-0.156-0.584-0.226-0.87c-0.048-0.242-0.13-0.482-0.219-0.719    c-0.389-0.942-0.949-1.783-1.452-2.478c-0.512-0.692-0.96-1.268-1.301-1.645C128.287,103.343,128.087,103.137,128.072,103.147z" />
	</g>
	<g>
		<path d="M124.684,114.29c0,0,0.04,0.822,0.11,2.259c0.064,1.437,0.215,3.487,0.406,5.941c0.19,2.454,0.51,5.309,1.001,8.331    c0.232,1.514,0.567,3.057,0.974,4.598c0.447,1.507,1.045,3.061,1.519,4.659c0.464,1.597,0.803,3.24,1.003,4.877    c0.222,1.637,0.175,3.278,0.029,4.844c-0.12,0.779-0.192,1.553-0.413,2.281c-0.098,0.366-0.176,0.733-0.287,1.085    c-0.124,0.348-0.246,0.692-0.366,1.031c-0.492,1.35-1.098,2.57-1.737,3.64c-0.296,0.55-0.624,1.048-0.959,1.506    c-0.335,0.457-0.621,0.914-0.947,1.299c-0.654,0.768-1.183,1.469-1.688,1.987c-1.006,1.033-1.58,1.623-1.58,1.623    s0.521-0.636,1.432-1.749c0.465-0.547,0.942-1.28,1.535-2.08c0.295-0.402,0.545-0.872,0.844-1.342    c0.299-0.471,0.608-0.967,0.872-1.519c0.581-1.071,1.12-2.281,1.539-3.603c0.102-0.331,0.206-0.667,0.311-1.007    c0.092-0.343,0.152-0.699,0.231-1.053c0.173-0.706,0.252-1.444,0.351-2.191c0.116-1.5,0.143-3.066-0.093-4.639    c-0.214-1.573-0.564-3.155-1.036-4.711c-0.439-1.562-1.005-3.089-1.459-4.692c-0.398-1.594-0.716-3.173-0.931-4.711    c-0.242-1.534-0.366-3.028-0.482-4.442c-0.1-1.415-0.175-2.753-0.223-3.988c-0.101-2.471-0.057-4.531-0.04-5.971    C124.631,115.111,124.684,114.29,124.684,114.29z" />
	</g>
	<path fill="none" stroke="#000000" stroke-linecap="round" d="M128.715,136.29c0,0,6.285,10.46,2.785,18.21" />
	<path fill="none" stroke="#000000" stroke-linecap="round" d="M86,172.25c0,0,9.756,15.501,31,15.25" />
	<line fill="none" stroke="#000000" stroke-width="2" stroke-linecap="round" x1="111.007" y1="50.936" x2="108.935" y2="60.747" />
	<polyline fill="none" stroke="#000000" stroke-width="2" stroke-linecap="round" points="108.497,58.746 104.333,74.167    103.712,97.999  " />
	<g>
		<path d="M107.875,50.687c2.44,0.032,4.917,0.458,7.231,1.459c1.155,0.498,2.274,1.157,3.236,2.048    c0.481,0.443,0.926,0.939,1.302,1.492c0.391,0.543,0.692,1.152,0.942,1.779c0.247,0.63,0.393,1.293,0.487,1.957    c0.08,0.666,0.1,1.334,0.065,1.995l-0.09,0.991l-0.116,0.906c-0.065,0.596-0.187,1.234-0.293,1.848    c-0.238,1.227-0.517,2.453-0.906,3.68c-0.193,0.613-0.417,1.228-0.712,1.838c-0.146,0.306-0.306,0.611-0.503,0.921    c-0.092,0.153-0.207,0.313-0.324,0.47l-0.209,0.249c-0.099,0.1-0.118,0.144-0.359,0.33l0.43-1.447    c0.161,0.416,0.28,0.765,0.398,1.143c0.122,0.372,0.223,0.743,0.328,1.115c0.195,0.745,0.385,1.491,0.51,2.248    c0.268,1.509,0.458,3.029,0.54,4.554c0.045,0.762,0.054,1.527,0.038,2.289c-0.015,0.763-0.041,1.524-0.108,2.283    c-0.039,0.76-0.143,1.516-0.248,2.269c-0.106,0.753-0.267,1.497-0.398,2.243l-0.087-0.561c0.157,0.341,0.278,0.644,0.405,0.967    c0.124,0.318,0.241,0.637,0.349,0.96c0.213,0.645,0.403,1.296,0.57,1.952c0.332,1.312,0.581,2.649,0.678,4    c0.094,1.35,0.081,2.713-0.148,4.045c-0.215,1.332-0.65,2.622-1.29,3.78c0.43-1.253,0.627-2.551,0.666-3.84    c0.022-1.292-0.092-2.577-0.336-3.838c-0.257-1.259-0.58-2.502-1.015-3.709c-0.214-0.604-0.45-1.2-0.705-1.786l-0.39-0.872    c-0.133-0.282-0.278-0.582-0.414-0.831l-0.115-0.212l0.028-0.35c0.059-0.722,0.147-1.439,0.182-2.16    c0.022-0.722,0.088-1.439,0.085-2.16c0.024-0.719,0.008-1.438-0.018-2.156c-0.003-0.359-0.034-0.717-0.058-1.075    c-0.032-0.358-0.032-0.717-0.072-1.073c-0.103-1.43-0.309-2.851-0.584-4.252c-0.141-0.7-0.287-1.397-0.458-2.086    c-0.09-0.342-0.177-0.687-0.28-1.021c-0.095-0.33-0.212-0.684-0.312-0.96l0.43-1.447c-0.121,0.093-0.035,0.026-0.03,0.015    l0.087-0.099c0.064-0.087,0.131-0.172,0.197-0.279c0.133-0.201,0.261-0.434,0.381-0.675c0.236-0.486,0.467-1.002,0.664-1.542    c0.401-1.077,0.721-2.214,1.003-3.366c0.123-0.582,0.268-1.133,0.391-1.739l0.189-0.894l0.127-0.822    c0.063-0.553,0.08-1.104,0.05-1.651c-0.019-0.272-0.065-0.54-0.095-0.812c-0.069-0.261-0.108-0.533-0.189-0.791    c-0.583-2.111-2.297-3.819-4.34-4.972c-1.023-0.585-2.13-1.051-3.267-1.444C110.253,51.213,109.08,50.884,107.875,50.687z" />
	</g>
	<line fill="none" stroke="#000000" stroke-width="2" stroke-linecap="round" x1="113.635" y1="47.212" x2="117.943" y2="35.004" />
	<path fill="none" stroke="#000000" stroke-width="2" stroke-linecap="round" d="M138.039,32.533c0,0,5.867,7.371,2.256,20.91   c0,0,3.159,10.53-1.956,20.459c0,0,1.805,7.07-0.451,13.84" />
	<path fill="none" stroke="#000000" stroke-width="2" stroke-linecap="round" d="M136.947,84.878c0,0,3.006,8.292,1.243,15.5" />
	<g>
		<path d="M123.63,17.381c1.264,0.092,2.531,0.344,3.746,0.764c1.221,0.407,2.404,0.971,3.485,1.715    c0.546,0.363,1.062,0.779,1.544,1.234c0.488,0.449,0.938,0.946,1.335,1.484c0.401,0.534,0.765,1.104,1.065,1.705    c0.165,0.294,0.302,0.601,0.424,0.915c0.132,0.31,0.262,0.622,0.352,0.945c0.223,0.638,0.362,1.294,0.493,1.954    c0.08,0.662,0.191,1.328,0.197,1.993c0.047,0.668,0.019,1.33-0.009,1.993c-0.024,0.664-0.125,1.314-0.187,1.974    c-0.114,0.646-0.215,1.299-0.362,1.937c-0.164,0.632-0.299,1.276-0.489,1.899c-0.196,0.62-0.373,1.25-0.587,1.863l-0.668,1.829    l0.023-0.828c0.172,0.508,0.294,0.935,0.409,1.398c0.116,0.456,0.199,0.913,0.29,1.37c0.159,0.915,0.293,1.832,0.368,2.753    c0.038,0.461,0.085,0.921,0.095,1.383c0.012,0.461,0.052,0.923,0.04,1.384l-0.013,1.385l-0.096,1.381    c-0.021,0.461-0.102,0.917-0.152,1.375c-0.058,0.457-0.106,0.916-0.198,1.368c-0.155,0.909-0.329,1.814-0.566,2.704    c-0.193,0.901-0.496,1.772-0.777,2.648c-0.129,0.442-0.321,0.861-0.483,1.29l-0.507,1.28l0.053-0.683    c0.111,0.53,0.192,1.011,0.272,1.515c0.079,0.498,0.149,0.997,0.211,1.495c0.122,0.998,0.2,1.998,0.259,2.999    c0.113,2.001,0.126,4.008-0.033,6.006c-0.136,1.997-0.43,3.985-0.899,5.926c-0.462,1.942-1.132,3.833-2.01,5.603    c0.554-1.898,0.927-3.822,1.147-5.757c0.225-1.934,0.296-3.878,0.269-5.814c-0.041-1.938-0.175-3.871-0.407-5.791    c-0.116-0.96-0.267-1.915-0.428-2.865c-0.079-0.475-0.164-0.949-0.258-1.42c-0.093-0.465-0.196-0.95-0.304-1.38l-0.077-0.309    l0.131-0.375l0.426-1.22c0.136-0.409,0.301-0.807,0.404-1.225c0.22-0.832,0.495-1.647,0.665-2.489    c0.211-0.833,0.361-1.677,0.494-2.525c0.082-0.421,0.119-0.849,0.167-1.274c0.04-0.427,0.111-0.85,0.124-1.279    c0.057-0.855,0.099-1.709,0.104-2.566c0.018-0.428-0.015-0.855-0.02-1.283c-0.003-0.428-0.042-0.854-0.071-1.28    c-0.058-0.853-0.171-1.699-0.305-2.539c-0.078-0.416-0.148-0.837-0.246-1.244c-0.08-0.405-0.192-0.837-0.289-1.177l-0.13-0.45    l0.153-0.378l0.692-1.712c0.222-0.573,0.406-1.157,0.612-1.735c0.199-0.58,0.342-1.172,0.517-1.758    c0.155-0.589,0.267-1.185,0.414-1.776c0.088-0.596,0.218-1.192,0.272-1.791c0.058-0.599,0.119-1.199,0.109-1.797    c0.031-0.602-0.039-1.191-0.073-1.788c-0.091-0.585-0.156-1.178-0.311-1.75c-0.056-0.293-0.15-0.573-0.244-0.854    c-0.086-0.284-0.183-0.564-0.309-0.832c-0.221-0.55-0.503-1.076-0.822-1.579c-0.319-0.503-0.674-0.988-1.074-1.438    c-0.394-0.455-0.828-0.883-1.3-1.269c-0.937-0.781-1.986-1.451-3.112-1.987C126.053,18.099,124.869,17.649,123.63,17.381z" />
	</g>
	<line fill="none" stroke="#000000" stroke-width="2" stroke-linecap="round" x1="123.517" y1="23.751" x2="125.74" y2="18.137" />
	<g>
		<path d="M113.52,24.834c1.562-0.142,3.149-0.085,4.72,0.147c1.573,0.221,3.129,0.655,4.615,1.313    c1.484,0.657,2.874,1.606,4.024,2.825c1.152,1.217,2.02,2.723,2.528,4.326c0.511,1.603,0.722,3.279,0.712,4.926    c-0.017,1.651-0.237,3.276-0.577,4.859c-0.341,1.584-0.78,3.137-1.325,4.645c-0.543,1.509-1.158,2.983-1.819,4.431l0.004-1.028    c0.191,0.444,0.31,0.788,0.431,1.176c0.124,0.379,0.22,0.757,0.316,1.136c0.179,0.76,0.331,1.524,0.406,2.294    c0.097,0.768,0.14,1.541,0.151,2.311c0.022,0.771-0.021,1.539-0.066,2.307c-0.03,0.383-0.082,0.763-0.123,1.145    c-0.035,0.383-0.094,0.761-0.167,1.137c-0.069,0.377-0.128,0.755-0.209,1.129l-0.287,1.11c-0.169,0.746-0.454,1.456-0.68,2.182    c-0.114,0.363-0.278,0.707-0.414,1.061l-0.43,1.054l0.064-0.64c0.169,0.952,0.292,1.862,0.386,2.796    c0.101,0.928,0.179,1.856,0.241,2.785c0.132,1.858,0.151,3.722,0.097,5.582l-0.066,1.395c-0.012,0.464-0.079,0.929-0.117,1.392    c-0.073,0.927-0.226,1.849-0.352,2.767c-0.18,0.915-0.342,1.827-0.596,2.722c-0.208,0.903-0.553,1.771-0.846,2.64l0.231-1.361    c0.091-0.448,0.116-0.91,0.175-1.362c0.129-0.904,0.154-1.82,0.219-2.726c0.02-0.912,0.066-1.818,0.033-2.728    c-0.008-0.908-0.051-1.816-0.089-2.722c-0.064-0.906-0.12-1.811-0.222-2.714c-0.089-0.902-0.188-1.804-0.306-2.703    c-0.119-0.899-0.253-1.795-0.409-2.686c-0.155-0.886-0.324-1.791-0.503-2.642l-0.062-0.293l0.126-0.347l0.359-0.993    c0.113-0.333,0.255-0.657,0.345-0.996c0.18-0.678,0.421-1.34,0.546-2.029c0.162-0.681,0.29-1.366,0.391-2.055    c0.063-0.343,0.112-0.687,0.138-1.034c0.032-0.346,0.076-0.691,0.098-1.037c0.03-0.693,0.062-1.386,0.032-2.078    c-0.019-0.691-0.066-1.382-0.161-2.063c-0.081-0.684-0.21-1.358-0.354-2.024c-0.079-0.329-0.159-0.662-0.259-0.98    c-0.089-0.312-0.214-0.659-0.307-0.889l-0.221-0.548l0.226-0.48c0.652-1.387,1.257-2.792,1.788-4.218    c0.528-1.426,1.016-2.863,1.375-4.325c0.367-1.459,0.612-2.94,0.683-4.414c0.092-1.473-0.014-2.945-0.374-4.345    c-0.37-1.395-1.008-2.71-1.912-3.848c-0.906-1.141-2.089-2.064-3.388-2.819c-1.306-0.751-2.749-1.288-4.234-1.699    C116.622,25.208,115.083,24.925,113.52,24.834z" />
	</g>
	<line fill="none" stroke="#000000" stroke-width="2" stroke-linecap="round" x1="116.754" y1="36.243" x2="118.619" y2="24.949" />
	<polyline fill="#FFFFFF" points="116.709,30.571 118.22,21.649 110.23,20.117  " />
	<polyline fill="#FFFFFF" points="109.376,54.321 110.886,45.399 102.896,43.867  " />
	<polyline fill="#FFFFFF" points="122.654,23.421 125.92,14.983 118.399,11.881  " />
	<polyline fill="#FFFFFF" points="126.542,100.301 129.59,101.051 130.856,96.034  " />
	<path fill="#FFFFFF" d="M129.917,20.392" />
</g>
</svg>
