<?xml version="1.0" encoding="UTF-8"?>
<!-- Generator: Adobe Illustrator 18.1.1, SVG Export Plug-In . SVG Version: 6.00 Build 0)  -->
<svg xmlns="http://www.w3.org/2000/svg" xmlns:xlink="http://www.w3.org/1999/xlink" version="1.1" id="Lager_1" x="0px" y="0px" width="226.77px" height="226.77px" viewBox="0 0 226.77 226.77" enable-background="new 0 0 226.77 226.77" xml:space="preserve"><rect fill="#FFFFFF" x="0px" y="0px" width="226.77px" height="226.77px" />
<g>
	<path d="M178.029,60.917c0,0-0.007,0.019-0.02,0.056c-0.007,0.009-0.029,0.09-0.037,0.169c-0.015,0.085-0.012,0.193-0.005,0.321   c0.017,0.127,0.048,0.272,0.112,0.431c0.073,0.152,0.147,0.331,0.29,0.493c0.117,0.177,0.296,0.332,0.474,0.502   c0.382,0.319,0.858,0.609,1.37,0.848c0.514,0.24,1.055,0.43,1.574,0.591c0.256,0.092,0.515,0.138,0.756,0.204   c0.243,0.061,0.472,0.118,0.684,0.171c0.862,0.162,1.437,0.27,1.437,0.27s-0.586-0.027-1.466-0.069   c-0.22-0.023-0.458-0.049-0.709-0.076c-0.251-0.033-0.521-0.044-0.794-0.1c-0.55-0.09-1.135-0.207-1.715-0.385   c-0.579-0.178-1.151-0.42-1.663-0.738c-0.248-0.175-0.494-0.338-0.695-0.555c-0.216-0.191-0.379-0.436-0.521-0.66   c-0.137-0.234-0.229-0.471-0.29-0.692c-0.051-0.223-0.082-0.425-0.082-0.596c-0.004-0.177,0.006-0.296,0.028-0.42   c0.02-0.096,0.03-0.148,0.03-0.148c0.072-0.353,0.417-0.581,0.77-0.509s0.581,0.417,0.509,0.77   c-0.006,0.031-0.015,0.061-0.025,0.09L178.029,60.917z" />
</g>
<g>
	<path d="M187.708,62.102c0,0-0.018,0.048-0.017,0.037c-0.003,0.004-0.027,0.067-0.03,0.134c-0.017,0.139-0.003,0.369,0.147,0.653   c0.078,0.141,0.184,0.291,0.331,0.44c0.139,0.151,0.322,0.295,0.513,0.44c0.21,0.127,0.409,0.286,0.655,0.394   c0.238,0.118,0.475,0.251,0.736,0.343c0.258,0.095,0.507,0.217,0.772,0.29c0.262,0.082,0.521,0.162,0.771,0.24   c0.508,0.133,0.988,0.247,1.4,0.342c0.834,0.156,1.39,0.259,1.39,0.259s-0.567-0.023-1.418-0.058   c-0.425-0.034-0.922-0.08-1.455-0.14c-0.266-0.043-0.541-0.086-0.82-0.131c-0.282-0.036-0.56-0.124-0.845-0.185   c-0.286-0.057-0.563-0.162-0.841-0.253c-0.281-0.08-0.541-0.225-0.803-0.339c-0.253-0.138-0.501-0.281-0.72-0.456   c-0.223-0.17-0.417-0.365-0.579-0.577c-0.324-0.424-0.465-0.913-0.478-1.265c-0.012-0.181,0.005-0.311,0.026-0.436   c0.024-0.103,0.037-0.158,0.037-0.158c0.082-0.351,0.433-0.569,0.784-0.487s0.569,0.433,0.486,0.784   c-0.006,0.027-0.014,0.053-0.024,0.079L187.708,62.102z" />
</g>
<linearGradient id="SVGID_1_" gradientUnits="userSpaceOnUse" x1="-189.6898" y1="155.568" x2="-178.2682" y2="183.1374" gradientTransform="matrix(0.9085 0.4178 0.4178 -0.9085 171.3268 393.4913)">
	<stop offset="0" style="stop-color:#FFFFFF" />
	<stop offset="1" style="stop-color:#EDEDED" />
</linearGradient>
<polygon fill="url(#SVGID_1_)" points="89.75,188.956 116.54,154.159 94.097,147.05 78.938,129.318 81.468,128.171 64.452,138.988   41.075,154.22 " />
<path fill="none" stroke="#000000" stroke-width="2" stroke-linecap="round" d="M50.793,147.405c0,0,32.453-20.524,34.848-22.915  s15.254-55.833,16.114-58.783s-2.543-9.465,6.956-13.217c0,0,32.056-10.936,34.953-12.003s34.026,6.219,36.335,9.219l9.551,5.365" />
<path d="M186.472,58.707c0,0-1.708-0.981-3.461-2.024c-0.876-0.522-1.94-1.155-3.16-1.881c-0.607-0.361-1.253-0.745-1.934-1.15  c-0.639-0.37-1.375-0.712-2.156-1.033c-0.78-0.318-1.618-0.623-2.471-0.846c-0.912-0.21-1.854-0.427-2.823-0.65  c-1.952-0.447-4.011-0.918-6.141-1.406c-4.26-0.975-8.803-2.015-13.347-3.055c-0.591-0.142-1.094-0.25-1.654-0.292  c-0.556-0.051-1.122-0.061-1.685-0.042c-0.562,0.02-1.125,0.067-1.671,0.158c-0.539,0.081-1.064,0.247-1.63,0.404  c-2.208,0.622-4.382,1.234-6.485,1.826c-4.206,1.184-8.132,2.289-11.497,3.237c-6.73,1.895-11.217,3.158-11.217,3.158  s4.451-1.383,11.128-3.457c3.338-1.037,7.233-2.247,11.406-3.544c2.087-0.648,4.243-1.318,6.433-1.999  c0.535-0.164,1.106-0.362,1.709-0.471c0.59-0.115,1.184-0.179,1.78-0.217c0.596-0.036,1.196-0.042,1.8-0.003  c0.604,0.028,1.247,0.147,1.792,0.265c4.57,0.918,9.14,1.836,13.424,2.696c2.142,0.43,4.213,0.846,6.176,1.241  c0.988,0.2,1.95,0.395,2.88,0.583c0.978,0.228,1.862,0.527,2.709,0.845c0.844,0.321,1.641,0.664,2.393,1.071  c0.699,0.391,1.363,0.761,1.986,1.109c1.239,0.693,2.32,1.298,3.21,1.796c1.78,0.996,3.504,1.95,3.504,1.95  c0.482,0.27,0.654,0.879,0.384,1.361s-0.879,0.654-1.361,0.384C186.489,58.717,186.479,58.71,186.472,58.707z" />
<g>
	<path d="M177.191,60.286c0,0-3.488-0.739-8.72-1.847c-2.616-0.554-5.668-1.201-8.938-1.893c-0.817-0.173-1.649-0.349-2.49-0.528   c-0.867-0.195-1.627-0.341-2.486-0.385c-0.846-0.055-1.712-0.051-2.565,0.015c-0.838,0.054-1.686,0.262-2.576,0.424   c-14.004,2.696-28.008,5.391-28.008,5.391s13.901-3.185,27.802-6.37l1.303-0.298c0.444-0.105,0.919-0.184,1.371-0.235   c0.914-0.103,1.821-0.138,2.728-0.112c0.898,0.01,1.858,0.16,2.674,0.316c0.847,0.149,1.684,0.295,2.507,0.44   c3.292,0.578,6.365,1.117,8.999,1.579c5.267,0.924,8.779,1.54,8.779,1.54c0.544,0.095,0.908,0.614,0.812,1.158   c-0.095,0.544-0.614,0.908-1.158,0.812C177.216,60.291,177.202,60.288,177.191,60.286z" />
</g>
<g>
	<path d="M187.175,60.559c-0.073,2.033-0.836,4.08-2.152,5.73c-0.328,0.413-0.684,0.81-1.078,1.166   c-0.386,0.365-0.81,0.693-1.254,0.986c-0.437,0.306-0.906,0.563-1.382,0.802c-0.477,0.241-0.971,0.439-1.471,0.623   c-0.506,0.155-1.013,0.329-1.532,0.431c-0.516,0.128-1.037,0.214-1.56,0.29c-1.046,0.149-2.098,0.216-3.145,0.202   c-2.094-0.032-4.169-0.278-6.199-0.688l1.08-0.549c-0.224,0.463-0.424,0.74-0.671,1.069c-0.241,0.311-0.5,0.602-0.779,0.871   c-0.556,0.538-1.179,0.996-1.838,1.377c-1.33,0.754-2.801,1.149-4.255,1.344c-1.459,0.186-2.916,0.118-4.33-0.068   c-1.417-0.183-2.793-0.532-4.132-0.952l0.654-0.137c-0.524,0.388-1.028,0.713-1.557,1.037c-0.529,0.315-1.069,0.611-1.618,0.886   c-1.101,0.544-2.234,1.034-3.42,1.371c-1.18,0.342-2.402,0.578-3.632,0.593c-1.228,0.025-2.459-0.186-3.569-0.653   c1.171,0.288,2.37,0.306,3.531,0.147c1.161-0.174,2.292-0.494,3.374-0.941c1.081-0.447,2.128-0.975,3.127-1.584   c0.5-0.304,0.988-0.626,1.464-0.965c0.474-0.33,0.958-0.687,1.378-1.038l0.267-0.223l0.388,0.086   c1.31,0.291,2.629,0.495,3.939,0.615c1.312,0.113,2.617,0.068,3.88-0.093c0.629-0.094,1.246-0.233,1.84-0.424   c0.595-0.189,1.16-0.442,1.692-0.739c0.532-0.296,1.029-0.649,1.466-1.057c0.219-0.203,0.42-0.423,0.603-0.651   c0.174-0.212,0.364-0.503,0.443-0.657l0.354-0.693l0.726,0.144c0.971,0.193,1.938,0.405,2.914,0.548   c0.487,0.087,0.976,0.123,1.465,0.188c0.489,0.063,0.978,0.074,1.467,0.114c0.978,0.039,1.956,0.054,2.924-0.029   c0.484-0.04,0.967-0.089,1.443-0.177c0.482-0.063,0.945-0.193,1.415-0.305c0.463-0.131,0.925-0.268,1.371-0.449   c0.446-0.178,0.888-0.373,1.303-0.614c0.424-0.227,0.827-0.495,1.209-0.788c0.393-0.282,0.754-0.607,1.096-0.953   c0.687-0.691,1.264-1.497,1.737-2.371C186.607,62.501,186.989,61.559,187.175,60.559z" />
</g>
<g>
	<path d="M141.254,74.983c0,0,0.358,0.776,0.324,2.054c-0.019,0.314-0.028,0.663-0.107,1.019c-0.06,0.361-0.148,0.738-0.288,1.113   c-0.113,0.385-0.305,0.753-0.479,1.136c-0.221,0.354-0.42,0.736-0.675,1.076c-0.272,0.325-0.51,0.683-0.815,0.966   c-0.295,0.292-0.573,0.596-0.891,0.828c-0.605,0.506-1.221,0.897-1.772,1.189c-0.529,0.325-1.036,0.476-1.363,0.62   c-0.338,0.124-0.531,0.195-0.531,0.195s0.157-0.134,0.433-0.367c0.268-0.24,0.694-0.513,1.138-0.922   c0.226-0.199,0.47-0.412,0.735-0.625c0.244-0.235,0.502-0.483,0.768-0.74c0.285-0.236,0.495-0.558,0.769-0.826   c0.277-0.268,0.477-0.603,0.72-0.903c0.242-0.302,0.427-0.641,0.639-0.956c0.156-0.343,0.382-0.651,0.505-0.99   c0.148-0.33,0.284-0.653,0.384-0.972c0.112-0.315,0.184-0.624,0.261-0.909C141.273,75.817,141.254,74.983,141.254,74.983z" />
</g>
<g>
	<path d="M139.457,80.685c0.625,0.752,1.34,1.406,2.093,1.976c0.749,0.577,1.565,1.042,2.404,1.393   c1.684,0.707,3.503,0.834,5.223,0.456l-0.273,0.088c1.094-0.59,2.186-1.119,3.297-1.645c1.104-0.534,2.247-0.986,3.396-1.435   c1.15-0.444,2.318-0.864,3.537-1.176c0.603-0.169,1.227-0.301,1.856-0.426l0.964-0.15l1.006-0.078l-0.877,0.491   c0.244-0.341,0.467-0.62,0.708-0.919c0.237-0.293,0.481-0.577,0.728-0.859c0.495-0.561,1.009-1.103,1.542-1.626   c1.08-1.031,2.239-1.982,3.479-2.816c1.252-0.815,2.572-1.536,3.979-2.032c0.695-0.265,1.418-0.452,2.141-0.598   c0.723-0.152,1.462-0.203,2.187-0.228c-1.407,0.39-2.719,0.961-3.951,1.651c-1.223,0.706-2.375,1.515-3.436,2.433   c-1.072,0.902-2.071,1.889-2.994,2.942c-0.47,0.518-0.921,1.053-1.352,1.601c-0.214,0.275-0.426,0.552-0.628,0.833   c-0.198,0.276-0.408,0.576-0.57,0.833l-0.272,0.432l-0.606,0.06l-0.801,0.079l-0.826,0.147c-0.555,0.123-1.113,0.25-1.672,0.42   c-0.56,0.148-1.114,0.354-1.677,0.518c-0.56,0.188-1.12,0.37-1.677,0.578c-1.118,0.397-2.217,0.856-3.331,1.289   c-1.107,0.44-2.217,0.914-3.294,1.393l-0.174,0.077l-0.099,0.011c-1.054,0.118-2.133,0.092-3.174-0.114   c-1.042-0.208-2.028-0.62-2.915-1.149c-0.888-0.535-1.659-1.218-2.329-1.963C140.413,82.417,139.852,81.585,139.457,80.685z" />
</g>
<g>
	<path d="M190.637,70.65c0,0,0.658,0.045,1.572,0.401c0.451,0.184,0.976,0.425,1.486,0.779c0.526,0.33,1.016,0.792,1.47,1.289   c0.194,0.279,0.423,0.529,0.578,0.829c0.17,0.29,0.321,0.583,0.416,0.89c0.12,0.297,0.199,0.594,0.23,0.887   c0.052,0.287,0.087,0.556,0.061,0.81c-0.009,0.251-0.017,0.479-0.047,0.676c-0.043,0.198-0.092,0.367-0.13,0.504   c-0.078,0.275-0.132,0.425-0.132,0.425s-0.024-0.16-0.067-0.441c-0.015-0.136-0.034-0.3-0.055-0.489   c-0.042-0.182-0.09-0.387-0.141-0.611c-0.034-0.223-0.13-0.45-0.214-0.689c-0.07-0.244-0.192-0.481-0.316-0.725   c-0.1-0.255-0.281-0.478-0.425-0.725c-0.137-0.251-0.353-0.461-0.523-0.697c-0.197-0.218-0.386-0.447-0.6-0.647   c-0.219-0.195-0.412-0.414-0.637-0.587c-0.423-0.378-0.859-0.691-1.228-0.976C191.18,71.012,190.637,70.65,190.637,70.65z" />
</g>
<path fill="none" stroke="#000000" stroke-width="2" stroke-linecap="round" d="M96.105,178.539l34.645-41.334  c0,0,19.773-3.829,28.619-31.14c0,0,13.137-19.921,36.207-28.222" />
<path fill="none" stroke="#000000" stroke-linecap="round" d="M80.386,132.395c0,0,15.872,20.15,32.996,20.565" />
<polyline fill="none" stroke="#000000" stroke-width="2" stroke-linecap="round" points="178.064,60.03 185.157,60.928   186.878,61.272 " />
<line fill="none" stroke="#000000" stroke-width="2" stroke-linecap="round" x1="188.14" y1="58.951" x2="197.1" y2="62.549" />
<line fill="none" stroke="#000000" stroke-width="2" stroke-linecap="round" x1="189.564" y1="55.776" x2="198.101" y2="59.163" />
<g>
	<path d="M197.164,62.876c0,0-0.049,0.354-0.244,0.946c-0.089,0.301-0.231,0.649-0.401,1.052c-0.194,0.386-0.384,0.851-0.684,1.298   c-0.143,0.23-0.293,0.47-0.448,0.718c-0.18,0.231-0.366,0.471-0.558,0.717c-0.376,0.501-0.858,0.964-1.358,1.438   c-0.549,0.416-1.07,0.926-1.726,1.264c-0.32,0.179-0.628,0.39-0.966,0.544l-1.039,0.421c-0.344,0.152-0.704,0.251-1.07,0.325   c-0.363,0.079-0.725,0.159-1.084,0.237c-0.723,0.109-1.449,0.087-2.137,0.129c-0.687-0.043-1.346-0.149-1.963-0.23   c-0.616-0.091-1.17-0.314-1.685-0.463c-0.516-0.15-0.978-0.31-1.361-0.528c-0.391-0.189-0.723-0.372-0.995-0.518   c-0.543-0.298-0.839-0.483-0.839-0.483s0.361,0.029,0.967,0.107c0.302,0.042,0.668,0.086,1.077,0.159   c0.406,0.089,0.878,0.104,1.383,0.139c0.506,0.017,1.043,0.104,1.609,0.103c0.568-0.025,1.16-0.042,1.766-0.046   c0.599-0.096,1.218-0.169,1.833-0.278c0.302-0.08,0.607-0.161,0.913-0.242c0.31-0.064,0.614-0.154,0.902-0.289l0.886-0.339   c0.288-0.129,0.561-0.288,0.841-0.429c0.572-0.261,1.073-0.634,1.589-0.953c0.464-0.386,0.973-0.703,1.381-1.096   c0.425-0.374,0.825-0.738,1.173-1.102c0.363-0.351,0.656-0.71,0.948-1.01c0.256-0.323,0.516-0.59,0.696-0.832   C196.959,63.167,197.164,62.876,197.164,62.876z" />
</g>
<g>
	<path d="M134.833,86.789c0,0-0.031,0.205-0.089,0.589c-0.065,0.383-0.14,0.949-0.219,1.666c-0.084,0.716-0.161,1.592-0.201,2.597   c-0.053,1.004-0.055,2.139-0.07,3.377c-0.014,2.477,0.15,5.368,0.145,8.486c0.001,3.119-0.184,6.459-0.707,9.765   c-0.268,1.65-0.643,3.283-1.069,4.875c-0.462,1.582-0.964,3.131-1.607,4.57c-0.301,0.728-0.634,1.428-1.012,2.088   c-0.338,0.68-0.771,1.289-1.157,1.9c-0.377,0.617-0.859,1.141-1.262,1.687c-0.424,0.532-0.911,0.981-1.335,1.446   c-0.919,0.865-1.824,1.59-2.709,2.105c-0.215,0.137-0.423,0.27-0.624,0.398c-0.21,0.112-0.422,0.204-0.62,0.301   c-0.397,0.189-0.762,0.362-1.092,0.519c-0.676,0.272-1.237,0.406-1.603,0.534c-0.37,0.116-0.568,0.178-0.568,0.178   s0.191-0.08,0.551-0.23c0.355-0.157,0.89-0.353,1.54-0.66c0.314-0.176,0.661-0.371,1.04-0.584c0.188-0.108,0.388-0.211,0.585-0.334   c0.188-0.139,0.382-0.283,0.583-0.431c0.826-0.561,1.654-1.327,2.515-2.19c0.393-0.469,0.845-0.92,1.234-1.452   c0.368-0.548,0.812-1.067,1.152-1.682c0.349-0.608,0.743-1.21,1.043-1.884c0.163-0.329,0.328-0.662,0.495-0.998   c0.147-0.346,0.295-0.695,0.445-1.047c0.606-1.405,1.075-2.924,1.505-4.475c0.396-1.563,0.738-3.167,0.984-4.79   c0.264-1.609,0.483-3.255,0.611-4.862c0.128-1.612,0.188-3.206,0.216-4.752c0.043-3.093,0.065-5.998,0.161-8.489   c0.054-1.246,0.137-2.387,0.261-3.394c0.109-1.008,0.245-1.881,0.379-2.597c0.122-0.719,0.262-1.27,0.357-1.647   C134.784,86.99,134.833,86.789,134.833,86.789z" />
</g>
<g>
	<path d="M125.126,129.331c0,0-0.152,0.172-0.469,0.42c-0.315,0.251-0.8,0.563-1.423,0.862c-0.618,0.314-1.381,0.576-2.213,0.805   c-0.42,0.086-0.85,0.223-1.298,0.275c-0.446,0.068-0.9,0.141-1.356,0.175c-0.912,0.077-1.828,0.093-2.68,0.04   c-0.854-0.036-1.643-0.143-2.314-0.26c-0.673-0.097-1.221-0.263-1.606-0.356c-0.382-0.108-0.6-0.17-0.6-0.17   s0.227-0.01,0.625-0.027c0.393-0.005,0.954-0.011,1.628-0.019c0.671-0.013,1.448-0.015,2.277-0.049   c0.415,0.004,0.841-0.045,1.274-0.059c0.434-0.01,0.872-0.051,1.309-0.096c0.878-0.055,1.743-0.193,2.557-0.313   c0.806-0.151,1.562-0.299,2.196-0.481C124.309,129.737,125.126,129.331,125.126,129.331z" />
</g>
<line fill="none" stroke="#000000" stroke-linecap="round" x1="120.028" y1="61.38" x2="153.388" y2="55.064" />
<line fill="none" stroke="#000000" stroke-linecap="round" x1="114" y1="54.956" x2="146.06" y2="46.041" />
<g>
	<g>
		<line fill="none" stroke="#000000" stroke-width="3" x1="83.442" y1="83.776" x2="43.448" y2="83.776" />
		<g>
			<polygon points="28.621,83.776 49.515,75.239 44.557,83.776 49.515,92.311    " />
		</g>
	</g>
</g>
<path fill="none" stroke="#000000" stroke-linecap="round" d="M197.666,58.923c0,0,0.348,1.285-0.73,3.215" />
</svg>
