<?xml version="1.0" encoding="UTF-8"?>
<!DOCTYPE svg PUBLIC "-//W3C//DTD SVG 1.1//EN" "http://www.w3.org/Graphics/SVG/1.1/DTD/svg11.dtd">
<!-- Generator: Adobe Illustrator 14.0.0, SVG Export Plug-In . SVG Version: 6.00 Build 43363)  -->
<svg xmlns="http://www.w3.org/2000/svg" xmlns:xlink="http://www.w3.org/1999/xlink" version="1.1" x="0px" y="0px" width="170.079px" height="226.771px" viewBox="0 0 170.079 226.771" enable-background="new 0 0 170.079 226.771" xml:space="preserve"><rect fill="#FFFFFF" x="0px" y="0px" width="170.079px" height="226.771px" />
<g id="Färg">
	<linearGradient id="SVGID_1_" gradientUnits="userSpaceOnUse" x1="35.9375" y1="210.583" x2="53.2711" y2="155.9156">
		<stop offset="0" style="stop-color:#FFFFFF" />
		<stop offset="1" style="stop-color:#EDEDED" />
	</linearGradient>
	<path fill="url(#SVGID_1_)" d="M67,210l7.667-35.667L78,161l-12.667-1l-17.667-8.333l-9-6.334l-3.333-3L19,173l-9,22   C10,195,30.666,220,67,210z" />
</g>
<g id="Lager_1">
	<g>
		<path d="M151.786,82.25c-1.383-1.612-2.88-2.649-4.838-2.879c-0.922-0.116-1.844,0.229-2.649,0l-0.691,0.575l-0.23-0.23    c0.23-1.268-0.461-2.649-0.115-3.802c-0.807-0.922-0.461-2.304-0.691-3.455c0.23-0.692-0.575-1.152,0-1.728    c-0.691-0.461-0.461-1.498-0.461-2.074c-0.576-1.152-0.576-2.188-0.807-3.34c0.115-0.116,0.115-0.23,0.23-0.23v-0.346    c-0.461-0.461-0.461-1.267-0.69-1.958c0-0.576-0.46-1.382,0-1.843c0.022,0.023,0.05,0.064,0.077,0.105l-0.652-4.136    c-0.807-1.498-2.19-2.535-2.996-4.032l-0.115,0.115l-0.576-0.577c-4.606-4.953-10.367-9.791-16.933-11.173    c-0.461,0.461-1.497,0.461-1.383,1.383c0.462,1.037,1.269,0.921,2.073,0.921c0.576,0.46,1.498,0.692,1.958,0.921    c0.922,0.23,2.074,1.037,2.766,1.268c0.114,0.46,0.808,0.115,1.036,0.69c1.383,0.576,2.881,1.844,3.916,2.995    c2.535,1.498,4.839,3.917,6.451,6.105l0.115-0.115c0.576,1.151,2.649,2.304,1.729,3.57c-2.765-3.34-6.221-5.759-9.445-8.64    c-0.231-0.115-0.463-0.23-0.463-0.46c-1.381-0.691-2.418-1.959-3.915-2.649c-2.765-2.074-5.759-3.341-8.64-4.838    c-0.691-0.807-1.151-0.46-1.844-1.152l-0.114,0.23c-2.188-0.461-4.262,0.576-6.335,1.152c-0.462-0.461-0.576,0.921-1.037,0.115    c0,2.649-2.42-0.23-3.572,1.613c-7.025,2.073-13.592,4.608-20.502,7.718c-1.498,0.576-3.11,1.612-4.607,2.074    c-2.996,1.842-6.335,3.34-9.331,5.644c-3.456-0.691-5.875,2.419-7.718,4.608c-1.843,4.376-2.765,9.331-2.304,14.399    c-0.23,1.268-0.806,2.533-0.92,3.686c-0.577,1.151-0.923,2.649-1.038,3.917c-1.728,6.104-3.34,12.556-5.068,18.776l-0.229,0.115    l0.229,0.23c-1.498,5.069-2.88,9.331-4.377,14.054c-0.345,1.151-0.46,2.534-1.151,3.341c-0.577,2.188-1.844,4.607-2.419,6.911    c-1.152,0.691-0.461,1.612-1.268,2.419c-0.115,0.576-0.806,0.346-0.345,1.037c-1.498,2.879-3.111,6.45-4.953,8.984    c0.23,0.576,0.922,0.115,1.498,0.115c2.764-2.764,4.724-6.336,6.22-10.021c1.152-1.612,1.613-3.34,2.189-5.068    c0.346-0.576,0.461-1.383,1.037-1.612l-0.346-0.576c1.152-0.69,0.231-1.958,1.268-2.649c0.46-2.188,1.267-4.032,1.728-6.221    c1.843-5.414,3.111-10.598,4.838-16.011H55.6c-0.229-0.346-0.114-0.807,0.231-1.152c0.116-1.498,0.46-2.879,1.152-4.032    c0.115,0-0.115-0.461,0.23-0.461l-0.23-0.23c1.036-2.995,1.497-6.451,2.419-9.561c0.46-0.345-0.115-1.267,0.577-1.497    c0.69-2.65,1.381-5.529,2.188-8.18c-0.115-0.46,0.922-0.229,0.346-0.806c0.576-0.691,0.345-2.189,1.382-2.419l-0.115-0.691    c0.115-0.116,0.231-0.23,0.345-0.23c-0.23-0.576-0.114-1.267-0.69-1.613c-0.346-0.115-0.576-0.691-1.037-0.345    c-0.115,0-0.576-0.115-0.461-0.346c0-0.115,0.116-0.23,0.116-0.115c0.23-1.498,0.921-2.88,2.073-3.687    c0.23-0.807,1.038-1.382,1.613-2.073c0.922-1.152,2.649-0.576,3.341-1.843c2.764-1.037,5.183-2.995,7.947-3.917    c1.037-0.806,2.305-1.267,3.571-1.843c2.303-1.267,4.954-2.534,7.372-3.571c3.8-1.612,8.179-2.995,12.21-4.608    c1.382,0,2.764-1.267,4.262-1.382c1.152,0.116,2.535,0.922,3.572,1.613c1.612,0.346,2.764,1.497,4.261,1.958    c5.876,3.456,11.866,7.372,16.474,12.556c2.304,1.843,3.57,5.299,5.413,7.718c0.116,1.728,1.958,2.765,1.498,4.608    c0.345,0.691,0.46,0.576,1.267,0.807c1.037,0,0.115-0.807,0.807-1.152c-0.921-0.576-0.23-1.267-0.691-1.959    c0.115-0.345-0.115-1.151-0.461-1.497c0.115-0.115,0-0.23,0.115-0.346l-0.461-0.346c0-0.346-0.346-0.69,0-0.921l-0.69-0.576    c-0.462-1.037-1.267-2.418-1.612-3.686c-1.037-0.807-1.383-2.074-2.075-2.995c-0.46-0.576-1.151-1.498-1.843-1.152    c-3.225-2.88-6.105-6.104-10.136-8.409c-0.808-1.267-2.188-1.037-3.11-2.304c-0.69-0.346-1.037-0.807-1.958-1.037    c-1.958-1.728-4.378-1.958-6.45-3.57c0.806,0,1.15-0.807,1.842-0.922c0.23,0.346,0.691,0.116,0.691,0    c1.729-1.152,3.226,0,4.838,0.577c1.037,0.46,2.189,1.267,3.226,1.498c7.142,4.146,14.399,9.676,19.468,16.126    c0.92,5.76,2.533,10.713,2.648,16.126c0.807,1.498-0.115,3.11,1.037,4.262c0.807,1.037-0.114,1.843-0.691,2.649    c-1.267-0.576,0.577-1.958-0.806-2.649c0.114-0.576-0.807-1.152-0.461-1.497c0.461-1.036-0.808-0.691-1.036-1.728    c-0.461-0.807-1.152-1.729-0.691-2.65c-0.461-0.691-1.498-0.691-2.305-0.806c-0.807,1.268-2.418,1.037-3.11,2.304    c-0.345-0.115-0.69-0.576-0.69-0.922c-1.842-0.576-1.959-2.764-3.57-3.801c-0.691-0.345-1.383-0.345-1.729,0.231    c0,1.381,1.381,2.188,1.844,3.225c0.115,0.807,1.381,1.036,1.15,1.843c0.808,0.229,1.613,1.151,1.613,1.958    c-0.922,1.152-2.879,0.576-4.031,0.576c-1.383-1.266-2.189-2.995-2.189-4.953c0.115-0.921,0.807-0.921,1.383-1.152    c0-0.345-0.115-0.46-0.346-0.807c-0.805-0.345-1.037,0.347-1.613,0.462c-1.612,2.88,0.922,5.184,2.305,7.487l-0.346,0.23    c-1.268-0.23-2.648-0.115-4.031-0.806c-0.462-0.231-0.807-0.922-1.383-0.807c-0.345-0.461-1.037-0.691-0.922-1.383    c-1.15,0.576-0.92-1.267-1.727-1.267c-0.117-0.575-1.037-1.613-1.037-2.419c-0.461-0.922-1.612-0.345-1.844-1.382    c-1.728-0.576-3.571,0.691-5.299,0.575c-0.115-0.229-0.346-0.229-0.346-0.345c-0.807,0.921-2.072,0.229-3.455,0.576    c-2.189,0-3.803-1.382-5.416-2.188c-0.459,0-1.15-0.691-1.611,0.114c0.232,0.461-0.575,1.268,0.347,1.498    c-0.922,1.382-2.074,2.879-3.688,3.34c-0.345,0.461-1.151,0.921-1.612,0.921c-0.115-0.229-0.346-0.576-0.575-0.229    c-0.115,1.268-2.766,1.382-1.499,2.764c-0.113,0.231-0.459,0.461-0.113,0.576c0.92-1.843,3.109,0,4.262-1.613    c0.115-0.115,0.46-0.806,0.807-0.576c1.611-1.267,2.649-2.995,4.377-3.917c4.031,2.535,8.639,1.152,12.901,0.116    c2.073-0.576-0.347,2.188,1.497,2.419c0.691,1.958,2.534,3.686,4.146,4.953l0.231-0.23l2.418,1.151    c0.575-0.115,1.152,0.23,1.612,0.461c0.576-0.23,1.613-0.116,2.305,0.115c1.497,2.995,4.839,5.529,8.295,5.529    c0.229-0.116,0.574-0.461,0.805,0c0.346-0.807,1.383,0,1.729-0.807c1.843-0.115,2.305-3.11,4.492-3.34    c0.922,0.115,1.497-1.382,2.072-2.189c0.577-0.691-0.345-1.267-0.575-1.728c1.499,0.576,2.766-0.922,4.147-0.115    c1.036,0.23,1.959,1.382,1.729,2.418c-1.498,3.917-5.07,5.76-7.719,8.87c-0.345-0.345-1.152-0.807-1.613-0.576    c-0.69,0.807-0.459,1.958-0.922,2.764c-1.15,1.152-0.575,2.65-1.611,3.802c0.229,0.921-1.037,0.921-0.691,1.729    c-4.607,5.068-11.52,7.487-17.163,11.749c-3.802,2.649-6.911,5.875-10.022,9.561c-3.686,4.607-8.062,8.754-13.016,12.44    c-1.152,0.807-2.42,1.728-3.688,2.304c-2.072,1.728-4.838,2.995-7.486,4.377l-0.23-0.23l-0.232,0.461    c-1.728,0.346-2.763,1.844-4.492,2.074c-0.691,0-0.461,0.922-0.576,1.266c0.691,0.116,1.728,0,1.958,0.116    c-0.46,1.728-1.727,2.88-2.303,4.608c-1.499,1.958-1.613,4.952-3.341,7.025c0.345,1.152-0.807,1.844-0.807,2.996    c-1.842,0.115-3.916,0-5.989-0.346c-0.922,0-1.728-0.691-2.766-0.461c-2.188-0.346-4.031-1.268-6.219-1.613    c-0.23-0.346-0.692-0.346-1.152-0.346c-7.833-2.994-15.205-7.602-21.426-13.822c-0.46-0.461-1.382-0.576-1.728,0    c5.069,7.257,13.708,11.98,21.771,15.205c5.53,1.844,11.174,2.535,17.05,2.879c-0.231,0.691-0.116,1.152-0.461,1.729    c0.115,1.152-1.267,2.765,0.115,3.686c-0.69,2.996-1.382,5.414-2.189,8.064c-0.944,4.209-1.881,8.462-2.807,12.717    c0.882-0.42,1.764-0.836,2.645-1.252c0.567-2.391,1.207-4.755,1.889-7.088c0.231-2.304,1.267-4.263,1.499-6.566    c0.921-0.461,0-1.728,0.921-2.303c0.116-1.037,0.691-2.305,0.921-3.572c0.576-0.229,0.345-1.382,0.922-1.727    c-0.23-1.613,1.382-2.766,1.037-4.263c-0.116-0.69-0.807-0.576-1.267-1.036c-0.347-0.922,0.691-1.498,0.459-2.189    c1.383-2.533,2.419-5.184,3.802-7.717c1.268-1.268,1.499-3.227,2.996-4.147c0.459-1.152,1.382-1.843,2.187-2.88    c1.498-0.691,2.996-1.498,4.379-2.42c0.69-0.113,1.035-0.229,1.497-0.805c3.687-2.189,7.37-5.068,10.481-7.834    c0.692-0.69,0.922-0.461,1.383-1.267c1.613-1.036,2.766-2.766,4.032-3.917c0.461-0.576,1.036-1.151,1.613-1.498    c0-0.345,0.575-0.345,0.345-0.806c2.535-2.419,4.031-5.989,7.025-7.372c1.96-1.844,4.725-3.686,7.029-4.953    c0.92,0.46,1.15-0.922,1.956-0.922c2.188-1.382,4.263-2.189,6.222-3.917c0.345-0.576,1.266,0,1.266-0.806    c1.499-0.807,2.88-1.959,3.803-3.226l-0.116-0.115c0.575-0.806,0.921-2.188,1.613-3.109c0.114-3.226,2.765-4.263,4.608-6.336    c0.689,0.46,0.23-0.576,0.689-0.691c1.038-0.115,0.576-1.152,1.729-1.267l-0.115-0.345c1.036-1.037,2.535-1.959,3.455-3.34h0.232    v-0.346c0.689-0.806,0.575-1.958,1.035-2.764C152.246,84.094,152.131,83.171,151.786,82.25z" />
		<path d="M140.92,61.045l0.037,0.24C141.143,61.471,141.031,61.214,140.92,61.045z" />
		<path d="M110.201,58.521c0.691,0,1.037,0.691,1.729,0.46c0,0.23,0.345,0.346,0.461,0.346h0.23l2.879,1.612l0.346-0.346    c0,1.268,1.383,1.152,2.074,1.843c1.383,1.268,3.686,2.188,5.184,3.341c1.267-0.576,1.613,1.498,2.535,1.728    c0.92,1.152,0.92,2.995,2.418,3.571c-0.231,0.691,0.575,1.498-0.461,1.959c-0.576,0.23-1.037-0.115-1.498-0.346    c-1.498-1.381-2.305-3.686-3.455-5.298c-3.456-2.304-6.912-4.838-10.828-5.99c-1.152-1.152-3.455-0.691-4.838-2.073    c-1.037,0.46-1.959-0.116-3.111,0.345c-5.76,0.921-12.44,2.304-18.084,3.917c-0.691,0.576-1.152,0.461-1.843,1.037    c-1.843-0.576-1.266,1.959-3.225,1.614c-1.267-0.807-2.534,0.23-3.686-0.576c-0.691,0.69-0.806-0.691-1.612-0.461    c0-0.576-0.346-1.267,0-1.842c0.459-0.691,1.267,0.115,1.612-0.346c0.807,0.807,1.843,0.691,2.764,1.037    c1.382-0.461,3.11-0.921,4.263-1.843c0.922,0,1.381-0.461,2.303-0.691c5.068-1.267,10.021-2.764,15.091-3.455V57.83    c1.959-0.23,2.648,0,4.492-0.576C107.207,57.599,109.279,57.023,110.201,58.521z" />
		<path fill="#FFFFFF" d="M136.004,78.449c0.461,0.922,1.152,1.958,1.037,2.879c1.036,1.038,1.613,2.304,2.303,3.687    c-0.229,0.575-0.574,1.613-1.496,1.497c-1.729,0.461-3.111-0.23-4.378-1.267c0.116-0.345-0.23-0.691-0.461-0.806    c-0.114,0-0.345,0-0.46,0.23c0.346,0.461,0.115,1.152,0.69,1.612c0.462-0.115,0.23,0.346,0.692,0.576l1.728,0.806    c-2.304,0.461-4.607-0.921-6.221-2.764c1.843-1.382,5.644-1.612,5.414-4.954c-0.575,0-0.921-0.575-1.383-1.037    C133.932,78.104,136.004,76.606,136.004,78.449z" />
		<path d="M104.096,78.219c-0.23,1.152,0.691,2.304,0.461,3.571c0.23,1.381,0.922,2.649,1.612,3.8    c1.153,2.304,1.613,5.875,4.839,6.105c2.418,0.346,5.069,1.151,7.487,0.346c2.649,0.691,4.263-2.073,6.104-3.11    c0.117-0.922,1.152-1.037,1.729-1.613c0.461,0,1.268,0.345,1.268,1.037c-0.23,0.346-0.576,0.806-0.692,1.382    c-0.921,0.576-1.728,1.613-2.073,2.649c-1.612,0.23-2.534,1.958-4.262,2.074c-3.916,0.921-8.754,0.115-12.325-1.729    c-2.88-3.226-4.607-6.911-5.989-11.173c0.115-0.691-0.461-1.613-0.23-2.649C102.023,78.104,103.751,77.412,104.096,78.219z" />
		<path d="M92.002,82.596c-0.462,1.613-1.844,2.995-2.535,4.607c-1.958,2.995-3.225,6.451-5.298,9.561    c0.576,6.336,1.843,13.824,1.728,20.389h-0.345c-0.348-8.409-1.268-16.242-3.342-24.651c0.347-0.23,0-0.806,0.691-0.691    c0.691,0.921,0.461,2.188,0.922,3.11c2.189-1.843,2.88-4.953,4.955-7.027c0.229-0.46,0.459-0.921,0.805-1.497    c0.461-1.267,1.268-2.419,2.074-3.802H92.002z" />
		<path d="M86.012,119.227h-0.345l0.114-1.612C86.012,118.075,86.127,118.766,86.012,119.227z" />
		<path d="M86.012,120.724l-0.115,0.115c-0.462-0.23,0.115-0.69-0.116-1.151C86.012,120.032,86.127,120.264,86.012,120.724z" />
		<path d="M86.012,121.646c0.23,0.807-0.345,1.268,0,2.073l-0.115,1.037c-0.345-0.921-0.116-2.073-0.116-3.11H86.012z" />
		<path d="M86.012,125.102c0,0.114-0.231,0.229-0.231,0.229v-0.229H86.012z" />
		<path d="M85.781,128.097c-0.114-0.461-0.114-1.152,0-1.959C86.356,126.714,85.552,127.521,85.781,128.097z" />
		<path d="M85.204,131.667h0.462c-0.808,1.498-1.038,3.225-1.729,4.608l0.116,0.921c-1.267,1.037-1.497,3.11-3.11,3.802    c0-0.231,0.23-0.347,0.23-0.46l-0.114-0.116c-1.844,1.728-4.147,3.456-6.797,3.571c-1.382-0.115-2.419-1.498-3.686-1.152    c-0.116-0.115-0.346-0.23-0.346-0.576c1.152,0.23,2.304,0.115,3.457-0.461c1.612-0.576,2.764-1.728,4.147-2.418    c1.381-1.037,2.534-2.42,3.916-3.342c-2.188,2.535-4.953,5.07-7.948,6.682c0.46,0.576,1.267,0,1.958,0    c2.764-1.036,5.645-2.649,7.372-5.184c0.116-0.691,0.461-1.498,0.806-2.304c0.116-0.575,0.577-1.036,0.346-1.497l-2.304,2.188    l0.115-0.575c1.498-1.383,3.109-2.189,2.764-4.379l0.693-2.188C86.127,129.71,84.629,130.516,85.204,131.667z" />
		<path d="M36.594,141.919c-0.575-0.576-1.382-1.727-2.188-0.805c-0.807,1.035-1.382,2.418-1.844,3.455    c-0.922,0.921-1.152,2.188-1.958,3.34c-0.461,1.037-0.346,1.613-1.152,2.419c-0.576,1.843-1.382,3.687-2.534,5.185l0.115,0.114    c-1.843,3.802-3.802,7.948-5.759,11.749c-0.231,0.346-0.577,0.576-0.577,0.922c-0.658,1.205-1.39,2.498-2.157,3.822    c0.237,1.115,0.471,2.232,0.688,3.358c2.603-4.406,5.14-8.857,7.575-13.401c0.575-1.036,0.922-1.842,1.613-2.764    c0.23-1.844,1.497-2.535,1.842-4.263c1.038-1.036,0.923-2.304,1.959-3.341c-0.346-0.344,0.576-0.576,0.229-1.035    c0.231-0.231,0.231-1.038,0.691-0.692l0.577-1.843c0.345-0.576,0.576-1.382,1.151-1.844c0-1.15,0.922-1.957,1.499-2.764    C36.019,143.071,36.594,142.495,36.594,141.919z" />
	</g>
</g>
</svg>
