<?xml version="1.0" encoding="UTF-8"?>
<!-- Generator: Adobe Illustrator 25.2.1, SVG Export Plug-In . SVG Version: 6.00 Build 0)  -->
<svg xmlns="http://www.w3.org/2000/svg" xmlns:xlink="http://www.w3.org/1999/xlink" version="1.1" id="Lager_1" x="0px" y="0px" width="226.772px" height="226.772px" viewBox="0 0 226.772 226.772" style="enable-background:new 0 0 226.772 226.772;" xml:space="preserve"><rect fill="#FFFFFF" x="0px" y="0px" width="226.772px" height="226.772px" />
<style type="text/css">
	.st0{fill:url(#SVGID_1_);}
	.st1{fill:url(#SVGID_2_);}
	.st2{fill:#FFFFFF;}
	.st3{fill:none;stroke:#000000;stroke-width:3;}
	.st4{fill:none;stroke:#000000;stroke-width:2;}
	.st5{fill:none;stroke:#000000;stroke-width:1.3;}
	.st6{fill:none;stroke:#000000;stroke-width:1.9;}
</style>
<linearGradient id="SVGID_1_" gradientUnits="userSpaceOnUse" x1="153.5056" y1="-211.6366" x2="164.5003" y2="-185.0976" gradientTransform="matrix(1 0 0 -1 0 -19.2588)">
	<stop offset="0" style="stop-color:#FFFFFF" />
	<stop offset="0.522" style="stop-color:#F3F3F3" />
	<stop offset="1" style="stop-color:#EDEDED" />
</linearGradient>
<polygon class="st0" points="184.693,209.56 190.702,154.31 161.485,150.58 145.94,139.151 142.608,146.335 136.623,158.684   119.379,182.29 " />
<linearGradient id="SVGID_2_" gradientUnits="userSpaceOnUse" x1="56.9131" y1="148.102" x2="18.6013" y2="166.5974">
	<stop offset="0.5792" style="stop-color:#EDEDED" />
	<stop offset="1" style="stop-color:#FFFFFF" />
</linearGradient>
<polygon class="st1" points="33.743,211.762 44.6,171.562 61.981,129.479 33.438,120.503 20.128,113.386 16.167,119.671   9.497,130.696 3.883,139.151 " />
<rect x="315.44" y="-109.172" width="0.09" height="0.09" />
<path d="M107.002,42.264c-0.18-0.27-0.18-0.9,0.271-0.9c-0.36-0.36-0.721-0.9-1.261-1.17c-1.8-0.72-3.69-1.26-5.489-1.8  c-9-2.97-18.721-0.18-28.171-0.81c-0.72-0.09-1.619,0.18-2.34,0c-0.45,0.359-0.63,0.899-0.81,1.35c-3.78-0.18-7.83-0.271-11.61,0  c-3.6,0.45-6.48,2.79-9.27,4.86c-1.35,0-2.521,0.45-3.87,0.72c-2.61,0.72-3.42,3.87-5.67,5.22c-3.06,1.17-6.84,2.16-8.37,5.58h-0.27  c0,0-0.09,0-0.09-0.09c-1.8,3.15-2.25,6.75-3.15,10.26c-1.89,13.05-2.79,25.65-3.24,38.79c-0.664,2.324-1.524,4.501-2.399,6.711  c2.366,18.095,24.87,17.925,42.061,18.44c1.125-3.529,2.583-6.939,4.258-10.212c0.18,0,0.36-0.45,0.54-0.089  c2.61-1.711,5.22-3.061,7.56-4.95c0.9-0.45,1.98-1.261,2.879-1.98h0.271c0.45-0.63,1.17-1.26,1.979-1.53  c2.79-2.519,5.851-5.129,8.911-7.739l0.089-0.45c1.8-2.97,3.421-5.94,4.95-9.18c0.09-0.36,0.63-0.36,0.36-0.9  c1.53-2.43,1.979-5.13,3.15-7.65c0.359-0.18,0.359-0.45,0.27-0.72c0.18-0.45,0.63-0.54,0.99-0.81c2.7-4.14,5.04-8.73,7.65-13.14  c0.72-1.44,1.62-2.52,1.89-4.23h-0.09C109.612,57.744,109.433,49.733,107.002,42.264z" />
<path d="M168.394,40.104c0.9-0.72,1.26,0.54,1.89,0.9c0.18,0.72,1.53,1.44,0.45,2.16c0.9,0.09,0.36,0.99,0.36,1.44  c-1.081,3.24-1.89,6.48-3.06,9.72c-0.18,2.07-1.44,3.96-1.35,6.21c-0.99,0.27-0.45,1.89-1.8,1.71v0.09  c-0.9,0.09-1.26,0.81-2.25,0.81c-0.54,0.09-0.9-0.27-1.17-0.54v-0.9c1.35-0.45,2.521-1.17,3.691-1.89  c1.26-5.13,2.7-10.17,4.41-15.21l0.63-1.17c-0.63-0.99-1.17-2.43-2.79-2.43c-2.7-0.54-5.4-2.34-8.37-1.8  c-0.81,0.27-1.53,0.63-2.07,1.17c-2.97,0.899-3.779,4.319-5.13,6.66c-0.72,1.08-1.44,2.25-1.71,3.51  c-0.63-0.09-0.27,0.63-0.63,0.809c-0.45,1.53-1.44,2.97-1.62,4.5c-1.26,2.79-2.43,5.67-3.33,8.731c-0.27,0.81-1.35,1.979-0.45,2.879  l-0.9,0.9c-1.35,2.61-1.8,5.85-3.24,8.55c-0.27,0.09-0.54-0.18-0.63-0.359c-0.18-2.25,0.9-4.59,1.35-6.75  c-0.36,0.27-0.9,0.45-0.99,0.99c-1.44,4.41-1.53,8.91-1.53,13.59c0.899,2.16,0.63,4.68,1.62,6.84c0.36,3.15,1.17,6.3,2.07,9.36  c1.71,7.829,5.22,15.029,7.29,22.769c0.54,3.691-0.54,7.92-0.36,11.25c0,0.45-0.45,0.63-0.811,0.81  c-1.439-1.529-0.54-3.96-0.72-5.94c0.18-1.44,0.18-2.97,0.63-4.32c0.09-0.27-0.36-0.54,0-0.72c-3.06-8.91-6.66-18-8.64-27.45  c-1.17-3.87-1.44-8.01-2.7-11.88c0.09-2.43-0.09-4.59,0.18-7.02c-0.27-0.271,0.09-0.63,0-0.9c0.09-2.7,0.99-4.95,1.261-7.47  c0.81-1.35,2.52-1.8,3.779-2.7c3.42-8.82,5.58-18.18,11.16-26.101l0.09-0.629c2.07-0.63,3.78-2.16,5.94-2.52  C162.184,37.854,165.334,39.204,168.394,40.104z" />
<path class="st2" d="M98.812,39.564c-0.539,0.271-1.079,0.36-1.62,0.54c0.81,0.27,1.71-0.18,2.25-0.36  c1.98,0.99,5.22,0.54,5.76,3.15c2.16,7.56,2.97,16.02,1.71,23.76c-1.89,3.87-4.32,7.56-6.3,11.25c0-0.9,0.9-1.529,0.09-2.34  c-1.8-1.53-4.59-1.26-6.75-0.81c-1.08,0.81-1.351,2.25-2.16,3.331l-0.09,0.09c1.35-3.511,3.24-6.84,5.22-9.99  c-0.18-6.84-0.899-14.22-3.06-20.52c0.09-0.359-0.18-0.45-0.27-0.81c0-0.809-0.81-1.71-0.18-2.34c-0.54-2.52-3.42-1.89-5.13-2.79  c-0.181-0.09,0.27-0.09,0.45-0.09c0.09,0,0.09-0.18,0.09-0.18c-3.96,0.09-7.65-1.53-11.79-1.35c-0.271,0.09-0.09,0.36-0.181,0.54  c1.081,0.81,2.521,0.54,3.69,0.99c1.17,0.27,2.7,0.27,3.78,0.72c-0.54,0.45-1.261,0.81-1.8,1.08h-0.09l-0.27,0.27  c0.54,0.18,1.08-0.54,1.71-0.63c1.62-1.17,3.15,0.089,4.86,0.18c0.629,0.72,3.149,0.27,2.25,1.621  c2.7,7.109,3.689,15.479,4.14,23.31c-1.8,3.06-3.42,6.21-5.04,9.36c0.09-0.541-0.54-0.72-0.36-1.17c-0.09-0.45-0.54-0.811-1.08-1.08  c-2.07-0.36-4.5-0.99-6.48,0.27c0.18,0.18,0.36,0.09,0.45,0.09c-1.35,0.99-2.79,2.521-3.24,4.23l-0.63-0.45  c-0.81,0.45-0.181,1.44-0.09,2.07c0.9,1.71,2.97,1.89,4.41,2.25c-1.529,0.45-3.239-0.36-4.229-1.709  c-0.271-0.541-0.36-1.17-0.99-1.351c0.181-0.27-0.27-0.54-0.45-0.54c0.63-2.79,1.89-5.49,3.15-8.1c0-1.62,1.26-2.88,0.9-4.68  c0.54-0.9,1.35-2.25,0.45-3.33c0.63-7.021-1.8-13.59-4.32-19.8c-0.45-0.54-0.721-0.72-1.35-0.9c-4.95-1.71-10.89-2.16-16.2-1.53  l-1.171,0.54c0.45,0.72,1.8,0.18,2.61,0.63c2.07-0.18,4.5-0.359,6.39,0.18c0.45-0.45,1.081-0.089,1.71-0.089  c1.261,0.089,2.7,0.18,3.871,0.63c-1.26,0.27-2.79,0.27-4.14,0.9c-1.71,0.54-3.51,1.89-4.14,3.69l-0.629,0.72  c1.26,0.27,1.8-0.99,2.789-1.351c-0.18-0.45-0.539,0-0.899,0c1.26-2.7,4.5-2.7,7.02-3.419c0.72,0.18,1.62-0.27,2.25,0.18  c1.89,4.95,3.96,9.9,4.5,15.39l0.629,4.5l-3.419,9.45l-0.45,0.18c0.45,0.181,0.09,0.54,0.09,0.81l-0.181,0.45  c-0.27-1.44-1.35-0.09-2.25-0.45v0.45c-0.18-0.72-0.72,0.18-0.99-0.45c-0.99-0.09-2.25-0.27-3.15,0.09  c0.09-0.36-0.36-0.36-0.54-0.181c-0.63,0.99-2.43,0.631-2.34,2.07c-0.63,0.9-1.62,1.8-1.89,2.79c-0.99,0.36-0.27,1.89-1.53,1.71  c-0.63,1.351,0.72,2.16,1.26,3.061c0.63,0.359,1.17,0.81,1.89,0.899l0.181,0.27c2.88,0.45,5.85-0.27,8.01-1.89l1.35-0.9  c0.36,0.9,1.171,1.17,1.71,1.89c1.711,1.8,5.221,1.26,7.29,0.811c0.631-0.63,1.621-0.721,2.25-1.08c-0.09,0-0.09,0-0.09,0.09  l0.09,0.18c0.631-0.36,1.081-1.35,1.71-1.53l1.081,1.35c1.35,0.99,3.15,0.99,4.77,0.54c0.45,0.27,0.27,0.81,0.09,1.17  c-2.43,5.58-4.86,11.069-8.28,16.29c-4.95,3.87-9.72,8.46-14.85,11.88l-3.69,2.7c-0.18-0.629-0.99-0.629-1.621-0.54  c-1.8,1.08-1.979,3.06-2.97,4.59c-1.71,4.32-3.51,8.46-4.14,13.23c0.27,0.99,2.408-5.306,1.778-4.765  c-12.78-1.53-29.813,0.633-38.453-9.807c-1.35-2.25-2.475-0.547-2.835-3.158c1.98-3.87,3.69-7.74,5.13-11.79  c0.27-0.36,0.09-1.17-0.09-1.62l-0.45-0.27c0.9-14.581,1.89-29.07,4.5-43.471c1.35-0.18,1.35-1.8,1.979-2.7  c1.53-4.77,7.38-3.149,9.81-6.75c1.35-1.079,1.8-2.97,3.51-3.6c1.71-0.45,3.69-0.63,5.49-0.9c0.54-0.27,0.27-0.989,0.27-1.35  c1.98-1.44,4.05-2.88,6.57-3.24c0.18-0.36,0.63-0.18,0.81-0.18c1.98-0.54,4.14-0.27,6.03-0.45c2.34,0.09,4.86,0.09,6.93-0.27  c0.09-0.18,0.54-0.45,0.18-0.63l4.05-0.181l0.09,0.181c0.99-0.36,1.71-0.09,2.79-0.271c3.6-0.27,7.65-0.09,11.34,0.45l2.16-0.27  l0.27-0.45C94.402,38.574,96.473,39.113,98.812,39.564z" />
<path d="M97.102,40.284c-0.359,0.45-1.26,0.18-1.8,0.45C95.752,40.284,96.833,40.193,97.102,40.284z" />
<path d="M95.123,40.733c0,0.36-0.63,0.27-0.811,0.45C94.312,40.913,94.852,40.824,95.123,40.733z" />
<path d="M94.043,41.363c-0.72,0-0.9,0.721-1.44,0.721c-0.18-0.54,0.631-0.9,1.171-0.99l0.18-0.09  C94.043,41.003,93.953,41.273,94.043,41.363z" />
<path d="M177.844,42.084c2.79,0.629,5.58,1.35,8.1,2.43c0.9-0.72,1.26,0.63,1.98,0.45c0.45,0.54,0,1.26,0.36,1.71  c0.36,0.72-0.54,1.26-0.271,1.89c-0.18,2.79-1.169,5.58-1.439,8.46c-0.54,2.7-0.99,5.58-1.44,8.19c-0.36,0.27-0.45,0.81-0.9,0.72  c-0.9-0.81-0.36-2.16-0.36-3.24c0.54-4.95,1.89-9.54,2.79-14.49c0.36-0.63-0.09-1.44-0.36-2.07c-2.52-1.08-5.399-1.89-8.1-2.7  c-0.81,0.09-1.8-0.63-2.61,0.09l-3.331,2.16c-0.539-0.09-1.079-0.36-0.989-0.99c0.18-0.81,1.17-1.08,1.8-1.53  c1.439-0.629,2.88-1.26,4.5-1.71L177.844,42.084z" />
<path d="M85.672,43.794c-0.27,0.359-0.63,0.18-1.08,0.18C84.953,44.244,85.312,43.434,85.672,43.794z" />
<path d="M87.023,43.704c0,0.09,0,0.18,0,0.18h-0.271v-0.18C86.842,43.704,87.023,43.613,87.023,43.704z" />
<path d="M86.123,43.704h0.18H86.123z" />
<path d="M84.233,43.974h-0.631c0.09-0.18,0.45-0.09,0.631-0.18V43.974z" />
<polygon points="83.243,43.974 83.062,43.974 83.152,43.974 " />
<path d="M81.533,44.064c-0.271,0.63-1.26,0.9-1.53,1.62C80.273,45.233,80.723,44.153,81.533,44.064z" />
<path d="M201.784,50.184l1.71,2.52c-0.09,2.25,0.09,4.68,0.27,6.75c0.54-0.72,1.351-1.71,2.34-1.62c2.43,0.629,5.22,1.62,6.03,4.319  c0.81,3.24,1.08,6.84,1.35,10.26c0.36,0.27-0.09,0.721,0.09,1.081c0.36,9.27,0,17.64-0.09,27.27c-1.44,4.14-3.42,8.19-4.95,12.24  c-0.63,0.72-0.81,1.98-1.44,2.791c-2.16,5.04-4.86,9.899-7.29,14.85c-0.72,0.54-0.45,1.53-1.169,1.98  c-1.44,2.52-2.97,4.859-4.41,7.379c-0.36,0.9,0,1.89-0.63,2.7c0,1.71-0.72,3.24-0.36,4.95c-0.181,0.54-0.36,1.71-1.35,1.26  c-1.26-1.26-0.45-3.6-0.36-5.129c0.54-1.8,0.18-4.23,1.8-5.4c6.84-11.79,12.87-23.94,17.82-36.63l0.45-1.709  c0.09-12.24,1.35-25.2-1.26-36.9c-0.809-1.62-1.98-3.06-4.05-2.97c-0.09-0.18-0.271-0.36-0.36-0.54c-0.54,0.27-1.17,0.81-1.8,0.27  l-0.27-0.18c-0.36,3.6,0.27,7.65-0.629,11.43c0.539,0.36-0.09,0.81,0,1.26c0.359,1.261-0.721,2.881,0.629,3.78  c0,0.54,0.72,0.99,0.18,1.53c-0.18,0.54-0.72,0.27-1.08,0.09c-1.53-0.99-0.63-2.7-0.9-4.229c0.271-7.29,0.36-14.76-0.54-21.78  c-2.97-1.53-5.669-3.42-8.91-4.141c-1.08,0.36-1.89,1.261-3.06,1.44c-0.27-0.09-0.72-0.18-0.81-0.54c-0.45-0.81,0.63-1.17,0.99-1.53  c1.169-0.09,1.62-2.16,2.789-1.08l0.181-0.09C195.664,47.213,198.904,48.474,201.784,50.184z" />
<path d="M69.562,46.584c-0.27,0.09-0.539,0.269-0.81,0.359C68.752,46.764,69.203,46.494,69.562,46.584z" />
<path d="M68.393,47.034c-0.09,0.27-0.541,0.45-0.81,0.54c-0.18-0.27,0.18-0.36,0.27-0.45C68.033,47.034,68.212,47.124,68.393,47.034  z" />
<rect x="64.342" y="49.104" width="0.09" height="0.09" />
<path d="M61.192,55.854c2.52,4.41,4.59,9.271,6.39,14.04c-0.45,1.26,0.81,0.81,1.17,1.44c-1.17,4.68-3.42,9.54-7.47,12.419  c-0.45,0.09-1.17,0.18-1.26,0.81c-1.621-0.36-3.33,0-4.86-0.54c-1.26-0.899-2.7-1.8-3.69-3.06c-1.35-1.98-2.7-4.32-1.44-6.75  c0.45-0.18,1.17,0,1.17,0.54c0,0.99,0.09,1.89,0.54,2.7c0.18,1.17,0.9,2.16,1.8,3.15c0.45-0.9,1.35-1.53,1.62-2.52  c0.45-0.271,0.99-1.081,1.71-0.63c0.72-0.45,1.89-0.36,2.61,0.09c0.81-0.36,1.169,0.63,2.069,0.45c0.63,0.27,1.441,0.27,1.98,0.72  c1.529-2.07,2.97-4.5,2.97-7.11c-0.45-0.27,0.09-0.9-0.36-1.08c-1.89-4.95-3.78-9.99-6.75-14.49c-1.081-0.18-2.07,0.81-3.06,1.26  c-1.44,1.08-2.97,2.069-4.41,2.88c0.63-1.17,2.07-1.261,2.88-2.34l3.78-2.79c-0.271-0.45-0.63-1.17-1.17-1.17  c-0.63-0.181-0.9-0.54-1.71-0.271l-0.99,0.54l0.36,0.09c-1.98,0.811-3.69,2.43-4.771,4.23c-0.72,1.081-1.26,2.161-1.8,3.24  l-0.09,0.09c0.09-0.36,0.18-0.9,0.36-1.351c0.089,0.09,0.27,0.09,0.359-0.09c-0.27-0.36,0.18-0.54,0.09-0.9  c0.27-0.18,0.45-0.36,0.54-0.54c0,0.09,0.09,0,0.18,0c0.09-0.27,0.45-0.72,0-0.899c1.71-1.62,2.97-3.51,4.86-4.86l-0.18-0.18  c-2.16-0.63-4.59-0.36-6.48-1.35c-0.09-0.271,0.27-0.36,0.45-0.45C53.273,51.443,58.762,50.903,61.192,55.854z" />
<polygon points="55.252,54.054 55.342,53.963 55.523,54.054 " />
<rect x="57.413" y="54.144" width="0.09" height="0.09" />
<rect x="50.302" y="61.253" width="0.09" height="0.09" />
<polygon points="47.873,62.604 47.783,62.244 47.873,62.514 " />
<path d="M180.904,65.124c0.45,0.18,0.899,0.45,0.899,0.989c-0.18,0.271,0.181,0.36,0.181,0.63c0.18,1.26-0.09,2.7-0.721,3.87  c0,0.9-0.359,1.71-0.809,2.431c-0.36,1.53-1.441,2.79-2.52,3.959c-0.271-0.27,0.359-0.45,0.18-0.72c1.98-2.61,3.24-5.58,3.42-8.91  c0-0.63,0-1.621-0.81-1.891l-0.9,0.18c0.63,1.53,0.54,3.421,0.36,5.131c-0.36,0.63-0.181,1.439-0.631,2.16v0.54  c-0.45,0-0.629,0.72-0.899,1.169c-0.27,1.261-1.17,2.161-2.25,2.881v0.09l-0.09-0.09c3.15-3.331,4.59-8.28,2.7-12.69l0.181-0.18  C179.644,65.844,180.274,64.674,180.904,65.124z" />
<path d="M49.493,67.824c0.9,1.53,1.62,3.33,2.7,4.589c0.541,0.99,1.35,1.8,2.43,2.431c0.18,0.18,0.18,0.72,0,0.9  c-0.63,0.81-1.35-0.27-1.98-0.45c-1.081-0.72-1.8-1.71-2.52-2.791c-0.36,0.36-0.811,0.18-1.17,0.27c-0.99,0.45-2.16,0.45-3.15,0.72  c0.09-0.45,0.81-0.63,1.26-0.63c0.9-0.36,1.891-0.45,2.79-0.72c0.09-0.18-0.09-0.27-0.18-0.36c-1.8,0.72-3.51-0.27-5.4,0.09  c-1.711-0.36-3.24-1.53-4.05-3.061v-0.63c1.8-0.18,2.61,2.43,4.5,2.34c1.62,0.9,2.339-0.36,3.96-0.27c0-0.45-0.18-1.08-0.54-1.44  c0.09-0.9-0.36-2.16,0.36-2.7C49.223,66.294,49.312,67.193,49.493,67.824z" />
<path d="M34.283,73.584c1.62,0.99,3.87,0.629,5.4,0.81c1.169-0.54,2.7-0.36,3.96-0.9c0.63-0.18,1.169,0,1.709-0.45l0.271,0.27  c-0.54,0.63-1.44,0.54-2.25,0.72c-2.07,0.45-4.14,0.9-6.39,0.72c-0.9,0.18-1.71,0-2.521-0.36c-0.54-0.18-0.54-0.72-0.72-1.08  l0.09-0.27C34.283,72.954,34.102,73.314,34.283,73.584z" />
<path class="st2" d="M99.802,75.924c-0.63,2.25,0.181,6.03-2.88,6.66c-1.89-0.181-4.86,0.54-5.67-1.71  c0.9-1.711,2.25-3.33,3.06-5.13C96.203,75.384,98.092,74.844,99.802,75.924z" />
<path class="st2" d="M74.062,75.294c-0.089,0.18,0,0.18,0.09,0.27c0.27,0,0.72,0.18,1.081,0.271v-0.36  c0.27,1.26,0.09,2.7-0.271,4.05l0.36,0.09l-0.63,2.34c-1.89,0.81-3.96,1.89-6.12,0.9c-0.721-0.45-1.71-0.9-2.07-1.62  c-0.09-0.63-0.09-0.99-0.27-1.439c1.529-1.62,2.52-4.32,5.22-4.23c0.18-0.45,0.54,0.09,0.72-0.27  C72.802,75.384,73.523,75.924,74.062,75.294z" />
<path class="st2" d="M88.283,76.193c0.63,0.45,0.72,1.53,0.72,2.34c0.45,0.629-0.27,1.26-0.09,2.07c0.27,0.54-0.27,0.9-0.36,1.35  c-1.529,0.72-3.24,1.53-4.95,0.9c-1.26-0.18-2.7-0.45-3.689-1.35c-0.36-2.7,2.25-4.5,4.14-5.94  C85.583,75.744,86.933,75.924,88.283,76.193z" />
<rect x="177.574" y="77.094" width="0.09" height="0.09" />
<path class="st2" d="M58.942,77.454l0.18,0.09c-0.36-0.181-0.72,0.359-1.17,0.09C58.132,77.454,58.762,77.454,58.942,77.454z" />
<path class="st2" d="M61.373,78.624c0.54,0.27,1.08,0.629,1.35,1.17c0.089,1.08-1.08,1.35-1.26,2.25  c-0.45,0.99-1.26-0.181-1.89,0.359c-1.62-0.359-3.511-0.45-4.5-1.979c0-0.45,0.45-0.99,0.9-1.08c-0.36-0.36,0.27-0.63,0.45-0.99  C58.043,78.264,59.842,78.354,61.373,78.624z" />
<path class="st2" d="M91.703,78.624l-0.18,0.18v-0.45C91.612,78.354,91.703,78.534,91.703,78.624z" />
<path d="M61.462,87.624c-0.45,3.149-0.45,6.75-0.99,9.899c-0.09,2.16-0.9,4.05-1.08,6.21c-0.18,0.811-0.541,1.62-0.27,2.43  l0.27-0.27c-1.53,2.97-4.86,4.95-7.38,7.02c-0.54-0.18,0-0.45,0.09-0.72c1.171,0.45,0.631-1.17,1.8-1.17  c0.45-0.81,1.35-1.62,2.25-2.07c0.72-0.54,1.17-1.35,2.07-1.89c0.27-1.35,0.45-2.79,0.9-3.87c0.18-2.16,0.54-4.319,1.08-6.3  l-0.18-0.36c0.81-2.7,0.18-5.4,1.079-8.01c-0.27-0.36-0.09-0.63,0-1.08c-0.18-1.08-0.09-1.89-0.18-3.06  C61.733,85.193,61.373,86.363,61.462,87.624z" />
<path d="M28.973,109.314c0.18-0.27,0.18-0.63,0.629-0.54l0.541,1.08c4.23,1.53,8.64,2.79,13.05,3.51c2.25,0.181,4.5,0.54,6.93,0.271  l-0.54,0.54c-0.54-0.54-1.44,0.27-2.16-0.271l-0.27,0.181c-5.49-0.181-11.07-1.621-16.11-3.331c0.63,1.35,2.34,1.89,3.51,2.52  c2.34,0.9,4.86,1.71,7.29,1.98c0.36,0.36,0.99-0.09,1.53,0.18c1.17,0.18,2.88,0.18,4.14,0.09l-0.54,0.54  c-5.4,0.18-10.35-0.81-14.94-3.15c-2.07-0.539-2.07-3.149-4.23-3.6c-0.269-0.18-0.45-0.54-0.809-0.63l0.09-0.45  C27.623,108.773,28.252,109.044,28.973,109.314z" />
<rect x="49.223" y="115.523" width="0.18" height="0.09" />
<g>
	<g>
		<g>
			<path class="st3" d="M17.072,130.613c0,0,7.301,36.91,42.846,33.455" />
			<g>
				<polygon points="74.388,160.806 55.689,173.447 58.791,164.074 52.188,156.737     " />
			</g>
		</g>
	</g>
</g>
<path class="st4" d="M147.297,135.61c-4.853,13.8-13.421,24.729-20.73,37.4" />
<path class="st4" d="M191.119,150.066c-1.766,22.436-2.72,30.732-6.096,52.983" />
<path class="st5" d="M150.986,141.827c2.843,6.242,10.022,9.284,16.794,10.376c5.592,0.902,11.335,0.863,16.914-0.115" />
<path class="st5" d="M22.488,119.671c2.843,6.242,11.061,9.284,17.833,10.376c5.592,0.902,11.335,0.863,16.914-0.115" />
<path class="st6" d="M61.981,129.479c-13.512,31.216-22.309,51.27-28.238,80.082" />
<path class="st4" d="M21.273,111.281c-4.201,7.936-5.327,7.878-9.669,15.873" />
<path class="st2" d="M32.16,123.585c1.951,1.801,3.965,3.641,6.441,4.601c1.603,0.621,3.331,0.843,5.044,0.999  c3.374,0.307,6.769,0.379,10.153,0.214c0.857-0.042,1.761-0.114,2.468-0.6c0.498-0.341,0.847-0.854,1.184-1.354  c1.2-1.78,2.423-3.612,2.907-5.704" />
</svg>
