<?xml version="1.0" encoding="UTF-8"?>
<!-- Generator: Adobe Illustrator 25.2.1, SVG Export Plug-In . SVG Version: 6.00 Build 0)  -->
<svg xmlns="http://www.w3.org/2000/svg" xmlns:xlink="http://www.w3.org/1999/xlink" version="1.1" id="Lager_1" x="0px" y="0px" width="475px" height="226.8px" viewBox="0 0 475 226.8" style="enable-background:new 0 0 475 226.8;" xml:space="preserve"><rect fill="#FFFFFF" x="0px" y="0px" width="475px" height="226.8px" />
<style type="text/css">
	.st0{fill:#FFFFFF;}
	.st1{fill:url(#SVGID_1_);}
	.st2{fill:none;stroke:#000000;}
	.st3{fill:none;stroke:#000000;stroke-width:2;stroke-linecap:round;}
	.st4{fill:none;stroke:#000000;stroke-width:1.6;stroke-linecap:round;}
	.st5{fill:none;stroke:#000000;stroke-width:0.75;stroke-linecap:round;}
	.st6{fill:url(#SVGID_2_);}
	.st7{fill:url(#SVGID_3_);}
	.st8{fill:none;stroke:#000000;stroke-linecap:round;}
	.st9{fill:url(#SVGID_4_);}
	.st10{fill:none;stroke:#000000;stroke-width:2;}
	.st11{fill:none;stroke:#000000;stroke-width:1.5;stroke-linecap:round;stroke-linejoin:bevel;}
	.st12{fill:none;stroke:#000000;stroke-width:1.5;stroke-linecap:round;}
	.st13{fill:none;stroke:#000000;stroke-width:1.4;stroke-linecap:round;}
</style>
<rect x="0.3" y="0.3" class="st0" width="473.3" height="226.8" />
<g>
	
		<linearGradient id="SVGID_1_" gradientUnits="userSpaceOnUse" x1="32.5275" y1="830.8198" x2="42.9701" y2="805.6133" gradientTransform="matrix(1 0 0 1 0 -616)">
		<stop offset="0" style="stop-color:#FFFFFF" />
		<stop offset="1" style="stop-color:#EDEDED" />
	</linearGradient>
	<polygon class="st1" points="61.3,220.3 71.3,180.1 50.6,178.1 27.9,169.1 28.4,170.9 20.4,183.7 4.6,207.3  " />
	<path class="st2" d="M32.8,170.5c0,0,13.7,10.1,35.8,9.2" />
	<path class="st3" d="M7.9,204.3c0-1,23.3-37,24.1-41.9c0.8-4.9,12.7-70.1,12.7-70.1" />
	<path class="st3" d="M43.4,92.2c0,0-2-9.6,4.6-12.3" />
	<g>
		<path class="st3" d="M52.2,89.6l23.6-13c1.3-0.7,3.4-0.8,4.8-0.3l16.1,6.3c1.3,0.5,3,2.1,3.6,3.5l2.2,4.9" />
	</g>
	<path class="st3" d="M52.6,77.8l29.1-15.6c1.3-0.7,3.3-0.5,4.5,0.3l19.2,14.1c1.2,0.9,2.7,2.7,3.4,4.1l2.1,4.2" />
	<path class="st4" d="M92.7,54.2l4.3-0.4c1.4-0.1,3.4,0.7,4.4,1.8l9.9,11.3c1,1.1,2.2,3.2,2.8,4.7l1.4,3.8" />
	<path class="st3" d="M48.8,79.2l34-26.5c1.2-0.9,3.1-0.9,4.2,0.1L108.2,70c1.1,0.9,2.6,2.8,3.3,4.2l2.9,6.1" />
	<path class="st3" d="M67.8,101.6c0,0,4.7-0.9,7.9-6.3" />
	<path class="st3" d="M74.4,94.5c0,0,7.2,3.1,15.4,1.7" />
	<path class="st3" d="M87,94.7c0,0,10.9,15.4,20.2,4l-4.9-6.9" />
	<path class="st3" d="M108,100.3c0,0,5,1.3,7.9-5.8l-5.1-7.7" />
	<path class="st3" d="M114.7,81.3l4,8c0,0-1.5,3.1-2.7,3.3" />
	<path class="st3" d="M88.1,99.8l3.7,9.7c0,0,2.7,2.2,6.9,2.2" />
	<line class="st3" x1="96" y1="113.6" x2="105.6" y2="105.6" />
	<path class="st3" d="M105.4,102.1c0,0,0.8,4.2,1.2,5.9" />
	<g>
		<path d="M72.1,101.2c0,0,0.2,0.1,0.4,0.6c0.1,0.2,0.2,0.5,0.2,0.8c0.1,0.3,0.1,0.7,0.1,1c0,0.4,0,0.8,0,1.2c0,0.4-0.1,0.9-0.2,1.4    s-0.1,1-0.3,1.4c-0.1,0.5-0.2,1-0.4,1.5c-0.3,1-0.6,1.9-0.9,2.8c-0.2,0.4-0.4,0.8-0.5,1.2c-0.2,0.4-0.3,0.8-0.5,1.1    c-0.3,0.7-0.6,1.2-0.8,1.6c-0.2,0.4-0.3,0.6-0.3,0.6s0.1-0.2,0.2-0.7c0.1-0.4,0.3-1,0.5-1.7s0.5-1.5,0.7-2.4    c0.3-0.9,0.6-1.8,0.8-2.8c0.2-0.5,0.3-0.9,0.4-1.4s0.2-0.9,0.3-1.4c0.1-0.4,0.2-0.9,0.3-1.3c0-0.4,0.1-0.8,0.2-1.2    c0.1-0.7,0.1-1.3,0-1.8C72.3,101.4,72.1,101.2,72.1,101.2z" />
	</g>
	<g>
		<path d="M69.1,112.6c0,0,0.1,0.9,0.2,2.4c0.1,1.6,0.2,3.8,0.3,6.4c0.1,2.7,0.2,5.8,0.3,9.1c0.1,3.3,0.1,6.9,0.1,10.5    c0,1.8-0.1,3.6-0.1,5.3c0,0.9-0.1,1.8-0.2,2.6c-0.1,0.9-0.1,1.7-0.4,2.6c-0.5,1.7-1.4,3.1-2.2,4.3c-0.9,1.2-1.8,2.3-2.6,3.3    c-1.7,1.9-3.4,3.3-4.5,4.2c-0.6,0.5-1.1,0.8-1.4,1c-0.3,0.2-0.5,0.3-0.5,0.3s0.2-0.1,0.5-0.4c0.3-0.2,0.8-0.6,1.3-1.1    c1.1-1,2.6-2.5,4.2-4.4c0.8-1,1.7-2.1,2.5-3.3s1.6-2.6,2-4.1c0.2-0.7,0.3-1.6,0.3-2.4c0.1-0.8,0.1-1.7,0.1-2.6    c0.1-1.7,0.1-3.5,0.1-5.3c0-3.6,0-7.1,0-10.4c0-3.3,0-6.5,0-9.1c0-2.7,0-4.9,0-6.5C69.1,113.5,69.1,112.6,69.1,112.6z" />
	</g>
	<g>
		<path d="M54.2,161.9c0,0,0.2-0.1,0.5-0.3s0.8-0.5,1.4-0.9c0.6-0.4,1.2-0.8,2-1.2c0.7-0.4,1.5-0.9,2.3-1.3c0.8-0.4,1.5-0.9,2.3-1.3    c0.7-0.4,1.4-0.8,1.9-1.2c0.6-0.4,1-0.7,1.3-0.9s0.5-0.4,0.5-0.4s-0.1,0.2-0.4,0.5c-0.1,0.2-0.3,0.4-0.5,0.6    c-0.2,0.2-0.4,0.5-0.7,0.7c-0.5,0.5-1.1,1-1.8,1.5s-1.5,1-2.2,1.4c-1.6,0.9-3.2,1.7-4.4,2.1c-0.6,0.2-1.2,0.4-1.5,0.5    C54.5,161.9,54.2,161.9,54.2,161.9z" />
	</g>
	<g>
		<path d="M89.7,104.2c0,0,0.1,0.3,0.3,1c0.2,0.6,0.5,1.5,0.8,2.5c0.7,2.1,1.4,5,2.1,7.8c0.7,2.9,1.3,5.8,1.7,8    c0.2,1.1,0.3,2,0.4,2.7c0.1,0.6,0.1,1,0.1,1s-0.4-1.4-1-3.5s-1.4-5-2.1-7.8c-0.7-2.9-1.3-5.8-1.8-7.9c-0.2-1.1-0.4-2-0.5-2.6    C89.8,104.6,89.7,104.2,89.7,104.2z" />
	</g>
	<path class="st3" d="M114.8,74l4.3,8.9c0,0-0.9,1.4-2,1.4" />
	<path class="st3" d="M119.8,84.4c0,0,3.8,0.7,0.8,12.6" />
	<g>
		<path d="M121.1,97.6c0,0,0.2,0.5,0.6,1.3c0.2,0.4,0.4,0.9,0.5,1.5c0.2,0.6,0.4,1.3,0.6,2.1c0.2,0.8,0.4,1.6,0.5,2.5    s0.2,1.9,0.2,2.9c0,0.5,0,1-0.1,1.6c0,0.5-0.1,1.1-0.2,1.6c-0.2,1.1-0.6,2.1-1.1,3.2c-0.3,0.5-0.6,0.9-0.9,1.4    c-0.3,0.4-0.7,0.8-1,1.1c-0.7,0.8-1.4,1.4-2.1,2.1c-1.4,1.3-2.7,2.3-4,3.2c-2.4,1.7-4.2,2.5-4.2,2.5s1.4-1.4,3.6-3.4    c1-1,2.3-2.2,3.5-3.6c0.6-0.7,1.2-1.4,1.9-2.1c0.3-0.4,0.6-0.7,0.9-1.1c0.2-0.4,0.5-0.7,0.7-1.1c0.4-0.8,0.8-1.7,0.9-2.6    c0.1-0.5,0.2-0.9,0.3-1.4c0.1-0.5,0.1-0.9,0.1-1.4s0.1-0.9,0.1-1.4c0-0.4,0-0.9,0-1.3c0-0.9-0.1-1.7-0.1-2.4    c-0.1-1.5-0.3-2.8-0.4-3.7C121.2,98.1,121.1,97.6,121.1,97.6z" />
	</g>
	<g>
		<path d="M110.7,121.3c0,0-0.2,1-0.8,2.6c-0.3,0.8-0.6,1.8-1.1,2.9c-0.4,1.1-1,2.3-1.6,3.6c-0.7,1.3-1.4,2.7-2.2,4.1    c-0.9,1.4-1.7,2.9-2.8,4.4c-1,1.5-2.1,3-3.3,4.5c-1.1,1.5-2.4,2.9-3.7,4.4c-1.3,1.4-2.6,2.7-3.9,4.1c-1.4,1.3-2.7,2.5-4.1,3.6    s-2.7,2.1-4,3.1s-2.6,1.8-3.7,2.5c-1.2,0.8-2.2,1.5-3.2,2s-1.8,1-2.5,1.4c-1.4,0.8-2.2,1.2-2.2,1.2s0.7-0.6,2-1.5    c0.7-0.5,1.5-1,2.4-1.7c0.9-0.6,1.9-1.5,3-2.3c0.5-0.4,1.1-0.9,1.7-1.3c0.6-0.5,1.2-0.9,1.8-1.5c1.2-1,2.5-2.1,3.8-3.3    s2.5-2.5,3.9-3.7c1.3-1.3,2.6-2.7,3.8-4c1.2-1.4,2.5-2.8,3.6-4.2s2.3-2.8,3.3-4.3c1.1-1.4,2-2.8,2.9-4.2c0.5-0.7,0.9-1.4,1.3-2    c0.4-0.7,0.8-1.3,1.2-1.9c0.7-1.2,1.4-2.4,1.9-3.4c0.6-1,1-1.9,1.4-2.7c0.4-0.8,0.7-1.4,0.8-1.8    C110.6,121.5,110.7,121.3,110.7,121.3z" />
	</g>
	<line class="st3" x1="75.9" y1="159.4" x2="63" y2="217.1" />
	<g>
		<path d="M100.9,93c0,0-0.3,0.5-0.7,1.2c-0.2,0.4-0.3,0.8-0.3,1.3c0,0.2,0,0.4,0.1,0.7c0,0.2,0.1,0.4,0.3,0.6    c0.1,0.2,0.3,0.5,0.4,0.7c0.2,0.2,0.3,0.4,0.4,0.6c0.3,0.4,0.6,0.8,0.9,1.1c0.5,0.6,0.9,1,0.9,1s-0.6-0.1-1.3-0.6    c-0.4-0.2-0.7-0.6-1.1-0.9c-0.2-0.2-0.4-0.4-0.6-0.6c-0.2-0.3-0.3-0.4-0.5-0.7c-0.2-0.3-0.3-0.6-0.3-1c-0.1-0.3-0.1-0.7,0-1    c0-0.3,0.2-0.6,0.3-0.8c0.1-0.2,0.3-0.4,0.4-0.6C100.4,93.2,100.9,93,100.9,93z" />
	</g>
	<g>
		<path d="M109.2,87.8c0,0-0.2,0.1-0.5,0.3c-0.3,0.2-0.7,0.6-0.8,1.1c-0.1,0.3-0.1,0.6-0.1,0.9s0.1,0.7,0.3,1    c0.1,0.4,0.3,0.8,0.4,1.2c0.1,0.4,0.3,0.8,0.4,1.2c0.3,0.8,0.6,1.6,1.1,1.9c0.2,0.2,0.5,0.3,0.9,0.3c0.3,0,0.6,0,0.9,0    c0.6-0.1,1.1-0.2,1.4-0.3c0.4-0.1,0.6-0.1,0.6-0.1s-0.2,0.1-0.5,0.3c-0.2,0.1-0.3,0.2-0.6,0.3c-0.2,0.1-0.5,0.2-0.8,0.3    c-0.3,0.1-0.7,0.2-1.1,0.2s-0.8-0.1-1.2-0.3c-0.4-0.3-0.7-0.6-1-1.1c-0.2-0.4-0.4-0.8-0.6-1.3c-0.3-0.9-0.5-1.7-0.8-2.5    c-0.1-0.4-0.2-0.9-0.2-1.3s0.1-0.9,0.3-1.2c0.3-0.7,0.9-1,1.2-1.1C108.9,87.8,109.2,87.8,109.2,87.8z" />
	</g>
	<path class="st5" d="M113.5,82.2c0,0-0.9,0.8-1.7,2.2" />
	<g>
		<path d="M114.8,90.8c0,0,0.1-0.2,0.4-0.5c0.2-0.3,0.5-0.6,0.8-0.8c0.3-0.3,0.6-0.5,0.8-0.8c0.1-0.1,0.2-0.2,0.3-0.3    c0.1-0.1,0.1-0.1,0.1-0.1s0.1,0.3,0,0.6c-0.1,0.4-0.4,0.8-0.7,1.1c-0.3,0.3-0.7,0.5-1.1,0.6C115.1,90.8,114.8,90.8,114.8,90.8z" />
	</g>
	<g>
		<path d="M75,100.4C75,100.4,75.1,100.4,75,100.4c0.2,0.2,0.3,0.4,0.3,0.6c0.1,0.2,0.1,0.5,0.1,0.8s0,0.7,0,1.1    c-0.1,0.8-0.2,1.7-0.5,2.7s-0.6,2-1,2.9c-0.8,1.9-1.8,3.8-2.5,5.1c-0.4,0.7-0.8,1.2-1,1.6s-0.4,0.6-0.4,0.6s0.1-0.3,0.2-0.7    c0.2-0.4,0.4-1,0.7-1.7c0.3-0.7,0.6-1.6,1-2.4c0.4-0.9,0.8-1.8,1.1-2.8c0.2-0.5,0.4-0.9,0.6-1.4s0.4-0.9,0.5-1.4    c0.3-0.9,0.6-1.8,0.7-2.5c0.1-0.4,0.1-0.7,0.2-1c0-0.3,0-0.6,0-0.8c0-0.2,0-0.4-0.1-0.5C75,100.5,75,100.4,75,100.4z" />
	</g>
</g>
<g>
	<g id="Färg_1_">
		
			<linearGradient id="SVGID_2_" gradientUnits="userSpaceOnUse" x1="-112.5702" y1="-666.8064" x2="-104.0617" y2="-654.1725" gradientTransform="matrix(0.9084 -0.4181 -0.4181 -0.9084 -4.2581 -446.167)">
			<stop offset="0" style="stop-color:#FFFFFF" />
			<stop offset="1" style="stop-color:#EDEDED" />
		</linearGradient>
		<polygon class="st6" points="196.5,207.8 194.9,185.3 195.7,169.2 192.2,171.1 178.9,172.5 167.7,171.2 156.7,167.9 147.7,207.6       " />
	</g>
	<g>
		<path d="M155.1,15c1.1-0.6,2.3-1.1,3.6-1.3s2.6-0.1,3.9,0.3c1.3,0.4,2.5,1.3,3.4,2.4c0.9,1.1,1.6,2.4,2.1,3.7    c1,2.7,1.4,5.6,1.5,8.4s0,5.6-0.3,8.4l-0.2-0.8c0.3,0.5,0.4,0.9,0.6,1.3c0.2,0.4,0.4,0.9,0.5,1.3c0.3,0.9,0.6,1.8,0.9,2.7    c0.5,1.9,0.8,3.8,1,5.7s0.2,3.9,0.1,5.8c-0.2,1.9-0.5,3.8-1,5.7V58c0.5,2.1,0.9,4.2,1.2,6.3c0.2,1.1,0.3,2.1,0.4,3.2    c0.1,1.1,0.2,2.1,0.3,3.2s0.2,2.1,0.2,3.2c0,0.5,0,1.1,0,1.6v1.6c0,0.5,0,1.1-0.1,1.6c0,0.5-0.1,1.1-0.1,1.6    c-0.1,0.5-0.1,1.1-0.2,1.6l-0.3,1.6l0.1-1.6c0-0.5,0-1.1,0-1.6c0-1.1-0.1-2.1-0.1-3.2l-0.1-1.6c0-0.5-0.1-1-0.2-1.6    c-0.1-1-0.3-2.1-0.4-3.1c-0.3-2.1-0.7-4.1-1.2-6.2c-0.2-1-0.4-2.1-0.7-3.1c-0.2-1-0.5-2-0.8-3l-0.1-0.3l0.1-0.3    c0.4-1.7,0.6-3.5,0.7-5.3c0.1-1.8,0.1-3.6-0.1-5.3c-0.2-1.8-0.5-3.5-1-5.2c-0.2-0.9-0.5-1.7-0.8-2.5c-0.2-0.4-0.3-0.8-0.5-1.2    s-0.4-0.8-0.5-1.1l0-0.3v-0.4c0.1-1.3,0.3-2.7,0.3-4c0.1-1.3,0.1-2.7,0.1-4c0-2.7-0.2-5.3-1-7.8c-0.4-1.2-0.9-2.4-1.6-3.4    c-0.7-1-1.6-1.8-2.7-2.3c-1.1-0.5-2.3-0.7-3.5-0.7C157.5,14.4,156.3,14.6,155.1,15z" />
	</g>
	<path class="st2" d="M159.6,168.5c0,0,10,7.5,33.2,2.4" />
	<g>
		<path d="M157.2,15.7c0,0,0.2,0,0.6,0.1c0.4,0.1,1,0.2,1.6,0.5c0.3,0.2,0.7,0.4,1,0.7c0.3,0.3,0.6,0.7,0.8,1.3    c0.1,0.3,0.1,0.6,0.1,0.9c0,0.2,0,0.5-0.1,0.7c-0.1,0.5-0.1,1-0.2,1.5c-0.4,2-1.2,3.9-2.2,5c-0.5,0.6-1.1,0.8-1.5,0.9    c-0.2,0.1-0.4,0.1-0.5,0.1s-0.2,0-0.2,0s0.2,0,0.6-0.2c0.4-0.2,0.8-0.5,1.2-1.1c0.8-1.1,1.3-3,1.7-4.9c0.1-0.5,0.2-0.9,0.2-1.4    c0-0.2,0.1-0.5,0.1-0.7s0-0.4,0-0.5c-0.1-0.7-0.7-1.3-1.2-1.7c-0.5-0.4-1-0.7-1.4-0.9C157.4,15.8,157.2,15.7,157.2,15.7z" />
	</g>
	<path class="st3" d="M156.1,76.5c0.2-1.7,1.1-29.3,1.1-29.3l-1.4-20" />
	<path class="st3" d="M164,90.8c0,0,18.5-10.2,23.3-12.8c4.8-2.6,13.7,7.8,17.3,12.1s4.3,9.1,3.3,11.7" />
	<path class="st3" d="M167.4,100.2c0,0,24.6-6.7,27.8-6.5s13.4,10.5,15.6,14.4c2.2,3.8-1.7,10.3-1.7,10.3" />
	<line class="st3" x1="209.3" y1="117.8" x2="206.2" y2="127.4" />
	<path class="st3" d="M205.1,73.6c0,0,3.4-9.3,13.5-5.3" />
	<line class="st3" x1="219" y1="69.2" x2="216.4" y2="80.8" />
	<path class="st3" d="M216.2,76.9c0,0,2.6,10.3,1.3,13.7c-1.2,3.4-5.6,14.5-5.6,14.5" />
	<path class="st3" d="M205.4,130c0,0-1.5,13.1-10.2,25.2l1.5,48.8" />
	<line class="st3" x1="156.8" y1="26.5" x2="155.7" y2="15.6" />
	<g>
		<path d="M186.8,112.2c0.5,0.2,1,0.3,1.5,0.4s1,0.2,1.5,0.2c0.2,0,0.5,0,0.7,0s0.5,0,0.7,0c0.5,0,1-0.1,1.4-0.1    c0.2,0,0.5-0.1,0.7-0.1s0.5-0.1,0.7-0.2l0.7-0.2l0.7-0.3c0.5-0.1,0.9-0.4,1.3-0.6c0.2-0.1,0.4-0.2,0.6-0.4l0.6-0.4l1.3-0.8v1.6    c0,0.1,0,0.3,0,0.4v0.5c0,0.3,0.1,0.6,0.1,0.9c0.1,0.6,0.3,1.1,0.5,1.6c0.3,0.5,0.6,0.8,1,1s0.9,0.3,1.4,0.3l2-0.1l-1.4,1.5    c-0.1,0.2-0.3,0.4-0.5,0.6s-0.3,0.5-0.4,0.7c-0.3,0.5-0.4,1-0.6,1.5c-0.2,1-0.1,2.2,0.3,3.2c0.5,1,1.2,1.9,2.1,2.7    c0.4,0.4,0.9,0.7,1.4,1.1c0.5,0.3,1,0.7,1.5,1c-0.5-0.2-1.1-0.4-1.6-0.6s-1-0.5-1.5-0.9c-1-0.7-1.9-1.5-2.6-2.6    c-0.3-0.6-0.6-1.2-0.7-1.9c-0.1-0.7-0.1-1.4,0-2.1s0.3-1.4,0.6-2c0.1-0.3,0.3-0.6,0.5-0.9s0.3-0.6,0.6-0.9l0.6,1.5    c-0.7,0.1-1.5,0.1-2.3-0.3c-0.8-0.3-1.4-1-1.8-1.7c-0.4-0.7-0.7-1.5-0.8-2.2c-0.1-0.4-0.1-0.8-0.1-1.1c0-0.2,0-0.4,0-0.6    s0-0.4,0-0.6l1.3,0.9l-0.7,0.4c-0.2,0.1-0.5,0.3-0.7,0.4c-0.5,0.2-1,0.4-1.5,0.6c-0.3,0.1-0.5,0.2-0.8,0.2l-0.8,0.1    c-0.3,0.1-0.5,0.1-0.8,0.1s-0.5,0.1-0.8,0c-0.5,0-1.1,0-1.6-0.1s-1-0.2-1.5-0.3C188.6,113.4,187.7,112.9,186.8,112.2z" />
	</g>
	<g>
		<path d="M191,112.2c0,0,0.2,0,0.4,0.2c0.3,0.1,0.7,0.4,1,0.7c0.2,0.2,0.4,0.4,0.6,0.7c0.2,0.2,0.4,0.6,0.5,0.9s0.3,0.7,0.4,1.1    c0.1,0.4,0.1,0.8,0.2,1.2c0,0.4,0,0.8-0.1,1.2c-0.1,0.4-0.2,0.7-0.3,1.1c-0.1,0.3-0.3,0.6-0.5,0.9s-0.4,0.5-0.5,0.7    c-0.3,0.4-0.7,0.7-0.9,0.9c-0.2,0.2-0.4,0.3-0.4,0.3s0-0.2,0.1-0.5s0.2-0.7,0.3-1.2c0.1-0.2,0.1-0.5,0.2-0.8    c0-0.3,0.1-0.5,0.2-0.8c0-0.3,0.1-0.6,0.1-0.8c0-0.3,0-0.6,0-0.8c0-0.6-0.1-1.1-0.2-1.7c-0.1-0.3-0.1-0.5-0.2-0.8    c-0.1-0.3-0.2-0.5-0.2-0.7c-0.2-0.4-0.3-0.8-0.5-1.1C191,112.4,191,112.2,191,112.2z" />
	</g>
	<g>
		<path d="M192.3,118.9c0,0,0.1,0.1,0.3,0.3c0.2,0.2,0.4,0.5,0.6,0.9c0.5,0.8,1.2,2.1,1.8,3.6c0.7,1.6,1.3,3.4,1.8,5.5    s0.9,4.4,1,6.7c0.1,1.2,0.1,2.3,0,3.4c0,1.1-0.2,2.2-0.4,3.3c-0.1,0.5-0.2,1.1-0.3,1.6s-0.3,1-0.4,1.5c-0.3,0.9-0.6,1.8-0.9,2.6    c-0.3,0.8-0.7,1.5-1,2.1s-0.6,1.1-0.9,1.5c-0.5,0.8-0.9,1.3-0.9,1.3s0.2-0.5,0.7-1.4c0.2-0.4,0.4-1,0.7-1.6    c0.2-0.6,0.5-1.3,0.7-2.1c0.3-0.8,0.5-1.7,0.7-2.6c0.2-0.9,0.4-1.9,0.5-2.9s0.2-2.1,0.2-3.2c0-1.1,0-2.2,0-3.3    c-0.2-4.4-1.3-8.8-2.3-12c-0.5-1.6-1-2.9-1.4-3.8c-0.2-0.4-0.4-0.8-0.5-1C192.4,119,192.3,118.9,192.3,118.9z" />
	</g>
	<polyline class="st0" points="169.1,70.3 175.1,66.1 176.6,81.3 173.7,83.4 168.1,83.7  " />
	<path class="st3" d="M148.8,202.6c0,0,8.5-36.8,8.5-43.1s-10.3-62.2-9.7-67.1s16.4-16.1,22.1-20.1s14.8-9.9,18.4-7.5   c3.7,2.3,17.1,11.4,18.3,15.2c1.2,3.8,1.4,12,1.4,12" />
</g>
<g>
	<g id="Färg_2_">
		
			<linearGradient id="SVGID_3_" gradientUnits="userSpaceOnUse" x1="250.3515" y1="-590.3802" x2="257.2667" y2="-580.1121" gradientTransform="matrix(1 0 0 -1 0 -387.89)">
			<stop offset="0" style="stop-color:#FFFFFF" />
			<stop offset="1" style="stop-color:#EDEDED" />
		</linearGradient>
		<polygon class="st7" points="271.3,216.8 281.8,197.1 287.2,187.4 279.2,185.8 264.2,179.8 255.7,172.3 251.3,165.6 227.1,191.6       " />
	</g>
	<path class="st3" d="M273.8,211.5c0.8-1.3,26-47.1,26-47.1c-5.5,8.5,17.1-8.8,17.2-43.3" />
	<path class="st8" d="M253.1,167.6c0,0,8.7,16.6,31,19" />
	<path class="st3" d="M227.8,189.2c0,0,28.4-29.4,29.2-31.5s6.4-61.9,6.8-65.1" />
	<line class="st3" x1="270.7" y1="47.1" x2="268.7" y2="58.6" />
	<polyline class="st3" points="268.3,56.5 264.5,72.7 263.9,97.7  " />
	<g>
		<path d="M268.6,46.3c1.2,0,2.3,0.2,3.5,0.4c1.1,0.3,2.3,0.7,3.3,1.2c1.1,0.6,2.1,1.3,3,2.3c0.4,0.5,0.8,1,1.1,1.6    c0.3,0.6,0.6,1.2,0.8,1.9c0.4,1.3,0.5,2.7,0.4,4.1c0,0.7-0.1,1.3-0.2,1.9c-0.1,0.6-0.2,1.3-0.3,1.9c-0.2,1.3-0.5,2.5-0.8,3.8    c-0.2,0.6-0.4,1.3-0.6,1.9c-0.1,0.3-0.3,0.6-0.5,1c-0.1,0.2-0.2,0.3-0.3,0.5l-0.2,0.3c-0.1,0.1-0.1,0.1-0.3,0.3l0.4-1.4    c0.1,0.4,0.3,0.8,0.4,1.2c0.1,0.4,0.2,0.8,0.3,1.2c0.2,0.8,0.4,1.6,0.5,2.4c0.2,1.6,0.4,3.2,0.5,4.8c0,0.8,0,1.6,0,2.4    s0,1.6-0.1,2.4c0,0.8-0.1,1.6-0.2,2.4s-0.2,1.6-0.4,2.3v-0.4c0.2,0.8,0.3,1.5,0.4,2.2s0.2,1.5,0.3,2.2c0.1,1.5,0.2,3,0.2,4.4    c0,1.5-0.2,3-0.4,4.4c-0.3,1.4-0.7,2.9-1.3,4.2c0.4-1.4,0.6-2.8,0.7-4.2c0.1-1.4,0.1-2.9,0-4.3s-0.3-2.8-0.5-4.3    c-0.1-0.7-0.3-1.4-0.4-2.1c-0.2-0.7-0.3-1.4-0.5-2v-0.1v-0.2c0.1-0.8,0.1-1.5,0.2-2.3c0-0.8,0.1-1.5,0.1-2.3s0-1.5,0-2.3    c0-0.4,0-0.8-0.1-1.1c0-0.4,0-0.8-0.1-1.1c-0.1-1.5-0.3-3-0.5-4.5c-0.1-0.7-0.3-1.5-0.4-2.2c-0.1-0.4-0.2-0.7-0.3-1.1    c-0.1-0.3-0.2-0.7-0.3-1l0.4-1.4c-0.1,0.1,0,0,0,0l0.1-0.1c0.1-0.1,0.1-0.2,0.2-0.3c0.1-0.2,0.2-0.5,0.3-0.7    c0.2-0.5,0.4-1,0.6-1.6c0.4-1.1,0.7-2.3,0.9-3.5l0.4-1.8c0.1-0.6,0.2-1.2,0.3-1.8c0.1-1.1,0.1-2.3-0.1-3.4    c-0.1-0.5-0.3-1.1-0.5-1.6s-0.5-1-0.9-1.4c-0.7-0.9-1.5-1.7-2.5-2.3c-0.9-0.6-2-1.1-3-1.6C270.8,46.9,269.7,46.5,268.6,46.3z" />
	</g>
	<path class="st3" d="M298.9,80.6c0,0,4.9,10.9,3,20.1l3.1,10" />
	<line class="st3" x1="273.4" y1="44.2" x2="277.8" y2="27.3" />
	<path class="st3" d="M296,23.5c0,0,7,7,3.3,20.7c0,0,3.4,8.7-0.7,19c0,0,2,10.5,0.4,17.4" />
	<g>
		<path d="M281.9,9.3c1.2,0,2.4,0.2,3.6,0.6c0.6,0.2,1.2,0.4,1.7,0.7c0.6,0.3,1.1,0.6,1.6,1s1,0.8,1.5,1.2c0.5,0.5,0.9,1,1.3,1.5    s0.7,1.1,1,1.7s0.6,1.2,0.8,1.9c0.2,0.6,0.4,1.3,0.5,2s0.2,1.4,0.3,2c0.1,0.7,0.1,1.4,0.1,2c0,0.7,0,1.4-0.1,2    c-0.1,0.7-0.1,1.4-0.2,2c-0.1,0.7-0.2,1.3-0.3,2c-0.1,0.7-0.3,1.3-0.4,2l-0.5,1.9V33c0.2,0.5,0.3,1,0.5,1.4    c0.1,0.5,0.2,0.9,0.3,1.4c0.2,0.9,0.4,1.9,0.5,2.9c0.1,0.5,0.1,1,0.2,1.4c0,0.5,0.1,1,0.1,1.4l0.1,1.4v1.4c0,0.5,0,1-0.1,1.4    c0,0.5,0,1-0.1,1.4c-0.1,1-0.2,1.9-0.3,2.9c-0.1,1-0.3,1.9-0.5,2.8c-0.1,0.5-0.2,0.9-0.4,1.4l-0.4,1.4v-0.7    c0.3,1.2,0.5,2.3,0.7,3.4c0.2,1.1,0.4,2.3,0.5,3.4c0.3,2.3,0.5,4.6,0.6,6.9s0,4.6-0.2,6.9c-0.1,1.1-0.3,2.3-0.5,3.4    s-0.6,2.2-0.9,3.3c0.4-2.2,0.6-4.5,0.7-6.7c0-2.2-0.1-4.5-0.3-6.7c-0.2-2.2-0.6-4.4-1-6.6c-0.2-1.1-0.4-2.2-0.7-3.3    c-0.2-1.1-0.5-2.2-0.8-3.2l-0.1-0.3l0.1-0.4l0.3-1.3c0.1-0.4,0.2-0.9,0.3-1.3c0.2-0.9,0.4-1.8,0.5-2.7s0.2-1.8,0.3-2.7    c0-0.4,0.1-0.9,0.1-1.4s0-0.9,0-1.4c0-0.9,0-1.8-0.1-2.7c0-0.5-0.1-0.9-0.1-1.3c0-0.5-0.1-0.9-0.1-1.3c-0.1-0.9-0.3-1.8-0.4-2.7    c-0.1-0.4-0.2-0.9-0.3-1.3c-0.1-0.4-0.2-0.9-0.3-1.2l-0.1-0.4l0.1-0.4l0.5-1.8c0.2-0.6,0.3-1.2,0.4-1.8c0.1-0.6,0.2-1.2,0.4-1.9    c0.1-0.6,0.2-1.2,0.3-1.9c0.1-0.6,0.1-1.3,0.1-1.9s0-1.3,0-1.9s-0.1-1.2-0.2-1.9c-0.1-0.6-0.2-1.2-0.4-1.8    c-0.1-0.6-0.4-1.2-0.6-1.7c-0.2-0.6-0.5-1.1-0.8-1.6s-0.7-1-1.1-1.5s-0.8-0.9-1.3-1.3c-0.5-0.4-0.9-0.7-1.4-1.1    c-0.5-0.3-1-0.6-1.6-0.9C284.2,9.9,283.1,9.5,281.9,9.3z" />
	</g>
	<line class="st3" x1="282.2" y1="16.9" x2="283.9" y2="9.9" />
	<g>
		<path d="M273.1,17.8c1.5-0.2,3-0.3,4.5-0.1c1.5,0.2,3,0.5,4.4,1.2c1.4,0.6,2.7,1.6,3.8,2.9c1.1,1.2,1.9,2.8,2.4,4.4    c1.1,3.3,1,6.8,0.6,10c-0.2,1.7-0.5,3.3-0.9,4.9c-0.4,1.6-0.9,3.2-1.4,4.7l-0.1-1c0.2,0.4,0.3,0.8,0.5,1.2    c0.1,0.4,0.2,0.8,0.4,1.2c0.2,0.8,0.4,1.6,0.5,2.4c0.1,0.8,0.2,1.6,0.3,2.4c0.1,0.8,0.1,1.6,0.1,2.4c0,0.4,0,0.8,0,1.2    s0,0.8-0.1,1.2L288,58l-0.2,1.2c-0.1,0.8-0.3,1.6-0.5,2.3c-0.1,0.4-0.2,0.8-0.3,1.1l-0.3,1.1v-0.6c0.2,1,0.4,1.9,0.5,2.9    s0.3,1.9,0.4,2.9c0.2,1.9,0.4,3.9,0.4,5.8v1.5c0,0.5,0,1,0,1.5c0,1-0.1,2-0.1,2.9c-0.1,1-0.2,1.9-0.4,2.9c-0.1,1-0.4,1.9-0.6,2.8    l0.1-1.4c0.1-0.5,0-1,0.1-1.4c0.1-1,0-1.9,0-2.9s-0.1-1.9-0.1-2.9c-0.1-1-0.2-1.9-0.3-2.9c-0.1-0.9-0.2-1.9-0.4-2.8    c-0.1-0.9-0.3-1.9-0.4-2.8s-0.3-1.9-0.5-2.8s-0.4-1.9-0.6-2.7l-0.1-0.3l0.1-0.3l0.3-1.1c0.1-0.4,0.2-0.7,0.3-1.1    c0.1-0.7,0.3-1.4,0.4-2.2l0.1-1.1l0.1-1.1c0-0.4,0.1-0.7,0.1-1.1c0-0.4,0-0.7,0-1.1c0-0.7,0-1.5-0.1-2.2s-0.1-1.5-0.3-2.2    c-0.1-0.7-0.3-1.4-0.5-2.1c-0.1-0.3-0.2-0.7-0.3-1c-0.1-0.3-0.2-0.7-0.3-0.9l-0.2-0.5l0.2-0.5c0.5-1.5,1-3,1.4-4.5s0.7-3,1-4.6    c0.2-1.5,0.4-3.1,0.4-4.6c0-1.5-0.1-3.1-0.5-4.5s-1-2.8-1.9-4s-2-2.1-3.2-2.9c-1.2-0.7-2.6-1.2-4.1-1.6    C276.1,18,274.6,17.8,273.1,17.8z" />
	</g>
	<line class="st3" x1="276.7" y1="28.6" x2="277.7" y2="18" />
	<polyline class="st0" points="276.4,22.9 277.2,13.9 269.8,12.9  " />
	<polyline class="st0" points="269.5,49.6 270.4,40.6 263,39.6  " />
	<polyline class="st0" points="281.4,15.4 283.9,6.8 276.8,4.2  " />
	<path class="st0" d="M287.8,11.9" />
	<path class="st3" d="M305.1,105.9c0,0,6-7.4,7.1-15.1s6.2-16.3,10.3-18.7c4.2-2.4,8.8,2.2,9,3.7c0.3,1.5-2.9,9.8-2.9,9.8" />
	<path class="st3" d="M317.2,122.7c0.1-2.6,8-13.7,11.8-36.8" />
	<g>
		<path d="M286.1,98.3c0,0-0.2,1.1-0.5,3.1c-0.3,1.9-0.6,4.8-0.7,8.1c-0.1,1.7,0,3.5,0,5.4c0.1,1.9,0.3,3.9,0.6,6    c0.1,1,0.4,2.1,0.6,3.1c0.1,0.5,0.3,1,0.4,1.6c0.1,0.5,0.3,1,0.5,1.5c0.7,2,1.6,4,2.6,6.1c0.9,2,1.8,4.1,2.6,6.2    c0.3,1.1,0.7,2.1,0.9,3.2c0.1,0.5,0.2,1.1,0.4,1.6c0.1,0.5,0.2,1.1,0.2,1.6c0.2,1.1,0.2,2.1,0.2,3.2c0.1,1-0.1,2-0.1,3    s-0.3,1.9-0.4,2.8c-0.1,0.5-0.2,0.9-0.2,1.3c-0.1,0.4-0.2,0.8-0.3,1.3c-0.2,0.8-0.4,1.6-0.6,2.3c-0.3,0.7-0.5,1.4-0.8,2    c-0.2,0.6-0.5,1.2-0.7,1.8c-0.2,0.5-0.5,1-0.7,1.5c-0.8,1.8-1.3,2.8-1.3,2.8s0.4-1,1.1-2.8c0.2-0.4,0.4-0.9,0.6-1.5    s0.4-1.2,0.6-1.8s0.4-1.3,0.7-2.1c0.2-0.7,0.4-1.5,0.6-2.3c0.1-0.4,0.2-0.8,0.3-1.2c0.1-0.4,0.1-0.9,0.2-1.3    c0.1-0.9,0.3-1.8,0.3-2.8s0.2-1.9,0-2.9c-0.1-1-0.1-2-0.3-3c-0.1-0.5-0.1-1-0.2-1.6c-0.1-0.5-0.2-1-0.4-1.5c-0.2-1-0.6-2-0.9-3.1    c-0.8-2-1.6-4.1-2.6-6.1c-0.9-2-1.8-4-2.5-6.2c-0.2-0.5-0.4-1.1-0.5-1.6s-0.3-1.1-0.4-1.6c-0.2-1.1-0.5-2.1-0.6-3.2    c-0.3-2.1-0.4-4.2-0.5-6.1c0-2,0-3.8,0.1-5.5c0.2-3.4,0.7-6.2,1-8.1C285.8,99.4,286.1,98.3,286.1,98.3z" />
	</g>
	<g>
		<path d="M277.8,170.2c0,0,0.3,0,0.7-0.1c0.5,0,1.1-0.1,1.9-0.3c0.4-0.1,0.8-0.2,1.2-0.3c0.4-0.1,0.9-0.3,1.3-0.4    c0.4-0.2,0.9-0.4,1.4-0.6c0.5-0.2,0.9-0.5,1.4-0.8c0.5-0.2,0.9-0.6,1.3-0.9c0.4-0.3,0.8-0.7,1.1-1c0.4-0.3,0.7-0.7,1-1.1    c0.3-0.3,0.6-0.7,0.8-1c0.2-0.3,0.5-0.6,0.7-0.9c0.2-0.3,0.3-0.5,0.4-0.8c0.3-0.4,0.4-0.7,0.4-0.7s-0.1,0.3-0.3,0.7    c-0.1,0.2-0.2,0.5-0.3,0.9c-0.1,0.3-0.3,0.7-0.5,1.1c-0.2,0.4-0.4,0.8-0.7,1.2c-0.3,0.4-0.6,0.9-0.9,1.2c-0.4,0.4-0.7,0.8-1.2,1.1    c-0.4,0.4-0.9,0.7-1.4,1s-1,0.5-1.5,0.8s-1,0.4-1.5,0.6c-0.5,0.1-1,0.3-1.4,0.3c-0.5,0.1-0.9,0.1-1.3,0.1c-0.8,0-1.5,0-1.9-0.1    C278.1,170.2,277.8,170.2,277.8,170.2z" />
	</g>
	<g>
		<path d="M297.7,81.3c-0.3,0.2-0.6,0.5-1,0.6c-0.4,0.2-0.7,0.3-1.1,0.3c-0.4,0.1-0.8,0.1-1.2,0.1c-0.4,0-0.8-0.1-1.2-0.2l0.4-0.2    c-0.1,0.4-0.3,0.7-0.4,1c-0.2,0.3-0.3,0.6-0.6,0.9c-0.4,0.6-0.9,1.1-1.4,1.6c-0.3,0.2-0.5,0.4-0.8,0.6s-0.6,0.4-0.9,0.5    c-0.3,0.2-0.6,0.3-0.9,0.4s-0.6,0.2-1,0.3l0.3-0.4c0,0.2-0.1,0.4-0.1,0.6c-0.1,0.2-0.1,0.3-0.2,0.5c-0.1,0.3-0.3,0.6-0.5,0.9    c-0.3,0.6-0.7,1.1-1.1,1.5c-0.4,0.5-0.9,0.9-1.3,1.3c-0.5,0.4-0.9,0.8-1.5,1.1c0.4-0.5,0.8-0.9,1.2-1.4c0.4-0.5,0.8-0.9,1.1-1.4    c0.3-0.5,0.7-1,0.9-1.5c0.1-0.3,0.3-0.5,0.4-0.8c0.1-0.1,0.1-0.3,0.1-0.4s0.1-0.3,0.1-0.4v-0.3l0.3-0.1c0.3-0.1,0.6-0.2,0.9-0.3    c0.3-0.1,0.6-0.2,0.8-0.4c0.3-0.1,0.5-0.3,0.8-0.5s0.5-0.4,0.8-0.6c0.5-0.4,0.9-0.8,1.3-1.4c0.2-0.3,0.4-0.5,0.6-0.8    s0.3-0.6,0.5-0.8l0.1-0.3l0.3,0.1c0.3,0.1,0.7,0.2,1,0.3c0.4,0.1,0.7,0.1,1.1,0.1C296.3,81.9,297,81.7,297.7,81.3z" />
	</g>
</g>
<g>
	
		<linearGradient id="SVGID_4_" gradientUnits="userSpaceOnUse" x1="349.9165" y1="815.748" x2="359.1635" y2="793.4277" gradientTransform="matrix(1 0 0 1 0 -616)">
		<stop offset="0" style="stop-color:#FFFFFF" />
		<stop offset="1" style="stop-color:#EDEDED" />
	</linearGradient>
	<polygon class="st9" points="372.5,206.5 384.7,169.2 365.5,166.5 344.9,156.1 345.3,157.8 338,171.8 327,193.8  " />
	<line class="st3" x1="371.7" y1="208.5" x2="389.1" y2="155.1" />
	<path class="st3" d="M384.2,159.1c0,0,21.1-5.6,41-33.9" />
	<path class="st10" d="M424,126.9c0,0,9.5-16.3,26.1-22.5c8.5-3.1,5.7-8.1,5.7-8.1" />
	<path class="st3" d="M329.6,188c0,0,19.5-41.2,23.4-48s11.7-40.3,13.7-47.4c2.1-7.1,2.5-7.5,7-10" />
	<path class="st10" d="M406.5,99c0,0-1.9,7.1,1.4,8.9s5.4,1.7,10.3-2.7c4.9-4.4,7.3-6.5,7.3-6.5" />
	<g>
		<path d="M388.2,95.5c0.8,0.4,1.6,0.6,2.5,0.9c0.8,0.2,1.7,0.4,2.5,0.5c0.4,0.1,0.8,0.1,1.3,0.2c0.4,0,0.8,0.1,1.3,0.1    c0.4,0,0.9,0,1.3,0h1.3c0.4,0,0.8-0.1,1.3-0.1c0.4,0,0.8-0.1,1.3-0.1l1.3-0.2l1.2-0.3c0.8-0.1,1.6-0.4,2.5-0.7    c0.4-0.1,0.8-0.3,1.2-0.4l1.2-0.4l0.3-0.1L409,95c0.7,0.2,1.5,0.4,2.2,0.5s1.5,0.3,2.3,0.4c1.5,0.2,3,0.4,4.5,0.4    c3,0.1,6-0.1,8.8-1.2l0.3-0.1l0.3,0.1c1.1,0.4,2.2,0.7,3.3,1c1.1,0.3,2.2,0.6,3.3,0.8c2.2,0.4,4.5,0.8,6.7,0.6    c1.1-0.1,2.2-0.3,3.1-0.8c0.4-0.3,1-0.6,1.4-0.9c0.5-0.3,0.9-0.7,1.3-1.1s0.8-0.8,1.2-1.3c0.4-0.5,0.7-1,1-1.5    c0.6-1.1,1.1-2.2,1.3-3.4c-0.2,2.5-1.3,5-2.9,6.9c-0.4,0.5-0.8,0.9-1.3,1.3c-0.5,0.5-0.9,0.8-1.5,1.1c-1.1,0.7-2.3,1-3.5,1.2    s-2.4,0.2-3.6,0.2c-1.2-0.1-2.4-0.2-3.5-0.4c-1.2-0.2-2.3-0.4-3.5-0.7c-1.2-0.3-2.3-0.6-3.4-0.9h0.7c-1.6,0.6-3.2,1-4.8,1.2    c-1.6,0.2-3.2,0.2-4.8,0.2c-1.6-0.1-3.2-0.3-4.7-0.5c-0.8-0.1-1.6-0.3-2.3-0.5c-0.8-0.2-1.5-0.4-2.3-0.6h0.6l-1.3,0.4    c-0.4,0.1-0.9,0.3-1.3,0.4c-0.9,0.2-1.7,0.4-2.6,0.5l-1.3,0.2l-1.3,0.1c-0.4,0-0.9,0-1.3,0s-0.9,0-1.3,0l-1.3-0.1    c-0.4,0-0.9-0.1-1.3-0.2s-0.9-0.2-1.3-0.3c-0.4-0.1-0.9-0.2-1.3-0.3c-0.9-0.2-1.7-0.6-2.5-0.9C389.8,96.5,389,96,388.2,95.5z" />
	</g>
	<g>
		<path d="M393.7,96.1c0,0,0.1,0.5,0,1.3c-0.1,0.4-0.2,0.8-0.3,1.3c-0.2,0.4-0.4,0.9-0.7,1.3c-0.3,0.4-0.6,0.8-0.9,1.1    c-0.3,0.3-0.7,0.6-1,0.8c-0.3,0.2-0.6,0.3-0.8,0.4c-0.2,0.1-0.3,0.1-0.3,0.1s0.1-0.1,0.2-0.3s0.3-0.4,0.5-0.7    c0.2-0.3,0.5-0.6,0.7-0.9s0.5-0.7,0.8-1.1c0.2-0.4,0.5-0.8,0.7-1.1c0.2-0.4,0.4-0.7,0.6-1C393.5,96.5,393.7,96.1,393.7,96.1z" />
	</g>
	<g>
		<path d="M390.4,103.8c0,3.6-0.1,7.1-0.2,10.6s-0.2,7.1-0.4,10.6l-0.4,10.6l-0.6,10.6l0,0l0,0c-0.1,0.5-0.2,0.9-0.3,1.3    c-0.1,0.4-0.3,0.8-0.5,1.2c-0.4,0.8-0.8,1.5-1.3,2.2c-1,1.4-2.2,2.5-3.5,3.4s-2.8,1.6-4.3,2.1c-0.7,0.2-1.5,0.4-2.3,0.6    c-0.8,0.2-1.5,0.2-2.3,0.3c0.8-0.1,1.5-0.3,2.3-0.5c0.7-0.2,1.5-0.4,2.2-0.7c1.4-0.6,2.8-1.3,4.1-2.2c1.3-0.9,2.4-2.1,3.3-3.4    c0.4-0.7,0.8-1.4,1.1-2.1c0.2-0.4,0.3-0.7,0.4-1.1c0.1-0.4,0.2-0.8,0.3-1.1l0,0l0.4-10.6L389,125c0.2-3.5,0.4-7.1,0.6-10.6    C389.8,110.9,390.1,107.4,390.4,103.8z" />
	</g>
	<path class="st2" d="M349.1,158.2c0,0,9.9,9.9,32.1,10.7" />
	<path class="st3" d="M383.5,79.2c0,0,22.6-2.1,26.9-2.4s6.4,0.8,10.3,1.7c3.9,0.8,18.8,4.8,18.8,4.8" />
	<line class="st3" x1="439.7" y1="84.3" x2="449.6" y2="88.7" />
	<path class="st3" d="M368.3,83.2c0,0,1.3-9.1,6.8-9.4" />
	<path class="st11" d="M373.1,71.9c0,0,2.3-5.6,6.6-5c4.4,0.7,37.5,2.8,37.5,2.8l35.2,12.2" />
	<path class="st3" d="M453.3,82.9l9.1,3.2c0,0,0.2,12.1-13.6,8.9" />
	<path class="st3" d="M421.6,67.5c2.9-0.7,38.7,14,38.7,14" />
	<path class="st12" d="M460,81.7l10.5,3.4c0,0-0.6,11.3-10.9,11.1" />
	<g>
		<path d="M411.9,113.8c0,0,0.2,0.1,0.5,0.3c0.3,0.2,0.7,0.6,1.1,1c0.4,0.5,0.9,1,1.3,1.6s0.9,1.3,1.3,2.1c0.4,0.7,0.8,1.5,1.1,2.2    c0.3,0.7,0.6,1.4,0.8,2c0.4,1.2,0.6,2,0.6,2s-0.5-0.7-1.1-1.8c-0.3-0.5-0.7-1.2-1-1.8c-0.4-0.7-0.8-1.4-1.1-2.1    c-0.4-0.7-0.8-1.4-1.2-2.1c-0.4-0.7-0.7-1.3-1-1.8C412.4,114.5,411.9,113.8,411.9,113.8z" />
	</g>
	<g>
		<path d="M428,101c0,0,0.4,0.4,0.9,1.1s1.2,1.7,1.7,2.7c0.6,1,1.1,2.1,1.4,2.9s0.5,1.4,0.5,1.4s-0.4-0.4-0.9-1.1s-1.2-1.7-1.7-2.7    c-0.6-1-1.1-2.1-1.4-2.9C428.1,101.6,428,101,428,101z" />
	</g>
	<g>
		<path d="M412.5,76.7c0,0,0.1,0.5,0.3,1.3c0.1,0.8,0.3,1.8,0.4,2.9c0.1,1,0.3,2.1,0.4,2.8c0.1,0.4,0.1,0.7,0.2,0.9    c0,0.2,0.1,0.4,0.1,0.4s-0.1-0.1-0.2-0.3c-0.1-0.2-0.3-0.5-0.5-0.8c-0.2-0.4-0.3-0.8-0.5-1.3c-0.1-0.5-0.2-1-0.3-1.6    c-0.1-1.1-0.1-2.2,0-3C412.3,77.3,412.5,76.7,412.5,76.7z" />
	</g>
	<path class="st8" d="M415.3,78.2c0,0-0.4,5.1-0.6,8.1" />
	<g>
		<path d="M439.6,85.7c0,0,0.3,0.8,0.9,2s1.4,2.7,2.6,3.7c0.3,0.3,0.6,0.5,0.9,0.7s0.6,0.3,0.9,0.3c0.6,0,1.1-0.4,1.6-0.8    s0.9-0.8,1.2-1c0.3-0.2,0.5-0.3,0.5-0.3s-0.1,0.2-0.3,0.5c-0.2,0.3-0.5,0.8-0.9,1.3c-0.2,0.3-0.5,0.5-0.8,0.8s-0.7,0.5-1.2,0.5    s-1-0.2-1.3-0.4c-0.4-0.2-0.8-0.5-1.1-0.8c-1.3-1.2-2.1-3-2.4-4.3C439.6,86.6,439.6,85.7,439.6,85.7z" />
	</g>
	<g>
		<path d="M450.8,84.4c0,0,0.6,0.6,1.5,1.5c0.5,0.4,1,1,1.6,1.5s1.2,1,1.9,1.4c0.3,0.2,0.7,0.3,1,0.3s0.6,0,0.9-0.2    c0.7-0.4,1.3-0.8,1.9-1.1c1.1-0.6,1.9-0.9,1.9-0.9s-0.6,0.6-1.6,1.4c-0.5,0.4-1.1,0.9-1.7,1.3c-0.4,0.3-0.9,0.5-1.4,0.4    c-0.5,0-0.9-0.2-1.3-0.4c-0.8-0.4-1.5-1-2-1.6c-0.6-0.6-1-1.2-1.4-1.8C451.2,85.2,450.8,84.4,450.8,84.4z" />
	</g>
	<path class="st8" d="M464.5,87.7c1.5,0.2,2.7-2.4,3.9-3.3" />
	<g>
		<path d="M384.2,99.2c0,0,0.5,0.2,1.2,0.4c0.7,0.3,1.6,0.6,2.5,1s1.8,0.8,2.5,1c0.3,0.2,0.6,0.3,0.8,0.4c0.2,0.1,0.3,0.2,0.3,0.2    s-0.5,0.1-1.3,0c-0.7-0.1-1.7-0.3-2.7-0.7c-0.9-0.4-1.8-0.9-2.4-1.4C384.5,99.7,384.2,99.2,384.2,99.2z" />
	</g>
	<path class="st13" d="M394.6,66.3c12.1-0.5,30.5,1.7,30.5,1.7" />
</g>
</svg>
