<?xml version="1.0" encoding="UTF-8"?>
<!-- Generator: Adobe Illustrator 18.1.1, SVG Export Plug-In . SVG Version: 6.00 Build 0)  -->
<svg xmlns="http://www.w3.org/2000/svg" xmlns:xlink="http://www.w3.org/1999/xlink" version="1.1" id="Lager_1" x="0px" y="0px" width="226.77px" height="226.77px" viewBox="0 0 226.77 226.77" enable-background="new 0 0 226.77 226.77" xml:space="preserve"><rect fill="#FFFFFF" x="0px" y="0px" width="226.77px" height="226.77px" />
<g id="Färg_2_">
	
		<linearGradient id="SVGID_1_" gradientUnits="userSpaceOnUse" x1="84.0005" y1="105.5426" x2="94.2841" y2="120.8122" gradientTransform="matrix(0.9757 0.2192 0.2192 -0.9757 -52.4855 218.2172)">
		<stop offset="0" style="stop-color:#FFFFFF" />
		<stop offset="1" style="stop-color:#EDEDED" />
	</linearGradient>
	<polygon fill="url(#SVGID_1_)" points="66.667,157.167 85.58,123.437 85.417,119.25 79.197,116.285 72.814,110.644 69.072,101.189    71.722,82.296 35,113.5  " />
</g>
<g>
	<path d="M182.459,154.626c0,0-0.207-0.286-0.569-0.786c-0.35-0.506-0.885-1.207-1.507-2.048c-0.32-0.414-0.663-0.864-1.044-1.313   c-0.191-0.223-0.393-0.447-0.606-0.651c-0.195-0.197-0.467-0.416-0.594-0.445c-0.142-0.034-0.42,0.027-0.724,0.12   c-0.295,0.093-0.603,0.207-0.908,0.339c-0.613,0.26-1.219,0.587-1.821,0.915c-0.6,0.332-1.188,0.693-1.724,1.079   c-0.265,0.186-0.534,0.395-0.705,0.583c-0.17,0.212-0.223,0.404-0.279,0.698c-0.091,0.562-0.035,1.174,0.089,1.733   c0.125,0.562,0.297,1.09,0.485,1.569c0.39,0.953,0.811,1.723,1.144,2.237c0.331,0.519,0.521,0.816,0.521,0.816   s-0.061-0.063-0.177-0.182c-0.11-0.123-0.296-0.285-0.491-0.526c-0.403-0.47-0.963-1.168-1.487-2.115   c-0.245-0.481-0.503-1.015-0.684-1.622c-0.178-0.606-0.314-1.278-0.244-2.027c0.035-0.353,0.17-0.829,0.428-1.151   c0.27-0.329,0.544-0.548,0.83-0.777c0.576-0.438,1.184-0.819,1.806-1.18c0.622-0.361,1.271-0.671,1.934-0.947   c0.333-0.134,0.668-0.264,1.026-0.354c0.178-0.046,0.363-0.084,0.559-0.108c0.105-0.008,0.191-0.021,0.335-0.014   c0.074,0.001,0.122,0.007,0.157,0.014l0.096,0.015l0.102,0.031c0.494,0.202,0.689,0.471,0.937,0.716   c0.224,0.255,0.416,0.511,0.597,0.764c0.363,0.503,0.666,0.995,0.933,1.456C181.931,153.312,182.459,154.626,182.459,154.626z" />
</g>
<g>
	<path d="M166.366,156.671c0,0-0.198-0.273-0.545-0.752c-0.336-0.484-0.843-1.158-1.441-1.961c-0.302-0.4-0.635-0.827-0.993-1.265   c-0.358-0.421-0.775-0.896-1.185-1.181c-0.187-0.22-0.882,0.022-1.441,0.235c-0.587,0.229-1.178,0.519-1.754,0.831   c-0.58,0.307-1.15,0.637-1.684,0.991c-0.519,0.367-1.079,0.699-1.317,1.124c-0.208,0.367-0.247,0.956-0.143,1.463   c0.101,0.52,0.278,1.018,0.474,1.466c0.407,0.892,0.831,1.621,1.152,2.111c0.318,0.497,0.499,0.782,0.499,0.782   s-0.249-0.229-0.654-0.663c-0.392-0.443-0.972-1.073-1.507-1.966c-0.266-0.446-0.526-0.959-0.693-1.564   c-0.155-0.6-0.265-1.318,0.117-2.084c0.388-0.687,0.987-1.073,1.53-1.468c0.563-0.387,1.151-0.743,1.755-1.073   c0.611-0.317,1.235-0.611,1.885-0.852c0.324-0.124,0.663-0.22,1.022-0.29c0.214-0.027,0.468-0.054,0.601-0.029   c0.227,0.001,0.516,0.151,0.647,0.256c0.606,0.466,0.935,0.98,1.289,1.462c0.338,0.484,0.623,0.959,0.877,1.4   C165.86,155.415,166.366,156.671,166.366,156.671z" />
</g>
<g>
	<path d="M188.858,144.165c0,0-0.516-0.709-1.289-1.772c-0.391-0.525-0.835-1.146-1.342-1.776c-0.249-0.318-0.513-0.64-0.794-0.943   c-0.274-0.29-0.597-0.618-0.848-0.735c-0.068-0.029-0.036-0.019-0.163-0.023c-0.029,0.009-0.119,0.017-0.203,0.04   c-0.17,0.038-0.358,0.092-0.542,0.163c-0.368,0.146-0.738,0.312-1.095,0.483c-0.708,0.354-1.375,0.701-1.94,1.012   c-0.568,0.308-1.038,0.576-1.365,0.774c-0.324,0.199-0.501,0.339-0.501,0.339s0.08-0.217,0.324-0.533   c0.239-0.318,0.625-0.732,1.138-1.167c0.515-0.431,1.149-0.896,1.899-1.293c0.372-0.204,0.773-0.394,1.215-0.538   c0.221-0.072,0.452-0.141,0.711-0.177c0.13-0.016,0.258-0.026,0.448-0.012c0.09,0.005,0.342,0.057,0.466,0.135   c0.521,0.305,0.78,0.659,1.07,1.012c0.276,0.354,0.519,0.711,0.747,1.06c0.444,0.705,0.825,1.375,1.126,1.963   C188.531,143.346,188.858,144.165,188.858,144.165z" />
</g>
<path fill="none" stroke="#000000" stroke-width="2" stroke-linecap="round" d="M41.219,108.215  c2.576-2.857,41.066-39.581,56.811-41.532c11.974-1.483,54.369,13.95,54.369,13.95s6.814-0.728,12.364,12.186l15.315,25.112  l10.274,25.23c0,0,1.994,7.444-7.261,7.756" />
<path fill="none" stroke="#000000" stroke-width="2" stroke-linecap="round" d="M73.402,146.527c0,0,10.994-20.63,17.251-27.537" />
<path fill="none" stroke="#000000" stroke-width="2" stroke-linecap="round" d="M86.478,112.807c0,0,10.336,9.539,22.262,10.783" />
<path fill="none" stroke="#000000" stroke-width="2" stroke-linecap="round" d="M153.403,97.163l14.591,23.017l16.947,34.903  c0,0-2.157,6.512-10.029,5.92c-6.879-0.517-9.73-8.985-9.73-8.985" />
<line fill="none" stroke="#000000" stroke-width="2" stroke-linecap="round" x1="154.333" y1="93.833" x2="156.109" y2="101.431" />
<path fill="none" stroke="#000000" stroke-width="2" stroke-linecap="round" d="M139.73,104.207l13.716,24.765l15.381,30.444  c0,0-5.577,8.833-12.076,2.806c-3.872-3.591-16.948-21.761-16.948-21.761l-15.688-25.274l-2.365-1.438" />
<path fill="none" stroke="#000000" stroke-width="2" stroke-linecap="round" d="M106.244,118.594l14.899,19.239  c0,0,8.68,8.286,14.357-1.583" />
<path fill="none" stroke="#000000" stroke-width="2" stroke-linecap="round" d="M126.997,144.742c0,0-0.94,4.29,3.406,7.274" />
<line fill="none" stroke="#000000" stroke-width="2" stroke-linecap="round" x1="132.022" y1="153.081" x2="139" y2="146.5" />
<line fill="none" stroke="#000000" stroke-width="2" stroke-linecap="round" x1="136.366" y1="146.874" x2="142.131" y2="146.357" />
<path fill="none" stroke="#000000" d="M72.109,85.049c0,0-12.219,24.642,14.281,34.392" />
<path fill="none" stroke="#000000" stroke-linecap="round" d="M140.25,86.75c0,0,7.25,1,9.25,9.5" />
<path fill="none" stroke="#000000" stroke-width="0.5" d="M165.609,122.483c0,0-7.859,3.017-9.109,4.517" />
<path fill="none" stroke="#000000" stroke-width="0.5" d="M165.75,124.75c0,0-3.073,2.032-7.5,3.5" />
<path fill="none" stroke="#000000" stroke-width="0.5" d="M150.741,129.239c0,0-4.599,4.163-9.599,5.913" />
<path fill="none" stroke="#000000" stroke-width="0.5" d="M149.768,127.943c0,0-7.155,2.988-9.768,5.807" />
<path fill="none" stroke="#000000" stroke-width="0.5" d="M177.013,116.669c0,0-3.04,0.365-6.566,3.526" />
<path fill="none" stroke="#000000" stroke-width="0.5" d="M178.107,117.885c0,0-1.442,1.937-7.904,3.648" />
</svg>
