<?xml version="1.0" encoding="UTF-8"?>
<!-- Generator: Adobe Illustrator 18.1.1, SVG Export Plug-In . SVG Version: 6.00 Build 0)  -->
<svg xmlns="http://www.w3.org/2000/svg" xmlns:xlink="http://www.w3.org/1999/xlink" version="1.1" id="Lager_1" x="0px" y="0px" width="226.772px" height="226.77px" viewBox="0 0 226.772 226.77" enable-background="new 0 0 226.772 226.77" xml:space="preserve"><rect fill="#FFFFFF" x="0px" y="0px" width="226.772px" height="226.77px" />
<linearGradient id="SVGID_1_" gradientUnits="userSpaceOnUse" x1="86.6294" y1="200.5325" x2="96.3862" y2="176.9816">
	<stop offset="0" style="stop-color:#FFFFFF" />
	<stop offset="1" style="stop-color:#EDEDED" />
</linearGradient>
<polygon fill="url(#SVGID_1_)" points="114.242,205.785 124.817,170.083 106.389,165.181 83.862,154.782 85.681,152.683   74.741,169.62 59.867,193.227 " />
<path fill="none" stroke="#000000" stroke-linecap="round" d="M86.591,156.042c0,0,16.191,12.192,37.747,12.91" />
<path fill="none" stroke="#000000" stroke-width="2" stroke-linecap="round" d="M62.671,187.769c0,0,22.591-33.573,24.471-37.91  s-8.526-47.608-9.388-52.371c-0.863-4.763,2.319-6.042,3.647-8.758" />
<path fill="none" stroke="#000000" stroke-width="2" stroke-linecap="round" d="M81.4,88.731c0,0-2.674-10.305,6.182-14.814" />
<path fill="none" stroke="#000000" stroke-width="2" stroke-linecap="round" d="M87.639,75.089c0,0-1.323-10.82,8.716-12.589" />
<path fill="none" stroke="#000000" stroke-width="2" stroke-linecap="round" d="M99.012,62.236c0,0,34.118-11.556,40.684-12.724  s9.778,4.315,12.716,10.734" />
<path fill="none" stroke="#000000" stroke-width="2" stroke-linecap="round" d="M102.731,65.356c0,0,14.196-5.529,27.14-5.337  s12.702,1.09,14.065,6.453c1.363,5.363,0.938,4.683,0.938,4.683" />
<path fill="none" stroke="#000000" stroke-width="2" stroke-linecap="round" d="M97.733,71.938c0,0,12.887-4.642,25.832-4.45  s12.702,1.09,14.065,6.453c1.363,5.363,3.642,18.685,3.642,18.685c0.139,0.781-1.318,4.038-3.962,5.114" />
<path fill="none" stroke="#000000" stroke-width="2" stroke-linecap="round" d="M96.821,80.165c0,0,19.228-1.884,24.667-1.8  c5.439,0.084,6.869,3.034,10.617,9.492s4.055,13.584-0.188,15.046c-4.243,1.463-9.831,3.279-9.831,3.279" />
<path fill="none" stroke="#000000" stroke-width="2" stroke-linecap="round" d="M115.948,110.641  c1.199-0.816,7.239-4.261,7.239-4.261" />
<path fill="none" stroke="#000000" stroke-width="2" stroke-linecap="round" d="M101.789,97.071c0,0,10.749,2.676,14.255-1.441" />
<path fill="none" stroke="#000000" stroke-width="2" stroke-linecap="round" d="M113.526,95.204c0,0,3.097,2.644,7.653,3.462" />
<path fill="none" stroke="#000000" stroke-width="2" stroke-linecap="round" d="M116.921,97.288c0,0-4.967,4.391-5.363,7.109  c-0.442,3.034,1.322,5.422,2.911,6.541" />
<g>
	<path d="M109.608,102.901c0,0,0.392,0.801,1.077,2.203c0.667,1.41,1.658,3.408,2.774,5.836c1.122,2.426,2.473,5.238,3.836,8.288   c1.386,3.039,2.865,6.28,4.343,9.521c0.732,1.623,1.467,3.245,2.215,4.826c0.367,0.796,0.754,1.567,1.132,2.332   c0.204,0.373,0.407,0.743,0.609,1.111c0.212,0.408,0.373,0.871,0.462,1.291c0.368,1.729,0.232,3.397-0.017,4.931   c-0.26,1.537-0.694,2.948-1.206,4.201c-1.05,2.505-2.464,4.316-3.601,5.39c-0.566,0.546-1.071,0.902-1.411,1.144   c-0.352,0.226-0.539,0.347-0.539,0.347s0.178-0.133,0.513-0.383c0.323-0.263,0.794-0.655,1.319-1.226   c1.066-1.117,2.356-2.966,3.253-5.456c0.46-1.236,0.838-2.623,1.042-4.115c0.196-1.482,0.262-3.105-0.121-4.644   c-0.1-0.394-0.231-0.73-0.416-1.069c-0.213-0.372-0.428-0.747-0.644-1.124c-0.395-0.771-0.799-1.55-1.178-2.342   c-0.775-1.58-1.534-3.194-2.29-4.809c-1.523-3.226-2.921-6.507-4.274-9.563c-1.358-3.054-2.535-5.944-3.567-8.411   c-1.041-2.463-1.839-4.545-2.423-5.992C109.93,103.733,109.608,102.901,109.608,102.901z" />
</g>
<path fill="none" stroke="#000000" stroke-linecap="round" d="M124.112,132.183c0,0,0.325,13.174-5.366,19.025" />
<path fill="none" stroke="#000000" stroke-linecap="round" d="M113.586,108.431" />
<line fill="none" stroke="#000000" stroke-width="2" stroke-linecap="round" x1="158.826" y1="68.648" x2="152.23" y2="62.733" />
<path fill="none" stroke="#000000" stroke-width="2" stroke-linecap="round" d="M152.711,63.014c0,0-9.537,0.053-7.632,13.228  c1.654,11.435,5.534,10.915,5.534,10.915" />
<path fill="none" stroke="#000000" stroke-width="2" stroke-linecap="round" d="M149.27,84.806c0,0-0.586,5.91-6.273,12.848" />
<path fill="none" stroke="#000000" stroke-width="2" stroke-linecap="round" d="M159.45,67.821c0,0,5.346,4.098,6.87,5.632  c1.201,1.209-0.168,11.492-2.077,14.721c-1.909,3.229-7.879,11.791-7.398,23.524s-21.272,30.146-25.411,35.359L116.438,201" />
<path fill="none" stroke="#000000" stroke-linecap="round" d="M154.256,64.55c0,0,1.182,5.45,0.436,10.303  c-0.487,3.168,0.622,4.299,2.104,4.457c1.482,0.158,3.017-4.809,1.332-11.288" />
<g>
	<path d="M108.094,98.293c0,0,0.403,0.647,0.771,1.716c0.194,0.531,0.368,1.17,0.498,1.87c0.138,0.699,0.196,1.465,0.186,2.24   c-0.039,0.389-0.039,0.776-0.135,1.16c-0.036,0.192-0.077,0.381-0.122,0.565c-0.07,0.182-0.139,0.361-0.207,0.538   c-0.106,0.361-0.356,0.66-0.543,0.95c-0.199,0.286-0.492,0.481-0.708,0.683c-0.253,0.165-0.519,0.262-0.733,0.363   c-0.21,0.115-0.438,0.092-0.598,0.13c-0.335,0.043-0.516,0.055-0.516,0.055s0.165-0.089,0.455-0.244   c0.135-0.087,0.327-0.127,0.486-0.282c0.161-0.147,0.354-0.284,0.534-0.459c0.139-0.22,0.335-0.406,0.462-0.663   c0.111-0.27,0.27-0.518,0.335-0.836c0.043-0.152,0.086-0.306,0.131-0.462c0.019-0.166,0.043-0.332,0.073-0.498   c0.075-0.328,0.06-0.687,0.088-1.033c0.018-0.35,0.007-0.707,0.003-1.056c-0.035-0.35-0.02-0.699-0.061-1.035   c-0.056-0.674-0.119-1.309-0.184-1.855C108.18,99.031,108.094,98.293,108.094,98.293z" />
</g>
</svg>
