<?xml version="1.0" encoding="UTF-8"?>
<!-- Generator: Adobe Illustrator 25.2.1, SVG Export Plug-In . SVG Version: 6.00 Build 0)  -->
<svg xmlns="http://www.w3.org/2000/svg" xmlns:xlink="http://www.w3.org/1999/xlink" version="1.1" x="0px" y="0px" width="256.024px" height="226.772px" viewBox="0 0 256.024 226.772" style="enable-background:new 0 0 256.024 226.772;" xml:space="preserve"><rect fill="#FFFFFF" x="0px" y="0px" width="256.024px" height="226.772px" />
<style type="text/css">
	.st0{fill:url(#SVGID_1_);}
	.st1{fill:none;stroke:#1D1D1B;stroke-width:2;stroke-linecap:round;}
	.st2{fill:#1D1D1B;}
	.st3{fill:none;stroke:#1D1D1B;stroke-width:1.7;stroke-linecap:round;}
	.st4{fill:none;stroke:#1D1D1B;stroke-linecap:round;}
	.st5{fill:url(#SVGID_2_);}
	.st6{fill:none;stroke:#000000;stroke-linecap:round;}
	.st7{fill:none;stroke:#000000;stroke-width:2;stroke-linecap:round;}
	.st8{fill:none;stroke:#000000;}
	.st9{fill:#FFFFFF;}
</style>
<g id="Lager_2">
	<g id="Färg_1_">

			<linearGradient id="SVGID_1_" gradientUnits="userSpaceOnUse" x1="-14.6195" y1="780.0809" x2="-5.2849" y2="766.2206" gradientTransform="matrix(0.9882 -0.1534 0.1534 0.9882 -74.5911 -573.7634)">
			<stop offset="0" style="stop-color:#FFFFFF" />
			<stop offset="1" style="stop-color:#EFF0F1" />
		</linearGradient>
		<polygon class="st0" points="55.652,210.473 68.973,184.382 75.141,170.947 64.144,170.262 48.888,165.382 38.699,158.771    32.104,153.983 2.669,192.186   " />
	</g>
	<path class="st1" d="M9.988,185.432c0,0,27.602-33.707,28.216-42.479c0.614-8.772-9.852-47.59-10.468-55.839   c-0.517-6.92,3.214-12.584,7.865-15.519S52.475,48.134,56.75,44.901c4.275-3.233,33.493-0.221,37.753,4.843   c1.704,2.026,4.129,4.206,5.404,6.092" />
	<g>
		<path class="st2" d="M44.318,57.211c0,0,0.482-0.954,1.391-2.586c0.929-1.62,2.213-3.963,3.927-6.677    c0.855-1.359,1.794-2.824,2.889-4.323c0.549-0.751,1.122-1.515,1.806-2.275c0.18-0.19,0.35-0.379,0.568-0.57    c0.109-0.096,0.204-0.188,0.351-0.285l0.206-0.141c0.08-0.048,0.197-0.099,0.298-0.142c0.077-0.027,0.051-0.031,0.214-0.074    l0.09-0.018l0.181-0.035l0.368-0.068l0.824-0.094c2.076-0.184,4.125-0.243,6.247-0.235c2.113,0.003,4.255,0.057,6.396,0.153    c2.14,0.112,4.278,0.273,6.379,0.472c2.103,0.183,4.162,0.48,6.154,0.768c0.994,0.157,1.972,0.32,2.925,0.493    c0.95,0.198,1.879,0.391,2.784,0.579c0.45,0.11,0.893,0.218,1.33,0.325c0.218,0.053,0.435,0.106,0.65,0.159    c0.24,0.063,0.372,0.082,0.694,0.185c0.764,0.23,1.725,0.812,2.331,1.315c1.317,1.06,2.23,2.257,3.006,3.318    c0.765,1.072,1.361,2.045,1.836,2.854c0.48,0.805,0.797,1.472,1.024,1.918c0.216,0.452,0.331,0.693,0.331,0.693    s-0.577-0.902-1.681-2.398c-0.552-0.747-1.24-1.641-2.092-2.602c-0.86-0.944-1.872-1.999-3.113-2.865    c-0.315-0.194-0.642-0.435-0.954-0.558c-0.277-0.168-0.693-0.287-1.113-0.406c-0.819-0.153-1.667-0.31-2.537-0.473    c-1.792-0.29-3.689-0.549-5.656-0.792c-1.969-0.233-4.011-0.41-6.087-0.589c-2.076-0.175-4.191-0.307-6.306-0.4    c-2.114-0.118-4.232-0.194-6.314-0.22c-2.071-0.018-4.155-0.065-6.063,0.054l-0.661,0.046l-0.362,0.055l-0.182,0.029l-0.091,0.015    c0.105-0.023,0.024,0.001,0.044-0.003c-0.01,0.009-0.01-0.002-0.035,0.011l-0.098,0.065c-0.062,0.031-0.145,0.108-0.222,0.167    c-0.156,0.119-0.321,0.281-0.479,0.431c-0.639,0.635-1.24,1.346-1.809,2.043c-1.132,1.407-2.174,2.783-3.125,4.061    c-1.887,2.568-3.472,4.713-4.544,6.239C44.942,56.346,44.318,57.211,44.318,57.211z" />
	</g>
	<line class="st1" x1="100.143" y1="56.197" x2="106.751" y2="63.035" />
	<path class="st1" d="M40.086,79.933l3.834-3.893c0,0,12.515-19.093,13.475-20.151c0.96-1.058,21.994-5.533,23.734-5.687   c1.74-0.154,8.196,3.939,8.196,3.939" />
	<line class="st3" x1="88.931" y1="55.027" x2="96.478" y2="58.615" />
	<g>
		<path class="st2" d="M61.195,81.057c1.117-0.59,2.108-1.357,2.971-2.211c0.871-0.849,1.578-1.827,2.127-2.861    c0.546-1.039,0.897-2.157,1.104-3.293c0.101-0.57,0.154-1.148,0.172-1.729c0.015-0.58,0.005-1.163-0.03-1.746l-0.088-1.466    l1.519,0.324c0.242,0.052,0.565,0.106,0.855,0.146c0.299,0.04,0.6,0.074,0.901,0.098c0.603,0.054,1.208,0.057,1.807,0.056    c1.198-0.009,2.378-0.169,3.473-0.503c1.083-0.356,2.107-0.829,2.938-1.552c0.425-0.349,0.8-0.756,1.129-1.204    c0.173-0.218,0.316-0.459,0.468-0.696c0.159-0.232,0.275-0.496,0.418-0.743l0.666-1.149l1.013,0.584    c0.246,0.142,0.572,0.308,0.872,0.448c0.308,0.143,0.62,0.282,0.938,0.407c0.634,0.255,1.284,0.465,1.935,0.656    c1.306,0.377,2.653,0.542,3.972,0.46c1.311-0.108,2.597-0.54,3.682-1.37c0.277-0.199,0.523-0.441,0.776-0.679    c0.243-0.249,0.488-0.503,0.699-0.789c0.443-0.556,0.827-1.171,1.183-1.815c-0.187,0.704-0.381,1.43-0.727,2.098    c-0.155,0.344-0.352,0.667-0.557,0.991c-0.212,0.317-0.449,0.625-0.715,0.908c-0.26,0.291-0.552,0.553-0.858,0.804    c-0.315,0.235-0.637,0.478-0.993,0.655c-0.346,0.2-0.718,0.35-1.091,0.491c-0.376,0.139-0.761,0.241-1.15,0.334    c-1.565,0.338-3.164,0.24-4.688-0.022c-0.767-0.13-1.512-0.339-2.245-0.58c-0.367-0.119-0.729-0.254-1.089-0.396    c-0.367-0.147-0.701-0.288-1.098-0.485l1.678-0.565c-0.157,0.328-0.289,0.667-0.473,0.985c-0.171,0.325-0.369,0.636-0.587,0.936    c-0.426,0.605-0.926,1.169-1.492,1.658c-1.119,0.996-2.473,1.704-3.867,2.097c-1.396,0.394-2.818,0.547-4.213,0.53    c-0.698-0.006-1.39-0.079-2.075-0.175c-0.343-0.05-0.684-0.109-1.024-0.177c-0.349-0.072-0.663-0.142-1.049-0.251l1.431-1.142    c-0.004,0.672-0.017,1.345-0.114,2.015c-0.088,0.67-0.219,1.336-0.403,1.988c-0.356,1.307-0.946,2.556-1.738,3.641    c-0.772,1.1-1.763,2.017-2.84,2.749C63.628,80.242,62.436,80.787,61.195,81.057z" />
	</g>
	<g>
		<path class="st2" d="M66.003,78.545c0,0,0.307,0.057,0.81,0.294c0.243,0.127,0.547,0.284,0.853,0.523    c0.319,0.224,0.654,0.519,0.978,0.877c0.159,0.185,0.325,0.377,0.496,0.577c0.151,0.213,0.289,0.446,0.441,0.683    c0.294,0.475,0.546,1.015,0.752,1.588c0.172,0.58,0.396,1.181,0.461,1.811c0.044,0.314,0.111,0.63,0.134,0.949l0.028,0.956    c0.032,0.642-0.044,1.269-0.117,1.886c-0.04,0.623-0.206,1.21-0.339,1.778c-0.235,1.149-0.679,2.146-1.027,2.999    c-0.157,0.433-0.397,0.792-0.571,1.124c-0.178,0.33-0.352,0.609-0.49,0.839c-0.283,0.458-0.461,0.709-0.461,0.709    s0.021-0.314,0.087-0.846c0.036-0.265,0.074-0.587,0.139-0.947c0.048-0.365,0.15-0.762,0.196-1.207    c0.053-0.444,0.113-0.921,0.202-1.416c0.101-0.494,0.118-1.025,0.191-1.561c0.072-0.538,0.127-1.093,0.142-1.652    c0.022-0.56,0.091-1.127,0.049-1.686l-0.006-0.84c-0.025-0.275-0.051-0.549-0.076-0.821c-0.03-0.551-0.135-1.069-0.228-1.581    c-0.132-0.494-0.236-0.992-0.405-1.434c-0.085-0.224-0.168-0.441-0.248-0.652c-0.097-0.205-0.191-0.402-0.281-0.592    c-0.199-0.369-0.389-0.72-0.59-1.006c-0.198-0.292-0.386-0.54-0.551-0.743C66.237,78.756,66.003,78.545,66.003,78.545z" />
	</g>
	<g>
		<path class="st2" d="M67.637,97.967c0,0-0.029,0.812,0.099,2.208c0.129,1.392,0.423,3.379,1.19,5.602    c0.379,1.101,0.951,2.266,1.49,3.549c0.55,1.276,1.129,2.629,1.657,4.058c0.531,1.428,1.071,2.911,1.525,4.452    c0.458,1.539,0.889,3.116,1.237,4.717c0.33,1.605,0.6,3.225,0.777,4.837c0.179,1.612,0.216,3.215,0.18,4.767    c-0.111,3.102-0.727,6.009-1.782,8.28c-1.008,2.294-2.378,3.905-3.429,4.865c-0.498,0.514-0.978,0.818-1.275,1.053    c-0.303,0.227-0.465,0.348-0.465,0.348s0.137-0.149,0.393-0.43c0.253-0.282,0.642-0.673,1.053-1.24    c0.865-1.089,1.924-2.787,2.653-5.015c0.391-1.102,0.632-2.354,0.845-3.672c0.185-1.328,0.237-2.745,0.245-4.211    c-0.017-1.469-0.166-2.985-0.338-4.524c-0.191-1.539-0.477-3.094-0.813-4.64c-0.314-1.551-0.711-3.09-1.135-4.596    c-0.434-1.503-0.857-2.989-1.33-4.409c-0.481-1.422-0.945-2.796-1.386-4.1c-0.454-1.3-0.915-2.546-1.202-3.769    c-0.579-2.427-0.581-4.499-0.489-5.917C67.44,98.756,67.637,97.967,67.637,97.967z" />
	</g>
	<g>
		<path class="st2" d="M69.031,91.013c1.582-0.53,3.254-0.763,4.934-0.818c0.422-0.026,0.844-0.023,1.265,0.006    c0.422,0.02,0.847,0.029,1.269,0.086c0.851,0.066,1.685,0.264,2.527,0.446c0.415,0.116,0.829,0.247,1.239,0.387    c0.417,0.12,0.805,0.33,1.206,0.502c0.401,0.174,0.798,0.358,1.169,0.602c0.374,0.234,0.758,0.453,1.106,0.726l1.018,0.856    c0.341,0.282,0.613,0.642,0.906,0.974c0.295,0.333,0.572,0.676,0.784,1.067l0.686,1.129l-1.026-0.38    c0.22-0.064,0.379-0.095,0.563-0.129c0.178-0.033,0.354-0.057,0.531-0.078c0.353-0.042,0.705-0.057,1.057-0.061    c0.352,0.002,0.703,0.032,1.05,0.084c0.346,0.06,0.69,0.121,1.024,0.226c0.338,0.081,0.658,0.231,0.974,0.363    c0.306,0.165,0.616,0.308,0.892,0.512c0.286,0.185,0.539,0.412,0.788,0.634c0.248,0.223,0.447,0.499,0.664,0.739    c-0.292-0.157-0.562-0.334-0.856-0.462c-0.29-0.136-0.573-0.27-0.876-0.357c-0.582-0.22-1.19-0.325-1.788-0.377    c-0.599-0.059-1.199-0.022-1.785,0.055c-0.293,0.044-0.584,0.096-0.867,0.171c-0.142,0.037-0.282,0.076-0.418,0.122    c-0.13,0.042-0.282,0.099-0.369,0.139l-0.557,0.26l-0.469-0.64l-0.673-0.917c-0.203-0.32-0.466-0.59-0.74-0.849    c-0.28-0.251-0.491-0.567-0.796-0.791l-0.881-0.7c-0.298-0.228-0.646-0.389-0.956-0.602c-0.308-0.219-0.65-0.387-0.996-0.547    c-0.347-0.159-0.675-0.356-1.046-0.47l-1.081-0.414l-1.12-0.337c-0.374-0.115-0.764-0.174-1.144-0.281    c-0.767-0.188-1.552-0.317-2.344-0.436c-0.396-0.065-0.794-0.121-1.196-0.156c-0.401-0.05-0.804-0.099-1.209-0.127    C70.68,91.104,69.862,91.038,69.031,91.013z" />
	</g>
	<path class="st1" d="M59.488,205.932l24.753-54.81c0,0,19.293-13.526,20.76-39.576c0,0,12.601-19.069,12.512-23.698   c-0.089-4.628-1.943-7.232-5.248-11.5" />
	<line class="st1" x1="112.098" y1="77.515" x2="109.68" y2="67.031" />
	<g>
		<path class="st2" d="M104.797,67.382c-0.402,0.276-0.737,0.626-1.06,0.974c-0.322,0.351-0.602,0.735-0.868,1.122    c-0.535,0.774-0.947,1.62-1.304,2.478c-0.178,0.43-0.332,0.87-0.462,1.317c-0.145,0.441-0.264,0.892-0.373,1.344    c-0.109,0.453-0.195,0.911-0.272,1.37c-0.064,0.462-0.155,0.919-0.2,1.385c-0.059,0.463-0.101,0.929-0.128,1.397    c-0.046,0.465-0.032,0.938-0.066,1.404c-0.03,0.938-0.027,1.88,0.015,2.822c0.052,0.942,0.099,1.887,0.184,2.831    c0.078,0.945,0.216,1.885,0.32,2.832l0.079,0.723l-0.603,0.27c-0.203,0.091-0.466,0.23-0.697,0.36    c-0.239,0.134-0.474,0.278-0.706,0.428c-0.466,0.299-0.909,0.631-1.346,0.973c-0.874,0.684-1.666,1.473-2.354,2.347    c-0.694,0.871-1.26,1.845-1.69,2.895c-0.424,1.052-0.69,2.184-0.82,3.359c-0.177-1.164-0.174-2.39,0.089-3.579    c0.242-1.195,0.722-2.348,1.355-3.407c0.63-1.065,1.445-2.007,2.331-2.866c0.446-0.428,0.929-0.814,1.427-1.182    c0.25-0.183,0.504-0.36,0.767-0.529c0.27-0.172,0.515-0.326,0.837-0.495l-0.524,0.992c-0.176-0.969-0.304-1.945-0.416-2.926    c-0.062-0.489-0.092-0.984-0.14-1.476c-0.053-0.492-0.047-0.99-0.071-1.484c-0.024-0.992-0.008-1.986,0.045-2.981    c0.077-0.995,0.189-1.988,0.377-2.974c0.361-1.966,0.992-3.917,2.01-5.662c0.5-0.875,1.111-1.688,1.819-2.399    C103.06,68.345,103.875,67.726,104.797,67.382z" />
	</g>
	<g>
		<path class="st2" d="M93.53,64.737c0,0,0.156,0.123,0.425,0.313c0.263,0.194,0.636,0.457,1.068,0.745    c0.433,0.291,0.944,0.582,1.472,0.872c0.543,0.267,1.108,0.536,1.704,0.714c0.285,0.13,0.602,0.152,0.894,0.256    c0.301,0.066,0.606,0.104,0.902,0.174c0.306,0.035,0.602,0.07,0.882,0.102c0.286,0.044,0.563,0.03,0.826,0.058    c0.527,0.055,0.978,0.029,1.31,0.056c0.332,0.02,0.535,0.047,0.535,0.047s-0.143,0.131-0.416,0.332    c-0.277,0.189-0.671,0.504-1.223,0.694c-0.273,0.101-0.567,0.251-0.902,0.312c-0.333,0.063-0.691,0.139-1.067,0.171    c-0.377-0.001-0.775,0.018-1.172-0.035c-0.394-0.076-0.808-0.118-1.192-0.269c-0.389-0.135-0.772-0.282-1.117-0.495    c-0.362-0.179-0.668-0.432-0.967-0.662c-0.57-0.498-1.025-1.032-1.31-1.553c-0.308-0.501-0.47-0.97-0.557-1.301    C93.538,64.937,93.53,64.737,93.53,64.737z" />
	</g>
	<path class="st4" d="M35.401,155.686c0,0,12.778,14.451,34.828,14.974" />
	<g>
		<path class="st2" d="M109.521,67.173c-0.014-0.007-0.022-0.02-0.115-0.071c-0.087-0.047-0.226-0.108-0.404-0.169    c-0.356-0.12-0.875-0.222-1.413-0.228c-0.537-0.011-1.087,0.045-1.494,0.127c-0.408,0.076-0.679,0.148-0.679,0.148    s0.247-0.13,0.634-0.298c0.386-0.174,0.925-0.358,1.493-0.476c0.567-0.122,1.166-0.146,1.626-0.101    c0.23,0.024,0.425,0.06,0.565,0.098c0.134,0.034,0.251,0.084,0.237,0.077c0.246,0.125,0.345,0.425,0.221,0.672    S109.767,67.297,109.521,67.173z" />
	</g>
	<g>
		<path class="st2" d="M108.056,63.642c0,0-0.039,0.086-0.108,0.236c-0.071,0.138-0.173,0.329-0.309,0.543    c-0.269,0.431-0.676,0.959-1.132,1.426c-0.906,0.955-2.019,1.57-2.019,1.57s0.917-0.888,1.5-1.963    c0.299-0.53,0.53-1.084,0.658-1.502c0.066-0.209,0.106-0.383,0.132-0.5c0.018-0.109,0.028-0.172,0.028-0.172l0.003-0.017    c0.059-0.358,0.397-0.601,0.755-0.542c0.358,0.059,0.601,0.397,0.542,0.755C108.097,63.533,108.079,63.591,108.056,63.642z" />
	</g>
	<g>
		<path class="st2" d="M109.98,78.576c0,0-0.058-0.001-0.168-0.004c-0.142-0.004-0.272-0.024-0.466-0.061    c-0.373-0.069-0.873-0.25-1.381-0.583c-0.263-0.155-0.498-0.378-0.75-0.6c-0.22-0.251-0.469-0.5-0.654-0.803    c-0.214-0.285-0.375-0.607-0.537-0.931c-0.175-0.318-0.271-0.671-0.408-1.004c-0.12-0.34-0.193-0.69-0.288-1.027    c-0.093-0.337-0.127-0.68-0.191-1.004c-0.129-0.648-0.135-1.265-0.198-1.783c-0.036-1.046-0.043-1.738-0.043-1.738    s0.102,0.689,0.276,1.708c0.131,0.501,0.217,1.1,0.428,1.707c0.103,0.303,0.179,0.625,0.311,0.932    c0.134,0.305,0.246,0.624,0.399,0.92c0.168,0.286,0.296,0.597,0.49,0.853c0.182,0.265,0.357,0.524,0.567,0.733    c0.186,0.234,0.415,0.398,0.609,0.573c0.218,0.14,0.413,0.286,0.615,0.366c0.392,0.185,0.737,0.256,0.964,0.262    c0.105,0.005,0.214,0.005,0.233-0.002c0.053-0.006,0.081-0.009,0.081-0.009l0.038-0.004c0.413-0.048,0.787,0.248,0.835,0.661    c0.048,0.413-0.248,0.787-0.661,0.835C110.05,78.575,110.013,78.577,109.98,78.576z" />
	</g>
	<g>
		<path class="st2" d="M89.298,55.714c0,0-0.002,0.032-0.006,0.092c-0.005,0.039-0.003,0.129-0.001,0.245    c0.016,0.231,0.047,0.575,0.167,0.976c0.066,0.197,0.131,0.419,0.241,0.634c0.098,0.224,0.227,0.447,0.381,0.669    c0.142,0.23,0.34,0.433,0.527,0.654c0.22,0.186,0.411,0.422,0.667,0.582c0.476,0.364,1.017,0.667,1.551,0.89    c0.271,0.104,0.526,0.232,0.784,0.306c0.259,0.076,0.504,0.148,0.73,0.214c0.454,0.137,0.849,0.178,1.12,0.241    c0.274,0.053,0.43,0.083,0.43,0.083s-0.159-0.007-0.437-0.019c-0.277-0.023-0.681-0.005-1.156-0.075    c-0.239-0.033-0.499-0.069-0.773-0.107c-0.276-0.036-0.556-0.128-0.855-0.195c-0.591-0.15-1.215-0.384-1.802-0.708    c-0.309-0.138-0.567-0.365-0.85-0.546c-0.254-0.219-0.521-0.428-0.733-0.675c-0.224-0.239-0.422-0.488-0.586-0.744    c-0.175-0.248-0.302-0.51-0.421-0.749c-0.228-0.486-0.341-0.928-0.409-1.244c-0.029-0.16-0.05-0.287-0.058-0.397    c-0.008-0.088-0.012-0.135-0.012-0.135c-0.035-0.414,0.272-0.779,0.686-0.814s0.779,0.272,0.814,0.686    c0.003,0.036,0.004,0.071,0.002,0.106L89.298,55.714z" />
	</g>
	<g>
		<path class="st2" d="M99.435,58.748c0,0-0.013,0.025-0.037,0.073c-0.018,0.028-0.048,0.107-0.087,0.202    c-0.069,0.198-0.149,0.499-0.186,0.879c-0.021,0.379,0.008,0.833,0.132,1.314c0.083,0.232,0.146,0.488,0.272,0.724    c0.117,0.24,0.236,0.488,0.401,0.712c0.144,0.238,0.314,0.46,0.501,0.666c0.172,0.219,0.36,0.419,0.561,0.597    c0.197,0.18,0.372,0.376,0.574,0.519c0.195,0.153,0.38,0.298,0.55,0.431c0.345,0.265,0.662,0.443,0.872,0.589    c0.214,0.14,0.336,0.219,0.336,0.219s-0.132-0.062-0.363-0.17c-0.228-0.115-0.571-0.25-0.954-0.466    c-0.191-0.111-0.398-0.231-0.617-0.358c-0.227-0.118-0.433-0.291-0.663-0.45c-0.233-0.155-0.459-0.336-0.674-0.542    c-0.228-0.191-0.445-0.403-0.64-0.64c-0.214-0.22-0.387-0.477-0.559-0.732c-0.179-0.25-0.299-0.535-0.434-0.8    c-0.231-0.553-0.353-1.115-0.392-1.609c-0.025-0.495,0.023-0.914,0.082-1.208c0.035-0.148,0.061-0.262,0.096-0.36    c0.027-0.079,0.041-0.121,0.041-0.121c0.117-0.341,0.488-0.522,0.829-0.405c0.341,0.117,0.522,0.488,0.405,0.829    c-0.009,0.028-0.021,0.054-0.033,0.08L99.435,58.748z" />
	</g>
	<g>
		<path class="st2" d="M99.737,88.312l5.404,1.422l-5.57-0.436c-0.276-0.022-0.483-0.263-0.461-0.54    c0.022-0.277,0.263-0.483,0.54-0.461C99.678,88.299,99.709,88.305,99.737,88.312z" />
	</g>
	<g>
		<path class="st2" d="M78.16,133.365c0,0,0.171,1.169-0.008,2.93c-0.079,0.881-0.274,1.898-0.567,2.969    c-0.164,0.53-0.33,1.082-0.549,1.624c-0.241,0.533-0.446,1.094-0.745,1.611c-0.279,0.527-0.579,1.042-0.924,1.519    c-0.308,0.502-0.691,0.938-1.059,1.358c-0.345,0.441-0.751,0.8-1.133,1.14c-0.189,0.171-0.373,0.337-0.551,0.497    c-0.197,0.138-0.387,0.271-0.569,0.399c-0.366,0.252-0.694,0.49-1.009,0.663c-0.321,0.161-0.6,0.302-0.83,0.417    c-0.46,0.227-0.726,0.342-0.726,0.342s0.225-0.194,0.624-0.507c0.199-0.154,0.441-0.342,0.719-0.557    c0.267-0.226,0.538-0.519,0.858-0.801c0.156-0.145,0.318-0.296,0.486-0.453c0.153-0.171,0.311-0.348,0.474-0.531    c0.329-0.359,0.672-0.737,0.979-1.17c0.33-0.414,0.645-0.858,0.934-1.332c0.317-0.456,0.589-0.949,0.845-1.452    c0.293-0.483,0.497-1.012,0.737-1.514c0.212-0.514,0.422-1.022,0.604-1.522c0.158-0.508,0.351-0.989,0.474-1.463    c0.142-0.47,0.262-0.919,0.366-1.336c0.204-0.835,0.367-1.542,0.442-2.043C78.121,133.656,78.16,133.365,78.16,133.365z" />
	</g>
	<g>
		<path d="M244.923,41.977c1.892,2.095,3.344,4.673,3.962,7.553c0.644,2.863,0.075,6.142-1.712,8.627    c-1.746,2.511-4.259,4.287-6.861,5.595c-2.61,1.339-5.377,2.238-8.158,2.958l0.529-0.283c-1.593,1.405-3.188,2.643-4.883,3.817    c-1.684,1.17-3.414,2.271-5.194,3.287c-1.777,1.019-3.589,1.985-5.467,2.812c-1.861,0.863-3.786,1.584-5.719,2.269l0.512-0.38    c-1.257,1.625-2.609,3.076-4.008,4.521c-1.394,1.44-2.881,2.789-4.428,4.062c-1.544,1.278-3.189,2.435-4.903,3.468    c-1.725,1.015-3.547,1.875-5.449,2.443c3.562-1.752,6.611-4.256,9.415-6.962c1.398-1.363,2.723-2.796,4.007-4.264    c1.276-1.464,2.496-3.02,3.62-4.55l0.187-0.254l0.326-0.126c1.844-0.714,3.678-1.459,5.449-2.343    c1.78-0.864,3.53-1.792,5.236-2.797c1.711-0.997,3.374-2.078,4.988-3.222c1.602-1.142,3.224-2.341,4.658-3.596l0.243-0.213    l0.286-0.071c2.674-0.661,5.299-1.491,7.762-2.611c1.229-0.564,2.405-1.221,3.485-1.991c1.092-0.753,2.077-1.638,2.886-2.655    c0.797-1.023,1.413-2.178,1.771-3.431c0.363-1.254,0.432-2.596,0.308-3.937C247.492,47.011,246.423,44.356,244.923,41.977z" />
	</g>
	<g id="Färg_2_">

			<linearGradient id="SVGID_2_" gradientUnits="userSpaceOnUse" x1="155.9244" y1="27.3423" x2="164.7468" y2="40.4421" gradientTransform="matrix(1 0 0 -1 0 227.6012)">
			<stop offset="0" style="stop-color:#FFFFFF" />
			<stop offset="1" style="stop-color:#EDEDED" />
		</linearGradient>
		<polygon class="st5" points="178.355,211.744 188.505,191.788 196.419,176.676 192.378,175.977 177.909,172.87 167.422,166.546    160.838,158.601 132.33,190.502   " />
	</g>
	<path class="st6" d="M162.011,160.88c0,0,10.439,15.465,33.052,15.137" />
	<g>
		<path d="M179.769,13.264c2.901-0.545,5.996-0.441,8.896,0.6c2.901,1.006,5.475,3.377,6.611,6.363    c1.194,2.96,1.3,6.162,0.979,9.184c-0.304,3.045-1.07,5.984-1.995,8.84l-0.052-0.907c0.745,1.693,1.252,3.318,1.643,5.042    c0.382,1.709,0.628,3.452,0.704,5.212c0.077,1.754-0.021,3.545-0.316,5.273c-0.298,1.727-0.748,3.42-1.321,5.061l0.019-0.614    c0.46,1.946,0.743,3.862,1.004,5.805c0.258,1.938,0.403,3.889,0.476,5.841c0.073,1.953-0.001,3.911-0.155,5.854    c-0.197,1.943-0.539,3.87-1.074,5.732c0.218-1.927,0.291-3.846,0.253-5.761c-0.051-1.916-0.214-3.821-0.428-5.719    c-0.235-1.896-0.548-3.781-0.897-5.656c-0.354-1.867-0.801-3.747-1.275-5.546l-0.079-0.298l0.097-0.316    c0.479-1.555,0.837-3.142,1.052-4.743c0.199-1.601,0.308-3.185,0.209-4.794c-0.087-1.603-0.33-3.204-0.699-4.776    c-0.367-1.553-0.837-3.166-1.441-4.558l-0.201-0.463l0.149-0.444c0.918-2.737,1.667-5.524,2.077-8.334    c0.196-1.404,0.295-2.817,0.232-4.208c-0.043-1.391-0.244-2.771-0.684-4.061c-0.44-1.288-1.104-2.49-2.01-3.511    c-0.904-1.025-2.055-1.835-3.32-2.458C185.673,13.675,182.71,13.201,179.769,13.264z" />
	</g>
	<g>
		<path d="M245.433,44.2c-1.749,0.782-3.508,1.547-5.175,2.412c-0.411,0.219-0.816,0.458-1.169,0.711    c-0.171,0.12-0.342,0.278-0.388,0.365c-0.018,0.023-0.054,0.261-0.038,0.456c0.055,0.853,0.288,1.784,0.561,2.665    c0.264,0.888,0.588,1.782,0.992,2.571c0.1,0.191,0.216,0.383,0.319,0.494c0.106,0.1,0.252,0.196,0.436,0.256    c0.364,0.126,0.811,0.166,1.256,0.142c1.807-0.117,3.621-0.831,5.341-1.65c-1.537,1.134-3.264,2.123-5.278,2.407    c-0.503,0.057-1.032,0.084-1.582-0.08c-0.273-0.078-0.554-0.217-0.802-0.439c-0.233-0.229-0.367-0.451-0.504-0.673    c-0.512-0.889-0.832-1.805-1.136-2.739c-0.261-0.947-0.521-1.883-0.534-2.944c0.018-0.276-0.008-0.538,0.21-0.937    c0.219-0.312,0.44-0.449,0.658-0.601c0.436-0.286,0.883-0.486,1.329-0.687C241.717,45.162,243.562,44.633,245.433,44.2z" />
	</g>
	<path class="st7" d="M175.641,72.133c0,0,2.231-23.175,3.577-26.524c1.347-3.348,2.203-21.815,2.203-21.815" />
	<line class="st7" x1="182.19" y1="23.486" x2="182.156" y2="12.933" />
	<line class="st7" x1="238.27" y1="47.554" x2="246.157" y2="44.886" />
	<path class="st7" d="M183.517,102.639c0,0,23.547-1.921,25.654-1.308s10.372,10.25,11.775,14.769s-2.771,10.83-2.771,10.83" />
	<path class="st7" d="M198.987,57.907c0,0,1.527-7.929,5.869-8.779c5.009-0.981,9.125-1.092,10.626,3.538" />
	<path class="st7" d="M219.386,78.18c0,0-0.408,9.236,0.125,13.515" />
	<line class="st7" x1="218.413" y1="124.367" x2="217.376" y2="135.535" />
	<g>
		<path d="M201.519,114.842c-0.144,1.067-0.095,2.135,0.188,3.085c0.288,0.951,0.833,1.74,1.578,2.277    c0.729,0.561,1.657,0.848,2.598,1.065c0.958,0.192,1.963,0.241,2.975,0.261l1.317,0.026l-0.422,1.28    c-0.215,0.652-0.391,1.423-0.509,2.15c-0.134,0.736-0.222,1.479-0.241,2.217c-0.027,1.471,0.132,2.943,0.736,4.231    c0.558,1.304,1.554,2.403,2.826,3.205c1.274,0.804,2.77,1.336,4.323,1.75c-1.607,0.082-3.257-0.146-4.822-0.791    c-1.564-0.635-2.975-1.847-3.838-3.399c-0.852-1.558-1.2-3.327-1.173-5.027c0.009-1.721,0.294-3.346,0.873-5.004l0.895,1.306    c-1.119-0.027-2.251-0.179-3.367-0.493c-1.111-0.318-2.223-0.85-3.103-1.709c-0.881-0.853-1.415-2.043-1.488-3.194    C200.773,116.926,201.031,115.807,201.519,114.842z" />
	</g>
	<g>
		<path d="M194.409,120.139c1.633-0.46,2.903-0.769,4.093-1.294c0.591-0.255,1.173-0.529,1.754-0.895    c0.616-0.332,1.18-0.779,1.945-1.213c-0.04,0.854-0.344,1.68-0.872,2.362c-0.507,0.701-1.242,1.248-2.049,1.587    c-0.808,0.345-1.693,0.478-2.54,0.394C195.897,120.982,195.066,120.719,194.409,120.139z" />
	</g>
	<g>
		<path d="M196.058,118.71c2.667,3.021,4.825,6.481,6.596,10.126c1.763,3.653,3.073,7.558,3.746,11.611    c0.3,2.031,0.454,4.09,0.401,6.152c-0.092,2.061-0.378,4.12-0.931,6.107c-1.073,3.989-3.257,7.622-6.128,10.433    c2.228-3.35,3.87-6.972,4.61-10.794c0.751-3.812,0.702-7.74,0.074-11.582c-0.601-3.853-1.77-7.624-3.196-11.303    C199.768,125.789,198.043,122.201,196.058,118.71z" />
	</g>
	<line class="st7" x1="221.788" y1="127.546" x2="220.945" y2="139.679" />
	<line class="st7" x1="178.576" y1="86.806" x2="187.243" y2="89.973" />
	<line class="st7" x1="178.832" y1="100.351" x2="186.395" y2="102.418" />
	<path class="st7" d="M219.211,141.282c0,0-2.999,12.094-16.9,24.142l-23.309,44.513" />
	<path class="st8" d="M241.236,54.634" />
	<g>
		<path d="M185.659,14.889c0.353,0.854,0.493,1.781,0.513,2.707c0.022,0.929-0.12,1.864-0.389,2.767    c-0.273,0.902-0.731,1.755-1.326,2.484c-0.571,0.753-1.367,1.305-2.185,1.702c0.569-0.732,1.14-1.381,1.544-2.148    c0.414-0.748,0.782-1.515,1.014-2.337C185.344,18.435,185.544,16.712,185.659,14.889z" />
	</g>
	<g>
		<path d="M213.033,136.074c-0.376-0.829-0.537-1.738-0.573-2.651c-0.037-0.916,0.096-1.846,0.384-2.739    c0.296-0.891,0.816-1.718,1.485-2.375c0.648-0.689,1.53-1.091,2.387-1.331c-0.674,0.615-1.334,1.145-1.801,1.846    c-0.473,0.678-0.879,1.392-1.126,2.184C213.257,132.579,213.104,134.28,213.033,136.074z" />
	</g>
	<polyline class="st9" points="197.557,87.889 207.029,87.889 198.174,96.332 188.599,96.023  " />
	<polyline class="st9" points="246.941,35.443 248.932,35.443 247.559,43.885 237.983,43.576  " />
	<polyline class="st9" points="174.912,9.984 181.811,3.494 181.146,15.71 173.961,22.046  " />
	<polyline class="st9" points="189.555,62.798 198.541,59.803 200.417,82.339 183.629,73.347  " />
	<path class="st7" d="M183.601,89c0,0,21.261-1.43,29.035,0.223c7.773,1.654,14.498,21.471,14.502,25.419   c0.004,3.948-4.247,13.506-5.187,15.885" />
	<path class="st7" d="M140.743,181.473c0,0,20.842-22.056,24.712-29.535c3.87-7.48-5.695-55.203-3.826-63.623   c1.869-8.42,28.649-21.042,33.215-24.942s40.305-14.905,43.428-16.037" />
	<g>
		<path d="M211.579,135.21c1.118,1.668,2.445,2.831,3.996,3.641c0.789,0.383,1.621,0.689,2.508,0.945    c0.442,0.13,0.903,0.212,1.366,0.345c0.469,0.098,0.945,0.18,1.44,0.336c-0.472,0.176-0.963,0.293-1.462,0.4    c-0.499,0.038-1.011,0.114-1.522,0.076c-1.027-0.035-2.061-0.301-3.014-0.766c-0.938-0.494-1.778-1.202-2.365-2.076    C211.932,137.251,211.549,136.235,211.579,135.21z" />
	</g>
	<path class="st6" d="M181.196,25.51" />
</g>
<g id="Lager_1">
</g>
</svg>
