<?xml version="1.0" encoding="UTF-8"?>
<!-- Generator: Adobe Illustrator 18.1.1, SVG Export Plug-In . SVG Version: 6.00 Build 0)  -->
<svg xmlns="http://www.w3.org/2000/svg" xmlns:xlink="http://www.w3.org/1999/xlink" version="1.1" id="Lager_1" x="0px" y="0px" width="226.77px" height="226.77px" viewBox="0 0 226.77 226.77" enable-background="new 0 0 226.77 226.77" xml:space="preserve"><rect fill="#FFFFFF" x="0px" y="0px" width="226.77px" height="226.77px" />
<g>
	<g id="Färg_8_">
		
			<linearGradient id="SVGID_1_" gradientUnits="userSpaceOnUse" x1="95.3117" y1="31.6163" x2="105.9552" y2="54.9642" gradientTransform="matrix(1 0 0 -1 0 226.11)">
			<stop offset="0" style="stop-color:#FFFFFF" />
			<stop offset="1" style="stop-color:#EDEDED" />
		</linearGradient>
		<path fill="url(#SVGID_1_)" d="M125.105,209.781l4.734-34.65l6.058-17.791c0,0-8.989-1.086-10.902-0.47    c-1.912,0.616-16.2-4.06-16.2-4.06l-10.743-5.874l-5.564-5.633l-13.864,23.1l-15.739,20.581    C62.887,184.982,124.428,209.781,125.105,209.781z" />
	</g>
	<g>
		<path d="M73.468,172.569l4.8-7.921l4.841-7.895l4.843-7.894l4.902-7.856l0.02-0.031l0.061-0.072    c1.126-1.332,2.025-3.022,2.442-4.725c0.214-0.857,0.3-1.737,0.221-2.596c-0.014-0.444-0.119-0.827-0.201-1.3l-0.284-1.435    c-0.696-3.782-1.322-7.556-1.953-11.335c-1.22-7.562-2.381-15.131-3.521-22.705c-1.098-7.583-2.204-15.152-3.147-22.78    c-0.115-0.957-0.224-1.911-0.307-2.893l-0.052-0.763c-0.005-0.134-0.012-0.274-0.005-0.466c-0.002-0.016,0.009-0.155,0.029-0.26    l0.035-0.162c-0.036,0.133-0.004,0.012-0.01,0.03c0.017-0.064,0.029-0.132,0.012-0.075c-0.005,0.06-0.006-0.199-0.039-0.377    l-0.11-0.689c-0.169-0.989-0.247-2.189,0.052-3.329c0.285-1.149,0.912-2.162,1.636-2.981c0.735-0.815,1.565-1.48,2.425-2.044    c0.449-0.289,0.831-0.519,1.353-0.806l0.643-0.32l0.772-0.321c1.996-0.74,3.909-0.922,5.461-1.601    c0.781-0.332,1.497-0.756,2.134-1.316c0.314-0.285,0.638-0.561,0.918-0.897l0.475-0.534c0.156-0.174,0.31-0.35,0.558-0.571    c0.868-0.792,1.741-1.298,2.654-1.769c0.907-0.461,1.828-0.843,2.755-1.183c3.71-1.346,7.488-2.172,11.265-2.935    c3.782-0.736,7.577-1.318,11.369-1.882l1.422-0.208l0.241-0.033l0.179-0.013c0.144-0.004,0.445,0.005,0.584,0.046    c0.353,0.062,0.64,0.198,0.914,0.335c1.035,0.593,1.695,1.354,2.36,2.099c1.279,1.522,2.407,3.065,3.383,4.809    c1.915,3.363,3.608,6.797,5.296,10.243c0.827,1.73,1.635,3.469,2.429,5.215l1.167,2.635c0.369,0.891,0.763,1.797,0.893,2.838    c0.15,1.053-0.233,2.12-0.766,2.94c-0.524,0.842-1.17,1.58-1.794,2.299c-1.279,1.441-2.581,2.837-3.889,4.238l-7.937,8.303    l7.654-8.561c1.269-1.429,2.542-2.866,3.768-4.319c0.617-0.735,1.197-1.478,1.656-2.281c0.465-0.798,0.724-1.657,0.568-2.521    c-0.138-0.863-0.541-1.728-0.94-2.582l-1.263-2.567l-2.624-5.096c-1.762-3.386-3.544-6.78-5.499-10.023    c-0.927-1.58-2.105-3.114-3.324-4.489c-0.609-0.669-1.281-1.336-1.93-1.673c-0.156-0.07-0.309-0.138-0.431-0.149    c-0.094-0.018-0.036-0.005-0.129-0.014l-0.179,0.017c-0.029,0.003,0.091-0.01,0.019-0.001l-0.044,0.008l-0.088,0.015l-1.413,0.243    c-3.767,0.648-7.521,1.343-11.242,2.131c-3.711,0.796-7.427,1.668-10.903,2.982c-0.866,0.33-1.711,0.695-2.505,1.111    c-0.784,0.406-1.562,0.906-2.101,1.416c-0.115,0.092-0.278,0.275-0.439,0.46l-0.472,0.544c-0.33,0.402-0.729,0.762-1.12,1.12    c-0.799,0.708-1.748,1.279-2.725,1.697c-1.979,0.841-3.949,1.034-5.537,1.658l-0.554,0.229l-0.641,0.322    c-0.314,0.179-0.755,0.438-1.108,0.672c-0.738,0.486-1.405,1.039-1.951,1.648c-0.535,0.615-0.932,1.283-1.106,2.001    c-0.181,0.723-0.151,1.479,0.002,2.369l0.119,0.728c0.032,0.294,0.091,0.514,0.043,1.052c-0.022,0.177-0.037,0.226-0.049,0.278    l-0.029,0.118c0.009-0.024,0.017-0.048,0.023-0.073c0.012-0.046,0.012-0.126,0.012-0.082l0.007,0.251l0.049,0.668    c0.084,0.924,0.193,1.872,0.3,2.816c0.904,7.572,1.979,15.158,3.044,22.732l3.222,22.729c0.537,3.786,1.071,7.58,1.669,11.343    l0.239,1.388c0.07,0.469,0.194,1.025,0.197,1.539c0.068,1.05-0.065,2.099-0.337,3.091c-0.559,1.997-1.543,3.758-2.92,5.314    l0.08-0.103l-5.093,7.733l-5.152,7.696l-5.154,7.694L73.468,172.569z" />
	</g>
	<g>
		<path d="M154.985,84.752c0,0-0.015-0.049-0.043-0.143c-0.013-0.047-0.03-0.106-0.05-0.176c-0.004-0.048-0.03-0.044-0.016-0.147    c0.136-0.001,0.056,0.036,0.086,0.038l0.012,0.033l0.023,0.067c0.114,0.366,0.266,0.906,0.408,1.604    c0.294,1.393,0.613,3.412,0.749,5.857c0.149,2.444,0.117,5.315-0.208,8.368c-0.171,1.525-0.376,3.102-0.698,4.683    c-0.316,1.582-0.695,3.179-1.139,4.758c-0.464,1.573-0.993,3.127-1.569,4.634c-0.566,1.512-1.237,2.954-1.905,4.335    c-1.353,2.757-2.857,5.202-4.277,7.193c-1.409,2.001-2.732,3.55-3.683,4.605c-0.958,1.051-1.541,1.615-1.541,1.615    s0.446-0.675,1.225-1.857c0.768-1.186,1.842-2.889,3.029-4.978c1.18-2.093,2.459-4.58,3.649-7.318    c0.604-1.365,1.146-2.808,1.694-4.273c0.539-1.469,1.026-2.982,1.457-4.511c0.452-1.523,0.842-3.064,1.17-4.594    c0.32-1.531,0.628-3.042,0.845-4.519c0.456-2.951,0.698-5.736,0.807-8.134c0.1-2.398,0.073-4.408,0.001-5.815    c-0.042-0.702-0.072-1.258-0.121-1.631l-0.01-0.067l-0.005-0.031c0.023-0.013-0.063-0.014,0.063-0.01    c0.016-0.02,0.006,0.061,0.013,0.084c0.006,0.072,0.012,0.132,0.016,0.181C154.979,84.701,154.985,84.752,154.985,84.752z" />
	</g>
	<line fill="none" stroke="#000000" stroke-width="2" stroke-linecap="round" x1="144.031" y1="126.433" x2="128.85" y2="184.117" />
	<path fill="none" stroke="#000000" stroke-linecap="round" d="M95.568,144.585c0,0,14.5,13.833,36.833,12.333" />
	<path fill="none" stroke="#000000" stroke-width="2" stroke-linecap="round" d="M99.763,60.807c0,0,21.428-4.071,25.274-4.516   c3.846-0.444,7.264,5.781,8.799,8.845c1.535,3.064,7.571,13.283,4.148,16.945s-9.439,7.147-9.439,7.147" />
	<g>
		<path d="M108.601,75.978c0,0,0.225,0.077,0.609,0.19c0.381,0.118,0.917,0.275,1.545,0.44c1.263,0.326,2.887,0.658,4.502,0.68    c0.405,0.041,0.806-0.012,1.206-0.012c0.401,0.002,0.787-0.084,1.173-0.104c0.386-0.029,0.747-0.133,1.108-0.178    c0.364-0.039,0.69-0.149,1.009-0.213c0.309-0.088,0.624-0.114,0.874-0.207c0.254-0.084,0.49-0.14,0.683-0.192    c0.39-0.098,0.63-0.142,0.63-0.142s-0.143,0.183-0.424,0.483c-0.142,0.147-0.314,0.332-0.527,0.526    c-0.201,0.214-0.475,0.381-0.768,0.582c-0.298,0.192-0.61,0.439-0.992,0.59c-0.377,0.159-0.769,0.37-1.207,0.484    c-0.439,0.105-0.89,0.268-1.368,0.303c-0.476,0.052-0.963,0.113-1.45,0.08l-0.728-0.038l-0.712-0.118    c-0.474-0.063-0.917-0.23-1.347-0.357c-0.419-0.166-0.823-0.325-1.182-0.525c-0.363-0.191-0.689-0.398-0.975-0.61    c-0.582-0.404-1-0.829-1.27-1.141C108.72,76.186,108.601,75.978,108.601,75.978z" />
	</g>
	<g>
		<path d="M120.05,72.974c0,0,0.363,0.503,0.801,1.144c0.461,0.642,0.996,1.437,1.535,2.23c0.271,0.398,0.545,0.794,0.797,1.187    c0.266,0.38,0.498,0.765,0.705,1.109c0.201,0.349,0.381,0.645,0.495,0.877c0.115,0.23,0.173,0.38,0.173,0.38    s-0.154-0.011-0.411-0.061c-0.253-0.056-0.625-0.133-1.01-0.329c-0.41-0.165-0.834-0.441-1.261-0.779    c-0.413-0.352-0.81-0.782-1.143-1.263c-0.317-0.491-0.587-1.016-0.744-1.545c-0.171-0.523-0.237-1.042-0.234-1.487    C119.739,73.543,120.05,72.974,120.05,72.974z" />
	</g>
	<g>
		<path d="M122.464,76.588c0,0-0.918,1.122-2.051,2.844c-0.274,0.438-0.566,0.909-0.851,1.414c-0.288,0.504-0.549,1.053-0.808,1.614    c-0.27,0.56-0.451,1.168-0.65,1.771c-0.162,0.613-0.319,1.234-0.378,1.865c-0.079,0.628-0.09,1.259-0.042,1.879    c0.052,0.618,0.131,1.232,0.298,1.813c0.16,0.58,0.341,1.146,0.57,1.666c0.1,0.267,0.226,0.515,0.351,0.756    c0.124,0.241,0.218,0.492,0.356,0.707c0.263,0.435,0.479,0.861,0.72,1.209c0.234,0.352,0.42,0.682,0.606,0.927    c0.353,0.508,0.548,0.819,0.548,0.819s-0.307-0.184-0.831-0.54c-0.518-0.361-1.234-0.926-1.976-1.746    c-0.36-0.416-0.765-0.872-1.091-1.43c-0.352-0.539-0.685-1.148-0.927-1.824c-0.128-0.336-0.251-0.681-0.335-1.045    c-0.109-0.358-0.172-0.731-0.218-1.111c-0.108-0.758-0.099-1.542-0.014-2.312c0.178-1.545,0.739-2.999,1.452-4.206    c0.698-1.22,1.556-2.199,2.342-2.957C121.121,77.182,122.464,76.588,122.464,76.588z" />
	</g>
	<line fill="none" stroke="#000000" stroke-width="1.5" stroke-linecap="round" x1="128.48" y1="88.62" x2="120.338" y2="94.704" />
	<g>
		<path d="M125.55,93.823c0,0,0.664,2.779,1.66,6.947c0.532,2.073,1.152,4.491,1.817,7.083c0.358,1.291,0.727,2.625,1.103,3.981    c0.38,1.369,0.58,2.844,0.605,4.293c0.069,2.917-0.568,5.808-1.574,8.322c-1.019,2.518-2.386,4.665-3.698,6.374    c-1.329,1.702-2.618,2.958-3.539,3.805c-0.934,0.836-1.502,1.27-1.502,1.27s0.534-0.477,1.411-1.365    c0.877-0.887,2.079-2.209,3.317-3.943c1.24-1.727,2.516-3.881,3.43-6.366c0.943-2.465,1.537-5.271,1.438-8.078    c-0.034-1.409-0.258-2.779-0.602-4.127c-0.357-1.36-0.708-2.698-1.047-3.993c-0.669-2.599-1.196-5.048-1.614-7.152    C125.902,96.665,125.55,93.823,125.55,93.823z" />
	</g>
	<g>
		<path d="M127.561,93.464c0,0,0.542,1.462,1.218,3.697c0.328,1.12,0.721,2.425,1.088,3.838c0.374,1.411,0.726,2.928,1.063,4.449    c0.313,1.526,0.613,3.057,0.825,4.504c0.222,1.446,0.356,2.808,0.432,3.978c0.036,0.586,0.072,1.121,0.047,1.6    c-0.018,0.478-0.001,0.892-0.044,1.233c-0.087,0.678-0.136,1.065-0.136,1.065s-0.004-0.389-0.01-1.068    c0.007-0.337-0.056-0.749-0.089-1.218c-0.029-0.469-0.124-0.996-0.188-1.571c-0.061-0.576-0.178-1.195-0.286-1.851    c-0.1-0.656-0.256-1.343-0.377-2.057c-0.273-1.425-0.581-2.944-0.907-4.459c-0.664-3.032-1.327-6.063-1.825-8.337    C127.873,94.991,127.561,93.464,127.561,93.464z" />
	</g>
	<path fill="none" stroke="#000000" stroke-width="2" stroke-linecap="round" d="M141.594,84.683" />
	<path fill="none" stroke="#000000" stroke-width="1.5" stroke-linecap="round" d="M140.199,85.222l-5.207,6.402   c0,0-2.142,0.557-3.887-1.831" />
	<path fill="none" stroke="#000000" stroke-width="1.5" stroke-linecap="round" d="M154.982,78.732l-4.301,8.189   c0,0-1.389,1.076-3.134-1.311" />
	<path fill="none" stroke="#000000" stroke-width="1.5" stroke-linecap="round" d="M147.107,82.985l-4.292,6.078   c0,0-2.142,0.557-3.887-1.831" />
	<g>
		<path d="M119.874,46.986c0.009,0.003,0.011-0.102,0.111-0.266c0.106-0.177,0.289-0.399,0.56-0.635    c0.535-0.487,1.376-1.067,2.436-1.651c1.055-0.595,2.331-1.194,3.73-1.741c0.702-0.268,1.425-0.554,2.178-0.788    c0.751-0.239,1.519-0.469,2.29-0.687c0.778-0.195,1.558-0.379,2.332-0.541c0.77-0.178,1.545-0.275,2.29-0.389    c1.494-0.208,2.91-0.293,4.125-0.259c0.608,0.009,1.165,0.056,1.656,0.112c0.492,0.06,0.917,0.132,1.263,0.214    c0.347,0.064,0.613,0.163,0.794,0.216c0.18,0.057,0.275,0.087,0.275,0.087s-0.405,0.017-1.093,0.094    c-0.688,0.068-1.656,0.208-2.804,0.421c-1.148,0.219-2.476,0.509-3.895,0.846c-0.708,0.175-1.439,0.356-2.182,0.54    c-0.745,0.178-1.496,0.383-2.247,0.59c-0.756,0.189-1.509,0.391-2.246,0.602c-0.74,0.206-1.468,0.409-2.173,0.605    c-1.408,0.4-2.72,0.784-3.842,1.127c-1.117,0.353-2.05,0.655-2.67,0.932c-0.308,0.139-0.554,0.259-0.688,0.365    C119.924,46.89,119.88,46.994,119.874,46.986z" />
	</g>
	<g>
		<path d="M139.485,40.252c0,0,0.215-0.081,0.642-0.165c0.426-0.084,1.07-0.169,1.901-0.086c0.828,0.07,1.846,0.337,2.889,0.939    c1.046,0.595,2.049,1.573,2.863,2.798c0.755,1.172,1.466,2.556,2.154,3.973c0.662,1.44,1.322,2.967,1.961,4.563    c0.61,1.605,1.235,3.265,1.819,4.968c0.558,1.712,1.124,3.451,1.628,5.215c0.242,0.886,0.48,1.77,0.697,2.671l0.16,0.679    l0.075,0.348l0.037,0.174l0.019,0.087l0.022,0.125l0.005,0.042c0.011,0.127,0.031,0.19,0.034,0.369    c0.003,0.171,0.003,0.35-0.006,0.513c-0.032,0.271-0.063,0.545-0.122,0.789c-0.453,1.97-1.28,3.553-2.081,5.107    c-0.812,1.54-1.715,2.946-2.581,4.266c-0.873,1.316-1.746,2.525-2.591,3.61c-1.672,2.183-3.218,3.877-4.343,5.014    c-1.137,1.128-1.837,1.711-1.837,1.711s0.614-0.676,1.577-1.94c0.971-1.256,2.288-3.101,3.739-5.39    c1.432-2.297,3.053-5.022,4.454-8.061c0.686-1.5,1.389-3.138,1.647-4.687c0.037-0.194,0.041-0.367,0.056-0.543    c-0.004-0.061-0.007-0.107-0.003-0.161c0.006-0.047-0.028-0.205-0.039-0.302l-0.152-0.541l-0.19-0.631    c-0.259-0.846-0.546-1.703-0.836-2.555c-0.567-1.711-1.135-3.428-1.728-5.104c-0.571-1.684-1.135-3.341-1.71-4.932    c-0.567-1.592-1.099-3.138-1.665-4.572c-0.551-1.451-1.06-2.762-1.657-3.96c-0.54-1.145-1.276-2.046-2.059-2.704    c-0.783-0.664-1.628-1.048-2.354-1.287c-0.732-0.227-1.35-0.305-1.772-0.337C139.714,40.228,139.485,40.252,139.485,40.252z" />
	</g>
	<g>
		<path d="M127.901,42.784c0.007,0.002,0.01-0.095,0.094-0.252c0.093-0.166,0.254-0.39,0.503-0.616    c0.487-0.473,1.266-1.032,2.251-1.589c0.981-0.569,2.173-1.131,3.481-1.642c1.307-0.516,2.731-0.985,4.184-1.351    c1.452-0.369,2.93-0.643,4.332-0.802c1.4-0.165,2.726-0.209,3.86-0.146c1.134,0.049,2.075,0.209,2.717,0.375    c0.323,0.066,0.569,0.167,0.737,0.218c0.167,0.056,0.256,0.085,0.256,0.085s-0.372,0.034-1.022,0.094    c-0.643,0.059-1.548,0.192-2.62,0.374c-0.534,0.101-1.112,0.211-1.724,0.328c-0.608,0.13-1.249,0.267-1.912,0.409    c-1.323,0.302-2.728,0.647-4.132,1.003c-1.404,0.355-2.808,0.721-4.121,1.08c-1.312,0.362-2.537,0.709-3.581,1.024    c-1.04,0.324-1.909,0.605-2.483,0.867c-0.288,0.131-0.509,0.247-0.635,0.347C127.949,42.697,127.906,42.791,127.901,42.784z" />
	</g>
	<g>
		<path d="M145.886,36.654c0,0,0.21-0.079,0.626-0.161c0.415-0.082,1.043-0.169,1.852-0.095c0.807,0.062,1.802,0.307,2.826,0.876    c1.031,0.557,2.025,1.492,2.846,2.668c0.438,0.629,0.735,1.152,1.107,1.838c0.368,0.661,0.697,1.331,1.048,2.025    c0.65,1.402,1.302,2.891,1.937,4.442c0.605,1.563,1.211,3.183,1.796,4.838c0.563,1.664,1.103,3.363,1.62,5.074    c0.25,0.858,0.479,1.723,0.703,2.591l0.322,1.31l0.145,0.676l0.018,0.084l0.019,0.105l0.006,0.041l0.023,0.163    c0.017,0.086,0.024,0.275,0.029,0.428c-0.002,1.15-0.261,2.007-0.529,2.886c-0.279,0.86-0.606,1.67-0.949,2.451    c-0.683,1.562-1.462,2.993-2.219,4.333c-0.759,1.339-1.511,2.58-2.241,3.701c-1.443,2.253-2.739,4.061-3.661,5.315    c-0.943,1.238-1.482,1.946-1.482,1.946s0.429-0.778,1.18-2.139c0.751-1.359,1.809-3.307,3.023-5.663    c1.197-2.36,2.582-5.134,3.732-8.173c0.283-0.758,0.545-1.535,0.749-2.316c0.201-0.759,0.348-1.613,0.307-2.212    c-0.008-0.065,0.004-0.095-0.024-0.225l-0.028-0.162l-0.007-0.04l-0.004-0.02c0.023,0.121,0.003,0.023,0.007,0.045l-0.021-0.075    l-0.168-0.602l-0.385-1.237c-0.277-0.829-0.555-1.662-0.832-2.495c-0.539-1.675-1.119-3.34-1.691-4.977    c-0.545-1.647-1.11-3.257-1.675-4.806c-0.53-1.563-1.085-3.053-1.625-4.456c-0.269-0.698-0.527-1.389-0.797-2.012    c-0.241-0.609-0.588-1.317-0.842-1.821c-0.549-1.103-1.286-1.964-2.057-2.598c-0.776-0.634-1.603-1.003-2.314-1.229    c-0.716-0.216-1.319-0.291-1.731-0.32C146.11,36.631,145.886,36.654,145.886,36.654z" />
	</g>
	<g>
		<path d="M127.832,87.949c0,0-0.666,0.154-1.623,0.335c-0.479,0.092-1.03,0.204-1.61,0.327c-0.293,0.05-0.58,0.153-0.883,0.207    c-0.291,0.085-0.595,0.157-0.878,0.263c-0.282,0.102-0.582,0.18-0.832,0.319c-0.128,0.066-0.264,0.119-0.391,0.179    c-0.117,0.073-0.232,0.144-0.346,0.215c-0.25,0.126-0.395,0.323-0.601,0.47c-0.161,0.176-0.283,0.368-0.433,0.538    c-0.081,0.198-0.17,0.385-0.255,0.557c-0.081,0.173-0.086,0.343-0.128,0.48c-0.066,0.277-0.115,0.45-0.115,0.45    s-0.052-0.155-0.123-0.451c-0.023-0.147-0.103-0.333-0.087-0.548c0.012-0.214,0.027-0.467,0.069-0.743    c0.1-0.251,0.193-0.556,0.363-0.829c0.199-0.24,0.377-0.569,0.664-0.759c0.265-0.227,0.546-0.452,0.87-0.596    c0.311-0.184,0.644-0.291,0.974-0.421c0.671-0.205,1.349-0.337,1.987-0.374c0.637-0.044,1.229-0.031,1.732,0.031    C127.189,87.701,127.832,87.949,127.832,87.949z" />
	</g>
	<g>
		<path d="M140.019,84.705c0,0-0.559,0.258-1.397,0.646c-0.415,0.186-0.891,0.407-1.392,0.646c-0.499,0.244-1.02,0.509-1.506,0.813    c-0.231,0.161-0.496,0.291-0.694,0.476c-0.104,0.088-0.211,0.171-0.322,0.25l-0.272,0.274c-0.198,0.173-0.307,0.379-0.451,0.564    c-0.128,0.191-0.177,0.4-0.278,0.587c-0.045,0.196-0.066,0.387-0.104,0.562c-0.041,0.176,0.007,0.329,0,0.462    c0.007,0.273,0.011,0.429,0.011,0.429s-0.078-0.129-0.204-0.381c-0.049-0.129-0.169-0.277-0.189-0.476    c-0.029-0.196-0.081-0.428-0.082-0.683c0.045-0.245,0.051-0.545,0.169-0.815c0.124-0.264,0.233-0.577,0.448-0.809    c0.188-0.263,0.403-0.506,0.659-0.709c0.238-0.232,0.52-0.388,0.784-0.582c0.559-0.323,1.137-0.596,1.7-0.775    c0.56-0.187,1.094-0.314,1.559-0.381C139.385,84.651,140.019,84.705,140.019,84.705z" />
	</g>
	<line fill="none" stroke="#000000" stroke-width="2" stroke-linecap="round" x1="96.144" y1="136.359" x2="73.978" y2="171.773" />
	<g>
		<path d="M139.106,86.566c0,0,0.439-0.769,1.22-1.789c0.774-1.028,1.876-2.32,3.052-3.534c1.171-1.22,2.413-2.363,3.366-3.203    c0.48-0.421,0.88-0.773,1.16-1.018c0.268-0.255,0.44-0.404,0.44-0.404s-0.059,0.207-0.196,0.576    c-0.154,0.352-0.395,0.851-0.745,1.401c-0.687,1.112-1.755,2.465-2.946,3.689c-1.184,1.233-2.487,2.342-3.53,3.104    C139.893,86.158,139.106,86.566,139.106,86.566z" />
	</g>
</g>
</svg>
