<?xml version="1.0" encoding="UTF-8"?>
<!-- Generator: Adobe Illustrator 18.1.1, SVG Export Plug-In . SVG Version: 6.00 Build 0)  -->
<svg xmlns="http://www.w3.org/2000/svg" xmlns:xlink="http://www.w3.org/1999/xlink" version="1.1" id="Lager_1" x="0px" y="0px" width="226.77px" height="226.77px" viewBox="0 0 226.77 226.77" enable-background="new 0 0 226.77 226.77" xml:space="preserve"><rect fill="#FFFFFF" x="0px" y="0px" width="226.77px" height="226.77px" />
<g id="Färg_2_">
	
		<linearGradient id="SVGID_1_" gradientUnits="userSpaceOnUse" x1="83.3279" y1="21.659" x2="91.7863" y2="34.2185" gradientTransform="matrix(0.9829 -0.1842 -0.1842 -0.9829 7.6798 245.1139)">
		<stop offset="0" style="stop-color:#FFFFFF" />
		<stop offset="1" style="stop-color:#EDEDED" />
	</linearGradient>
	<polygon fill="url(#SVGID_1_)" points="113.751,221.243 118.386,190.871 121.168,179.788 110.353,178.345 93.531,173.501    82.648,167.4 76.861,162.239 55.283,200.708  " />
</g>
<g>
	<path d="M95.332,17.6c0,0,0.056,0.376,0.154,1.035c0.083,0.659,0.243,1.596,0.416,2.713c0.096,0.557,0.199,1.16,0.33,1.784   c0.067,0.311,0.143,0.629,0.238,0.938c0.088,0.295,0.212,0.644,0.333,0.787l0.017,0.021c-0.043-0.039,0.021,0.016,0.021,0.016   c0.036,0.032,0.07,0.059,0.082,0.06l0.157,0.082c0.134,0.061,0.286,0.115,0.446,0.163c0.32,0.094,0.664,0.177,1.017,0.242   c0.706,0.135,1.445,0.201,2.181,0.266c0.736,0.059,1.481,0.074,2.184,0.038c0.347-0.021,0.701-0.052,0.898-0.163   c0.184-0.095,0.418-0.348,0.588-0.602c0.359-0.528,0.606-1.149,0.788-1.748c0.185-0.601,0.315-1.191,0.4-1.743   c0.183-1.103,0.232-2.049,0.237-2.71c0.014-0.662,0.005-1.044,0.005-1.044s0.085,0.371,0.179,1.033   c0.081,0.662,0.18,1.619,0.126,2.779c-0.08,1.154-0.236,2.531-0.999,3.901c-0.215,0.338-0.442,0.671-0.893,0.948   c-0.449,0.244-0.86,0.271-1.249,0.324c-0.786,0.08-1.56,0.057-2.337,0.015c-0.776-0.041-1.545-0.152-2.305-0.302   c-0.379-0.081-0.758-0.165-1.132-0.302c-0.188-0.068-0.375-0.145-0.565-0.244c-0.098-0.056-0.184-0.1-0.306-0.194   c-0.065-0.047-0.098-0.078-0.127-0.107l-0.076-0.075l-0.066-0.084c-0.295-0.438-0.353-0.783-0.448-1.142   c-0.077-0.353-0.128-0.693-0.172-1.024c-0.09-0.66-0.131-1.281-0.157-1.855C95.204,19.12,95.332,17.6,95.332,17.6z" />
</g>
<g>
	<path d="M123.715,15.145c0,0-0.194,1.538-0.486,3.845c-0.06,0.573-0.126,1.195-0.195,1.852c-0.057,0.649-0.101,1.356-0.055,2.009   c0.036,0.371,0.072,0.46,0.293,0.606c0.238,0.17,0.568,0.311,0.897,0.446c0.669,0.265,1.402,0.466,2.137,0.639   c0.734,0.183,1.482,0.334,2.216,0.441c0.366,0.054,0.731,0.108,1.072,0.127c0.159,0.011,0.347,0.007,0.413-0.018   c0.11-0.027,0.24-0.09,0.361-0.17c0.498-0.332,0.92-0.883,1.254-1.417c0.334-0.544,0.618-1.092,0.846-1.615   c0.46-1.046,0.773-1.963,0.963-2.611c0.194-0.651,0.304-1.023,0.304-1.023s-0.022,0.389-0.116,1.065   c-0.105,0.673-0.259,1.642-0.615,2.772c-0.186,0.562-0.403,1.172-0.729,1.785c-0.333,0.606-0.708,1.26-1.397,1.782   c-0.176,0.126-0.373,0.242-0.617,0.318c-0.288,0.084-0.478,0.076-0.691,0.081c-0.406-0.004-0.793-0.033-1.183-0.082   c-0.777-0.1-1.552-0.243-2.324-0.421c-0.769-0.191-1.531-0.415-2.275-0.723c-0.374-0.157-0.737-0.336-1.097-0.616   c-0.096-0.08-0.167-0.133-0.28-0.267c-0.136-0.182-0.1-0.106-0.215-0.356c-0.097-0.274-0.109-0.481-0.119-0.684   c-0.025-0.799,0.102-1.494,0.203-2.165c0.106-0.667,0.248-1.285,0.377-1.856c0.263-1.139,0.547-2.071,0.732-2.725   C123.584,15.512,123.715,15.145,123.715,15.145z" />
</g>
<g>
	<path d="M153.702,32.129c0,0-0.489,1.365-1.222,3.412c-0.344,1.017-0.804,2.225-1.061,3.485c-0.031,0.154-0.049,0.308-0.053,0.439   c-0.006,0.053,0.015,0.147,0.002,0.107c0.014,0.036,0.031,0.093,0.043,0.111c0.012,0.01,0.013,0.012,0.025,0.031   c0.131,0.193,0.395,0.403,0.657,0.593c0.541,0.385,1.168,0.718,1.803,1.022c0.632,0.313,1.286,0.596,1.935,0.832   c0.321,0.118,0.65,0.237,0.946,0.304l0.104,0.021c-0.02,0.003,0.069,0.007,0.098,0.01c0.036-0.001,0.074-0.003,0.141-0.014   c0.117-0.022,0.247-0.072,0.374-0.137c0.518-0.264,0.99-0.708,1.39-1.148c0.401-0.447,0.759-0.902,1.065-1.341   c0.617-0.876,1.079-1.655,1.38-2.211c0.306-0.557,0.48-0.875,0.48-0.875s-0.101,0.35-0.32,0.949   c-0.23,0.593-0.563,1.447-1.097,2.415c-0.273,0.48-0.584,0.997-0.982,1.505c-0.404,0.502-0.853,1.03-1.527,1.43   c-0.171,0.096-0.359,0.183-0.579,0.236c-0.102,0.025-0.236,0.045-0.374,0.044c-0.057-0.004-0.055,0.002-0.162-0.01l-0.154-0.022   c-0.39-0.068-0.735-0.172-1.088-0.285c-0.695-0.239-1.378-0.52-2.05-0.837c-0.666-0.331-1.317-0.691-1.932-1.143   c-0.304-0.237-0.601-0.481-0.852-0.878c-0.033-0.055-0.069-0.132-0.098-0.199c-0.024-0.061-0.029-0.089-0.044-0.134   c-0.047-0.211-0.036-0.29-0.033-0.41c0.016-0.213,0.051-0.399,0.093-0.576c0.173-0.704,0.425-1.316,0.659-1.903   c0.236-0.584,0.492-1.119,0.723-1.614C152.948,33.374,153.702,32.129,153.702,32.129z" />
</g>
<path fill="none" stroke="#000000" stroke-width="0.5" stroke-linecap="round" d="M116.773,49.368c0,0,6.594-0.816,10.79,2.825" />
<path fill="none" stroke="#000000" stroke-width="0.5" stroke-linecap="round" d="M116.389,52.008c0,0,4.664,2.12,11.024,1.908" />
<path fill="none" stroke="#000000" stroke-width="0.5" stroke-linecap="round" d="M137.614,63.376c0,0,6.591,0.845,9.753,5.413" />
<path fill="none" stroke="#000000" stroke-width="0.5" stroke-linecap="round" d="M136.587,65.838c0,0,3.992,3.211,10.206,4.583" />
<path fill="none" stroke="#000000" stroke-width="0.5" stroke-linecap="round" d="M92.235,48.399c0,0,6.244-2.272,11.149,0.338" />
<path fill="none" stroke="#000000" stroke-width="0.5" stroke-linecap="round" d="M92.452,51.058c0,0,5.02,1.022,11.172-0.608" />
<g>
	<path d="M124.497,14.308c0,0,0.146-0.005,0.388-0.04c0.234-0.022,0.577-0.119,0.987-0.197c0.82-0.176,1.959-0.351,3.117-0.267   c0.575,0.051,1.151,0.139,1.671,0.298c0.522,0.147,0.991,0.346,1.37,0.549c0.385,0.196,0.675,0.408,0.876,0.557   c0.201,0.148,0.309,0.24,0.309,0.24s-0.141-0.035-0.376-0.111c-0.228-0.09-0.569-0.175-0.967-0.286   c-0.399-0.106-0.863-0.218-1.363-0.306c-0.246-0.061-0.512-0.067-0.772-0.118c-0.264-0.031-0.533-0.06-0.802-0.075   c-1.078-0.084-2.176-0.042-3.024-0.053c-0.426-0.006-0.781-0.042-1.037-0.085C124.628,14.368,124.497,14.308,124.497,14.308z" />
</g>
<g>
	<path d="M154.812,31.156c0,0,0.141,0.038,0.383,0.074c0.23,0.047,0.587,0.053,1.001,0.097c0.835,0.069,1.977,0.232,3.061,0.647   c0.536,0.216,1.062,0.466,1.513,0.769c0.457,0.292,0.848,0.618,1.153,0.922c0.312,0.299,0.528,0.586,0.677,0.787   c0.15,0.2,0.226,0.319,0.226,0.319s-0.125-0.074-0.328-0.215c-0.192-0.152-0.494-0.333-0.843-0.554   c-0.351-0.217-0.763-0.459-1.215-0.688c-0.218-0.13-0.471-0.212-0.704-0.337c-0.244-0.106-0.492-0.211-0.746-0.304   c-1.007-0.393-2.07-0.671-2.879-0.927c-0.406-0.129-0.736-0.266-0.968-0.382C154.919,31.251,154.812,31.156,154.812,31.156z" />
</g>
<g>
	<path d="M96.658,15.075c0,0,0.146-0.005,0.388-0.04c0.234-0.022,0.577-0.119,0.987-0.197c0.82-0.176,1.959-0.351,3.117-0.267   c0.575,0.051,1.151,0.139,1.671,0.298c0.522,0.147,0.991,0.346,1.37,0.549c0.385,0.196,0.675,0.408,0.876,0.557   c0.201,0.148,0.309,0.24,0.309,0.24s-0.141-0.035-0.376-0.111c-0.228-0.09-0.569-0.175-0.967-0.286   c-0.399-0.106-0.863-0.218-1.363-0.306c-0.246-0.061-0.512-0.067-0.772-0.118c-0.264-0.031-0.533-0.06-0.802-0.075   c-1.078-0.084-2.176-0.042-3.024-0.053c-0.426-0.006-0.781-0.042-1.037-0.085C96.789,15.135,96.658,15.075,96.658,15.075z" />
</g>
<path fill="none" stroke="#000000" stroke-width="2" stroke-linecap="round" d="M59.217,194.185c0,0,22.835-39.629,22.768-43.514  c-0.067-3.884,3.996-60.119,3.909-62.421c-0.375-9.881,3.506-35.832,3.623-38.065c0.117-2.233,3.36-29.574,4.475-32.121  c1.91-4.363,6.514-6.45,10.515-4.65s3.869,9.782,3.412,13.034s-0.972,11.586-4.908,49.254" />
<path fill="none" stroke="#000000" stroke-width="2" stroke-linecap="round" d="M104.622,78.108c0,0,7.955-25.317,9.095-30.023  s4.716-19.406,6.217-25.706s1.83-11.264,9.192-10.763c7.362,0.501,6.974,8.357,4.287,19.109s-7.045,45.359-9.396,53.06" />
<path fill="none" stroke="#000000" stroke-width="2" stroke-linecap="round" d="M125.154,86.345l11.387-26.359  c0,0,11.801-25.074,16.659-28.489c5.189-3.649,11.765-0.821,9.14,7.429s-16.99,40.469-20.549,49.061" />
<path fill="none" stroke="#000000" stroke-width="2" stroke-linecap="round" d="M138.682,95.704c0,0,5.67-11.556,8.984-11.967  c3.314-0.411,9.518,2.07,7.934,9.16s-6.483,22.89-6.483,22.89" />
<path fill="none" stroke="#000000" stroke-width="2" stroke-linecap="round" d="M149.126,109.802c0,0-3.484,13.674-6.784,28.074  c-3.3,14.4-12.946,25.788-18.938,30.765c0,0-7.157,35.483-8.428,43.146" />
<path fill="none" stroke="#000000" stroke-linecap="round" d="M79.617,163.986c0,0,3.54,10.238,36.794,14.869" />
</svg>
