<?xml version="1.0" encoding="UTF-8"?>
<!DOCTYPE svg PUBLIC "-//W3C//DTD SVG 1.1//EN" "http://www.w3.org/Graphics/SVG/1.1/DTD/svg11.dtd">
<!-- Generator: Adobe Illustrator 16.0.0, SVG Export Plug-In . SVG Version: 6.00 Build 0)  -->
<svg xmlns="http://www.w3.org/2000/svg" xmlns:xlink="http://www.w3.org/1999/xlink" version="1.1" id="Lager_1" x="0px" y="0px" width="471.5px" height="226.771px" viewBox="0 0 471.5 226.771" enable-background="new 0 0 471.5 226.771" xml:space="preserve"><rect fill="#FFFFFF" x="0px" y="0px" width="471.5px" height="226.771px" />
<g>
	<rect x="371.372" y="65.059" fill="#FFFFFF" width="97.604" height="113.386" />
	<g id="Lager_2">
		
			<linearGradient id="SVGID_1_" gradientUnits="userSpaceOnUse" x1="382.248" y1="537.0771" x2="394.123" y2="542.9521" gradientTransform="matrix(1 0 0 -1 0.1401 689.8262)">
			<stop offset="0" style="stop-color:#FFFFFF" />
			<stop offset="1" style="stop-color:#EBEBEB" />
		</linearGradient>
		<path fill="url(#SVGID_1_)" d="M387.997,170.059l18.25-22.625c0,0-7.375-10.25-9.5-21l-0.75-0.5l-22.875,16.875L387.997,170.059z" />
	</g>
	<g id="Lager_1_1_">
		<g>
			<path stroke="#000000" stroke-width="0.375" stroke-linecap="square" stroke-miterlimit="2" d="M426.662,81.174     c0.944,1.72,1.552,3.364,1.899,5.172c0.312,0.78,0.25,1.652,0.469,2.455c-0.082,1.356,0.078,2.812-0.67,3.975     c-1.043,2.471-2.067,4.858-2.842,7.522c-0.292,0.112-0.681,0.069-0.68-0.331c0.101-1.041,0.549-2.05,0.902-3.034     c0.652-1.717,1.355-3.466,2.199-5.05c0.447-3.581-0.389-6.962-2.123-10.101c-0.717-0.959-2.023-1.652-3.256-1.307     c-1.174,0.489-0.938,2.007-0.967,2.94l0.169,0.757c-0.011,0.032-0.11,0.355,0.071,0.53c-0.123,0.948-0.586,1.819-0.732,2.674     c-0.185,0.225-0.03,0.526-0.289,0.689c0.09,0.197-0.066,0.295-0.113,0.507l-0.042-0.01c-0.222,0.394-0.316,0.816-0.538,1.21     c0.15,0.122,0.018,0.314-0.02,0.483c-0.207,0.131-0.244,0.3-0.335,0.501l0.075,0.062c0.037,0.23-0.381,0.313-0.165,0.539     c0.014,0.136-0.282,0.07-0.101,0.244c-0.068,0.117-0.252-0.057-0.121,0.149c-0.141,0.234-0.361,0.23-0.25,0.521l-0.122,0.15     l0.075,0.061c-0.043-0.01-0.094,0.023-0.104,0.065c0.043,0.009,0.033,0.051,0.074,0.061l-0.348,0.365l0.116,0.072     c-0.225,0.214-0.249,0.52-0.485,0.777l0.025,0.094l-0.105,0.065c0.207,0.268-0.262,0.385-0.193,0.666c0,0,0.071-0.117,0.047-0.21     c-0.338,0.322-0.442,0.786-0.631,1.232c0.159,0.08,0.184-0.225,0.245-0.301c0.056,0.146-0.161,0.319,0.019,0.314     c-0.176,0.184-0.111,0.685-0.416,0.661l-0.131,0.192c0.023,0.095-0.018-0.314-0.17-0.037c-0.051,0.032,0.057,0.146,0.098,0.154     l0.086,0.02c0.084,0.02-0.033-0.052-0.043-0.011c0.022,0.095,0.1,0.156-0.014,0.264l-0.076-0.062     c-0.094,0.023-0.037,0.169-0.132,0.192c0.053-0.032-0.022-0.094-0.013-0.136c-0.09,0.201-0.452,0.43-0.246,0.698     c-0.156,0.497-0.325,0.858-0.6,1.284c-0.461,0.872-1.488,3.55-2.441,4.045c-0.085-0.019-0.295-0.065-0.258-0.234     c1.743-3.024,3.924-7.882,5.203-11.01c0.811-1.636,1.738-4.233,2.305-5.969c-0.196-1.94-0.23-2.775-0.021-4.206     c0.08-1.245,1.063-1.579,2.004-1.812C424.356,79.592,425.797,80.094,426.662,81.174z" />
			<path stroke="#000000" stroke-width="0.375" stroke-linecap="square" stroke-miterlimit="2" d="M466.858,95.076     c0.951,1.687,0.691,4.067-0.52,5.538c-0.217,0.347-0.648,0.52-0.865,0.692c-0.477-0.043-0.908,0.347-1.385,0.131     c-0.391,0.389-0.909,0-1.342,0.26c-5.365,0.389-11.251,1.125-16.53,2.509l-1.558,0.304c0.086,0.302-0.217,0.433-0.434,0.476     c-3.678,0.477-6.965,2.12-10.514,3.029c-0.562,0.303-1.213,0.39-1.818,0.649c-1.299,0.303-2.424,0.951-3.764,1.211     c-0.174,0-0.303-0.173-0.347-0.302c0.259-0.347,0.778-0.477,1.126-0.649c2.855-1.082,5.842-1.904,8.74-2.941     c-0.217-0.088-0.389,0.043-0.562,0.043l4.024-1.256c0.216-0.433,0.864-0.217,1.125-0.563c0-1.989-0.433-3.635-0.909-5.581     c-0.216-0.217-0.13-0.606-0.389-0.822c0-0.087,0-0.217-0.13-0.217c-0.476,0.735-0.303,1.731-0.13,2.553     c0.086,0.562,0.086,1.255,0.389,1.73c-0.086,0.39,0.174,0.606,0.26,0.953c0.174,0.345,0.303,0.734,0.693,0.951v0.13     c-0.26,0-0.39-0.303-0.52-0.433c0.13-0.217-0.174-0.087-0.174-0.26c-0.605-1.428-0.951-2.899-1.038-4.544v-0.735     c-0.044,0.13-0.087,0.432-0.216,0.432c-0.044-0.432,0.172-0.648,0.216-1.081c0.173-0.043,0.087,0.174,0.13,0.216     c0.174-0.13,0.346-0.216,0.562-0.259c0.477,0.951,0.693,2.033,0.909,3.114c0.302,1.256,0.302,2.597,0.562,3.938     c6.102-1.515,12.42-2.77,18.781-3.375c0.043-0.087,0-0.217,0.043-0.303c-0.174-0.173-0.562-0.217-0.52-0.562     c0.087-0.174,0.217-0.174,0.346-0.261c-0.217-1.341-0.52-2.595-0.951-3.851c0.174-0.476,0.648-0.692,1.082-0.908l-0.347,0.173     c1.169-0.26,2.25-0.951,3.506-0.735v0.087c-1.429,0.043-2.597,0.432-3.809,1.168c0.131,0.909,0.476,1.86,0.562,2.77     c0.044,0.519,0.261,1.038,0.261,1.601c0.734,0.606,1.773,0.39,2.639,0.433c0.131,0,0.347-0.13,0.476,0     c0.39-0.13,0.866-0.389,1.126-0.736c0.174-1.688-0.389-3.418-1.169-4.846c0.043-0.129,0.087-0.217,0.174-0.261     c0.562,0.348,0.216,1.039,0.692,1.473c0.26,0.995,0.477,2.12,0.52,3.202c0.562-0.563,0.562-1.472,0.648-2.295     c-0.129-0.907-0.389-1.86-1.254-2.423c-0.261-0.216-0.649-0.346-0.953-0.26c-0.648-0.52-1.427-0.26-2.164-0.52     c-0.216,0.26-0.432-0.174-0.605,0c-0.779,0-1.514,0.13-2.163,0.303l-0.087-0.043c-7.096,0.779-14.756,1.428-21.723,3.115     c-0.216,0.26-0.518,0-0.734,0.13c-1.039,0.261-2.121,0.476-3.203,0.692c-0.129,0.303-0.346,0.043-0.562,0.217     c-4.37,1.125-8.827,2.25-13.24,3.419c-0.693,0-1.472,0.432-2.164,0.043c0.086-0.303,0.562-0.303,0.822-0.433     c10.818-2.856,21.506-5.928,32.931-7.14c3.202-0.477,6.317-0.649,9.52-1.126c0.778,0.347,1.471-0.345,2.293,0.088     C464.651,93.258,466.079,93.69,466.858,95.076z" />
			<path stroke="#000000" stroke-width="0.375" stroke-linecap="square" stroke-miterlimit="2" d="M455.001,97.456     c0.217,0.951,0.26,1.947,0.65,2.898c0,0,0,0.088-0.045,0.088c-0.13-0.175-0.173-0.434-0.302-0.65     c-0.044-0.605-0.13-1.255-0.304-1.817c0.088-0.778-0.389-1.514-0.086-2.293C454.785,96.244,455.001,96.807,455.001,97.456z" />
			<path fill="#FFFFFF" stroke="#000000" stroke-width="0.375" stroke-linecap="square" stroke-miterlimit="2" d="M416.317,96.893     c-0.044-0.13,0-0.303,0.086-0.432C416.403,96.547,416.445,96.807,416.317,96.893z" />
			<path fill="#FFFFFF" stroke="#000000" stroke-width="0.375" stroke-linecap="square" stroke-miterlimit="2" d="M416.229,96.85     c-0.131,0.131,0,0.261-0.131,0.39C415.97,97.11,416.144,96.936,416.229,96.85z" />
			<path stroke="#000000" stroke-width="0.375" stroke-linecap="square" stroke-miterlimit="2" d="M413.72,103.341     c-0.434,0.433-0.736,0.864-1.082,1.342c-2.812,4.24-4.934,8.913-8.006,13.024c-1.99,2.553-4.111,5.279-6.793,7.14     c-0.174-0.087-0.261,0.087-0.39,0.173l0.087-0.129l-0.044-0.044c0.304-0.346,0.778-0.649,1.038-1.038     c0.174,0.043,0.26-0.345,0.434-0.389l0.172-0.175l-0.172,0.044c0.086-0.302,0.389-0.044,0.52-0.389c0-0.043-0.087,0-0.131-0.043     c0.477-0.649,1.213-1.256,1.731-1.774c0,0.043-0.044,0.087-0.044,0.087c0,0.043,0.088,0.043,0.088,0.043     c0.216-0.13-0.131-0.217,0.086-0.302l0.043,0.085c0.043-0.042,0.217-0.085,0.13-0.173h-0.13l0.996-1.125l0.086,0.131     c0.043-0.044,0.043-0.088,0.087-0.131c-0.217-0.13,0.087-0.433,0.216-0.605c0.172,0.087,0.172-0.087,0.217-0.173l0.303-0.39     l-0.216,0.52c0.259,0,0.173-0.347,0.345-0.433c-0.173-0.39,0.39-0.649,0.52-0.996c0.043,0.044,0.131,0.087,0.131,0.044v-0.087     c0.086,0,0.086,0.043,0.129,0.087c0.043-0.087,0.043-0.173,0.043-0.217h-0.086c0-0.13,0.043-0.173,0.086-0.26h0.131l-0.131,0.13     l0.088,0.087l0.172-0.217c-0.303-0.302,0.304-0.519,0.391-0.865c0.086-0.043,0.129-0.216,0.216-0.26v0.173     c0.087-0.043,0.087-0.129,0.173-0.129c-0.173-0.175,0-0.347,0.088-0.52c0.043-0.043,0.13-0.043,0.172-0.087l-0.086,0.173     l0.26-0.217c-0.26,0,0-0.346,0.043-0.476l0.087-0.13c0.044,0.043,0.087,0.13,0.13,0.13c0.044-0.346,0.174-0.779,0.562-0.994     c-0.129-0.13,0.043-0.218,0.086-0.304c0.348,0.174,0.305-0.303,0.478-0.433l-0.044-0.087c-0.043,0.087-0.129,0.261-0.26,0.261     c0.043-0.217,0.174-0.347,0.303-0.52l0.217-0.086c-0.174-0.217,0.13-0.434,0.217-0.649h0.086c0.044,0.13-0.131,0.216-0.173,0.346     l0.042,0.043c0.175-0.043,0.175-0.26,0.261-0.389l-0.13-0.087l0.13-0.043c-0.13-0.217,0.13-0.303,0.13-0.433     c0.562-0.909,0.995-1.861,1.558-2.771l0.087,0.088c0.994-2.034,2.033-4.198,3.852-5.886c0.172-0.043,0.303-0.173,0.475-0.087     V103.341L413.72,103.341z" />
			<path stroke="#000000" stroke-width="0.375" stroke-linecap="square" stroke-miterlimit="2" d="M446.217,107.581     c0.519,1.773,0.562,3.592,0.043,5.409c-0.259,0.476-0.562,1.341-1.255,1.255c-0.822,0.432-1.645,0.823-2.467,1.298     c-0.735,0.13-1.211,0.606-1.99,0.823c-0.951,0.52-2.077,0.864-2.942,1.601v0.086c-0.476,0.477-0.865,1.126-1.428,1.559     c-0.216,0.043-0.347-0.174-0.39-0.347c0.087-0.779,0.822-1.212,1.125-1.947c2.597-1.688,5.496-2.596,8.223-3.98     c0.778-0.693,0.433-1.905,0.562-2.812c-0.045-1.126-0.13-2.164-0.562-3.116c-0.564-0.865-1.646-0.995-2.381-1.558     c-0.086-0.26,0.043-0.303,0.174-0.476C444.226,105.678,445.653,106.24,446.217,107.581z" />
			
				<rect x="409.003" y="109.572" fill="#FFFFFF" stroke="#000000" stroke-width="0.375" stroke-linecap="square" stroke-miterlimit="2" width="0.045" height="0.042" />
			
				<rect x="405.758" y="114.98" fill="#FFFFFF" stroke="#000000" stroke-width="0.375" stroke-linecap="square" stroke-miterlimit="2" width="0.042" height="0.088" />
			<path stroke="#000000" stroke-width="0.375" stroke-linecap="square" stroke-miterlimit="2" d="M447.299,117.317     c0,1.817,0.476,3.98-0.476,5.626c0.086,0.217-0.174,0.389-0.346,0.52c-0.218,0-0.303,0.259-0.563,0.216     c-0.087-0.087,0-0.216-0.087-0.261c-0.605,0.562-1.428,0.952-2.163,1.472c1.255,0.476,1.168,2.033,1.472,3.202     c0.129,2.293-1.126,4.066-2.554,5.712v0.13c-0.606,0.174-0.908,0.823-1.515,0.951c-0.217,0.217-0.691,0.304-0.908,0.693     l-0.303,0.042c-0.779,0.563-1.645,1.082-2.38,1.688c-0.649,0.261-1.255,0.78-1.86,1.125c-1.299,0.995-2.727,0.908-3.809,2.207     c-2.25,1.342-4.673,2.553-7.14,3.245c-0.173,0.346-0.347-0.087-0.519,0.217c-1.386,0.346-2.77,0.648-4.198,0.951     c-2.899,0.606-5.886,1.083-8.827,0.779c-0.346-0.26-0.822,0.088-1.082-0.302c-0.649-0.303-1.212,0.216-1.73,0.347     c-0.606,0.345-1.342,0.561-1.774,1.123c0.217,0.045,0.173,0.218,0.173,0.346c-0.346,0.174-0.822-0.216-1.125,0.174     c-0.303,0-0.605,0.088-0.779-0.174c0.086-0.216,0.304-0.388,0.477-0.605v-0.173c-1.602-1.99-2.684-4.284-3.895-6.404     c-1.774-3.635-3.549-7.312-4.457-11.294c-0.303-0.908-0.562-1.947-0.477-2.942c0.217-0.087,0.174-0.347,0.39-0.39     c0.563,0.519,0.216,1.429,0.563,2.164c1.384,6.274,4.369,11.899,7.572,17.352c0.346,0.347,0.519,0.995,0.951,1.083     c0.996-0.953,2.164-1.212,3.375-1.688c0.649,0,1.602-0.13,1.905,0.605c2.509,0.217,5.063-0.259,7.528-0.691     c0.087-0.261,0.303,0.043,0.477-0.087c3.201-0.562,6.188-1.559,9.045-2.857c0.908-0.562,1.903-0.821,2.769-1.514     c-0.086-0.303,0.476-0.303,0.649-0.519c0.389-0.044,0.648-0.52,0.994-0.692l1.775-0.822c0,0.042,0,0.085-0.044,0.129l0.044,0.043     c1.645-0.907,3.288-2.119,4.717-3.029c1.125-0.821,2.639-1.515,3.418-2.726c0.995-1.514,2.121-3.203,1.428-5.193     c0.26-0.908-0.995-1.298-0.52-2.12c-2.552,0.909-4.846,3.03-6.836,4.675c-0.348,0-0.52,0.388-0.866,0.26     c-0.043-0.692,0.649-0.995,1.082-1.515l2.251-1.774v0.043c1.947-1.558,4.369-2.423,6.533-3.591c0.086,0,0.217-0.044,0.26,0.087     c0.434-0.823,0.562-1.862,0.562-2.986l-0.129-2.812c-0.346-0.736-1.17-1.386-1.904-1.688c0.129-0.217-0.174-0.562,0.173-0.692     C445.741,115.153,446.779,116.322,447.299,117.317z" />
			
				<rect x="405.239" y="115.847" fill="#FFFFFF" stroke="#000000" stroke-width="0.375" stroke-linecap="square" stroke-miterlimit="2" width="0.043" height="0.043" />
			
				<rect x="403.681" y="117.924" fill="#FFFFFF" stroke="#000000" stroke-width="0.375" stroke-linecap="square" stroke-miterlimit="2" width="0.043" height="0.043" />
			<path fill="#FFFFFF" stroke="#000000" stroke-width="0.375" stroke-linecap="square" stroke-miterlimit="2" d="M403.638,118.097     c0,0.043-0.044,0.043-0.088,0.086v-0.086H403.638z" />
			
				<rect x="402.21" y="119.828" fill="#FFFFFF" stroke="#000000" stroke-width="0.375" stroke-linecap="square" stroke-miterlimit="2" width="0.043" height="0.043" />
			<polygon fill="#FFFFFF" stroke="#000000" stroke-width="0.375" stroke-linecap="square" stroke-miterlimit="2" points="     401.517,120.735 401.604,120.562 401.561,120.693    " />
			<path fill="#FFFFFF" stroke="#000000" stroke-width="0.375" stroke-linecap="square" stroke-miterlimit="2" d="M400.998,121.255     c0,0.043,0,0.043,0,0.087l-0.044-0.087H400.998z" />
			<path fill="#FFFFFF" stroke="#000000" stroke-width="0.375" stroke-linecap="square" stroke-miterlimit="2" d="M400.565,121.774     l-0.346,0.347L400.565,121.774z" />
			
				<rect x="399.916" y="122.337" fill="#FFFFFF" stroke="#000000" stroke-width="0.375" stroke-linecap="square" stroke-miterlimit="2" width="0.043" height="0.043" />
			<polygon stroke="#000000" stroke-width="0.375" stroke-linecap="square" stroke-miterlimit="2" points="407.099,144.276      407.142,144.189 407.229,144.189    " />
			<line fill="none" stroke="#000000" stroke-width="0.8654" x1="396.331" y1="125.51" x2="382.409" y2="136.028" />
			<line fill="none" stroke="#000000" x1="406.128" y1="147.679" x2="394.114" y2="161.921" />
		</g>
	</g>
</g>
<g>
	<path fill="#FFFFFF" d="M305.574,61.59v113.386h42.344c3.948-21.688,21.259-41.09,42.697-49.837L397.7,61.59H305.574z" />
	<g id="Lager_2_1_">
		
			<linearGradient id="SVGID_2_" gradientUnits="userSpaceOnUse" x1="320.1963" y1="528.4678" x2="329.196" y2="541.3008" gradientTransform="matrix(1 0 0 -1 0.1401 689.8262)">
			<stop offset="0" style="stop-color:#FFFFFF" />
			<stop offset="1" style="stop-color:#EDEDED" />
		</linearGradient>
		<path fill="url(#SVGID_2_)" d="M335.407,167.757l8.334-23l2.166-4.667c0,0-4.166,1.5-10.5-1c-6.333-2.5-11.166-6.166-11.166-6.166    l-17.667,20.166C306.574,153.09,309.741,169.923,335.407,167.757z" />
	</g>
	<g id="Lager_1_2_">
		<g>
			<path stroke="#1A171B" stroke-width="0.125" d="M319.915,137.646c0.031-0.031,0.054-0.069,0.081-0.104     c-0.012,0.003-0.023,0.005-0.032,0.005L319.915,137.646z" />
			<path stroke="#1A171B" stroke-width="0.125" d="M316.421,141.581c0.001-0.002,0.004-0.003,0.005-0.004     C316.426,141.536,316.426,141.551,316.421,141.581z" />
			<path stroke="#1A171B" stroke-width="0.125" d="M389.143,115.438c-0.491-1.621-2.015-3.39-3.685-4.028     c-2.851-1.573-5.994-0.786-8.894,0.147c-1.965,1.326-4.322,1.965-6.633,1.965c0.049-0.098-0.049-0.196,0-0.245     c-0.933,0.295-1.916,0-2.751-0.196c-1.081-0.688-1.77-1.867-1.72-3.096c0.54-5.404,0.688-10.515,1.425-15.821l1.376-1.965     c0.295-0.639,0.688-1.425,0.688-2.113c-0.197-0.196-0.442-0.049-0.591,0.099c0.099,0.442-0.295,0.786-0.393,1.229     c-0.393,0.344-0.393,1.522-1.277,1.13c-0.688,1.523-0.836,3.292-1.031,5.061c-0.295,3.979-0.738,8.353-0.934,12.528     c-0.491,0-0.295,0.541-0.295,0.836c0.589,0.295,0.099,1.326,0.786,1.326c0.59,1.523,2.358,1.867,3.783,2.063     c0.933-0.099,2.113-0.049,3.045-0.245c1.917-0.442,3.883-0.786,5.504-1.866c2.161-0.394,4.274-1.131,6.485-0.394     c1.866,0.688,4.226,1.965,4.226,4.323c-0.147,0.442,0.393,0.786,0,1.131c-0.147,0.49-0.688,0.785-1.179,0.835     c-5.798,0.245-11.448,1.375-16.46,3.833l-0.147-0.099c-5.552,4.472-11.842,7.321-18.179,9.826l-0.59,0.099     c-0.639,0.54-1.425,0.688-2.211,0.982c-0.246,0.099-0.688-0.197-0.787,0.246c-0.098,0.196,0.099,0.294,0.148,0.491     c0.393,0.294,0.835,0.049,1.229,0.049c-1.229,1.719-2.507,3.292-3.538,5.109c-0.196,0.786-0.737,1.18-1.523,1.327     c-4.274,0.394-8.009-0.147-11.841-1.523c-2.555-1.326-5.306-2.702-7.468-5.061c-0.197-0.147-0.442-0.442-0.344-0.639h-0.197     c0.541-1.277,1.818-2.113,2.506-3.242c0.59-0.394,0.737-0.886,1.277-1.376c0.64-0.786,1.327-1.72,1.916-2.555     c-0.294-0.59,0.198-1.277,0.492-1.817c1.719-4.963,3.782-9.828,5.847-14.544c0.393-0.54,0.491-1.376,0.835-2.015     c0.934-1.719,1.474-3.635,2.702-5.208c0.246-0.246,0.147-0.59-0.099-0.786c0.737-1.621,1.818-3.242,3.439-4.323     c0.295-1.867,2.015-3.243,2.653-5.061c1.917-3.292,3.686-6.633,5.946-9.826c0.294-0.098,0.736,0.098,0.933-0.148     c0.295,0.051,0.688-0.097,0.982-0.097c0.296-0.296,0.934,0.147,1.229-0.198c0.737,0.198,1.278-0.294,1.916-0.146l-0.049,0.049     c2.063-0.245,4.077-0.147,6.044-0.049l0.49,0.393c1.475-0.441,2.702,0.639,3.931,1.228c-0.099,0.197,0.147,0.246,0.246,0.345     c1.719,0.146,3.292,1.031,4.962,1.572c0.05,0.197,0.197,0.541,0.05,0.737c-0.886,1.326-2.261,1.818-3.489,2.555     c-0.393,0.147-0.835,0.05-1.179,0.246c-0.541-0.296-1.229-0.099-1.719-0.491l0.097-2.112c-0.245-0.688-0.589-1.672-1.523-1.721     c-0.244,0.099-0.392,0.394-0.294,0.59c1.081,0.737,0.786,2.162,0.639,3.243c-0.982,2.506-3.636,3.193-5.749,4.177l-0.099,0.147     c-0.146,0.245,0.147,0.294,0.296,0.442c-1.031,1.424-2.407,2.849-4.177,3.241c-0.54-0.146-1.13,0.099-1.572,0.246     c-0.393,0.197-1.179,0-1.229,0.541l1.179-0.197c0,0.246,0.197,0.147,0.296,0.344c0.147,0.099,0.54,0,0.54,0.246     c-1.13,2.014-3.194,4.323-5.504,4.766c-0.589,0.196-1.424,0.147-1.965,0.59c0.982,0,1.72-0.295,2.604-0.442l-0.147,0.295     c0.344,0.147,0.688-0.147,1.081-0.147c2.063-1.131,4.225-3.194,5.06-5.454c1.081-0.491,2.212-0.934,3.096-1.966     c0.441-0.688,1.179-1.229,1.031-2.062c1.573-0.345,3.096-0.885,4.323-1.818h0.05c0.688-0.541,1.326-1.18,1.671-2.015     c0.491,0.099,0.982,0.245,1.474,0.295c1.425,0.491,2.899-0.295,4.177-0.982c0,0.245,0.099,0.393,0.295,0.639     c1.179,0.49,2.751,0.441,4.028,0.196c1.326-0.54,2.948-1.229,3.096-2.948c-0.246-0.295,0.098-0.59-0.05-0.885     c-0.147-0.098-0.344,0.05-0.441,0.099l-2.604-2.113l0.049-0.442c-1.031-1.13-2.211-2.31-3.488-3.243     c-0.344-0.196-0.54-0.59-0.884-0.736l-1.229-0.197c-4.618-0.197-9.581,0-14.298,0.59l-1.081,1.081     c-0.147,0.245-0.443,0.394-0.393,0.786l-2.261,0.295c-0.441,0.147-0.885,0-1.229,0.393c-2.014,2.751-3.636,5.699-5.355,8.599     c-1.081,2.063-2.26,4.077-3.242,6.142c-2.407,1.571-3.587,4.176-4.423,6.682c-3.291,7.419-6.828,14.838-9.335,22.649     c-1.719,2.408-3.635,4.57-5.846,6.683l-0.147,0.491l0.344-0.05c-0.196,0.196-0.344,0.394-0.394,0.59     c-0.196,0.049-0.344,0.245-0.491,0.441c-0.146,0.147-0.098,0.444-0.295,0.688c-0.098,0-0.294,0.147-0.294-0.049     c-0.246,0.147-0.295,0.491-0.442,0.589h-0.147c-0.05,0.246-0.295,0.442-0.295,0.688s-0.345,0.345-0.394,0.147l-0.098,0.393     c-0.147-0.049-0.246,0.147-0.344,0.147c-0.352,0.264-0.474,0.641-0.705,0.929c0.051-0.011,0.114-0.035,0.114,0.005l-0.344,0.394     c-0.245-0.246-0.245,0.344-0.394,0.245c0.148,0.049,0.05,0.196-0.049,0.246c0-0.05-0.196-0.05-0.147-0.147     c0.05,0.098-0.196,0.245-0.295,0.393v-0.049l-0.196,0.295l0.246-0.246c0.146,0.197-0.197,0.197-0.197,0.394     c-0.197-0.196-0.344,0.147-0.541,0.245c-0.049,0.147-0.098,0.295,0,0.394c-0.098,0.049-0.098,0.196-0.245,0.147     c-0.05,0,0.05-0.099,0-0.147l-0.147,0.099v-0.051l-0.147,0.246l-0.05-0.049c-0.245,0.147-0.196,0.393-0.393,0.54h0.147     c-0.098,0.246-0.295,0.394-0.491,0.491l-0.147-0.196c-0.442,0.589,0.245,0.244-0.245,0.688c0.049,0,0.099,0,0.147,0.049     l-0.197,0.197h-0.05c0.03-0.028,0.04-0.104,0.045-0.144c-0.05,0.047-0.143,0.095-0.143,0.144c0.05,0.049,0.098,0,0.147,0.049     c-0.147,0.099-0.197,0.295-0.393,0.295l-0.099-0.196c-0.196,0.098-0.098,0.344-0.344,0.344c-0.049,0.197,0.295,0.147,0.099,0.295     c-0.099,0.05-0.147-0.049-0.246-0.049l0.099,0.195c-0.196,0.051-0.295,0.444-0.541,0.198c-0.106,0.021-0.171,0.083-0.22,0.157     c0.177,0.31,0.353,0.622,0.525,0.937c3.639-3.515,6.12-6.461,9.423-10.381c0.786,0.688,1.573,1.621,2.457,2.211l0.049-0.049     l0.394,0.442c2.654,1.965,5.553,3.438,8.745,4.028c2.752,0.886,5.995,0.738,8.845,0.541c-0.934,2.948-2.506,5.698-3.637,8.646     c-0.589,1.475-1.277,2.998-1.719,4.521c-0.569,1.062-0.935,2.271-1.365,3.424c0.248,0.27,0.492,0.543,0.732,0.821     c2.088-5.67,4.371-11.255,7.02-16.626c0.345-0.736,0.737-1.522,1.18-2.112c0.146-0.393,0.442-0.836,0.736-1.18     c1.13-2.015,2.457-3.685,3.882-5.453c5.11-2.113,10.416-4.128,15.084-7.42l0.245-0.049c1.081-0.884,2.113-1.571,3.146-2.506     c1.916-0.982,4.028-1.72,6.19-2.31c1.817-0.54,3.882-0.441,5.749-0.934c1.769-0.344,3.93-0.245,5.601-0.688     C389.143,118.189,389.339,116.715,389.143,115.438z" />
			<path fill="#FFFFFF" stroke="#1A171B" stroke-width="0.125" d="M372.044,79.62c1.18,0.934,2.457,1.818,3.489,3.046     c-0.099,0.442-0.59-0.196-0.491,0.295c-0.246,0-0.098,0.246-0.05,0.295c0.934,1.376,2.113,2.948,3.489,3.734     c-1.032,1.229-2.752,1.523-4.226,1.327c-0.491-0.05-0.933-0.197-1.326-0.442c0.246-0.639,0.835-0.982,1.229-1.572     c0.098-0.344,0.393-0.59,0.295-1.032c0-0.442-0.345-0.786-0.786-1.032c-1.475-0.59-3.047-1.228-4.57-1.572     c-0.885-0.638-1.866-1.081-2.85-1.522c-0.933-0.394-2.211,0-3.242-0.295c-2.162-0.197-4.422-0.099-6.485,0.098     c0.59-0.54,0.982-1.229,1.866-1.081C362.955,79.473,367.475,79.08,372.044,79.62z" />
			<path fill="#FFFFFF" stroke="#1A171B" stroke-width="0.125" d="M379.07,86.204c-0.05,0.295-0.245,0.491-0.491,0.639     c-0.147-0.196-0.442-0.049-0.541-0.245c-0.049-0.05,0.345,0.049,0.246-0.197c-0.147-0.049-0.246-0.295-0.393-0.147l0.049-0.049     c-1.08-0.688-1.966-1.72-2.457-2.851C376.761,84.189,378.038,85.123,379.07,86.204z" />
			<path stroke="#1A171B" stroke-width="0.125" d="M365.019,84.238c-0.393,0.491-1.13,0.541-1.621,0.934l-3.047,1.917     c-0.786-0.59-1.277,0.59-1.916,0.785c-1.67,0.934-3.438,1.621-5.109,2.555c-0.197,0.246-0.688,0.197-0.639,0.639     c-3.095,2.506-5.699,5.798-9.09,7.91c-0.147,0.098-0.394,0.098-0.54,0c-0.147-0.147-0.198-0.344-0.099-0.54     c3.193-2.063,5.602-4.913,8.304-7.469l0.049-0.344c1.867-1.277,3.931-2.014,5.896-3.046c-0.294-0.196-0.884,0.196-1.081-0.196     l0.147-0.197c3.243,0,5.503-2.31,8.304-3.439C364.772,83.845,365.215,83.895,365.019,84.238z" />
			<path stroke="#1A171B" stroke-width="0.125" d="M370.718,84.779c0.639,0.344,1.523,0.196,1.966,0.786     c-1.032,0.098-1.917-0.442-2.899-0.59c-0.344-0.295-1.179-0.443-0.885-1.032c0.394-0.196,0.639,0.442,1.032,0.541     C370.177,84.779,370.374,84.73,370.718,84.779z" />
			<path stroke="#1A171B" stroke-width="0.125" d="M367.622,89.741c-0.393,0.934-1.375,1.229-2.112,1.867     c-1.229,0.688-2.457,1.277-3.882,1.475l-0.295-0.051c0.147-0.244,0.688-0.098,1.032-0.244l0.049,0.049     c1.621-0.688,3.685-1.474,4.766-2.948C367.229,89.741,367.475,89.446,367.622,89.741z" />
			<path stroke="#1A171B" stroke-width="0.125" d="M360.007,96.276c-0.049,0.197-0.246,0.491-0.098,0.639     c-0.099,0.147-0.099,0.442-0.148,0.688c-1.326,2.899-3.291,5.847-6.043,7.567c-0.049-0.442,0.541-0.59,0.836-0.835     c0.491-0.787,1.522-1.475,1.916-2.31c1.376-1.622,2.309-3.292,2.997-5.208c0-0.197,0-0.491,0.147-0.64     C359.712,96.228,359.909,96.129,360.007,96.276z" />
			<path stroke="#1A171B" stroke-width="0.125" d="M361.825,101.042c-1.475,1.327-3.145,2.556-4.864,3.439     c1.522-1.179,3.144-2.506,4.765-3.538L361.825,101.042z" />
			<rect x="356.961" y="101.878" fill="#FFFFFF" stroke="#1A171B" stroke-width="0.125" width="0.049" height="0.049" />
			<path stroke="#1A171B" stroke-width="0.125" d="M353.62,105.268c0,0.049-0.099,0.147-0.197,0.147     C353.473,105.316,353.57,105.17,353.62,105.268z" />
			<path stroke="#1A171B" stroke-width="0.125" d="M352.784,105.268c-0.196,0.983-0.54,2.015-0.835,2.998l-0.099-0.148     c0.099-0.885,0.688-1.572,0.688-2.555C352.687,105.514,352.687,105.316,352.784,105.268z" />
			<path stroke="#1A171B" stroke-width="0.125" d="M351.654,107.086c-0.345,1.72-0.786,3.291-1.179,4.962l-0.099-0.049     c0.147,0.344-0.098,0.835-0.245,1.081c0,0.785-0.295,1.523-0.491,2.309c-0.982,4.323-1.867,8.894-3.096,13.315     c0.246-0.05,0.688,0.049,0.786-0.295c0.345-0.344-0.147-0.982,0.295-1.277c0.05-0.934,0.393-1.77,0.54-2.702     c0.345-1.327,0.442-2.556,0.983-3.784c0-1.572,0.491-3.145,0.737-4.667c0.098-0.147,0.098-0.442,0.147-0.688     c0.196-0.738,0.344-1.622,0.638-2.31c-0.049-0.589,0.148-0.884,0.246-1.474c0.295-0.934,0.54-2.064,0.786-3.047h0.196     c-1.769,6.043-2.653,12.727-3.979,19.163l0.197-0.147c-0.147,0.49-0.541,0.737-0.541,1.325c-0.098,0.197-0.245-0.049-0.345-0.097     c-2.554,2.603-6.043,4.126-9.579,3.487c-0.296-0.196-0.64-0.344-0.886-0.59c-0.982,0.05-2.211,0.197-2.801-0.687     c0-0.147-0.05-0.345,0.147-0.394c0.491,1.031,2.113,0.785,3.047,0.737c1.08-0.05,2.407,0,3.488-0.491     c0.245,0.049,0.639-0.099,0.933-0.196c1.18-0.345,2.359-0.688,3.439-1.18l0.442-0.049v0.147c-2.112,0.981-4.47,1.425-6.829,1.915     c-0.146-0.196-0.245,0.099-0.442,0.099c-0.098,0-0.245-0.05-0.295,0.049c0.246,0.246,0.786,0.394,1.131,0.296     c2.456,0.196,4.52-0.64,6.485-1.966c0.246,0.049,0.148-0.295,0.394-0.196c0-0.147,0.147-0.295,0-0.442     c-0.099,0.049-0.147,0.098-0.245,0.098c0.982-1.13,1.03-2.801,1.67-4.177c0-0.344-0.049-0.786,0.147-1.081     c0.05-0.785,0.196-1.522,0.491-2.211l0.196-0.098l-0.147-0.197c0.491-2.015,0.836-3.979,1.425-5.896     c0.05-1.229,0.688-2.359,0.786-3.489c0.295-1.277,0.688-2.555,0.934-3.832c0.344-0.049,0-0.344,0.147-0.491     C351.458,107.577,351.359,107.185,351.654,107.086z" />
			<rect x="346.544" y="128.9" fill="#FFFFFF" stroke="#1A171B" stroke-width="0.125" width="0.05" height="0.049" />
			<path fill="#FFFFFF" stroke="#1A171B" stroke-width="0.125" d="M316.082,141.773l0.885-0.639L316.082,141.773z" />
			<path fill="#FFFFFF" d="M313.97,144.034c0,0.049,0,0.098-0.05,0.146h-0.098C313.92,144.132,313.822,143.984,313.97,144.034z" />
		</g>
	</g>
</g>
<g>
	<polygon fill="#FFFFFF" points="246.354,63.014 324.307,63.014 310,176.4 246.354,176.4  " />
	<g id="Lager_2_6_">
		
			<linearGradient id="SVGID_3_" gradientUnits="userSpaceOnUse" x1="267.5713" y1="530.1094" x2="272.4045" y2="543.7763" gradientTransform="matrix(1 0 0 -1 0.1401 689.8262)">
			<stop offset="0" style="stop-color:#FFFFFF" />
			<stop offset="1" style="stop-color:#EDEDED" />
		</linearGradient>
		<path fill="url(#SVGID_3_)" d="M283.188,168.014c0,0,3.5-25,4.666-26.167s-0.334-0.833-0.334-0.833s-3.166-0.167-4.666-0.167    s-5.5-0.5-9-2.5s-6-4-6-4l-17.834,23.333C250.021,157.681,271.354,173.847,283.188,168.014z" />
	</g>
	<g id="Lager_1_7_">
		<g>
			<path d="M283.847,158.848c-0.103-0.357,0.205-0.715,0-1.022c0.307-0.408,0.154-1.021,0.358-1.431     c0.817-4.753-0.144,1.392,0.571-3.412c0.152-1.176,0.307-2.402,0.562-3.476c0.562-2.709,1.072-5.366,1.789-7.973     c-0.052-0.153-0.052-0.255-0.205-0.306c-0.153-0.102-0.51-0.154-0.767-0.154c-3.628,0.409-7.052-0.153-10.425-1.431     c-0.104-0.153-0.205-0.204-0.358-0.153c-0.613-0.205-1.124-0.613-1.789-0.716c-0.051-0.255-0.356-0.204-0.562-0.357     c-1.687-0.92-3.271-1.993-4.754-3.219c-0.255,0.357-0.715,0.92-1.073,0.869c-0.102,0.153-0.102-0.052-0.204-0.052     c-0.562,0.716-0.92,1.585-1.533,2.249c-1.431,2.095-2.811,4.191-4.292,6.133v0.154c-2.556,3.168-1.652,2.143-4.207,5.464     l1.227-3.424c0.255-0.41,0.716-0.818,0.869-1.278h0.05c3.833-4.907,3.9-5.67,7.171-10.831c-0.052-0.257,0.307-0.307,0.307-0.562     c0.46-0.358,0.612-1.381,1.38-1.074c0.817-1.073,1.328-2.352,1.328-3.731c0.358-3.015,0.92-6.031,1.482-9.097l-0.205-0.102     l0.256-0.205l0.357-2.096c-0.255-0.205,0.154-0.102,0.052-0.358c0.052-0.358,0.204-0.715,0.103-1.073     c0.204-0.408,0.154-0.817,0.256-1.278c-0.206-0.205,0.255-0.357,0.051-0.613c0.408-2.299,0.869-4.549,1.176-6.849     c0.357-1.227,0.46-2.401,0.816-3.628c0-0.154,0.103-0.357,0.154-0.562l0.562-2.811c-0.357-0.46-0.153-0.971-0.409-1.431     c-0.052-1.431,0.153-2.76,0.817-3.986c0.768-1.942,2.965-2.249,4.346-3.628l0.204-0.205l-0.052-0.052     c1.123-0.357,1.839-1.635,2.861-2.402c4.293-3.628,9.25-6.337,14.208-8.893c0.818,0.052,1.228,0.767,1.942,0.971     c0.357,0,0.461,0.562,0.818,0.46c0.102,0.409,0.562-0.052,0.817,0.153c0.972-0.357,2.044-0.153,3.22-0.255     c0.562,0.051,0.971,0.358,1.277,0.767c0.512-0.154,0.869,0.409,1.33,0.665c0.816,0.766,1.686,1.482,2.504,2.351     c0.102,0.051,0.152,0.204,0.255,0.306c1.431,1.431,2.708,3.066,3.476,4.907c0.562,1.073,1.125,2.197,1.635,3.271h0.104     c0,0.562,0.561,1.073,0.459,1.635c0.613,0.256,0.869,0.92,1.227,1.38c0.102,1.329-0.205,2.555-0.307,3.884     c-0.152,0.511-0.256,1.022-0.562,1.431c-0.613-0.767-0.051-1.687-0.152-2.606l0.306-2.403c-0.051-0.51-0.665-0.613-1.021-0.817     c-0.205,0-0.358,0-0.46,0.153c0.357,0.357,0.715,0.868,0.561,1.533c-0.152,0.358-0.203,0.869-0.663,1.073     c-0.308,0.051-0.716,0.307-0.971,0.154c-0.154-0.716,0.562-0.307,0.612-0.92c0.103-0.205,0.256-0.409,0.205-0.562     c-0.408,0.459-0.868,0.715-1.227,1.175c0,0.307,0.46,0.307,0.358,0.614c0.204,0.153,0.357,0.408,0.357,0.664     c-0.153,0.767-0.664,1.227-1.073,1.84c-0.052,0.307-0.307,0.307-0.408,0.613c-0.716,0.767-1.84,0.818-2.76,0.767     c-0.103,0.613-0.512,1.379-0.103,1.941c-0.409,0.665,0,1.278,0.103,1.994c0.203,0.307,0.306,0.665,0.664,0.818     c-0.102,0.153-0.051,0.459-0.307,0.409c-0.409-0.358-1.073-0.614-0.92-1.278c-0.205-0.255-0.154-0.664-0.409-0.869     c-0.614,0.358-1.125,0.869-1.583,1.431c-0.818,0.562-1.738,1.482-2.557,2.095c-0.256,0-0.613,0.153-0.613-0.153     c0.053-0.307,0.256-0.511,0.408-0.716c-0.92,0-1.686-0.357-2.452-0.51l-0.103,0.051c0-0.051-0.051-0.102-0.102-0.153h-0.104     c0.052,0.869,0.052,1.584,0.308,2.454c0.511,0.357,0.051,0.97,0.511,1.328c0.307,0.665,0.256,1.584,0.613,2.198     c0,0.358,0.307,0.767,0,1.073c0.256,0.307,0.461,0.716,0.461,1.124c-0.562-0.459-0.359-1.379-0.666-1.839     c0-0.92-0.613-1.584-0.664-2.453c-0.255-0.614-0.562-1.33-0.613-1.994c-0.203-0.409-0.256-0.767-0.256-1.176     c-0.459-0.408-0.051-1.175-0.767-1.227c-0.05-0.306-0.459-0.459-0.255-0.868c0.307-0.103,0-0.358,0-0.512     c-0.051-0.051-0.051-0.102-0.102-0.102c0.102-0.205-0.256-0.46-0.358-0.767c-0.255-1.329-0.971-2.504-1.227-3.885     c-1.841-0.102-3.833-0.102-5.469-0.766c-0.818,1.125-1.841,1.84-2.965,2.76l-1.124,0.203c-0.051-0.46,0.562-0.664,0.818-0.971     c0.868-0.869,1.941-1.38,2.555-2.402c-0.256-0.153-0.408-0.205-0.408-0.614c-0.053,0-0.053-0.051-0.053-0.154     c0.205-0.102,0.461-0.205,0.664-0.205c0.615,0.665,1.534,0.665,2.352,0.818c1.789,0.153,3.781,0.307,5.725,0.255l0.205,0.205     c-0.359,0.614-0.818,0.46-1.381,0.767c0.053,0.562,0.307,1.073,0.562,1.533c-0.052,0.562,0.305,1.022,0.459,1.533     c0.154,0.154,0.053,0.562,0.359,0.665c0.203,0.051,0.152,0.409,0.255,0.512c0,0.51,0.255,1.124,0.665,1.43     c1.072,0.46,2.146,0.716,3.321,0.92c0.919-0.92,2.146-1.941,3.065-2.862c-0.152-0.255,0.206-0.511,0.053-0.818     c0.102-0.205,0.154-0.511,0.102-0.665c-0.154,0.102-0.408,0.153-0.459,0.358c-0.358,0.255-0.92,0.102-1.176,0.459     c-0.971,0.459-2.555,0.204-3.527-0.357c-0.971-0.255-1.687-1.38-2.504-1.942c0.052-0.256-0.409-0.562-0.102-0.665     c0.868,0.307,1.532,1.125,2.401,1.585c0.307-0.052,0.664,0.153,0.972,0.357c0.766,0.307,1.686,0.562,2.554,0.255l0.257-0.307     c-0.92-0.409-1.584-1.329-2.045-2.249c0.205-0.256-0.307-0.665,0.152-0.665c0.512-0.307,0.563-1.329,1.278-1.227v0.255     c-0.356,0.511-0.868,0.919-0.919,1.431c0.306,0.715,0.562,1.585,1.328,1.892c0.256,0.255,0.613,0.255,0.92,0.255     c0.562-0.358,0.869-0.767,1.074-1.38c-0.307-0.767-1.074-1.533-1.739-2.146c-0.051-0.153-0.153-0.306-0.051-0.511     c0.153-0.102,0.153-0.153,0.051-0.307c-0.919-0.715-1.788-1.84-2.606-2.862c-2.555-1.022-5.11-2.044-7.717-2.862     c-1.021-0.511-2.25-1.176-3.577-0.665c-2.351,0.817-4.396,2.197-6.593,3.271c-0.869,0.715-1.891,1.073-2.811,1.789     c-0.461,0.153-0.768,0.409-1.227,0.665c-0.461,0.306-0.973,0.562-1.534,0.715c0-0.255-0.255-0.613,0.204-0.767     c2.557-1.687,5.213-3.22,7.871-4.65c1.584-0.716,3.066-1.534,4.803-1.892c0.308-0.306,0.818-0.153,1.227-0.05     c1.279,0.357,2.506,0.869,3.732,1.175c0.152-0.051,0.102,0.051,0.152,0.153c0.717,0.204,1.432,0.614,2.147,0.716     c1.38,0.716,2.81,1.022,4.19,1.738l0.818,1.073c-0.154,0.204,0.102,0.409,0.203,0.613c0.408,0.562,1.125,1.125,1.176,1.891     c0.869,0.767,1.533,1.84,2.352,2.606c0,0.307-0.205,0.614,0.103,0.817c-0.205-0.051-0.513,0-0.513,0.308l0.308,0.255     c0-0.665,0.817-0.409,1.177-0.665c0.51-0.255,0.97-0.613,1.226-1.073c0.409-0.255,0.767-0.665,0.868-1.073     c-0.613,0.205-0.817,0.715-1.379,0.971c-0.154,0.051-0.052,0.153-0.102,0.255c-0.309-0.205-0.818,0-1.074-0.358     c0-0.357-0.357-0.664-0.461-1.073c-0.102-0.716-0.612-1.38-0.459-2.095c0.511-0.562,0.92-0.92,1.533-1.38     c-0.562-1.124-1.277-2.198-1.891-3.271c-0.46,0-0.307-0.46-0.716-0.562v0.051c-2.044-1.38-3.885-2.658-5.929-4.038     c-1.022-0.614-2.045-1.431-3.117-1.942c-0.664-0.562-1.431-0.767-2.198-1.022c-1.431,0.46-2.811,0.869-4.14,1.431     c-3.424,1.687-6.848,3.578-10.17,5.571c-0.051,0.102-0.103,0.205-0.205,0.255c-0.254-0.103-0.51,0.204-0.664,0.357     c-0.255,0-0.511,0.358-0.817,0.154c-0.153-0.307-0.052-0.614,0.154-0.818c-0.512,0.153-0.972,0.562-1.432,0.869     c-0.716,0.46-1.585,0.919-2.044,1.789c-0.256,0.613-0.613,1.074-0.664,1.687c0.307,0.307,0.869-0.152,0.971,0.41     c-0.613,2.504-1.227,5.162-1.688,7.717c-0.306,0.869-0.459,1.789-0.612,2.658c0.153,0.204-0.052,0.153-0.103,0.357     c-0.408,1.635-0.613,3.271-0.869,4.958c0.152,0.153-0.052,0.205-0.052,0.307c-0.716,4.702-1.583,9.148-2.351,13.799     c0,0.306-0.152,0.716-0.152,1.073l-0.256,1.788c0.152-0.05,0.357,0.205,0.408,0.308c0.307,0.97-1.022,1.481-0.869,2.555     c-0.153,0.103-0.205,0.46-0.46,0.358c-0.357,0.511-0.46,0.92-0.817,1.431c3.117,2.759,6.746,4.446,10.732,5.365     c0.357,0.103,0.768,0.154,1.124,0.204c1.482,0.256,3.067,0.357,4.498,0.511c0.716,0,1.584,0.052,2.402,0.052     c0.562-0.613,0.255-1.533,0.614-2.249c0.408-1.379,0.766-2.811,1.227-4.14c0.051-0.101,0.102-0.255,0.152-0.408     c-0.307,0.104-0.613,0.104-0.971,0.205c-0.051-0.205-0.717,0-0.562-0.46c0.461-0.154,0.869-0.511,1.227-0.869     c0.256-0.052,0.614-0.307,0.766-0.562h0.154c0.359-0.613,0.664-1.636,1.533-1.533c0.154,0,0.154,0.204,0.103,0.306     c1.431-0.766,2.761-1.941,4.038-3.015c0.102-0.051,0.255-0.153,0.408-0.204c2.912-2.555,5.775-4.855,8.178-7.972     c0.817-0.665,1.276-1.636,1.941-2.454c0.768-1.125,1.329-2.351,2.248-3.373c0.205,0,0.512-0.153,0.664,0.051     c0,0.052,0,0.103,0,0.103h0.155c1.175-1.073,2.452-2.454,3.679-3.475c1.277-1.176,2.146-2.453,1.891-4.293     c-0.152-1.021,0.103-1.839-0.152-2.76c0.306-0.614-0.053-1.125,0.204-1.737h0.204c0.203,2.708,1.992,5.825,0.102,8.279     c-1.021,1.532-2.555,2.453-3.73,3.782c-0.869,0.818-1.942,1.431-2.811,2.146l-0.46,0.153c-0.767,1.176-1.482,2.3-2.249,3.424     c0,0.154-0.052,0.205-0.154,0.205c-3.935,5.008-9.147,9.2-14.309,12.727c-0.358,0.152-0.613,0.357-0.717,0.715     c-0.408,1.482-1.021,3.067-1.482,4.651c-0.102,0.204-0.102,0.46-0.102,0.664c-0.358,0.46-0.358,1.074-0.715,1.585     c0.766,0.767-0.256,1.737-0.205,2.657c-0.256,0.358-0.357,0.715-0.408,1.175c-0.409,2.096-1.074,4.293-1.329,6.44     c-0.307,0.511-0.255,1.38-0.511,2.045c-0.613,5.672-0.214,0.141-1.031,5.66L283.847,158.848z" />
			<path fill="#FFFFFF" d="M298.524,82.199c1.789,1.022,3.373,2.3,5.06,3.526c0.052,0.255,0.358,0.205,0.511,0.409     c1.328,1.074,2.658,2.096,3.986,3.22c0,0.051,0,0.153,0.051,0.153c0.205,0.051,0.562,0.306,0.768,0.51     c-0.205,0.614,0.51,0.818,0.562,1.38c0.46,0.562,0.767,1.278,1.278,1.891c0,0.307,0,0.614,0,0.869     c-0.408,0.307-0.613,0.715-0.868,1.175c-0.154-0.256-0.462-0.511-0.409-0.818c-0.562-0.562-0.971-1.277-1.482-1.891     c0.153-0.102,0-0.256-0.051-0.358c-2.453-2.146-5.366-3.782-7.973-5.673c-1.38-0.665-2.606-1.584-4.088-2.096     c-0.205-0.051-0.563-0.102-0.818-0.051c0,0.46-0.613,0.307-0.92,0.358c-0.92,0.459-1.738,0.716-2.709,0.971     c-0.562,0.307-1.125,0.665-1.789,0.817c-0.152,0.205-0.408,0.307-0.613,0.358c-2.863,1.687-5.775,3.066-8.535,4.906l-0.103-0.051     c0.409-0.408,0.614-0.868,1.176-1.073l2.505-2.095c0.152,0.102,0.254-0.103,0.357-0.103v-0.153     c1.789-1.38,3.68-2.658,5.621-3.782c1.022-0.715,2.095-1.227,3.221-1.84c0.256,0.103,0.102-0.205,0.307-0.255     c0.92-0.459,1.84-1.073,2.811-1.533C297.195,81.126,297.81,81.739,298.524,82.199z" />
			<rect x="299.802" y="81.228" width="0.053" height="0.052" />
			<path fill="#FFFFFF" d="M303.276,82.404c0.41,0.102,0.87,0.205,1.176,0.562c0.768,0.409,1.227,1.021,1.842,1.635     c1.736,1.687,3.475,3.782,4.905,5.622c0.46,1.635,1.329,3.118,1.943,4.702c-0.358,0.255-0.614,0.255-0.819-0.153     c-0.254-0.154-0.103-0.562-0.407-0.664c0.05-0.256-0.768-0.46-0.257-0.767c-0.203-1.176-1.328-2.044-1.687-3.169     c-0.204-0.103-0.408-0.409-0.613-0.613c-0.153-0.307-0.409-0.614-0.664-0.818c-0.256-0.102-0.46-0.409-0.613-0.613     c-0.972-0.664-1.687-1.636-2.606-2.3c0.051-0.306-0.256,0-0.307-0.205c-0.409-0.306-0.717-0.613-1.074-0.817     c-0.408-0.358-0.919-0.614-1.277-1.022c-0.357-0.051-0.46-0.51-0.816-0.562c-0.053-0.409-0.41-0.102-0.615-0.409     c0.052,0,0.154,0,0.205,0c-0.051-0.051-0.256-0.102-0.357-0.204v0.102c-0.205-0.307-0.614-0.307-0.869-0.562     c0-0.255-0.256,0-0.308-0.255c0.409-0.307,0.972,0.051,1.432-0.204C302.103,81.842,303.124,81.586,303.276,82.404z" />
			<path d="M294.282,83.63h0.051H294.282z" />
			<rect x="280.177" y="91.961" fill="#FFFFFF" width="0" height="0.051" />
			<path fill="#FFFFFF" d="M312.017,96.152c0.256,0.051,0.052,0.409,0.357,0.409c0.768,0.716-0.51,0.971-0.766,1.38     c-0.205-0.103-0.41-0.256-0.512-0.46c0.051-0.358-0.46-0.459-0.357-0.868l-0.357-0.307c0.102-0.103,0.152-0.204,0.102-0.307     c-0.102-0.102-0.256-0.204-0.408-0.153l-0.154-0.46c0,0.153,0.154,0.153,0.256,0.153c0.205-0.357,0.511-0.766,0.869-1.022     C311.301,94.976,311.761,95.589,312.017,96.152z" />
			<path fill="#FFFFFF" d="M311.147,99.423c-0.46,0.511-1.124,0.869-1.738,1.175c-0.663-0.255-0.562-1.022-1.021-1.431     c0-0.665-0.256-1.482,0.409-1.993c0.306-0.103,0.511-0.511,0.817-0.46L311.147,99.423z" />
			<path d="M290.448,103.664c0.053,1.789-0.664,3.322-1.379,4.855l-0.409,0.972c0,0.613-0.051,1.277,0.103,1.891l0.154-0.205     c-0.104-0.103,0.102-0.153,0.102-0.205c-0.102-0.357,0.256-0.511,0.307-0.818c0.102-0.511,0.154-0.971,0.408-1.431     c0.46-1.175,0.665-2.555,1.432-3.628c-0.104-0.715,0.664-1.329,0.051-1.994c0.102-0.306,0.46-0.051,0.613,0.051     c0.306,0.562-0.153,1.176-0.256,1.738c-0.664,1.687-1.328,3.476-1.992,5.162c-0.307,0.767-0.461,1.533-0.818,2.299     c0,0.818,0,1.636,0.154,2.454c-0.104,0.971,0.153,2.146-0.104,3.066c-0.051,0.102,0.051,0.256,0.153,0.204     c0.154,0.46-0.204,0.92,0,1.379c0,0.307,0,0.767,0,1.022c-0.05,0.461-0.05,1.073,0,1.38c-0.103,0.715-0.05,1.789,0,2.503     c-0.255,0.41-0.05,1.073-0.306,1.432c-0.051,1.38-0.256,2.812-1.278,3.781c-0.255,0.614-0.817,1.176-1.175,1.738     c-1.074,1.073-2.045,2.862-3.833,2.555c-0.358,0-0.614-0.358-0.87-0.614c0-0.306-0.255-0.459-0.307-0.765     c-0.204-0.052-0.562-0.104-0.664-0.41c0.052-0.102-0.153-0.255,0.052-0.357c0.511,0.306,1.124,0.409,1.636,0.103     c2.043-0.409,3.73-1.994,5.109-3.476l0.205-0.103c0.153,0.409-0.408,0.511-0.408,0.768c-0.664,0.716-1.329,1.481-2.146,1.941     c-0.205,0.409-0.562,0.562-0.92,0.716c-0.665,0.511-1.533,0.766-2.301,0.819c-0.051,0.459,0.461,0.612,0.768,0.868     c0.459,0,0.817-0.052,1.176-0.306l0.051,0.051c1.379-0.971,2.3-2.3,3.322-3.526c0.408-0.767,1.277-1.584,1.123-2.606     c0.104-1.073,0.308-2.044,0.308-3.066c0.052-0.971,0.103-1.993,0.103-2.964l0.102-0.103c-0.204-0.051-0.052-0.307-0.052-0.408     c0.052-0.205-0.051-0.409-0.051-0.665c-0.153-0.307,0.153-0.613,0-0.97c0.307-0.205-0.307-0.562,0.051-0.767     c-0.255-0.869-0.051-2.044-0.204-3.016c0-1.431-0.307-2.914-0.357-4.395c-0.409,0.409-0.409,0.869-0.818,1.277h-0.204     c-0.204-0.408,0.358-0.562,0.306-0.919c0.357-0.511,0.717-1.175,0.666-1.839c0.051-0.103,0.051-0.255,0.152-0.308     c0.409,0.205,0.359-0.307,0.562-0.408c0-0.613,0.562-1.073,0.613-1.686c0.205-0.103,0.153-0.307,0.205-0.46l0,0     c0.153-0.715,0.408-1.278,0.408-2.044c0.102-0.511-0.51-0.818-0.357-1.226C290.04,102.796,290.296,103.358,290.448,103.664z" />
			<rect x="299.751" y="105.402" width="0.051" height="0.051" />
			<rect x="286.872" y="141.586" width="0.051" height="0.051" />
			<polygon points="286.821,141.688 286.873,141.688 286.873,141.688    " />
		</g>
	</g>
</g>
<g>
	<polygon fill="#FFFFFF" points="181.848,62.573 259.801,62.573 252,175.958 181.848,175.958  " />
	<g id="Lager_1_3_">
		<g>
			<path d="M212.17,87.434c0.115-0.049,0.254-0.062,0.421-0.025c3.034,0.286,5.995,0.861,8.364,2.728     c5.627,0.719,10.66,2.729,15.471,5.242c0.74-0.431,1.186,0.646,1.852,0.646c1.109,0.719,1.925,1.651,3.183,1.651     c0.37,0.288,0.073,1.222,0.296,1.58c1.555,4.093,4.146,7.755,6.736,11.346c0.297,2.368,2.443,4.45,3.629,6.677     c0.443,1.149,1.924,1.579,2.219,2.657c0.371,0.071,0.594,0.216,0.666,0.573c-0.592,1.005-1.553,1.867-2.59,2.369     c-0.74,0.646-1.701,0.574-2.592,0.791c0.074,0.86,0.369,1.723-0.592,2.226c-1.406,0.574-2.666,1.508-3.998,2.082l-4.959,2.584     c1.035,1.365,1.035,3.232,1.11,5.099c2.221,2.299,2.221,4.883,3.405,7.754c0.221,0.504-0.148,1.725,0.592,1.868     c2.146,2.083,2.666,5.386,1.631,8.185c-0.668,1.581-0.965,3.304-2.297,4.38c-0.887,0.216-1.702-0.214-2.221-0.573l-1.185-1.796     c-1.109,0.287-1.479,1.796-2.812,1.078l-2.591-3.52c-0.963,0.073-1.777,1.437-2.664,0.216     c-5.479-8.399-11.104-16.658-14.51-25.992c-3.48-5.458-6.07-11.489-9.771-17.019c-2.295,0.287-6.033-3.646-8.4-2.711     c-0.186-0.126-0.261-0.274-0.256-0.426" />
			<path fill="#FFFFFF" stroke="#FFFFFF" stroke-width="0.25" d="M201.94,87.431l-1.632,19.673c0.015-0.454,0.735-0.938,1.292-0.938     c1.331-0.072,4.551,1.851,5.661,2.425c0-0.503,0.445-0.718,0.815-0.934c1.627,0.502,2.516,2.298,3.404,3.591     c1.037,1.652,1.777,3.59,3.109,5.098l0.074,0.575c2.442,3.806,3.775,8.112,6.588,11.63c-0.296,1.51,0.74,2.228,1.111,3.376     c2.146-0.503,2.961,2.297,4.219,3.374c2.072,4.239,3.701,8.905,7.477,12.207c1.627,2.8,3.404,5.313,5.107,7.97     c0.518-0.357,0.963-0.646,1.406-1.076c-2.22-4.165-4.886-8.114-8.29-11.848c-1.407,0.072-1.407-1.652-2.073-2.512     c-1.775-3.806-3.701-7.396-6.811-10.485c0.594-0.502,1.186,0.144,1.629,0.432c4.293,3.877,5.182,9.62,9.55,13.211     c2.073,2.657,4.071,5.17,5.774,8.043c0.74-0.072,1.852-0.503,2.592,0.287s1.701,1.795,2.221,2.801     c0.59-1.15,0.961-2.729,1.035-4.237c-0.221-1.796-0.889-3.877-2.812-4.523c0.592-1.293-0.297-2.441-0.666-3.877     c-0.371-1.365-0.963-2.872-1.777-4.236c-0.148,0.287-0.593,0.215-0.814,0.071c-0.37-1.724,0.148-4.164-0.74-5.673     c-2.664-0.503-4.441,3.446-7.255,2.442l-2.664-0.36c-0.962-1.005-1.999-2.368-2.22-3.375c-1.852-3.59-1.556-8.113-5.775-10.626     c-0.073-0.503-0.813-1.437-0.666-2.298c0.74-0.144,0.37,1.077,0.814,1.579c-0.37,1.509,1.629,1.006,2.221,2.227     c0.518-0.287,1.333,0.071,1.406,0.646c1.48,3.733,2.592,7.539,4.886,10.914l3.331,0.215c4.59-3.375,9.92-5.673,14.879-8.257     c0.52-1.221-1.111-1.867-0.889-3.016c1.037-0.288,2.074,0.933,3.037,0.287c-1.408-0.79-2.666-2.227-3.777-3.447     c0.518-1.22,1.703-2.153,2.961-2.44c-0.666-1.939-2.738-3.662-2.738-5.96c-3.035-3.447-5.33-7.253-6.662-11.561     c-1.481-0.647-2.887-1.364-3.998-2.369c-5.033-1.795-9.697-4.236-15.027-5.098c-0.592,0.502-1.184-0.145-1.776-0.145     c-0.593-1.363-2.294-1.363-3.479-2.01l-4.367-0.79c0.056-0.378,0.195-0.835,0.543-0.979L201.94,87.431z" />
			<path fill="#FFFFFF" d="M223.029,133.218c3.108,3.16,4.368,7.324,6.144,10.987c-0.369-0.432-0.739-0.934-0.813-1.294     C225.768,140.042,224.805,136.593,223.029,133.218z" />
			<path fill="#FFFFFF" d="M229.248,144.348l0.666,0.862L229.248,144.348z" />
			<path fill="#FFFFFF" d="M230.135,145.569c2.146,1.435,3.553,4.165,4.959,6.462l-0.518,0.218     C232.727,150.236,231.837,147.651,230.135,145.569z" />
			<path d="M234.059,105.934c0.814,2.297,2.518,4.38,3.627,6.462c1.406,1.723,2.072,4.237,4.146,5.313     c0.962,1.076,1.702,2.584,3.183,2.8l1.48,0.646l-0.146,0.216c-1.26-0.216-2.518,0.143-3.776,0.143     c-1.48,0.504-1.851,3.806-3.554,2.227c-0.593-0.43-1.48-0.359-2.295-0.217c-0.518,0.647-0.146,1.509-1.184,1.796     c-0.74-0.934-0.074-2.729-0.518-3.877c0-0.718-0.666-1.724-0.666-2.011c0-0.431-0.89-0.574-0.52-1.076     c0.52-0.503,1.186,0.216,1.406-0.432c0.148-1.938,0.297-3.805-0.74-5.385c-0.295,0.216-0.443-0.072-0.592-0.359     c-0.148-0.718,1.555-0.933,1.036-1.795c-0.888-1.364-1.999-2.943-1.776-4.451H234.059z" />
			<path fill="#FFFFFF" d="M235.613,111.964c2.22,2.227,3.035,5.602,5.774,7.324l0.814,1.005c-1.036,0.503-1.63,1.58-2.518,2.37     c-1.11-0.287-1.998-0.646-3.257-0.359c0.296-1.437-1.333-2.873,0-3.949C237.02,116.201,236.577,113.688,235.613,111.964z" />
			<path fill="#FFFFFF" d="M242.498,152.031c1.036,0.79,1.999,1.938,2.442,3.159c-0.443,0.504-0.221,2.083-1.332,1.365     c-0.814-1.508-2.368-2.874-2.812-4.596C241.313,151.601,241.979,151.671,242.498,152.031z" />
			<path fill="#FFFFFF" d="M250.122,116.776c0.814,1.22,1.629,2.729,3.109,3.446c-0.295,0.646-1.035,1.149-1.701,1.436     c-1.703-0.646-2.889-1.938-3.701-3.518C248.198,117.207,249.309,117.207,250.122,116.776z" />
			<path fill="none" stroke="#000000" stroke-width="1.1104" d="M213.762,87.519c0,0-6.68,5.835-11.677,20.271" />
			<path fill="none" stroke="#000000" stroke-width="1.1104" d="M200.229,83.083c0.925,0,13.223,4.636,13.223,4.636" />
			<line fill="none" stroke="#000000" stroke-width="1.1104" x1="201.979" y1="107.335" x2="189.448" y2="103.876" />
		</g>
	</g>
	<g id="Lager_2_2_">
		
			<linearGradient id="SVGID_4_" gradientUnits="userSpaceOnUse" x1="187.6108" y1="598.9932" x2="203.6111" y2="593.493" gradientTransform="matrix(1 0 0 -1 0.1401 689.8262)">
			<stop offset="0" style="stop-color:#FFFFFF" />
			<stop offset="1" style="stop-color:#EDEDED" />
		</linearGradient>
		<path fill="url(#SVGID_4_)" stroke="#FFFFFF" stroke-width="0.25" d="M212.598,88.01l-25-9.562l-5.75,22.688l18.875,5.25    l1.125,0.438c0,0,0.938-2.75,2.562-6.312S211.036,88.948,212.598,88.01z" />
	</g>
</g>
<g>
	<path fill="#FFFFFF" d="M157.511,59.853h-45.338v117.922H196.5v-60.265C187.001,96.218,172.919,77.474,157.511,59.853z" />
	<g id="Lager_1_5_">
		<path d="M134.225,104.443c-0.203-1.305,1.588-2.062,2.451-3.126c3.301-2.439,6.529-5.955,11.122-5.955    c2.656-0.071,5.382,0.072,7.821,0.144c7.318,2.439,14.351,5.884,21.597,8.037c1.793,1.22,2.654,3.371,3.374,5.236l0.501,0.288    c2.513,4.233,5.166,7.678,7.177,12.125l0.788,0.933c0,0.359,0.431,0.791,0.504,1.222c1.434,3.371,3.299,6.529,4.732,9.973    c0.146,1.795,0.433,4.09-1.434,5.238c-0.573,0.287-1.004,0.86-1.649,0.86c0.142,1.006,0.861,2.87-0.071,3.803v0.358    c-1.436,0.79-2.082,2.87-4.235,2.081c-1.507-0.358-3.014-1.147-4.091-2.368c-0.069,0.431-0.717,0.79-0.572,1.221    c-1.148,1.004-3.159,1.794-4.809,0.933c-0.644-0.432-1.864-0.791-1.936-1.65c-2.227-2.082-3.805-4.592-6.173-6.888    c-2.223,0.43-3.443,5.381-6.098,2.942c-1.077-1.795-2.225-3.446-1.723-5.67c-2.511-0.215-4.378-2.08-5.237-4.305l-0.288-0.934    l-4.018-3.874c-3.301,0.287-5.74-1.292-8.108-3.229c-3.803,4.378-6.458,9.328-8.538,14.422c-0.216,0.072-0.501,0.502-0.79,0.358    l-0.431-0.358" />
		<path fill="#FFFFFF" d="M133.971,136.262c1.722-5.383,4.93-10.404,8.805-14.709c-1.076-1.078-2.943-1.867-3.085-3.732    c-0.073-0.646,0.431-1.075,0.861-1.363c0.788,0.358-0.073,1.292,0.717,1.794c0.359,0,0.359-0.718,0.859-0.573    c2.082,3.228,5.168,5.954,8.97,6.313c-0.071-0.503-1.075-1.65,0.145-2.009c1.938,2.512,4.593,5.095,6.816,7.176    c-1.147,0.718,0.287,1.506,0.502,2.08c1.076,1.507,3.086,1.937,4.879,1.794c1.004,0.143,0.933-1.005,1.723-1.436    c-0.359-0.86-0.79-1.649-1.363-2.438c-0.286,0.071-0.431,0.574-0.79,0.358l0.287-1.292c-1.29-2.584-2.798-5.237-3.517-8.179    c0.145-0.216,0-0.719,0.431-0.79c0.933-0.144,0.575,1.507,1.221,1.938c1.723,4.664,4.162,9.184,7.175,13.346l0.359,0.071    l8.18,9.329c0.429,0.285,0.859,0.357,1.292,0.574c-0.433-0.79-0.359-2.297-1.437-2.655c-0.286-0.503,0.145-1.077,0.502-1.507    c0.719-0.646,1.578-1.077,2.513-1.292c-0.145-0.645-0.719-1.507-1.292-2.008c-1.578-2.942-3.731-5.812-4.808-8.898    c-3.086-3.947-4.735-7.964-6.027-12.628c-0.215-0.789,0.645-0.43,0.861-0.861c0.646,0.503,0.429,1.65,0.861,2.368    c1.219,3.874,3.154,7.678,5.597,10.835c1.436,4.233,4.59,7.893,6.457,11.983c1.006,0.859,0.861,2.797,2.225,2.87    c0.717,0.717,1.578,1.362,2.51,1.649c-0.572-1.506-1.578-3.085-1.649-4.735c0.718-1.075,1.938-1.793,2.727-2.438h0.502    c-0.143,1.146,1.005,0.573,1.291,1.435c0.216-0.215,0.431-0.288,0.36-0.646c-1.148-0.504-1.221-1.938-1.938-2.87    c-3.156-4.879-4.881-9.544-7.749-14.566c-1.58-2.225-2.87-4.521-4.448-6.745c0.431-1.075-1.147-3.013,0.357-3.156    c1.149,0.646,0.359,2.511,1.292,3.587c5.381,6.242,7.392,14.494,11.982,21.239c1.076,0.646,0.646,3.086,2.297,2.726    c0.718-0.646,2.584-1.506,1.578-2.726c-0.431-0.934-1.147-1.722-1.793-2.583c-1.006,0-1.651,0.717-2.441,1.147    c-0.287-0.503,0.503-0.646,0.717-1.005l1.796-0.646c0.861,0.934,1.938,1.938,2.224,3.229l0.357-0.288    c-1.505-3.802-3.585-7.316-5.31-11.122c-0.788,0,0.073-0.717-0.429-0.932c-2.37-4.232-4.52-8.61-7.533-12.771    c-0.216,0-0.504,0.287-0.646,0.144c-0.575-2.439-1.866-4.951-4.162-6.457c-7.318-1.866-13.849-5.597-21.167-7.534    c-3.659,0-7.605-0.574-11.051,0.861c-2.87,1.937-6.026,4.377-8.537,7.031l-0.719,0.216c-0.041-0.11-0.272-0.216-0.29-0.319    L133.971,136.262z" />
		<path d="M155.619,111.938c1.147,0.287,2.153,0.933,2.87,1.865l-0.071,0.072C157.484,113.157,156.407,112.583,155.619,111.938z" />
		<path fill="#FFFFFF" d="M163.584,134.108c0.215-1.005,1.434-1.075,2.224-1.65l2.511,3.301c-1.507,0.646-2.726,2.153-3.875,3.516    c-0.931-1.147-2.223-3.013-1.723-5.021L163.584,134.108z" />
		<path fill="#FFFFFF" stroke="#000000" stroke-width="0.2513" d="M179.8,139.491c0.79,0.789,1.578,1.29,1.938,2.367    c-0.502,0.933-0.717,2.224-1.938,2.655c-0.791,0.214-1.148-0.861-1.363-1.437c-0.216-0.86-1.006-1.865-0.357-2.584L179.8,139.491z    " />
		<path fill="#FFFFFF" stroke="#000000" stroke-width="0.1256" d="M187.908,137.769c0.071,0.646,1.076,1.22,1.505,1.723    c0.145,0.933,1.147,1.793,0.717,2.582c-0.384,0.568-0.213,1.076-0.858,1.507c-0.431,0.574-1.292,0.717-2.01,0.502    c-1.076-1.005-1.507-2.512-2.152-3.873C185.54,139.132,186.761,138.127,187.908,137.769z" />
		<path fill="none" stroke="#000000" stroke-width="0.7175" d="M134.308,104.763c0,0-10.386,16.341,5.787,20.727" />
		
			<line fill="none" stroke="#000000" stroke-width="0.9328" stroke-linecap="round" x1="119.312" y1="115.467" x2="134.441" y2="103.267" />
	</g>
	<g id="Lager_2_4_">
		
			<linearGradient id="SVGID_5_" gradientUnits="userSpaceOnUse" x1="120.4717" y1="555.3193" x2="122.7364" y2="556.3888" gradientTransform="matrix(1 0 0 -1 0.1401 689.8262)">
			<stop offset="0" style="stop-color:#FFFFFF" />
			<stop offset="1" style="stop-color:#EDEDED" />
		</linearGradient>
		<path fill="url(#SVGID_5_)" d="M130.98,146.693l-18.027-25.653L130.98,146.693z" />
		
			<linearGradient id="SVGID_6_" gradientUnits="userSpaceOnUse" x1="124.7227" y1="559.4316" x2="135.3535" y2="564.4516" gradientTransform="matrix(1 0 0 -1 0.1401 689.8262)">
			<stop offset="0" style="stop-color:#FFFFFF" />
			<stop offset="1" style="stop-color:#EDEDED" />
		</linearGradient>
		<path fill="url(#SVGID_6_)" d="M114.058,120.043l20.085-15.86c0,0-3.055,5.59-3.25,8.646c-0.194,3.055-0.324,5.915,1.235,8.06    c1.56,2.146,5.265,4.42,7.215,4.811c0,0-7.843,11.722-8.276,22.122S114.058,120.043,114.058,120.043z" />
	</g>
</g>
<g>
	<rect x="49.016" y="55.393" fill="#FFFFFF" width="72.484" height="113.385" />
	<g id="Lager_2_3_">
		
			<linearGradient id="SVGID_7_" gradientUnits="userSpaceOnUse" x1="70.2334" y1="537.7314" x2="75.0666" y2="551.3984" gradientTransform="matrix(1 0 0 -1 0.1401 689.8262)">
			<stop offset="0" style="stop-color:#FFFFFF" />
			<stop offset="1" style="stop-color:#EDEDED" />
		</linearGradient>
		<path fill="url(#SVGID_7_)" d="M85.85,160.392c0,0,3.5-25,4.666-26.167c1.167-1.166-0.333-0.833-0.333-0.833    s-3.167-0.167-4.667-0.167s-5.5-0.5-9-2.5s-6-4-6-4L52.683,150.06C52.683,150.06,74.016,166.225,85.85,160.392z" />
	</g>
	<g id="Lager_1_4_">
		<g>
			<path d="M86.509,151.227c-0.103-0.357,0.204-0.716,0-1.022c0.307-0.408,0.153-1.021,0.358-1.431     c0.816-4.753-0.145,1.392,0.571-3.412c0.152-1.176,0.306-2.402,0.562-3.476c0.562-2.709,1.073-5.366,1.789-7.973     c-0.051-0.153-0.051-0.255-0.205-0.307c-0.152-0.102-0.51-0.153-0.766-0.153c-3.629,0.408-7.053-0.153-10.426-1.432     c-0.103-0.152-0.205-0.203-0.357-0.152c-0.613-0.205-1.125-0.613-1.789-0.717c-0.051-0.255-0.357-0.203-0.562-0.357     c-1.687-0.92-3.272-1.992-4.754-3.219c-0.255,0.357-0.716,0.92-1.073,0.868c-0.102,0.153-0.102-0.052-0.205-0.052     c-0.562,0.716-0.92,1.585-1.532,2.249c-1.431,2.096-2.812,4.191-4.292,6.133v0.154c-2.557,3.168-1.652,2.143-4.207,5.464     l1.227-3.424c0.255-0.41,0.715-0.817,0.869-1.277h0.049c3.834-4.907,3.9-5.67,7.172-10.831c-0.053-0.257,0.307-0.307,0.307-0.562     c0.459-0.358,0.611-1.381,1.379-1.073c0.818-1.073,1.329-2.352,1.329-3.731c0.358-3.015,0.919-6.031,1.481-9.097l-0.204-0.102     l0.255-0.205l0.357-2.096c-0.254-0.205,0.154-0.102,0.053-0.357c0.051-0.358,0.204-0.716,0.102-1.073     c0.205-0.408,0.154-0.817,0.256-1.278c-0.205-0.204,0.256-0.357,0.051-0.613c0.409-2.299,0.869-4.549,1.176-6.849     c0.357-1.227,0.461-2.401,0.817-3.628c0-0.154,0.103-0.357,0.154-0.562l0.562-2.811c-0.358-0.46-0.153-0.972-0.409-1.432     c-0.053-1.431,0.153-2.76,0.817-3.985c0.767-1.942,2.964-2.249,4.345-3.629l0.205-0.204l-0.053-0.052     c1.124-0.357,1.84-1.635,2.862-2.402c4.292-3.628,9.25-6.337,14.208-8.893c0.818,0.052,1.227,0.767,1.941,0.971     c0.358,0,0.461,0.562,0.818,0.46c0.103,0.409,0.562-0.052,0.818,0.153c0.971-0.357,2.044-0.153,3.219-0.256     c0.562,0.051,0.971,0.358,1.278,0.767c0.511-0.153,0.868,0.409,1.329,0.665c0.817,0.767,1.686,1.482,2.504,2.351     c0.102,0.051,0.153,0.204,0.256,0.307c1.431,1.431,2.708,3.066,3.475,4.906c0.562,1.073,1.125,2.197,1.636,3.271h0.103     c0,0.562,0.561,1.072,0.459,1.635c0.614,0.256,0.869,0.92,1.227,1.381c0.102,1.328-0.204,2.555-0.307,3.884     c-0.152,0.511-0.256,1.022-0.562,1.432c-0.613-0.768-0.051-1.688-0.152-2.606l0.307-2.403c-0.051-0.51-0.666-0.612-1.021-0.816     c-0.205,0-0.359,0-0.461,0.153c0.357,0.356,0.715,0.868,0.562,1.532c-0.153,0.358-0.204,0.869-0.663,1.073     c-0.308,0.052-0.717,0.307-0.971,0.154c-0.154-0.717,0.562-0.308,0.612-0.92c0.103-0.205,0.255-0.409,0.204-0.562     c-0.408,0.459-0.867,0.715-1.227,1.175c0,0.308,0.461,0.308,0.359,0.614c0.203,0.152,0.357,0.408,0.357,0.663     c-0.154,0.768-0.664,1.228-1.073,1.841c-0.052,0.307-0.308,0.307-0.409,0.613c-0.715,0.767-1.84,0.817-2.76,0.767     c-0.102,0.613-0.511,1.38-0.102,1.941c-0.409,0.665,0,1.278,0.102,1.994c0.204,0.307,0.307,0.664,0.664,0.817     c-0.102,0.153-0.051,0.46-0.306,0.409c-0.409-0.358-1.073-0.614-0.921-1.278c-0.204-0.256-0.153-0.664-0.408-0.869     c-0.614,0.358-1.125,0.869-1.584,1.432c-0.818,0.562-1.738,1.482-2.556,2.095c-0.256,0-0.613,0.153-0.613-0.152     c0.052-0.307,0.255-0.512,0.408-0.717c-0.92,0-1.687-0.356-2.452-0.51l-0.103,0.051c0-0.051-0.052-0.103-0.103-0.153h-0.103     c0.052,0.869,0.052,1.584,0.308,2.454c0.51,0.356,0.051,0.97,0.51,1.327c0.307,0.665,0.256,1.585,0.614,2.198     c0,0.358,0.306,0.767,0,1.073c0.255,0.307,0.46,0.716,0.46,1.124c-0.562-0.459-0.358-1.38-0.665-1.84     c0-0.92-0.613-1.584-0.664-2.452c-0.255-0.614-0.562-1.33-0.614-1.994c-0.203-0.408-0.256-0.767-0.256-1.176     c-0.459-0.408-0.051-1.175-0.766-1.227c-0.051-0.306-0.459-0.459-0.256-0.867c0.307-0.103,0-0.358,0-0.512     c-0.051-0.052-0.051-0.103-0.102-0.103c0.102-0.205-0.256-0.46-0.357-0.767c-0.256-1.328-0.971-2.504-1.227-3.885     c-1.841-0.102-3.834-0.102-5.469-0.766c-0.818,1.124-1.841,1.84-2.965,2.76l-1.125,0.203c-0.051-0.46,0.562-0.664,0.818-0.971     c0.869-0.869,1.941-1.38,2.556-2.401c-0.257-0.153-0.409-0.205-0.409-0.614c-0.053,0-0.053-0.051-0.053-0.153     c0.205-0.102,0.462-0.205,0.665-0.205c0.614,0.665,1.534,0.665,2.352,0.818c1.788,0.153,3.781,0.307,5.724,0.255l0.205,0.205     c-0.359,0.613-0.818,0.46-1.381,0.767c0.053,0.562,0.307,1.072,0.562,1.533c-0.051,0.562,0.306,1.022,0.459,1.533     c0.154,0.153,0.053,0.562,0.359,0.664c0.204,0.052,0.153,0.409,0.256,0.512c0,0.511,0.255,1.124,0.664,1.43     c1.072,0.461,2.146,0.716,3.322,0.92c0.919-0.92,2.146-1.941,3.065-2.861c-0.153-0.256,0.206-0.511,0.052-0.818     c0.102-0.204,0.154-0.511,0.102-0.664c-0.153,0.102-0.408,0.153-0.459,0.357c-0.357,0.256-0.92,0.103-1.176,0.46     c-0.971,0.459-2.555,0.204-3.527-0.357c-0.971-0.256-1.686-1.38-2.504-1.942c0.053-0.256-0.408-0.562-0.102-0.665     c0.869,0.308,1.533,1.125,2.402,1.585c0.307-0.052,0.664,0.153,0.971,0.357c0.767,0.307,1.687,0.562,2.555,0.256l0.256-0.307     c-0.92-0.409-1.584-1.329-2.044-2.249c0.204-0.256-0.308-0.664,0.152-0.664c0.511-0.307,0.563-1.329,1.278-1.227v0.255     c-0.357,0.512-0.868,0.92-0.92,1.432c0.307,0.715,0.562,1.585,1.328,1.892c0.256,0.255,0.613,0.255,0.921,0.255     c0.562-0.357,0.868-0.767,1.073-1.38c-0.307-0.767-1.073-1.533-1.738-2.146c-0.051-0.153-0.154-0.307-0.051-0.511     c0.152-0.103,0.152-0.153,0.051-0.307c-0.92-0.716-1.789-1.84-2.607-2.862c-2.555-1.021-5.109-2.044-7.717-2.861     c-1.021-0.511-2.249-1.176-3.576-0.665c-2.352,0.817-4.396,2.197-6.594,3.271c-0.869,0.715-1.891,1.073-2.811,1.789     c-0.461,0.153-0.768,0.408-1.227,0.664c-0.46,0.307-0.972,0.562-1.533,0.716c0-0.255-0.256-0.613,0.204-0.767     c2.556-1.687,5.213-3.22,7.87-4.65c1.585-0.716,3.067-1.534,4.803-1.892c0.309-0.307,0.819-0.153,1.228-0.051     c1.278,0.357,2.505,0.869,3.731,1.176c0.152-0.052,0.102,0.051,0.152,0.152c0.717,0.204,1.432,0.614,2.148,0.716     c1.379,0.716,2.81,1.022,4.189,1.738l0.818,1.073c-0.153,0.204,0.102,0.408,0.204,0.613c0.408,0.562,1.125,1.124,1.176,1.891     c0.868,0.767,1.532,1.84,2.351,2.606c0,0.307-0.204,0.613,0.104,0.817c-0.205-0.051-0.513,0-0.513,0.308l0.308,0.255     c0-0.665,0.817-0.409,1.176-0.665c0.51-0.255,0.971-0.613,1.227-1.073c0.408-0.255,0.766-0.664,0.867-1.073     c-0.613,0.205-0.816,0.716-1.379,0.971c-0.154,0.051-0.051,0.153-0.102,0.256c-0.308-0.205-0.818,0-1.074-0.358     c0-0.357-0.357-0.664-0.46-1.073c-0.103-0.716-0.612-1.38-0.46-2.095c0.512-0.562,0.921-0.92,1.533-1.38     c-0.562-1.124-1.277-2.198-1.891-3.271c-0.459,0-0.307-0.46-0.715-0.562v0.052c-2.045-1.381-3.885-2.658-5.93-4.038     c-1.021-0.613-2.044-1.431-3.117-1.942c-0.663-0.562-1.43-0.767-2.197-1.022c-1.431,0.461-2.811,0.869-4.14,1.432     c-3.425,1.687-6.849,3.577-10.171,5.571c-0.051,0.102-0.102,0.204-0.204,0.255c-0.255-0.103-0.511,0.204-0.664,0.357     c-0.255,0-0.511,0.357-0.817,0.153c-0.153-0.307-0.052-0.613,0.154-0.817c-0.512,0.153-0.973,0.562-1.432,0.868     c-0.717,0.46-1.585,0.92-2.045,1.789c-0.256,0.613-0.613,1.073-0.664,1.687c0.307,0.307,0.869-0.152,0.971,0.409     c-0.613,2.504-1.227,5.162-1.687,7.717c-0.306,0.869-0.459,1.789-0.612,2.658c0.153,0.204-0.053,0.153-0.104,0.357     c-0.408,1.635-0.613,3.271-0.868,4.957c0.152,0.153-0.052,0.205-0.052,0.307c-0.716,4.702-1.584,9.148-2.352,13.799     c0,0.307-0.152,0.716-0.152,1.073l-0.256,1.788c0.153-0.051,0.357,0.205,0.408,0.308c0.307,0.97-1.021,1.481-0.868,2.555     c-0.153,0.103-0.205,0.46-0.46,0.358c-0.357,0.511-0.461,0.92-0.818,1.431c3.117,2.76,6.746,4.446,10.732,5.365     c0.358,0.103,0.768,0.154,1.125,0.204c1.482,0.257,3.066,0.357,4.498,0.511c0.715,0,1.584,0.052,2.402,0.052     c0.562-0.613,0.255-1.532,0.613-2.249c0.408-1.379,0.766-2.811,1.227-4.14c0.051-0.101,0.102-0.255,0.152-0.408     c-0.306,0.104-0.613,0.104-0.971,0.205c-0.051-0.205-0.716,0-0.562-0.46c0.46-0.154,0.868-0.511,1.227-0.869     c0.255-0.052,0.614-0.307,0.766-0.562h0.154c0.358-0.613,0.664-1.636,1.533-1.532c0.153,0,0.153,0.204,0.103,0.306     c1.431-0.766,2.76-1.941,4.037-3.015c0.102-0.052,0.256-0.153,0.409-0.204c2.911-2.555,5.774-4.855,8.177-7.973     c0.818-0.665,1.277-1.636,1.941-2.453c0.768-1.125,1.33-2.352,2.249-3.373c0.204,0,0.511-0.153,0.664,0.051     c0,0.052,0,0.103,0,0.103h0.155c1.174-1.073,2.452-2.454,3.678-3.476c1.277-1.176,2.146-2.453,1.892-4.293     c-0.153-1.021,0.103-1.84-0.153-2.76c0.307-0.614-0.052-1.125,0.205-1.737h0.203c0.204,2.708,1.993,5.825,0.102,8.279     c-1.021,1.532-2.555,2.453-3.729,3.781c-0.87,0.818-1.942,1.432-2.812,2.146l-0.459,0.153c-0.768,1.176-1.482,2.3-2.25,3.425     c0,0.153-0.051,0.204-0.153,0.204c-3.935,5.009-9.147,9.2-14.31,12.727c-0.357,0.152-0.613,0.357-0.717,0.715     c-0.407,1.482-1.021,3.067-1.481,4.651c-0.103,0.204-0.103,0.46-0.103,0.664c-0.357,0.46-0.357,1.073-0.715,1.585     c0.767,0.767-0.256,1.737-0.205,2.656c-0.255,0.358-0.357,0.716-0.408,1.176c-0.408,2.096-1.073,4.293-1.328,6.439     c-0.307,0.512-0.256,1.381-0.512,2.046c-0.613,5.672-0.213,0.141-1.031,5.66L86.509,151.227z" />
			<path fill="#FFFFFF" d="M101.186,74.577c1.789,1.022,3.373,2.3,5.061,3.526c0.051,0.256,0.357,0.205,0.51,0.409     c1.329,1.073,2.658,2.096,3.987,3.22c0,0.051,0,0.153,0.051,0.153c0.204,0.051,0.562,0.307,0.767,0.511     c-0.204,0.613,0.511,0.817,0.562,1.38c0.46,0.562,0.767,1.278,1.277,1.891c0,0.307,0,0.614,0,0.869     c-0.408,0.307-0.613,0.716-0.867,1.176c-0.154-0.256-0.462-0.511-0.41-0.818c-0.562-0.562-0.971-1.277-1.481-1.891     c0.153-0.102,0-0.256-0.052-0.357c-2.453-2.146-5.365-3.782-7.973-5.673c-1.379-0.665-2.605-1.585-4.088-2.096     c-0.205-0.051-0.562-0.102-0.818-0.051c0,0.46-0.613,0.307-0.92,0.357c-0.92,0.46-1.738,0.717-2.709,0.972     c-0.562,0.307-1.125,0.664-1.789,0.817c-0.152,0.204-0.408,0.307-0.613,0.357c-2.862,1.687-5.775,3.066-8.534,4.906l-0.103-0.052     c0.409-0.408,0.613-0.868,1.176-1.073l2.504-2.095c0.152,0.102,0.255-0.103,0.357-0.103v-0.153     c1.789-1.38,3.68-2.657,5.622-3.781c1.022-0.716,2.095-1.228,3.22-1.841c0.256,0.103,0.102-0.204,0.307-0.255     c0.92-0.46,1.84-1.073,2.811-1.533C99.857,73.504,100.471,74.117,101.186,74.577z" />
			<rect x="102.463" y="73.606" width="0.053" height="0.052" />
			<path fill="#FFFFFF" d="M105.938,74.782c0.409,0.102,0.87,0.205,1.176,0.562c0.767,0.408,1.227,1.021,1.841,1.635     c1.737,1.687,3.475,3.782,4.906,5.622c0.459,1.636,1.328,3.118,1.943,4.702c-0.359,0.255-0.615,0.255-0.82-0.153     c-0.254-0.154-0.102-0.562-0.406-0.664c0.05-0.257-0.768-0.461-0.258-0.768c-0.203-1.176-1.327-2.044-1.686-3.169     c-0.205-0.103-0.408-0.409-0.613-0.613c-0.153-0.307-0.41-0.613-0.664-0.817c-0.256-0.103-0.46-0.409-0.613-0.613     c-0.972-0.664-1.688-1.636-2.607-2.301c0.051-0.306-0.256,0-0.307-0.204c-0.408-0.307-0.716-0.613-1.073-0.817     c-0.408-0.357-0.919-0.613-1.278-1.022c-0.357-0.051-0.459-0.51-0.816-0.562c-0.053-0.409-0.41-0.102-0.615-0.409     c0.053,0,0.154,0,0.205,0c-0.051-0.051-0.256-0.102-0.357-0.203v0.102c-0.205-0.307-0.613-0.307-0.869-0.562     c0-0.255-0.256,0-0.307-0.255c0.408-0.307,0.971,0.051,1.432-0.204C104.764,74.22,105.785,73.965,105.938,74.782z" />
			<path d="M96.943,76.009h0.052H96.943z" />
			<rect x="82.839" y="84.339" fill="#FFFFFF" width="0" height="0.051" />
			<path fill="#FFFFFF" d="M114.679,88.53c0.255,0.051,0.052,0.408,0.357,0.408c0.767,0.716-0.511,0.972-0.767,1.381     c-0.205-0.103-0.409-0.256-0.511-0.461c0.051-0.357-0.46-0.459-0.358-0.868l-0.357-0.307c0.102-0.103,0.153-0.204,0.102-0.308     c-0.102-0.102-0.255-0.203-0.408-0.152l-0.153-0.46c0,0.152,0.153,0.152,0.255,0.152c0.205-0.357,0.512-0.766,0.869-1.021     C113.963,87.354,114.423,87.968,114.679,88.53z" />
			<path fill="#FFFFFF" d="M113.809,91.801c-0.459,0.511-1.123,0.869-1.738,1.175c-0.662-0.255-0.561-1.022-1.021-1.431     c0-0.664-0.256-1.482,0.41-1.993c0.306-0.103,0.511-0.511,0.816-0.46L113.809,91.801z" />
			<path d="M93.109,96.042c0.053,1.789-0.663,3.322-1.378,4.855l-0.409,0.972c0,0.613-0.051,1.277,0.102,1.891l0.154-0.205     c-0.103-0.103,0.102-0.153,0.102-0.204c-0.102-0.357,0.256-0.512,0.307-0.818c0.102-0.511,0.154-0.971,0.409-1.431     c0.46-1.176,0.665-2.556,1.431-3.628c-0.103-0.716,0.664-1.329,0.051-1.994c0.103-0.306,0.461-0.051,0.613,0.052     c0.307,0.562-0.152,1.176-0.255,1.737c-0.664,1.688-1.328,3.477-1.993,5.162c-0.307,0.767-0.46,1.533-0.818,2.3     c0,0.818,0,1.636,0.154,2.453c-0.103,0.972,0.154,2.146-0.103,3.066c-0.052,0.102,0.051,0.256,0.153,0.204     c0.154,0.46-0.205,0.92,0,1.38c0,0.307,0,0.767,0,1.022c-0.051,0.461-0.051,1.073,0,1.38c-0.103,0.716-0.051,1.789,0,2.504     c-0.256,0.409-0.051,1.073-0.307,1.432c-0.051,1.38-0.256,2.812-1.277,3.781c-0.256,0.614-0.818,1.176-1.176,1.738     c-1.073,1.072-2.044,2.861-3.832,2.555c-0.358,0-0.615-0.358-0.87-0.614c0-0.306-0.255-0.459-0.308-0.765     c-0.203-0.053-0.562-0.104-0.664-0.41c0.053-0.103-0.152-0.255,0.053-0.357c0.51,0.306,1.123,0.408,1.635,0.103     c2.044-0.409,3.73-1.994,5.11-3.476l0.204-0.103c0.154,0.408-0.408,0.511-0.408,0.768c-0.664,0.716-1.328,1.481-2.146,1.941     c-0.204,0.409-0.562,0.562-0.92,0.716c-0.664,0.511-1.533,0.766-2.301,0.818c-0.051,0.459,0.461,0.612,0.768,0.868     c0.459,0,0.818-0.052,1.176-0.307l0.051,0.051c1.38-0.971,2.301-2.3,3.322-3.526c0.408-0.767,1.278-1.584,1.124-2.606     c0.103-1.072,0.308-2.044,0.308-3.065c0.051-0.971,0.102-1.993,0.102-2.964l0.102-0.104c-0.203-0.051-0.051-0.307-0.051-0.408     c0.051-0.204-0.051-0.409-0.051-0.665c-0.154-0.307,0.152-0.612,0-0.97c0.307-0.205-0.307-0.562,0.051-0.767     c-0.256-0.869-0.051-2.045-0.205-3.016c0-1.432-0.306-2.914-0.357-4.396c-0.408,0.409-0.408,0.869-0.817,1.277h-0.204     c-0.204-0.408,0.357-0.562,0.306-0.919c0.357-0.512,0.716-1.176,0.665-1.84c0.051-0.103,0.051-0.255,0.152-0.308     c0.41,0.205,0.359-0.307,0.562-0.408c0-0.613,0.562-1.073,0.613-1.686c0.205-0.103,0.154-0.308,0.205-0.461l0,0     c0.154-0.715,0.408-1.278,0.408-2.044c0.103-0.512-0.51-0.818-0.357-1.227C92.702,95.174,92.957,95.736,93.109,96.042z" />
			<rect x="102.412" y="97.78" width="0.051" height="0.051" />
			<rect x="89.534" y="133.964" width="0.05" height="0.052" />
			<polygon points="89.482,134.065 89.535,134.065 89.535,134.065    " />
		</g>
	</g>
</g>
<g>
	<rect x="4.31" y="55.318" fill="#FFFFFF" width="59.5" height="113.386" />
	<g id="Lager_1_6_">
		<g>
			<path d="M9.725,144.668c-0.623,0-1.091-0.213-1.247-0.758c0.546-0.623,1.481-0.935,2.182-1.637     c0.936-1.324,8.621-9.294,8.153-11.398c-0.077-8.959-1.714-17.763-4.207-26.333l0.623-0.856l0.545-4.129     c-0.155-0.078-0.155-0.312-0.155-0.545c1.792-1.48,3.662-2.884,5.609-3.974c3.506-8.415,3.351-18.075,4.129-27.425v-3.583     c1.637-0.935,3.896-0.546,5.532,0.389c2.493,2.649,1.479,5.999,1.558,9.193c3.116,3.271,0.624,7.869,1.948,11.764     c0.545-1.869,1.401-4.206,3.583-5.142c1.947,0.078,5.298-0.468,6.155,1.948l0.39,1.402c4.207-1.325,8.803-2.337,12.777-4.597     c1.323,0.233,2.804,0.312,3.583,1.402c0.625,1.636,0.472,2.487-0.151,3.968c-0.278,2.062-1.94,2.998-2.562,4.011     c-1.671,1.281-3.675,2.618-6.246,2.618c-1.792,1.791-3.973,2.96-6.076,4.362c0.468,4.051-1.091,7.558,1.247,10.984     c0,1.87,0.311,4.285,1.558,5.766c1.013,2.414,0.779,5.53,0.311,8.024c0.234,0.467,0.156,0.701,0.156,1.168     c-0.935,0.156-0.545,1.168-1.09,1.637c-2.338,4.985-4.762,9.892-8.734,13.788c-0.136-0.027-0.289-0.036-0.44-0.059" />
			<path fill="#FFFFFF" d="M30.19,152.737c-0.281-0.042,8.114-16.208,8.014-16.564c2.883-3.428,5.307-7.399,7.254-11.373     c-1.247-1.246-2.961,1.013-4.207-0.779c-1.948-1.012-0.623-5.609-3.818-3.895c0.156,0.856,0.391,1.869,1.091,2.259     c1.637,2.57,3.351,5.298,2.884,8.414c-0.078,0.156-0.312,0.156-0.468,0c-0.857-2.96-1.792-5.688-3.817-8.181     c-2.182,0.156,0.233-3.35-2.182-3.428c-0.156-0.155-0.156-0.545-0.078-0.779c1.637,0.312,3.428,0.624,4.908-0.312     c0.623-0.232,1.091,0.391,1.402,0.779c-0.856,1.092,0,2.415,0.312,3.428c0.39,0.857,1.325,1.402,2.26,1.013     c0.467-0.778,0.234-1.714,0.546-2.727c0.468-1.714,0.935-3.506,1.791-5.142c-1.636-2.104-2.727-4.751-5.375-6.077     c0.156-1.636-2.26-0.623-3.039-0.936c-3.35,0.156-6.934,1.87-9.895,0.233c-0.232-0.311-0.232-0.699-0.389-1.011     c1.246-0.234,2.26,0.778,3.507,0.545c3.739-0.156,8.024-2.26,11.452,0c-0.469,1.012,1.245,1.402,1.636,2.025     c1.324,1.793,2.571,3.506,3.739,5.221c0.233-0.78,0-1.948-0.312-2.805c-1.247-0.39-0.546-2.026-1.403-2.961     c-0.856-2.883-1.947-5.688-4.829-7.323c-2.805-2.26-7.558-1.17-10.985-0.546c-1.48,0.312-3.507,1.402-4.907-0.078     c-0.859,0.078-1.792,0.234-2.339-0.077c-0.467-0.857,0.623-1.092,1.247-1.169c1.092,0.234,1.87,0,2.649,0.779     c3.037-0.701,5.921-1.169,8.959-1.402c1.558-1.092,3.272-2.104,4.753-3.271c0.233-0.391-0.857-1.169,0-1.403     c1.091,0.233,1.869,0.077,2.649-0.546c0.233,0.391,0.545,0,0.856,0c0.546-0.39,0.856-1.636,1.636-1.013     c2.726-1.558,4.986-3.739,7.479-5.453c0.39-0.234,0.936,0.078,0.936,0.39v0.078c2.337-0.779,5.142-2.571,5.298-5.454     c-1.092,0.468-2.415,1.013-3.428,1.869c-0.936-0.155-1.559-1.402-1.87-2.415v-0.233c-0.779-0.233-1.48,1.169-2.415,0.233     c-2.493,0.78-4.985,1.792-7.4,2.571c-0.079,0.155,0.078,0.39-0.156,0.546c-2.026-0.234-3.974,1.09-6.076,1.401     c-1.17,0.702-2.884,1.091-3.429,2.415c-0.779,0.234-1.635,0-2.492,0.624c-1.87,1.402-4.753,2.882-6.623,4.362     c-0.311-0.077-0.779-0.077-0.856-0.623v-0.312c2.727-2.181,5.376-3.817,8.337-5.298c0.233-0.935,0.078-2.259-0.156-3.35     c-1.559-0.39,0.078-1.714-0.546-2.727c0.702-2.727,0.857-6.544-1.559-8.492c0-0.234-0.233-0.39-0.155-0.701l0.546-0.312     c-0.078-2.728,1.013-6.545-2.026-7.946c-0.7-0.312-1.87-0.469-2.571,0c0.234,2.57,0.234,5.219-0.311,7.791     c-0.39,4.051,0.467,8.647-0.78,12.621c-0.233,2.805-1.324,5.609-1.947,8.414c0,0.312-0.468,0.468-0.312,0.935     c0.234,0.156,0.624,0,0.78,0.233c-0.079,1.169-1.792,1.013-2.26,2.104c-0.39-0.155-0.624-0.155-1.013,0.078     c-1.247,1.403-3.194,1.559-3.662,3.74l-0.391,5.141c1.948,8.959,4.129,18.075,3.506,27.034     c-1.714,1.715-8.542,10.365-10.412,11.767L30.19,152.737z" />
			<path stroke="#FFFFFF" stroke-width="0.5518" d="M20.838,115.217c1.48,0.545,0.701,2.493,1.48,3.506     c1.091,1.714,2.337,4.051,4.441,4.596c0.233,0.155,2.67,1.589,3.137,1.433c-0.155,0.546-3.604-0.575-3.994-0.652     c-2.883-1.559-5.843-5.064-5.531-8.648L20.838,115.217z" />
			<path d="M29.097,124.643c0.078-0.156,0.233-0.077,0.39-0.077c0.155,0.545-0.468,0.622-0.779,0.935     c-0.936,0-0.078-1.013-0.936-1.247C28.162,124.799,28.863,123.943,29.097,124.643z" />
			<path fill="#FFFFFF" d="M38.057,82.028c1.245,0.545,2.726-1.169,4.05-0.078c0.78,0.39,0.78,1.324,0.702,2.182     c-2.337,1.246-4.285,1.013-6.545,2.493c-0.468-0.856,0.234-2.104,0.468-3.039C37.433,83.197,37.278,82.339,38.057,82.028z" />
			<path fill="#FFFFFF" d="M44.21,96.286l0.079,6.934c-1.637-1.324-3.117-2.961-5.609-3.272     C40.627,99.168,41.952,96.831,44.21,96.286z" />
			<path fill="#FFFFFF" d="M46.548,121.917c-0.078,0.701-0.546,1.247-0.857,1.87c-0.233-0.546,0-1.169,0-1.87H46.548z" />
			<path fill="#FFFFFF" d="M46.783,117.71l1.012-1.871c-0.546,1.637,1.168,4.52-1.168,4.675h-0.546     C46.237,119.424,46.47,118.8,46.783,117.71z" />
			<path fill="#FFFFFF" d="M57.767,80.392c0.701,0.155,1.714,0.077,1.869,1.09c-0.467,1.637-2.492,2.026-3.895,2.806     c-0.546-0.546-1.246-1.637-0.935-2.493L57.767,80.392z" />
			<line fill="none" stroke="#000000" stroke-width="1.1686" x1="38.32" y1="136.792" x2="27.492" y2="158.171" />
			<path fill="none" stroke="#000000" stroke-width="1.1686" d="M16.845,135.97c0,0,4.676,6.427,17.141,7.985" />
			<path fill="none" stroke="#000000" stroke-width="0.5843" d="M26.526,64.81c0,0,0.917,0.039,1.403,0.978     c0.486,0.938-0.52,4.415-0.52,4.415h-1.604" />
		</g>
	</g>
	<g id="Lager_2_5_">
		
			<linearGradient id="SVGID_8_" gradientUnits="userSpaceOnUse" x1="14.4531" y1="533.1992" x2="21.578" y2="544.199" gradientTransform="matrix(1 0 0 -1 0.1401 689.8262)">
			<stop offset="0" style="stop-color:#FFFFFF" />
			<stop offset="1" style="stop-color:#EDEDED" />
		</linearGradient>
		<path fill="url(#SVGID_8_)" d="M23.491,164.818l6.375-12.875l3.75-7.375c0,0-8.5-1.875-9.75-2.625s-7.125-5-7.125-5l-2.75,2.875    l-10,11.25L23.491,164.818z" />
	</g>
</g>
</svg>
