<?xml version="1.0" encoding="UTF-8"?>
<!DOCTYPE svg PUBLIC "-//W3C//DTD SVG 1.1//EN" "http://www.w3.org/Graphics/SVG/1.1/DTD/svg11.dtd">
<!-- Generator: Adobe Illustrator 14.0.0, SVG Export Plug-In . SVG Version: 6.00 Build 43363)  -->
<svg xmlns="http://www.w3.org/2000/svg" xmlns:xlink="http://www.w3.org/1999/xlink" version="1.1" x="0px" y="0px" width="255.118px" height="226.771px" viewBox="0 0 255.118 226.771" enable-background="new 0 0 255.118 226.771" xml:space="preserve"><rect fill="#FFFFFF" x="0px" y="0px" width="255.118px" height="226.771px" />
<g id="Färg">
	<linearGradient id="SVGID_1_" gradientUnits="userSpaceOnUse" x1="26.7231" y1="212.8008" x2="37.8719" y2="189.5466">
		<stop offset="0" style="stop-color:#FFFFFF" />
		<stop offset="1" style="stop-color:#EDEDED" />
	</linearGradient>
	<path fill="url(#SVGID_1_)" d="M57.667,218.002l5-29.919l1-4.773c0,0-13.333-0.637-18-2.546C41,178.854,35,174.079,33,171.852   s-6.333-10.185-6.333-10.185l-4.333,4.774L9.667,183.31L3,192.54C3,192.54,15.667,219.275,57.667,218.002z" />
	<linearGradient id="SVGID_2_" gradientUnits="userSpaceOnUse" x1="230.667" y1="211.667" x2="219.6668" y2="189.6665">
		<stop offset="0" style="stop-color:#FFFFFF" />
		<stop offset="1" style="stop-color:#EDEDED" />
	</linearGradient>
	<path fill="url(#SVGID_2_)" d="M204.334,217L198,195.333l-5-18c0,0,13.333,4.667,20,0.667s13.334-7.666,14.667-9.333   s5.667-7.334,5.667-7.334L237,170l14.334,25C251.334,195,236.001,218.667,204.334,217z" />
</g>
<g id="Lager_1">
	<g>
		<path d="M247.808,186.629c-0.766-0.658-0.438-1.424-1.313-1.972c-0.22-1.313-1.425-1.752-1.533-3.066    c-1.862-3.286-4.054-6.899-5.915-10.404c-1.643-3.287-3.395-6.243-4.271-9.967c-0.986-0.111-0.657-1.534-1.533-1.754    c-0.876,1.096-2.41,1.643-3.614,2.081c-0.439-1.094-1.424-2.081-1.315-3.395h-0.218c-0.22-0.11-0.109-0.329-0.109-0.438h-0.22    c-0.767-2.191-1.644-4.162-2.3-6.243c-1.862-1.097-0.767-3.396-1.533-5.038c-0.438-5.477-1.096-11.063-1.753-16.429    c-0.109-2.19-0.548-4.381-0.438-6.792c-0.658-4.708-0.986-9.2-1.315-13.91c-0.219-1.751-0.327-4.052-0.656-6.132    c-0.438-0.987-0.109-2.41-0.438-3.176c-0.657-4.821-1.752-9.419-3.614-13.691c-0.219-0.767-0.438-1.643-0.767-2.409    c-0.657-0.548,0-0.876,0.329-1.205c-0.439-6.571-1.753-12.267-2.41-18.73c-1.204-8.761-3.066-16.976-5.476-25.299    c-0.658-0.876-0.438-2.629-1.863-2.848l0.549-1.314c0.656-0.767,0.109-2.19,0.985-2.957l-0.438-0.109    c0.438-1.753,0.438-3.944,0.328-5.695c-0.548-1.314-0.985-2.519-1.862-3.614c-1.314-1.644-3.396-1.315-4.93-1.644    c-0.437,0.656-1.532,0.438-1.97,0.766c0.767-2.081-0.221-3.503,0.108-5.585c-0.438-1.534-0.876-3.833-2.848-4.052l-1.094,0.11    c-2.081-0.767-3.615-0.11-5.588,0.437c-0.547,0.44-0.984,1.096-1.752,1.315c0.439,0.767-0.547,0.986-0.766,1.534    c-0.549,1.533-1.533,3.176-1.204,4.928c-0.986,3.942-0.221,7.557,0.108,11.5c0.329,0.985,0.329,2.299,0.329,3.286    c0.438,0.656,0.547,1.643,0.767,2.408c0,6.462,0.109,13.254,2.847,19.167c0,1.862-0.547,3.725-0.547,5.477    c-0.329,5.806,0.218,11.938,3.176,16.54c-1.424,0.875-3.614,0.218-4.928-0.329l0.438,0.657c1.424,0.767,3.396,0.876,4.818,0.219    c0.768,1.862,2.739,2.52,4.054,3.833c0.547,0,0.876,0.767,1.095,1.205c-0.329,1.095,0.657,1.533,0.328,2.738h-0.109v0.218h0.109    c0.22,0.11,0.22,0.329,0.329,0.549c-0.329,1.971,0.767,3.505,0.767,5.367c0.768,0.657-0.109,1.861,0.768,2.3    c-0.221,1.424,0.876,2.409,1.095,3.613c0.109,0.22,0.109,1.096,0.657,0.658c-0.22-1.425-0.109-2.738-0.768-3.943    c-0.327-0.547,0-1.314-0.656-1.643c-0.22-3.505-1.754-6.9-1.096-10.515c-0.767-0.875,0-2.081,0.109-2.956    c-1.644-0.657-0.876,1.862-1.752,2.299l-0.658-0.548c0.22-0.328,0.329,0.111,0.658-0.109c-0.11-1.095-1.423-1.424-2.301-2.081    c0.22-1.643-1.643-2.519-2.19-3.942c-0.218-1.204-0.767-1.862-0.876-3.176c-0.876-3.725-0.985-7.667-0.768-11.501    c0.768-0.877-0.328-2.191,0.439-2.848c-0.219-0.986,0.219-2.19,0-3.285c-1.205-0.986-1.972-3.067-1.972-4.819    c-0.549-1.971-0.876-3.834-0.876-5.915c0.438-0.328-0.22-0.658-0.11-0.986c0.657-0.876-0.219-1.752,0.11-2.52    c-0.11-0.657,0.656-0.547,0.985-0.547c0-0.767-0.547-1.424-0.876-2.082c0.329-0.985,0.109-2.19,0.876-3.066    c0-0.548-0.219-0.876-0.658-1.315c-0.438-0.547-0.984,0.22-1.312,0c-0.549-2.08-0.549-4.161-0.768-6.241    c0.11-4.71-0.219-9.311,2.958-12.925c1.203-0.549,2.3-1.313,3.942-0.986c0.547,0.548,1.095,0.22,1.752,0.11    c0.657,0.547,0.548,1.094,0.657,1.861c-0.109,0.22-0.109,0.329,0.11,0.548c0.328,1.752-0.22,3.833,0.876,5.804    c-0.11,0.111-0.658,0.22-0.548,0.658c-1.425,1.204-2.191,3.067-3.066,4.709c-1.315,5.148,0.548,10.954,1.642,16.101    c-0.876,2.956-0.438,5.804-0.438,9.09c0.987,4.818,0.438,10.186,3.395,14.676c-1.752,5.695,1.205,11.5,2.739,16.867l-0.329,0.877    c0,3.505,0.768,7.557,1.644,11.171c0.767,0.987,0.876,2.3,0.328,3.394l0.219,0.22c-0.108,2.409,0.22,4.929,0.658,6.901    c0.109,0.876,0.657,1.86,0.218,2.627c0,0.439,0.22,1.096,0.768,1.315c0.329,1.095,1.862,0.328,2.738,0.876    c0.109-0.767,1.532-0.657,0.767-1.424c-0.439-0.109-0.439-0.986-0.986-0.656c-1.972,0.437-1.205-1.862-1.643-2.849    c0.22-0.219-0.219-0.876,0.329-1.204c-0.548-0.219-0.329-1.095-0.329-1.534h0.109c-0.656-1.971-0.438-3.724-0.109-5.695    c-0.109-0.984,0.767-2.08,0.22-3.066c-0.438-0.109-0.986-0.329-1.315-0.109c-0.766-2.191-0.876-4.381-1.204-6.682    c-0.328-1.642,0-3.614,0.656-5.256c0.329-1.204-0.876-0.987-1.533-1.096c-0.656-2.847-1.533-5.585-1.86-8.323    c-0.549-0.767,0-1.862-0.329-2.738c0.219-1.095,0.219-2.409,0.985-3.176c0.329-0.876,1.753-1.314,2.629-1.971    c0.985-0.439,2.3-0.22,2.848,0.875c0.328,1.863,0.767,4.163,0.547,6.024c0.329,1.095,0.438,2.738,0.658,3.942l-0.22,0.111    c0.658,1.094,0.108,2.19,1.205,2.847c0.329-0.22,0.547-0.657,0.767-0.986c-0.109-2.737,0-5.366-0.438-8.104    c-0.329-2.081-0.11-4.49-1.973-5.805c-0.219-1.862-2.409-0.767-3.504-1.314v0.219c-1.315,0.219-2.081,1.204-3.396,1.095    c-0.108,0.657-0.875,0.876-1.204,1.204c-0.548-0.766-0.548-1.642-0.548-2.519c-0.766-0.438,0.438-0.987-0.328-1.424    c-0.548-3.395-0.877-6.243-1.096-9.528l0.329-0.548l-0.329-0.219l-0.109-2.738c1.096-3.505-0.329-6.899-0.657-10.295    c0-0.766-0.109-1.094-0.438-1.861c0.658-0.767-0.547-1.424,0-2.191h-0.109c-0.329-3.176-0.547-6.791,1.973-9.201    c0.876-0.766,1.752-2.08,3.065-2.08c0.768-0.439,1.533-0.439,2.41-0.439c0.438,0.11,0.985,0.548,0.985,1.095    c1.096,0.658,0.658,2.191,0.985,2.958c-0.218,0.876,0.11,1.643,0,2.519c0,0.657-0.218,1.533-0.109,2.081l-0.547,4.163    c0,0.656,0.876,0.437,1.205,0.547c-0.11,0.109-0.11,0.437-0.22,0.548c2.957,9.529,5.258,19.934,6.572,29.682    c0.108,0.438,0.108,0.767,0,1.205c0.547,4.598,1.643,8.979,2.081,13.58c-0.768-1.204-1.534-3.066-3.286-3.175    c-1.424,1.533,1.313,2.409,1.205,4.051c0.876,1.315,1.533,2.191,1.861,3.725c1.753,4.272,3.177,8.871,3.833,13.472    c0.22,3.396,1.096,6.244,0.877,9.529c1.204,11.062,2.189,24.424,3.395,35.487c0.657,1.862,0.22,3.723,0.877,5.476    c0.109,1.096,0.985,2.19,0.656,3.176c1.862,2.52,2.63,5.367,3.834,8.325c0,0,0.438,0.219,0.328,0.438    c0.658,0.547,0.329,1.313-0.22,1.753c0.658,0,1.205-0.11,1.863,0.108c0.109,0.549,0.767,0.986,0.547,1.533    c-6.899,8.652-17.414,13.91-28.476,13.582c-1.643,0-3.615-0.329-5.148-0.329c-1.314,0-2.409-0.328-2.957-1.752    c-0.438-0.11-1.095-1.096-1.314-0.219c0,1.423,0.548,2.847,0.767,3.833c0.768,1.643,1.205,3.066,1.861,4.709    c0.549,1.095,0.438,2.52,1.205,3.505c2.053,6.684,3.781,13.489,5.361,20.341c1.064,0.963,2.019,2.148,2.926,3.425    c-0.925-3.97-2.011-7.919-2.92-12.046l0.109-0.109c-1.643-4.053-2.409-8.872-3.942-13.145c-0.768-2.518-1.973-4.928-2.628-7.336    c5.038,1.095,10.186,0.875,15.332,0.109c7.996-2.081,15.882-6.463,21.139-13.582c1.972,0.11,0.438-2.3,1.972-2.957    c4.601,9.857,10.296,19.276,15.444,28.806c0.158,0.16,0.374,0.495,0.481,0.834c0.295-0.92,0.564-1.848,0.792-2.789    C248.888,188.854,248.341,187.764,247.808,186.629z" />
		<path d="M184.174,19.273c-0.22,0.767-0.438,1.754-1.314,1.862c-0.328-0.108-0.439-0.438-0.767-0.547    c-2.63,1.534-3.285,4.709-3.614,7.557l-0.221,4.49c0.44,0.548-0.107,1.315,0.111,2.082c0,0.765,0.438,1.643,0.109,2.19    c0.108,0.437,0.108,0.985,0.108,1.424c0.768-0.111,1.425-0.329,1.973,0.547c0.876,0.547-0.438,0.986,0.108,1.533    c-0.767,0.658-0.547,1.972-0.984,2.738c0.438,0.877-0.221,1.752,0,2.629c0,1.643-0.11,3.285,0.438,4.928    c0.547,1.204-0.438,4.161,1.862,4.052c0.219,0.109,0.657,0.438,0.766,0.986c-0.108,0.547-0.547,1.424-0.438,1.972l-0.328,1.095    c-0.219,1.752-0.11,4.162-0.11,5.694c0.768,2.958,0.22,6.9,1.753,9.42c0.109,1.971,1.313,4.052,2.3,6.132    c0,1.315,1.314,2.848,0.219,4.163c0.22,4.6,1.096,9.42-0.219,13.582c0.219,0.108,0.329,0.219,0.657,0.219    c-0.328,0.656-0.219,0.876-0.109,1.752l-0.219,0.11c0,4.709,0.548,8.981,0.548,13.471c0.108,0.767-0.768,0.549-1.314,0.549    l-0.438-0.876c0-4.272-0.329-9.09-0.768-13.034c0.656-0.549-0.329-2.41,1.095-2.847c-0.327-5.806-0.656-10.735-1.424-16.43    c-0.548-1.314-1.095-2.629-1.861-3.725c-0.549,0.11-1.425-0.218-1.862-0.765c-1.205,0-2.41,0.327-3.396,0.765    c-0.219,0.329-0.109,0.549-0.547,0.549l-0.22,0.108c-1.314,3.068-1.752,6.902-1.424,10.077c-0.438,1.095,0.109,2.41,0.109,3.614    c-0.109,3.067,0.876,5.366,1.096,8.434c1.096,1.314,1.096,2.958,1.533,4.381l0.875,3.505l0.44,0.328    c-0.44,0.438-0.329,1.095-0.111,1.534c0.221,1.751,0.111,3.614,0.111,5.147c-0.111,1.532-0.768,3.286-0.548,4.928    c-0.877,1.644-0.11,3.725-0.768,5.367c0,1.752,0,2.957,0,4.6c-0.438,2.52,0.22,5.258,0.438,7.777    c0.22,1.753,0.878,3.614,1.534,5.257c0.438,2.41,1.424,4.162,2.629,6.462c1.752,3.615,4.709,6.9,7.118,10.188    c0.329,0.765,0.877,1.532,1.424,2.298c0.328-0.547,0.768-1.094,1.315-1.314c0.109,0.876,1.314-0.108,1.314,0.987    c0.547,2.08,0.767,3.395,1.313,5.365c0.438,3.726,2.628,7.34,2.52,11.062c-0.876,0.329-1.644-0.767-2.301,0.109    c-0.109-0.438,0.439-0.438,0.657-0.768c-2.081-4.598-2.738-9.527-4.38-14.237c-0.329,0.111-0.439,0.767-0.877,0.329    c-2.848-1.973-4.6-5.258-6.9-7.887c0.11-0.218-0.218-0.657-0.438-0.766c0,0-0.329-0.328-0.329-0.548    c-5.585-7.667-7.885-16.757-7.446-26.177c-0.22-0.219,0-0.766,0.109-1.096c-0.329-1.313,0.219-2.738-0.109-4.052    c0.548-1.205,0.328-2.738,0.767-4.052c0.766-3.286,0.328-6.463,0.438-9.858l-0.328-0.22l0.219-0.438    c-0.767-2.847-1.204-5.805-2.19-8.652c0.329-0.438,0.219-0.985-0.109-1.533c-1.313-6.243-1.862-13.91-0.219-20.044    c1.095-1.094,0.547-3.833,2.956-3.065c1.097-0.878,2.41-0.548,3.615-0.658c0.547,0.11,0.876,0.438,1.314,0.219    c-1.424-4.6-1.752-9.638-2.081-14.128c0.657-0.766-0.438-1.972,0.329-2.739c-0.329-0.985-0.768-1.971-1.314-2.738    c-0.219-1.642-0.329-3.285-0.877-4.709l0.219-0.328c-0.328-2.629-0.438-5.257,0-7.996c-0.656-1.314-0.876-2.848-1.095-4.381    c-0.328-5.477-1.424-12.596,2.3-17.305c0.985-0.985,2.41-1.205,3.725-1.314C183.298,18.507,184.064,18.726,184.174,19.273z" />
		<rect x="186.583" y="77.542" width="0.109" height="0.218" />
		<polygon points="198.96,95.613 198.96,95.394 198.96,95.394   " />
		<path d="M191.841,97.147c0.218,1.094,0.547,2.518,0.328,3.503c1.205,2.629,1.205,5.695,1.971,8.434l0.876,4.271    c-1.532-1.642-0.876-4.599-1.86-6.353c-0.876-3.504-1.534-7.118-2.081-10.623C191.621,96.27,191.73,96.817,191.841,97.147z" />
		<path d="M195.454,116.203c-0.547-0.437-0.109-1.095-0.656-1.532l0.109-1.096C195.345,114.343,195.454,115.219,195.454,116.203z" />
		<path d="M195.893,118.833c-0.219-0.876-0.548-1.534-0.438-2.41C195.674,117.189,195.893,118.065,195.893,118.833z" />
		<path d="M196.44,117.957l0.219,0.548L196.44,117.957z" />
		<path d="M196.002,119.381l0.11,0.328L196.002,119.381z" />
		<path d="M196.33,120.476l-0.109,0.109l-0.108-0.438C196.33,120.147,196.221,120.366,196.33,120.476z" />
		<rect x="196.112" y="120.804" width="0.108" height="0.111" />
		<path d="M196.44,121.898c-0.11-0.108-0.22-0.108-0.328-0.22l0.108-0.437C196.55,121.242,196.44,121.679,196.44,121.898z" />
		<path d="M198.521,122.557v0.109h-0.328v-0.22C198.302,122.446,198.412,122.446,198.521,122.557z" />
		<polygon points="196.77,123.104 196.33,122.666 196.659,122.775   " />
		<rect x="198.521" y="122.995" width="0.109" height="0.108" />
		<path d="M196.988,123.542l-0.11,0.111v-0.221C196.988,123.323,196.878,123.542,196.988,123.542z" />
		<polygon points="197.973,124.747 198.083,123.98 198.193,124.637   " />
		<polygon points="198.083,125.733 198.193,125.513 198.302,125.513   " />
		<path d="M197.755,126.171v0.438V126.171z" />
		<path d="M198.193,127.375h-0.329c0.108-0.108,0.108-0.219,0.329-0.219V127.375z" />
		<path d="M198.083,127.814c0.219,1.313-0.11,2.957,0.219,4.162c-0.329,1.751,0.658,3.394,0.329,5.037    c0.547,1.315,0.109,2.409,0.329,3.725c0.438,2.3,1.096,4.6,1.643,7.01c1.644,3.724,3.176,8.104,7.119,10.294    c-0.11,0.22-0.219,0.657-0.657,0.657c-1.095,0.329-1.862-1.204-2.738-1.752c-2.52-3.286-3.833-7.009-4.928-10.842    c0.218-0.768-0.438-1.534-0.221-2.082c-0.876-0.876-0.218-2.189-0.876-3.177c0.438-0.328,0.11-1.095-0.108-1.424    c0.438-1.204-0.658-1.861-0.329-2.848c0.329,0,0.329-0.219,0.548-0.327c-0.548-0.768-0.657-1.315-0.657-2.19    c0.218-1.097-0.22-2.301-0.329-3.396c0.22,0,0.329-0.108,0.329-0.219c-0.658,0,0-0.767-0.22-1.204    C198.521,128.798,197.097,128.143,198.083,127.814z" />
		<path d="M199.507,139.643c0.22,0.219,0,0.438,0.109,0.657c-0.328,0-0.438-0.438-0.438-0.657    C199.288,139.643,199.398,139.752,199.507,139.643z" />
		<path d="M200.274,142.6h-0.219c0-0.438-0.11-0.548,0.107-0.876C200.274,142.052,200.383,142.271,200.274,142.6z" />
		<polygon points="200.383,143.915 200.163,143.257 200.383,143.695   " />
		<path d="M201.15,145.557c-0.438-0.657-0.329-1.205-0.438-1.972C201.041,144.132,201.368,145.01,201.15,145.557z" />
		<path d="M201.697,146.434c-0.218,0.108-0.438-0.328-0.218-0.438C201.588,145.995,201.697,146.214,201.697,146.434z" />
		<path d="M203.231,148.843c0.328,1.204,1.314,2.408,1.752,3.505c1.314,1.753,3.177,3.505,4.709,5.038    c0,0.329-0.328,0.656-0.656,0.329c-2.52-1.204-3.834-3.942-5.367-6.134c0.22-0.33-0.109-1.096-0.438-0.985    c-0.767-1.204-1.315-2.409-1.534-3.834C203.012,146.87,202.246,148.514,203.231,148.843z" />
		<path fill="#FFFFFF" d="M231.379,162.313c-0.328,0.329-0.219,0.768-0.548,1.097l-0.656-0.658    C230.393,162.313,230.831,162.204,231.379,162.313z" />
	</g>
	<g>
		<path d="M92.543,79.294l-0.328-0.219c0-3.613-0.767-6.791-2.082-10.186c-1.095-3.285-4.929-2.629-7.557-3.176    c-1.533-0.109-2.519,1.642-3.396,2.629c-0.767,2.518-2.19,4.709-2.738,7.337c0-0.657-0.766-1.424,0-1.861h-0.109    c-0.438,0-0.329-0.439-0.329-0.658c-1.424-1.643,0.438-3.504,0.438-5.257c1.972-4.601,1.862-10.186,1.643-15.553    c0.658-2.19,1.534-4.162,1.863-6.353c0.657-0.876,0.328-1.971,0.875-2.847c0-1.096,0.438-2.41,0.329-3.396    c0.438-2.738-1.205-4.818-1.205-7.229c0.109-0.657,0.547-1.314,0.438-1.971c0.438-0.329,0-1.096,0.767-1.423    c0.548-6.244,0.658-13.144-5.038-16.977c-0.328-0.329-0.657,0.218-0.876-0.219c-0.658,0-1.424,0-1.862,0.547    c-0.547,2.081,2.19,1.204,2.738,2.628c4.491,4.272,2.738,12.706,0.985,17.744h0.11c0.328,1.642,0.986,3.176,1.314,4.928    l-0.11,0.11c0.548,2.19,0,4.6-0.547,6.9c-0.548,2.08-0.438,5.037-2.628,6.352c0.876,1.205-0.658,2.958,0.548,3.943    c0.547,5.147-0.658,9.749-2.191,14.348c0,1.644-1.534,3.943,0,5.258c0.657,1.314,0,3.285,1.314,4.6l-1.205,14.349    c0.438,0.876,1.205,1.533,1.205,2.628c-0.548,0.328-0.109,1.315-0.875,1.642c-1.096,0.767-0.438,2.411-0.658,3.615    c0,0.439,0,1.206,0.658,1.095c0.766-0.547,0.328-1.862,0.438-2.847c0.328-0.767,0.875-1.314,0.985-2.301    c0.876-0.766,0.547-2.518,0.219-3.614c0.438-4.928-0.219-10.295,1.971-14.457c0.22-1.971,0.986-3.942,1.424-5.805    c0.986-2.081,1.534-4.38,3.505-5.915c1.424,0.985,3.614-0.219,4.491,1.314l0.219-0.219c2.519,3.505,2.738,8.213,2.519,12.924    l-0.219,0.218c-0.438,5.039-2.081,9.201-3.285,13.802c0.328,2.189-1.862,2.081-2.082,4.052c-0.328,0.437,0,1.204-0.548,1.642    l0.22,0.438c-0.986,4.82-0.22,9.749-0.329,14.897c-0.548,6.133,0.219,13.143-1.314,19.495    c-2.081,9.966-10.295,16.866-15.005,25.41c-0.766,0.219-1.424,0.767-1.533,1.533c-1.752,5.147-1.752,11.062-2.629,16.429    c0.11,0.657-0.219,1.642,0.438,1.861l-0.548,1.534c-2.848,0.875-6.134,0.656-8.762-0.11c-10.733-1.424-22.453-9.419-26.176-20.592    c1.861-2.08,2.847-4.709,4.491-7.008c0.438-0.438,0.766-1.643,1.313-1.973v-0.437c0.329-1.534,1.534-3.505,1.425-5.368    c2.409-9.528,3.613-19.495,4.271-29.681c0.219-1.534,0-3.285,0.329-5.039c-0.329-0.766,0-1.751-0.11-2.738    c0.547-0.328-0.109-0.437,0-0.766c0.439-0.877-0.109-1.972,0.219-2.738c-0.438-1.094,0.11-1.972-0.219-2.957    c-0.219-0.547,0.767-0.767,0.11-1.095c0.438-0.438-0.219-0.986,0.219-1.314c0.11-0.439-0.329-0.767-0.657-0.987    c-0.658-2.518,1.533-4.051,1.314-6.461c1.314-8.433,3.505-16.976,5.367-25.082c0.548-1.861,0.876-3.613,1.314-5.585    c0.548-0.876,0.219-2.19,1.096-2.848c-0.218-0.656,0.876-1.095,0.547-1.532c1.315-1.206,1.972-2.301,2.082-4.272    c0.548-2.081,0.438-4.819,1.643-6.681c0.656-0.658,1.533,0.109,2.19-0.111c0.329,0,0.767,0.329,1.096,0.549    c1.423-0.438,1.533,1.533,2.409,1.971c2.958,5.039,0.548,11.5-1.205,16.319c-0.329-0.108-0.876-0.219-1.205,0.109    c-0.986,0.767,0.438,1.534,0.219,2.41c0.219,0.548-0.767,1.095,0.109,1.534c0.986,3.942,0.11,8.323-1.095,11.938    c-1.095,0.438-0.657,1.753-0.986,2.738c1.753,5.805,0.876,12.267-0.876,17.743l0.109,0.22c2.41-0.767,2.52-4.162,2.958-6.462    c-0.11-2.081,2.628-1.861,3.395-3.395c1.423-0.22,1.752-1.862,2.629-2.738c0.219-1.862,1.533-3.395,1.643-5.038    c1.424-5.039,1.534-11.5,0.438-16.758c0.767-1.424,1.862-2.847,1.862-4.599c0.547-0.439,0.109-1.206,0.766-1.534    c-0.328-0.986,0.219-2.081,0.11-3.066c0.438-1.753,0.657-3.505,0.657-5.148c0.218-0.219,0.438-0.547,0.11-0.767    c0.108-1.643-0.438-3.285-0.219-4.928c-0.767-0.438-0.219-1.424-0.767-1.971c0.986-2.19,2.19-4.601,2.519-7.01    c-0.109-2.19,0.766-3.943,0.219-6.132c0.438-0.658-0.328-1.424-0.328-2.3c0-1.643-0.548-3.505-1.315-5.148    c-0.875-2.518-3.613-3.724-5.804-4.381c-0.767-0.658-0.985,0.22-1.862-0.109c0.11-1.533,0.11-3.067,0.548-4.381    c0.658,0,0.547-0.877,0.876-1.314c-0.547-0.877-0.219-2.301-0.547-3.177c-0.11-1.642,0.547-3.395,2.081-4.161    c1.314,0,2.519,0,3.504,0.767c1.424,0.328,1.752,1.971,2.52,2.848C72.5,18.946,72.5,26.503,71.514,33.73    c-1.095,1.754-0.109,3.834-0.547,5.695l0.438,0.329c0.109,2.191,0.22,4.6-0.219,6.791c0,3.396-1.205,6.681-1.533,10.185    l0.328,0.439c-0.109,4.49,0.767,8.324,0,12.596c-0.657,2.409-1.205,4.49-2.3,6.571c-0.219,0.219,0.219,0.439,0.329,0.767    c0.985,0.329,1.205-1.095,1.862-1.534c2.19-5.695,2.738-12.156,1.095-18.181l-0.328-0.219c1.971-6.132,3.176-13.034,1.971-19.934    c0.439-1.095,0.329-2.191,0.767-3.505c0.219-0.766-0.109-1.642,0.438-2.19c0.109-2.19,0.22-4.052,0.547-6.353    c-0.218-1.752-0.218-3.066-0.328-4.819c0.109-2.628-1.315-5.257-1.643-7.775c-1.095-1.316-1.424-3.176-2.848-4.162    c0-0.548-0.548-0.548-0.767-0.767c-1.095-1.096-2.409-0.656-3.724-0.985c-2.081-0.548-4.163,0.985-5.477,2.738    c-0.329,1.752-0.438,4.162,0.109,5.915c-0.548,1.971-0.657,4.708-0.876,7.229c-1.205,0.329-1.424,1.533-2.41,2.19    c-0.657,2.628-0.657,5.367-0.657,7.885c-1.424,4.053-2.738,8.325-2.738,12.816c-0.328,0.657-1.095,0.766-1.752,0.875    c-2.081,2.848-1.533,7.338-2.409,10.625c-0.109,0.219-0.547,0.219-0.767,0.11c-2.3,0.657-1.752,3.504-2.738,5.366    c-0.985,3.286-1.314,7.009-2.41,10.077c-1.205,5.914-2.737,11.938-3.724,17.852c-2.628,4.492-1.751,10.625-1.314,15.772    c-0.109,14.129-1.096,28.587-4.709,41.729c-0.767,4.052-3.286,7.557-5.367,11.062l-0.547-0.328    c-0.219,0.107-0.438,0.328-0.438,0.547c0.219,1.533-1.643,0.877-1.971,2.191c-6.067,8.68-12.051,17.062-17.958,25.715    c0.131,0.941,0.256,1.88,0.374,2.816c2.423-3.635,4.808-7.231,7.508-10.79c1.753-1.86,2.629-4.49,4.601-6.133    c0.438-1.644,1.862-2.738,2.629-4.272c1.313-1.971,2.738-4.161,4.381-6.023c1.423,4.272,4.162,7.996,7.338,11.5    c2.081,1.754,3.943,4.272,6.571,5.148c0.767,0.986,2.19,1.314,3.177,2.082c1.752,0.656,3.395,1.204,4.82,2.189    c1.643-0.109,2.737,0.877,4.162,1.096c1.861,0.329,3.833,0.219,5.366,0.984c1.314-0.547,3.066,0,4.6-0.108    c-1.205,7.558-2.3,14.677-3.505,22.233c0.219,0.438-0.657,0.328-0.109,0.767c-0.226,1.3-0.479,2.57-0.704,3.843    c0.661-0.587,1.343-1.133,2.024-1.685c0.032-0.206,0.075-0.416,0.104-0.624c0.767-0.33,0.109-0.986,0.328-1.534    c0.987-4.052,1.424-8.323,2.191-12.596c0.876-2.847,0.767-5.585,1.424-8.434c0.767-1.751,0.438-4.271,1.971-5.585    c0.11-0.768-0.657-1.314-1.314-1.314c0.109-1.424,0.767-3.065,0.657-4.6c0.439-1.752,0.22-3.067,0.877-4.711    c-0.22-1.204,0.438-2.409,0.438-3.613c0-0.438,0.547-0.438,0.219-0.986c0.219-0.328,0.438,0,0.657,0l0.438-0.656    c-0.219-1.315,0.875-2.191,0.985-3.396c-0.11-0.547,0.767-0.218,0.328-0.766c0.548-0.547,0.767-1.095,1.096-1.753    c1.205-1.425,1.643-2.957,2.957-4.162c0.658-0.328,0.329-1.314,1.314-1.204c0-0.22,0-0.329-0.109-0.438    c0.329-0.219,0.329-0.329,0.657-0.329c2.629-3.395,4.929-7.009,6.9-10.732c1.314-2.19,1.095-3.944,2.19-6.134    c0.11-1.096,0-2.629,0.876-3.286l-0.438-0.656c0.438-1.205,0.109-2.629,0.547-3.726c-0.109-2.189,0-4.161-0.109-6.132    c0.657-3.286-0.11-6.791,0.657-10.077c-0.657-1.643,0.109-3.724-0.22-5.367c-0.218-1.971,0.329-4.709,0.329-6.572    c-0.109-2.409,2.19-3.614,2.3-5.914c0.109-0.547,0.767-0.767,0.547-1.423c1.752-4.82,2.847-9.529,3.286-14.567L92.543,79.294z" />
		<path fill="#FFFFFF" d="M64.833,25.627c1.096,1.094,1.534,2.627,1.643,4.161c1.205,2.081,0.985,4.709,0.985,7.338    c0,2.739-0.766,5.367-1.752,7.775c-0.329,0.111-0.986,0.329-1.095,0.877c0,1.314,0.547,2.41,0.438,3.615    c0.547,0.656,0.438,1.751,0.438,2.408c0.767,3.944-0.657,7.667-0.875,11.5c-0.22,0.986-0.329,1.972-0.876,2.738    c-0.329,0-1.095-0.109-1.095,0.547c-0.219,2.301,0.876,4.602,0.876,6.901c0.767,6.243-0.876,13.144-3.505,18.62l-0.109,0.984    c-0.876,0.439-1.862,1.754-2.957,1.643c0-3.175,0.547-6.352-0.438-9.528c0.438-2.08,1.205-4.052,1.752-6.133    c0.438-2.738,0.875-6.023,0.219-8.872c0.548-0.438-0.11-0.657-0.11-1.094c1.972-3.726,3.067-7.667,3.943-11.94    c-0.438-0.656,0.658-1.095,0-1.752c0.658-0.658-0.328-1.205-0.109-1.862c-0.548-1.861-0.657-3.943-2.3-5.257    c0.219-0.438-0.876-0.766-0.767-1.314c-0.109-0.438-0.438,0.109-0.767-0.219c-1.095-0.986-2.19-1.314-3.614-1.205    c0-1.972,0.548-3.723,1.096-5.367c0.547-1.751,0.657-3.833,1.862-5.256c0-1.643,0.438-2.848,0.328-4.6    c0.438-1.424-0.11-3.286,0.328-4.929c1.425-0.328,1.643-1.095,3.067-1.314C62.861,23.873,63.628,24.86,64.833,25.627z" />
		<path d="M58.48,122.557h-0.219c-0.438-2.738-1.096-5.804-1.424-8.543l0.219-0.658C57.823,116.313,58.042,119.381,58.48,122.557z" />
		<path d="M58.7,123.653c-0.329,0-0.329-0.11-0.329-0.329l0.11-0.438C58.809,123.104,58.59,123.433,58.7,123.653z" />
		<polygon points="58.7,124.857 58.7,124.091 58.809,124.857   " />
		<path d="M58.918,127.814l-0.109-2.52C59.028,126.171,59.466,127.267,58.918,127.814z" />
		<path d="M59.795,131.538c-0.329-0.658-0.329-1.862-0.658-2.738l0.11-0.657C59.357,129.128,59.795,130.332,59.795,131.538z" />
		<path d="M59.904,133.511c-0.329-0.329,0-1.205-0.219-1.645C59.904,132.306,60.014,133.07,59.904,133.511z" />
		<path d="M60.124,136.356c-0.438-0.657-0.219-1.752-0.219-2.519L60.124,136.356z" />
		<path d="M60.452,138.877c-0.876-0.547,0.109-1.426-0.329-2.19L60.452,138.877z" />
		<path d="M60.561,140.189c0,0.111-0.109,0.221-0.219,0.111v-0.439C60.671,139.861,60.561,140.081,60.561,140.189z" />
		<path d="M60.561,142.928c0.11-0.766-0.547-1.423-0.109-2.189C60.671,141.615,60.342,142.052,60.561,142.928z" />
		<path d="M60.671,144.79c-0.329-0.328,0.219-1.095,0-1.532C60.781,143.695,60.781,144.462,60.671,144.79z" />
		<rect x="60.671" y="146.214" width="0.11" height="0.11" />
		<path d="M60.89,149.5c-0.766-0.548,0.11-1.096-0.109-1.752L60.89,149.5z" />
		<path d="M61,152.129c-0.986-0.22,0-1.753-0.219-2.3C61,150.485,61.219,151.362,61,152.129z" />
		<path d="M58.042,167.462c-0.548,0.657-1.423,0.877-2.3,0.987c-1.205,0-2.409-0.987-2.957-1.644    c2.628-0.11,3.724-2.848,5.257-4.601c0.876-2.189,2.628-3.724,2.847-6.134c1.205-1.752,1.534-3.833,1.972-6.024    C61.656,155.962,61.656,162.534,58.042,167.462z" />
		<path d="M61.109,154.319c-0.328,0.438,0.11,0.986,0,1.314c-0.548-0.767-0.438-1.753-0.109-2.737    C61.328,153.553,60.781,153.881,61.109,154.319z" />
		<path fill="#FFFFFF" d="M60.561,159.028c0.329,1.314-0.547,2.081-0.657,3.396c-1.314,1.644-1.862,5.257-4.929,4.709    c2.848-2.519,4.162-5.914,5.695-9.2C61.985,157.386,60.561,158.699,60.561,159.028z" />
	</g>
	<g>
		<line fill="none" stroke="#000000" stroke-width="3.2318" x1="88.635" y1="128.157" x2="110.343" y2="128.157" />
		<polygon points="103.989,136.534 107.547,128.157 103.989,119.777 123.847,128.157   " />
	</g>
	<g>
		<line fill="none" stroke="#000000" stroke-width="3.2318" x1="173.129" y1="128.155" x2="140.322" y2="128.155" />
		<polygon points="146.676,119.778 143.116,128.155 146.676,136.535 126.817,128.155   " />
	</g>
</g>
</svg>
