<?xml version="1.0" encoding="UTF-8"?>
<!DOCTYPE svg PUBLIC "-//W3C//DTD SVG 1.1//EN" "http://www.w3.org/Graphics/SVG/1.1/DTD/svg11.dtd">
<!-- Generator: Adobe Illustrator 14.0.0, SVG Export Plug-In . SVG Version: 6.00 Build 43363)  -->
<svg xmlns="http://www.w3.org/2000/svg" xmlns:xlink="http://www.w3.org/1999/xlink" version="1.1" x="0px" y="0px" width="141.732px" height="226.771px" viewBox="0 0 141.732 226.771" enable-background="new 0 0 141.732 226.771" xml:space="preserve"><rect fill="#FFFFFF" x="0px" y="0px" width="141.732px" height="226.771px" />
<g id="Färg">
	<linearGradient id="SVGID_1_" gradientUnits="userSpaceOnUse" x1="39.665" y1="217.832" x2="50.165" y2="196.8321">
		<stop offset="0" style="stop-color:#FFFFFF" />
		<stop offset="1" style="stop-color:#EDEDED" />
	</linearGradient>
	<path fill="url(#SVGID_1_)" d="M73,222.5l7.5-39.5c0,0-17-2.5-24-5s-19.605-14.082-22.803-16.291s-5.326,13.023-6.262,15.657   S21.5,186,18,192s-5.5,9.5-5.5,9.5S37,224,73,222.5z" />
</g>
<g id="Lager_1">
	<g>
		<path d="M100.128,69.444c0.224-0.783,0.783-1.455,1.118-2.125c0.446-1.229,0.896-2.46,1.343-3.69    c0.335-3.355,2.683-5.704,4.249-8.612l0.336-0.111c0.671-1.566,1.677-3.132,2.685-4.698c0.335-1.118,1.341-2.013,1.565-3.243    c1.342-1.454,1.006-3.467,2.46-4.697c0.224-3.019,3.579-4.026,4.025-6.71c2.349-3.802,4.474-8.164,6.71-12.078    c1.118-3.691,2.014-7.158,1.455-10.96c-0.896-0.783-1.566-2.125-2.461-2.572c-0.447-0.335-0.56-1.119-1.23-1.006    c-0.224-0.112-0.56-0.336-0.56-0.671c-0.895,0-1.789-0.224-2.571-0.447c-3.915-0.447-6.486,3.131-8.947,5.704l-0.56,1.119    c-1.006,0.894-1.9,2.237-2.907,3.243c-1.79,2.908-3.69,5.592-5.815,8.388c-1.454,2.908-3.131,5.48-4.697,8.276    c-0.111,0.895-1.23,1.342-1.23,2.125c-5.145,9.059-10.064,17.894-14.65,26.953c-0.336,0.335-0.336,1.006-1.118,0.783    c-1.119,1.23-1.678,2.572-2.907,3.69c-0.561-0.224-1.119-0.335-1.566-0.783c-0.447-3.019-0.782-7.045-1.454-9.394    c-0.111-1.118-0.559-2.125-0.335-3.131c-0.56-1.565-0.895-3.69-1.118-5.256c0.061-0.122,0.095-0.302,0.18-0.412    c-0.358-0.118-0.136-0.863-0.404-1.042c-0.111-2.013-0.783-4.362-0.783-6.598c-0.559-0.895-0.559-1.901-0.559-2.908    c-0.559-0.671-0.224-1.119-0.446-1.902c-0.672-6.71-0.112-13.755,0.223-20.578l-0.223-0.112c0.559-2.46-0.225-4.921-0.225-7.381    l-0.224-0.224c0.336-1.23-1.006-1.79-1.006-2.907l-2.014-2.572c-2.572-1.119-6.039-1.79-8.723-0.224    c-0.336,0.783-1.454,0.783-1.79,1.566c-0.783,1.454-1.342,3.131-1.789,4.697c-0.336,1.006-0.224,2.013-0.447,2.908    c-0.782,8.611-1.343,17.894-1.23,27.064c-0.112,0.112-0.224,0.336-0.335,0.336c0.559,1.006,0,2.348,0.111,3.243    c0,0.671,0.336,1.677-0.223,2.125c0.111,8.164,0.223,14.204-0.336,22.255c0.111,2.573-0.224,5.033-0.447,7.717    c0,3.132-0.336,5.927-0.56,9.059c-0.56,3.467-0.783,6.039-1.23,9.618c0,0.112-0.336,0.671-0.559,0.335    c-1.118,2.013-2.685,3.355-4.026,5.592c-0.895,12.301-1.344,25.834-4.586,37.913c-1.453,7.27-3.578,15.209-6.15,21.92l-1.342-0.56    c-0.783,0.112-0.895,0.896-1.344,1.343c-3.178,11.682-8.863,22.438-14.979,32.881c0.255,1.001,0.533,1.994,0.817,2.984    c0.131-0.175,0.249-0.35,0.406-0.525c2.126-4.139,4.474-7.828,6.821-12.189c0.672-2.126,2.127-3.58,2.91-5.592    c1.229-2.35,1.9-5.033,3.242-7.382l0.223-0.112c0.113-1.9,1.455-3.355,1.566-5.145c0.672-1.006,0.447-2.348,1.23-3.019    c-0.225,0-0.336-0.448,0-0.56c3.243,4.474,6.934,8.835,11.742,11.742c6.04,5.033,13.645,6.934,21.025,8.947    c3.355,0,6.264,0.111,9.729,0c0.895,0.671,2.126-0.783,2.796,0.447c-0.224-0.447,0.336-1.454,0.336-2.125    c0.782-1.9,1.454-3.914,2.907-5.48c1.007-0.782,0.896-2.572,2.237-2.907c0.336-0.782,0.783-2.235,1.678-2.907    c1.901-3.467,4.585-6.934,6.711-10.065c3.801-5.257,7.604-10.624,10.176-16.663c1.342-2.126,2.013-4.474,2.796-6.822    c0.783-1.23,1.231-2.572,2.125-3.803c-0.111-0.783,0.895-0.895,0.56-1.566c0.783-1.9,2.013-3.578,2.348-5.479    c0.895-0.895,0.561-2.124,1.454-3.02c-0.223-0.447,0.112-1.007,0.224-1.343l0.56-0.782c0.224-1.342,0.448-2.46,1.007-3.802    c0.671-2.014,1.006-4.25,2.124-6.039c0.113-1.79,1.007-3.467,1.231-5.48c1.453-0.783,0-2.236,0.895-3.355    c-0.111-0.895,0.224-2.125,0.111-3.132c-0.56-0.447-0.447-1.342-0.782-2.013c-0.112-0.895-1.455-1.119-1.79-2.013    c-2.125-1.342-3.69-3.244-6.486-2.461c-0.224-0.224-0.335-0.335-0.224-0.671c0.559-1.79,0.447-3.243-0.336-4.921    c-0.783-0.783-0.559-2.236-1.901-2.684c0.448-1.118-1.006-0.783-1.118-1.454c-0.56-0.783-1.901-1.23-1.118-2.46    c0.783-1.566-0.446-3.691-1.006-4.92c-1.343-0.671-3.132-1.454-4.81-0.896v-0.447c0.896-0.335,0-0.783,0.447-1.453    C99.904,70.674,99.904,70.003,100.128,69.444z" />
		<path d="M72.504,49.089c-0.203-0.102-0.308-0.057-0.379,0.035C72.214,49.154,72.327,49.155,72.504,49.089z" />
		<path fill="#FFFFFF" d="M62.216,4.355c0.894-0.783,1.565,0.783,2.235,0.559c-1.564,0-3.019,0.56-4.473,0.895    c-0.895,0.783-2.014,1.007-2.796,1.901c-0.447-1.79,1.79-2.013,2.572-3.243c0.783-0.783,1.342,0.224,2.125-0.224L62.216,4.355z" />
		<path fill="#FFFFFF" d="M65.683,6.927c-0.337,1.007,0,2.013,0,3.131c-0.112,1.565-0.224,3.243-1.231,4.473    c-1.901,0.112-4.025-0.111-5.926-0.783c-0.783-1.454-1.566-3.019-1.343-4.921c2.126-2.013,4.697-3.467,7.604-2.796    C65.012,6.368,65.57,6.48,65.683,6.927z" />
		<path fill="#FFFFFF" d="M67.247,17.216c0.225,2.236,0,4.361-0.11,6.71c0.224,2.796,0.335,5.479,0.335,8.388    c-0.111,0.671,0.559,1.678-0.225,2.349c0.336,0.559,0.113,1.79,0.448,2.572c-0.335,0.447-0.335-0.224-0.671-0.112    c-3.578,0.112-6.934,1.119-10.289,0.559c2.013-2.013,5.145-2.46,8.052-2.236c0.672,0.112,1.23,0.895,1.901,0.671    c0.112-0.895-1.006-0.895-1.454-1.342c-2.796-0.559-6.15,0.111-8.611,1.454c-0.446,0.447-1.118,1.007-1.229,1.678    c1.901,1.79,5.145,0.559,7.493,0.335c1.564,0,3.131-0.783,4.696-0.447c0.225,1.23,0.337,2.237,0.672,3.355    c-0.447,0.671,0.446,1.006,0.446,1.565c0.448,2.349,0.56,4.921,1.119,7.158c-0.112,0.447-0.336,0.559-0.112,1.118h0.225    c-0.112,1.006,0.446,1.789,0.446,2.796c-0.111,0.783,0.559,1.789,0.224,2.684c0.896,2.349,1.118,5.145,1.454,7.717    c0.224,1.118-0.111,2.348,0.112,3.467l-0.56,0.559c1.119,0.671,0.56,2.572,2.237,2.46c0.111-0.56,0.895-0.895,1.342-0.448    c-0.112,1.006,1.23,0.783,1.341,1.678c0.56-1.565,3.244-0.223,2.797-2.46c-0.782-1.007,0.447-2.014,1.007-3.02    c3.69-5.368,6.151-11.295,9.506-16.887c1.118-1.006,1.118-2.684,2.237-3.915c6.598-10.848,12.078-22.367,20.689-31.873    c-0.895,2.014-2.907,4.474-1.119,6.487c2.349-0.336,4.026,2.237,5.928,3.355c1.118,0.111,1.901-1.007,2.571-1.79    c1.008-1.677,2.014-3.467,3.244-4.92c0.224,1.789-0.783,4.025-1.453,5.703c-1.008,2.796-2.35,4.809-3.69,7.493    c-0.896,2.461-2.909,5.145-3.804,7.494c-0.671,0.111-1.453,0.335-1.788,1.118c-0.337,0.56-0.337,1.007-0.672,1.566    c-0.225,0.895-0.895,1.677-1.342,2.572l0.111,0.224c-1.901,4.474-4.697,8.723-7.269,13.085c-1.008-0.112-1.119,0.895-1.566,1.565    c-0.336,2.013-2.124,3.915-1.901,5.928l-3.355,8.052c-0.446,0.223-0.111,1.118-0.782,1.341c-0.112,1.119-0.559,2.349-1.23,3.132    c0.225,1.118-0.783,1.901-1.006,3.02c-0.56,0.559-1.118,1.118-1.343,2.013c0.225,0.895,0.447,1.23,1.23,1.678    c1.007,0.223,1.343-0.896,1.79-1.343c0.895-2.125,1.789-4.361,2.683-6.486c1.231,1.229,2.796-0.56,4.14,0.559    c0.334,1.006,0.67,2.237,0.334,3.355c-1.006-0.56-2.124-0.112-3.02-0.783c-0.894,0.894-3.354,0.783-2.907,2.572    c0.224,0.783,1.119,0.895,1.678,0.895c0.783,0,1.453-0.895,2.013-0.336c0.336-0.111,0.672-0.335,1.119-0.223    c0.111,0.559,0.671,0.335,0.894,0.559l0.224-0.112c0,0.447,0.448,0.671,0.896,0.671c1.23,1.342,2.796,3.131,3.131,4.697    c1.119,1.901-0.782,3.803-1.342,5.704c-2.013,3.243-3.354,6.71-5.367,10.065c0,0.671,0.559,1.342,1.118,1.006    c1.23,0,1.9-1.565,2.46-2.46c1.23-2.237,2.125-4.362,3.803-6.487c0-0.67,0.447-1.229,0.894-1.678c0.895,0,0.225-1.229,0.783-1.677    c0.111,0.671,0.56,1.23,1.229,1.677c1.344-0.111,2.015,1.007,3.021,1.455c0.671,1.006,2.35,1.23,2.236,2.795    c0.447,0.56,0.336,1.454,0.447,2.237c-1.23,6.039-3.019,11.63-4.696,17.446c-1.118,2.572-1.343,5.369-2.796,7.605    c-1.566,5.033-4.025,9.729-6.486,14.426l-0.113,0.672c-0.446,0-0.111,0.783-0.446,1.23c-2.236,4.585-4.921,9.506-8.276,13.644    c-0.224,0.671-0.894,1.118-1.118,1.677c-2.907,4.475-6.375,8.612-8.835,13.311c-0.559,0.559-0.559,0.894-1.117,1.341    c-0.225,0.112,0,0.336-0.113,0.447c-0.335-0.224-1.118-0.335-1.453,0.112c-0.896,0.559-0.335,1.678-1.343,2.348    c-0.446,1.79-1.006,3.468-1.788,5.257c-0.561,0.448-0.225,1.342-1.008,1.565l0.225,0.112l-0.225,0.224    c-3.354,0.111-6.822-0.895-10.065-0.895c-3.466-1.342-7.156-1.902-10.624-3.467c-7.604-3.467-14.649-8.5-19.571-15.657    c0.447-1.901,1.23-3.69,2.014-5.368c0.223-1.23,0.67-2.796,1.006-4.026c0.447-0.671,0.559-1.901,1.008-2.796    c1.117-3.914,1.453-6.71,2.683-10.624c0.56-3.803,1.343-6.599,2.013-10.513c0.447-0.225-0.223-0.336,0-0.672    c0.112-1.117,0.447-2.013,0.561-3.242c0.111,0,0.111-0.225,0.223-0.225c-0.671-0.334,0.225-1.117-0.223-1.565    c0-0.559,0.335-1.229,0.447-1.79c-0.112-1.117,0.223-2.236,0.334-3.131c-0.111-1.9,0.449-4.473,0.336-6.375    c0.225-0.67,0-2.124,0.225-2.795l0.111-1.79c0.111,0.111,0.111-0.112,0.224-0.112l-0.224-0.335    c0.111-1.342-0.111-2.572,0.336-3.69c-0.447-1.677,0.783-3.131,1.677-4.25c0.111,1.006,0.111,2.684-0.559,4.026    c0.336,0.335,1.006,0.671,1.565,0.447c1.678-2.349,1.454-5.256,1.79-7.828c0.56-0.224,0.11-0.783,0.11-1.231    c0.225-0.894,0.225-2.013,0.672-2.796c-0.223-0.67,0-1.565,0-2.348h0.111c0.783-5.704,1.119-11.072,1.454-17.112    c-0.111-3.69,0.112-7.716,0.112-11.295c1.007-0.559-0.447-1.454,0.336-2.013c0-0.783-0.225-1.901,0.224-2.46    c-0.224-1.23-0.448-2.684-0.224-4.026v-5.033c0.111-0.224,0.335-0.671,0-0.783c0.224-1.901,0.111-4.026,0.111-5.927l0.224-0.224    l-0.224-0.336c0.224-3.803,0-7.269,0.56-11.295c-0.225-3.02-0.112-6.039,0.447-8.947c-0.113-2.46,0.446-5.256,0.783-7.716    c0.446,0.447,0.111,1.565,0.559,2.237c0.224,0.782,0.782,1.341,1.119,2.013c2.013,0.447,4.473,0.671,6.597,0.447    c0,0.224,0.113,0.559,0.336,0.671c1.23-0.335,0.896-1.901,1.342-2.796c0.448-1.118,0.448-2.572,0.672-3.579    C67.808,11.959,67.247,14.867,67.247,17.216z" />
		<path fill="#FFFFFF" d="M123.725,13.302c0,0.559,0.336,1.119,0,1.565c-1.229-2.348-4.249-4.137-6.934-4.25    c0.447-0.671,1.455-0.447,2.236-0.447C121.153,9.947,122.606,11.959,123.725,13.302z" />
		<rect x="116.231" y="10.394" fill="#FFFFFF" width="0.224" height="0.112" />
		<path fill="#FFFFFF" d="M123.054,15.538v0.56c-1.677,1.901-3.13,4.138-4.808,6.039h-0.448c-1.789-1.23-3.244-3.355-5.703-3.355    c-0.112-2.125,1.006-4.474,2.459-6.263C117.35,10.841,121.937,12.071,123.054,15.538z" />
		<path d="M107.509,45.399c-0.225,0.335-0.671,0-0.895-0.224c-1.229-1.79-2.907-3.02-4.922-3.467    c-1.453-0.112-2.795-0.223-4.024,0.224c2.907,1.79,6.486,2.796,8.834,5.145c-1.23-0.224-2.572-1.23-3.802-1.902    c-2.125-0.783-4.698-1.677-6.486-3.243v-0.335c3.02-0.782,6.71-0.895,9.058,1.454C105.943,43.833,107.062,44.392,107.509,45.399z" />
		<path d="M81.675,181.392c0.225,4.697-2.013,9.395-2.796,14.092c-0.335,1.9-0.895,3.69-0.895,5.368    c-0.782,2.013-0.447,4.025-1.343,6.039c-0.112,2.013-1.006,4.138-0.783,6.263c-0.67,0.224,0.112,1.007-0.447,1.565    c-0.223,0.671-0.67,1.678-1.229,1.901c-1.23-2.014,0.224-4.025-0.224-6.151c0.671-1.565,1.007-3.578,1.118-5.256    c1.343-6.375,2.126-12.526,3.803-18.9c-0.335-0.782,0.671-1.678,0.336-2.572c0.783-0.56,0.335-2.796,2.125-2.685L81.675,181.392z" />
	</g>
</g>
</svg>
