<?xml version="1.0" encoding="UTF-8"?>
<!DOCTYPE svg PUBLIC "-//W3C//DTD SVG 1.1//EN" "http://www.w3.org/Graphics/SVG/1.1/DTD/svg11.dtd">
<!-- Generator: Adobe Illustrator 15.0.0, SVG Export Plug-In . SVG Version: 6.00 Build 0)  -->
<svg xmlns="http://www.w3.org/2000/svg" xmlns:xlink="http://www.w3.org/1999/xlink" version="1.1" x="0px" y="0px" width="141.732px" height="226.772px" viewBox="0 0 141.732 226.772" enable-background="new 0 0 141.732 226.772" xml:space="preserve"><rect fill="#FFFFFF" x="0px" y="0px" width="141.732px" height="226.772px" />
<g id="Lager_2">
	<linearGradient id="SVGID_1_" gradientUnits="userSpaceOnUse" x1="18.5312" y1="219.9976" x2="40.5444" y2="185.9507">
		<stop offset="0" style="stop-color:#FFFFFF" />
		<stop offset="1" style="stop-color:#EDEDED" />
	</linearGradient>
	<path fill-rule="evenodd" clip-rule="evenodd" fill="url(#SVGID_1_)" d="M25.267,169.574c0,0,7.291,12.02,16.355,15.764   s20.888,7.095,20.888,7.686s-11.429,24.435-11.429,24.435l-3.153,6.108c0,0-32.316-2.168-37.834-9.262s-5.32-22.069-5.32-22.069   l13.991-16.553L25.267,169.574z" />
</g>
<g id="Lager_1">
	<g>
		<path fill-rule="evenodd" clip-rule="evenodd" fill="#FFFFFF" d="M128.375,54.151c0.193,0.507,0.605,0.079,0.983,0.313    c-0.059,0.311,0.196,0.52,0.547,0.503c-0.102-0.087,0.021-0.093-0.022-0.249c0.652,0.414,1.572,0.507,1.924,1.281    c0.066-0.021,0.031-0.127,0.032-0.203c0.294-0.04,0.39,0.158,0.574,0.249c-0.1-0.617-0.879-0.896-1.185-1.449    C130.455,54.236,129.393,53.752,128.375,54.151z" />
		<path fill-rule="evenodd" clip-rule="evenodd" d="M130.371,66.776c0.235,0,0.412-0.053,0.592-0.104    c1.09-1.147,2.051-2.404,3.091-3.594c-0.008-0.212-0.078-0.348-0.146-0.488c-0.057,0.012-0.09-0.003-0.104-0.042    c-0.161,0.004-0.202,0.107-0.395,0.086c-0.295,0.521-0.874,0.806-1.023,1.449c-0.74,0.703-1.24,1.606-2.057,2.245    c-0.622,0.155-0.908-0.091-1.414-0.074c-0.521-0.533-1.197-0.883-1.598-1.563c-0.772-0.399-1.235-1.169-2.091-1.468    c-0.109-0.191-0.375-0.218-0.589-0.4c-0.071-0.061-0.095-0.224-0.176-0.285c-0.324-0.24-0.902-0.433-1.269-0.688    c-0.438-0.308-1.05-1.318-0.312-1.781c-0.046-0.196-0.041-0.147-0.031-0.349c0.003-0.166,0.13-0.229,0.222-0.321    c-0.082-0.393,0.146-0.878,0.454-1.095c-0.028-0.362,0.143-0.558,0.391-0.688c-0.009-0.328,0.106-0.556,0.014-0.955    c-0.412-0.309-0.672,0.203-0.97,0.389c0.03,0.417-0.291,0.538-0.362,0.987c-0.04,0.246-0.273,0.34-0.403,0.539    c-0.166,0.251-0.339,0.771-0.499,1.15c-0.195,0.464-0.357,0.39-0.425,0.842c-0.063,0.408-0.264,0.561,0.085,0.946    c0.17,0.19,0.172,0.452,0.411,0.666c0.043,0.038,0.151,0.04,0.209,0.082c0.104,0.08,0.402,0.373,0.642,0.443    c0.063,0.02,0.108-0.085,0.146-0.063c0.129,0.082,0.148,0.268,0.285,0.376c0.151,0.121,0.431,0.02,0.426,0.263    c0.928,0.285,1.703,0.754,2.289,1.451c0.137-0.008,0.094-0.093,0.2-0.018c0.242,0.445,0.82,0.488,0.995,1.014    c0.085-0.008,0.166-0.015,0.25-0.022c-0.062,0.127,0.235,0.23,0.111,0.141C127.966,66.326,129.325,67.851,130.371,66.776z" />
		<path fill-rule="evenodd" clip-rule="evenodd" d="M19.368,73.34c-0.062,0.133-0.155,0.238-0.162,0.417    c-0.257,0.356-0.73,0.528-0.865,0.983c-0.279,0.101-0.614,0.502-0.331,0.783c0.606-0.433,1.181-0.962,1.888-1.326    c0.145-0.018,0.307,0.185,0.35-0.031c0.205,0.078,0.35,0.231,0.521,0.204c0.363,0.301,0.739,0.587,1.176,0.797    c0.34,0.553,0.974,0.749,1.277,1.341c0.242-0.068,0.188,0.216,0.417,0.165c0.221,0.543,0.799,0.66,0.922,1.322    c0.662,0.585,1.198,1.346,1.122,2.411c-0.021,0.292-0.123,0.556,0.217,0.733c0.382,0.034,0.496-0.222,0.653-0.009    c0.198-0.837-0.29-1.68-0.606-2.255c-0.994-0.715-1.266-2.005-2.348-2.65c-0.122-0.536-0.537-0.719-0.667-1.246    c-0.52-0.259-0.701-0.925-1.394-0.979C21.208,73.278,20.124,73.23,19.368,73.34z" />
		<path fill-rule="evenodd" clip-rule="evenodd" d="M79.056,69.153c0.686-0.431,0.976-0.174,1.594-0.144    c-0.062-0.053-0.072-0.171-0.077-0.294C80.106,68.747,79.146,68.52,79.056,69.153z" />
		<path fill-rule="evenodd" clip-rule="evenodd" d="M78.077,69.442c0.078,0.165,0.146,0.342,0.2,0.535    c0.537,0.092,0.705,0.919,1.186,0.898c0.161,0.083,0.329,0.388,0.524,0.253c0.145,0.378,0.601,0.384,0.68,0.842    c0.269-0.175,0.466,0.354,0.72,0.187c0.693,0.825,1.89,1.047,2.625,1.822c0.335-0.044,0.811,0.201,1.046,0.458    c0.561-0.048,0.673,0.107,1.078,0.254c0.059-0.09,0.116-0.179,0.069-0.357c-0.395-0.05-0.651-0.536-0.951-0.516    c-0.029,0.163,0.09,0.148,0.167,0.185c-0.069,0.111-0.26,0.121-0.222,0.321c-0.271-0.02,0.006-0.35-0.236-0.381    c-0.204,0.004-0.017,0.107-0.03,0.205c-0.231-0.106-0.24-0.159-0.472-0.208c0.142-0.312-0.467-0.935-0.558-0.604    c-0.128-0.029-0.093-0.256-0.181-0.336c-0.137,0.009-0.093,0.093-0.199,0.018c-0.405-0.544-1.171-0.656-1.521-1.267    c-0.47-0.044-0.559-0.546-1.055-0.559C80.053,70.57,79.314,69.471,78.077,69.442z" />
		<path fill-rule="evenodd" clip-rule="evenodd" d="M87.698,73.093c0.058,0.189,0.223,0.249,0.336,0.372    C88.022,73.223,87.902,73.108,87.698,73.093z" />
		<path fill-rule="evenodd" clip-rule="evenodd" d="M86.375,74.569c-0.047,0.037-0.041,0.12-0.14,0.113    c0.311,0.301,0.8,0.318,1.009,0.613C87.487,74.836,86.532,74.912,86.375,74.569z" />
		<path fill-rule="evenodd" clip-rule="evenodd" d="M103.878,82.078c1.393,0.127,2.643,0.626,3.641,1.378    c0.063-0.023,0.07-0.095,0.14-0.112c0.128-0.007,0.114,0.157,0.126,0.29c0.862,0.477,1.52,1.198,2.182,1.913    c0.202-0.025,0.548,0.217,0.559,0.602c0.276,0.08,0.533,0.642,0.787,0.933c0.379,0.024,0.472,0.39,0.569,0.753    c0.138-0.054,0.136,0.058,0.255,0.026c0.25,0.443,0.664,0.856,0.885,1.478c0.312-0.006,0.291,0.377,0.25,0.529    c-0.322-0.053-0.539-0.212-0.819-0.177c-0.052-0.085-0.142-0.125-0.172-0.235c-0.882-0.078-1.291-0.377-1.924-0.73    c-0.16-0.011-0.186,0.127-0.3,0.027c0.01-0.1-0.176-0.062-0.176-0.286c-0.125-0.054-0.347,0.01-0.457-0.058    c-0.138-0.435-0.662-0.083-0.757-0.585c-0.913-0.287-1.421-1.057-2.332-1.345c-0.422-0.939-1.715-1.253-1.973-2.383    c-0.262-0.071-0.312-0.399-0.639-0.394c0.086-0.48-0.291-1.108,0.06-1.563c-0.244-0.208-0.536-0.35-0.869-0.171    c-0.176,0.507-0.287,0.811-0.122,1.417c0.405,1.494,2.057,2.458,2.972,3.448c0.084-0.008,0.168-0.015,0.25-0.022    c0.008,0.083,0.016,0.166,0.022,0.249c0.641,0.264,1.099,0.746,1.701,1.053c0.446,0.514,1.288,0.555,1.754,1.045    c0.15-0.015,0.324-0.058,0.312,0.123c0.37-0.074,0.819,0.18,1.047,0.458c0.543,0.176,1.208,0.207,1.651,0.503    c0.078-0.011,0.193,0.008,0.195-0.066c0.329,0.47,1.313,0.155,1.706,0.548c0.114-0.09,0.27-0.144,0.436-0.189    c-0.079-0.146-0.429-0.257-0.34-0.421c-0.244-0.058-0.578-0.007-0.81-0.077c-0.07-0.376-0.307-1.052-0.438-1.519    c-0.07-0.063-0.238-0.009-0.309-0.072c-0.157-1.075-1.092-1.564-1.574-2.419c-0.138,0.054-0.137-0.058-0.254-0.028    c0.118-0.433-0.451-0.652-0.792-0.982c-0.293-0.285-0.43-0.638-0.629-0.847c-0.639-0.668-1.536-1.141-2.15-1.564    c-0.07-0.026-0.103-0.098-0.117-0.189c-0.731-0.21-1.255-0.668-2.078-0.767c-0.051-0.033-0.085-0.083-0.114-0.14    C104.837,81.602,103.798,81.214,103.878,82.078z" />
		<path fill-rule="evenodd" clip-rule="evenodd" d="M103.935,136.06c0.562,0.941-0.325,1.515-0.382,2.446    c0.017,0.155,0.12,0.053,0.204,0.032c0.145,0.339-0.097,0.503,0.027,0.852c0.266,0.008,0.292-0.186,0.426-0.289    c0.072,1.034,0.031,2.006,0.07,3.007c0.246,0.349,0.525,0.656,0.973,0.764c0.632-0.667,0.346-2.088,0.693-2.875    c0.016-0.163-0.055-0.228-0.08-0.345c0.159-0.467,0.014-1.417,0.169-2.023c-0.235-0.326,0.044-0.941-0.059-1.198    c0.22-0.431,0.537-0.78,0.689-1.269c0.381-0.388,0.481-1.011,0.933-1.34c0.332-0.892,0.791-1.672,1.288-2.425    c-0.031-0.12,0.081-0.118,0.027-0.256c1.217-2.085,2.419-4.183,3.49-6.392c0.035-0.078,0.116-0.118,0.241-0.122    c-0.094-0.1,0.033-0.312,0.059-0.457c0.073-0.045,0.059-0.164,0.185-0.169c0.424-0.982,0.792-2.01,1.294-2.927    c0.192-0.853,0.37-1.716,0.789-2.385c0.008-0.433,0.115-1.151,0.309-1.584c-0.099-0.285-0.001-0.47,0.086-0.71    c-0.043-0.542-0.205-1.228-0.221-1.888c-0.411-0.524-0.324-1.144-0.521-1.862c-0.071-0.044-0.109-0.126-0.212-0.131    c-0.044-0.791-0.6-1.451-0.646-2.152c-1.273-2.008-2.771-3.747-5.169-4.405c-0.516,0.315-1.221,0.375-1.251,1.168    c-0.005,0.146,0.199,0.292,0.09,0.444c0.222,0.01,0.33,0.389,0.525,0.253c-0.013,0.33,0.379,0.402,0.651,0.544    c0.271-0.183,0.835,0.535,1.403,0.526c0.312,0.441,1.117,0.705,1.337,1.437c0.105,0.074,0.062-0.011,0.198-0.018    c0.084,0.267,0.136,0.326,0.153,0.588c0.355,0.219,0.341,0.966,0.766,1.237c0.163,0.946,0.606,1.744,0.836,2.585    c0.589,2.15-0.206,4.138-0.846,6.205c-1.125,2.607-2.377,5.109-3.849,7.428c0.097,0.379-0.23,0.531-0.381,0.789    c-0.232,0.399-0.276,0.938-0.437,1.293c-0.199,0.449-0.618,0.811-0.838,1.283c0.006,0.067,0.012,0.132,0.019,0.199    c-0.649,1.1-1.151,2.325-1.908,3.337c-0.026,0.115-0.021,0.257-0.068,0.357c-0.059-0.003-0.088,0.018-0.095,0.059    C104.42,135.635,104.098,135.732,103.935,136.06z" />
		<path fill-rule="evenodd" clip-rule="evenodd" d="M94.047,39.976c-0.375,0.608-1.047,0.97-1.252,1.721    c-0.479,0.643-1.067,1.196-1.323,2.026c-0.777,0.826-1.25,1.905-1.793,2.925c-0.663,0.552-0.821,1.525-1.415,2.136    c-0.111,0.116,0.064,0.218-0.022,0.303c-0.103,0.083-0.259,0.121-0.332,0.232c-0.029,0.564-0.721,0.995-0.574,1.408    c-0.158-0.126-0.115,0.174-0.341,0.13c-1.02,2.189-2.279,4.178-3.453,6.238c-0.247,0.917-0.983,1.422-1.14,2.413    c-0.448,0.348-0.549,0.985-0.929,1.39c-0.977,1.957-2.136,3.902-3.141,5.808c-0.14,0.266-0.298,0.58-0.322,0.883    c-0.683,0.912-1.277,2.013-1.686,3.015c-0.201,0.003-0.162,0.204-0.276,0.277c0.03,0.119-0.082,0.116-0.027,0.253    c-0.507,0.529-0.741,1.286-1.133,1.911c-0.6,1.282-1.484,2.324-1.923,3.739c-0.325,0.417-0.653,0.863-0.884,1.336    c-0.092,0.188-0.096,0.438-0.195,0.621c-0.088,0.164-0.274,0.273-0.362,0.435c-0.167,0.302-0.208,0.675-0.362,0.987    c-0.455,0.913-1.064,1.805-1.519,2.647c-0.027,0.049,0.038,0.147,0.018,0.2c-0.096,0.237-0.399,0.305-0.503,0.546    c-0.531,1.586-1.617,3.103-2.23,4.773c-1.488,2.473-2.633,5.234-4.126,7.706c-0.745,1.511-1.448,3.058-2.307,4.477    c0.006,0.066,0.012,0.132,0.018,0.198c-0.854,1.468-1.487,3.12-2.348,4.583c0.05,0.148-0.035,0.187-0.023,0.303    c0.324,0.213,0.769,0.433,0.778,0.833c0.007,0.243-0.21,0.405-0.305,0.531c-0.465,0.613-1.198,1.462-1.585,1.901    c0.589,0.484,1.2,0.316,1.824,0.738c0.493,0.865-0.246,1.688-1.154,1.66c-0.745-0.021-1.42-1.129-1.915-1.183    c-0.492,0.313-0.755,0.816-1.255,1.119c-0.015-0.038-0.047-0.054-0.104-0.042c-0.11-0.338,0.249-0.506,0.332-0.782    c0.063-0.217-0.039-0.543,0.031-0.757c0.051-0.148,0.289-0.189,0.219-0.371c-0.287-0.156-0.23-0.721-0.622-0.748    c-0.062-0.404-0.323-0.568-0.568-0.751c-0.58-1.385-1.468-2.4-2.007-3.837c-0.149-0.15-0.318-0.279-0.307-0.625    c-0.355-0.291-0.471-0.868-0.765-1.236c-0.058-0.642-0.714-0.823-0.588-1.504c-0.387-0.328-0.504-0.977-0.873-1.327    c0.037-0.471-0.252-0.57-0.374-0.82c-0.396-0.79-0.296-1.839-0.91-2.278c-1.591-4.148-3.381-7.466-4.911-11.56    c-0.36-0.414-0.423-0.74-0.62-1.3c-0.065-0.085-0.146-0.158-0.222-0.231c-0.111-0.772-0.543-1.202-0.61-1.753    c-0.318-0.206-0.41-0.687-0.507-1.159c-0.358-0.562-0.647-1.385-0.877-1.93c-0.134-0.124-0.334-0.044-0.366-0.169    c-0.371-0.29-0.619-0.73-0.996-1.014c-0.313-0.582-0.88-0.858-1.275-1.341c-1.053-0.54-1.824-1.658-3.075-1.781    c-0.162-0.168-0.452-0.436-0.684-0.341c-0.178-0.484-0.815-0.419-1.032-0.859c-0.686-0.153-1.291-0.404-1.87-0.687    c-0.188,0.23-0.378-0.101-0.619-0.194c-0.602-0.229-1.653-0.292-2.073-0.717c-0.202,0.14-0.461-0.028-0.639,0.158    c-0.222-0.317-0.813-0.21-1.142-0.399c-0.155,0.009-0.273,0.047-0.34,0.132c-0.193-0.205-0.562-0.116-0.866-0.124    c-0.667-0.016-1.431-0.41-1.814-0.086c-0.635-0.127-1.423,0.201-2.047,0.134c-0.62,0.473-1.344,0.517-2.278,0.909    c0.03,0.119-0.082,0.117-0.027,0.253c-0.526,0.007-0.705,0.304-0.793,0.676c-0.697,0.108-0.637,0.85-1.265,1.017    c-0.015,0.264-0.198,0.388-0.244,0.625c0.056,0.249,0.146,0.238,0.041,0.449c0.209,0.515,0.763,0.76,1.099,1.055    c0.182,0.16,0.271,0.392,0.453,0.563c0.503,0.467,1.144,0.825,1.72,1.251c1.738,1.28,3.414,2.614,5.164,3.801    c0.379,1.296,0.818,2.516,1.289,3.701c1.157,2.422,2.176,5.012,3.062,7.758c0.338,0.421,0.272,1.232,0.701,1.645    c-0.083,0.476,0.414,1.19,0.47,1.867c0.295,0.68,0.527,1.397,0.692,2.097c0.491,1.406,1.104,3.146,1.477,4.688    c0.859,2.245,1.501,5.123,2.156,7.741c0.071,0.285,0.062,0.605,0.132,0.891c0.08,0.334,0.16,0.904,0.257,1.183    c0.11,0.313,0.41,0.545,0.479,0.86c0.09,0.406-0.115,0.843-0.136,1.269c-0.018,0.364,0.121,0.746,0.153,1.141    c0.101,1.226-0.103,2.344-0.056,3.271c-0.537,0.722-0.415,1.53-0.464,2.652c-0.011,0.24-0.121,0.472-0.136,0.716    c-0.09,1.51-0.276,3.028-0.306,4.396c-0.304,1.055-0.29,2.394-0.505,3.312c-0.081,0.35-0.016,0.68-0.054,1.059    c-0.042,0.395-0.209,0.782-0.245,1.177c-0.015,0.143,0.048,0.312,0.041,0.449c-0.033,0.503-0.326,1.052-0.36,1.589    c-0.132,2.024-0.593,3.957-0.836,5.751c-0.092,0.682-0.183,1.371-0.168,2.023c-0.24,0.846-0.388,2.19-0.541,3.464    c-0.367,2.502-0.771,5.086-0.979,7.521c-0.118,1.384-0.279,2.757-0.377,4.152c0.513,0.049,0.904,0.534,0.895,1.025    c-0.13,1.21-1.409,1.861-1.459,3.295c-0.146,0.217-0.333,0.397-0.335,0.733c-0.203,0.076-0.246,0.02-0.453-0.008    c-0.132,0.473-0.565,0.692-0.645,1.212c-1.815,2.445-3.459,5.035-5.355,7.414c0.005,0.05,0.01,0.101,0.014,0.149    c-0.106,0.122-0.13,0.058-0.241,0.122c-0.728,1.22-1.753,2.19-2.451,3.438c-0.297,0.228-0.552,0.492-0.675,0.863    c-0.706,0.767-1.45,1.563-2.102,2.3c-0.419,0.473-0.812,0.873-1.135,1.358c-0.386,0.122-0.548,0.432-0.9,0.582    c-0.106-0.095-0.354-0.005-0.561-0.1c0.011-0.281,0.186-0.426,0.185-0.719c0.159,0.01,0.189-0.089,0.291-0.127    c0.662-1.352,1.646-2.435,2.646-3.504c0.668-1.085,1.562-1.981,2.179-3.11c0.198-0.063,0.284-0.224,0.477-0.293    c0.158-0.561,0.571-0.905,0.885-1.336c0.411-0.685,0.878-1.324,1.382-1.934c1.285-1.983,2.748-3.817,3.992-5.834    c0.312-0.753,0.797-1.362,1.224-2.021c0.183-0.74,0.918-1.204,0.712-2.122c0.238-0.57,0.092-1.276,0.128-1.92    c0.086-1.558,0.533-3.144,0.375-4.754c0.449-1.955,0.442-4.273,0.931-6.364c-0.164-0.495,0.172-0.959,0.061-1.561    c0.153-0.24,0.093-0.659,0.271-0.879c0.141-2.655,0.574-4.341,0.918-6.513c0.005-1.748,0.712-3.19,0.61-4.926    c0.119-0.102,0.157-0.298,0.06-0.457c0.077-0.087,0.129-0.199,0.172-0.317c0.02-1.38,0.511-3.241,0.446-4.51    c0.401-1.912,0.514-3.811,0.598-6.182c0.015-0.139,0.104-0.218,0.117-0.362c-0.189-0.372,0.077-0.666,0.104-1.062    c0.021-0.301-0.145-0.653-0.09-0.998c0.015-0.091,0.112-0.186,0.122-0.312c0.024-0.365-0.075-0.737-0.049-1.101    c0.087-1.192,0.162-2.188-0.107-3.405c-0.071-0.317-0.227-0.734-0.248-1.083c-0.001-0.017,0.097-0.117,0.087-0.159    c-0.052-0.199-0.206-0.336-0.25-0.53c-0.254-1.114-0.343-2.252-0.654-3.356c-0.184-0.648-0.439-1.289-0.629-1.952    c-0.029-0.098,0.046-0.203,0.023-0.303c-0.041-0.175-0.241-0.341-0.299-0.526c-0.044-0.138-0.01-0.316-0.041-0.448    c-0.229-1.009-0.775-2.021-1.025-3.021c-0.112-0.445-0.209-0.646-0.34-0.973c-0.195-0.494-0.215-1.084-0.393-1.573    c-0.374-1.023-0.835-1.98-1.031-3.07c-0.097-0.085-0.133-0.246-0.23-0.331c-0.711-2.757-1.922-5.318-2.904-8.226    c-0.042-0.132-0.219-0.105-0.226-0.28c-0.495-1.489-1.376-2.803-1.786-4.208c-0.418-0.198-0.255-0.786-0.693-0.993    c-0.027-0.765-0.801-1.093-1.198-1.599c-0.701-0.391-1.395-0.795-1.979-1.328c-0.236,0.026-0.288-0.168-0.516-0.155    c0.005-0.116-0.025-0.19-0.072-0.244c-0.304-0.115-0.47-0.393-0.842-0.427c-0.317-0.575-1.134-0.554-1.458-1.124    c-0.335-0.04-0.432-0.365-0.833-0.326c-0.404-0.545-1.016-0.843-1.475-1.323c-0.175-0.386-0.319-0.857-0.356-1.726    c0.354-0.223,0.277-0.661,0.461-0.997c0.158-0.287,0.474-0.493,0.635-0.759c0.093-0.154,0.087-0.384,0.204-0.521    c0.175-0.205,0.509-0.22,0.504-0.547c0.14-0.021,0.198-0.11,0.34-0.131c0.447-0.777,1.462-1.083,2.051-1.743    c0.571,0.151,1.124-0.101,1.473-0.384c0.459-0.014,0.838-0.079,1.432-0.279c0.408,0.246,0.952-0.142,1.507,0.014    c0.036-0.108,0.28-0.043,0.285-0.176c1.118,0.132,2.176,0.056,3.446,0.342c0.093-0.078,0.28-0.074,0.39-0.136    c0.178,0.397,0.36,0.212,0.825,0.227c0.103,0.004,0.063,0.18,0.166,0.185c0.683,0.048,1.038,0.487,1.752,0.496    c0.017,0.092,0.048,0.163,0.118,0.19c1.01-0.093,1.816,0.723,2.73,0.758c0.003,0.124,0.014,0.242,0.122,0.24    c0.895,0.271,1.488,0.901,2.504,1.03c0.157,0.259,0.448,0.507,0.696,0.489c0.091,0.151,0.189,0.291,0.29,0.426    c0.48,0.252,0.831,0.66,1.381,0.829c0.456,0.723,1.037,1.298,1.717,1.753c0.075,0.386,0.312,0.583,0.568,0.752    c0.341,0.64,0.565,1.42,1.028,1.915c0.131,0.874,0.652,1.279,0.841,2.085c0.05-0.004,0.1-0.009,0.148-0.014    c0.88,2.22,2.091,4.045,2.841,6.422c1.447,2.68,2.498,5.833,3.944,8.633c0.011,0.117,0.021,0.233,0.031,0.349    c0.329,0.304,0.494,0.807,0.624,1.351c0.332,0.153,0.274,0.772,0.588,0.951c0.271,1.188,1.114,2.159,1.512,3.377    c0.067-0.007,0.111,0.014,0.154,0.037c0.603,1.407,1.422,2.702,2.221,4.018c0.011,0.117,0.021,0.233,0.031,0.349    c0.121,0.057,0.236,0.121,0.32,0.222c0.246,0.737,0.764,1.147,1.159,1.704c0.574-0.811,0.716-1.983,1.415-2.69    c0.551-1.903,1.517-3.463,2.348-5.133c-0.009-0.099-0.019-0.199-0.027-0.298c0.995-1.143,1.185-2.75,2.153-3.961    c-0.008-0.083-0.015-0.167-0.022-0.25c0.629-0.671,0.87-1.589,1.189-2.417c0.267-0.099,0.32-0.377,0.502-0.547    c-0.066-0.605,0.307-0.904,0.634-1.313c-0.009-0.098-0.018-0.198-0.026-0.299c0.324-0.39,0.383-1.001,0.73-1.371    c0.322-0.959,0.885-1.718,1.16-2.716c0.123-0.067,0.229-0.148,0.277-0.277c0.006-0.486,0.453-0.603,0.398-1.14    c0.61-0.536,0.795-1.424,1.269-2.075c0.393-1.022,1.066-1.812,1.506-2.797c0.114-0.835,0.718-1.261,0.825-1.983    c0.19,0.004,0.217-0.125,0.281-0.226c0.257-0.833,0.63-1.286,1.077-1.956c0.12-0.377,0.271-0.727,0.566-0.957    c0.049-0.144,0.135-0.257,0.109-0.461c0.489-0.591,0.701-1.412,1.175-2.015c-0.007-0.082-0.015-0.166-0.022-0.249    c0.371-0.181,0.278-0.75,0.617-0.958c-0.15-0.03,0.052-0.132-0.022-0.25c1.194-1.612,1.938-3.604,3.036-5.297    c1.144-2.178,2.327-4.321,3.48-6.492c-0.006-0.066-0.012-0.132-0.018-0.198c0.802-1.122,1.28-2.242,2.001-3.446    c0.279-0.932,0.97-1.521,1.232-2.472c0.096-0.024,0.105,0.058,0.158,0.087c1.051-2.596,2.73-4.733,3.961-7.29    c0.458-0.293,0.405-1.014,0.834-1.331c0.415-0.714,0.793-1.458,1.265-2.124c0.081-0.577,0.581-0.804,0.681-1.366    c0.507-0.375,0.68-1.03,1.123-1.458c0.355-1.024,1.372-1.498,1.895-2.381c0.421,0.028,0.371-0.335,0.83-0.276    c0.273-0.327,0.826-0.603,1.354-0.574c0.857-0.812,2.046-0.287,3.098-0.732c0.136-0.034,0.062,0.182,0.167,0.186    c0.48-0.131,0.456,0.143,0.956,0.015c0.532,0.246,0.821,0.782,1.529,0.816c0.249,0.714,1.005,0.82,1.245,1.544    c0.154-0.038,0.126,0.143,0.308,0.073c0.156,0.419,0.574,0.526,0.646,1.046c0.324-0.076,0.265,0.309,0.53,0.303    c0.138,0.918,0.661,0.953,0.66,1.749c0.739,1.01,0.683,2.384,0.547,3.819c-1.306,2.984-2.542,6.257-3.959,8.994    c0.01,0.101,0.019,0.201,0.027,0.301c-0.938,1.72-1.749,3.546-2.526,5.399c-0.184,0.016-0.341,0.055-0.331,0.232    c-0.062,0.183,0.173,0.015,0.164,0.135c-0.26,0.261-0.229,0.762-0.513,1.001c-0.075,0.659-0.599,0.942-0.603,1.662    c-1.264,2.016-1.687,4.735-2.739,6.927c-0.086,0.587-0.279,1.087-0.567,1.508c-0.582,2.323-1.761,4.55-2.38,6.994    c-0.362,0.442-0.386,1.021-0.563,1.559c-0.186,0.558-0.53,1.062-0.708,1.62c-0.344,1.086-0.692,2.165-1.169,3.169    c-0.435,1.709-1.139,2.965-1.583,4.714c-0.394,0.975-0.809,2.008-1.129,3.064c-0.404,1.332-0.844,2.576-1.217,3.776    c-0.276,0.891-0.542,1.884-0.722,2.576c-0.07,0.273-0.054,0.586-0.123,0.866c-0.363,1.505-0.932,2.99-1.115,4.318    c-0.095,0.685-0.274,1.12-0.146,1.721c0.784-1.265,1.279-2.772,2.316-3.826c0.184-0.493,0.562-0.821,0.897-1.186    c0-0.259,0.147-0.399,0.305-0.529c-0.051-0.149,0.035-0.188,0.022-0.305c0.126-0.017,0.166-0.107,0.235-0.171    c0.736-1.352,1.652-2.552,2.521-3.794c-0.033-0.118,0.081-0.115,0.027-0.253c0.167-0.136,0.408-0.21,0.516-0.398    c0.048-0.574,0.343-0.942,0.689-1.267c-0.006-0.067-0.012-0.133-0.018-0.2c0.497-0.478,0.841-1.319,1.305-1.675    c0.048-0.298,0.384-0.752,0.66-1.014c0.333-0.935,1.142-1.474,1.438-2.441c0.274-0.369,0.751-0.569,0.803-1.126    c1.043-1.232,1.72-2.772,2.805-3.971c0.237-0.646,0.806-1.016,1.002-1.696c0.325-0.313,0.677-0.603,0.753-1.124    c1.298-1.434,2.251-3.157,3.443-4.68c0.054-0.139,0.11-0.277,0.164-0.417c0.133-0.119,0.242-0.257,0.42-0.339    c0.357-0.915,1.149-1.469,1.654-2.259c-0.066-0.194,0.136-0.163,0.069-0.357c1.112-1.116,1.909-2.492,3.04-3.59    c0.614-0.991,1.319-1.909,1.949-2.888c0.889-0.686,1.136-1.908,2.135-2.502c0.334-0.689,0.826-1.246,1.345-1.78    c-0.012-0.086-0.003-0.156,0.032-0.204c0.14-0.13,0.29-0.249,0.417-0.389c0.051-0.45,0.386-0.661,0.779-0.825    c0.996-1.702,2.847-2.692,4.037-4.231c0.501-0.089,0.763-0.693,1.327-0.874c0.039-0.151,0.239-0.168,0.163-0.416    c1.045-0.3,1.565-1.217,2.587-1.39c0.035-0.109,0.138-0.161,0.122-0.313c1.085-0.072,1.795-1.07,2.857-1.161    c0.462-0.45,0.986-0.244,1.399-0.629c0.271,0.209,0.674-0.045,0.969,0.164c0.141-0.021,0.201-0.11,0.342-0.131    c1.149,0.203,2.198,0.531,2.969,1.189c0.115,0.028,0.204,0.085,0.358,0.067c0.482,0.692,1.343,0.932,1.624,1.862    c0.124-0.019,0.162,0.063,0.26,0.077c0.05,0.149-0.074,0.155-0.023,0.304c0.562,0.264,0.729,1.001,1.182,1.399    c0.007,0.811,1.006,1.309,0.953,2.225c1.006,0.823,0.178,3.385-0.424,4.207c-0.047,0.406-0.33,0.614-0.303,1.082    c-0.729,0.929-1.21,2.062-1.887,3.033c0.013,0.118-0.072,0.155-0.022,0.305c-0.409,0.486-0.91,0.897-1.006,1.647    c-0.125,0.003-0.204,0.045-0.24,0.123c-1.476,2.545-3.231,4.858-4.813,7.315c-0.106,0.063-0.242,0.104-0.334,0.18    c-0.221,0.768-0.719,1.306-1.243,1.819c-0.359,1.006-1.368,1.468-1.735,2.467c-0.665,0.613-1.262,1.282-1.559,2.2    c-0.447,0.38-0.73,0.896-0.92,1.489c-0.474,0.42-0.619,1.111-1.119,1.508c-0.15,0.812-0.986,1.05-1.03,1.951    c-0.257,0.03-0.274,0.262-0.472,0.344c-0.015,0.494-0.481,0.611-0.557,1.055c-0.646,0.536-0.854,1.436-1.532,1.946    c0.007,0.067,0.013,0.133,0.019,0.199c-0.825,0.785-1.298,1.865-2.121,2.653c-0.604,1.169-1.521,2.077-2.224,3.164    c-0.958,0.738-1.308,1.98-2.267,2.716c0.053,0.137-0.059,0.135-0.027,0.253c-0.406,0.178-0.503,0.642-0.767,0.973    c-0.321,0.403-0.833,0.691-0.893,1.237c-1.146,1.025-1.842,2.424-2.896,3.526c-0.607,1.075-1.591,1.836-2.09,3.001    c-0.903,0.75-1.285,1.937-2.165,2.708c0.055,0.136-0.059,0.134-0.027,0.253c-0.837,0.838-1.448,1.861-2.211,2.761    c-0.304,0.562-0.688,1.055-1.066,1.552c-0.015,0.141-0.104,0.221-0.117,0.362c-1.235,0.982-1.286,2.951-1.801,4.532    c-0.159,0.917-0.102,1.71-0.183,2.428c-0.701,0.461-1.616,0.173-1.91-0.58c0.12-0.217,0.135-0.421-0.055-0.599    c-0.305,0.354-0.654,1.163-1.228,0.864c0.15-0.296,0.388-0.97,0.092-1.213c0.281-0.165,0.317-0.534,0.372-0.888    c0.291-0.202,0.392-0.563,0.629-0.812c-0.181-0.297,0.369-0.518,0.178-0.818c0.69-0.637,1.32-1.521,1.487-2.444    c0.476-0.939,1.005-1.833,1.78-2.521c0.1-0.01,0.198-0.019,0.299-0.027c0.459-1.087,1.614-1.962,2.181-3.109    c0.082-0.007,0.166-0.015,0.248-0.022c0.127-0.523,0.6-0.759,0.686-1.317c0.444-0.276,0.452-0.64,0.911-1.038    c0.042-0.318,0.307-0.45,0.492-0.647c0.262-0.703,0.963-1.04,1.143-1.81c0.339-0.175,0.411-0.345,0.644-0.661    c0.204-0.275,0.348-0.524,0.535-0.751c0.25-0.305,0.695-0.64,0.661-1.014c0.78-0.747,1.461-1.576,1.98-2.539    c0.236,0.043,0.061-0.257,0.335-0.181c0.656-1.357,1.818-2.29,2.539-3.595c0.324-0.266,0.695-0.493,0.766-0.972    c1.047-1.277,1.971-2.656,3.009-3.939c-0.077-0.31,0.229-0.3,0.145-0.615c0.155,0.022,0.139-0.1,0.295-0.078    c0.28-0.533,0.638-1.004,1.079-1.402c0.344-0.869,1.055-1.531,1.56-2.2c0.561-0.746,1.029-1.578,1.594-2.354    c1.887-2.587,3.493-5.503,5.354-8.017c0.877-0.837,1.495-1.879,2.152-2.857c0.245-0.363,0.61-0.747,0.701-1.117    c0.16,0.009,0.188-0.089,0.291-0.127c0.317-0.917,1.158-1.399,1.392-2.386c0.155,0.022,0.138-0.099,0.294-0.077    c0.271-0.817,0.928-1.315,1.16-2.164c0.265-0.134,0.389-0.383,0.441-0.693c1.022-1.265,1.662-2.851,2.474-4.292    c0.005-0.318,0.378-0.33,0.286-0.73c0.727-1.005,1.133-2.278,1.537-3.553c-0.189-0.084-0.07-0.255-0.036-0.397    c-0.052-0.142-0.248-0.109-0.231-0.331c0.163-0.714-0.26-0.999-0.561-1.758c-0.519-0.02-0.488-0.702-1.018-0.712    c-0.417-0.734-1.329-0.872-1.842-1.491c-0.07,0.004-0.108,0.033-0.146,0.063c-0.818-0.603-1.815-0.99-2.971-1.188    c-0.006-0.175-0.189-0.141-0.271-0.227c-0.837-0.062-2.041-0.111-2.627,0.389c-0.062-0.109-0.314,0.008-0.453-0.009    c0.023,0.104-0.154,0.277-0.221,0.321c-0.768,0.492-1.653,0.83-2.293,1.312c-0.321,0.027-0.481,0.536-0.952,0.588    c-0.611,0.794-1.632,1.248-2.17,2.104c-0.654,0.482-1.375,0.91-1.707,1.662c-0.083,0.007-0.166,0.015-0.25,0.022    c-0.709,0.866-1.611,1.572-2.125,2.602c-1.109,1.056-1.9,2.376-2.895,3.527c-0.854,1.314-1.915,2.457-2.774,3.765    c-0.208,0.119-0.413,0.24-0.403,0.54c-0.116,0.058-0.233,0.113-0.336,0.18c-0.062,0.103-0.113,0.213-0.117,0.363    c-0.479,0.168-0.529,0.694-0.919,0.937c-0.91,1.543-2.125,2.834-3.183,4.255c-0.839,1.495-2.035,2.691-2.832,4.224    c-0.349,0.154-0.455,0.512-0.738,0.72c-0.292,0.8-0.904,1.334-1.215,2.118c-0.8,0.685-1.129,1.761-1.886,2.481    c-0.036,0.092-0.128,0.139-0.072,0.308c-0.378,0.254-0.48,0.691-0.712,1.018c-0.126,0.182-0.381,0.313-0.508,0.499    C96.35,89,96.27,89.379,96.076,89.663c-0.338,0.498-0.908,0.856-1.02,1.498c-0.542,0.362-0.657,1.08-1.174,1.462    c-0.664,1.288-1.643,2.314-2.229,3.667c-0.23,0.069-0.298,0.274-0.467,0.394c-0.195,0.529-0.464,0.995-0.884,1.335    c-0.676,1.263-1.477,2.423-2.344,3.527c-0.036,0.061-0.054,0.14-0.026,0.253c-1.214,1.491-2.138,3.222-3.287,4.767    c-0.031,0.096-0.065,0.189-0.072,0.308c-0.899,0.954-1.384,2.252-2.324,3.172c0.006,0.068,0.012,0.134,0.019,0.2    c-0.147,0.047-0.192,0.177-0.33,0.231c-0.215,0.757-0.833,1.179-1.139,1.86c-0.046-0.107-0.14,0.124-0.239,0.123    c0.005,0.235-0.23,0.27-0.204,0.521c-0.074,0.016-0.187-0.001-0.195,0.068c-0.097,0.273-0.27,0.481-0.603,0.557    c-0.125-0.342,0.04-0.529,0.29-0.679c0.094-0.183,0.092-0.445,0.086-0.711c0.41-0.381,0.473-1.049,0.875-1.435    c0.58-1.22,1.314-2.312,2-3.446c-0.344-0.139-0.638-0.34-0.725-0.788c0.005-0.119,0.232-0.051,0.181-0.217    c0.02-0.752,0.092-1.459,0.317-2.038c0.186-2.394,1.018-4.567,1.436-6.91c0.38-0.65,0.431-1.574,0.803-2.231    c0.257-1.413,0.963-2.452,1.152-3.921c0.274-0.415,0.412-0.946,0.518-1.503c0.897-1.604,1.188-3.485,2.108-5.012    c-0.043-0.436,0.247-0.592,0.317-0.932c0.028-0.146-0.083-0.124-0.072-0.246c0.404-0.778,0.251-1.782,0.553-2.762    c0.324-0.294,0.302-0.756,0.291-1.231c0.171-0.237,0.283-0.524,0.382-0.788c0.159-0.424,0.353-0.832,0.38-1.34    c0.514-0.677,0.602-1.708,1.143-2.363c0.479-1.257,0.896-2.802,1.65-3.965c-0.007-0.605,0.458-0.816,0.423-1.444    c0.473-0.466,0.519-1.288,0.942-1.793c0.408-1.46,1.007-2.746,1.746-4.025c0.111-0.638,0.388-1.197,0.689-1.82    c0.838-2.049,1.605-4.158,2.615-6.063c-0.007-0.082-0.015-0.165-0.022-0.248c0.53-1.062,1.099-2.092,1.406-3.342    c0.327-0.433,0.717-1.059,0.707-1.62c-0.214,0.036-0.164,0.293-0.263,0.426c-0.833,0.22-1.664,0.381-2.301,0.108    c-0.604,0.173-0.746-0.302-1-0.513c-0.317-0.265-0.804-0.296-1.153-0.549c-0.127-0.091-0.181-0.288-0.285-0.376    c-0.266-0.221-0.565-0.282-0.797-0.481c-0.083,0.008-0.167,0.015-0.25,0.022c-0.358-0.417-0.896-0.62-1.295-0.987    c-0.545,0.065-0.726-0.307-1.051-0.508c-0.383,0.239-0.727-0.427-1.284-0.335c-0.2-0.287-0.406-0.499-0.794-0.431    c-0.047-0.33-0.022-0.745-0.14-0.992c0.172-0.165,0.156-0.484,0.29-0.679c-0.26-0.549,0.384-0.91,0.418-1.495    c0.25-0.098,0.293-0.369,0.507-0.497c0.297,0.265-0.132,0.671,0.131,0.892c-0.316,0.605-0.198,1.166-0.236,1.83    c0.108,0.019,0.154,0.111,0.309,0.071c-0.032,0.223,0.125,0.221,0.18,0.336c0.883,0.343,1.595,0.887,2.52,1.178    c0.321,0.368,0.688,0.683,1.227,0.794c-0.008,0.116,0.024,0.191,0.072,0.244c0.726,0.326,1.312,0.819,1.833,1.391    c0.104,0.096,0.324,0.053,0.371,0.219c0.656-0.223,1.204,0.18,1.756-0.009c0.434-0.148,0.621-0.723,0.906-1.087    c0.163-0.204,0.346-0.332,0.507-0.498c0.506,0.166,0.26,0.725,0.2,1.087c0.646-1.365,1.163-2.837,1.505-4.454    c-0.157-0.511,0.14-0.842,0.082-1.312c-0.243-0.324-0.396-0.553-0.488-0.961c-0.323-0.06-0.73-0.474-0.782-0.883    c-0.14-0.025-0.091,0.108-0.191,0.117c-1.417-1.633-3.536-2.52-5.73-2.847c-0.347,0.222-0.482,0.055-0.859-0.073    c-0.056,0.326-0.249-0.023-0.381,0.236c-0.081-0.142-0.005-0.205-0.176-0.285c-0.073-0.23,0.184-0.185,0.112-0.413    c-0.321,0.269-0.855,0.362-0.874,0.883C94.244,39.975,94.192,39.888,94.047,39.976z M95.946,38.75    c1.058,0.048,1.698,0.292,2.558,0.522c0.486,0.392,1.524,0.419,1.789,0.892c1.324,0.345,2.026,1.437,2.964,2.244    c0.058-0.27-0.305-0.518-0.284-0.928c-0.215-0.09-0.283-0.531-0.539-0.404c-0.117-0.432-0.563-0.792-0.813-1.231    c-0.631-0.078-0.851-0.861-1.358-1.132c-0.406-0.218-0.887-0.152-1.195-0.446c-0.12,0.098-0.18-0.04-0.244,0.073    c-0.62-0.601-1.463,0.103-1.915-0.078C96.599,38.5,96.169,38.403,95.946,38.75z M128.375,54.151    c0.193,0.507,0.605,0.079,0.983,0.313c-0.059,0.311,0.196,0.52,0.547,0.503c-0.102-0.087,0.021-0.093-0.022-0.249    c0.652,0.414,1.572,0.507,1.924,1.281c0.066-0.021,0.031-0.127,0.032-0.203c0.294-0.04,0.39,0.158,0.574,0.249    c-0.1-0.617-0.879-0.896-1.185-1.449C130.455,54.236,129.393,53.752,128.375,54.151z" />
		<path fill-rule="evenodd" clip-rule="evenodd" d="M80.749,69c0.732,0.44,1.417,0.645,2.251,1.001    c0.059,0.004,0.05,0.088,0.063,0.146c0.465,0.045,0.744,0.395,1.109,0.603c0.193,0.109,0.577,0.067,0.639,0.394    c0.58-0.091,0.84,0.921,1.521,0.716c0.14,0.398,0.553,0.605,1.091,0.957c-0.149-0.375-0.502-0.503-0.861-0.625    c0.027-0.252-0.127-0.288-0.189-0.436c-0.31,0.257-0.459-0.281-0.557-0.048c-0.084-0.066-0.122-0.187-0.131-0.34    c-0.305,0.128-0.536-0.265-0.549-0.503c-0.521-0.204-0.858-0.625-1.562-0.611c-0.008-0.085-0.015-0.167-0.022-0.25    c-0.102-0.008-0.154,0.024-0.14,0.113c-0.108,0.018-0.039-0.175-0.073-0.244c-0.467-0.432-1.187-0.177-1.575-0.763    c-0.269,0.037-0.311,0.055-0.494,0.095C81.125,68.918,80.95,69.139,80.749,69z" />
		<path fill-rule="evenodd" clip-rule="evenodd" d="M110.502,132.606c-0.004,0.256-0.157,0.389-0.249,0.574    c0.021,0.635,0.424,0.967,0.389,1.522c0.367,0.313,0.578,0.814,0.864,1.228c0.261,1.801,1.015,2.595,0.898,4.389    c0.005,0.141,0.16,0.103,0.171,0.235c-0.025,0.889-0.007,2.104-0.182,2.979c-0.095,0.48-0.111,1.05-0.258,1.581    c-0.103,0.366-0.288,0.71-0.404,1.091c-0.162,0.528-0.219,1.131-0.509,1.603c-0.148,0.245-0.238,0.642-0.412,0.991    c-0.051,0.103-0.159,0.117-0.232,0.223c-0.098,0.147-0.109,0.412-0.198,0.57c-0.138,0.243-0.172,0.308-0.291,0.678    c-0.071,0.229-0.467,0.757-0.615,0.96c-0.281,0.383-0.544,1.023-0.861,1.584c-0.283,0.499-0.73,0.929-0.935,1.341    c-0.054,0.111-0.017,0.253-0.067,0.356c-0.312,0.639-0.879,1.085-1.143,1.812c0.04-0.013,0.045-0.053,0.096-0.058    c0.031,0.164-0.24,0.076-0.123,0.312c-0.769,0.472-1.33,1.492-1.739,2.417c-0.685,0.472-0.874,1.358-1.597,1.801    c-0.058-0.167-0.211-0.222-0.284-0.377c-0.599-0.074-0.997,0.484-1.295,0.671c-0.119,0.331-0.229,0.667-0.525,0.852    c0.062,0.496-0.339,0.607-0.522,0.899c-0.243,0.935-0.797,1.607-1.078,2.508c-0.029,0.131-0.194,0.148-0.281,0.227    c0.064,0.239-0.089,0.294-0.219,0.371c-0.084,0.45-0.329,0.77-0.661,1.016c-0.847,1.795-2.305,3.081-3.394,4.676    c-0.836,0.545-1.185,1.499-2.135,1.951c0.041,0.187-0.221,0.122-0.118,0.362c-0.707,0.498-1.205,1.173-2.07,1.542    c0.052,0.149-0.165,0.076-0.077,0.259c-0.163,0.017-0.24,0.105-0.443,0.09c-0.012,0.097-0.134,0.104-0.077,0.258    c-1.627,0.848-2.903,2.188-4.661,2.882c-0.197,0.01,0.022,0.075-0.086,0.158c-1.986,1.152-4.051,2.241-6.129,3.317    c-0.256,0.23-0.587,0.4-1.009,0.493c-0.221,0.476-0.85,0.652-1.387,0.777c-0.339,0.403-0.845,0.605-1.392,0.728    c-0.486,0.577-1.363,0.828-2.101,1.194c-0.271,0.296-1.032,0.418-1.387,0.778c-1.455,0.447-2.753,1.38-4.268,1.692    c-0.226,0.263-0.472,0.221-0.774,0.321c-0.055-0.432-0.436-0.472-0.484-0.911c-0.428-0.069-0.625-0.339-1.167-0.146    c-0.278,0.528-0.556,0.809-0.567,1.508c-0.062,0.193-0.355,0.195-0.308,0.479c-0.418,0.276-1.144,0.265-1.604,0.597    c-0.007,0.082,0.055,0.082,0.063,0.145c-0.425,0.325-1.069,0.235-1.503,0.588c0.633,0.255,1.301,0.026,2.068,0.115    c-0.551,1.105-1.496,1.884-1.983,3.041c-0.31,0.13-0.404,0.622-0.752,0.571c0.054,0.169-0.058,0.196-0.02,0.354    c-1.56,2.537-3.291,4.93-4.578,7.695c-0.177,0.037-0.089,0.295-0.272,0.326c-0.032,0.341-0.124,0.633-0.434,0.742    c-0.168,1.062-0.963,1.698-1.048,2.856c-0.175,0.162-0.138,0.5-0.345,0.636c0.001,0.108,0.056,0.154,0.162,0.135    c-0.273,0.341,0.111,0.481,0.027,0.852c0.784-0.455,0.953-1.771,1.689-2.413c-0.049-0.18,0.01-0.27,0.068-0.357    c0.954-1.277,1.626-2.79,2.598-4.053c-0.03-0.193,0.163-0.2,0.112-0.412c0.1-0.07,0.128-0.199,0.282-0.225    c1.891-3.428,4.287-6.435,6.462-9.625c0.114-0.242,0.429-0.317,0.444-0.644c0.257-0.4,1.111-0.301,1.342-0.723    c0.773-0.052,1.588-0.453,2.186-0.802c1.09-0.351,2.102-0.765,3-1.275c0.116-0.01,0.231-0.021,0.35-0.031    c2.506-1.361,5.447-2.559,7.672-4.008c1.062-0.297,1.683-0.96,2.75-1.252c0.708-0.668,1.918-0.92,2.619-1.593    c0.78-0.132,1.203-0.755,1.775-0.915c0.399-0.511,1.218-0.673,1.6-1.199c0.217,0.057,0.301-0.235,0.442-0.09    c1.13-0.958,2.249-1.707,3.479-2.625c-0.029-0.101,0.024-0.133,0.032-0.203c0.886-0.429,1.316-1.236,2.104-1.747    c0.527-0.742,1.182-1.377,1.826-2.021c0.878-1.417,2.17-2.491,2.846-4.074c0.057-0.075,0.232-0.052,0.289-0.128    c-0.006-0.065-0.012-0.132-0.018-0.198c0.042-0.149,0.187-0.213,0.326-0.281c0.252-0.804,0.847-1.319,1.008-2.2    c0.309-0.387,0.795-0.626,0.951-1.14c1.285-0.986,1.96-2.479,3.252-3.459c0.408-0.918,1.122-1.583,1.697-2.363    c0.556-1.178,1.455-2.069,2.016-3.247c0.008-0.068,0.121-0.051,0.195-0.064c0.321-1.1,1.173-1.756,1.555-2.805    c0.104-0.095,0.137-0.254,0.271-0.325c0.072-0.51,0.397-0.805,0.648-1.163c0.989-2.49,2.312-4.901,2.337-8.047    c0.006-0.103,0.089-0.142,0.132-0.213c-0.182-0.811,0.09-1.486-0.238-2.088c0.163-0.447,0.064-0.989-0.095-1.599    c-0.252-0.968-0.379-2.144-0.869-2.935c0.048-1.103-0.764-1.61-1.03-2.519c-0.235-0.177-0.546-0.265-0.747-0.484    C111.098,132.59,110.792,132.475,110.502,132.606z" />
	</g>
	<g>
		<g>
			<line fill="none" stroke="#000000" stroke-width="3" x1="76.667" y1="120.727" x2="76.667" y2="209.227" />
			<polygon points="68.891,203.329 76.667,206.631 84.446,203.329 76.667,221.762    " />
		</g>
	</g>
	<path fill-rule="evenodd" clip-rule="evenodd" fill="none" stroke="#000000" stroke-width="1.3" d="M61.247,193.857   c0,0-6.439,14.159-11.718,26.621" />
	<path fill-rule="evenodd" clip-rule="evenodd" fill="none" stroke="#000000" d="M18.545,176.591c0,0-7.79,8.996-13.735,15.568" />
	<path fill-rule="evenodd" clip-rule="evenodd" fill="none" stroke="#000000" d="M25.763,170.55c0,0,4.894,12.795,34.361,21.775" />
</g>
</svg>
