<?xml version="1.0" encoding="UTF-8"?>
<!-- Generator: Adobe Illustrator 25.2.1, SVG Export Plug-In . SVG Version: 6.00 Build 0)  -->
<svg xmlns="http://www.w3.org/2000/svg" xmlns:xlink="http://www.w3.org/1999/xlink" version="1.1" id="Lager_1" x="0px" y="0px" width="514px" height="226.8px" viewBox="0 0 514 226.8" style="enable-background:new 0 0 514 226.8;" xml:space="preserve"><rect fill="#FFFFFF" x="0px" y="0px" width="514px" height="226.8px" />
<style type="text/css">
	.st0{fill:#FFFFFF;}
	.st1{fill:url(#SVGID_1_);}
	.st2{fill:none;stroke:#000000;stroke-width:2;stroke-linecap:round;}
	.st3{fill:none;}
	.st4{fill:none;stroke:#000000;}
	.st5{fill:none;stroke:#000000;stroke-width:0.5;stroke-linecap:round;}
	.st6{fill:url(#SVGID_2_);}
	.st7{fill:none;stroke:#000000;stroke-width:2;}
	.st8{fill:none;stroke:#000000;stroke-width:1.5;stroke-linecap:round;stroke-linejoin:bevel;}
	.st9{fill:none;stroke:#000000;stroke-width:1.5;stroke-linecap:round;}
	.st10{fill:none;stroke:#000000;stroke-linecap:round;}
	.st11{fill:none;stroke:#000000;stroke-width:1.4;stroke-linecap:round;}
	.st12{fill:url(#SVGID_3_);}
	.st13{fill:none;stroke:#000000;stroke-width:0.75;stroke-linecap:round;}
	.st14{fill:url(#SVGID_4_);}
	.st15{fill:none;stroke:#000000;stroke-width:1.6;stroke-linecap:round;}
</style>
<rect x="1.4" class="st0" width="510.6" height="226.8" />
<g id="Färg_1_">
	
		<linearGradient id="SVGID_1_" gradientUnits="userSpaceOnUse" x1="185.4529" y1="-483.7003" x2="196.5894" y2="-467.1643" gradientTransform="matrix(0.9757 0.2192 0.2192 -0.9757 -58.1479 -346.7064)">
		<stop offset="0" style="stop-color:#FFFFFF" />
		<stop offset="1" style="stop-color:#EDEDED" />
	</linearGradient>
	<polygon class="st1" points="33.9,193.3 51.1,154 52.9,149 43,140.3 37.5,130.2 32.4,122.1 33.7,106.3 2.1,142  " />
</g>
<g>
	<path d="M120.7,167.8c0,0-0.2-0.3-0.6-0.9c-0.3-0.6-0.9-1.4-1.5-2.4c-0.3-0.5-0.7-1-1.1-1.5c-0.2-0.3-0.4-0.5-0.6-0.8   c-0.2-0.2-0.5-0.5-0.6-0.5c-0.2,0-0.5,0-0.8,0.1s-0.6,0.2-0.9,0.4c-0.6,0.3-1.3,0.7-1.9,1.1c-0.6,0.4-1.2,0.8-1.8,1.3   c-0.3,0.2-0.5,0.5-0.7,0.7c-0.2,0.3-0.2,0.5-0.3,0.9c-0.1,0.7,0,1.4,0.1,2.1c0.1,0.7,0.3,1.3,0.5,1.8s0.4,1.1,0.6,1.5   s0.4,0.8,0.6,1.1c0.3,0.6,0.5,0.9,0.5,0.9s-0.1-0.1-0.2-0.2c-0.1-0.1-0.3-0.3-0.5-0.6c-0.4-0.6-1-1.4-1.5-2.5   c-0.2-0.6-0.5-1.2-0.7-1.9s-0.3-1.5-0.2-2.3c0-0.4,0.2-0.9,0.4-1.3c0.3-0.4,0.5-0.6,0.8-0.9c0.6-0.5,1.2-0.9,1.8-1.4   c0.6-0.4,1.3-0.8,2-1.1c0.3-0.2,0.7-0.3,1-0.4c0.2-0.1,0.4-0.1,0.6-0.1c0.1,0,0.2,0,0.3,0c0.1,0,0.1,0,0.2,0h0.1h0.1   c0.5,0.2,0.7,0.5,0.9,0.8c0.2,0.3,0.4,0.6,0.6,0.9c0.4,0.6,0.7,1.2,1,1.7c0.6,1.1,1,2,1.2,2.6C120.6,167.4,120.7,167.8,120.7,167.8   z" />
</g>
<g>
	<path d="M129.8,155c0,0-0.2-0.4-0.5-1s-0.8-1.5-1.4-2.5c-0.3-0.5-0.6-1.1-1-1.6c-0.2-0.3-0.4-0.5-0.6-0.8c-0.1-0.1-0.2-0.2-0.3-0.3   l-0.1-0.1h-0.1h-0.1c-0.5-0.1-1.2,0.1-1.8,0.3c-0.6,0.2-1.3,0.6-1.8,1c-0.6,0.4-1.1,0.9-1.6,1.4c-0.2,0.3-0.5,0.5-0.7,0.8   c-0.1,0.1-0.2,0.3-0.3,0.4l-0.1,0.2c0,0.1-0.1,0.2-0.1,0.2c-0.1,0.4,0.1,1.2,0.3,1.8c0.2,0.6,0.5,1.2,0.7,1.8   c0.5,1.1,0.8,2,1.1,2.7c0.2,0.7,0.4,1,0.4,1s-0.2-0.3-0.5-0.9c-0.3-0.6-0.8-1.5-1.4-2.5c-0.3-0.5-0.6-1.1-0.9-1.7   c-0.1-0.3-0.3-0.7-0.4-1.1c-0.1-0.4-0.2-0.8,0-1.4c0-0.1,0.1-0.2,0.1-0.3c0.1-0.2,0.1-0.2,0.2-0.3c0.1-0.2,0.2-0.3,0.3-0.5   c0.2-0.3,0.5-0.7,0.7-1c0.5-0.6,1.1-1.1,1.8-1.5c0.6-0.4,1.3-0.8,2-1s1.4-0.5,2.2-0.3l0.2,0.1l0.1,0.1c0.1,0.1,0.2,0.1,0.3,0.2   c0.2,0.1,0.3,0.3,0.4,0.5c0.2,0.3,0.4,0.6,0.6,0.9c0.3,0.6,0.6,1.2,0.8,1.8c0.5,1.1,0.8,2.1,1.1,2.7   C129.7,154.6,129.8,155,129.8,155z" />
</g>
<path class="st2" d="M4.3,138c2.3-2.9,36.4-43.8,50.2-45.7c10.5-1.5,45,13.7,45,13.7s7.7-0.8,11.8,10.2l10.8,14.7l9.4,25.8  c0,0-0.5,7-8.6,7.3" />
<path class="st3" d="M7.9,137.4" />
<path class="st2" d="M35,121.6c0,0,2.1,16.7,17.3,25.2" />
<path class="st4" d="M33.2,111c0,0-4.2,10.4,4.4,19.2" />
<path class="st2" d="M50.3,142.4l12.5,24.9c0,0,2.9,3.8,8,1.8c3.8-1.5,4.2-3.4,4.2-3.4" />
<path class="st2" d="M66.9,137.2l9.2,26.1c0,0,2.3,4.2,7,1.8c4.6-2.4,4.4-4.7,4.2-6.8c-0.1-2.1-5.7-28.7-5.7-28.7l0.3-3.9" />
<line class="st2" x1="52" y1="152" x2="37.5" y2="183.1" />
<path class="st2" d="M80.1,167.9c0,0-2.3,8.9,5.3,11.6" />
<line class="st2" x1="93.6" y1="168.8" x2="86.5" y2="179.4" />
<path class="st2" d="M98.9,165" />
<path class="st2" d="M100.3,163.3c0,0-2.9,6.9-8.9,7.4" />
<path class="st5" d="M97,145.3c0,0,3.4-7.4,9.8-7.1" />
<path class="st5" d="M99.1,144.7c0,0,6.9-5,7.1-4.8" />
<path class="st5" d="M109.4,134.7c0,0,3.7-4.9,9-5.9" />
<g>
	<path d="M113,172.9c0,0,0.2-0.7,0.8-1.5c0.3-0.4,0.6-0.9,1.1-1.3c0.4-0.4,0.9-0.8,1.4-1.2c0.3-0.2,0.5-0.3,0.8-0.5s0.6-0.2,0.8-0.4   c0.3-0.1,0.5-0.2,0.8-0.3s0.5-0.1,0.7-0.1c0.4-0.1,0.8-0.1,1.1-0.1c0.3,0,0.4,0,0.4,0s-0.1,0.1-0.4,0.2c-0.2,0.1-0.6,0.2-1,0.4   c-0.2,0.1-0.4,0.2-0.6,0.3s-0.5,0.2-0.7,0.4c-0.5,0.3-1,0.6-1.5,0.9c-0.5,0.3-1,0.7-1.4,1c-0.4,0.4-0.8,0.7-1.2,1   C113.5,172.5,113,172.9,113,172.9z" />
</g>
<g>
	<path d="M122.2,159.8c0,0,0.2-0.7,0.8-1.5c0.3-0.4,0.6-0.9,1.1-1.3c0.4-0.4,0.9-0.8,1.4-1.2c0.3-0.2,0.5-0.3,0.8-0.5   s0.6-0.2,0.8-0.4c0.3-0.1,0.5-0.2,0.8-0.3s0.5-0.1,0.7-0.1c0.4-0.1,0.8-0.1,1.1-0.1s0.4,0,0.4,0s-0.1,0.1-0.4,0.2   c-0.2,0.1-0.6,0.2-1,0.4c-0.2,0.1-0.4,0.2-0.6,0.3c-0.2,0.1-0.5,0.2-0.7,0.4c-0.5,0.3-1,0.6-1.5,0.9c-0.5,0.3-1,0.7-1.4,1   c-0.4,0.4-0.8,0.7-1.2,1C122.7,159.3,122.2,159.8,122.2,159.8z" />
</g>
<line class="st2" x1="95.6" y1="115.9" x2="98.6" y2="124.7" />
<path class="st2" d="M85.7,138l12.5,17.3c0,0,8.5,17.7,13.1,22c4.7,4.3,14.5-2.7,11-8.7l-4-6.8l-8.4-20.3l-13.4-19.8" />
<path class="st5" d="M111.4,135.6c0,0,4.8-0.9,8-4.8" />
<g>
	
		<linearGradient id="SVGID_2_" gradientUnits="userSpaceOnUse" x1="163.2936" y1="794.3914" x2="172.3398" y2="772.5558" gradientTransform="matrix(1 0 0 1 0 -616)">
		<stop offset="0" style="stop-color:#FFFFFF" />
		<stop offset="1" style="stop-color:#EDEDED" />
	</linearGradient>
	<polygon class="st6" points="184.7,185.4 196.4,148.1 178.1,145.4 158.4,135 158.8,136.8 151.8,150.8 141.3,172.8  " />
	<line class="st2" x1="184" y1="187.4" x2="200.6" y2="134" />
	<path class="st2" d="M195.9,138.1c0,0,20.1-5.6,39.2-33.9" />
	<path class="st7" d="M234,105.8c0,0,9.1-16.3,24.9-22.5c8.1-3.1,5.4-8.1,5.4-8.1" />
	<path class="st2" d="M143.8,166.9c0,0,18.6-41.2,22.3-48s11.1-40.3,13.1-47.4s2.4-7.5,6.7-10" />
	<path class="st7" d="M217.3,78c0,0-1.8,7.1,1.4,8.9s5.1,1.7,9.9-2.7c4.7-4.4,7-6.5,7-6.5" />
	<g>
		<path d="M199.8,74.5c0.8,0.4,1.6,0.6,2.4,0.9c0.8,0.2,1.6,0.4,2.4,0.5c0.4,0.1,0.8,0.1,1.2,0.2c0.4,0,0.8,0.1,1.2,0.1s0.8,0,1.2,0    h1.2c0.4,0,0.8-0.1,1.2-0.1s0.8-0.1,1.2-0.1l1.2-0.2l1.2-0.3c0.8-0.1,1.6-0.4,2.4-0.7c0.4-0.1,0.8-0.3,1.2-0.4L219,74l0.3-0.1    l0.3,0.1c0.7,0.2,1.4,0.4,2.1,0.5c0.7,0.1,1.4,0.3,2.2,0.4c1.4,0.2,2.9,0.4,4.3,0.4c2.9,0.1,5.8-0.1,8.4-1.2l0.3-0.1l0.3,0.1    c1,0.4,2.1,0.7,3.1,1c1.1,0.3,2.1,0.6,3.2,0.8c2.1,0.4,4.3,0.8,6.4,0.6c1-0.1,2.1-0.3,3-0.8c0.4-0.3,1-0.6,1.4-0.9    s0.9-0.7,1.3-1.1c0.4-0.4,0.8-0.8,1.1-1.3c0.4-0.5,0.7-1,1-1.5c0.6-1.1,1-2.2,1.3-3.4c-0.2,2.5-1.2,5-2.8,6.9    c-0.4,0.5-0.8,0.9-1.3,1.3c-0.5,0.5-0.9,0.8-1.4,1.1c-1.1,0.7-2.2,1-3.4,1.2c-1.1,0.2-2.3,0.2-3.4,0.2c-1.1-0.1-2.3-0.2-3.4-0.4    c-1.1-0.2-2.2-0.4-3.3-0.7c-1.1-0.3-2.2-0.6-3.3-0.9h0.6c-1.5,0.6-3,1-4.6,1.2c-1.5,0.2-3.1,0.2-4.6,0.2c-1.5-0.1-3-0.3-4.5-0.5    c-0.7-0.1-1.5-0.3-2.2-0.5s-1.5-0.4-2.2-0.6h0.5l-1.2,0.4c-0.4,0.1-0.8,0.3-1.2,0.4c-0.8,0.2-1.7,0.4-2.5,0.5l-1.3,0.2l-1.3,0.1    c-0.4,0-0.8,0-1.3,0c-0.4,0-0.9,0-1.3,0l-1.3-0.1c-0.4,0-0.8-0.1-1.3-0.2c-0.4-0.1-0.8-0.2-1.2-0.3c-0.4-0.1-0.8-0.2-1.2-0.3    c-0.8-0.2-1.6-0.6-2.4-0.9C201.2,75.4,200.5,75,199.8,74.5z" />
	</g>
	<g>
		<path d="M205,75c0,0,0.1,0.5,0,1.3c-0.1,0.4-0.2,0.8-0.3,1.3c-0.2,0.4-0.4,0.9-0.6,1.3c-0.3,0.4-0.6,0.8-0.9,1.1    c-0.3,0.3-0.6,0.6-0.9,0.8c-0.3,0.2-0.5,0.3-0.7,0.4s-0.3,0.1-0.3,0.1s0.1-0.1,0.2-0.3s0.3-0.4,0.5-0.7c0.2-0.3,0.4-0.6,0.7-0.9    c0.2-0.3,0.5-0.7,0.7-1.1s0.5-0.8,0.7-1.1c0.2-0.4,0.4-0.7,0.5-1C204.8,75.4,205,75,205,75z" />
	</g>
	<g>
		<path d="M201.8,82.8c0,3.6-0.1,7.1-0.2,10.6c-0.1,3.5-0.2,7.1-0.3,10.6l-0.4,10.6l-0.5,10.6l0,0l0,0c-0.1,0.5-0.2,0.9-0.3,1.3    s-0.3,0.8-0.5,1.2c-0.3,0.8-0.8,1.5-1.2,2.2c-0.9,1.4-2.1,2.5-3.4,3.4c-1.3,0.9-2.7,1.6-4.1,2.1c-0.7,0.2-1.4,0.4-2.2,0.6    c-0.7,0.2-1.5,0.2-2.2,0.3c0.7-0.1,1.4-0.3,2.2-0.5c0.7-0.2,1.4-0.4,2.1-0.7c1.4-0.6,2.7-1.3,3.9-2.2s2.3-2.1,3.1-3.4    c0.4-0.7,0.8-1.4,1.1-2.1c0.2-0.4,0.3-0.7,0.4-1.1c0.1-0.4,0.2-0.8,0.3-1.1l0,0l0.4-10.6l0.5-10.6c0.2-3.5,0.4-7.1,0.6-10.6    C201.3,89.8,201.6,86.3,201.8,82.8z" />
	</g>
	<path class="st4" d="M162.4,137.1c0,0,9.5,9.9,30.7,10.7" />
	<path class="st2" d="M195.3,58.1c0,0,21.6-2.1,25.7-2.4s6.1,0.8,9.8,1.7s17.9,4.8,17.9,4.8" />
	<line class="st2" x1="249" y1="63.2" x2="258.5" y2="67.6" />
	<path class="st2" d="M180.7,62.1c0,0,1.2-9.1,6.5-9.4" />
	<path class="st8" d="M185.3,50.8c0,0,2.2-5.6,6.4-5s35.8,2.8,35.8,2.8l33.7,12.2" />
	<path class="st2" d="M262,61.9l8.7,3.2c0,0,0.2,12.1-13,8.9" />
	<path class="st2" d="M231.7,46.4c2.8-0.7,37,14,37,14" />
	<path class="st9" d="M268.4,60.6l10,3.4c0,0-0.6,11.3-10.5,11.1" />
	<g>
		<path d="M222.4,92.7c0,0,0.2,0.1,0.4,0.3c0.3,0.2,0.6,0.6,1,1c0.4,0.5,0.8,1,1.2,1.6s0.8,1.3,1.2,2.1c0.4,0.7,0.7,1.5,1,2.2    s0.6,1.4,0.8,2c0.4,1.2,0.6,2,0.6,2s-0.4-0.7-1-1.8c-0.3-0.5-0.6-1.2-1-1.8c-0.4-0.7-0.7-1.4-1.1-2.1c-0.4-0.7-0.7-1.4-1.1-2.1    c-0.4-0.7-0.7-1.3-1-1.8C222.9,93.4,222.4,92.7,222.4,92.7z" />
	</g>
	<g>
		<path d="M237.8,79.9c0,0,0.4,0.4,0.9,1.1s1.1,1.7,1.7,2.7c0.5,1,1,2.1,1.3,2.9s0.5,1.4,0.5,1.4s-0.4-0.4-0.9-1.1s-1.1-1.7-1.7-2.7    c-0.5-1-1-2.1-1.3-2.9C237.9,80.5,237.8,79.9,237.8,79.9z" />
	</g>
	<g>
		<path d="M223,55.7c0,0,0.1,0.5,0.3,1.3c0.1,0.8,0.3,1.8,0.4,2.9c0.1,1,0.3,2.1,0.4,2.8c0.1,0.4,0.1,0.7,0.1,0.9s0,0.4,0,0.4    s-0.1-0.1-0.2-0.3c-0.1-0.2-0.3-0.5-0.5-0.8c-0.2-0.4-0.3-0.8-0.5-1.3c-0.1-0.5-0.2-1-0.3-1.6c-0.1-1.1-0.1-2.2,0-3    C222.8,56.2,223,55.7,223,55.7z" />
	</g>
	<path class="st10" d="M225.7,57.1c0,0-0.3,5.1-0.6,8.1" />
	<g>
		<path d="M248.8,64.6c0,0,0.3,0.8,0.8,2s1.3,2.7,2.5,3.7c0.3,0.3,0.6,0.5,0.9,0.7c0.3,0.2,0.6,0.3,0.9,0.3c0.5,0,1.1-0.4,1.5-0.8    c0.5-0.4,0.8-0.8,1.1-1c0.3-0.2,0.5-0.3,0.5-0.3s-0.1,0.2-0.3,0.5c-0.2,0.3-0.5,0.8-0.9,1.3c-0.2,0.3-0.4,0.5-0.7,0.8    s-0.7,0.5-1.2,0.5s-0.9-0.2-1.3-0.4c-0.4-0.2-0.7-0.5-1-0.8c-1.3-1.2-2-3-2.3-4.3C248.9,65.5,248.8,64.6,248.8,64.6z" />
	</g>
	<g>
		<path d="M259.6,63.3c0,0,0.6,0.6,1.4,1.5c0.4,0.4,0.9,1,1.5,1.5s1.2,1,1.8,1.4c0.3,0.2,0.6,0.3,1,0.3c0.3,0,0.6,0,0.8-0.2    c0.6-0.4,1.2-0.8,1.8-1.1c1.1-0.6,1.8-0.9,1.8-0.9s-0.6,0.6-1.5,1.4c-0.5,0.4-1,0.9-1.6,1.3c-0.3,0.3-0.9,0.5-1.3,0.4    c-0.5,0-0.9-0.2-1.3-0.4c-0.8-0.4-1.4-1-1.9-1.6s-1-1.2-1.3-1.8C260,64.1,259.6,63.3,259.6,63.3z" />
	</g>
	<path class="st10" d="M272.7,66.6c1.4,0.2,2.6-2.4,3.8-3.3" />
	<g>
		<path d="M195.9,78.2c0,0,0.5,0.2,1.1,0.4c0.6,0.3,1.5,0.6,2.4,1s1.7,0.8,2.4,1c0.3,0.2,0.6,0.3,0.8,0.4s0.3,0.2,0.3,0.2    s-0.5,0.1-1.2,0s-1.7-0.3-2.6-0.7c-0.9-0.4-1.7-0.9-2.3-1.4C196.2,78.6,195.9,78.2,195.9,78.2z" />
	</g>
	<path class="st11" d="M205.9,45.2c11.6-0.5,29.1,1.7,29.1,1.7" />
</g>
<g>
	
		<linearGradient id="SVGID_3_" gradientUnits="userSpaceOnUse" x1="513.9054" y1="346.8548" x2="523.985" y2="322.5247" gradientTransform="matrix(0.8262 0.5634 -0.5634 0.8262 38.4034 -398.5)">
		<stop offset="0" style="stop-color:#FFFFFF" />
		<stop offset="1" style="stop-color:#EDEDED" />
	</linearGradient>
	<polygon class="st12" points="280.2,203.5 309.1,166.2 299.6,151.5 289.8,128.9 289.3,130.6 276.7,137.7 256.3,154.8  " />
	<path class="st2" d="M264.6,146.8l33.1-24.6c0,0,10.7-26.4,23.5-41.7c0,0,11.4-24,13.2-33.2" />
	<path class="st7" d="M333.1,51l0.6-12.9c0,0,4.4-3.3,8.3,2.5s2.8,16.9,1.1,22c-1.7,5.1-5.1,11.9-4.6,15.7" />
	<path class="st2" d="M330,79.3c0,0,31.7-9.1,34.8-9.7c3-0.6,30.5-5.4,33.9-5s7.9,0.3,7.7,7.7c-0.1,5.1-3.6,6.3-10.6,7.2   c-7,0.9-27.8,5.7-27.8,5.7" />
	<polyline class="st2" points="373.1,84.4 345.4,95.3 343.2,97.3  " />
	<path class="st2" d="M368.4,89.2c0,0,5.8,0.2,5.6,5.8c-0.3,5.5-1.6,6.4-4.5,8.2c-3,1.8-15.2,9.5-15.2,9.5l-1.9,2.3" />
	<path class="st2" d="M370.2,105.4c0,0,4.8,0.7,4.5,7s-3.2,7.9-7.7,10.8s-12,9.3-12,9.3" />
	<path class="st2" d="M369.9,124.9c0,0,3.8,3.9,1.7,7.9s-17.1,14.7-17.1,14.7" />
	<path class="st2" d="M359.6,143.9c0,0-23.6,16.8-48.3,18.8" />
	<line class="st2" x1="315.4" y1="160.4" x2="284.7" y2="198.8" />
	<path class="st4" d="M292.4,129.7c0,0,1.4,17.3,16,35.1" />
	<g>
		<path d="M334.4,49c0,0,0.1-0.6,0.4-1.5c0.2-0.9,0.6-2.1,0.8-3.2c0.3-1.2,0.5-2.3,0.4-3.2c0-0.4-0.1-0.8-0.3-1    c-0.1-0.2-0.2-0.3-0.2-0.3s0.1,0,0.3,0.2c0.2,0.2,0.5,0.5,0.6,1c0.3,1,0.2,2.3-0.1,3.6c-0.3,1.2-0.8,2.4-1.2,3.2    C334.8,48.5,334.4,49,334.4,49z" />
	</g>
	<g>
		<path d="M364.1,73.1c0,0,0,0.8,0,1.9c0,0.6,0,1.2,0.1,1.9c0.1,0.7,0.1,1.4,0.2,2.2c0.1,0.4,0.1,0.7,0.2,1.1s0.1,0.7,0.2,1    s0.2,0.7,0.3,1c0.1,0.3,0.2,0.6,0.3,0.9c0.1,0.3,0.2,0.5,0.3,0.7c0.1,0.2,0.2,0.4,0.2,0.5c0.1,0.3,0.2,0.5,0.2,0.5    s-0.1-0.1-0.3-0.4c-0.2-0.2-0.5-0.6-0.8-1.1c-0.2-0.2-0.3-0.5-0.4-0.8s-0.3-0.6-0.4-1c-0.3-0.7-0.4-1.5-0.5-2.2    c-0.1-0.8-0.2-1.6-0.1-2.3c0-0.7,0.1-1.4,0.2-2C363.8,73.8,364.1,73.1,364.1,73.1z" />
	</g>
	<path class="st13" d="M365,74.2c0,0,1,5.2,1.4,8.3" />
	<g>
		<path d="M402.3,67.3c0,0,0.1-0.1,0-0.2c0-0.2-0.3-0.2-0.5-0.2c-0.5,0-1.3,0.3-2.2,0.6c-0.9,0.4-1.9,0.8-2.9,1.5    c-0.2,0.2-0.4,0.3-0.5,0.5s-0.1,0.5-0.1,0.8c0,0.6,0.1,1.3,0.3,2c0.2,0.7,0.3,1.4,0.5,2.1l0.1,0.5c0,0.1,0.1,0.3,0.1,0.5    c0.1,0.2,0.2,0.4,0.4,0.6c0.3,0.3,0.9,0.5,1.4,0.6s1,0.2,1.5,0.2c1.9,0.1,3.1,0.2,3.1,0.2s-0.3,0.1-0.9,0.1    c-0.6,0.1-1.3,0.2-2.3,0.2c-0.5,0-1,0-1.6,0c-0.6-0.1-1.2-0.2-1.8-0.7c-0.3-0.3-0.5-0.6-0.7-1c-0.1-0.2-0.1-0.3-0.1-0.5l-0.1-0.5    c-0.1-0.7-0.3-1.4-0.5-2.1c-0.1-0.7-0.3-1.4-0.3-2.2c0-0.4,0-0.8,0.2-1.2c0.2-0.4,0.5-0.7,0.8-0.9c0.6-0.4,1.1-0.6,1.6-0.8    c0.5-0.2,1-0.3,1.5-0.5c0.9-0.2,1.7-0.3,2.3-0.3c0.3,0,0.5,0.1,0.6,0.3C402.4,67.3,402.3,67.3,402.3,67.3z" />
	</g>
	<g>
		<path d="M403.1,67.3c0,0,0.4,0.4,0.8,1.1s0.8,1.8,1,2.9c0.1,0.3,0.1,0.6,0.1,0.8c0,0.3,0,0.6,0,0.8c0,0.3,0,0.5,0,0.8    c0,0.2,0,0.5-0.1,0.7c0,0.4-0.1,0.8-0.2,1s-0.1,0.4-0.1,0.4s0-0.1-0.1-0.4c0-0.2-0.1-0.6-0.1-1c-0.1-0.8-0.2-1.9-0.4-2.9    c-0.1-0.5-0.2-1.1-0.3-1.5c-0.1-0.5-0.2-1-0.3-1.4C403.3,67.8,403.1,67.3,403.1,67.3z" />
	</g>
	<path class="st5" d="M386.8,70.2c0,0-0.1,2.8,0.8,7" />
	<path class="st13" d="M351.2,105c0,0-1.5,5.9-9.9,5.5" />
	<path class="st13" d="M356.3,123.5c0,0-0.5,6.2-8.2,6.8" />
</g>
<g>
	
		<linearGradient id="SVGID_4_" gradientUnits="userSpaceOnUse" x1="424.3785" y1="801.5553" x2="434.5889" y2="776.9094" gradientTransform="matrix(1 0 0 1 0 -616)">
		<stop offset="0" style="stop-color:#FFFFFF" />
		<stop offset="1" style="stop-color:#EDEDED" />
	</linearGradient>
	<polygon class="st14" points="451.8,191.4 461.3,151.2 441.5,149.2 419.9,140.2 420.3,142 412.6,154.8 397.5,178.4  " />
	<path class="st4" d="M424.5,141.6c0,0,13.1,10.1,34.3,9.2" />
	<path class="st2" d="M400.8,175.4c0-1,22.3-37,23-41.9c0.8-4.9,12.1-70.1,12.1-70.1" />
	<path class="st2" d="M434.7,63.3c0,0-1.9-9.6,4.4-12.3" />
	<g>
		<path class="st2" d="M443,60.7l22.6-13c1.2-0.7,3.3-0.8,4.5-0.3l15.4,6.3c1.3,0.5,2.8,2.1,3.4,3.5l2.1,4.9" />
	</g>
	<path class="st2" d="M443.4,48.9l27.9-15.6c1.2-0.7,3.2-0.5,4.3,0.3L494,47.7c1.1,0.9,2.6,2.7,3.2,4.1l2,4.2" />
	<path class="st15" d="M481.7,25.3l4.1-0.4c1.4-0.1,3.2,0.7,4.2,1.8l9.4,11.3c0.9,1.1,2.1,3.2,2.6,4.7l1.4,3.8" />
	<path class="st2" d="M439.8,50.3l32.5-26.5c1.1-0.9,2.9-0.9,4,0.1l20.2,17.2c1.1,0.9,2.5,2.8,3.2,4.2l2.8,6.1" />
	<path class="st2" d="M458,72.7c0,0,4.5-0.9,7.6-6.3" />
	<path class="st2" d="M464.3,65.6c0,0,6.9,3.1,14.7,1.7" />
	<path class="st2" d="M476.3,65.8c0,0,10.4,15.4,19.3,4l-4.7-6.9" />
	<path class="st2" d="M496.4,71.4c0,0,4.8,1.3,7.6-5.8l-5-7.6" />
	<path class="st2" d="M502.8,52.4l3.8,8c0,0-1.4,3.1-2.5,3.3" />
	<path class="st2" d="M477.3,70.9l3.5,9.7c0,0,2.6,2.2,6.6,2.2" />
	<line class="st2" x1="484.9" y1="84.7" x2="494.1" y2="76.7" />
	<path class="st2" d="M493.9,73.2c0,0,0.8,4.2,1.1,5.9" />
	<g>
		<path d="M462.1,72.3c0,0,0.2,0.1,0.4,0.6c0.1,0.2,0.2,0.5,0.2,0.8c0.1,0.3,0.1,0.7,0.1,1c0,0.4,0,0.8,0,1.2c0,0.4-0.1,0.9-0.1,1.4    c-0.1,0.5-0.1,1-0.3,1.4c-0.1,0.5-0.2,1-0.4,1.5c-0.3,1-0.6,1.9-0.9,2.8c-0.2,0.4-0.3,0.8-0.5,1.2c-0.2,0.4-0.3,0.8-0.5,1.1    c-0.3,0.7-0.6,1.2-0.8,1.6c-0.2,0.4-0.3,0.6-0.3,0.6s0.1-0.2,0.2-0.7c0.1-0.4,0.3-1,0.5-1.7s0.4-1.5,0.7-2.4    c0.2-0.9,0.5-1.8,0.8-2.8c0.1-0.5,0.3-0.9,0.4-1.4s0.2-0.9,0.3-1.4c0.1-0.4,0.2-0.9,0.3-1.3c0-0.4,0.1-0.8,0.1-1.2    c0.1-0.7,0.1-1.3,0-1.8C462.2,72.5,462.1,72.3,462.1,72.3z" />
	</g>
	<g>
		<path d="M459.2,83.7c0,0,0.1,0.9,0.2,2.4c0.1,1.6,0.2,3.8,0.3,6.4c0.1,2.7,0.2,5.8,0.3,9.1c0.1,3.3,0.1,6.9,0.1,10.5    c0,1.8-0.1,3.6-0.1,5.3c0,0.9-0.1,1.8-0.1,2.6c-0.1,0.9-0.1,1.7-0.4,2.6c-0.5,1.7-1.3,3.1-2.1,4.3c-0.8,1.2-1.7,2.3-2.5,3.3    c-1.7,1.9-3.2,3.3-4.3,4.2c-0.6,0.5-1,0.8-1.3,1s-0.5,0.3-0.5,0.3s0.2-0.1,0.5-0.4c0.3-0.2,0.7-0.6,1.2-1.1c1.1-1,2.5-2.5,4.1-4.4    c0.8-1,1.6-2.1,2.4-3.3c0.8-1.2,1.5-2.6,1.9-4.1c0.2-0.7,0.3-1.6,0.3-2.4c0.1-0.8,0.1-1.7,0.1-2.6c0-1.7,0.1-3.5,0.1-5.3    c0-3.6,0-7.1,0-10.4s0-6.5,0-9.1c0-2.7,0-4.9,0-6.5C459.2,84.6,459.2,83.7,459.2,83.7z" />
	</g>
	<g>
		<path d="M445,133c0,0,0.2-0.1,0.5-0.3s0.8-0.5,1.3-0.9s1.2-0.8,1.9-1.2c0.7-0.4,1.4-0.9,2.2-1.3c0.7-0.4,1.5-0.9,2.2-1.3    c0.7-0.4,1.3-0.8,1.8-1.2c0.5-0.4,1-0.7,1.3-0.9c0.3-0.2,0.5-0.4,0.5-0.4s-0.1,0.2-0.4,0.5c-0.1,0.2-0.3,0.4-0.5,0.6    s-0.4,0.5-0.6,0.7c-0.5,0.5-1.1,1-1.7,1.5c-0.7,0.5-1.4,1-2.1,1.4c-1.5,0.9-3.1,1.7-4.2,2.1c-0.6,0.2-1.1,0.4-1.5,0.5    C445.2,133,445,133,445,133z" />
	</g>
	<g>
		<path d="M478.9,75.3c0,0,0.1,0.3,0.3,1c0.2,0.6,0.5,1.5,0.8,2.5c0.6,2.1,1.4,5,2.1,7.8c0.7,2.9,1.3,5.8,1.6,8    c0.2,1.1,0.3,2,0.4,2.7c0.1,0.6,0.1,1,0.1,1s-0.4-1.4-1-3.5s-1.3-5-2-7.8c-0.7-2.9-1.3-5.8-1.7-7.9c-0.2-1.1-0.3-2-0.5-2.6    C479,75.7,478.9,75.3,478.9,75.3z" />
	</g>
	<path class="st2" d="M502.9,45.1L507,54c0,0-0.9,1.4-1.9,1.4" />
	<path class="st2" d="M507.7,55.6c0,0,3.7,0.7,0.7,12.6" />
	<g>
		<path d="M508.9,68.7c0,0,0.2,0.5,0.5,1.3c0.2,0.4,0.3,0.9,0.5,1.5s0.4,1.3,0.5,2.1c0.2,0.8,0.3,1.6,0.4,2.5S511,78,511,79    c0,0.5,0,1-0.1,1.6c0,0.5-0.1,1.1-0.2,1.6c-0.2,1.1-0.5,2.1-1,3.2c-0.3,0.5-0.6,0.9-0.9,1.4c-0.3,0.4-0.6,0.8-0.9,1.1    c-0.7,0.8-1.3,1.4-2,2.1c-1.3,1.3-2.6,2.3-3.8,3.2c-2.3,1.7-4,2.5-4,2.5s1.4-1.4,3.4-3.4c1-1,2.2-2.2,3.4-3.6    c0.6-0.7,1.2-1.4,1.8-2.1c0.3-0.4,0.6-0.7,0.9-1.1c0.2-0.4,0.5-0.7,0.7-1.1c0.4-0.8,0.7-1.7,0.9-2.6c0.1-0.5,0.2-0.9,0.2-1.4    c0.1-0.5,0.1-0.9,0.1-1.4s0-0.9,0.1-1.4c0-0.4,0-0.9,0-1.3c0-0.9-0.1-1.7-0.1-2.4c-0.1-1.5-0.3-2.8-0.4-3.7    C509,69.2,508.9,68.7,508.9,68.7z" />
	</g>
	<g>
		<path d="M498.9,92.4c0,0-0.2,1-0.7,2.6c-0.3,0.8-0.6,1.8-1.1,2.9c-0.4,1.1-1,2.3-1.6,3.6c-0.6,1.3-1.3,2.7-2.1,4.1    c-0.8,1.4-1.7,2.9-2.7,4.4c-0.9,1.5-2,3-3.1,4.5s-2.3,2.9-3.5,4.4c-1.2,1.4-2.5,2.7-3.8,4.1c-1.3,1.3-2.6,2.5-3.9,3.6    s-2.6,2.1-3.8,3.1c-1.2,1-2.4,1.8-3.5,2.5c-1.1,0.8-2.1,1.5-3.1,2c-0.9,0.5-1.8,1-2.4,1.4c-1.4,0.8-2.1,1.2-2.1,1.2s0.7-0.6,2-1.5    c0.6-0.5,1.4-1,2.3-1.7c0.9-0.6,1.8-1.5,2.9-2.3c0.5-0.4,1.1-0.9,1.6-1.3c0.6-0.5,1.2-0.9,1.7-1.5c1.1-1,2.4-2.1,3.6-3.3    c1.2-1.2,2.4-2.5,3.7-3.7c1.2-1.3,2.4-2.7,3.7-4c1.2-1.4,2.4-2.8,3.5-4.2c1.1-1.4,2.2-2.8,3.2-4.3c1-1.4,1.9-2.8,2.8-4.2    c0.5-0.7,0.8-1.4,1.2-2c0.4-0.7,0.8-1.3,1.1-1.9c0.7-1.2,1.3-2.4,1.8-3.4s1-1.9,1.3-2.7c0.3-0.8,0.6-1.4,0.8-1.8    C498.9,92.6,498.9,92.4,498.9,92.4z" />
	</g>
	<line class="st2" x1="465.7" y1="130.5" x2="453.3" y2="188.2" />
	<g>
		<path d="M489.6,64.1c0,0-0.3,0.5-0.7,1.2c-0.2,0.4-0.3,0.8-0.3,1.3c0,0.2,0,0.4,0.1,0.7c0,0.2,0.1,0.4,0.3,0.6    c0.1,0.2,0.3,0.5,0.4,0.7s0.3,0.4,0.4,0.6c0.3,0.4,0.6,0.8,0.8,1.1c0.5,0.6,0.9,1,0.9,1s-0.5-0.1-1.2-0.6    c-0.3-0.2-0.7-0.6-1.1-0.9c-0.2-0.2-0.4-0.4-0.5-0.6c-0.2-0.3-0.3-0.4-0.5-0.7c-0.2-0.3-0.3-0.6-0.3-1c-0.1-0.3,0-0.7,0-1    s0.2-0.6,0.3-0.8c0.1-0.2,0.3-0.4,0.4-0.6C489.1,64.3,489.6,64.1,489.6,64.1z" />
	</g>
	<g>
		<path d="M497.5,59c0,0-0.2,0.1-0.5,0.3s-0.7,0.6-0.8,1.1c-0.1,0.3-0.1,0.6-0.1,0.9c0,0.3,0.1,0.7,0.3,1c0.1,0.4,0.3,0.8,0.4,1.2    s0.3,0.8,0.4,1.2c0.3,0.8,0.6,1.6,1.1,1.9c0.2,0.2,0.5,0.3,0.8,0.3s0.6,0,0.9,0c0.6-0.1,1-0.2,1.4-0.3c0.3-0.1,0.5-0.1,0.5-0.1    s-0.2,0.1-0.5,0.3c-0.2,0.1-0.3,0.2-0.6,0.3c-0.2,0.1-0.5,0.2-0.8,0.3c-0.3,0.1-0.6,0.2-1,0.2s-0.8-0.1-1.2-0.3    c-0.4-0.3-0.7-0.6-0.9-1.1c-0.2-0.4-0.4-0.8-0.6-1.3c-0.3-0.9-0.5-1.7-0.7-2.5c-0.1-0.4-0.2-0.9-0.2-1.3c0-0.4,0.1-0.9,0.3-1.2    c0.3-0.7,0.9-1,1.2-1.1C497.3,58.9,497.5,59,497.5,59z" />
	</g>
	<path class="st13" d="M501.7,53.3c0,0-0.9,0.8-1.6,2.2" />
	<g>
		<path d="M502.9,61.9c0,0,0.1-0.2,0.3-0.5c0.2-0.3,0.5-0.6,0.8-0.8c0.3-0.3,0.6-0.5,0.8-0.8c0.1-0.1,0.2-0.2,0.3-0.3    c0.1-0.1,0.1-0.1,0.1-0.1s0.1,0.3,0,0.6c-0.1,0.4-0.4,0.8-0.7,1.1c-0.3,0.3-0.7,0.5-1,0.6C503.1,61.9,502.9,61.9,502.9,61.9z" />
	</g>
	<g>
		<path d="M464.9,71.5c0,0,0,0,0.1,0.1s0.2,0.3,0.2,0.5c0.1,0.2,0.1,0.5,0.1,0.8s0,0.7,0,1.1c-0.1,0.8-0.2,1.7-0.5,2.7    c-0.2,1-0.6,2-1,2.9c-0.7,1.9-1.7,3.8-2.4,5.1c-0.4,0.7-0.7,1.2-1,1.6c-0.2,0.4-0.4,0.6-0.4,0.6s0.1-0.3,0.2-0.7    c0.2-0.4,0.4-1,0.7-1.7c0.3-0.7,0.6-1.6,1-2.4c0.3-0.9,0.7-1.8,1.1-2.8c0.2-0.5,0.4-0.9,0.5-1.4c0.2-0.5,0.3-0.9,0.5-1.4    c0.3-0.9,0.5-1.8,0.7-2.5c0.1-0.4,0.1-0.7,0.2-1c0-0.3,0-0.6,0-0.8c0-0.2,0-0.4-0.1-0.5C464.9,71.6,464.9,71.5,464.9,71.5z" />
	</g>
</g>
</svg>
