<?xml version="1.0" encoding="UTF-8"?>
<!-- Generator: Adobe Illustrator 25.2.1, SVG Export Plug-In . SVG Version: 6.00 Build 0)  -->
<svg xmlns="http://www.w3.org/2000/svg" xmlns:xlink="http://www.w3.org/1999/xlink" version="1.1" id="Lager_1" x="0px" y="0px" width="274.667px" height="226.771px" viewBox="0 0 274.667 226.771" style="enable-background:new 0 0 274.667 226.771;" xml:space="preserve"><rect fill="#FFFFFF" x="0px" y="0px" width="274.667px" height="226.771px" />
<style type="text/css">
	.st0{fill:#FFFFFF;}
	.st1{fill:url(#SVGID_1_);}
	.st2{fill:url(#SVGID_2_);}
	.st3{fill-rule:evenodd;clip-rule:evenodd;fill:#FFFFFF;}
	.st4{fill-rule:evenodd;clip-rule:evenodd;}
	.st5{fill:none;stroke:#000000;stroke-width:1.14;}
	.st6{fill:none;stroke:#000000;stroke-width:1.235;}
	.st7{fill:none;stroke:#000000;stroke-width:0.969;}
	.st8{fill:none;stroke:#000000;stroke-width:0.7125;}
	.st9{fill:none;stroke:#000000;stroke-width:2;}
</style>
<rect y="0" class="st0" width="274.667" height="226.771" />
<g id="Färg_1_">
	<linearGradient id="SVGID_1_" gradientUnits="userSpaceOnUse" x1="127.0847" y1="179.8923" x2="169.3598" y2="162.718">
		<stop offset="0" style="stop-color:#FFFFFF" />
		<stop offset="1" style="stop-color:#DADADA" />
	</linearGradient>
	<polygon class="st1" points="136.881,210.171 154.158,176.222 161.369,163.017 160.64,160.607 152.745,156.275 146.667,150.719    145.314,138.228 120.787,162.411  " />
</g>
<g id="Färg_2_">
	<linearGradient id="SVGID_2_" gradientUnits="userSpaceOnUse" x1="13.1016" y1="184.4284" x2="48.1107" y2="164.9422">
		<stop offset="0" style="stop-color:#FFFFFF" />
		<stop offset="1" style="stop-color:#DADADA" />
	</linearGradient>
	<polygon class="st2" points="25.719,215.745 39.604,185.816 48.741,168.047 42.449,164.476 34.656,156.275 27.225,138.228    2.697,162.411  " />
</g>
<g id="Lager_2_1_">
	<path class="st3" d="M27,139.053c0,0,4.667-5.667,5.667-6.667s7.667-15,7.667-16s9-20.667,9.333-22.667s1-4,3.667-5   s25-7.667,27.667-8.333s12-1,15.667-1s21,1.333,21,1.333s3,5.667,2.667,6.667s0,1.667-2.333,2.667s-10.666,3.333-12.333,3.333   S93,95.052,93,95.052s3,1,3,5.667s-0.667,7-0.667,7s2.333,3,2.333,5.667s-0.334,5.667-1.667,7.667s0-0.666,0.333,3s1,5.666-1,8.666   s-6,6.334-7.667,7.334s-10.667,3-10.667,3l-0.667,2.666c0,0-0.667,6.666-8,11s-15,6-15,6l-3,5l-5.333-1l-8.333-7.333l-7-9.333   L27,139.053z" />
	<path class="st3" d="M145.333,139.386c0,0,6-7,8.333-11s10-22.667,10-22.667s2.333-10,5-14.667s3-7.333,5.667-8.667   s5.333-1,5.333-1s2.667-5,5-5.667S213,75.386,214,75.386s24.333,7.667,24.333,7.667s5.333,1.667,6.667,2.667s2.667,2.333,2,3.667   s-4,3-4.333,4s3,1.667,3,4.333s-1,6.333-3,6.333s-7,1-7,1s0,6-2.667,6.333s-5.333,1-6.667,1s-6-1-6.667,0s-2,4.667-6,5.667   S203,118.386,203,118.386s-3,9-7.333,14s-12.667,10.001-15,10.667s-1.667-0.334-4,2.666s-4.667,5.334-7.333,6.334s-5.667,6-5.667,6   l-1,2.666c0,0-5.667-0.666-9-2.333s-6.667-6.334-7-7.667S145,144.053,145,144.053L145.333,139.386z" />
</g>
<g>
	<path class="st3" d="M69.375,61.896c0.056,0.258,0.383,0.34,0.623,0.291c0.133,0.145,0.357,0.197,0.457,0.375   c0.689,0.084,0.847,0.703,1.453,0.871c0.16,0.324,0.502,0.467,0.664,0.789c0.062,0.004,0.188,0.055,0.292,0.125   c0.313,0.395,0.645,0.939,1.079,1.328c0.008,0.118,0.076,0.173,0.082,0.291c0.258,0.096,0.252,0.387,0.376,0.623   c0.015,0.031,0.146,0.075,0.165,0.125c0.018,0.043-0.025,0.127,0,0.166c0.156,0.242,0.45,0.484,0.54,0.748   c0.02,0.059-0.026,0.148,0,0.208c0.111,0.251,0.339,0.474,0.415,0.747c0.103,0.37,0.139,0.803,0.332,1.204   c0.137,0.282,0.283,0.485,0.29,0.747c0.004,0.124-0.056,0.251-0.04,0.373c0.049,0.412,0.238,0.847,0.248,1.246   c0.006,0.268-0.136,0.465,0.125,0.623c-0.135,0.165,0.031,0.379-0.125,0.498c0.012,0.086,0.154,0.04,0.166,0.125   c0.023,0.398,0.097,0.838-0.082,1.121c0.295,1.109-0.057,2.354,0.082,3.197c-0.287,1.207-0.521,2.48-0.414,3.779   c0.07,0.164,0.287,0.183,0.332,0.375c-2.109,0.428-4.135,0.9-6.188,1.286c-0.061,0.009-0.015,0.124-0.083,0.126   c-1.751,0.385-3.348,0.742-5.024,1.162c-0.326,0.082-0.7,0.139-0.997,0.25c-0.573,0.213-1.889,0.504-2.74,0.787   c-0.316,0.106-0.865,0.239-1.162,0.458c-0.395-0.099-0.512,0.134-0.916,0.165c0.896-0.299,1.24-1.307,1.744-2.076   c0.387-0.586,0.6-1.246,0.873-1.91c0.082-0.001,0.053-0.113,0.166-0.084c-0.027-0.248,0.17-0.271,0.124-0.539   c0.063-0.021,0.105-0.062,0.167-0.082c-0.064-0.395,0.255-0.625,0.414-0.955c0.09-0.186,0.048-0.406,0.126-0.623   c0.093-0.26,0.3-0.508,0.415-0.79c0.115-0.28,0.168-0.616,0.291-0.913c0.106-0.263,0.303-0.512,0.373-0.746   c0.123-0.414,0.108-0.716,0.209-1.123c0.057-0.232,0.207-0.429,0.248-0.664c0.078-0.447,0.047-0.926,0.291-1.246   c0.182,0.108,0.205,0.377,0.54,0.333c0.189-0.227,0.416-0.414,0.663-0.581c0.081-1.049-0.321-2.297-0.373-3.281   c0.037-0.134-0.137-0.058-0.125-0.166c-0.331-1.786-0.492-4.279-0.582-5.98c0.269-0.936,0.334-2.18,1.039-2.783   c0.236,0.016,0.375-0.068,0.499-0.165c0.293,0.03,0.446-0.081,0.623-0.166C67.893,61.575,68.639,61.84,69.375,61.896z" />
	<path class="st3" d="M121.118,83.034c-0.042,0.386-0.017,0.604,0.167,0.83c0.008,0.104-0.093,0.102-0.124,0.166   c0.163,1.568-0.24,3.495-1.08,4.195c-0.194-0.004,0.03-0.076,0.042-0.125c-0.096-0.093-0.256,0.104-0.374,0.125   c-0.519-0.001-0.991-0.039-1.537,0c-0.214,0.016-0.491-0.104-0.665-0.082c-0.217,0.026-0.526,0.173-0.871,0.124   c-0.092-0.015-0.162-0.103-0.25-0.124c-0.17-0.049-0.357,0.018-0.539,0c-0.756-0.083-1.536-0.291-2.16-0.5   c0.016-0.449-0.358-1.074-0.29-1.578c0.036-0.133-0.138-0.057-0.124-0.166c-0.131-1.508,0.086-3.234-0.498-4.734   c0.121-0.086,0.139-0.273,0.248-0.373c0.961-0.059,2.043-0.076,3.115-0.125c0.896-0.041,1.867-0.256,2.615-0.125   c0.426,0.075,1.323,0.602,1.578,0.955c0.281,0.391,0.367,0.955,0.539,1.453C120.943,82.992,121.057,82.936,121.118,83.034z" />
	<path class="st4" d="M86.941,84.28c-0.23,0.048-0.24-0.146-0.416-0.041C86.488,83.76,87.019,83.89,86.941,84.28z" />
	<path class="st4" d="M86.734,84.321c0.116,0.131,0.131,0.424,0.123,0.664c0.008,0.076,0.142,0.027,0.166,0.084   c0.111,0.715,0.386,2.162,0.25,3.031c0.14,0.124,0.188,0.338,0.166,0.623c-0.205,0.081-0.246-0.031-0.416-0.083   c0.029-0.597-0.24-1.312,0.043-1.577c-0.504-0.409-0.182-1.26-0.375-1.786c-0.007-0.091,0.035-0.134,0.126-0.125   c-0.073-0.081-0.186-0.119-0.249-0.208C86.605,84.646,86.532,84.474,86.734,84.321z" />
	<path class="st4" d="M87.98,92.005c0.04,0.127,0.021,0.507-0.209,0.496c-0.032-0.076-0.068-0.15-0.082-0.248   C87.877,92.261,87.805,92.011,87.98,92.005z" />
	<path class="st4" d="M49.732,99.188c0.076,0.465,0.601,0.654,0.58,1.08c0.848,1.021,1.057,3.125,0.582,4.484   c-0.129,0.931-0.162,2.013-0.206,2.781c0.035,0.135-0.108,0.088-0.125,0.166c0.095,0.284,0.033,1.02-0.083,1.371   c0.033,0.755,0.016,1.434,0.166,2.201c0.221,1.131,0.611,2.118,0.954,3.116c0.372,0.485,0.706,1.104,1.038,1.702   c0.342,0.609,0.886,1.316,0.832,2.242c0.205,0.223,0.203,0.654,0.372,0.914c0.034,1.566,0.092,3.048-0.124,4.567   c0.008,0.09-0.033,0.132-0.125,0.126c-0.01,0.148,0.125,0.15,0.125,0.289c-0.014,0.652,0.015,1.131,0,1.91   c0.611,2.254,1.084,4.592,2.699,5.98c0.404,0.784,1.097,1.299,1.328,2.242c0.057,0.229-0.035,0.432,0.168,0.582   c0.016,1.023,0.023,1.771,0.248,2.616c-0.196,0.564,0.397,1.232,0.208,1.578c0.304,0.277,0.244,0.919,0.624,1.121   c0.012,0.353,0.387,0.548,0.33,0.831c0.231,0.28,0.537,0.486,0.665,0.871c0.223,0.211,0.607,0.468,0.623,0.748   c-0.335,0.12-0.625-0.145-0.623-0.498c-0.165-0.078-0.181-0.06-0.331-0.166c-0.033-0.094,0.02-0.23-0.084-0.334   c-0.681-0.41-0.986-1.199-1.287-1.992c-0.018-0.093-0.219-0.001-0.249-0.082c-0.067-0.567-0.724-0.73-0.581-1.371   c-0.01-0.061-0.125-0.015-0.125-0.084c-0.156-0.814-0.32-1.787-0.291-2.574c0.037-0.133-0.137-0.057-0.125-0.166   c-0.137-0.791-0.307-1.547-0.83-1.951c-0.076-0.514-0.533-0.731-0.83-1.039c-0.254-0.26-0.32-0.705-0.705-0.83   c-0.044-0.346-0.24-0.535-0.416-0.748c-0.189-0.807-0.686-1.529-0.748-2.325c-0.802-1.659-0.847-3.693-0.664-5.398   c0.083-0.776,0.129-1.519,0.042-2.076c0.109-1.718-0.341-3.005-0.997-4.319c-0.014-0.057-0.104-0.033-0.167-0.042   c0.107-0.403-0.565-1.017-0.748-1.37c-0.099-0.193-0.155-0.463-0.206-0.664c-0.316-0.264-0.361-0.803-0.582-1.163   c-0.018-0.552-0.357-0.88-0.415-1.412c-0.096-0.887-0.124-1.911-0.292-2.616c-0.012-0.096,0.121-0.045,0.127-0.125   c0.029-0.892-0.059-1.704,0.165-2.491c-0.095-1.815,0.661-3.332,0.292-5.108c-0.32-0.781-0.864-1.822-0.5-2.615   C49.58,99.172,49.584,99.27,49.732,99.188z" />
	<path class="st4" d="M96.077,121.862c-0.22,0.004-0.305,0.139-0.54,0.125c0.008,0.365,0.221,0.526,0.5,0.623   c0.455,0.691,1.034,1.264,1.328,2.117c0.012,0.152-0.007,0.271-0.043,0.375c0.009,0.117,0.137,0.113,0.168,0.207   c-0.016,0.125-0.025,0.253-0.125,0.29c0.419,0.673,0.306,1.544,0.249,2.408c0.056,0.388,0.12,0.762,0,1.205   c-0.149,0.56-0.55,0.798-0.54,1.453c-0.375,0.647-0.895,1.188-1.08,1.911c-0.176,0.004-0.137,0.225-0.29,0.25   c-0.002,0.136-0.071,0.206-0.042,0.373c-0.233,0.236-0.504,0.438-0.539,0.872c-0.447,0.146-0.905,0.61-1.123,1.121   c-0.319,0.107-0.468,0.39-0.621,0.665c-0.076,0.004-0.088-0.051-0.166-0.042c-0.551,0.639-1.298,1.084-1.869,1.702   c-0.055-0.053-0.153-0.053-0.209,0c-0.428,0.428-1.008,0.709-1.453,1.121c-0.68,0.178-1.155,0.562-1.785,0.789   c-1.956,0.979-3.974,1.896-6.229,2.575c-0.076,0.048-0.142,0.108-0.209,0.165c-0.775,0.098-1.408,0.479-1.991,0.707   c-0.173,0.066-0.376,0.043-0.541,0.125c-0.415,0.206-0.604,0.691-1.039,0.871c0.059,0.217-0.249,0.336-0.373,0.457   c-0.123,0.12-0.442,0.43-0.705,0.581c-0.103,0.059-0.28,0.055-0.417,0.124c-0.219,0.115-0.629,0.41-0.912,0.416   c-0.11,0.005-0.344-0.162-0.54-0.164c-0.237-0.006-0.334,0.104-0.539-0.084c-0.058-0.533,0.544-0.529,0.954-0.748   c0.305-0.164,0.467-0.389,0.665-0.498c-0.861-0.084-1.801,0.668-2.741,0.209c-0.092-0.076-0.033-0.301-0.207-0.293   c0.032-0.188,0.101-0.34,0.207-0.457c1.417-0.232,2.984-0.951,4.527-1.328c0.494-0.386,0.424-1.172,0.829-1.578   c0.786-0.137,0.837,0.544,0.913,0.996c0.548-0.117,0.982-0.346,1.496-0.498c1.199-0.617,2.791-0.904,3.861-1.619   c2.073-0.809,3.816-1.746,5.482-2.908c0.179-0.292,0.56-0.38,0.705-0.705c0.747-0.404,1.186-1.111,1.869-1.578   c0.109-0.402,0.574-0.45,0.666-0.871c0.805-0.62,1.027-1.824,1.785-2.493c-0.007-0.103-0.009-0.2,0.081-0.206   c-0.022-0.061,0.05-0.215-0.04-0.209c0.373-0.704,0.793-1.271,0.789-2.283c-0.023-0.147,0.146-0.103,0.124-0.25   c-0.04-0.657-0.157-1.119-0.167-1.784c-0.164-0.674-0.447-1.378-0.706-1.829c-0.443-0.422-0.873-0.607-1.203-1.12   c0.089-0.163,0.052-0.362-0.041-0.581c-0.256,0.008-0.52,0.006-0.583,0.207c-1.457,0.453-2.863,0.784-4.276,1.328   c-0.316-0.049-0.686,0.161-0.913,0.332c-0.186-0.031-0.25,0.055-0.416,0.043c-1.312,0.457-2.512,0.801-3.943,1.162   c-0.061,0.066-0.218,0.032-0.209,0.166c-0.479,0.119-1.061,0.255-1.453,0.416c-0.086,0.035-0.211,0.1-0.208,0.207   c-0.129-0.066-0.161-0.036-0.249-0.084c-0.611,0.303-1.523,0.443-2.242,0.832c-0.129,0.069-0.18,0.211-0.249,0.082   c-0.059,0.068-0.118,0.133-0.167,0.208c-1.028,0.144-1.563,0.534-2.492,0.79c-0.104,0.018-0.069,0.179-0.165,0.207   c-0.388,0.086-0.689,0.173-1.08,0.166c-0.503,0.233-0.665,1.449-1.579,1.246c-0.453-0.102-0.537-0.665-0.248-1.08   c0.039-0.055,0.158-0.062,0.207-0.125c0.072-0.093,0.102-0.288,0.209-0.414c0.156-0.186,0.395-0.356,0.58-0.581   c0.32-0.393,0.514-0.722,0.789-0.997c0.385-0.385,0.865-0.654,1.081-0.996c0.639-0.469,1.241,0.221,1.121,0.871   c0.849-0.202,1.67-0.434,2.284-0.871c1.289-0.386,2.6-0.752,3.777-1.248c0.34,0.009,0.575-0.09,0.748-0.248   c1.403-0.365,2.811-0.73,4.111-1.162c0.256-0.086,0.535-0.201,0.748-0.375c0.477-0.115,0.939-0.143,1.287-0.457   c1.192-0.209,1.788-0.608,2.947-0.914c0.755-0.563,1.691-0.766,2.119-1.701c0.373-0.098,0.389-0.553,0.666-0.748   c-0.129-0.3,0.107-0.445,0.205-0.664c0.029-0.061-0.031-0.16,0-0.25c0.023-0.061,0.138-0.104,0.166-0.165   c0.03-0.063,0.021-0.243,0.043-0.292c0.176-0.399,0.367-0.574,0.373-0.954c0.002-0.062-0.055-0.182-0.041-0.249   c0.051-0.271,0.245-0.535,0.291-0.831c0.064-0.427,0.037-0.965,0-1.411c-0.039-0.439-0.068-0.922-0.25-1.329   c0.002-0.138,0.118-0.159,0.082-0.333c-0.009-0.129-0.148-0.127-0.206-0.208c-0.043-0.657-0.476-1.251-0.54-1.909   c-0.285-0.105-0.287-0.317-0.499-0.54c-0.336,0.019-0.469-0.169-0.748-0.208c0.011-0.285-0.214-0.34-0.331-0.498   c0.166-0.226-0.07-0.426-0.125-0.665c0.18-0.608,1.209-0.698,1.455-0.083c0.195-0.002,0.252,0.134,0.455,0.125   c0.525,0.388,0.764,1.064,1.206,1.536c0.114,0.651,0.278,1.413,0.622,1.952c0.136,0.436,0.02,0.942,0.084,1.287   c0.039,0.223,0.203,0.387,0.205,0.623c0.006,0.381-0.072,0.846-0.123,1.204c-0.113,0.79-0.094,1.701-0.416,2.534   c-0.006,0.102,0.021,0.172,0.083,0.207c-0.158,0.279-0.29,0.34-0.249,0.789c-0.226,0.443-0.396,0.758-0.581,1.287   c-0.406,0.354-0.462,1.061-0.956,1.328c0.014,0.098-0.006,0.16-0.041,0.209C96.418,121.472,96.056,121.625,96.077,121.862z" />
	<path class="st4" d="M60.779,142.792c0.049,0.104,0.117,0.188,0.166,0.291c-0.115,0.115-0.135-0.076-0.25-0.082   C60.66,142.867,60.76,142.871,60.779,142.792z" />
	<path class="st4" d="M77.141,145.825c-0.078,0.241,0.158,0.35,0.208,0.582c-0.081,0.264-0.251,0.439-0.415,0.621   c-0.081,0.582-0.395,1.076-0.582,1.621c-0.205,0.6-0.473,1.152-0.664,1.619c-0.145,0.279-0.271,0.339-0.291,0.705   c-0.312,0.352-0.534,0.795-0.705,1.287c-0.242,0.077-0.312,0.326-0.416,0.541c-0.178,0.045-0.285,0.158-0.291,0.373   c-1.757,2.056-4.166,3.361-6.479,4.775c-0.097,0.029-0.266,0.048-0.415,0.125c-0.114-0.018-0.039,0.154-0.124,0.166   c-0.632,0.199-1.045,0.617-1.744,0.748c-0.088,0.065-0.208,0.096-0.208,0.249c-0.691,0.31-1.393,0.571-1.951,0.913   c-0.88,0.148-1.616,0.627-2.368,0.914c-0.387,0.148-0.779,0.233-1.203,0.373c-0.352,0.117-0.622,0.305-0.955,0.374   c-0.883,0.185-1.65,0.078-2.326,0.499c-1.191,0.092-2.396,0.224-3.531,0.083c0.117-0.583,0.818-0.22,1.205-0.541   c1.483-0.167,2.789-0.661,4.236-1.038c0.867-0.473,2.054-0.632,2.866-1.162c0.44-0.099,0.845-0.235,1.12-0.5   c2.084-0.655,3.703-1.776,5.564-2.656c1.168-0.771,2.479-1.513,3.571-2.41c0.345-0.281,0.724-0.535,0.997-0.829   c0.25-0.27,0.428-0.594,0.664-0.872c0.039-0.045,0.123-0.002,0.168-0.041c0.02-0.02,0.342-0.447,0.371-0.5   c0.062-0.1,0.082-0.246,0.126-0.371c0.327-0.229,0.411-0.697,0.706-0.957c-0.049-0.254,0.139-0.356,0.041-0.539   c0.456-0.112,0.251-0.885,0.666-1.039c0.061-1.093,0.816-1.599,0.705-2.74c0.207-0.082,0.345-0.375,0.539-0.582   C76.506,145.527,76.795,145.75,77.141,145.825z" />
	<path class="st4" d="M76.892,81.83c0.192-0.126,0.204-0.091,0.539-0.166c0.083-0.156,0.18-0.292,0.251-0.458   c0.543,0.004,1.158-0.256,1.701-0.248c1.362-0.488,2.873-0.287,4.319-0.789c0.415-0.145,1.011-0.163,1.413-0.209   c0.788-0.088,1.604-0.135,2.408-0.205c1.086-0.097,2.127-0.123,3.239-0.168c1.536-0.062,3.047-0.273,4.566-0.291   c4.08-0.044,7.915-0.266,12.085-0.164c3.033,0.07,6.059,0.123,9.221,0.164c0.338,0.005,0.663,0.12,0.996,0   c0.649,0.245,1.504-0.143,2.158,0.291c0.182,0.029,0.234-0.07,0.416-0.041c0.365,0.354,1.023,0.418,1.329,0.83   c0.136,0.197,0.126,0.539,0.457,0.54c0.372,0.669,0.366,1.376,0.705,1.993c-0.03,0.41-0.228,0.543-0.042,0.789   c-0.371,0.727-0.133,1.814-0.497,2.492c0.101,0.396-0.239,0.755-0.166,1.121c-0.218,0.188-0.151,0.438-0.208,0.664   c-0.148,0.598-0.605,0.99-0.789,1.619c-0.616,0.394-0.69,1.33-1.494,1.537c-0.057,0.014-0.035,0.104-0.041,0.166   c-0.299,0.004-0.491,0.266-0.749,0.375c-0.106,0.044-0.228,0.006-0.331,0.041c-0.205,0.068-0.311,0.207-0.498,0.248   c-0.42,0.094-0.918-0.107-1.33,0.168c-0.563-0.084-1.32,0.232-1.993,0.207c-0.28-0.012-0.576-0.194-0.788,0.082   c-1.045,0-2.012,0.28-2.949,0.25c-2.891,0.625-5.878,0.775-9.054,1.162c-1.698,0.238-3.175,0.391-4.942,0.748   c-0.752-0.046-1.588,0.17-2.115,0.25c0.047,0.283,0.307,0.354,0.539,0.455c0.033,0.342,0.281,0.467,0.581,0.539   c0.523,0.751,1.241,1.308,1.37,2.451c0.023,0.094,0.065-0.049,0.123,0.043c-0.001,0.28,0.039,0.312,0.126,0.539   c-0.081,0.816,0.063,1.523,0.332,2.242c-0.198,0.656,0.175,1.521-0.124,2.242c0.039,0.113,0.067,0.238,0.124,0.332   c-0.501,0.849-0.022,1.619-0.29,2.492c-0.27,0.312-0.594,0.568-0.748,0.996c-0.132-0.057-0.139-0.008-0.289,0   c-0.229,0.246-0.594,0.352-1.039,0.373c-0.525,0.334-1.34,0.379-1.91,0.664c-0.436-0.012-0.882,0.248-1.331,0.334   c-0.149,0.029-0.302-0.021-0.455,0c-0.866,0.113-1.753,0.513-2.492,0.498c-0.042,0.084-0.155,0.096-0.207,0.166   c-1.87,0.28-3.522,0.746-5.274,0.914c-0.847,0.359-1.995,0.163-2.783,0.582c-1.609,0.109-3.615,0.316-5.191,0.83   c-0.6-0.068-0.973,0.279-1.494,0.249c-1.076,0.448-1.963,0.497-3.321,0.831c-0.146,0.203-0.371,0.324-0.665,0.457   c-0.35,0.156-0.496,0.484-0.83,0.746c-0.164,0.129-0.508,0.244-0.748,0.417c-0.312,0.223-0.486,0.541-1.079,0.372   c-0.112-0.031-0.023-0.086-0.083-0.125c-0.048-0.026-0.166,0.036-0.209,0c-0.09-0.072-0.127-0.27-0.207-0.372   c0.266-0.376,0.553-0.517,0.914-0.831c-0.578,0.037-1.65,0.395-2.159-0.166c0.048-0.541,0.572-0.432,1.079-0.581   c0.576-0.173,1.455-0.469,2.16-0.665c0.521-0.145,0.968-0.175,1.328-0.456c0.045-0.036,0.039-0.122,0.083-0.167   c0.15-0.146,0.525-0.266,0.746-0.456c0.399-0.343,0.472-0.637,1.165-0.54c0.141,0.23,0.365,0.51,0.249,0.872   c0.12,0.052,0.472,0.05,0.622-0.085c5.529-0.956,10.288-1.893,15.406-2.988c0.514-0.109,0.984-0.352,1.536-0.334   c0.12-0.045,0.218-0.113,0.292-0.207c0.5-0.082,1.037-0.168,1.535-0.289c1.326-0.328,2.715-0.625,3.324-1.619   c0.303,0,0.03-0.105,0.29-0.168c-0.006-0.246,0.097-0.436,0.333-0.541c-0.123-0.45,0.019-0.66,0.207-1.078   c0.043-0.49-0.107-0.943,0.084-1.246c-0.008-0.146-0.119-0.186-0.127-0.332c0.09-0.047-0.004-0.282,0.127-0.291   c-0.185-0.742-0.045-1.682-0.291-2.408c-0.102-0.297-0.084-0.779-0.375-1.12c0.012-0.521-0.299-0.853-0.623-1.204   c-0.256-0.283-0.408-0.359-0.788-0.623c-0.333-0.232-0.511-0.359-0.664-0.582c-0.088-0.127-0.168-0.284-0.167-0.539   c0.18-0.058,0.158-0.297,0.167-0.416c-0.972,0.042-2.185,0.07-3.281,0.289c-0.198,0.041-0.405-0.01-0.582,0.042   c-0.145,0.045-0.143,0.163-0.29,0.167c-0.704,0.023-1.66,0.209-2.076,0.373c-0.134-0.006-0.184-0.093-0.334-0.084   c-1.074,0.076-2.125,0.474-3.238,0.541c-0.152,0.011-0.299-0.061-0.456-0.041c-0.155,0.018-0.257,0.122-0.415,0.166   c-0.934,0.252-2.096,0.234-3.074,0.414c-2.492,0.459-5.199,0.866-7.6,1.33c-0.362,0.071-0.727,0.139-0.997,0.333   c-1.817,0.274-3.659,0.753-5.315,1.161c-0.205,0.053-0.43-0.008-0.622,0.042c-0.487,0.125-0.948,0.563-1.537,0.292   c-0.161-0.297-0.513-0.4-0.581-0.79c-0.762-0.104-1.082-0.652-0.914-1.495c0.071,0.002,0.108-0.03,0.125-0.083   c0.384-0.024,0.566,0.155,0.912,0.167c0.53,0.592,1.624,0.796,2.535,0.664c0.221-0.335,0.745-0.071,1.038-0.333   c0.559-0.02,1.027-0.153,1.453-0.249c0.138-0.029,0.304-0.037,0.374-0.166c1.52-0.146,3.165-0.619,4.485-0.789   c3.015-0.639,6.573-1.109,9.718-1.535c2.995-0.548,5.783-0.899,8.43-1.205c0.094,0.086,0.174,0.184,0.207,0.332   c1.061-0.254,2.775-0.441,3.904-0.748c0.068-0.015,0.078,0.033,0.082,0.084c0.684-0.24,1.418-0.309,2.16-0.457   c0.528-0.104,1.115-0.152,1.661-0.248c0.476-0.085,1.048-0.192,1.537-0.252c2.353-0.278,4.591-0.63,6.853-0.996   c1.068-0.172,2.205-0.109,3.197-0.498c1.368-0.121,3.299-0.449,4.734-0.539c0.139-0.152,0.461-0.12,0.623-0.251   c0.486,0.119,0.855-0.141,1.244-0.33c0.139-0.036,0.235,0.014,0.416-0.042c0.234-0.238,0.547-0.424,0.873-0.457   c0.109-0.082,0.244-0.143,0.207-0.373c0.317,0.019,0.444-0.088,0.457-0.291c0.037-0.664-1.379-0.357-1.787-0.332   c-0.258,0.015-0.543-0.067-0.871-0.084c-0.666-0.032-1.363,0.047-2.076,0.043c-0.732-0.007-1.567-0.143-2.035-0.54   c0.057-0.575-0.305-0.965-0.124-1.456c-0.028-0.08-0.128-0.094-0.167-0.164c0.139-0.281,0-0.595,0.125-0.914   c-0.264-0.488-0.043-1.803-0.125-2.741c-0.043-0.514-0.188-1.13-0.125-1.744c-0.268-0.47-0.309-0.862-0.955-0.954   c-0.297-0.043-0.666,0.029-1.08,0c-0.17,0.028,0.045-0.146-0.082-0.209c-3.709,0.068-7.189-0.129-11.131,0   c-0.678,0.023-1.342,0.059-1.992,0.167c-0.084,0.014-0.131-0.009-0.123-0.083c-1.906,0.322-4.535,0.295-6.854,0.581   c-0.006,1.415-0.18,2.962-0.291,4.319c-0.016,0.197,0.034,0.377,0,0.538c-0.009,0.048-0.118,0.153-0.125,0.209   c-0.005,0.05,0.094,0.115,0.084,0.167c-0.012,0.058-0.097,0.084-0.123,0.166c-0.072,0.211,0.069,0.386-0.127,0.414   c-0.03,0.128,0.115,0.08,0.085,0.207c-0.175,0.774-0.206,1.906-0.624,2.368c0.08,1.212-0.844,1.819-0.581,2.739   c-0.13,0.053-0.31,0.053-0.415,0.127c-0.07-0.179,0.005-0.275-0.167-0.209c0.103-0.406-0.386-0.545-0.249-1.122   c0.039-0.149-0.186-0.033-0.164-0.164c0.039-0.489-0.234-0.912-0.252-1.413c0.098,0,0.193,0,0.291,0   c-0.009,0.344,0.199,0.604,0.125,0.996c0.316,0.309,0.232,1.013,0.622,1.246c0.075-0.463,0.377-1.025,0.54-1.536   c-0.18-0.386,0.112-0.856,0.208-1.288c0.171-0.018-0.002,0.104,0,0.168c0.169-0.096,0.114-0.236,0.042-0.291   c0.013-0.17,0.161,0.031,0.166-0.166c0.067-0.165-0.18-0.015-0.166-0.125c0.013-0.348,0.096-0.625,0.249-0.83   c-0.109-0.321,0.103-0.596,0.124-0.83c0.033-0.35-0.131-0.757,0.166-1.122c-0.127-0.347,0.155-0.898-0.082-1.121   c0.158-0.485-0.02-1.09,0.124-1.495c-0.012-0.056-0.104-0.035-0.166-0.042c0.277-0.142-0.003-0.725,0.251-0.956   c-0.143-0.287-0.07-0.574-0.042-0.871c-0.759-0.103-2.002,0.104-2.866,0.207c0.104,0.865-0.008,1.55,0.123,2.285   c-0.172-0.008-0.205,0.127-0.373,0.123c-0.117-0.238-0.061-0.559,0.084-0.746c-0.236-0.489-0.221-1.029-0.25-1.578   c-1.391-0.029-2.301,0.293-3.613,0.498c-0.116,0.021-0.186,0.091-0.209,0.208c-2.48,0.267-4.882,0.913-7.475,1.288   c-0.105,0.072-0.23,0.127-0.33,0.207c-0.906,0.009-2.189,0.518-3.24,0.705c-0.982,0.176-2.121,0.383-3.114,0.623   c-0.096,0.045-0.191,0.085-0.249,0.168c-2.367,0.562-5.066,1.166-7.393,2.117c-0.611-0.01-0.975,0.328-1.453,0.332   c-0.444,0.33-1.25,0.301-1.662,0.664c-0.338-0.06-0.561,0.198-0.871,0.291c-0.264,0.077-0.559,0.058-0.83,0.166   c-0.525,0.204-1.149,0.529-1.744,0.789c-0.401,0.174-0.768,0.405-1.164,0.582c-0.486,0.214-1.057,0.226-1.453,0.496   c-0.211,0.145-0.562,0.646-0.789,0.956c-0.076,0.104-0.21,0.226-0.248,0.292c-0.027,0.045,0.031,0.16,0,0.207   c-0.052,0.073-0.198,0.097-0.25,0.164c-0.025,0.038,0.025,0.129,0,0.168c-0.018,0.031-0.213,0.178-0.249,0.249   c-0.103,0.203-0.118,0.452-0.208,0.622c-0.146,0.281-0.309,0.71-0.416,1.162c-0.125,0.541-0.516,1.11-0.705,1.703   c-0.188,0.59-0.19,1.191-0.54,1.662c-0.079,0.848-0.451,1.402-0.581,2.201c-0.562,1.334-0.824,2.541-1.453,3.82   c-0.273,1.266-0.807,2.625-1.33,3.778c-0.227,0.866-0.555,1.624-0.912,2.492c-0.269,0.651-0.561,1.376-0.873,2.077   c-0.037,0.086,0.016,0.232-0.041,0.331c-0.096,0.171-0.291,0.476-0.416,0.749c-0.169,0.375-0.281,0.818-0.414,1.287   c-0.484,0.826-0.777,1.74-1.121,2.615c-0.385,0.98-0.889,1.896-1.289,2.865c-0.396,0.968-0.832,1.941-1.328,2.865   c-0.038,0.321-0.171,0.551-0.332,0.749c-1.264,2.958-2.804,5.64-4.401,8.264c-0.128-0.032-0.08,0.114-0.209,0.083   c0.04,0.261-0.205,0.238-0.166,0.498c-0.127-0.032-0.079,0.115-0.206,0.083c-0.421,0.622-0.844,1.229-1.329,1.786   c-0.177,0.201-0.474,0.271-0.582,0.541c-0.247-0.076-0.302,0.196-0.457,0.081c-0.101-0.562,0.468-0.804,0.54-1.328   c0.434-0.453,0.793-0.979,1.038-1.619c1.632-2.135,2.652-4.879,4.111-7.185c0-0.111,0-0.223,0-0.333   c1.505-2.827,2.669-5.997,4.069-8.929c0.064-0.709,0.51-1.041,0.582-1.744c0.539-0.762,0.703-1.898,1.246-2.656   c0-0.099,0-0.195,0-0.293c0.493-0.889,0.748-2.019,1.246-2.905c0.256-0.921,0.603-1.751,0.954-2.575   c0.007-0.201-0.025-0.441,0.167-0.457c0.076-0.697,0.484-1.064,0.539-1.785c0.486-0.823,0.523-1.808,0.997-2.533   c0.64-2.376,1.435-4.42,2.076-6.729c0.214-0.36,0.438-0.908,0.456-1.328c0.312-0.52,0.638-1.023,0.832-1.662   c0.252-0.093,0.271-0.422,0.498-0.539c-0.137-0.351,0.1-0.559,0.207-0.789c0.135-0.023,0.193,0.028,0.291,0.042   c0.717-0.542,1.256-1.265,2.035-1.744c0.16-0.175,0.361-0.302,0.457-0.54c0.79-0.344,1.523-0.006,1.785,0.623   c1.328-0.472,2.7-0.898,4.069-1.33c0.052-0.189-0.146-0.131-0.166-0.248c1.745-3.926,3.735-7.441,4.485-11.878   c-0.469-0.835,0.459-1.417,1.412-1.12c-0.492-2.439-0.988-4.621-1.163-7.143c-0.026-0.401,0.101-0.684-0.083-1.08   c0.113-0.677,0.133-1.368,0.291-2.242c0.057-0.316,0.482-0.493,0.416-0.873c0.35-0.258,0.48-0.656,0.871-0.914   c0.123-0.081,0.316-0.115,0.457-0.207c0.248-0.162,0.633-0.271,0.955-0.498c0.194,0.164,0.438-0.17,0.54,0.041   c0.114-0.023,0.134-0.143,0.249-0.164c0.126-0.1,0.179,0.157,0.332,0.164c1.724,0.072,3.215,0.786,4.609,1.454   c0.042,0.096,0.143,0.133,0.125,0.29c0.18,0.012,0.34,0.049,0.499,0.083c0.173,0.448,0.524,0.721,0.954,0.913   c0.059,0.305,0.267,0.455,0.498,0.582c0.043,0.229,0.052,0.245,0.251,0.332c0.062,0.365,0.269,0.588,0.581,0.707   c0.368,0.918,1.086,1.486,1.369,2.491c0.275,0.235,0.301,0.587,0.458,0.914c0.2,0.421,0.548,0.734,0.539,1.288   c0.101,0.16,0.142,0.383,0.29,0.496c-0.047,1.029,0.314,1.344,0.209,2.161c0.007,0.117,0.135,0.112,0.164,0.208   c0.161,2.309,0.062,4.666-0.247,6.893c0.019,0.131-0.113,0.109-0.126,0.209c0.129,0.488-0.199,0.858-0.29,1.244   c-0.055,0.234,0.03,0.479-0.042,0.707c-0.074,0.232-0.286,0.428-0.373,0.664C76.925,81.78,76.892,81.788,76.892,81.83z    M67.05,61.564c-0.177,0.085-0.33,0.196-0.623,0.166c-0.124,0.097-0.263,0.181-0.499,0.165c-0.705,0.604-0.771,1.848-1.039,2.783   c0.09,1.701,0.251,4.194,0.582,5.98c-0.012,0.108,0.162,0.032,0.125,0.166c0.052,0.984,0.454,2.232,0.373,3.281   c-0.247,0.167-0.474,0.354-0.663,0.581c-0.335,0.044-0.358-0.225-0.54-0.333c-0.244,0.32-0.213,0.799-0.291,1.246   c-0.041,0.235-0.191,0.432-0.248,0.664c-0.101,0.407-0.086,0.709-0.209,1.123c-0.07,0.234-0.267,0.483-0.373,0.746   c-0.123,0.297-0.176,0.633-0.291,0.913c-0.115,0.282-0.322,0.53-0.415,0.79c-0.078,0.217-0.036,0.438-0.126,0.623   c-0.159,0.33-0.479,0.561-0.414,0.955c-0.062,0.021-0.104,0.061-0.167,0.082c0.046,0.268-0.151,0.291-0.124,0.539   c-0.113-0.029-0.084,0.083-0.166,0.084c-0.273,0.664-0.486,1.324-0.873,1.91c-0.504,0.77-0.848,1.777-1.744,2.076   c0.404-0.031,0.521-0.264,0.916-0.165c0.297-0.219,0.846-0.352,1.162-0.458c0.852-0.283,2.167-0.574,2.74-0.787   c0.297-0.111,0.671-0.168,0.997-0.25c1.677-0.42,3.273-0.777,5.024-1.162c0.068-0.002,0.022-0.117,0.083-0.126   c2.054-0.386,4.079-0.858,6.188-1.286c-0.045-0.192-0.262-0.211-0.332-0.375c-0.107-1.299,0.127-2.572,0.414-3.779   c-0.139-0.843,0.213-2.088-0.082-3.197c0.179-0.283,0.105-0.723,0.082-1.121c-0.012-0.085-0.154-0.039-0.166-0.125   c0.156-0.119-0.01-0.333,0.125-0.498c-0.261-0.158-0.119-0.355-0.125-0.623c-0.01-0.399-0.199-0.834-0.248-1.246   c-0.016-0.122,0.044-0.249,0.04-0.373c-0.007-0.262-0.153-0.465-0.29-0.747c-0.193-0.401-0.229-0.834-0.332-1.204   c-0.076-0.273-0.304-0.496-0.415-0.747c-0.026-0.06,0.02-0.149,0-0.208c-0.09-0.264-0.384-0.506-0.54-0.748   c-0.025-0.039,0.018-0.123,0-0.166c-0.02-0.05-0.15-0.094-0.165-0.125c-0.124-0.236-0.118-0.527-0.376-0.623   c-0.006-0.118-0.074-0.173-0.082-0.291c-0.435-0.389-0.766-0.934-1.079-1.328c-0.104-0.07-0.229-0.121-0.292-0.125   c-0.162-0.322-0.504-0.465-0.664-0.789c-0.606-0.168-0.764-0.787-1.453-0.871c-0.1-0.178-0.324-0.23-0.457-0.375   c-0.24,0.049-0.567-0.033-0.623-0.291C68.639,61.84,67.893,61.575,67.05,61.564z M120.91,82.95   c-0.172-0.498-0.258-1.062-0.539-1.453c-0.255-0.354-1.152-0.88-1.578-0.955c-0.748-0.131-1.719,0.084-2.615,0.125   c-1.072,0.049-2.154,0.066-3.115,0.125c-0.109,0.1-0.127,0.287-0.248,0.373c0.584,1.5,0.367,3.227,0.498,4.734   c-0.014,0.109,0.16,0.033,0.124,0.166c-0.068,0.504,0.306,1.129,0.29,1.578c0.624,0.209,1.404,0.417,2.16,0.5   c0.182,0.018,0.369-0.049,0.539,0c0.088,0.021,0.158,0.109,0.25,0.124c0.345,0.049,0.654-0.098,0.871-0.124   c0.174-0.021,0.451,0.098,0.665,0.082c0.546-0.039,1.019-0.001,1.537,0c0.118-0.021,0.278-0.218,0.374-0.125   c-0.012,0.049-0.236,0.121-0.042,0.125c0.84-0.7,1.243-2.627,1.08-4.195c0.031-0.064,0.132-0.062,0.124-0.166   c-0.184-0.227-0.209-0.444-0.167-0.83C121.057,82.936,120.943,82.992,120.91,82.95z" />
</g>
<g>
	<path class="st4" d="M141.908,142.167c0-0.252,0-0.505,0-0.758c1.227-0.969,2.264-2.129,3.406-3.181   c0.215-0.468,0.638-0.708,0.947-1.06c0.148-0.168,0.23-0.403,0.379-0.567c0.351-0.391,0.705-0.765,1.098-1.099   c0.642-1.014,1.367-1.941,2.158-2.802c-0.018-0.118,0.068-0.136,0.037-0.265c0.182-0.085,0.316-0.217,0.342-0.455   c0.608-0.525,0.941-1.33,1.477-1.933c0-0.062,0-0.124,0-0.188c0.736-0.741,1.143-1.81,1.816-2.612   c0.021-0.105,0.057-0.197,0.078-0.305c0.461-0.567,0.76-1.24,1.098-1.891c0.117-0.23,0.339-0.421,0.453-0.646   c0.098-0.19,0.131-0.384,0.227-0.567c0.09-0.175,0.242-0.312,0.342-0.492c0.199-0.363,0.305-0.793,0.492-1.174   c0.099-0.203,0.283-0.367,0.378-0.566c0.136-0.283,0.177-0.497,0.304-0.72c0.146-0.26,0.217-0.474,0.342-0.757   c0.215-0.502,0.539-0.969,0.756-1.479c0.373-0.875,0.72-1.812,1.174-2.537c0.555-1.742,1.437-3.159,1.932-4.959   c0.291-0.416,0.445-0.967,0.605-1.515c0.177-0.039,0.082-0.347,0.266-0.38c0.081-0.561,0.337-1.01,0.492-1.553   c0.045-0.158,0.2-0.295,0.264-0.453c0.367-0.912,0.639-1.814,0.986-2.688c0.172-0.436,0.367-1.031,0.567-1.402   c1.177-3.572,2.559-6.688,3.635-10.223c0.587-1.213,0.901-2.484,1.438-3.712c0.016-0.128-0.016-0.212-0.037-0.303   c0.043-0.032,0.101-0.049,0.188-0.037c0.416-1.277,0.992-2.589,1.515-3.636c0.163-0.089,0.256-0.248,0.492-0.266   c0.24-0.352,0.57-0.613,0.721-1.059c0.646-0.357,1.005-1.023,1.625-1.438c0.851-0.569,1.836-0.866,2.84-1.327   c0.686-0.002,1.416-0.05,1.857,0.191c0.166,0.334-0.078,0.62-0.039,0.908c-0.195,0.169-0.59,0.141-0.756,0.341   c-0.603-0.117-1.207-0.036-1.667,0.228c-0.382,0.22-0.892,0.352-1.212,0.529c-0.043,0.024-0.009,0.094-0.037,0.114   c-0.092,0.06-0.221,0.062-0.304,0.112c-0.349,0.218-0.507,0.471-0.831,0.796c-0.148,0.146-0.352,0.225-0.493,0.378   c-0.397,0.434-0.715,0.99-1.022,1.516c-0.223,0.383-0.398,0.745-0.53,1.137c-0.071,0.207-0.276,0.379-0.378,0.604   c-0.069,0.154-0.055,0.343-0.113,0.493c-0.023,0.059-0.124,0.092-0.152,0.152c-0.24,0.503-0.301,1.079-0.492,1.59   c-0.029,0.076-0.13,0.119-0.15,0.189c-0.028,0.088,0.021,0.205,0,0.303c-0.082,0.332-0.289,0.655-0.381,0.983   c-0.033,0.122-0.003,0.258-0.037,0.38c-0.449,1.589-0.933,3.218-1.173,4.844c-0.329-0.012-0.462,0.172-0.758,0.191   c-0.142-0.085-0.015-0.441-0.151-0.53c-0.058,0.194-0.154,0.352-0.151,0.604c-0.444,0.541-0.472,1.498-0.909,2.046   c-0.547,1.673-1.073,3.368-1.779,4.885c-0.276,1.187-0.844,2.085-1.136,3.257c-0.009,0.104-0.12,0.105-0.151,0.188   c-0.083,0.504-0.288,0.83-0.454,1.211c-0.134,0.307-0.19,0.612-0.304,0.909c-0.123,0.325-0.408,0.836-0.529,1.099   c-0.118,0.258-0.121,0.574-0.228,0.833c-1.067,2.598-2.165,5.157-3.333,7.573c-0.269,0.791-0.609,1.51-1.021,2.158   c0,0.076,0,0.15,0,0.229c-0.459,0.475-0.59,1.277-1.022,1.776c-0.175,0.622-0.573,1.019-0.757,1.63   c-0.771,1.175-1.487,2.4-2.158,3.672c-0.501,0.547-0.883,1.212-1.25,1.895c-0.567,0.518-0.828,1.342-1.438,1.816   c0.054,0.205-0.175,0.127-0.113,0.341c-1.88,2.323-3.604,4.802-5.87,6.74c-0.564,0.733-1.458,1.297-2.271,1.931   C142.695,141.682,142.328,142.063,141.908,142.167z" />
	<path class="st4" d="M178.976,82.796c0.103,0.051,0.202,0.102,0.303,0.152c0.3,0.01,0.563-0.018,0.758-0.113   c2.805,0.203,6.243,0.157,8.784,0.227c0.812,0.022,1.645-0.148,2.462-0.074c1.323,0.118,2.843,0.005,4.239,0.035   c0.574,0.015,1.127,0.059,1.705,0.076c4.328,0.131,8.628,0.42,12.684,1.061c0.164,0.131,0.445,0.092,0.605,0.076   c0.31,0.232,0.755,0.086,1.061,0.265c0.03,0.109,0.076,0.2,0.113,0.304c1.166,0.207,2.331,0.539,3.521,0.681   c0.09,0.048,0.154,0.124,0.229,0.188c1.109,0.162,2.067,0.31,3.065,0.568c2.451,0.637,4.796,1.268,7.231,2.008   c0.52-0.014,0.712,0.299,1.213,0.303c0.047,0.055,0.15,0.051,0.15,0.15c2.363,0.421,4.389,1.312,6.628,1.934   c0.933,0.465,2.081,0.719,2.687,1.512c2.037,0.666,3.865,1.363,5.947,1.934c0.402,0.379,1.107,0.32,1.59,0.644   c0.439-0.025,0.545,0.286,0.944,0.302c-0.037,0.166,0.128,0.125,0.114,0.266c0.557,0.025,0.561,0.601,1.023,0.719   c0.094,0.334,0.396,0.459,0.528,0.758c0.039,0.347,0.134,0.812,0.266,1.174c0.015,0.926-0.303,1.711-0.416,2.386   c-0.107,0.031-0.104,0.173-0.228,0.188c-0.311,1.016-1.069,1.582-1.401,2.575c-0.406,0.186-0.604,0.581-0.87,0.908   c-0.533,0.227-1.026,0.513-1.477,0.72c-1.172-0.027-2.414,0.494-3.559,0.378c-0.457-0.046-0.772-0.362-1.213-0.454   c-0.086-0.248-0.219-0.455-0.037-0.681c1.11-0.002,2.311-0.168,3.444-0.306c0.808-0.262,1.544-0.369,2.157-0.792   c0.223-0.26,0.364-0.599,0.684-0.757c0.066-0.618,0.605-1.031,0.681-1.592c0.521-0.271,0.412-0.994,0.72-1.514   c0.024-0.484-0.055-0.879,0-1.439c-0.588-0.542-1.107-0.924-1.553-1.592c-0.532,0.165-0.891,0.498-1.135,0.949   c-0.329,0.074-0.428,0.382-0.57,0.643c-0.293,0.068-0.431,0.418-0.451,0.644c-0.539,0.546-0.564,1.207-0.796,2.082   c-0.019,0.12,0.173,0.03,0.189,0.115c-0.074,0.44-0.421,0.612-0.493,1.058c-0.092,0.071-0.182,0.147-0.303,0.189   c-0.264-0.087-0.614-0.208-0.907-0.15c-0.144-0.213-0.412-0.188-0.759-0.266c-0.189-0.043-0.808-0.332-1.022-0.227   c-1.206-0.439-2.46-0.75-3.407-1.514c-0.102,0-0.201,0-0.304,0c-0.171-0.271-0.327-0.557-0.491-0.834   c-0.055-0.703,0.018-1.111-0.039-1.666c0.289-0.391,0.283-0.908,0.493-1.323c0.054-0.11,0.223-0.183,0.304-0.306   c0.028-0.043-0.023-0.141,0-0.188c0.082-0.18,0.373-0.529,0.568-0.76c0.096-0.113,0.198-0.227,0.303-0.338   c0.18-0.199,0.273-0.311,0.491-0.38c-0.024-0.092,0.067-0.216,0.189-0.267c-0.2-0.113-0.598-0.231-0.833-0.188   c-0.119-0.172-0.264-0.318-0.455-0.416c0.016-0.359-0.033-0.547,0.115-0.758c-3.505-1.365-6.742-2.207-10.376-3.218   c-0.095-0.007-0.157,0.018-0.188,0.074c-0.467-0.351-1.416-0.306-1.779-0.642c-4.277-0.977-8.301-1.992-12.422-2.652   c-0.422,0.322-0.594,0.893-0.945,1.289c-0.039,0.402-0.381,0.502-0.377,0.946c-0.123-0.033-0.117,0.059-0.191,0.074   c0.02,0.13-0.015,0.214-0.039,0.304c-0.277,0.429-0.598,0.814-0.718,1.402c-0.39,0.365-0.495,1.016-0.946,1.323   c0.053,0.048,0.037,0.164,0.037,0.267c-0.412,0.62-0.803,1.266-1.135,1.967c-0.311-0.197,0.053-0.496,0.149-0.68   c0.097-0.179,0.103-0.34,0.229-0.492c0.076-0.092,0.167-0.136,0.228-0.229c-0.304-0.121-0.341-0.254-0.456-0.605   c-0.028-0.092-0.143-0.186-0.149-0.228c-0.067-0.384,0.261-0.794,0-1.098c0.195-0.095,0.269-0.54,0.038-0.645   c0.032-0.281,0.216-0.413,0.34-0.604c-0.039-0.354,0.122-0.451,0-0.721c0.136-0.369,0.271-0.738,0.378-1.137   c0.432-0.352,0.535-1.028,0.986-1.36c0.226,0.163,0.285-0.061,0.378-0.229c-0.126-0.15-0.356-0.197-0.378-0.453   c-1.947-0.099-3.963-0.314-6.059-0.379c-0.785-0.023-2.021-0.076-2.99-0.113c-0.312-0.011-0.611,0.07-0.834-0.076   c-0.145-0.055-0.074,0.105-0.189,0.076c-1.318-0.227-2.457,0.016-3.9-0.189c-0.514,0.092-0.933,0.064-1.514,0.037   c-1.734-0.076-3.482,0.168-5.226,0.076c-1.764-0.092-3.673,0.021-5.49-0.266c-0.173,0.041-0.404,0.113-0.606-0.035   c-0.605,0.212-1.631-0.124-1.249-0.797C179.09,82.911,178.938,82.946,178.976,82.796z M206.123,91.09   c0.148-0.067,0.242-0.19,0.266-0.38c0.016-0.09-0.172,0.021-0.113-0.113c0.028-0.15,0.178-0.002,0.227-0.074   c0.247-0.453,0.605-0.986,0.646-1.517c0.12,0.032,0.075-0.099,0.149-0.113c-0.015-0.52,0.392-0.811,0.493-1.325   c0.469-0.502,0.541-1.33,1.061-1.779c0.094-0.084,0.246-0.113,0.227-0.304c-0.395-0.057-0.695-0.271-1.023-0.228   c-0.248,0.035-0.349,0.311-0.493,0.492c-0.233,0.299-0.677,0.718-0.792,0.947c-0.154,0.301-0.097,0.604-0.305,0.721   c-0.047,0.121,0.123,0.027,0.074,0.15c-0.388,0.104-0.161,0.646-0.416,0.834c0.008,0.656-0.357,0.907-0.15,1.438   c-0.035,0.041-0.139,0.014-0.114,0.114c0.072,0.352-0.039,1.035,0.151,1.515C206.19,91.404,206.127,91.285,206.123,91.09z    M241.867,95.179c-1.93-0.53-3.568-1.053-5.338-1.667c-0.289,0.159-0.492,0.583-0.797,0.606c-0.164,0.188-0.205,0.5-0.529,0.53   c-0.055,0.159-0.094,0.336-0.303,0.339c-0.08,0.34-0.171,0.732-0.453,0.759c-0.017,0.4-0.256,0.577-0.379,0.871   c-0.033,0.408-0.133,0.749-0.267,1.062c0.192,0.334,0.363,0.696,0.493,1.098c0.433,0.513,0.932,0.96,1.703,1.135   c-0.002,0.065,0.01,0.118,0.039,0.15c1.207,0.232,2.214,0.664,3.406,0.91c0.203-0.202,0.513-0.296,0.721-0.493   c-0.107-0.481,0.371-1.633,0.531-2.194c0.021-0.086-0.034-0.172,0-0.268c0.066-0.193,0.326-0.271,0.151-0.378   c0.167,0.048,0.081-0.085,0.113-0.151c0.044-0.098,0.219-0.16,0.264-0.226c0.038-0.057,0.005-0.134,0.038-0.19   c0.067-0.12,0.244-0.211,0.342-0.341c0.321-0.435,0.664-0.829,1.021-1.174C242.439,95.362,241.984,95.438,241.867,95.179z" />
	<path class="st3" d="M243.912,85.069c-0.064,0.341-0.544,0.503-0.684,0.795c-0.016,0.035,0.027,0.121,0,0.15   c-0.079,0.101-0.244,0.119-0.302,0.227c-0.011,0.024,0.067,0.051,0.076,0.039c-0.332,0.361-0.884,0.504-0.909,1.098   c-0.33,0.25-0.443,0.716-0.605,1.137c0.145,0.504-0.198,0.674-0.265,1.172c-0.019,0.083,0.056,0.074,0.114,0.076   c-0.135,0.244-0.328,0.431-0.267,0.873c-1.921-0.511-4.338-1.156-5.717-2.462c0.126-0.62-0.116-1.274,0.229-1.741   c0.046-0.788,0.429-1.238,0.642-1.856c0.379-0.305,0.687-0.677,1.024-1.023c0.265,0.042,0.376-0.075,0.567-0.112   c0.195,0.183,0.486,0.271,0.719,0.418c0.805-0.141,1.508,0.244,2.312,0.301c0,0.039,0,0.076,0,0.114   C242.131,84.382,242.91,84.806,243.912,85.069z" />
	<path class="st4" d="M206.199,91.013c-0.09-0.059,0.082-0.168,0.076-0.264C206.363,90.803,206.23,90.953,206.199,91.013z" />
	<path class="st3" d="M242.625,95.557c-0.357,0.345-0.7,0.739-1.021,1.174c-0.098,0.13-0.274,0.221-0.342,0.341   c-0.033,0.057,0,0.134-0.038,0.19c-0.045,0.065-0.22,0.128-0.264,0.226c-0.032,0.066,0.054,0.199-0.113,0.151   c0.175,0.106-0.085,0.185-0.151,0.378c-0.034,0.096,0.021,0.182,0,0.268c-0.16,0.562-0.639,1.713-0.531,2.194   c-0.208,0.197-0.518,0.291-0.721,0.493c-1.192-0.246-2.199-0.678-3.406-0.91c-0.029-0.032-0.041-0.085-0.039-0.15   c-0.771-0.175-1.271-0.622-1.703-1.135c-0.13-0.401-0.301-0.764-0.493-1.098c0.134-0.312,0.233-0.653,0.267-1.062   c0.123-0.294,0.362-0.471,0.379-0.871c0.282-0.026,0.373-0.419,0.453-0.759c0.209-0.003,0.248-0.18,0.303-0.339   c0.324-0.03,0.365-0.343,0.529-0.53c0.305-0.023,0.508-0.447,0.797-0.606c1.77,0.614,3.408,1.137,5.338,1.667   C241.984,95.438,242.439,95.362,242.625,95.557z" />
	<path class="st3" d="M201.732,95.103c0.03,0.107-0.055,0.098-0.039,0.189c-0.623,0.17-0.725,0.865-1.172,1.211   c-0.029,0.117,0.102,0.074,0.075,0.19c-0.226,0.038-0.175,0.356-0.417,0.378c-0.033,0.121,0.098,0.079,0.113,0.15   c-0.014,0.166-0.223,0.131-0.15,0.379c-0.162,0.014-0.194,0.193-0.342,0.113c-0.088,0.202-0.193,0.388-0.151,0.72   c-0.218-0.2-0.136,0.271-0.341,0.267c-0.183-1.535,0.254-2.681,0.834-3.713C200.74,95.05,201.115,95.159,201.732,95.103z" />
	<path class="st3" d="M231.569,103.319c-0.284,0.244-0.339,0.603-0.683,0.718c-0.033,0.319-0.284,0.423-0.492,0.567   c-0.05,0.238-0.219,0.622-0.53,0.723c-0.028,0.424-0.472,0.437-0.491,0.869c-0.281,0.148-0.271,0.588-0.531,0.757   c0.01,0.461-0.202,0.867-0.379,1.249c0.125,0.316,0.069,0.703,0.039,1.135c-0.547,0.006-1.115-0.275-1.742-0.111   c0.029-0.034,0.039-0.086,0.039-0.152c-0.445-0.041-0.789-0.363-1.215-0.302c-1.244-0.515-2.387-0.931-3.368-1.667   c0.078-0.354-0.254-0.594-0.302-0.945c0.033-0.057,0.055-0.12,0.15-0.114c-0.101-0.558,0.053-1.142,0-1.818   c0.039,0,0.076,0,0.113,0c0.027-0.115-0.064-0.11-0.037-0.227c0.221-0.258,0.199-0.688,0.341-1.021   c0.114-0.275,0.38-0.422,0.378-0.682c0.117,0.014,0.182-0.089,0.266,0c0.182-0.361,0.535-0.552,0.871-0.757   c0.908,0.139,2.1,0.152,3.104,0.604c0.872,0.129,1.8,0.339,2.614,0.683C230.291,102.883,230.982,103.142,231.569,103.319z" />
	<path class="st4" d="M190.979,111.837c-0.4-0.16-0.218-0.699-0.492-0.947c0.059-0.225,0.167-0.594-0.076-0.719   c0.178-1.045-0.213-1.63,0.115-2.725c-0.12-0.654,0.061-1.363,0.227-1.893c-2.023-0.244-4.022-0.279-6.021-0.227   c-2.257-0.201-4.808,0.066-7.194,0.113c-0.238,0.003-0.493-0.098-0.719,0.076c-0.986-0.168-1.783,0.286-2.575,0.188   c-0.185-0.295,0.08-0.602,0.189-0.833c0.979-0.417,2.096-0.394,3.218-0.415c4.591-0.092,9.516-0.277,13.859,0.074   c0.422-0.458,1.426-0.562,1.74,0.074c1.365,0.088,2.856,0.188,4.393,0.229c1.02,0.027,1.804,0.097,2.802,0.188   c1.774,0.167,3.647,0.396,5.34,0.567c0.267,0.029,0.565-0.023,0.831,0c0.219,0.023,0.394,0.051,0.722,0.077   c0.776,0.065,1.802,0.113,2.233,0.606c-0.044,0.195,0.078,0.223,0.15,0.302c-0.072,0.3-0.068,0.478-0.188,0.759   c-0.065,0.033-0.204-0.002-0.189,0.113c-0.924-0.032-1.452-0.43-2.347-0.569c-0.682,0.001-1.492-0.106-2.197-0.189   c-0.978-0.112-1.951-0.19-2.916-0.378c-0.987-0.192-2.025-0.141-2.991-0.302c-0.15-0.026-0.297-0.128-0.454-0.152   c-0.492-0.083-1.023,0.017-1.476-0.038c-0.078-0.01-0.157-0.11-0.229-0.113c-0.3-0.015-0.63,0.104-0.946,0.075   c-0.365-0.031-0.7-0.113-1.06-0.113c-0.946,0-2.078-0.146-3.144-0.077c-0.516,0.377-0.348,1.221-0.719,1.705   c0.196,0.189,0.021,0.477,0,0.758c-0.053,0.681-0.08,1.519,0.037,2.271c-0.057,0.094-0.009,0.293-0.074,0.378   C190.957,111.064,190.951,111.501,190.979,111.837z" />
	<path class="st4" d="M244.743,85.446c-0.443,0.187-0.528,0.732-1.097,0.795c-0.84,1.195-2.01,2.812-2.082,4.355   c0.043,0.082,0.043,0.209,0.15,0.226c-0.033,0.157-0.209,0.168-0.264,0.305c-1.201-0.011-1.918-0.565-3.066-0.72   c-0.105-0.009-0.107-0.12-0.189-0.15c-0.217,0.013-0.334-0.07-0.455-0.152c-0.076,0-0.152,0-0.228,0   c-0.956-0.471-1.976-0.876-2.688-1.59c-0.277-0.355-0.045-1.219-0.264-1.629c0.154,0.009,0.17,0.158,0.34,0.151   c0.113-0.577-0.129-1.673,0.646-2.007c0.011-0.776,0.736-1.113,1.021-1.741c0.458-0.169,0.914-0.646,1.439-0.871   c-0.803-0.339-1.809-0.55-2.839-0.794c-0.187-0.045-0.399-0.018-0.569-0.078c-0.08-0.029-0.115-0.123-0.189-0.149   c-0.262-0.099-0.562-0.088-0.833-0.151c-0.295-0.071-0.579-0.229-0.87-0.305c-0.351-0.09-0.711-0.107-1.062-0.188   c-0.39-0.092-0.753-0.288-1.136-0.378c-0.32-0.078-0.613-0.045-0.908-0.113c-0.197-0.049-0.357-0.192-0.568-0.266   c-0.182-0.065-0.394-0.037-0.568-0.076c-0.709-0.166-1.355-0.406-2.006-0.568c-0.122-0.045-0.029,0.123-0.15,0.076   c0.02-0.029,0.037-0.061,0.036-0.115c-0.987-0.122-1.866-0.551-2.841-0.567c-0.943-0.356-2.057-0.554-2.952-0.794   c-0.167-0.055-0.099,0.127-0.227,0.114c-0.223-0.229-0.738-0.331-1.173-0.454c-1.41,0.164-2.662-0.523-4.167-0.758   c-0.116,0.059-0.186,0.167-0.301,0.228c-0.208,0.731-0.769,0.943-0.948,1.74c-0.117-0.028-0.072,0.106-0.189,0.076   c0.033,0.425-0.421,0.362-0.378,0.795c-0.05,0-0.101,0-0.15,0c-0.083,0.629-0.596,1.108-0.872,1.667   c-0.035,0.029-0.086,0.039-0.15,0.038c-0.023,0.153-0.132,0.222-0.115,0.417c-0.419,0.359-0.551,1.011-1.059,1.285   c-0.063,0.076,0.003,0.049,0,0.152c-0.065,0.014-0.071-0.029-0.076-0.076c-0.111,0.011-0.053,0.14,0,0.189   c-0.236,0.143-0.258,0.5-0.492,0.645c-0.089-0.314,0.414-0.594,0.264-0.947c0.285-0.482,0.796-0.677,0.72-1.059   c0.063-0.115,0.152-0.201,0.265-0.266c-0.023-0.04-0.084-0.041-0.075-0.113c0.177-0.062,0.184-0.19,0.19-0.342   c0.033-0.029,0.086-0.039,0.148-0.037c-0.002-0.301,0.437-0.697,0.457-1.061c0.438-0.523,0.715-1.205,1.135-1.742   c-0.083-0.08,0.02-0.108,0-0.229c0.279-0.411,0.469-0.678,0.645-1.172c0.102-0.076,0.188-0.167,0.227-0.305   c-0.424-0.244-0.996-0.34-1.551-0.453c-1.025,0.861-1.494,2.494-1.818,3.824c-0.023,0.52,0.048,1.211-0.037,1.667   c0.09,0.182,0.271,0.542,0.037,0.719c-0.362,0.003-0.449-0.437-0.49-0.757c-0.143-1.041,0.033-2.572,0.453-3.221   c-0.08-0.2,0.076-0.404,0.226-0.49c0.078-0.695,0.536-1.33,0.948-1.818c-1.125-0.342-2.317-0.109-3.297-0.453   c-0.138-0.025-0.145,0.08-0.264,0.075c-1.016-0.081-2.367-0.335-3.596-0.229c-0.598,0.055-1.264-0.133-1.781-0.111   c-0.564,0.021-1.322,0.107-1.93,0.111c-0.445,0.006-0.918-0.094-1.363-0.074c-2.288,0.103-5.062,0.096-7.459,0.229   c-0.252,0.014-0.52,0.043-0.758,0.075c-1.373,0.188-2.576,0.224-3.824,0.302c-0.524,0.033-1.07-0.024-1.553,0.039   c-0.569,0.073-1.181,0.501-1.742,0.832c-0.213,0.127-0.314,0.312-0.491,0.455c-0.396,0.318-0.909,0.596-1.25,0.908   c-0.085,0.078-0.177,0.211-0.265,0.303c-0.412,0.432-0.84,0.913-1.211,1.439c-0.376,0.532-0.822,1.025-1.213,1.629   c-0.147,0.064-0.295,0.133-0.455,0.188c-0.005-0.082-0.094-0.08-0.189-0.075c-0.001-0.174-0.125-0.224-0.149-0.379   c0.528-1.592,1.583-2.657,2.573-3.786c0.268-0.148,0.518-0.315,0.645-0.604c0.404-0.29,0.825-0.562,1.136-0.948   c0.379-0.088,0.485-0.448,0.87-0.531c0.049-0.227,0.134-0.308,0.076-0.566c0.293-0.316,0.729-0.124,1.174-0.114   c0.449,0.013,1.051-0.263,1.477,0.04c2.973-0.154,5.401-0.311,8.102-0.416c0.517-0.021,1.165,0.098,1.63-0.078   c0.171,0.043,0.52-0.088,0.567,0.078c0.559-0.127,1.639-0.131,2.196,0c1.182-0.136,2.251-0.161,3.522,0   c0.094-0.138,0.541-0.098,0.643,0c0.121,0.02,0.189-0.014,0.227-0.078c1.988,0.162,3.773,0.229,5.756,0.454   c0.062-0.217,0.242-0.314,0.34-0.491c1.404,0.039,2.55,0.436,3.939,0.758c0.119,0.043,0.091-0.06,0.15-0.077   c0.838,0.46,2.353,0.513,3.295,0.985c0.139,0,0.277,0,0.416,0c0.82,0.421,1.709,0.373,2.612,0.682   c0.415,0.143,1.03,0.312,1.554,0.377c0.094,0.013,0.166,0.142,0.263,0.189c0.41,0.202,1.067,0.197,1.593,0.342   c0.409,0.114,0.73,0.224,1.135,0.38c0.682,0.021,1.311,0.378,2.045,0.378c0.096,0.168,0.46,0.07,0.529,0.264   c1.699,0.318,3.528,0.935,5.188,1.289c1.395,0.556,2.979,0.705,4.317,1.287c0.198-0.084,0.21,0.076,0.454,0.037   c0.039,0.125,0.191,0.136,0.264,0.227c0.659,0.025,0.998,0.268,1.515,0.492c-0.12,0.148,0.077,0.299-0.111,0.456   c0.728,0.167,1.373,0.412,1.854,0.378c1.375,0.467,2.925,0.951,4.28,1.174c0.188,0.406,0.686,0.498,1.134,0.643   c0.341,0.325,0.38,0.801,0.757,1.137c-0.083,0.148,0.266,0.451,0.379,0.644c0.241,1.759-0.457,3.065-1.249,4.28   c-0.319,0.436-0.74,0.773-1.06,1.211c-0.879,0.421-1.316,1.283-2.575,1.324c-0.233-0.21-0.171-0.279,0.076-0.567   c0.194-0.228,0.482-0.468,0.644-0.681c0.68-0.281,1.062-0.857,1.59-1.287c0.053-0.014,0.032-0.096,0.037-0.152   c0.686-0.442,1.408-1.691,1.288-2.726c-0.011-0.101-0.087-0.182-0.112-0.304c-0.028-0.135,0.064-0.465-0.076-0.417   c-0.014-0.267-0.334-0.468-0.303-0.795C245.432,86.026,245.178,85.839,244.743,85.446z M240.847,84.273c0-0.038,0-0.075,0-0.114   c-0.804-0.057-1.507-0.441-2.312-0.301c-0.232-0.146-0.523-0.235-0.719-0.418c-0.191,0.037-0.303,0.154-0.567,0.112   c-0.338,0.347-0.646,0.719-1.024,1.023c-0.213,0.618-0.596,1.068-0.642,1.856c-0.345,0.467-0.103,1.121-0.229,1.741   c1.379,1.306,3.796,1.951,5.717,2.462c-0.062-0.442,0.132-0.629,0.267-0.873c-0.059-0.002-0.133,0.007-0.114-0.076   c0.066-0.498,0.409-0.668,0.265-1.172c0.162-0.421,0.275-0.887,0.605-1.137c0.025-0.594,0.577-0.736,0.909-1.098   c-0.009,0.012-0.087-0.015-0.076-0.039c0.058-0.107,0.223-0.126,0.302-0.227c0.027-0.029-0.016-0.115,0-0.15   c0.14-0.292,0.619-0.454,0.684-0.795C242.91,84.806,242.131,84.382,240.847,84.273z" />
	<path class="st3" d="M206.01,91.468c-0.19-0.479-0.079-1.163-0.151-1.515c-0.024-0.101,0.079-0.073,0.114-0.114   c-0.207-0.53,0.158-0.781,0.15-1.438c0.255-0.188,0.028-0.73,0.416-0.834c0.049-0.123-0.121-0.029-0.074-0.15   c0.208-0.117,0.15-0.42,0.305-0.721c0.115-0.229,0.559-0.648,0.792-0.947c0.145-0.182,0.245-0.457,0.493-0.492   c0.328-0.043,0.629,0.171,1.023,0.228c0.02,0.19-0.133,0.22-0.227,0.304c-0.52,0.449-0.592,1.277-1.061,1.779   c-0.102,0.515-0.508,0.806-0.493,1.325c-0.074,0.015-0.029,0.146-0.149,0.113c-0.041,0.53-0.399,1.063-0.646,1.517   c-0.049,0.072-0.198-0.076-0.227,0.074c-0.059,0.135,0.129,0.023,0.113,0.113c-0.023,0.189-0.117,0.312-0.266,0.38   C206.127,91.285,206.19,91.404,206.01,91.468z M206.275,90.749c0.006,0.096-0.166,0.205-0.076,0.264   C206.23,90.953,206.363,90.803,206.275,90.749z" />
	<path class="st3" d="M198.703,100.101c0.124,0.09-0.049,0.201-0.076,0.266C198.564,100.335,198.693,100.182,198.703,100.101z" />
	<path class="st4" d="M169.17,152.731c0.209,0.007,0.42-0.256,0.34-0.53c-0.693,0.073-1.428,0.528-2.121,0.491   c-1.198,0.481-2.772,0.556-4.391,0.491c-0.588-0.021-1.271,0.171-1.629-0.263c0.07-0.283,0.268-0.124,0.455-0.154   c1.297-0.195,2.788-0.418,3.938-0.756c0.693-0.14,1.364-0.303,1.931-0.568c0.825-0.221,1.681-0.414,2.31-0.831   c0.775-0.337,1.436-0.785,2.16-1.175c0.249-0.443,0.576-0.81,0.982-1.098c0.004-0.103-0.062-0.076,0-0.15   c0.086-0.055,0.125-0.154,0.228-0.191c0.43-0.78,1.15-1.273,1.552-2.083c0.5-0.369,0.67-1.072,1.137-1.476   c0.357-0.689,0.764-1.33,1.212-1.932c0.257-0.512,0.541-1,0.871-1.439c-0.03-0.033-0.042-0.084-0.039-0.15   c0.517-0.721,0.889-1.585,1.288-2.424c0.059-0.041,0.078-0.123,0.188-0.112c0.01-0.122-0.064-0.161-0.037-0.304   c1.023-2,1.471-4.23,2.159-6.475c0.009-0.122-0.066-0.159-0.038-0.303c0.583-1.279,0.547-3.045,0.871-4.543   c0.021-0.102,0.137-0.205,0.151-0.304c0.055-0.364-0.12-0.805,0.114-1.136c0.01-0.722,0.276-1.595,0.112-2.045   c0.021-0.092,0.147-0.08,0.114-0.227c-0.102-0.366,0.048-0.801,0.039-1.211c-0.004-0.155-0.113-0.311-0.115-0.455   c0-0.034,0.107-0.119,0.115-0.15c0.094-0.504-0.418-1.423,0.15-1.555c0.399-0.091,0.656,0.379,0.681,0.721   c0.005,0.061-0.072,0.127-0.074,0.188c-0.011,0.202,0.05,0.426,0.037,0.683c-0.04,0.775-0.144,1.733-0.076,2.346   c-0.148,0.312-0.226,0.951-0.151,1.25c-0.22,0.471-0.227,1.232-0.303,1.855c-0.023,0.195-0.152,0.463-0.037,0.606   c-0.33,0.524-0.162,1.52-0.53,2.159c0.009,0.972-0.315,1.436-0.454,2.386c-0.035,0.028-0.087,0.039-0.152,0.036   c0.021,0.035,0.105,0.058,0.037,0.076c-0.123,0.037,0.043,0.075,0.039,0.113c-0.179,0.619-0.277,1.273-0.455,1.893   c-0.061,0.217-0.207,0.428-0.264,0.644c-0.211,0.803-0.365,1.62-0.796,2.233c-0.003,0.41-0.229,0.902-0.455,1.213   c0,0.063,0,0.125,0,0.189c-0.081,0.096-0.176,0.178-0.15,0.379c-0.286,0.408-0.465,0.923-0.681,1.4   c-0.121-0.006-0.018,0.212-0.19,0.152c0.036,0.287-0.267,0.43-0.266,0.795c-0.149-0.05-0.077,0.123-0.226,0.074   c0.026,0.141-0.065,0.162-0.039,0.305c-0.57,0.791-1.073,1.652-1.553,2.536c0.23-0.048,0.517-0.039,0.605-0.228   c1.049-0.251,1.168-1.432,1.816-2.082c0.602-1.218,1.271-2.366,1.896-3.559c0.011-0.089,0.058-0.144,0.037-0.266   c0.363-0.355,0.488-0.95,0.795-1.362c-0.009-0.159,0.061-0.179,0-0.304c0.189-0.023,0.215-0.212,0.227-0.416   c0.247-0.182,0.275-0.584,0.531-0.758c-0.072-0.26,0.17-0.206,0.111-0.454c0.395-0.325,0.455-0.985,0.646-1.514   c0.362-0.668,0.976-0.541,1.286,0.149c-0.047,0.596-0.4,0.984-0.341,1.477c-1.017,1.441-1.72,3.484-2.612,4.81   c0,0.076,0,0.151,0,0.228c-0.669,0.971-1.133,2.148-1.779,3.143c2.213-0.828,4.132-1.951,6.096-3.029   c0.637-0.574,1.422-1.002,2.12-1.515c1.562-1.304,3.023-2.709,4.507-4.089c0.375-0.697,1.104-1.042,1.477-1.742   c0.411-0.231,0.605-0.681,0.984-0.945c0.321-0.59,0.887-0.934,1.136-1.591c0.708-0.794,1.28-1.722,1.741-2.765   c0.873-1.244,1.437-2.872,2.084-4.316c0.014-0.463,0.276-0.771,0.416-1.172c0.14-0.409,0.127-0.885,0.416-1.213   c-0.191-0.369,0.164-0.676,0.266-0.984c0.582-0.214,1.013,0.168,1.324,0.454c0.162,0.263-0.086,0.433-0.227,0.719   c-0.028,0.056,0.026,0.149,0,0.229c-0.028,0.081-0.182,0.131-0.228,0.226c-0.104,0.218-0.078,0.52-0.151,0.682   c-0.041,0.094-0.243,0.141-0.151,0.418c-0.279,0.269-0.339,0.676-0.493,1.135c-0.361,0.645-0.48,1.355-0.908,1.97   c-0.238,1.036-0.819,1.558-1.136,2.46c-0.519,0.604-0.794,1.453-1.364,2.008c-0.233,0.686-0.805,1.037-1.096,1.666   c-1.417,1.486-2.72,3.086-4.242,4.468c-0.672,0.741-1.492,1.335-2.158,2.083c-1.4,1.012-2.663,2.156-4.278,2.953   c-0.731,0.657-1.794,0.984-2.613,1.551c-0.542,0.062-0.751,0.461-1.324,0.492c-0.055,0.009-0.014,0.114-0.075,0.115   c-1.037,0.342-2.032,0.768-2.955,1.022c-0.592,0.907-1.424,1.578-2.006,2.499c-0.121-0.032-0.117,0.059-0.189,0.076   c-0.754,0.784-1.502,1.575-2.424,2.195c-0.32,0.31-0.576,0.686-1.023,0.871c-0.348,0.406-0.977,0.537-1.286,0.983   c-0.196,0.106-0.465,0.142-0.53,0.378c-0.377,0.063-0.744,0.249-1.061,0.418c-0.426,0.229-0.697,0.664-0.984,1.022   c-0.116-0.004-0.18,0.046-0.264,0.074c-0.107,0.039,0.054,0.101-0.038,0.153c-0.2-0.138-0.33,0.223-0.341,0.264   c-0.332-0.021-0.531,0.566-0.871,0.53C168.693,153.214,169.222,153.263,169.17,152.731z M174.697,147.315   c1.021-0.846,1.967-1.768,2.764-2.84c-0.204,0.074-0.531,0.025-0.795,0.039c-0.267,0.428-0.454,0.934-0.947,1.136   c-0.158,0.525-0.48,1.206-1.06,1.438C174.746,147.208,174.676,147.368,174.697,147.315z" />
	<path class="st3" d="M174.659,147.088c0.579-0.231,0.901-0.912,1.06-1.438c0.493-0.202,0.681-0.708,0.947-1.136   c0.264-0.014,0.591,0.035,0.795-0.039c-0.797,1.072-1.742,1.994-2.764,2.84C174.676,147.368,174.746,147.208,174.659,147.088z" />
	<path class="st4" d="M199.195,93.854c0.343-0.537,0.951-0.306,1.553-0.342c0.329-0.019,0.645-0.118,0.945,0.038   c-0.051,0.166,0.091,0.138,0.115,0.228c0.58-0.026,0.986,0.31,1.552,0.378c1.077,0.133,2.069,0.456,3.067,0.721   c0.462,0.12,0.961,0.186,1.4,0.342c1.137,0.397,2.476,0.682,3.597,0.945c0.699,0.162,1.445,0.188,2.083,0.416   c0.559,0.199,1.42,0.395,2.119,0.643c1.74,0.32,3.301,1.018,4.962,1.289c0.624,0.368,1.369,0.446,2.081,0.681   c0.205,0.065,0.368,0.223,0.568,0.304c0.793,0.322,1.657,0.539,2.463,0.833c0.057,0.092,0.201,0.099,0.226,0.228   c2.774,0.6,5.546,1.518,8.292,2.195c0.058,0.169,0.14,0.316,0.229,0.454c0.534,0.271,0.666,0.948,1.248,1.173   c0.119,0.603,0.523,0.924,0.605,1.554c-0.019,0.243-0.28,0.574-0.076,0.795c-0.159-0.015-0.084,0.207-0.074,0.265   c-0.159,0.326-0.353,0.639-0.227,1.061c-0.229,0.32-0.274,0.812-0.569,1.098c0.034,0.111,0.034,0.117,0,0.227   c-0.058,0.132-0.21,0.17-0.188,0.38c-0.122,0.019-0.161,0.12-0.306,0.112c-0.529,0.778-1.24,1.551-2.043,1.932   c-0.107,0.07-0.145,0.209-0.227,0.304c-0.132-0.03-0.146,0.056-0.266,0.037c-1.604,0.944-3.666,0.785-5.756,0.983   c-0.145,0.016-0.314-0.002-0.454,0c-1.303,0.019-2.468-0.179-3.9-0.15c-0.899-0.172-1.814-0.26-2.497-0.721   c0.037,0.203-0.109,0.406-0.115,0.646c-0.002,0.127,0.091,0.277,0.076,0.415c-0.039,0.343-0.322,0.648-0.416,0.984   c-0.072,0.255-0.031,0.503-0.113,0.682c-0.164,0.349-0.471,0.689-0.646,0.909c0.06,0.413-0.271,0.435-0.263,0.795   c-0.572,0.148-0.702,0.738-1.062,1.099c-0.712,0.295-1.186,0.834-1.855,1.173c-0.58,0.139-1.122,0.344-1.705,0.568   c-0.209-0.106-0.721-0.037-0.943,0.076c-3.059-0.045-6.825-0.066-9.693-0.72c-0.045-0.007-0.033-0.069-0.039-0.113   c-0.755-0.092-1.262-0.431-1.855-0.683c-2.547,0.064-4.637,0.211-7.231,0.038c-0.833-0.054-1.38-0.218-2.31-0.074   c-0.295,0.044-0.664,0.077-0.91,0.149c-1.309,0.387-3.141,0.386-4.619,0.416c-0.399,0.011-0.752,0.063-1.098,0.039   c-0.445-0.03-1.002-0.185-1.287,0.075c-0.078,0.073-0.105,0.181-0.188,0.267c-0.41,0.416-1.07,0.797-1.517,1.172   c-0.063,0.055-0.079,0.168-0.151,0.229c-0.225,0.188-0.707,0.383-1.098,0.643c-0.18,0.119-0.363,0.23-0.53,0.342   c-0.179,0.117-0.272,0.25-0.491,0.378c-0.05,0.028-0.138,0-0.189,0.038c-0.648,0.479-1.677,0.848-2.462,1.25   c-0.297,0.15-0.891,0.365-1.288,0.492c-0.176,0.057-0.475,0.113-0.567,0.113c-0.187,0.004-0.378-0.147-0.568-0.15   c-0.211-0.006-0.433,0.209-0.604-0.038c0.166-0.275,0.553-0.33,0.908-0.417c0.084-0.031,0.094-0.133,0.152-0.189   c0.951-0.375,1.939-0.71,2.65-1.326c0.825-0.232,1.549-0.865,2.309-1.285c0.799-0.578,1.593-1.161,2.311-1.82   c-0.061-0.178-0.246-0.232-0.265-0.453c0.548-0.278,0.917-0.039,1.325-0.455c0.131-0.135,0.285-0.398,0.491-0.529   c0.056-0.035,0.159-0.014,0.19-0.039c0.189-0.156,0.264-0.529,0.681-0.264c0.009,0.379-0.153,0.631-0.152,0.985   c1.635-0.07,2.879-0.132,4.507-0.493c-0.186-0.182-0.463-0.27-0.605-0.492c-0.055-0.281,0.11-0.344,0.189-0.492   c1.352,0.224,3.049,0.668,4.506,0.303c0.404-0.238,1.041-0.244,1.248-0.681c0.785-0.229,0.945,0.729,0.53,1.134   c0.753,0.033,1.644,0.07,2.613,0.039c1.193-0.039,2.612-0.04,3.407-0.529c0.271,0.1,0.652,0.308,0.834,0   c0.878-0.059,2.277-0.912,2.043,0.643c-0.194,0.223-0.365,0.467-0.643,0.605c0.096,0.146,0.27,0.164,0.416,0.189   c0.643,0.123,1.411,0.109,2.081,0.153c1.447,0.091,2.915,0.231,4.167,0.263c1.144,0.03,2.395,0.057,3.445-0.15   c0.672-0.134,1.242-0.484,1.854-0.682c0.351-0.408,0.887-0.627,1.288-0.984c0-0.076,0-0.153,0-0.227   c0.322-0.081,0.346-0.463,0.643-0.568c0-0.076,0-0.152,0-0.227c0.437-0.498,0.807-1.062,0.91-1.893   c0.02-0.119,0.115-0.164,0.152-0.267c0.027-0.115-0.067-0.111-0.037-0.227c0.24-0.271,0.176-0.749,0.037-1.099   c0.087-0.303,0.018-0.521-0.152-0.721c-0.029-0.156,0.052-0.315,0-0.379c-0.288-0.436-0.707-0.916-0.266-1.323   c-0.562,0.214-1.201,0.245-1.627,0.644c-0.07,0.064-0.107,0.197-0.191,0.264c-0.088,0.073-0.213,0.068-0.303,0.153   c-0.188,0.185-0.276,0.496-0.454,0.757c-0.11,0.162-0.31,0.248-0.417,0.416c-0.214,0.346-0.23,0.803-0.34,1.211   c-0.104,0.396-0.327,0.727-0.303,1.099c0.013,0.114,0.021,0.231,0.113,0.266c-0.027,0.109-0.139,0.14-0.188,0.228   c0.023,0.155,0.107,0.311,0.111,0.378c-0.275,0.186-0.566,0.728-0.909,0.796c-0.303,0.061-0.733-0.166-1.134-0.229   c-0.193-0.028-0.443,0.061-0.607,0.037c-0.182-0.023-0.387-0.157-0.566-0.188c-0.964-0.168-1.962-0.345-2.689-0.718   c-0.34-0.281-0.82-0.417-1.174-0.683c-0.121,0.296,0.207,0.667,0.341,0.946c-0.028,0.061-0.118,0.057-0.113,0.151   c-0.302,0.036-0.306-0.226-0.491-0.302c-0.123-0.445-0.169-0.969-0.268-1.478c-0.037-0.196-0.167-0.357-0.15-0.569   c0.012-0.119,0.095-0.123,0.15-0.264c0.119-0.285,0.041-0.629,0.268-0.795c-0.037-0.172,0.098-0.283-0.037-0.34   c0.025-0.102,0.122-0.13,0.15-0.227c-0.09-0.891,0.574-1.569,0.871-2.312c0.383-0.247,0.672-0.746,1.287-0.643   c0.459,0.357-0.287,0.496-0.568,0.795c-0.264,0.279-0.359,0.499-0.455,0.719c-0.129-0.029-0.159,0.045-0.227,0.077   c-0.209,0.422-0.238,1.022-0.643,1.251c0.129,0.143,0.01,0.419-0.152,0.49c0.124,0.351-0.173,0.773-0.113,1.135   c0.023,0.152,0.148,0.347,0.229,0.456c0.522,0.709,1.686,1.152,2.422,1.591c0.292-0.052,0.564,0.133,0.832,0.188   c0.349,0.072,0.755,0.09,1.098,0.189c0.041,0.014,0.296,0.029,0.227,0c0.078,0.033,0.062,0.143,0.115,0.152   c0.074,0.013,0.229-0.049,0.34-0.037c0.516,0.047,0.879,0.215,1.438,0.15c-0.166-0.206,0.057-0.684-0.225-0.834   c-0.007-0.289,0.014-0.354,0.15-0.529c0.018-0.422,0.145-0.827,0.227-1.174c0.088-0.367,0.134-0.848,0.268-1.173   c0.082-0.204,0.31-0.415,0.453-0.644c0.352-0.565,0.537-0.971,1.061-1.325c-0.785-0.124-1.984-0.374-2.803-0.456   c-0.963-0.586-3.02-0.277-3.407-1.552c0.037-0.002,0.03-0.046,0.039-0.075c2.751,0.217,5.622,1.018,8.366,0.985   c0.145,0.175,0.39,0.461,0.189,0.757c1.241-0.088,1.479,1.256,1.781,2.119c1.814,0.223,3.816,0.426,6.018,0.531   c0.07-0.17,0.312,0.028,0.606-0.039c0.085,0.021,0.054-0.072,0.114-0.076c1.065-0.101,1.992-0.039,2.916-0.226   c0.105-0.022,0.133,0.003,0.189-0.114c1.064,0.041,1.77-0.602,2.611-0.907c0.408-0.489,1.166-0.628,1.401-1.288   c0.081-0.035,0.167-0.061,0.227-0.115c-0.037-0.367,0.254-0.461,0.417-0.719c0.212-0.791,0.282-1.486,0.455-2.234   c-0.08-0.5-0.584-0.58-0.605-1.096c-0.117-0.076-0.271-0.109-0.229-0.343c-0.086-0.134-0.406-0.197-0.529-0.339   c-0.211-0.246-0.303-0.982-0.756-0.799c-0.406,0.168-0.846,0.611-1.291,0.834c-0.428,0.67-1.028,1.164-1.476,1.818   c-0.124,0.449-0.175,0.746-0.452,1.023c-0.043,0.357-0.069,1.037-0.342,1.286c0.037,0.114,0.133,0.169,0.113,0.341   c-0.031,0.108-0.062,0.217-0.227,0.189c0.027,0.035,0.066,0.059,0.113,0.076c-0.084,0.217-0.285,0.32-0.379,0.53   c-0.161-0.009-0.301,0.003-0.34,0.112c-1.085-0.254-1.943-0.429-3.143-0.719c0-0.037,0-0.076,0-0.113   c-0.791-0.242-1.561-0.4-2.047-0.871c-0.689-0.023-1.174-0.562-1.664-0.908c0.006-0.451-0.264-0.504-0.152-0.984   c0.099,0.004,0.055,0.148,0.152,0.152c0.091-0.338-0.146-0.492,0.037-0.797c0.015-0.115-0.137-0.064-0.152-0.15   c0.074-0.303-0.054-0.693,0.152-0.986c-0.047-0.066-0.008-0.219-0.078-0.265c0.18-0.499,0.115-1.31,0.57-1.628   c-0.084-0.082,0.033-0.129,0-0.264c0.382-0.352,0.645-0.819,1.135-1.062c0.041-0.179-0.189-0.087-0.189-0.228   c0.065-0.098,0.006-0.324,0.076-0.416c-0.242-0.153-0.537-0.271-0.832-0.379c-0.255-0.092-0.572-0.137-0.871-0.189   c-0.305-0.185-0.541-0.209-0.984-0.264c-0.062-0.09-0.195-0.109-0.264-0.189c-0.348,0.018-0.496-0.143-0.758-0.113   c-0.161-0.243-0.506-0.182-0.796-0.266c-0.622-0.18-1.337-0.432-1.931-0.645c-0.799-0.064-1.459-0.453-2.16-0.49   c-0.103-0.01-0.105-0.121-0.188-0.152c-2.364-0.473-5.242-1.211-7.574-1.855c-0.18-0.052-0.398-0.069-0.605-0.037   c-1.244-0.433-2.363-0.598-3.786-0.871c-0.454,0.68-1.081,1.189-1.401,2.007c-0.12,0.032-0.116-0.062-0.188-0.075   c0.086,0.188-0.011,0.416-0.228,0.416c0,0.1,0,0.201,0,0.301c-0.432,0.453-0.632,1.135-1.022,1.629   c0.062,0.506,0.349,1.115,0.454,1.553c-0.203,0.027-0.323-0.027-0.454-0.076c-0.058-0.347-0.146-0.434-0.302-0.757   c-0.184,0.233-0.328,0.507-0.53,0.72c-0.173-0.166-0.009-0.279-0.076-0.529c0.26-0.229,0.214-0.609,0.416-0.834   c-0.196-1.596-0.334-3.366,0.53-4.582c-0.456-0.143-0.973-0.203-1.477-0.151c-0.282,0.03-0.426-0.055-0.643-0.074   c-0.061-0.007-0.127,0.074-0.189,0.074c-0.17,0.002-0.376-0.109-0.531-0.111c-0.329-0.007-0.75,0.03-1.211,0   c-0.408-0.03-0.857,0.035-1.249,0c-1.158-0.106-2.276-0.184-3.294-0.191c-0.141,0.026,0.016,0.113-0.076,0.191   c-0.14-0.03,0.016-0.116-0.076-0.191c-1.703-0.063-3.379-0.122-4.998-0.114c-2.54,0.014-4.941-0.199-7.232-0.113   c-0.201,0.008-0.406-0.086-0.605-0.074c-0.49,0.023-0.854,0.083-1.288-0.266c-0.132-0.302-0.064-0.678,0.153-0.832   c0.387-0.186,1.137-0.012,1.514-0.114c4.496,0.177,8.859,0.437,13.594,0.378c1.266,0.17,3.055,0.216,4.202,0.228   c0.033,0.03,0.022,0.104,0.075,0.113C196.986,93.597,198.279,93.802,199.195,93.854z M200.143,94.987   c-0.58,1.032-1.017,2.178-0.834,3.713c0.205,0.004,0.123-0.467,0.341-0.267c-0.042-0.332,0.063-0.518,0.151-0.72   c0.147,0.08,0.18-0.1,0.342-0.113c-0.072-0.248,0.137-0.213,0.15-0.379c-0.016-0.071-0.146-0.029-0.113-0.15   c0.242-0.021,0.191-0.34,0.417-0.378c0.026-0.116-0.104-0.073-0.075-0.19c0.447-0.346,0.549-1.041,1.172-1.211   c-0.016-0.092,0.069-0.082,0.039-0.189C201.115,95.159,200.74,95.05,200.143,94.987z M198.627,100.366   c0.027-0.064,0.2-0.176,0.076-0.266C198.693,100.182,198.564,100.335,198.627,100.366z M229.714,102.826   c-0.814-0.344-1.742-0.554-2.614-0.683c-1.004-0.451-2.195-0.465-3.104-0.604c-0.336,0.205-0.689,0.396-0.871,0.757   c-0.084-0.089-0.148,0.014-0.266,0c0.002,0.26-0.264,0.406-0.378,0.682c-0.142,0.333-0.12,0.764-0.341,1.021   c-0.027,0.116,0.064,0.111,0.037,0.227c-0.037,0-0.074,0-0.113,0c0.053,0.677-0.101,1.261,0,1.818   c-0.096-0.006-0.117,0.058-0.15,0.114c0.048,0.352,0.38,0.592,0.302,0.945c0.981,0.736,2.124,1.152,3.368,1.667   c0.426-0.062,0.77,0.261,1.215,0.302c0,0.066-0.01,0.118-0.039,0.152c0.627-0.164,1.195,0.117,1.742,0.111   c0.03-0.432,0.086-0.818-0.039-1.135c0.177-0.382,0.389-0.788,0.379-1.249c0.26-0.169,0.25-0.608,0.531-0.757   c0.02-0.433,0.463-0.445,0.491-0.869c0.312-0.101,0.48-0.484,0.53-0.723c0.208-0.145,0.459-0.248,0.492-0.567   c0.344-0.115,0.398-0.474,0.683-0.718C230.982,103.142,230.291,102.883,229.714,102.826z" />
</g>
<path class="st5" d="M53.885,161.854c0,0-15.91,25.193-20.344,35.961" />
<path class="st5" d="M33.62,131.539c0,0-18.445,19.093-23.195,22.417" />
<path class="st6" d="M167.65,151.708c0,0-22.462,40.021-26.983,51.004" />
<path class="st7" d="M150.594,132.501c-10.15,10.662-15.836,16.45-19.352,19.817" />
<path class="st8" d="M27.842,137.647c0,0-1.268,20.109,20.899,30.4" />
<path class="st8" d="M145.314,138.229c0,0-2.408,18.578,15.326,22.378" />
<g>
	<g>
		<g>
			<path class="st9" d="M267.809,136.121c-1.74,9.187-9.811,16.132-19.504,16.132c-10.965,0-19.853-8.888-19.853-19.852     s8.888-19.853,19.853-19.853c8.033,0,14.954,4.77,18.078,11.636" />
			<polygon points="260.036,122.753 265.667,122.609 269.475,118.458 269.844,131.791    " />
		</g>
	</g>
</g>
</svg>
