<?xml version="1.0" encoding="UTF-8"?>
<!-- Generator: Adobe Illustrator 18.1.1, SVG Export Plug-In . SVG Version: 6.00 Build 0)  -->
<svg xmlns="http://www.w3.org/2000/svg" xmlns:xlink="http://www.w3.org/1999/xlink" version="1.1" id="Lager_1" x="0px" y="0px" width="226.77px" height="226.77px" viewBox="0 0 226.77 226.77" enable-background="new 0 0 226.77 226.77" xml:space="preserve"><rect fill="#FFFFFF" x="0px" y="0px" width="226.77px" height="226.77px" />
<g>
	<path d="M168.513,45.337c1.892,2.095,3.344,4.673,3.962,7.553c0.313,1.438,0.342,2.964,0.059,4.454   c-0.276,1.493-0.903,2.927-1.771,4.173c-1.746,2.511-4.259,4.287-6.861,5.595c-1.307,0.659-2.646,1.238-4.014,1.713   c-1.367,0.477-2.752,0.885-4.144,1.245l0.529-0.284c-0.412,0.368-0.794,0.696-1.198,1.025l-1.205,0.968   c-0.813,0.629-1.635,1.243-2.481,1.824c-1.684,1.17-3.414,2.271-5.194,3.287c-1.777,1.019-3.589,1.985-5.467,2.812   c-0.929,0.433-1.88,0.82-2.832,1.202c-0.947,0.393-1.926,0.71-2.887,1.068l0.512-0.38c-0.636,0.824-1.276,1.575-1.951,2.326   c-0.67,0.747-1.356,1.479-2.057,2.195c-1.394,1.44-2.881,2.789-4.428,4.062c-1.544,1.278-3.189,2.435-4.903,3.468   c-0.865,0.506-1.751,0.971-2.656,1.392c-0.91,0.412-1.847,0.758-2.793,1.051c1.783-0.87,3.433-1.942,4.991-3.125   c1.564-1.177,3.016-2.487,4.424-3.837c1.398-1.363,2.723-2.796,4.007-4.264c0.639-0.736,1.261-1.486,1.867-2.248   c0.597-0.762,1.204-1.544,1.753-2.302l0.177-0.244l0.335-0.136c0.917-0.372,1.849-0.702,2.752-1.108   c0.907-0.394,1.813-0.792,2.698-1.236c0.897-0.417,1.763-0.899,2.647-1.344c0.866-0.479,1.743-0.938,2.589-1.454   c1.711-0.997,3.374-2.078,4.988-3.222c0.806-0.574,1.603-1.159,2.391-1.753l1.16-0.914c0.381-0.304,0.765-0.63,1.107-0.929   l0.243-0.213l0.286-0.071c2.674-0.661,5.299-1.492,7.762-2.611c1.229-0.564,2.405-1.221,3.485-1.991   c1.092-0.753,2.077-1.638,2.886-2.655c0.797-1.023,1.413-2.178,1.771-3.431c0.364-1.254,0.432-2.596,0.308-3.937   c-0.123-1.346-0.489-2.68-0.969-3.979C169.895,47.79,169.284,46.52,168.513,45.337z" />
</g>
<g id="Färg_2_">
	
		<linearGradient id="SVGID_1_" gradientUnits="userSpaceOnUse" x1="79.5152" y1="22.4904" x2="88.3376" y2="35.5902" gradientTransform="matrix(1 0 0 -1 0 226.11)">
		<stop offset="0" style="stop-color:#FFFFFF" />
		<stop offset="1" style="stop-color:#EDEDED" />
	</linearGradient>
	<polygon fill="url(#SVGID_1_)" points="101.946,215.104 112.096,195.149 120.01,180.036 115.968,179.338 101.5,176.231    91.013,169.907 84.429,161.961 55.921,193.862  " />
</g>
<path fill="none" stroke="#000000" stroke-linecap="round" d="M85.601,164.241c0,0,10.439,15.465,33.052,15.137" />
<g>
	<path d="M103.36,16.625c1.451-0.286,2.95-0.378,4.447-0.291c1.499,0.078,3.002,0.366,4.449,0.891   c1.45,0.515,2.817,1.345,3.969,2.435c1.158,1.087,2.054,2.457,2.642,3.928c1.194,2.96,1.3,6.162,0.979,9.184   c-0.162,1.519-0.411,3.021-0.763,4.492c-0.35,1.471-0.769,2.919-1.232,4.348l-0.052-0.907c0.208,0.453,0.356,0.84,0.518,1.261   c0.154,0.413,0.297,0.829,0.434,1.246c0.262,0.837,0.513,1.677,0.692,2.535c0.195,0.854,0.342,1.719,0.467,2.587   c0.116,0.87,0.193,1.746,0.237,2.625c0.032,0.88,0.032,1.762-0.018,2.645c-0.013,0.441-0.077,0.882-0.113,1.322   c-0.037,0.444-0.111,0.865-0.184,1.305c-0.298,1.727-0.748,3.42-1.321,5.061l0.019-0.614c0.232,0.985,0.418,1.932,0.575,2.903   c0.163,0.965,0.305,1.933,0.43,2.902c0.258,1.938,0.403,3.889,0.476,5.841l0.029,1.465c0.02,0.487-0.016,0.978-0.022,1.466   c-0.009,0.976-0.099,1.952-0.162,2.924c-0.118,0.971-0.217,1.94-0.409,2.897c-0.146,0.962-0.432,1.899-0.665,2.835l0.138-1.444   c0.06-0.477,0.054-0.962,0.082-1.441c0.068-0.957,0.029-1.92,0.032-2.876c-0.043-0.958-0.058-1.913-0.153-2.866   c-0.07-0.953-0.175-1.904-0.275-2.852c-0.126-0.948-0.243-1.894-0.407-2.836c-0.15-0.942-0.31-1.883-0.49-2.82   c-0.18-0.937-0.375-1.87-0.591-2.797c-0.215-0.923-0.445-1.862-0.683-2.749l-0.079-0.296l0.098-0.319   c0.479-1.555,0.837-3.142,1.052-4.742c0.052-0.392,0.102-0.804,0.129-1.199c0.028-0.398,0.083-0.793,0.089-1.194   c0.037-0.799,0.027-1.6-0.009-2.402c-0.05-0.802-0.128-1.602-0.243-2.4c-0.124-0.796-0.267-1.591-0.455-2.376   c-0.18-0.787-0.398-1.565-0.63-2.337c-0.121-0.384-0.248-0.766-0.384-1.143c-0.135-0.366-0.287-0.766-0.427-1.079l-0.204-0.456   l0.152-0.452c0.461-1.369,0.878-2.749,1.227-4.14c0.346-1.391,0.658-2.787,0.85-4.194c0.196-1.404,0.295-2.817,0.232-4.208   c-0.043-1.391-0.244-2.771-0.684-4.061c-0.44-1.288-1.104-2.49-2.01-3.511c-0.904-1.025-2.055-1.835-3.32-2.459   c-1.268-0.627-2.66-1.027-4.084-1.3C106.305,16.708,104.836,16.571,103.36,16.625z" />
</g>
<g>
	<path d="M169.023,47.561c0,0-0.328,0.147-0.902,0.404c-0.577,0.246-1.392,0.623-2.363,1.071c-0.487,0.222-1.005,0.48-1.548,0.749   c-0.536,0.273-1.108,0.586-1.594,0.947c-0.12,0.089-0.227,0.188-0.291,0.269c-0.035,0.042-0.039,0.068-0.039,0.061   c-0.03,0.103-0.024,0.128-0.03,0.18c-0.02,0.268,0.024,0.599,0.071,0.925c0.102,0.659,0.28,1.338,0.487,2.003   c0.198,0.668,0.428,1.332,0.699,1.952c0.139,0.305,0.275,0.614,0.434,0.869c0.039,0.065,0.079,0.121,0.118,0.175   c0.004,0.009,0.07,0.074,0.023,0.037l0.097,0.083c0.072,0.069,0.121,0.092,0.157,0.108c0.033,0.024,0.084,0.05,0.153,0.072   c0.497,0.199,1.139,0.196,1.711,0.138c0.58-0.069,1.137-0.183,1.642-0.328c1.011-0.29,1.845-0.619,2.411-0.883   c0.572-0.26,0.899-0.408,0.899-0.408s-0.073,0.053-0.209,0.152c-0.139,0.094-0.33,0.257-0.6,0.421   c-0.53,0.341-1.301,0.826-2.32,1.244c-0.51,0.205-1.08,0.403-1.716,0.521c-0.635,0.1-1.339,0.214-2.117-0.046   c-0.158-0.035-0.477-0.217-0.574-0.304l-0.101-0.079c-0.105-0.099-0.096-0.098-0.149-0.153c-0.067-0.081-0.131-0.163-0.186-0.243   c-0.221-0.323-0.395-0.645-0.548-0.98c-0.306-0.668-0.559-1.356-0.779-2.057c-0.206-0.706-0.38-1.42-0.482-2.157   c-0.049-0.371-0.075-0.742-0.027-1.163c0.016-0.119,0.05-0.265,0.073-0.326c0.057-0.168,0.143-0.29,0.219-0.377   c0.158-0.178,0.313-0.297,0.467-0.402c0.613-0.414,1.222-0.66,1.799-0.908c0.577-0.242,1.134-0.431,1.646-0.605   c1.027-0.343,1.9-0.566,2.506-0.732C168.67,47.632,169.023,47.561,169.023,47.561z" />
</g>
<path fill="none" stroke="#000000" stroke-width="2" stroke-linecap="round" d="M99.232,75.494c0,0,2.231-23.175,3.578-26.524  c1.347-3.348,2.203-21.815,2.203-21.815" />
<line fill="none" stroke="#000000" stroke-width="2" stroke-linecap="round" x1="105.78" y1="26.846" x2="105.747" y2="16.293" />
<line fill="none" stroke="#000000" stroke-width="2" stroke-linecap="round" x1="161.861" y1="50.914" x2="169.748" y2="48.247" />
<path fill="none" stroke="#000000" stroke-width="2" stroke-linecap="round" d="M107.108,105.999c0,0,23.547-1.921,25.654-1.308  c2.107,0.613,10.372,10.25,11.775,14.769c1.403,4.519-2.771,10.83-2.771,10.83" />
<path fill="none" stroke="#000000" stroke-width="2" stroke-linecap="round" d="M122.578,61.268c0,0,1.527-7.929,5.869-8.779  c5.009-0.981,9.125-1.092,10.626,3.538" />
<path fill="none" stroke="#000000" stroke-width="2" stroke-linecap="round" d="M142.976,81.541c0,0-0.408,9.236,0.125,13.515" />
<line fill="none" stroke="#000000" stroke-width="2" stroke-linecap="round" x1="142.004" y1="127.727" x2="140.967" y2="138.896" />
<g>
	<path d="M125.11,118.202c-0.144,1.067-0.095,2.135,0.188,3.085c0.288,0.951,0.833,1.74,1.578,2.277   c0.729,0.561,1.657,0.848,2.598,1.065c0.481,0.091,0.97,0.158,1.468,0.194c0.499,0.03,1.001,0.061,1.508,0.067l1.325,0.016   l-0.43,1.29c-0.102,0.307-0.208,0.692-0.291,1.048c-0.083,0.365-0.16,0.732-0.217,1.102c-0.134,0.736-0.222,1.479-0.241,2.217   c-0.009,0.369-0.002,0.736,0.02,1.101c0.03,0.364,0.059,0.724,0.111,1.083c0.111,0.713,0.308,1.404,0.605,2.047   c0.146,0.321,0.298,0.645,0.499,0.938c0.182,0.307,0.412,0.581,0.645,0.854c0.245,0.264,0.501,0.52,0.783,0.757   c0.279,0.237,0.581,0.458,0.899,0.657c0.634,0.402,1.329,0.742,2.057,1.021c0.727,0.29,1.489,0.511,2.266,0.729   c-0.4,0-0.805,0.012-1.211,0.001c-0.401-0.042-0.811-0.059-1.215-0.123c-0.803-0.144-1.623-0.323-2.396-0.669   c-0.387-0.165-0.77-0.36-1.136-0.584l-0.544-0.353l-0.504-0.415c-0.32-0.296-0.639-0.603-0.908-0.953   c-0.286-0.336-0.529-0.71-0.746-1.094c-0.425-0.776-0.725-1.612-0.917-2.461c-0.088-0.425-0.168-0.852-0.204-1.282   c-0.036-0.429-0.054-0.857-0.052-1.284c0.005-0.853,0.079-1.698,0.222-2.529c0.075-0.415,0.169-0.825,0.273-1.234   c0.109-0.415,0.219-0.798,0.378-1.242l0.895,1.306c-0.56-0.029-1.123-0.048-1.685-0.138c-0.562-0.083-1.124-0.203-1.683-0.354   c-1.111-0.318-2.223-0.85-3.103-1.709c-0.881-0.853-1.415-2.043-1.488-3.194C124.364,120.286,124.622,119.167,125.11,118.202z" />
</g>
<g>
	<path d="M118,123.5c0,0,0.573-0.158,1.433-0.395c0.808-0.234,1.778-0.508,2.66-0.9c0.232-0.076,0.438-0.202,0.658-0.297   c0.225-0.089,0.415-0.23,0.631-0.327c0.215-0.1,0.394-0.242,0.595-0.347c0.204-0.102,0.375-0.234,0.553-0.342   c0.164-0.12,0.356-0.202,0.491-0.311c0.137-0.105,0.277-0.189,0.389-0.262c0.23-0.143,0.382-0.222,0.382-0.222   s-0.004,0.16-0.046,0.436c-0.047,0.273-0.113,0.679-0.336,1.098c-0.104,0.214-0.204,0.465-0.378,0.679   c-0.17,0.216-0.333,0.471-0.562,0.673c-0.23,0.198-0.451,0.44-0.735,0.598c-0.272,0.177-0.557,0.347-0.864,0.466   c-1.222,0.529-2.575,0.505-3.474,0.2C118.48,123.986,118,123.5,118,123.5z" />
</g>
<g>
	<path d="M119.649,122.07c0,0,2.085,2.212,4.43,6.119c1.179,1.945,2.404,4.315,3.472,6.97c0.514,1.334,1.039,2.722,1.432,4.18   c0.425,1.447,0.74,2.954,1.009,4.469c0.228,1.523,0.375,3.061,0.403,4.582c0.011,0.761,0.024,1.516-0.049,2.261   c-0.026,0.372-0.051,0.742-0.076,1.109c-0.049,0.365-0.097,0.728-0.146,1.088c-0.178,1.44-0.519,2.809-0.92,4.074   c-0.173,0.641-0.425,1.238-0.653,1.817c-0.217,0.584-0.487,1.123-0.751,1.636c-0.476,1.051-1.094,1.915-1.576,2.706   c-0.554,0.749-1.04,1.394-1.467,1.901c-0.901,0.979-1.423,1.516-1.423,1.516s0.4-0.636,1.1-1.749   c0.333-0.563,0.69-1.273,1.13-2.058c0.357-0.833,0.829-1.73,1.183-2.776c0.198-0.514,0.398-1.049,0.542-1.625   c0.158-0.57,0.364-1.144,0.475-1.764c0.129-0.614,0.291-1.235,0.361-1.89c0.089-0.651,0.213-1.308,0.249-1.991   c0.03-0.339,0.059-0.681,0.089-1.026c0.007-0.346,0.014-0.695,0.022-1.046c0.029-0.7-0.007-1.411-0.021-2.127   c-0.047-1.432-0.213-2.884-0.447-4.325c-0.234-1.442-0.51-2.883-0.897-4.277c-0.368-1.397-0.769-2.768-1.217-4.077   c-0.468-1.301-0.91-2.569-1.404-3.744c-0.484-1.178-0.968-2.285-1.431-3.301C121.187,124.674,119.649,122.07,119.649,122.07z" />
</g>
<line fill="none" stroke="#000000" stroke-width="2" stroke-linecap="round" x1="145.379" y1="130.906" x2="144.536" y2="143.04" />
<line fill="none" stroke="#000000" stroke-width="2" stroke-linecap="round" x1="102.167" y1="90.167" x2="110.833" y2="93.333" />
<line fill="none" stroke="#000000" stroke-width="2" stroke-linecap="round" x1="102.423" y1="103.712" x2="109.986" y2="105.778" />
<path fill="none" stroke="#000000" stroke-width="2" stroke-linecap="round" d="M142.802,144.643c0,0-2.999,12.094-16.9,24.142  l-23.309,44.513" />
<path fill="none" stroke="#000000" d="M164.827,57.994" />
<g>
	<path d="M109.25,18.25c0,0,0.298,0.636,0.433,1.669c0.073,0.514,0.106,1.125,0.062,1.779c-0.037,0.655-0.166,1.35-0.371,2.027   c-0.226,0.668-0.498,1.332-0.884,1.877c-0.165,0.289-0.371,0.537-0.576,0.762c-0.191,0.236-0.39,0.441-0.601,0.603   c-0.387,0.358-0.761,0.585-1.032,0.724c-0.265,0.147-0.418,0.22-0.418,0.22s0.106-0.136,0.292-0.373   c0.094-0.112,0.209-0.248,0.34-0.403c0.117-0.164,0.248-0.35,0.391-0.552c0.152-0.192,0.285-0.421,0.425-0.66   c0.149-0.233,0.288-0.487,0.415-0.76c0.147-0.261,0.259-0.549,0.376-0.841c0.133-0.284,0.222-0.592,0.318-0.896   c0.117-0.298,0.173-0.616,0.262-0.919c0.055-0.312,0.146-0.613,0.191-0.914c0.109-0.599,0.182-1.168,0.238-1.663   C109.216,18.941,109.25,18.25,109.25,18.25z" />
</g>
<g>
	<path d="M136.624,139.435c0,0-0.311-0.616-0.475-1.629c-0.074-0.505-0.139-1.106-0.091-1.753c0.022-0.649,0.165-1.337,0.377-2.007   c0.138-0.325,0.243-0.662,0.426-0.962c0.156-0.313,0.345-0.599,0.56-0.855c0.103-0.13,0.199-0.262,0.304-0.381   c0.118-0.107,0.234-0.212,0.346-0.315c0.217-0.21,0.438-0.388,0.671-0.514c0.431-0.297,0.834-0.452,1.122-0.54   c0.283-0.096,0.443-0.14,0.443-0.14s-0.126,0.114-0.345,0.313c-0.11,0.092-0.243,0.204-0.395,0.333   c-0.145,0.135-0.288,0.31-0.458,0.475c-0.176,0.161-0.33,0.367-0.492,0.582c-0.175,0.203-0.329,0.438-0.474,0.69   c-0.169,0.235-0.284,0.513-0.419,0.784c-0.152,0.262-0.23,0.567-0.344,0.853c-0.105,0.291-0.187,0.593-0.265,0.89   c-0.051,0.304-0.152,0.595-0.184,0.892c-0.113,0.585-0.156,1.146-0.211,1.632C136.643,138.753,136.624,139.435,136.624,139.435z" />
</g>
<polyline fill="#FFFFFF" points="121.147,91.25 130.62,91.25 121.765,99.693 112.19,99.384 " />
<polyline fill="#FFFFFF" points="170.532,38.803 180.004,38.803 171.149,47.246 161.574,46.937 " />
<polyline fill="#FFFFFF" points="98.502,13.345 105.402,6.855 104.737,19.071 97.551,25.407 " />
<polyline fill="#FFFFFF" points="113.145,66.159 122.132,63.164 124.008,85.699 107.22,76.707 " />
<path fill="none" stroke="#000000" stroke-width="2" stroke-linecap="round" d="M107.192,92.361c0,0,21.261-1.43,29.035,0.223  c7.773,1.653,14.498,21.471,14.502,25.419c0.004,3.949-4.247,13.506-5.187,15.885" />
<path fill="none" stroke="#000000" stroke-width="2" stroke-linecap="round" d="M64.333,184.833c0,0,20.842-22.056,24.712-29.535  c3.87-7.48-5.695-55.204-3.827-63.623s28.649-21.042,33.215-24.942c4.566-3.9,40.305-14.905,43.428-16.037" />
<g>
	<path d="M135.17,138.57c0,0,0.414,0.648,1.111,1.419c0.165,0.199,0.383,0.383,0.577,0.595c0.222,0.191,0.439,0.4,0.691,0.583   c0.235,0.202,0.507,0.371,0.772,0.554c0.267,0.179,0.564,0.323,0.845,0.49c0.304,0.128,0.593,0.286,0.899,0.403   c0.313,0.098,0.606,0.243,0.913,0.329c0.307,0.081,0.603,0.181,0.888,0.274c0.292,0.056,0.569,0.125,0.828,0.193   c0.516,0.152,0.967,0.196,1.283,0.289c0.317,0.078,0.504,0.137,0.504,0.137s-0.176,0.068-0.493,0.161   c-0.318,0.075-0.777,0.251-1.345,0.273c-0.284,0.026-0.595,0.052-0.924,0.057c-0.328-0.022-0.679-0.044-1.04-0.088   c-0.361-0.044-0.727-0.158-1.1-0.255c-0.373-0.105-0.729-0.289-1.094-0.439c-0.34-0.206-0.696-0.391-1.001-0.639   c-0.308-0.244-0.604-0.491-0.846-0.777c-0.265-0.262-0.454-0.573-0.648-0.847c-0.174-0.29-0.332-0.565-0.435-0.841   C135.089,139.362,135.17,138.57,135.17,138.57z" />
</g>
<path fill="none" stroke="#000000" stroke-linecap="round" d="M104.787,28.871" />
</svg>
